<svg width="46" height="46" viewBox="0 0 46 46" fill="none" xmlns="http://www.w3.org/2000/svg">
<path d="M43.2003 29.6829C42.6989 29.2946 39.9729 27.9312 39.9729 27.9312C39.9729 27.9312 38.2755 26.2228 36.8136 24.702C36.0905 23.9476 35.4226 23.2392 35.0491 22.8059C34.2514 21.8785 33.0177 20.6522 31.4592 20.1986C31.405 20.182 31.3488 20.1682 31.2955 20.1517C29.7839 19.7184 28.0994 19.2317 26.0018 19.2317H4.97152C3.69272 19.2317 2.74696 18.9741 2.35688 19.6825C1.9668 20.3936 1.2998 24.909 1.2998 28.3369V30.2349H43.5683L43.6005 30.222C43.5195 30.0178 43.3926 29.8301 43.2003 29.6829ZM17.397 29.1778C17.397 29.4391 17.1827 29.6544 16.9186 29.6544H15.2028C14.9397 29.6544 14.7244 29.44 14.7244 29.1778V29.1042C14.7244 28.8429 14.9388 28.6258 15.2028 28.6258H16.9186C17.1818 28.6258 17.397 28.842 17.397 29.1042V29.1778ZM29.0718 29.1778C29.0718 29.4391 28.8575 29.6544 28.5934 29.6544H26.8776C26.6145 29.6544 26.3992 29.44 26.3992 29.1778V29.1042C26.3992 28.8429 26.6136 28.6258 26.8776 28.6258H28.5934C28.8566 28.6258 29.0718 28.842 29.0718 29.1042V29.1778ZM31.278 20.2096C31.3203 20.2658 31.3636 20.3256 31.4077 20.3872C31.3654 20.3274 31.3231 20.2685 31.278 20.2096Z" fill="white"/>
<path d="M44.6989 35.6758V37.11C44.6989 37.3189 44.5315 37.4872 44.3236 37.4872H42.812V35.2986H44.3236C44.5315 35.2986 44.6989 35.466 44.6989 35.6758Z" fill="#8B9194"/>
<path d="M37.9859 33.8431C35.9739 33.8431 34.3418 35.4743 34.3418 37.4872C34.3418 39.5002 35.9748 41.1314 37.9859 41.1314C39.997 41.1314 41.6319 39.5002 41.6319 37.4872C41.6319 35.4743 39.9989 33.8431 37.9859 33.8431ZM37.9859 39.8203C36.6979 39.8203 35.6528 38.7762 35.6528 37.4872C35.6528 36.1983 36.697 35.1541 37.9859 35.1541C39.2748 35.1541 40.319 36.1983 40.319 37.4872C40.319 38.7762 39.2767 39.8203 37.9859 39.8203Z" fill="#6A6565"/>
<path d="M37.986 35.1541C36.698 35.1541 35.6528 36.1983 35.6528 37.4872C35.6528 38.7762 36.697 39.8204 37.986 39.8204C39.2749 39.8204 40.3191 38.7762 40.3191 37.4872C40.3191 36.1983 39.2767 35.1541 37.986 35.1541ZM39.5914 36.5829C40.0348 37.3529 39.0072 37.2434 38.859 37.1652C38.8103 37.1404 38.7744 37.1018 38.7542 37.0677C38.7339 37.0318 38.7183 36.9812 38.7201 36.927C38.7275 36.7614 39.1479 35.8138 39.5914 36.582V36.5829ZM38.0274 35.6804C38.9152 35.6804 38.307 36.5176 38.1663 36.6059C38.1194 36.6344 38.0669 36.6473 38.0274 36.6473C37.9878 36.6473 37.9354 36.6344 37.8903 36.6059C37.7477 36.5176 37.1396 35.6804 38.0274 35.6804ZM36.4634 36.5829C36.9068 35.8147 37.3272 36.7614 37.3346 36.9279C37.3364 36.9822 37.3217 37.0328 37.3024 37.0686C37.2822 37.1027 37.2444 37.1404 37.1957 37.1662C37.0494 37.2434 36.019 37.3538 36.4634 36.5838V36.5829ZM36.4634 38.3907C36.0199 37.6206 37.0494 37.7301 37.1957 37.8083C37.2444 37.8332 37.2822 37.8718 37.3024 37.9058C37.3226 37.9417 37.3364 37.9923 37.3346 38.0466C37.3272 38.2122 36.9068 39.1598 36.4634 38.3916V38.3907ZM38.0274 39.2932C37.1396 39.2932 37.7477 38.456 37.8903 38.3677C37.9354 38.3392 37.9878 38.3263 38.0274 38.3263C38.0669 38.3263 38.1194 38.3392 38.1663 38.3677C38.307 38.456 38.9152 39.2932 38.0274 39.2932ZM38.0274 38.0356C37.7247 38.0356 37.479 37.7899 37.479 37.4872C37.479 37.1846 37.7247 36.9389 38.0274 36.9389C38.33 36.9389 38.5757 37.1846 38.5757 37.4872C38.5757 37.7899 38.33 38.0356 38.0274 38.0356ZM39.5914 38.3907C39.1479 39.1589 38.7275 38.2122 38.7201 38.0457C38.7183 37.9914 38.7348 37.9408 38.7542 37.9049C38.7744 37.8709 38.8103 37.8332 38.859 37.8074C39.0072 37.7301 40.0357 37.6197 39.5914 38.3898V38.3907Z" fill="#C7C2C2"/>
<path d="M39.5921 36.5838C40.0355 37.3538 39.0079 37.2444 38.8598 37.1662C38.811 37.1413 38.7751 37.1027 38.7549 37.0686C38.7346 37.0328 38.719 36.9822 38.7209 36.9279C38.7282 36.7623 39.1487 35.8147 39.5921 36.5829V36.5838Z" fill="#6A6565"/>
<path d="M38.8588 37.8083C39.0069 37.731 40.0355 37.6206 39.5911 38.3907C39.1477 39.1589 38.7272 38.2122 38.7199 38.0457C38.718 37.9914 38.7346 37.9408 38.7539 37.9049C38.7741 37.8709 38.81 37.8332 38.8588 37.8074V37.8083Z" fill="#6A6565"/>
<path d="M38.0273 36.9389C37.7246 36.9389 37.479 37.1846 37.479 37.4873C37.479 37.7899 37.7246 38.0356 38.0273 38.0356C38.33 38.0356 38.5756 37.7899 38.5756 37.4873C38.5756 37.1846 38.33 36.9389 38.0273 36.9389Z" fill="#6A6565"/>
<path d="M38.0271 35.6813C38.9149 35.6813 38.3068 36.5185 38.166 36.6068C38.1191 36.6353 38.0666 36.6482 38.0271 36.6482C37.9875 36.6482 37.9351 36.6353 37.89 36.6068C37.7474 36.5185 37.1393 35.6813 38.0271 35.6813Z" fill="#6A6565"/>
<path d="M38.166 38.3677C38.3068 38.456 38.9149 39.2932 38.0271 39.2932C37.1393 39.2932 37.7474 38.456 37.89 38.3677C37.9351 38.3392 37.9875 38.3263 38.0271 38.3263C38.0666 38.3263 38.1191 38.3392 38.166 38.3677Z" fill="#6A6565"/>
<path d="M37.3022 37.9058C37.3224 37.9417 37.3362 37.9923 37.3344 38.0466C37.327 38.2122 36.9066 39.1598 36.4631 38.3916C36.0197 37.6216 37.0492 37.731 37.1955 37.8092C37.2442 37.8341 37.2819 37.8727 37.3022 37.9068V37.9058Z" fill="#6A6565"/>
<path d="M37.3347 36.9279C37.3365 36.9822 37.3218 37.0328 37.3025 37.0686C37.2823 37.1027 37.2445 37.1404 37.1958 37.1662C37.0495 37.2434 36.0191 37.3538 36.4635 36.5838C36.9069 35.8156 37.3273 36.7623 37.3347 36.9288V36.9279Z" fill="#6A6565"/>
<path d="M29.072 29.1033V29.1769C29.072 29.4382 28.8577 29.6534 28.5936 29.6534H26.8778C26.6147 29.6534 26.3994 29.4391 26.3994 29.1769V29.1033C26.3994 28.842 26.6138 28.6249 26.8778 28.6249H28.5936C28.8567 28.6249 29.072 28.8411 29.072 29.1033Z" fill="#6A6565"/>
<path d="M24.2759 14.5259H23.2437C22.7423 14.5259 22.3311 14.9371 22.3311 15.4385V17.9575H25.1867C25.1867 17.9446 25.1886 17.929 25.1886 17.9142V15.4385C25.1886 14.9371 24.7773 14.5259 24.2759 14.5259Z" fill="#FF4B72"/>
<path d="M21.5181 17.9575H26.0012V19.1857H21.5181V17.9575Z" fill="#0ABF7C"/>
<path d="M17.3972 29.1033V29.1769C17.3972 29.4382 17.1828 29.6534 16.9188 29.6534H15.203C14.9399 29.6534 14.7246 29.4391 14.7246 29.1769V29.1033C14.7246 28.842 14.939 28.6249 15.203 28.6249H16.9188C17.1819 28.6249 17.3972 28.8411 17.3972 29.1033Z" fill="#6A6565"/>
<path d="M9.56525 36.5838C9.86333 37.0999 9.49625 37.2204 9.18069 37.2204C9.02337 37.2204 8.88077 37.1919 8.83293 37.1662C8.78509 37.1404 8.74829 37.1027 8.72621 37.0686C8.70597 37.0328 8.69217 36.9822 8.69401 36.9279C8.69953 36.8037 8.93965 36.2351 9.24785 36.2894C9.34721 36.3078 9.45669 36.3943 9.56525 36.5838Z" fill="#6A6565"/>
<path d="M8.83292 37.8083C8.9792 37.731 10.0096 37.6206 9.56524 38.3907C9.1218 39.1589 8.70136 38.2122 8.694 38.0457C8.69216 37.9914 8.70688 37.9408 8.7262 37.9049C8.74828 37.8709 8.78416 37.8332 8.83292 37.8074V37.8083Z" fill="#6A6565"/>
<path d="M9.94419 36.1974C9.52743 35.57 8.81259 35.155 8.00115 35.155C7.46387 35.155 6.96891 35.3372 6.57607 35.6435C6.02407 36.0677 5.66895 36.7365 5.66895 37.4872C5.66895 38.7752 6.71315 39.8203 8.00207 39.8203C9.29099 39.8203 10.3352 38.7762 10.3352 37.4872C10.3352 37.0107 10.1907 36.5672 9.94511 36.1974H9.94419ZM9.24775 36.2894C9.34711 36.3078 9.45659 36.3943 9.56515 36.5838C9.86323 37.0999 9.49615 37.2204 9.18059 37.2204C9.02327 37.2204 8.88067 37.1919 8.83283 37.1662C8.78499 37.1404 8.74819 37.1027 8.72611 37.0686C8.70587 37.0328 8.69207 36.9822 8.69391 36.9279C8.69943 36.8037 8.93955 36.2351 9.24775 36.2894ZM8.00115 35.6813C8.37099 35.6813 8.48138 35.8257 8.47219 36.0023C8.46299 36.2498 8.22103 36.5562 8.13823 36.6068C8.09315 36.6353 8.04071 36.6482 8.00115 36.6482C7.96159 36.6482 7.90915 36.6353 7.86223 36.6068C7.76103 36.5433 7.41879 36.0925 7.56415 35.845C7.62027 35.7475 7.74999 35.6813 8.00115 35.6813ZM6.43715 36.5838C6.88059 35.8156 7.30103 36.7623 7.30839 36.9288C7.31023 36.9831 7.29367 37.0337 7.27435 37.0695C7.25411 37.1036 7.21823 37.1413 7.16947 37.1671C7.02135 37.2443 5.99279 37.3548 6.43715 36.5847V36.5838ZM6.43715 38.3916C5.99371 37.6215 7.02135 37.731 7.16947 37.8092C7.21823 37.8341 7.25411 37.8727 7.27435 37.9067C7.29459 37.9426 7.31023 37.9932 7.30839 38.0475C7.30103 38.2131 6.88059 39.1607 6.43715 38.3925V38.3916ZM8.00115 39.2941C7.11335 39.2941 7.72147 38.4569 7.86223 38.3686C7.90915 38.3401 7.96159 38.3272 8.00115 38.3272C8.04071 38.3272 8.09315 38.3401 8.13823 38.3686C8.28083 38.4569 8.88895 39.2941 8.00115 39.2941ZM8.00115 38.0365C7.69847 38.0365 7.45283 37.7908 7.45283 37.4882C7.45283 37.1855 7.69847 36.9398 8.00115 36.9398C8.30383 36.9398 8.54947 37.1855 8.54947 37.4882C8.54947 37.7908 8.30383 38.0365 8.00115 38.0365ZM9.56515 38.3916C9.12171 39.1598 8.70127 38.2131 8.69391 38.0466C8.69207 37.9923 8.70679 37.9417 8.72611 37.9058C8.74819 37.8718 8.78407 37.8341 8.83283 37.8083C8.97911 37.731 10.0095 37.6206 9.56515 38.3907V38.3916Z" fill="#C7C2C2"/>
<path d="M8.00144 36.9389C7.69876 36.9389 7.45312 37.1846 7.45312 37.4873C7.45312 37.7899 7.69876 38.0356 8.00144 38.0356C8.30412 38.0356 8.54976 37.7899 8.54976 37.4873C8.54976 37.1846 8.30412 36.9389 8.00144 36.9389Z" fill="#6A6565"/>
<path d="M8.00108 35.6813C7.74992 35.6813 7.6202 35.7484 7.56408 35.845C7.4178 36.0925 7.76096 36.5433 7.86216 36.6068C7.90908 36.6353 7.96152 36.6482 8.00108 36.6482C8.04064 36.6482 8.09308 36.6353 8.13816 36.6068C8.22096 36.5562 8.46292 36.2498 8.47212 36.0024C8.48132 35.8257 8.37092 35.6813 8.00108 35.6813Z" fill="#6A6565"/>
<path d="M8.1384 38.3677C8.281 38.456 8.88912 39.2932 8.00132 39.2932C7.11352 39.2932 7.72164 38.456 7.8624 38.3677C7.90932 38.3392 7.96176 38.3263 8.00132 38.3263C8.04088 38.3263 8.09332 38.3392 8.1384 38.3677Z" fill="#6A6565"/>
<path d="M7.2746 37.9058C7.29484 37.9417 7.31048 37.9923 7.30864 38.0466C7.30128 38.2122 6.88084 39.1598 6.4374 38.3916C5.99396 37.6216 7.0216 37.731 7.16972 37.8092C7.21848 37.8341 7.25436 37.8727 7.2746 37.9068V37.9058Z" fill="#6A6565"/>
<path d="M7.30848 36.9279C7.31032 36.9822 7.29376 37.0328 7.27444 37.0686C7.2542 37.1027 7.21832 37.1404 7.16956 37.1662C7.02144 37.2434 5.99288 37.3538 6.43724 36.5838C6.88068 35.8156 7.30112 36.7623 7.30848 36.9288V36.9279Z" fill="#6A6565"/>
<path d="M11.4556 36.3271C10.9717 34.8818 9.60824 33.8431 8.001 33.8431C6.82248 33.8431 5.7746 34.4025 5.10852 35.27C4.63564 35.8837 4.35596 36.6519 4.35596 37.4872C4.35596 39.5002 5.98712 41.1314 8.00008 41.1314C10.013 41.1314 11.6442 39.5002 11.6442 37.4872C11.6442 37.0815 11.577 36.6914 11.4547 36.3271H11.4556ZM8.001 39.8203C6.713 39.8203 5.66788 38.7762 5.66788 37.4872C5.66788 36.7365 6.023 36.0677 6.575 35.6435C6.96876 35.3372 7.4628 35.155 8.00008 35.155C8.81152 35.155 9.52636 35.57 9.94312 36.1974C10.1888 36.5672 10.3332 37.0107 10.3332 37.4872C10.3332 38.7752 9.289 39.8203 8.00008 39.8203H8.001Z" fill="#6A6565"/>
<path d="M43.7542 32.8329C43.7542 33.0409 43.5867 33.2065 43.3788 33.2065H1.30078V37.4881H4.35702C4.35702 36.6528 4.6367 35.8846 5.10958 35.2709C5.77566 34.4034 6.82354 33.844 8.00206 33.844C9.6093 33.844 10.9737 34.8836 11.4567 36.328C11.579 36.6923 11.6462 37.0824 11.6462 37.4881H34.3426C34.3426 35.4743 35.9756 33.844 37.9867 33.844C39.9978 33.844 41.6327 35.4752 41.6327 37.4881H42.813V35.2995H43.7569V32.8329H43.7551H43.7542Z" fill="white"/>
<path d="M1.30078 33.9094V37.4872H4.35702C4.35702 36.6519 4.6367 35.8837 5.10958 35.27C3.78938 34.8984 2.55106 34.4402 1.41486 33.9094H1.30078Z" fill="#F2EDED"/>
<path d="M43.6005 30.222C43.5195 30.0178 43.3926 29.8301 43.2003 29.6829C42.6989 29.2946 39.9729 27.9312 39.9729 27.9312C39.9729 27.9312 38.2755 26.2228 36.8136 24.702C36.0905 23.9476 35.4226 23.2392 35.0491 22.8059C34.2514 21.8785 33.0177 20.6522 31.4592 20.1986C31.405 20.182 31.3488 20.1682 31.2955 20.1517L31.2789 20.2096C31.7987 20.9006 32.4878 22.1076 32.4878 22.1076C32.4878 22.1076 34.3425 26.6404 30.7122 30.2349C29.7232 31.3462 28.437 32.3472 26.9163 33.2065C26.4995 33.4411 26.0662 33.6665 25.6172 33.8781C22.4092 35.3933 18.3722 36.3207 13.9737 36.386C13.8118 36.3878 13.6471 36.3897 13.4834 36.3897C12.7998 36.3897 12.1227 36.3676 11.4575 36.328C11.5799 36.6924 11.647 37.0824 11.647 37.4882H34.3434C34.3434 35.4743 35.9764 33.844 37.9876 33.844C39.9987 33.844 41.6335 35.4752 41.6335 37.4882H42.8139V35.2995H43.7578V31.2312C43.7578 30.9138 43.7357 30.5477 43.6023 30.2229L43.6005 30.222Z" fill="#F2EDED"/>
<path d="M32.4872 22.1067V27.0857C32.4872 27.1593 32.4965 27.232 32.5121 27.3001C32.5931 27.6626 32.8783 27.9294 33.2159 27.9294H37.7331L32.4863 22.1058L32.4872 22.1067Z" fill="#0ABF7C"/>
<path d="M31.2369 22.0184C31.0998 21.9043 30.925 21.8362 30.7355 21.8362H27.3867C26.9534 21.8362 26.6001 22.1895 26.6001 22.621V27.1455C26.6001 27.3617 26.6884 27.5605 26.8329 27.7031C26.9755 27.842 27.1705 27.9303 27.3867 27.9303H30.7355C31.1688 27.9303 31.5221 27.5789 31.5221 27.1455V22.621C31.5221 22.379 31.4099 22.1628 31.2369 22.0184Z" fill="#0ABF7C"/>
<path d="M24.3304 21.896C24.2568 21.8583 24.1731 21.8362 24.0866 21.8362H15.4773C15.1773 21.8362 14.9326 22.0819 14.9326 22.3809V27.3857C14.9326 27.5605 15.0154 27.7159 15.1433 27.8153C15.2353 27.8871 15.3521 27.9312 15.4773 27.9312H24.0866C24.3865 27.9312 24.6313 27.6856 24.6313 27.3866V22.3818C24.6313 22.1693 24.5089 21.9853 24.3304 21.896Z" fill="#0ABF7C"/>
<path d="M10.4302 23.4545V25.0654H9.05485V26.4389H7.44577V25.0654H6.07129V23.4545H7.44577V22.08H9.05485V23.4545H10.4302Z" fill="#FF4B72"/>
<path d="M25.7666 37.3593H25.4667V21.977C25.4667 21.4406 25.0297 21.0045 24.4924 21.0045H15.0965C14.5592 21.0045 14.1222 21.4406 14.1222 21.977V37.3593H13.8223V21.977C13.8223 21.2759 14.3936 20.7046 15.0965 20.7046H24.4924C25.1953 20.7046 25.7666 21.275 25.7666 21.977V37.3593Z" fill="#F2EDED"/>
<path d="M12.1552 27.8245H4.34534C3.7777 27.8245 3.31494 27.3626 3.31494 26.795V21.7258C3.31494 21.1582 3.77678 20.6954 4.34534 20.6954H12.1543C12.7219 20.6954 13.1847 21.1572 13.1847 21.7258V26.795C13.1847 27.3626 12.7229 27.8245 12.1543 27.8245H12.1552ZM4.34534 20.9953C3.94238 20.9953 3.61486 21.3228 3.61486 21.7258V26.795C3.61486 27.197 3.94238 27.5246 4.34534 27.5246H12.1543C12.5573 27.5246 12.8848 27.197 12.8848 26.795V21.7258C12.8848 21.3228 12.5573 20.9953 12.1543 20.9953H4.34534Z" fill="#F2EDED"/>
<path d="M25.1898 15.4385V17.9142C25.1898 17.929 25.1879 17.9446 25.1879 17.9575H23.3047C23.5623 17.7486 23.772 17.4828 23.9054 17.1782C23.9956 16.9694 24.0517 16.7468 24.095 16.525C24.2228 15.8663 24.2587 15.1938 24.2017 14.5259H24.2771C24.7785 14.5259 25.1898 14.9371 25.1898 15.4385Z" fill="#FF4B72"/>
<path d="M26.0012 17.9575V19.2289H21.5181V18.4561C21.6349 18.4359 21.8189 18.4672 21.9183 18.4653C22.4197 18.4598 22.9155 18.2721 23.3038 17.9584H26.0012V17.9575Z" fill="#008D5C"/>
<path d="M32.4868 22.1067V22.3845C32.7867 23.1858 32.945 24.0212 32.945 24.8759C32.945 25.7306 32.8373 26.6046 32.5549 27.3857C32.6359 27.7481 32.8787 27.9303 33.2164 27.9303H37.7336L32.4868 22.1067Z" fill="#008D5C"/>
<path d="M31.5218 22.621V27.1455C31.5218 27.5789 31.1685 27.9303 30.7352 27.9303H27.3864C27.1702 27.9303 26.9751 27.842 26.8325 27.7031L31.2366 22.0184C31.4095 22.1628 31.5218 22.379 31.5218 22.621Z" fill="#008D5C"/>
<path d="M24.6319 22.3808V27.3856C24.6319 27.6856 24.3863 27.9303 24.0873 27.9303H19.7808V27.7628L24.3311 21.896C24.5096 21.9843 24.6319 22.1683 24.6319 22.3818V22.3808Z" fill="#008D5C"/>
<path d="M19.7808 27.7628V27.9303H15.478C15.3538 27.9303 15.236 27.887 15.144 27.8143L19.7808 21.8353V27.7619V27.7628Z" fill="#008D5C"/>
<path d="M23.7601 10.7658C23.7187 10.7658 23.6855 10.7327 23.6855 10.6913V5.09311C23.6855 5.05171 23.7187 5.01859 23.7601 5.01859C23.8015 5.01859 23.8346 5.05171 23.8346 5.09311V10.6913C23.8346 10.7327 23.8015 10.7658 23.7601 10.7658Z" fill="#F2EDED"/>
<path d="M20.9989 12.0934C20.9796 12.0934 20.9603 12.086 20.9456 12.0713L17.0144 8.08588C16.985 8.05644 16.9859 8.0086 17.0144 7.98008C17.0439 7.95064 17.0917 7.95156 17.1202 7.98008L21.0514 11.9655C21.0808 11.995 21.0799 12.0428 21.0514 12.0713C21.0367 12.086 21.0173 12.0925 20.9989 12.0925V12.0934Z" fill="#F2EDED"/>
<path d="M13.5975 14.6206C13.5561 14.6206 13.5229 14.5875 13.5229 14.5461C13.5229 14.5047 13.5561 14.4707 13.5975 14.4707L19.1957 14.433C19.2371 14.433 19.2702 14.4661 19.2702 14.5075C19.2702 14.5489 19.2371 14.5829 19.1957 14.5829L13.5975 14.6206Z" fill="#F2EDED"/>
<path d="M26.6009 12.0934C26.5816 12.0934 26.5632 12.086 26.5484 12.0722C26.519 12.0428 26.519 11.9959 26.5484 11.9664L30.4796 7.981C30.509 7.95156 30.556 7.95156 30.5854 7.981C30.6148 8.01044 30.6148 8.05736 30.5854 8.0868L26.6542 12.0722C26.6395 12.087 26.6202 12.0943 26.6009 12.0943V12.0934Z" fill="#F2EDED"/>
<path d="M34.0023 14.6206L28.4041 14.5829C28.3627 14.5829 28.3296 14.5489 28.3296 14.5075C28.3296 14.4661 28.3636 14.433 28.4041 14.433L34.0023 14.4707C34.0437 14.4707 34.0768 14.5047 34.0768 14.5461C34.0768 14.5875 34.0428 14.6206 34.0023 14.6206Z" fill="#F2EDED"/>
<path d="M28.5936 28.6249H26.8778C26.6147 28.6249 26.3994 28.8411 26.3994 29.1033V29.1769C26.3994 29.4382 26.6138 29.6535 26.8778 29.6535H28.5936C28.8567 29.6535 29.072 29.4391 29.072 29.1769V29.1033C29.072 28.842 28.8577 28.6249 28.5936 28.6249Z" fill="#564B57"/>
<path d="M16.9188 28.6249H15.203C14.9399 28.6249 14.7246 28.8411 14.7246 29.1033V29.1769C14.7246 29.4382 14.939 29.6535 15.203 29.6535H16.9188C17.1819 29.6535 17.3972 29.4391 17.3972 29.1769V29.1033C17.3972 28.842 17.1828 28.6249 16.9188 28.6249Z" fill="#564B57"/>
<path d="M12.1539 20.5464H4.34589C3.69545 20.5464 3.16553 21.0754 3.16553 21.7249V26.795C3.16553 27.4455 3.69545 27.9754 4.34589 27.9754H12.1539C12.8044 27.9754 13.3343 27.4455 13.3343 26.795V21.7249C13.3343 21.0754 12.8044 20.5464 12.1539 20.5464ZM12.7344 26.795C12.7344 27.1152 12.4741 27.3755 12.1539 27.3755H4.34589C4.02573 27.3755 3.76537 27.1152 3.76537 26.795V21.7249C3.76537 21.4057 4.02573 21.1462 4.34589 21.1462H12.1539C12.4741 21.1462 12.7344 21.4057 12.7344 21.7249V26.795Z" fill="#564B57"/>
<path d="M24.0862 21.5363H15.4769C15.0114 21.5363 14.6323 21.9153 14.6323 22.3808V27.3856C14.6323 27.8512 15.0114 28.2302 15.4769 28.2302H24.0862C24.5518 28.2302 24.9308 27.8512 24.9308 27.3856V22.3808C24.9308 21.9153 24.5518 21.5363 24.0862 21.5363ZM19.4798 27.6304H15.4769C15.3444 27.6304 15.2322 27.5181 15.2322 27.3856V22.3808C15.2322 22.2484 15.3444 22.1361 15.4769 22.1361H19.4798V27.6304ZM24.331 27.3856C24.331 27.5181 24.2187 27.6304 24.0862 27.6304H20.0796V22.1361H24.0862C24.2187 22.1361 24.331 22.2484 24.331 22.3808V27.3856Z" fill="#564B57"/>
<path d="M27.3863 28.2302H30.7351C31.334 28.2302 31.8216 27.7435 31.8216 27.1455V22.621C31.8216 22.023 31.334 21.5363 30.7351 21.5363H27.3863C26.7874 21.5363 26.2998 22.023 26.2998 22.621V27.1455C26.2998 27.7435 26.7874 28.2302 27.3863 28.2302ZM26.8996 22.621C26.8996 22.3532 27.1177 22.1361 27.3863 22.1361H30.7351C31.0038 22.1361 31.2218 22.3532 31.2218 22.621V27.1455C31.2218 27.4132 31.0038 27.6304 30.7351 27.6304H27.3863C27.1177 27.6304 26.8996 27.4132 26.8996 27.1455V22.621Z" fill="#564B57"/>
<path d="M33.2155 28.2302H37.7327C37.8514 28.2302 37.9581 28.1603 38.0069 28.0527C38.0547 27.9441 38.0354 27.8181 37.9554 27.7297L32.7086 21.9061C32.6258 21.8141 32.4942 21.7829 32.3783 21.827C32.2624 21.8712 32.186 21.9825 32.186 22.1067V27.0857C32.186 27.7169 32.6479 28.2302 33.2146 28.2302H33.2155ZM32.7868 22.8878L37.0593 27.6304H33.2155C32.9828 27.6304 32.7868 27.3811 32.7868 27.0857V22.8869V22.8878Z" fill="#564B57"/>
<path d="M10.4299 23.1546H9.35537V22.08C9.35537 21.9144 9.22105 21.7801 9.05545 21.7801H7.44637C7.28077 21.7801 7.14645 21.9144 7.14645 22.08V23.1546H6.07189C5.90629 23.1546 5.77197 23.2889 5.77197 23.4545V25.0654C5.77197 25.231 5.90629 25.3653 6.07189 25.3653H7.14645V26.438C7.14645 26.6036 7.28077 26.738 7.44637 26.738H9.05545C9.22105 26.738 9.35537 26.6036 9.35537 26.438V25.3653H10.4299C10.5955 25.3653 10.7299 25.231 10.7299 25.0654V23.4545C10.7299 23.2889 10.5955 23.1546 10.4299 23.1546ZM10.13 24.7655H9.05545C8.88985 24.7655 8.75553 24.8998 8.75553 25.0654V26.1381H7.74629V25.0654C7.74629 24.8998 7.61197 24.7655 7.44637 24.7655H6.37181V23.7544H7.44637C7.61197 23.7544 7.74629 23.6201 7.74629 23.4545V22.3799H8.75553V23.4545C8.75553 23.6201 8.88985 23.7544 9.05545 23.7544H10.13V24.7655Z" fill="#564B57"/>
<path d="M7.37744 37.4873C7.37744 37.8304 7.65712 38.1101 8.0012 38.111C8.34528 38.111 8.62496 37.8313 8.62496 37.4873C8.62496 37.1432 8.34528 36.8635 8.0012 36.8635C7.65712 36.8635 7.37744 37.1432 7.37744 37.4873Z" fill="#564B57"/>
<path d="M7.82233 36.6703C7.87569 36.7043 7.94101 36.7237 8.00081 36.7237C8.06061 36.7237 8.12501 36.7043 8.17929 36.6703C8.28509 36.6031 8.62273 36.1845 8.53441 35.8791C8.48197 35.6979 8.30257 35.6059 8.00081 35.6059C7.69905 35.6059 7.51965 35.6979 7.46721 35.8791C7.37889 36.1845 7.71653 36.6031 7.82233 36.6703Z" fill="#564B57"/>
<path d="M8.17837 38.3042C8.07073 38.2371 7.92905 38.2371 7.82233 38.3042C7.71653 38.3705 7.37889 38.79 7.46721 39.0954C7.51965 39.2767 7.69905 39.3687 8.00081 39.3687C8.30257 39.3687 8.48197 39.2767 8.53441 39.0954C8.62273 38.79 8.28509 38.3714 8.17929 38.3042H8.17837Z" fill="#564B57"/>
<path d="M6.8189 37.2968C6.99186 37.2968 7.1501 37.2618 7.20438 37.2333C7.2605 37.2039 7.30926 37.157 7.33962 37.1054C7.36906 37.0539 7.3847 36.9877 7.38286 36.9251C7.37826 36.8 7.18414 36.2977 6.87502 36.2213C6.69194 36.1762 6.52266 36.2857 6.37178 36.547C6.2209 36.8083 6.21078 37.0098 6.34142 37.1459C6.45274 37.2618 6.64318 37.2977 6.8189 37.2977V37.2968Z" fill="#564B57"/>
<path d="M8.79679 37.7412C8.74067 37.7706 8.69191 37.8175 8.66155 37.869C8.63211 37.9206 8.61647 37.9868 8.61831 38.0494C8.62291 38.1745 8.81703 38.6768 9.12615 38.7522C9.15283 38.7587 9.17951 38.7624 9.20619 38.7624C9.35891 38.7624 9.50151 38.6501 9.63031 38.4275C9.78119 38.1662 9.79131 37.9647 9.66067 37.8286C9.44079 37.5995 8.90811 37.6823 8.79771 37.7402L8.79679 37.7412Z" fill="#564B57"/>
<path d="M7.20438 37.7412C7.09398 37.6832 6.5613 37.6004 6.34142 37.8295C6.21078 37.9656 6.2209 38.1671 6.37178 38.4284C6.50058 38.651 6.64226 38.7633 6.7959 38.7633C6.82258 38.7633 6.84834 38.7596 6.87594 38.7532C7.18414 38.6768 7.37826 38.1745 7.38378 38.0494C7.38654 37.9859 7.3709 37.9206 7.34054 37.869C7.3111 37.8175 7.26142 37.7706 7.2053 37.7412H7.20438Z" fill="#564B57"/>
<path d="M9.12729 36.2213C8.81909 36.2977 8.62497 36.8 8.61945 36.9242C8.61669 36.9877 8.63233 37.053 8.66269 37.1055C8.69213 37.157 8.74181 37.2039 8.79793 37.2333C8.85313 37.2618 9.01137 37.2968 9.18341 37.2968C9.35545 37.2968 9.54957 37.2609 9.66089 37.145C9.79153 37.0088 9.78141 36.8074 9.63053 36.5461C9.47965 36.2848 9.31037 36.1753 9.12729 36.2204V36.2213Z" fill="#564B57"/>
<path d="M38.0281 38.111C38.3725 38.111 38.6518 37.8317 38.6518 37.4873C38.6518 37.1428 38.3725 36.8635 38.0281 36.8635C37.6836 36.8635 37.4043 37.1428 37.4043 37.4873C37.4043 37.8317 37.6836 38.111 38.0281 38.111Z" fill="#564B57"/>
<path d="M37.8497 36.6703C37.903 36.7043 37.9684 36.7237 38.0282 36.7237C38.088 36.7237 38.1524 36.7043 38.2066 36.6703C38.3124 36.6031 38.6501 36.1845 38.5618 35.8791C38.5093 35.6979 38.3299 35.6059 38.0282 35.6059C37.7264 35.6059 37.547 35.6979 37.4946 35.8791C37.4062 36.1845 37.7439 36.6031 37.8497 36.6703Z" fill="#564B57"/>
<path d="M38.2057 38.3042C38.0981 38.2371 37.9564 38.2371 37.8497 38.3042C37.7439 38.3705 37.4062 38.79 37.4946 39.0954C37.547 39.2767 37.7264 39.3687 38.0282 39.3687C38.3299 39.3687 38.5093 39.2767 38.5618 39.0954C38.6501 38.79 38.3124 38.3714 38.2066 38.3042H38.2057Z" fill="#564B57"/>
<path d="M36.8458 37.2968C37.0187 37.2968 37.177 37.2618 37.2312 37.2333C37.2874 37.2039 37.3361 37.157 37.3665 37.1054C37.3959 37.0539 37.4116 36.9877 37.4097 36.9251C37.4051 36.8 37.211 36.2977 36.9019 36.2213C36.7188 36.1762 36.5495 36.2857 36.3986 36.547C36.2478 36.8083 36.2376 37.0098 36.3683 37.1459C36.4796 37.2618 36.67 37.2977 36.8458 37.2977V37.2968Z" fill="#564B57"/>
<path d="M38.8236 37.7412C38.7675 37.7706 38.7188 37.8175 38.6884 37.869C38.659 37.9206 38.6433 37.9868 38.6452 38.0494C38.6498 38.1745 38.8439 38.6768 39.153 38.7522C39.1797 38.7587 39.2064 38.7624 39.233 38.7624C39.3858 38.7624 39.5284 38.6501 39.6572 38.4275C39.808 38.1662 39.8182 37.9647 39.6875 37.8286C39.4676 37.5995 38.935 37.6823 38.8246 37.7402L38.8236 37.7412Z" fill="#564B57"/>
<path d="M37.2312 37.7412C37.1208 37.6832 36.5882 37.6004 36.3683 37.8295C36.2376 37.9656 36.2478 38.1671 36.3986 38.4284C36.5274 38.651 36.6691 38.7633 36.8228 38.7633C36.8494 38.7633 36.8752 38.7596 36.9028 38.7532C37.211 38.6768 37.4051 38.1745 37.4106 38.0494C37.4134 37.9859 37.3978 37.9206 37.3674 37.869C37.338 37.8175 37.2883 37.7706 37.2322 37.7412H37.2312Z" fill="#564B57"/>
<path d="M39.1532 36.2213C38.845 36.2977 38.6509 36.8 38.6453 36.9242C38.6426 36.9877 38.6582 37.053 38.6886 37.1055C38.718 37.157 38.7677 37.2039 38.8238 37.2333C38.879 37.2618 39.0373 37.2968 39.2093 37.2968C39.3813 37.2968 39.5755 37.2609 39.6868 37.145C39.8174 37.0088 39.8073 36.8074 39.6564 36.5461C39.5055 36.2848 39.3363 36.1753 39.1532 36.2204V36.2213Z" fill="#564B57"/>
<path d="M23.46 5.09313V10.6913C23.46 10.8569 23.5943 10.9913 23.7599 10.9913C23.9255 10.9913 24.0598 10.8569 24.0598 10.6913V5.09313C24.0598 4.92753 23.9255 4.79321 23.7599 4.79321C23.5943 4.79321 23.46 4.92753 23.46 5.09313Z" fill="#564B57"/>
<path d="M20.9988 12.3179C21.0751 12.3179 21.1506 12.2894 21.2095 12.2314C21.3272 12.1155 21.3291 11.925 21.2122 11.8073L17.2811 7.82185C17.1651 7.70409 16.9747 7.70225 16.8569 7.81909C16.7392 7.93501 16.7373 8.12545 16.8542 8.24321L20.7853 12.2286C20.8442 12.2884 20.9215 12.3179 20.9988 12.3179Z" fill="#564B57"/>
<path d="M19.1927 14.2085L13.5945 14.2462C13.4289 14.2471 13.2955 14.3824 13.2964 14.548C13.2973 14.7127 13.4316 14.8461 13.5963 14.8461H13.5982L19.1964 14.8083C19.362 14.8074 19.4954 14.6722 19.4944 14.5066C19.4935 14.3419 19.3592 14.2085 19.1945 14.2085H19.1927Z" fill="#564B57"/>
<path d="M30.7423 7.8191C30.6246 7.70318 30.4341 7.7041 30.3182 7.82186L26.387 11.8073C26.2711 11.9251 26.272 12.1155 26.3898 12.2314C26.4487 12.2894 26.5241 12.3179 26.6005 12.3179C26.6768 12.3179 26.755 12.2885 26.8139 12.2287L30.7451 8.24322C30.861 8.12546 30.8601 7.93502 30.7423 7.8191Z" fill="#564B57"/>
<path d="M28.4021 14.8083L34.0003 14.8461H34.0021C34.1668 14.8461 34.3011 14.7127 34.302 14.548C34.303 14.3824 34.1696 14.2471 34.004 14.2462L28.4058 14.2085H28.4039C28.2392 14.2085 28.1049 14.3419 28.104 14.5066C28.1031 14.6722 28.2365 14.8074 28.4021 14.8083Z" fill="#564B57"/>
<path d="M43.6005 30.222L43.5683 30.2349H1.30078V33.2065H43.3788C43.5739 33.2065 43.7321 33.0593 43.7505 32.8688C43.7569 32.8467 43.756 32.8329 43.756 32.8329V31.2312C43.756 30.9138 43.7339 30.5477 43.6005 30.2229V30.222Z" fill="#FF4B72"/>
<path d="M43.7562 31.2303C43.7562 30.9129 43.7341 30.5467 43.6007 30.222L43.5685 30.2349H30.7124C29.7234 31.3462 28.4373 32.3472 26.9165 33.2065H43.379C43.574 33.2065 43.7323 33.0593 43.7507 32.8688C43.7571 32.8467 43.7562 32.8329 43.7562 32.8329V31.2312V31.2303Z" fill="#FF4B72"/>
<path d="M43.7545 31.6811V32.832C43.7545 33.0399 43.5871 33.2055 43.3792 33.2055H42.748C42.542 33.2055 42.3745 33.0399 42.3745 32.832V31.6811C42.3745 31.475 42.542 31.3076 42.748 31.3076H43.3792C43.5871 31.3076 43.7545 31.475 43.7545 31.6811Z" fill="#FFE780"/>
<path d="M44.3238 34.9986H44.0551V31.2303C44.0551 30.9092 44.0349 30.4906 43.8785 30.1107C43.7699 29.8374 43.6025 29.613 43.3826 29.4446C42.8932 29.0656 40.5831 27.9008 40.1497 27.6837C39.7661 27.2973 36.3262 23.8243 35.2756 22.609C34.0299 21.1609 32.8091 20.2777 31.5413 19.9097C30.0886 19.4884 28.4519 19.0946 26.3001 18.9713V17.9575C26.3001 17.7919 26.1657 17.6576 26.0001 17.6576H25.4886V15.4385C25.4886 14.7697 24.9449 14.226 24.2761 14.226H23.2438C22.575 14.226 22.0313 14.7697 22.0313 15.4385V17.6576H21.5179C21.3523 17.6576 21.218 17.7919 21.218 17.9575V18.9308H4.97262C4.6911 18.9308 4.42798 18.918 4.17406 18.906C3.26878 18.8628 2.48678 18.8241 2.09486 19.538C1.64314 20.3624 1.00098 25.0525 1.00098 28.3369V37.4872C1.00098 37.6528 1.1353 37.7872 1.3009 37.7872H4.29458C4.44822 39.698 6.05086 41.2068 8.00126 41.2068C9.95166 41.2068 11.5543 39.698 11.7079 37.7872H34.2801C34.4338 39.698 36.0364 41.2068 37.9868 41.2068C39.9372 41.2068 41.5399 39.698 41.6935 37.7872H42.7708C42.7782 37.7872 42.7846 37.7853 42.792 37.7853C42.7993 37.7853 42.8058 37.7872 42.8131 37.7872H44.3247C44.6973 37.7872 45 37.4836 45 37.11V35.6758C45 35.3022 44.6973 34.9986 44.3247 34.9986H44.3238ZM43.3863 30.5339C43.4259 30.693 43.4443 30.8596 43.4507 31.015C43.4268 31.0123 43.4029 31.0077 43.378 31.0077H42.7469C42.3752 31.0077 42.0735 31.3094 42.0735 31.6811V32.832C42.0735 32.8569 42.0781 32.8808 42.0808 32.9056H25.9164V30.5339H43.3863ZM43.4535 31.6811V32.832C43.4535 32.8734 43.4203 32.9056 43.378 32.9056H42.7469C42.7055 32.9056 42.6733 32.8734 42.6733 32.832V31.6811C42.6733 31.6416 42.7073 31.6075 42.7469 31.6075H43.378C43.4194 31.6075 43.4535 31.6406 43.4535 31.6811ZM22.6311 15.4385C22.6311 15.1009 22.9062 14.8258 23.2438 14.8258H24.2761C24.6137 14.8258 24.8888 15.1009 24.8888 15.4385V17.6576H22.6311V15.4385ZM21.8178 18.2574H25.7011V18.8858H21.8178V18.2574ZM8.00126 39.7449C6.7565 39.7449 5.74358 38.732 5.74358 37.4872C5.74358 36.2425 6.7565 35.2296 8.00126 35.2296C9.24602 35.2296 10.2589 36.2425 10.2589 37.4872C10.2589 38.732 9.24602 39.7449 8.00126 39.7449ZM13.6731 37.1873H11.7079C11.5543 35.2765 9.95166 33.7677 8.00126 33.7677C6.05086 33.7677 4.44822 35.2765 4.29458 37.1873H1.60082V33.5055H13.6731V37.1873ZM13.6731 32.9056H1.60082V30.5339H13.6731V32.9056ZM25.3166 37.1873H14.272V33.5055H25.3166V37.1873ZM25.3166 32.9056H14.272V30.5339H25.3166V32.9056ZM25.3166 29.934H14.272V21.976C14.272 21.5225 14.6418 21.1536 15.0963 21.1536H24.4923C24.9467 21.1536 25.3166 21.5225 25.3166 21.976V29.934ZM24.4923 20.5546H15.0963C14.3115 20.5546 13.6721 21.1922 13.6721 21.977V29.935H1.60082V28.3369C1.60082 24.8336 2.29358 20.424 2.6211 19.8269C2.8235 19.4589 3.28258 19.4644 4.14554 19.5058C4.39486 19.5178 4.67638 19.5316 4.97262 19.5316H24.8943C27.8328 19.5316 29.7813 20.0247 31.3757 20.4866C32.5275 20.8214 33.6545 21.6439 34.8229 23.0018C35.9444 24.299 39.6051 27.9864 39.7606 28.1428C39.7836 28.1658 39.8103 28.1851 39.8388 28.1998C40.5895 28.5752 42.6245 29.6176 43.0183 29.9212C43.0238 29.9258 43.0284 29.9304 43.0339 29.935H25.9173V21.977C25.9173 21.1931 25.2789 20.5546 24.4932 20.5546H24.4923ZM37.9859 39.7449C36.7411 39.7449 35.7282 38.732 35.7282 37.4872C35.7282 36.2425 36.7411 35.2296 37.9859 35.2296C39.2307 35.2296 40.2436 36.2425 40.2436 37.4872C40.2436 38.732 39.2307 39.7449 37.9859 39.7449ZM42.5114 35.2986V37.1873H41.6926C41.5389 35.2765 39.9363 33.7677 37.9859 33.7677C36.0355 33.7677 34.4329 35.2765 34.2792 37.1873H25.9155V33.5055H43.4544V34.9986H42.8104C42.6448 34.9986 42.5105 35.133 42.5105 35.2986H42.5114ZM44.3983 37.11C44.3983 37.1533 44.3652 37.1873 44.3229 37.1873H43.1112V35.5985H44.3229C44.3652 35.5985 44.3983 35.6325 44.3983 35.6758V37.11Z" fill="#564B57"/>
</svg>
