<svg width="50" height="50" viewBox="0 0 50 50" fill="none" xmlns="http://www.w3.org/2000/svg">
<path d="M46.9571 32.264C46.4121 31.842 43.4491 30.36 43.4491 30.36C43.4491 30.36 41.6041 28.503 40.0151 26.85C39.2291 26.03 38.5031 25.26 38.0971 24.789C37.2301 23.781 35.8891 22.448 34.1951 21.955C34.1361 21.937 34.0751 21.922 34.0171 21.904C32.3741 21.433 30.5431 20.904 28.2631 20.904H5.40409C4.01409 20.904 2.98609 20.624 2.56209 21.394C2.13809 22.167 1.41309 27.075 1.41309 30.801V32.864H47.3571L47.3921 32.85C47.3041 32.628 47.1661 32.424 46.9571 32.264ZM18.9101 31.715C18.9101 31.999 18.6771 32.233 18.3901 32.233H16.5251C16.2391 32.233 16.0051 32 16.0051 31.715V31.635C16.0051 31.351 16.2381 31.115 16.5251 31.115H18.3901C18.6761 31.115 18.9101 31.35 18.9101 31.635V31.715ZM31.6001 31.715C31.6001 31.999 31.3671 32.233 31.0801 32.233H29.2151C28.9291 32.233 28.6951 32 28.6951 31.715V31.635C28.6951 31.351 28.9281 31.115 29.2151 31.115H31.0801C31.3661 31.115 31.6001 31.35 31.6001 31.635V31.715ZM33.9981 21.967C34.0441 22.028 34.0911 22.093 34.1391 22.16C34.0931 22.095 34.0471 22.031 33.9981 21.967Z" fill="white"/>
<path d="M48.5859 38.778V40.337C48.5859 40.564 48.4039 40.747 48.1779 40.747H46.5349V38.368H48.1779C48.4039 38.368 48.5859 38.55 48.5859 38.778Z" fill="#8B9194"/>
<path d="M41.2889 36.786C39.1019 36.786 37.3279 38.559 37.3279 40.747C37.3279 42.935 39.1029 44.708 41.2889 44.708C43.4749 44.708 45.2519 42.935 45.2519 40.747C45.2519 38.559 43.4769 36.786 41.2889 36.786ZM41.2889 43.283C39.8889 43.283 38.7529 42.148 38.7529 40.747C38.7529 39.346 39.8879 38.211 41.2889 38.211C42.6899 38.211 43.8249 39.346 43.8249 40.747C43.8249 42.148 42.6919 43.283 41.2889 43.283Z" fill="#6A6565"/>
<path d="M41.2889 38.211C39.8889 38.211 38.7529 39.346 38.7529 40.747C38.7529 42.148 39.8879 43.283 41.2889 43.283C42.6899 43.283 43.8249 42.148 43.8249 40.747C43.8249 39.346 42.6919 38.211 41.2889 38.211ZM43.0339 39.764C43.5159 40.601 42.3989 40.482 42.2379 40.397C42.1849 40.37 42.1459 40.328 42.1239 40.291C42.1019 40.252 42.0849 40.197 42.0869 40.138C42.0949 39.958 42.5519 38.928 43.0339 39.763V39.764ZM41.3339 38.783C42.2989 38.783 41.6379 39.693 41.4849 39.789C41.4339 39.82 41.3769 39.834 41.3339 39.834C41.2909 39.834 41.2339 39.82 41.1849 39.789C41.0299 39.693 40.3689 38.783 41.3339 38.783ZM39.6339 39.764C40.1159 38.929 40.5729 39.958 40.5809 40.139C40.5829 40.198 40.5669 40.253 40.5459 40.292C40.5239 40.329 40.4829 40.37 40.4299 40.398C40.2709 40.482 39.1509 40.602 39.6339 39.765V39.764ZM39.6339 41.729C39.1519 40.892 40.2709 41.011 40.4299 41.096C40.4829 41.123 40.5239 41.165 40.5459 41.202C40.5679 41.241 40.5829 41.296 40.5809 41.355C40.5729 41.535 40.1159 42.565 39.6339 41.73V41.729ZM41.3339 42.71C40.3689 42.71 41.0299 41.8 41.1849 41.704C41.2339 41.673 41.2909 41.659 41.3339 41.659C41.3769 41.659 41.4339 41.673 41.4849 41.704C41.6379 41.8 42.2989 42.71 41.3339 42.71ZM41.3339 41.343C41.0049 41.343 40.7379 41.076 40.7379 40.747C40.7379 40.418 41.0049 40.151 41.3339 40.151C41.6629 40.151 41.9299 40.418 41.9299 40.747C41.9299 41.076 41.6629 41.343 41.3339 41.343ZM43.0339 41.729C42.5519 42.564 42.0949 41.535 42.0869 41.354C42.0849 41.295 42.1029 41.24 42.1239 41.201C42.1459 41.164 42.1849 41.123 42.2379 41.095C42.3989 41.011 43.5169 40.891 43.0339 41.728V41.729Z" fill="#C7C2C2"/>
<path d="M43.0351 39.765C43.5171 40.602 42.4001 40.483 42.2391 40.398C42.1861 40.371 42.1471 40.329 42.1251 40.292C42.1031 40.253 42.0861 40.198 42.0881 40.139C42.0961 39.959 42.5531 38.929 43.0351 39.764V39.765Z" fill="#6A6565"/>
<path d="M42.2381 41.096C42.3991 41.012 43.5171 40.892 43.0341 41.729C42.5521 42.564 42.0951 41.535 42.0871 41.354C42.0851 41.295 42.1031 41.24 42.1241 41.201C42.1461 41.164 42.1851 41.123 42.2381 41.095V41.096Z" fill="#6A6565"/>
<path d="M41.334 40.151C41.005 40.151 40.738 40.418 40.738 40.747C40.738 41.076 41.005 41.343 41.334 41.343C41.663 41.343 41.93 41.076 41.93 40.747C41.93 40.418 41.663 40.151 41.334 40.151Z" fill="#6A6565"/>
<path d="M41.3341 38.784C42.2991 38.784 41.6381 39.694 41.4851 39.79C41.4341 39.821 41.3771 39.835 41.3341 39.835C41.2911 39.835 41.2341 39.821 41.1851 39.79C41.0301 39.694 40.3691 38.784 41.3341 38.784Z" fill="#6A6565"/>
<path d="M41.4851 41.704C41.6381 41.8 42.2991 42.71 41.3341 42.71C40.3691 42.71 41.0301 41.8 41.1851 41.704C41.2341 41.673 41.2911 41.659 41.3341 41.659C41.3771 41.659 41.4341 41.673 41.4851 41.704Z" fill="#6A6565"/>
<path d="M40.5461 41.202C40.5681 41.241 40.5831 41.296 40.5811 41.355C40.5731 41.535 40.1161 42.565 39.6341 41.73C39.1521 40.893 40.2711 41.012 40.4301 41.097C40.4831 41.124 40.5241 41.166 40.5461 41.203V41.202Z" fill="#6A6565"/>
<path d="M40.581 40.139C40.583 40.198 40.567 40.253 40.546 40.292C40.524 40.329 40.483 40.37 40.43 40.398C40.271 40.482 39.151 40.602 39.634 39.765C40.116 38.93 40.573 39.959 40.581 40.14V40.139Z" fill="#6A6565"/>
<path d="M31.6001 31.634V31.714C31.6001 31.998 31.3671 32.232 31.0801 32.232H29.2151C28.9291 32.232 28.6951 31.999 28.6951 31.714V31.634C28.6951 31.35 28.9281 31.114 29.2151 31.114H31.0801C31.3661 31.114 31.6001 31.349 31.6001 31.634Z" fill="#6A6565"/>
<path d="M26.3869 15.789H25.2649C24.7199 15.789 24.2729 16.236 24.2729 16.781V19.519H27.3769C27.3769 19.505 27.379 19.488 27.379 19.472V16.781C27.379 16.236 26.9319 15.789 26.3869 15.789Z" fill="#FF4B72"/>
<path d="M23.3889 19.519H28.2619V20.854H23.3889V19.519Z" fill="#4270B7"/>
<path d="M18.9099 31.634V31.714C18.9099 31.998 18.6769 32.232 18.3899 32.232H16.5249C16.2389 32.232 16.0049 31.999 16.0049 31.714V31.634C16.0049 31.35 16.2379 31.114 16.5249 31.114H18.3899C18.6759 31.114 18.9099 31.349 18.9099 31.634Z" fill="#6A6565"/>
<path d="M10.3969 39.765C10.7209 40.326 10.3219 40.457 9.97889 40.457C9.80789 40.457 9.65289 40.426 9.60089 40.398C9.54889 40.37 9.50889 40.329 9.48489 40.292C9.46289 40.253 9.44789 40.198 9.44989 40.139C9.45589 40.004 9.71689 39.386 10.0519 39.445C10.1599 39.465 10.2789 39.559 10.3969 39.765Z" fill="#6A6565"/>
<path d="M9.60112 41.096C9.76012 41.012 10.8801 40.892 10.3971 41.729C9.91512 42.564 9.45812 41.535 9.45012 41.354C9.44812 41.295 9.46412 41.24 9.48512 41.201C9.50912 41.164 9.54812 41.123 9.60112 41.095V41.096Z" fill="#6A6565"/>
<path d="M10.8091 39.345C10.3561 38.663 9.57911 38.212 8.69711 38.212C8.11311 38.212 7.57511 38.41 7.14811 38.743C6.54811 39.204 6.16211 39.931 6.16211 40.747C6.16211 42.147 7.29711 43.283 8.69811 43.283C10.0991 43.283 11.2341 42.148 11.2341 40.747C11.2341 40.229 11.0771 39.747 10.8101 39.345H10.8091ZM10.0521 39.445C10.1601 39.465 10.2791 39.559 10.3971 39.765C10.7211 40.326 10.3221 40.457 9.97911 40.457C9.80811 40.457 9.65311 40.426 9.60111 40.398C9.54911 40.37 9.50911 40.329 9.48511 40.292C9.46311 40.253 9.44811 40.198 9.45011 40.139C9.45611 40.004 9.71711 39.386 10.0521 39.445ZM8.69711 38.784C9.09911 38.784 9.21911 38.941 9.20911 39.133C9.19911 39.402 8.93611 39.735 8.84611 39.79C8.79711 39.821 8.74011 39.835 8.69711 39.835C8.65411 39.835 8.59711 39.821 8.54611 39.79C8.43611 39.721 8.06411 39.231 8.22211 38.962C8.28311 38.856 8.42411 38.784 8.69711 38.784ZM6.99711 39.765C7.47911 38.93 7.93611 39.959 7.94411 40.14C7.94611 40.199 7.92811 40.254 7.90711 40.293C7.88511 40.33 7.84611 40.371 7.79311 40.399C7.63211 40.483 6.51411 40.603 6.99711 39.766V39.765ZM6.99711 41.73C6.51511 40.893 7.63211 41.012 7.79311 41.097C7.84611 41.124 7.88511 41.166 7.90711 41.203C7.92911 41.242 7.94611 41.297 7.94411 41.356C7.93611 41.536 7.47911 42.566 6.99711 41.731V41.73ZM8.69711 42.711C7.73211 42.711 8.39311 41.801 8.54611 41.705C8.59711 41.674 8.65411 41.66 8.69711 41.66C8.74011 41.66 8.79711 41.674 8.84611 41.705C9.00111 41.801 9.66211 42.711 8.69711 42.711ZM8.69711 41.344C8.36811 41.344 8.10111 41.077 8.10111 40.748C8.10111 40.419 8.36811 40.152 8.69711 40.152C9.02611 40.152 9.29311 40.419 9.29311 40.748C9.29311 41.077 9.02611 41.344 8.69711 41.344ZM10.3971 41.73C9.91511 42.565 9.45811 41.536 9.45011 41.355C9.44811 41.296 9.46411 41.241 9.48511 41.202C9.50911 41.165 9.54811 41.124 9.60111 41.096C9.76011 41.012 10.8801 40.892 10.3971 41.729V41.73Z" fill="#C7C2C2"/>
<path d="M8.69707 40.151C8.36807 40.151 8.10107 40.418 8.10107 40.747C8.10107 41.076 8.36807 41.343 8.69707 41.343C9.02607 41.343 9.29307 41.076 9.29307 40.747C9.29307 40.418 9.02607 40.151 8.69707 40.151Z" fill="#6A6565"/>
<path d="M8.69698 38.784C8.42398 38.784 8.28298 38.857 8.22198 38.962C8.06298 39.231 8.43598 39.721 8.54598 39.79C8.59698 39.821 8.65398 39.835 8.69698 39.835C8.73998 39.835 8.79698 39.821 8.84598 39.79C8.93598 39.735 9.19898 39.402 9.20898 39.133C9.21898 38.941 9.09898 38.784 8.69698 38.784Z" fill="#6A6565"/>
<path d="M8.84599 41.704C9.00099 41.8 9.66199 42.71 8.69699 42.71C7.73199 42.71 8.39299 41.8 8.54599 41.704C8.59699 41.673 8.65399 41.659 8.69699 41.659C8.73999 41.659 8.79699 41.673 8.84599 41.704Z" fill="#6A6565"/>
<path d="M7.90703 41.202C7.92903 41.241 7.94603 41.296 7.94403 41.355C7.93603 41.535 7.47903 42.565 6.99703 41.73C6.51503 40.893 7.63203 41.012 7.79303 41.097C7.84603 41.124 7.88503 41.166 7.90703 41.203V41.202Z" fill="#6A6565"/>
<path d="M7.9439 40.139C7.9459 40.198 7.9279 40.253 7.9069 40.292C7.8849 40.329 7.8459 40.37 7.7929 40.398C7.6319 40.482 6.5139 40.602 6.9969 39.765C7.4789 38.93 7.9359 39.959 7.9439 40.14V40.139Z" fill="#6A6565"/>
<path d="M12.4521 39.486C11.9261 37.915 10.4441 36.786 8.69711 36.786C7.41611 36.786 6.27711 37.394 5.55311 38.337C5.03911 39.004 4.73511 39.839 4.73511 40.747C4.73511 42.935 6.50811 44.708 8.69611 44.708C10.8841 44.708 12.6571 42.935 12.6571 40.747C12.6571 40.306 12.5841 39.882 12.4511 39.486H12.4521ZM8.69711 43.283C7.29711 43.283 6.16111 42.148 6.16111 40.747C6.16111 39.931 6.54711 39.204 7.14711 38.743C7.57511 38.41 8.11211 38.212 8.69611 38.212C9.57811 38.212 10.3551 38.663 10.8081 39.345C11.0751 39.747 11.2321 40.229 11.2321 40.747C11.2321 42.147 10.0971 43.283 8.69611 43.283H8.69711Z" fill="#6A6565"/>
<path d="M47.5591 35.688C47.5591 35.914 47.3771 36.094 47.1511 36.094H1.41406V40.748H4.73606C4.73606 39.84 5.04006 39.005 5.55406 38.338C6.27806 37.395 7.41706 36.787 8.69806 36.787C10.4451 36.787 11.9281 37.917 12.4531 39.487C12.5861 39.883 12.6591 40.307 12.6591 40.748H37.3291C37.3291 38.559 39.1041 36.787 41.2901 36.787C43.4761 36.787 45.2531 38.56 45.2531 40.748H46.5361V38.369H47.5621V35.688H47.5601H47.5591Z" fill="white"/>
<path d="M1.41406 36.858V40.747H4.73606C4.73606 39.839 5.04006 39.004 5.55406 38.337C4.11906 37.933 2.77306 37.435 1.53806 36.858H1.41406Z" fill="#F2EDED"/>
<path d="M47.3921 32.85C47.3041 32.628 47.1661 32.424 46.9571 32.264C46.4121 31.842 43.4491 30.36 43.4491 30.36C43.4491 30.36 41.6041 28.503 40.0151 26.85C39.2291 26.03 38.5031 25.26 38.0971 24.789C37.2301 23.781 35.8891 22.448 34.1951 21.955C34.1361 21.937 34.0751 21.922 34.0171 21.904L33.9991 21.967C34.5641 22.718 35.3131 24.03 35.3131 24.03C35.3131 24.03 37.3291 28.957 33.3831 32.864C32.3081 34.072 30.9101 35.16 29.2571 36.094C28.8041 36.349 28.3331 36.594 27.8451 36.824C24.3581 38.471 19.9701 39.479 15.1891 39.55C15.0131 39.552 14.8341 39.554 14.6561 39.554C13.9131 39.554 13.1771 39.53 12.4541 39.487C12.5871 39.883 12.6601 40.307 12.6601 40.748H37.3301C37.3301 38.559 39.1051 36.787 41.2911 36.787C43.4771 36.787 45.2541 38.56 45.2541 40.748H46.5371V38.369H47.5631V33.947C47.5631 33.602 47.5391 33.204 47.3941 32.851L47.3921 32.85Z" fill="#F2EDED"/>
<path d="M35.312 24.029V29.441C35.312 29.521 35.322 29.6 35.339 29.674C35.427 30.068 35.737 30.358 36.104 30.358H41.014L35.311 24.028L35.312 24.029Z" fill="#4270B7"/>
<path d="M33.9528 23.933C33.8038 23.809 33.6138 23.735 33.4078 23.735H29.7678C29.2968 23.735 28.9128 24.119 28.9128 24.588V29.506C28.9128 29.741 29.0088 29.957 29.1658 30.112C29.3208 30.263 29.5328 30.359 29.7678 30.359H33.4078C33.8788 30.359 34.2628 29.977 34.2628 29.506V24.588C34.2628 24.325 34.1408 24.09 33.9528 23.933Z" fill="#4270B7"/>
<path d="M26.446 23.8C26.366 23.759 26.275 23.735 26.181 23.735H16.823C16.497 23.735 16.231 24.002 16.231 24.327V29.767C16.231 29.957 16.321 30.126 16.46 30.234C16.56 30.312 16.687 30.36 16.823 30.36H26.181C26.507 30.36 26.773 30.093 26.773 29.768V24.328C26.773 24.097 26.64 23.897 26.446 23.8Z" fill="#4270B7"/>
<path d="M11.3369 25.494V27.245H9.84188V28.738H8.09288V27.245H6.59888V25.494H8.09288V24H9.84188V25.494H11.3369Z" fill="#FF4B72"/>
<path d="M28.0069 40.608H27.6809V23.888C27.6809 23.305 27.2059 22.831 26.6219 22.831H16.4089C15.8249 22.831 15.3499 23.305 15.3499 23.888V40.608H15.0239V23.888C15.0239 23.126 15.6449 22.505 16.4089 22.505H26.6219C27.3859 22.505 28.0069 23.125 28.0069 23.888V40.608Z" fill="#F2EDED"/>
<path d="M13.212 30.244H4.72303C4.10603 30.244 3.60303 29.742 3.60303 29.125V23.615C3.60303 22.998 4.10503 22.495 4.72303 22.495H13.211C13.828 22.495 14.331 22.997 14.331 23.615V29.125C14.331 29.742 13.829 30.244 13.211 30.244H13.212ZM4.72303 22.821C4.28503 22.821 3.92903 23.177 3.92903 23.615V29.125C3.92903 29.562 4.28503 29.918 4.72303 29.918H13.211C13.649 29.918 14.005 29.562 14.005 29.125V23.615C14.005 23.177 13.649 22.821 13.211 22.821H4.72303Z" fill="#F2EDED"/>
<path d="M27.3801 16.781V19.472C27.3801 19.488 27.3781 19.505 27.3781 19.519H25.3311C25.6111 19.292 25.8391 19.003 25.9841 18.672C26.0821 18.445 26.1431 18.203 26.1901 17.962C26.3291 17.246 26.3681 16.515 26.3061 15.789H26.3881C26.9331 15.789 27.3801 16.236 27.3801 16.781Z" fill="#D0254A"/>
<path d="M28.2619 19.519V20.901H23.3889V20.061C23.5159 20.039 23.7159 20.073 23.8239 20.071C24.3689 20.065 24.9079 19.861 25.3299 19.52H28.2619V19.519Z" fill="#315B9D"/>
<path d="M35.312 24.029V24.331C35.638 25.202 35.81 26.11 35.81 27.039C35.81 27.968 35.693 28.918 35.386 29.767C35.474 30.161 35.738 30.359 36.105 30.359H41.015L35.312 24.029Z" fill="#315B9D"/>
<path d="M34.263 24.588V29.506C34.263 29.977 33.879 30.359 33.408 30.359H29.768C29.533 30.359 29.321 30.263 29.166 30.112L33.953 23.933C34.141 24.09 34.263 24.325 34.263 24.588Z" fill="#315B9D"/>
<path d="M26.774 24.327V29.767C26.774 30.093 26.507 30.359 26.182 30.359H21.501V30.177L26.447 23.8C26.641 23.896 26.774 24.096 26.774 24.328V24.327Z" fill="#315B9D"/>
<path d="M21.5009 30.177V30.359H16.8239C16.6889 30.359 16.5609 30.312 16.4609 30.233L21.5009 23.734V30.176V30.177Z" fill="#315B9D"/>
<path d="M25.8261 11.702C25.7811 11.702 25.7451 11.666 25.7451 11.621V5.53599C25.7451 5.49099 25.7811 5.45499 25.8261 5.45499C25.8711 5.45499 25.9071 5.49099 25.9071 5.53599V11.621C25.9071 11.666 25.8711 11.702 25.8261 11.702Z" fill="#F2EDED"/>
<path d="M22.8251 13.145C22.8041 13.145 22.7831 13.137 22.7671 13.121L18.4941 8.78899C18.4621 8.75699 18.4631 8.70499 18.4941 8.67399C18.5261 8.64199 18.5781 8.64299 18.6091 8.67399L22.8821 13.006C22.9141 13.038 22.9131 13.09 22.8821 13.121C22.8661 13.137 22.8451 13.144 22.8251 13.144V13.145Z" fill="#F2EDED"/>
<path d="M14.78 15.892C14.735 15.892 14.699 15.856 14.699 15.811C14.699 15.766 14.735 15.729 14.78 15.729L20.865 15.688C20.91 15.688 20.946 15.724 20.946 15.769C20.946 15.814 20.91 15.851 20.865 15.851L14.78 15.892Z" fill="#F2EDED"/>
<path d="M28.914 13.145C28.893 13.145 28.873 13.137 28.857 13.122C28.825 13.09 28.825 13.039 28.857 13.007L33.13 8.675C33.162 8.643 33.213 8.643 33.245 8.675C33.277 8.707 33.277 8.758 33.245 8.79L28.972 13.122C28.956 13.138 28.935 13.146 28.914 13.146V13.145Z" fill="#F2EDED"/>
<path d="M36.959 15.892L30.874 15.851C30.829 15.851 30.793 15.814 30.793 15.769C30.793 15.724 30.83 15.688 30.874 15.688L36.959 15.729C37.004 15.729 37.04 15.766 37.04 15.811C37.04 15.856 37.003 15.892 36.959 15.892Z" fill="#F2EDED"/>
<path d="M31.0798 31.114H29.2148C28.9288 31.114 28.6948 31.349 28.6948 31.634V31.714C28.6948 31.998 28.9278 32.232 29.2148 32.232H31.0798C31.3658 32.232 31.5998 31.999 31.5998 31.714V31.634C31.5998 31.35 31.3668 31.114 31.0798 31.114Z" fill="#564B57"/>
<path d="M18.3899 31.114H16.5249C16.2389 31.114 16.0049 31.349 16.0049 31.634V31.714C16.0049 31.998 16.2379 32.232 16.5249 32.232H18.3899C18.6759 32.232 18.9099 31.999 18.9099 31.714V31.634C18.9099 31.35 18.6769 31.114 18.3899 31.114Z" fill="#564B57"/>
<path d="M13.2109 22.333H4.72392C4.01692 22.333 3.44092 22.908 3.44092 23.614V29.125C3.44092 29.832 4.01692 30.408 4.72392 30.408H13.2109C13.9179 30.408 14.4939 29.832 14.4939 29.125V23.614C14.4939 22.908 13.9179 22.333 13.2109 22.333ZM13.8419 29.125C13.8419 29.473 13.5589 29.756 13.2109 29.756H4.72392C4.37592 29.756 4.09292 29.473 4.09292 29.125V23.614C4.09292 23.267 4.37592 22.985 4.72392 22.985H13.2109C13.5589 22.985 13.8419 23.267 13.8419 23.614V29.125Z" fill="#564B57"/>
<path d="M26.181 23.409H16.823C16.317 23.409 15.905 23.821 15.905 24.327V29.767C15.905 30.273 16.317 30.685 16.823 30.685H26.181C26.687 30.685 27.099 30.273 27.099 29.767V24.327C27.099 23.821 26.687 23.409 26.181 23.409ZM21.174 30.033H16.823C16.679 30.033 16.557 29.911 16.557 29.767V24.327C16.557 24.183 16.679 24.061 16.823 24.061H21.174V30.033ZM26.447 29.767C26.447 29.911 26.325 30.033 26.181 30.033H21.826V24.061H26.181C26.325 24.061 26.447 24.183 26.447 24.327V29.767Z" fill="#564B57"/>
<path d="M29.7679 30.685H33.4079C34.0589 30.685 34.5889 30.156 34.5889 29.506V24.588C34.5889 23.938 34.0589 23.409 33.4079 23.409H29.7679C29.1169 23.409 28.5869 23.938 28.5869 24.588V29.506C28.5869 30.156 29.1169 30.685 29.7679 30.685ZM29.2389 24.588C29.2389 24.297 29.4759 24.061 29.7679 24.061H33.4079C33.6999 24.061 33.9369 24.297 33.9369 24.588V29.506C33.9369 29.797 33.6999 30.033 33.4079 30.033H29.7679C29.4759 30.033 29.2389 29.797 29.2389 29.506V24.588Z" fill="#564B57"/>
<path d="M36.1039 30.685H41.0139C41.1429 30.685 41.2589 30.609 41.3119 30.492C41.3639 30.374 41.3429 30.237 41.2559 30.141L35.5529 23.811C35.4629 23.711 35.3199 23.677 35.1939 23.725C35.0679 23.773 34.9849 23.894 34.9849 24.029V29.441C34.9849 30.127 35.4869 30.685 36.1029 30.685H36.1039ZM35.6379 24.878L40.2819 30.033H36.1039C35.8509 30.033 35.6379 29.762 35.6379 29.441V24.877V24.878Z" fill="#564B57"/>
<path d="M11.3369 25.168H10.1689V24C10.1689 23.82 10.0229 23.674 9.84293 23.674H8.09393C7.91393 23.674 7.76793 23.82 7.76793 24V25.168H6.59993C6.41993 25.168 6.27393 25.314 6.27393 25.494V27.245C6.27393 27.425 6.41993 27.571 6.59993 27.571H7.76793V28.737C7.76793 28.917 7.91393 29.063 8.09393 29.063H9.84293C10.0229 29.063 10.1689 28.917 10.1689 28.737V27.571H11.3369C11.5169 27.571 11.6629 27.425 11.6629 27.245V25.494C11.6629 25.314 11.5169 25.168 11.3369 25.168ZM11.0109 26.919H9.84293C9.66293 26.919 9.51693 27.065 9.51693 27.245V28.411H8.41993V27.245C8.41993 27.065 8.27393 26.919 8.09393 26.919H6.92593V25.82H8.09393C8.27393 25.82 8.41993 25.674 8.41993 25.494V24.326H9.51693V25.494C9.51693 25.674 9.66293 25.82 9.84293 25.82H11.0109V26.919Z" fill="#564B57"/>
<path d="M8.0188 40.747C8.0188 41.12 8.3228 41.424 8.6968 41.425C9.0708 41.425 9.3748 41.121 9.3748 40.747C9.3748 40.373 9.0708 40.069 8.6968 40.069C8.3228 40.069 8.0188 40.373 8.0188 40.747Z" fill="#564B57"/>
<path d="M8.50291 39.859C8.56091 39.896 8.63191 39.917 8.69691 39.917C8.76191 39.917 8.83191 39.896 8.89091 39.859C9.00591 39.786 9.37291 39.331 9.27691 38.999C9.21991 38.802 9.02491 38.702 8.69691 38.702C8.36891 38.702 8.17391 38.802 8.11691 38.999C8.02091 39.331 8.38791 39.786 8.50291 39.859Z" fill="#564B57"/>
<path d="M8.88991 41.635C8.77291 41.562 8.61891 41.562 8.50291 41.635C8.38791 41.707 8.02091 42.163 8.11691 42.495C8.17391 42.692 8.36891 42.792 8.69691 42.792C9.02491 42.792 9.21991 42.692 9.27691 42.495C9.37291 42.163 9.00591 41.708 8.89091 41.635H8.88991Z" fill="#564B57"/>
<path d="M7.41203 40.54C7.60003 40.54 7.77203 40.502 7.83103 40.471C7.89203 40.439 7.94503 40.388 7.97803 40.332C8.01003 40.276 8.02703 40.204 8.02503 40.136C8.02003 40 7.80903 39.454 7.47303 39.371C7.27403 39.322 7.09003 39.441 6.92603 39.725C6.76203 40.009 6.75103 40.228 6.89303 40.376C7.01403 40.502 7.22103 40.541 7.41203 40.541V40.54Z" fill="#564B57"/>
<path d="M9.56183 41.023C9.50083 41.055 9.44783 41.106 9.41483 41.162C9.38283 41.218 9.36583 41.29 9.36783 41.358C9.37283 41.494 9.58383 42.04 9.91983 42.122C9.94883 42.129 9.97783 42.133 10.0068 42.133C10.1728 42.133 10.3278 42.011 10.4678 41.769C10.6318 41.485 10.6428 41.266 10.5008 41.118C10.2618 40.869 9.68283 40.959 9.56283 41.022L9.56183 41.023Z" fill="#564B57"/>
<path d="M7.83103 41.023C7.71103 40.96 7.13203 40.87 6.89303 41.119C6.75103 41.267 6.76203 41.486 6.92603 41.77C7.06603 42.012 7.22003 42.134 7.38703 42.134C7.41603 42.134 7.44403 42.13 7.47403 42.123C7.80903 42.04 8.02003 41.494 8.02603 41.358C8.02903 41.289 8.01203 41.218 7.97903 41.162C7.94703 41.106 7.89303 41.055 7.83203 41.023H7.83103Z" fill="#564B57"/>
<path d="M9.92099 39.371C9.58599 39.454 9.37499 40 9.36899 40.135C9.36599 40.204 9.38299 40.275 9.41599 40.332C9.44799 40.388 9.50199 40.439 9.56299 40.471C9.62299 40.502 9.79499 40.54 9.98199 40.54C10.169 40.54 10.38 40.501 10.501 40.375C10.643 40.227 10.632 40.008 10.468 39.724C10.304 39.44 10.12 39.321 9.92099 39.37V39.371Z" fill="#564B57"/>
<path d="M41.335 41.425C41.7094 41.425 42.013 41.1214 42.013 40.747C42.013 40.3726 41.7094 40.069 41.335 40.069C40.9605 40.069 40.657 40.3726 40.657 40.747C40.657 41.1214 40.9605 41.425 41.335 41.425Z" fill="#564B57"/>
<path d="M41.1409 39.859C41.1989 39.896 41.2699 39.917 41.3349 39.917C41.3999 39.917 41.4699 39.896 41.5289 39.859C41.6439 39.786 42.0109 39.331 41.9149 38.999C41.8579 38.802 41.6629 38.702 41.3349 38.702C41.0069 38.702 40.8119 38.802 40.7549 38.999C40.6589 39.331 41.0259 39.786 41.1409 39.859Z" fill="#564B57"/>
<path d="M41.5279 41.635C41.4109 41.562 41.2569 41.562 41.1409 41.635C41.0259 41.707 40.6589 42.163 40.7549 42.495C40.8119 42.692 41.0069 42.792 41.3349 42.792C41.6629 42.792 41.8579 42.692 41.9149 42.495C42.0109 42.163 41.6439 41.708 41.5289 41.635H41.5279Z" fill="#564B57"/>
<path d="M40.05 40.54C40.238 40.54 40.41 40.502 40.469 40.471C40.53 40.439 40.583 40.388 40.616 40.332C40.648 40.276 40.665 40.204 40.663 40.136C40.658 40 40.447 39.454 40.111 39.371C39.912 39.322 39.728 39.441 39.564 39.725C39.4 40.009 39.389 40.228 39.531 40.376C39.652 40.502 39.859 40.541 40.05 40.541V40.54Z" fill="#564B57"/>
<path d="M42.2 41.023C42.139 41.055 42.086 41.106 42.053 41.162C42.021 41.218 42.004 41.29 42.006 41.358C42.011 41.494 42.222 42.04 42.558 42.122C42.587 42.129 42.616 42.133 42.645 42.133C42.811 42.133 42.966 42.011 43.106 41.769C43.27 41.485 43.281 41.266 43.139 41.118C42.9 40.869 42.321 40.959 42.201 41.022L42.2 41.023Z" fill="#564B57"/>
<path d="M40.469 41.023C40.349 40.96 39.77 40.87 39.531 41.119C39.389 41.267 39.4 41.486 39.564 41.77C39.704 42.012 39.858 42.134 40.025 42.134C40.054 42.134 40.082 42.13 40.112 42.123C40.447 42.04 40.658 41.494 40.664 41.358C40.667 41.289 40.65 41.218 40.617 41.162C40.585 41.106 40.531 41.055 40.47 41.023H40.469Z" fill="#564B57"/>
<path d="M42.558 39.371C42.223 39.454 42.012 40 42.006 40.135C42.003 40.204 42.02 40.275 42.053 40.332C42.085 40.388 42.139 40.439 42.2 40.471C42.26 40.502 42.432 40.54 42.619 40.54C42.806 40.54 43.017 40.501 43.138 40.375C43.28 40.227 43.269 40.008 43.105 39.724C42.941 39.44 42.757 39.321 42.558 39.37V39.371Z" fill="#564B57"/>
<path d="M25.5 5.53599V11.621C25.5 11.801 25.646 11.947 25.826 11.947C26.006 11.947 26.152 11.801 26.152 11.621V5.53599C26.152 5.35599 26.006 5.20999 25.826 5.20999C25.646 5.20999 25.5 5.35599 25.5 5.53599Z" fill="#564B57"/>
<path d="M22.825 13.389C22.908 13.389 22.99 13.358 23.054 13.295C23.182 13.169 23.184 12.962 23.057 12.834L18.784 8.50198C18.658 8.37398 18.451 8.37198 18.323 8.49898C18.195 8.62498 18.193 8.83198 18.32 8.95998L22.593 13.292C22.657 13.357 22.741 13.389 22.825 13.389Z" fill="#564B57"/>
<path d="M20.8619 15.444L14.7769 15.485C14.5969 15.486 14.4519 15.633 14.4529 15.813C14.4539 15.992 14.5999 16.137 14.7789 16.137H14.7809L20.8659 16.096C21.0459 16.095 21.1909 15.948 21.1899 15.768C21.1889 15.589 21.0429 15.444 20.8639 15.444H20.8619Z" fill="#564B57"/>
<path d="M33.4159 8.499C33.2879 8.373 33.0809 8.374 32.9549 8.502L28.6819 12.834C28.5559 12.962 28.5569 13.169 28.6849 13.295C28.7489 13.358 28.8309 13.389 28.9139 13.389C28.9969 13.389 29.0819 13.357 29.1459 13.292L33.4189 8.96C33.5449 8.832 33.5439 8.625 33.4159 8.499Z" fill="#564B57"/>
<path d="M30.8719 16.096L36.9569 16.137H36.9589C37.1379 16.137 37.2839 15.992 37.2849 15.813C37.2859 15.633 37.1409 15.486 36.9609 15.485L30.8759 15.444H30.8739C30.6949 15.444 30.5489 15.589 30.5479 15.768C30.5469 15.948 30.6919 16.095 30.8719 16.096Z" fill="#564B57"/>
<path d="M47.3921 32.85L47.3571 32.864H1.41406V36.094H47.1511C47.3631 36.094 47.5351 35.934 47.5551 35.727C47.5621 35.703 47.5611 35.688 47.5611 35.688V33.947C47.5611 33.602 47.5371 33.204 47.3921 32.851V32.85Z" fill="#FF4B72"/>
<path d="M47.5611 33.946C47.5611 33.601 47.5371 33.203 47.3921 32.85L47.3571 32.864H33.3831C32.3081 34.072 30.9101 35.16 29.2571 36.094H47.1511C47.3631 36.094 47.5351 35.934 47.5551 35.727C47.5621 35.703 47.5611 35.688 47.5611 35.688V33.947V33.946Z" fill="#FF4B72"/>
<path d="M47.5591 34.436V35.687C47.5591 35.913 47.3771 36.093 47.1511 36.093H46.4651C46.2411 36.093 46.0591 35.913 46.0591 35.687V34.436C46.0591 34.212 46.2411 34.03 46.4651 34.03H47.1511C47.3771 34.03 47.5591 34.212 47.5591 34.436Z" fill="#FFE780"/>
<path d="M48.1779 38.042H47.8859V33.946C47.8859 33.597 47.8639 33.142 47.6939 32.729C47.5759 32.432 47.3939 32.188 47.1549 32.005C46.6229 31.593 44.1119 30.327 43.6409 30.091C43.2239 29.671 39.4849 25.896 38.3429 24.575C36.9889 23.001 35.6619 22.041 34.2839 21.641C32.7049 21.183 30.9259 20.755 28.5869 20.621V19.519C28.5869 19.339 28.4409 19.193 28.2609 19.193H27.7049V16.781C27.7049 16.054 27.1139 15.463 26.3869 15.463H25.2649C24.5379 15.463 23.9469 16.054 23.9469 16.781V19.193H23.3889C23.2089 19.193 23.0629 19.339 23.0629 19.519V20.577H5.40489C5.09889 20.577 4.81289 20.563 4.53689 20.55C3.55289 20.503 2.70289 20.461 2.27689 21.237C1.78589 22.133 1.08789 27.231 1.08789 30.801V40.747C1.08789 40.927 1.23389 41.073 1.41389 41.073H4.66789C4.83489 43.15 6.57689 44.79 8.69689 44.79C10.8169 44.79 12.5589 43.15 12.7259 41.073H37.2609C37.4279 43.15 39.1699 44.79 41.2899 44.79C43.4099 44.79 45.1519 43.15 45.3189 41.073H46.4899C46.4979 41.073 46.5049 41.071 46.5129 41.071C46.5209 41.071 46.5279 41.073 46.5359 41.073H48.1789C48.5839 41.073 48.9129 40.743 48.9129 40.337V38.778C48.9129 38.372 48.5839 38.042 48.1789 38.042H48.1779ZM47.1589 33.189C47.2019 33.362 47.2219 33.543 47.2289 33.712C47.2029 33.709 47.1769 33.704 47.1499 33.704H46.4639C46.0599 33.704 45.7319 34.032 45.7319 34.436V35.687C45.7319 35.714 45.7369 35.74 45.7399 35.767H28.1699V33.189H47.1589ZM47.2319 34.436V35.687C47.2319 35.732 47.1959 35.767 47.1499 35.767H46.4639C46.4189 35.767 46.3839 35.732 46.3839 35.687V34.436C46.3839 34.393 46.4209 34.356 46.4639 34.356H47.1499C47.1949 34.356 47.2319 34.392 47.2319 34.436ZM24.5989 16.781C24.5989 16.414 24.8979 16.115 25.2649 16.115H26.3869C26.7539 16.115 27.0529 16.414 27.0529 16.781V19.193H24.5989V16.781ZM23.7149 19.845H27.9359V20.528H23.7149V19.845ZM8.69689 43.201C7.34389 43.201 6.24289 42.1 6.24289 40.747C6.24289 39.394 7.34389 38.293 8.69689 38.293C10.0499 38.293 11.1509 39.394 11.1509 40.747C11.1509 42.1 10.0499 43.201 8.69689 43.201ZM14.8619 40.421H12.7259C12.5589 38.344 10.8169 36.704 8.69689 36.704C6.57689 36.704 4.83489 38.344 4.66789 40.421H1.73989V36.419H14.8619V40.421ZM14.8619 35.767H1.73989V33.189H14.8619V35.767ZM27.5179 40.421H15.5129V36.419H27.5179V40.421ZM27.5179 35.767H15.5129V33.189H27.5179V35.767ZM27.5179 32.537H15.5129V23.887C15.5129 23.394 15.9149 22.993 16.4089 22.993H26.6219C27.1159 22.993 27.5179 23.394 27.5179 23.887V32.537ZM26.6219 22.342H16.4089C15.5559 22.342 14.8609 23.035 14.8609 23.888V32.538H1.73989V30.801C1.73989 26.993 2.49289 22.2 2.84889 21.551C3.06889 21.151 3.56789 21.157 4.50589 21.202C4.77689 21.215 5.08289 21.23 5.40489 21.23H27.0589C30.2529 21.23 32.3709 21.766 34.1039 22.268C35.3559 22.632 36.5809 23.526 37.8509 25.002C39.0699 26.412 43.0489 30.42 43.2179 30.59C43.2429 30.615 43.2719 30.636 43.3029 30.652C44.1189 31.06 46.3309 32.193 46.7589 32.523C46.7649 32.528 46.7699 32.533 46.7759 32.538H28.1709V23.888C28.1709 23.036 27.4769 22.342 26.6229 22.342H26.6219ZM41.2889 43.201C39.9359 43.201 38.8349 42.1 38.8349 40.747C38.8349 39.394 39.9359 38.293 41.2889 38.293C42.6419 38.293 43.7429 39.394 43.7429 40.747C43.7429 42.1 42.6419 43.201 41.2889 43.201ZM46.2079 38.368V40.421H45.3179C45.1509 38.344 43.4089 36.704 41.2889 36.704C39.1689 36.704 37.4269 38.344 37.2599 40.421H28.1689V36.419H47.2329V38.042H46.5329C46.3529 38.042 46.2069 38.188 46.2069 38.368H46.2079ZM48.2589 40.337C48.2589 40.384 48.2229 40.421 48.1769 40.421H46.8599V38.694H48.1769C48.2229 38.694 48.2589 38.731 48.2589 38.778V40.337Z" fill="#564B57"/>
</svg>
