<svg width="34" height="34" viewBox="0 0 34 34" fill="none" xmlns="http://www.w3.org/2000/svg">
<path d="M20.5417 4.25C25.86 4.25635 28.6933 4.25794 29.0417 4.25477C29.5642 4.25 29.75 4.71012 29.75 4.95833V13.4583C29.75 13.8495 29.4329 14.1667 29.0417 14.1667C28.6784 14.1667 28.3333 13.8814 28.3333 13.4583V6.66613L20.4473 14.5458C21.7868 16.1057 22.6667 18.1217 22.6667 20.5417C22.6667 25.6273 18.544 29.75 13.4583 29.75C8.37271 29.75 4.25 25.6273 4.25 20.5417C4.25 15.456 8.37271 11.3333 13.4583 11.3333C15.7437 11.3333 17.8346 12.1659 19.4443 13.5442L27.3296 5.66667H20.5417C20.1345 5.66667 19.8333 5.32159 19.8333 4.95833C19.8333 4.59507 20.1345 4.25 20.5417 4.25ZM13.4583 12.75C9.15511 12.75 5.66667 16.2384 5.66667 20.5417C5.66667 24.8449 9.15511 28.3333 13.4583 28.3333C17.7616 28.3333 21.25 24.8449 21.25 20.5417C21.25 16.2384 17.7616 12.75 13.4583 12.75Z" fill="#008D5C"/>
</svg>
