<svg width="25" height="24" viewBox="0 0 25 24" fill="none" xmlns="http://www.w3.org/2000/svg">
<path d="M17.1186 0C17.1745 0 17.2303 0 17.2894 0C17.4264 1.69253 16.7803 2.95719 15.9952 3.87301C15.2248 4.78251 14.1699 5.6646 12.4636 5.53076C12.3498 3.86247 12.9969 2.69161 13.781 1.77789C14.5082 0.92636 15.8413 0.168621 17.1186 0Z" fill="black"/>
<path d="M22.2837 17.6166C22.2837 17.6335 22.2837 17.6482 22.2837 17.6641C21.8042 19.1163 21.1202 20.3609 20.2855 21.516C19.5236 22.5646 18.5898 23.9757 16.9226 23.9757C15.482 23.9757 14.525 23.0494 13.0485 23.0241C11.4867 22.9988 10.6278 23.7987 9.19978 24C9.03643 24 8.87307 24 8.71288 24C7.66427 23.8482 6.81801 23.0178 6.20149 22.2695C4.38355 20.0585 2.97873 17.2025 2.71736 13.5476C2.71736 13.1893 2.71736 12.832 2.71736 12.4737C2.82802 9.85797 4.099 7.73124 5.78837 6.70054C6.67995 6.15253 7.90561 5.68566 9.27039 5.89432C9.85529 5.98496 10.4528 6.1852 10.9766 6.38333C11.473 6.57408 12.0937 6.91237 12.6818 6.89446C13.0802 6.88286 13.4764 6.67525 13.8779 6.52876C15.0541 6.10405 16.207 5.61715 17.7267 5.84585C19.5531 6.12196 20.8494 6.93345 21.6503 8.18546C20.1053 9.16873 18.8839 10.6505 19.0925 13.1808C19.278 15.4794 20.6143 16.8241 22.2837 17.6166Z" fill="black"/>
</svg>
