<svg width="34" height="34" viewBox="0 0 34 34" fill="none" xmlns="http://www.w3.org/2000/svg">
<path d="M31.7333 8.0529C31.7333 7.5276 31.5066 7.0278 31.1105 6.6827C30.7155 6.33703 30.1885 6.17893 29.6706 6.24977L24.2419 6.98303C23.4293 7.0924 22.8032 7.73897 22.6898 8.5323L21.493 8.86267C21.0964 3.91453 16.9416 0 11.8999 0C6.588 0 2.2666 4.3214 2.2666 9.63333V27.7667C2.2666 31.2035 5.0631 34 8.49993 34C12.1204 34 14.4822 31.926 15.1492 28.1599C15.8241 24.3565 17.3513 21.2426 18.6982 18.4954C19.5199 16.8192 20.2877 15.2263 20.821 13.6181L22.6904 14.1338C22.8032 14.9271 23.4299 15.5737 24.2425 15.6831L25.5005 15.8531V19.9909C25.1633 20.1875 24.9338 20.549 24.9338 20.9667V32.3C24.9338 33.2373 25.6966 34 26.6338 34H28.9005C29.8378 34 30.6005 33.2373 30.6005 32.3V20.9667C30.6005 20.549 30.371 20.1875 30.0338 19.9909V16.4226C30.4288 16.3959 30.8085 16.2486 31.1111 15.984C31.5066 15.6389 31.7338 15.1391 31.7338 14.6138L31.7333 8.0529ZM17.0572 11.4053C17.0345 11.3985 16.9999 11.3894 16.9999 11.3333C16.9999 11.2772 17.0345 11.2682 17.0555 11.2619L18.2483 10.9327C18.2528 10.9316 18.2574 10.9304 18.2613 10.9293L22.666 9.71437V12.9523L17.0572 11.4053ZM17.6811 17.9968C16.3007 20.8114 14.7367 24.0012 14.034 27.9622C13.3149 32.0155 10.6278 32.8667 8.49993 32.8667C5.68757 32.8667 3.39993 30.579 3.39993 27.7667V9.63333C3.39993 4.94643 7.21304 1.13333 11.8999 1.13333C16.4219 1.13333 20.1325 4.7022 20.3767 9.17037L18.6999 9.63277C18.6999 5.88313 15.6496 2.83333 11.8999 2.83333C8.1503 2.83333 5.09993 5.8837 5.09993 9.63333C5.09993 13.2266 6.88947 15.0575 6.96597 15.134C7.0759 15.2445 7.2204 15.2994 7.3649 15.2994C7.5094 15.2994 7.65334 15.2445 7.76383 15.1351C7.98597 14.9152 7.98767 14.5571 7.7695 14.335C7.75647 14.3219 6.70757 13.2198 6.3517 11.0727C7.97577 10.7672 9.4236 11.0313 10.4663 11.8428C11.3911 12.5624 11.8999 13.6527 11.8999 14.9152C11.8999 17.2142 10.9377 19.2157 10.0067 21.1514C9.33293 22.5539 8.69657 23.8782 8.39283 25.3096C8.33673 25.5731 8.18884 25.7941 7.9752 25.9318C7.7865 26.0531 7.56777 26.0933 7.3598 26.0474C6.93027 25.9511 6.61803 25.521 6.61803 25.0246C6.61803 24.9509 6.62767 24.8733 6.6373 24.8092C6.809 23.8759 6.8957 23.0197 6.8957 22.2649C6.8957 19.499 6.21117 17.9633 6.1817 17.8993C6.05307 17.6154 5.7193 17.4896 5.4337 17.6182C5.14923 17.7469 5.0223 18.0818 5.14923 18.3668C5.15603 18.3804 5.76237 19.7687 5.76237 22.2649C5.76237 22.9511 5.68133 23.7388 5.5204 24.6177C5.4983 24.756 5.4847 24.8942 5.4847 25.0246C5.4847 26.0627 6.15393 26.9382 7.11273 27.1535C7.25157 27.1841 7.39153 27.1994 7.53093 27.1994C7.9004 27.1994 8.26533 27.0923 8.58777 26.8844C9.05753 26.5823 9.38167 26.1063 9.50124 25.5442C9.7755 24.246 10.3841 22.9817 11.0273 21.6427C12.0127 19.5925 13.0321 17.4726 13.0321 14.9152C13.0321 13.2963 12.3674 11.887 11.161 10.948C9.8775 9.94953 8.14917 9.60387 6.2412 9.9399C6.2378 9.8379 6.23214 9.7393 6.23214 9.6339C6.23214 6.5093 8.7742 3.96723 11.8988 3.96723C15.0234 3.96723 17.5655 6.5093 17.5655 9.6339C17.5655 9.7444 17.5621 9.84753 17.5575 9.9484L16.7512 10.1705C16.2208 10.3184 15.8655 10.7859 15.8655 11.3339C15.8655 11.8819 16.2213 12.3494 16.7529 12.4978L17.0169 12.5709C16.4367 14.229 15.5 15.7579 14.6602 17.1213C13.9144 18.3328 13.2701 19.3789 13.0486 20.2634C12.9721 20.5672 13.1568 20.8749 13.4605 20.9508C13.507 20.9627 13.5529 20.9678 13.5988 20.9678C13.8521 20.9678 14.0833 20.7961 14.1479 20.5388C14.327 19.8237 14.9288 18.8473 15.6252 17.7157C16.4644 16.3529 17.4861 14.6846 18.1095 12.873L19.725 13.3184C19.2156 14.8382 18.4733 16.3772 17.6788 17.9979L17.6811 17.9968ZM23.8005 13.8805V8.78617C23.8005 8.4439 24.0555 8.15207 24.3944 8.10673L27.7672 7.65113V15.0161L24.3944 14.5605C24.0555 14.5152 23.8005 14.2222 23.8005 13.8805ZM28.9005 16.3126V19.8333H26.6338V16.0066L28.9005 16.3126ZM29.4672 32.3C29.4672 32.6128 29.2133 32.8667 28.9005 32.8667H26.6338C26.321 32.8667 26.0672 32.6128 26.0672 32.3V20.9667H29.4672V32.3ZM30.6005 14.6138C30.6005 14.8144 30.5172 14.9985 30.3659 15.1306C30.2152 15.2615 30.0259 15.3215 29.823 15.2932L28.9005 15.1685V7.49757L29.823 7.3729C29.8553 7.36837 29.8865 7.3661 29.9182 7.3661C30.0831 7.3661 30.239 7.42503 30.3659 7.53553C30.5172 7.66757 30.6005 7.85173 30.6005 8.05233V14.6138Z" fill="#008D5C"/>
</svg>
