<svg width="34" height="34" viewBox="0 0 34 34" fill="none" xmlns="http://www.w3.org/2000/svg">
<g clip-path="url(#clip0_561_22444)">
<path d="M27.9354 27.2211C25.6001 24.6807 23.5581 22.3923 21.7836 20.3247C24.7536 16.2963 26.1175 13.6849 26.0745 12.1105C25.981 8.68866 24.8338 5.44159 22.7572 2.71993C22.7482 2.70745 22.7386 2.6955 22.7286 2.68401C21.3079 0.978164 19.2207 0 17.0001 0C14.7796 0 12.6923 0.97823 11.2716 2.68414C11.2616 2.69563 11.2521 2.70758 11.243 2.72007C9.16637 5.44179 8.01926 8.68886 7.92576 12.1106C7.87895 13.8237 9.56693 16.7217 12.1022 20.1692C11.8206 20.5118 11.5584 20.8314 11.3125 21.1312C9.48864 23.3549 8.48398 24.5799 6.06387 27.2211C5.89938 27.4005 5.878 27.669 6.012 27.8724L9.89391 33.7613C9.98814 33.9042 10.1457 33.993 10.3168 33.9997C10.3237 34 10.3306 34.0001 10.3375 34.0001C10.5011 34.0001 10.6561 33.9246 10.7569 33.7949C11.3235 33.0659 12.3128 31.9056 13.5653 30.4366C14.6083 29.2134 15.7824 27.8364 17.0034 26.3667C18.1173 27.7087 19.2733 29.0741 20.4348 30.4363C21.6874 31.9054 22.6768 33.0659 23.2434 33.7949C23.3442 33.9246 23.4992 34.0001 23.6627 34.0001C23.6696 34.0001 23.6765 34 23.6835 33.9997C23.8546 33.993 24.0121 33.9042 24.1064 33.7613L27.9878 27.8731C28.122 27.6694 28.1004 27.4005 27.9354 27.2211ZM22.9732 4.94926C24.243 7.12984 24.9426 9.58249 25.0124 12.1395C25.0363 13.0143 24.3656 14.9996 21.0752 19.4943C19.7061 17.8792 18.5079 16.4041 17.4676 15.0534C19.6404 12.0958 21.1951 9.59643 22.0888 7.62403C22.5485 6.60955 22.8428 5.7213 22.9732 4.94926ZM16.797 14.1708C15.8163 12.8614 14.9935 11.6746 14.3154 10.5948C13.9541 10.0193 13.6352 9.47524 13.3561 8.95947C14.4213 8.22156 15.7015 7.81748 17.0002 7.81748C18.1827 7.81748 19.3264 8.14094 20.3296 8.75407C19.5321 10.2026 18.3927 11.9825 16.797 14.1708ZM12.1322 3.31168C13.3493 1.88122 15.1189 1.0625 17.0001 1.0625C18.8805 1.0625 20.6494 1.88043 21.8664 3.30975C22.1364 4.03717 22.0378 5.3708 20.8242 7.81163C19.6683 7.11968 18.3561 6.75504 17 6.75504C15.534 6.75504 14.0879 7.19625 12.8702 8.00501C11.9132 5.983 11.679 4.45938 12.1322 3.31168ZM12.7568 29.7471C11.7832 30.8889 10.9678 31.8454 10.3789 32.5664L7.1269 27.633C9.36738 25.1781 10.3699 23.9558 12.1341 21.8049C12.3307 21.5652 12.5376 21.3129 12.7565 21.0464C13.8359 22.4749 15.0411 23.9841 16.3146 25.5328C15.0518 27.0553 13.8342 28.4835 12.7568 29.7471ZM23.6213 32.5664C23.0325 31.8454 22.2169 30.8887 21.2433 29.7468C18.9524 27.0599 15.8149 23.3801 13.2988 20.0003C9.69064 15.1538 8.96296 13.0505 8.98787 12.1395C9.05494 9.68376 9.70273 7.32448 10.8789 5.20977C11.0583 6.8002 11.8893 8.72903 13.4156 11.1598C15.8634 15.058 20.1441 20.2991 26.8725 27.6344L23.6213 32.5664Z" fill="#4270B7"/>
</g>
<defs>
<clipPath id="clip0_561_22444">
<rect width="34" height="34" fill="white"/>
</clipPath>
</defs>
</svg>
