<svg width="34" height="34" viewBox="0 0 34 34" fill="none" xmlns="http://www.w3.org/2000/svg">
<path d="M17.5074 30.9024C18.6319 31.1729 19.7316 31.5373 20.795 31.9919C21.776 32.4031 23.2594 32.8766 24.887 32.8766C24.9875 32.8766 25.0885 32.8747 25.19 32.871C26.0007 32.8416 26.7839 32.5696 27.4382 32.0901C28.0925 31.6106 28.5878 30.9458 28.86 30.1816C29.5268 28.2543 29.5148 25.7084 28.8243 22.6148C28.6543 21.8534 28.529 21.2178 28.43 20.6148C28.2233 19.3553 27.6435 17.0313 26.05 14.9048C26.4621 14.7568 26.8535 14.5568 27.2148 14.3095C27.4387 14.1551 27.6023 13.9281 27.6781 13.6669C27.7538 13.4057 27.737 13.1263 27.6305 12.8761L27.4883 12.5443C27.4241 12.3949 27.3298 12.2604 27.2112 12.1491C27.0927 12.0378 26.9524 11.9521 26.7993 11.8974C26.648 11.8436 26.4872 11.8216 26.327 11.8327C26.1668 11.8439 26.0106 11.8879 25.8681 11.962C25.8512 11.9709 25.8334 11.9793 25.8164 11.9881L25.6305 11.4769C25.578 11.3304 25.4956 11.1964 25.3887 11.0833C25.2818 10.9701 25.1525 10.8804 25.0092 10.8197C24.8627 10.7575 24.705 10.7259 24.5459 10.7268C24.3867 10.7278 24.2294 10.7613 24.0836 10.8252C23.1522 11.233 22.0649 11.3026 21.3171 11.2891C21.2285 11.2535 21.1389 11.2187 21.0483 11.1846C20.5851 11.0117 20.1077 10.8795 19.6215 10.7895C19.8182 10.0562 20.3408 9.67951 21.1794 9.67031C21.4276 9.66719 21.6668 9.57686 21.8551 9.41513C22.0434 9.25341 22.1689 9.03059 22.2094 8.78571L22.3771 7.78571C22.5895 7.82802 22.8099 7.799 23.0041 7.70316C23.1983 7.60731 23.3553 7.45002 23.4509 7.25571L23.8226 6.49831C23.9259 6.28922 23.9513 6.05019 23.8942 5.82408C23.8372 5.59797 23.7016 5.39955 23.5115 5.26441C23.0311 4.92084 22.5079 4.64147 21.9552 4.43341C22.0368 4.16141 22.101 3.88448 22.1474 3.60431C22.2025 3.27242 22.1359 2.93179 21.9598 2.64514C21.7836 2.35849 21.5099 2.14512 21.1889 2.04431C20.8342 1.93606 20.474 1.8466 20.1099 1.77631C20.0944 1.77248 20.0787 1.76957 20.0628 1.76761C19.7928 1.71581 19.5204 1.67151 19.2449 1.63991C19.1923 1.6331 19.1389 1.63681 19.0878 1.65083C19.0367 1.66485 18.9888 1.68889 18.9471 1.72156C18.9053 1.75422 18.8705 1.79487 18.8446 1.84112C18.8187 1.88738 18.8022 1.93832 18.7962 1.99099C18.7901 2.04366 18.7946 2.09701 18.8094 2.14793C18.8241 2.19885 18.8489 2.24633 18.8821 2.28761C18.9154 2.32889 18.9565 2.36314 19.0032 2.38838C19.0498 2.41361 19.101 2.42933 19.1537 2.43461C19.2917 2.45051 19.4288 2.47011 19.5654 2.49141C19.509 2.99149 19.4 3.48422 19.2401 3.96141C19.0051 3.96331 18.7931 3.97521 18.6094 3.99141C18.6198 3.31553 18.5512 2.64076 18.405 1.98081C18.342 1.70087 18.1721 1.45667 17.9314 1.30038C17.6908 1.14409 17.3986 1.08812 17.1172 1.14441L16.5641 1.25281C16.3004 1.30461 16.0646 1.45096 15.9012 1.66434C15.7377 1.87773 15.6578 2.14347 15.6765 2.41161C15.7414 3.31842 15.6561 4.22972 15.4239 5.10871C14.7541 5.54823 14.1617 6.09563 13.6707 6.72871C13.6577 6.56871 13.6427 6.42081 13.6265 6.28731C13.595 6.02886 13.47 5.79087 13.2751 5.61822C13.0802 5.44556 12.8289 5.35016 12.5685 5.35001H11.5204C11.3768 5.34994 11.2347 5.37891 11.1025 5.43518C10.9704 5.49144 10.851 5.57384 10.7515 5.67741C10.652 5.78099 10.5745 5.90361 10.5236 6.03791C10.4727 6.17221 10.4495 6.31541 10.4553 6.45891C10.4961 7.43891 10.5136 9.34461 10.1714 11.1041C9.96829 12.1914 9.86094 13.2944 9.85062 14.4004C9.56352 14.5168 9.21832 14.6511 8.83662 14.7894C8.82972 14.7894 8.82322 14.788 8.81662 14.7883C8.18653 14.8228 7.55513 14.7507 6.94902 14.5751C6.93163 14.5698 6.91552 14.5611 6.90169 14.5493C6.88786 14.5375 6.87661 14.523 6.86864 14.5067C6.86067 14.4904 6.85615 14.4726 6.85538 14.4544C6.8546 14.4363 6.85758 14.4182 6.86412 14.4012L7.11052 13.7549C7.12158 13.726 7.14244 13.702 7.16943 13.687C7.19643 13.6719 7.22786 13.6668 7.25822 13.6726C7.79557 13.7713 8.34262 13.8068 8.88822 13.7784C8.99289 13.7717 9.09072 13.7241 9.16065 13.6459C9.23058 13.5678 9.26701 13.4652 9.2621 13.3605C9.25718 13.2557 9.21131 13.1571 9.13436 13.0858C9.05742 13.0145 8.95556 12.9763 8.85072 12.9794C8.36758 13.0046 7.88314 12.9734 7.40722 12.8865C7.19229 12.8453 6.96973 12.8813 6.77868 12.988C6.58764 13.0947 6.44035 13.2654 6.36272 13.47L6.11632 14.1162C6.07075 14.2356 6.05019 14.363 6.05592 14.4906C6.06165 14.6182 6.09356 14.7433 6.14965 14.8581C6.20575 14.9729 6.28483 15.0749 6.38201 15.1578C6.47918 15.2408 6.59236 15.3028 6.71452 15.3402C6.77502 15.3587 6.84252 15.3774 6.91352 15.396C6.42596 15.5273 5.93137 15.631 5.43212 15.7065C5.31181 15.7239 5.19618 15.7651 5.092 15.8278C4.98781 15.8904 4.89717 15.9732 4.82537 16.0713C4.75358 16.1694 4.70207 16.2808 4.67387 16.399C4.64566 16.5173 4.64133 16.64 4.66112 16.7599L4.79592 17.5808C4.83058 17.7949 4.94035 17.9897 5.10555 18.1303C5.27076 18.2708 5.48061 18.348 5.69752 18.3479C5.73526 18.3479 5.77296 18.3456 5.81042 18.341C6.24912 18.2876 6.85842 18.1973 7.53982 18.051C7.40828 18.4232 7.34852 18.817 7.36372 19.2115C7.42702 20.7701 7.76932 22.9748 8.97852 25.0399C8.74501 26.6655 8.7052 28.313 8.85992 29.9479C8.87463 30.0893 8.91955 30.2259 8.99164 30.3484C9.06372 30.471 9.16129 30.5766 9.27774 30.6581C9.39419 30.7397 9.52681 30.7952 9.6666 30.8211C9.8064 30.8469 9.95011 30.8424 10.088 30.8079L11.1237 30.549C11.3436 30.4948 11.5382 30.3668 11.6749 30.1863C11.8117 30.0059 11.8824 29.7839 11.8751 29.5576C11.8646 29.1491 11.8642 28.6976 11.8737 28.2104C13.5349 29.5046 15.4569 30.423 17.5074 30.9024ZM26.5309 12.6514C26.5804 12.6688 26.6256 12.6962 26.6638 12.7321C26.702 12.7679 26.7323 12.8114 26.7527 12.8596L26.8949 13.1914C26.929 13.2716 26.9342 13.3612 26.9099 13.4449C26.8855 13.5286 26.833 13.6013 26.7612 13.6507C26.378 13.9123 25.9552 14.1107 25.5091 14.2383C25.2331 13.9235 24.939 13.6249 24.6285 13.3441C25.1824 13.1635 25.7208 12.9384 26.2385 12.6711C26.2832 12.6476 26.3323 12.6336 26.3826 12.6302C26.433 12.6268 26.4835 12.6341 26.5309 12.6514ZM24.4043 11.5583C24.4498 11.5378 24.4991 11.5269 24.549 11.5264C24.5989 11.5259 24.6484 11.5358 24.6943 11.5554C24.7369 11.5735 24.7752 11.6001 24.807 11.6337C24.8387 11.6673 24.8632 11.7071 24.8788 11.7506L25.0869 12.3229C24.6959 12.4813 24.2967 12.6188 23.8911 12.7348C23.5371 12.4681 23.1671 12.2232 22.7832 12.0016C23.341 11.9269 23.8862 11.7778 24.4043 11.5583ZM27.6402 20.7443C27.7418 21.3627 27.8702 22.0124 28.0431 22.789C28.8625 26.4595 28.5283 28.6928 28.1037 29.9201C27.8849 30.5321 27.4873 31.0644 26.9626 31.448C26.4379 31.8315 25.8101 32.0488 25.1605 32.0716C23.5814 32.1281 22.109 31.6716 21.1405 31.269C18.6471 29.5681 16.6389 27.5078 15.2572 25.8777C15.7682 26.0853 16.3083 26.2121 16.8582 26.2537C16.9211 26.2583 16.9846 26.2619 17.0494 26.2647C17.7714 26.2831 18.4805 26.4607 19.1259 26.7847C19.6357 27.0469 20.0965 27.3949 20.4881 27.8136C20.5603 27.8914 20.6604 27.9372 20.7664 27.9412C20.8724 27.9451 20.9757 27.9068 21.0534 27.8346C21.1312 27.7624 21.1771 27.6623 21.181 27.5563C21.1849 27.4503 21.1466 27.3471 21.0744 27.2693C20.6205 26.7833 20.0862 26.3793 19.4949 26.0749C18.7455 25.6967 17.9218 25.4887 17.0827 25.4657C17.0266 25.4632 16.9713 25.4602 16.9164 25.4562C16.2011 25.3955 15.5087 25.174 14.891 24.8083C14.2732 24.4426 13.746 23.9421 13.3487 23.3441L12.9861 22.8041C11.6518 20.296 12.5197 18.3735 13.1754 17.4334C13.5984 16.8358 13.9369 16.1827 14.1813 15.4925C14.3943 14.8892 14.5631 14.2713 14.6865 13.6435C14.6962 13.5919 14.6956 13.5388 14.6848 13.4874C14.674 13.436 14.6532 13.3873 14.6236 13.3439C14.5939 13.3005 14.556 13.2634 14.512 13.2347C14.468 13.206 14.4188 13.1862 14.3672 13.1766C14.3155 13.1669 14.2625 13.1674 14.2111 13.1782C14.1597 13.189 14.1109 13.2099 14.0676 13.2395C14.0242 13.2692 13.9871 13.3071 13.9584 13.3511C13.9297 13.3951 13.9099 13.4443 13.9002 13.4959C13.7841 14.0851 13.6254 14.665 13.4253 15.2312C13.2049 15.8516 12.9 16.4387 12.5191 16.9758C11.7302 18.107 10.672 20.4567 12.4491 23.4838C12.451 23.4872 12.4531 23.4906 12.4551 23.4938C12.5634 23.6665 14.7956 27.1856 18.6251 30.3707C18.3103 30.2795 17.9981 30.1973 17.6885 30.1242C12.6785 28.9508 10.1333 25.3586 10.1063 25.3198C8.88892 23.595 8.40632 21.6772 8.23472 20.1398C8.60939 19.7701 9.01154 19.4293 9.43772 19.1203C9.48579 19.0848 9.54332 19.0643 9.60302 19.0615C9.66273 19.0587 9.72192 19.0737 9.77312 19.1045C9.82456 19.1332 9.86616 19.1767 9.89251 19.2294C9.91885 19.2821 9.92872 19.3414 9.92082 19.3998C9.91572 19.4438 9.91082 19.4879 9.90642 19.5317C9.75155 21.0929 10.0921 22.6633 10.8799 24.02C11.0838 24.3769 11.2978 24.7324 11.5162 25.0765C11.573 25.1661 11.6631 25.2294 11.7667 25.2526C11.8179 25.2641 11.8709 25.2654 11.9227 25.2563C11.9744 25.2473 12.0239 25.2282 12.0683 25.2001C12.1126 25.1719 12.151 25.1353 12.1812 25.0924C12.2114 25.0494 12.2329 25.0009 12.2444 24.9496C12.2559 24.8984 12.2571 24.8453 12.2481 24.7936C12.2391 24.7418 12.22 24.6924 12.1918 24.648C11.98 24.3141 11.7718 23.9693 11.5744 23.623C10.8703 22.4107 10.5657 21.0075 10.7038 19.6124C10.7079 19.5724 10.7123 19.5316 10.717 19.4908C10.7411 19.278 10.7029 19.0629 10.6069 18.8714C10.511 18.68 10.3615 18.5206 10.1766 18.4125C9.99177 18.3045 9.7795 18.2524 9.56562 18.2628C9.35175 18.2731 9.14549 18.3454 8.97192 18.4708C8.69572 18.6695 8.42582 18.8862 8.16292 19.1161C8.15997 18.7145 8.25876 18.3187 8.45007 17.9656C8.64139 17.6124 8.91899 17.3135 9.25702 17.0966C11.712 15.5182 13.0288 13.6057 13.5953 12.6066C13.8291 12.1842 14.2173 11.8686 14.6786 11.726C14.9078 11.6579 15.1404 11.6017 15.3754 11.5576C16.0921 12.2591 16.5755 13.1642 16.7599 14.15C16.8827 14.8786 16.8266 15.626 16.5967 16.3282C16.3668 17.0303 15.9698 17.6662 15.4399 18.181C15.3586 18.2616 15.2748 18.3374 15.1912 18.4064C14.8166 18.7064 14.5307 19.1025 14.3638 19.5525C14.197 20.0024 14.1557 20.4893 14.2442 20.9609C14.3733 21.6033 14.6272 22.2141 14.9916 22.7586C15.051 22.8454 15.1422 22.9054 15.2455 22.9254C15.3487 22.9455 15.4558 22.9241 15.5433 22.8658C15.6309 22.8075 15.692 22.7171 15.7134 22.6141C15.7348 22.5111 15.7148 22.4038 15.6576 22.3155C15.3511 21.8575 15.1374 21.3439 15.0286 20.8036C14.9687 20.4739 14.9995 20.1342 15.1177 19.8207C15.2359 19.5071 15.4371 19.2316 15.6998 19.0236C15.8021 18.9392 15.9041 18.8469 16.0027 18.7493C16.9099 17.8577 17.4755 16.6761 17.601 15.4104C17.6939 15.4913 17.7919 15.566 17.8945 15.6341C18.0587 15.7427 18.2272 15.8629 18.3953 15.9914C18.922 16.3959 19.3323 16.9326 19.5846 17.5469C19.7085 17.8469 19.8195 18.1441 19.9146 18.4294C19.9482 18.5301 20.0204 18.6133 20.1153 18.6607C20.2102 18.7081 20.32 18.7159 20.4207 18.6824C20.5213 18.6488 20.6045 18.5766 20.652 18.4817C20.6994 18.3868 20.7072 18.277 20.6736 18.1763C20.5726 17.8736 20.455 17.5592 20.3242 17.2419C20.018 16.4969 19.5201 15.8462 18.8811 15.3559C18.6986 15.2159 18.5151 15.0859 18.3359 14.9669C17.8993 14.6802 17.5941 14.2322 17.4871 13.721C17.4825 13.6993 17.4771 13.6797 17.4723 13.6584C17.4709 13.6525 17.4696 13.6465 17.4682 13.6407C17.4176 13.4051 17.3433 13.1753 17.2464 12.9546C17.0253 12.4017 16.7199 11.8864 16.3412 11.4269C17.225 11.3633 18.1128 11.3878 18.9917 11.5002C19.5982 11.575 20.1939 11.7204 20.7666 11.9333C25.9868 13.8915 27.3125 18.7473 27.6399 20.7443H27.6402ZM20.9532 2.80931C21.0894 2.85259 21.2054 2.9436 21.2799 3.0656C21.3543 3.1876 21.3822 3.33238 21.3584 3.47331C21.318 3.71671 21.2624 3.95735 21.1919 4.19381C20.8236 4.10062 20.4488 4.0354 20.0707 3.99871C20.202 3.55703 20.2963 3.10521 20.3528 2.64791C20.5556 2.69641 20.7566 2.74871 20.9532 2.80931ZM16.4749 2.35461C16.47 2.28122 16.492 2.20854 16.5368 2.15022C16.5816 2.09191 16.6462 2.05197 16.7184 2.03791L17.2714 1.92961C17.3489 1.91418 17.4293 1.92968 17.4955 1.97279C17.5617 2.01591 17.6084 2.08321 17.6256 2.16031C17.7666 2.80209 17.8279 3.45882 17.8079 4.11561C17.3092 4.22715 16.823 4.38898 16.3569 4.59861C16.488 3.85826 16.5276 3.10462 16.4749 2.35461ZM18.0385 4.88261C18.0653 4.87621 20.7437 4.26731 23.0458 5.91521C23.0814 5.94042 23.1069 5.9775 23.1177 6.0198C23.1284 6.06209 23.1238 6.10684 23.1045 6.14601L22.7328 6.90341C22.7146 6.93987 22.6848 6.96927 22.6481 6.987C22.6114 7.00473 22.5698 7.0098 22.5299 7.00141C21.5549 6.79721 18.2799 6.37911 17.0616 9.57061C17.0429 9.61969 17.034 9.67198 17.0355 9.72449C17.037 9.777 17.0488 9.82871 17.0703 9.87666C17.0917 9.9246 17.1224 9.96785 17.1606 10.0039C17.1988 10.04 17.2437 10.0682 17.2928 10.087C17.3419 10.1057 17.3941 10.1146 17.4467 10.1131C17.4992 10.1116 17.5509 10.0998 17.5988 10.0783C17.6468 10.0569 17.69 10.0262 17.7261 9.98798C17.7622 9.9498 17.7904 9.90489 17.8091 9.85581C18.5817 7.83091 20.3658 7.58031 21.5847 7.67341L21.4203 8.65341C21.4107 8.71315 21.3804 8.76762 21.3347 8.80729C21.289 8.84696 21.2308 8.8693 21.1703 8.87041C19.9317 8.88471 19.0952 9.53841 18.8277 10.6761C17.6154 10.5443 15.9516 10.5054 14.4477 10.9587C14.0194 11.0886 13.6315 11.3259 13.3208 11.6481C13.3914 10.9849 13.462 10.4306 13.5317 9.99321C13.6326 9.36362 13.6915 8.72802 13.7079 8.09061C13.7104 8.08671 13.7137 8.08351 13.7161 8.07941C14.7259 6.36671 16.1778 5.29161 18.0385 4.88261ZM10.9567 11.2573C11.3144 9.41731 11.2967 7.44061 11.2545 6.42601C11.2529 6.39048 11.2586 6.355 11.2712 6.32174C11.2838 6.28848 11.3031 6.25815 11.3278 6.23261C11.3526 6.20653 11.3825 6.18579 11.4156 6.17165C11.4488 6.15752 11.4844 6.15029 11.5204 6.15041H12.5685C12.6334 6.1503 12.6961 6.17394 12.7448 6.21686C12.7934 6.25978 12.8247 6.31901 12.8327 6.38341C12.9609 7.54349 12.9302 8.71563 12.7414 9.86741C12.6229 10.6108 12.5028 11.6732 12.3844 13.0248C11.8772 13.7489 11.2935 14.4164 10.6435 15.0156C10.6499 13.9548 10.6799 12.6789 10.9567 11.2573ZM5.71372 17.5473C5.68411 17.5509 5.65427 17.5429 5.63037 17.5251C5.60647 17.5072 5.59034 17.4809 5.58532 17.4515L5.45062 16.6306C5.44805 16.6155 5.44856 16.6 5.45209 16.5851C5.45563 16.5702 5.46214 16.5562 5.47122 16.5438C5.48004 16.5316 5.49127 16.5212 5.50422 16.5135C5.51717 16.5057 5.53156 16.5007 5.54652 16.4987C7.06712 16.2787 8.74232 15.6969 9.84232 15.2652V15.3512C9.84232 15.4706 9.84142 15.5864 9.84062 15.7005C9.52782 15.9459 9.18972 16.1884 8.82452 16.4232C8.53664 16.6085 8.28052 16.8389 8.06602 17.1057C7.29229 17.3036 6.50654 17.451 5.71372 17.5472V17.5473ZM11.0755 29.5786C11.0772 29.6228 11.0636 29.6662 11.0371 29.7016C11.0106 29.737 10.9728 29.7623 10.9299 29.7731L9.89412 30.0321C9.86731 30.0388 9.83937 30.0396 9.8122 30.0346C9.78503 30.0295 9.75926 30.0187 9.73666 30.0028C9.71405 29.9869 9.69513 29.9663 9.68118 29.9424C9.66723 29.9186 9.65858 29.892 9.65582 29.8645C9.53438 28.5989 9.53729 27.3245 9.66452 26.0595C10.0979 26.5975 10.5752 27.0985 11.0915 27.5574C11.0658 28.3047 11.0599 28.9844 11.0755 29.5785V29.5786Z" fill="#008D5C"/>
<path d="M12.2231 26.1342L12.3151 26.2642C12.3767 26.3506 12.47 26.409 12.5746 26.4266C12.6793 26.4442 12.7866 26.4195 12.873 26.3579C12.9594 26.2964 13.0178 26.203 13.0354 26.0984C13.053 25.9937 13.0283 25.8864 12.9667 25.8L12.8767 25.6736C12.8468 25.6297 12.8086 25.5922 12.7641 25.5633C12.7196 25.5344 12.6697 25.5146 12.6175 25.5051C12.5653 25.4956 12.5117 25.4966 12.4599 25.508C12.408 25.5194 12.359 25.5411 12.3156 25.5716C12.2722 25.6022 12.2354 25.6411 12.2071 25.6861C12.1789 25.731 12.16 25.7812 12.1513 25.8335C12.1427 25.8859 12.1446 25.9395 12.1568 25.9911C12.1691 26.0427 12.1915 26.0914 12.2228 26.1343L12.2231 26.1342Z" fill="#008D5C"/>
<path d="M21.2553 22.934C21.3605 22.9476 21.4668 22.9189 21.5508 22.8542C21.6348 22.7894 21.6897 22.694 21.7034 22.5888C21.796 21.8748 22.1411 21.2175 22.6764 20.736C23.318 20.1584 23.7527 19.3866 23.9141 18.5385C24.238 19.8312 24.4067 21.4404 24.1882 23.3653C24.0518 23.82 22.9482 27.7453 24.7854 29.8353C24.8554 29.915 24.9543 29.9635 25.0601 29.9703C25.166 29.9771 25.2702 29.9416 25.3499 29.8715C25.4296 29.8015 25.4782 29.7026 25.485 29.5968C25.4918 29.4909 25.4562 29.3867 25.3862 29.307C24.1488 27.8998 24.553 25.3005 24.8144 24.1462C24.8744 24.2319 24.9388 24.3144 25.0075 24.3934C25.499 24.9581 25.8602 25.6241 26.0654 26.3442C26.0955 26.4447 26.1639 26.5293 26.2558 26.5799C26.3477 26.6304 26.4558 26.6428 26.5568 26.6144C26.6578 26.586 26.7436 26.5191 26.7957 26.428C26.8478 26.3369 26.862 26.229 26.8354 26.1276C26.598 25.2935 26.1799 24.5219 25.6107 23.8676C25.2413 23.4464 25.0502 22.898 25.0777 22.3385C25.0904 22.0785 25.094 21.8414 25.0895 21.6294C25.0934 15.9577 21.9166 13.3248 21.7677 13.2047C21.6851 13.138 21.5795 13.1068 21.474 13.118C21.3685 13.1292 21.2717 13.1819 21.2051 13.2644C21.1384 13.3469 21.1072 13.4525 21.1184 13.5581C21.1296 13.6636 21.1822 13.7603 21.2648 13.827C21.2727 13.8334 21.9513 14.3951 22.6586 15.5325C22.9652 16.2495 23.1395 17.0162 23.1728 17.7953C23.1801 18.2386 23.0913 18.6782 22.9125 19.0839C22.7336 19.4896 22.469 19.8517 22.1368 20.1453C21.4614 20.7539 21.0263 21.5842 20.9101 22.4859C20.8964 22.5911 20.9251 22.6974 20.9899 22.7814C21.0546 22.8655 21.1501 22.9203 21.2553 22.934Z" fill="#008D5C"/>
</svg>
