<svg width="36" height="36" viewBox="0 0 36 36" fill="none" xmlns="http://www.w3.org/2000/svg">
<path d="M25.8653 6.56341C25.7054 5.20621 25.0452 4.14925 23.8406 3.46165C22.5734 2.69413 21.2645 2.67397 19.9289 3.25861C19.3594 3.50773 18.9029 3.91309 18.473 4.35373C18.1418 4.69285 17.8798 4.68997 17.5471 4.36525C17.4377 4.25869 17.3311 4.14853 17.2217 4.04197C15.7795 2.64013 13.5403 2.46013 11.8966 3.61285C9.78984 5.09101 9.4788 8.10565 11.2831 9.94525C13.4237 12.1276 15.6002 14.2739 17.7617 16.4353C17.7919 16.4656 17.8294 16.4893 17.8639 16.516C18.0367 16.7773 18.1375 16.5455 18.234 16.4497C20.3422 14.3473 22.4402 12.2363 24.5534 10.1397C25.5542 9.14605 26.0309 7.96597 25.866 6.56413L25.8653 6.56341Z" fill="#FF4B72"/>
<path d="M21.0441 8.30842H19.0814V6.3457H16.9185V8.30842H14.9558V10.4713H16.9185V12.4347H19.0814V10.4713H21.0441V8.30842Z" fill="white"/>
<path d="M10.0964 11.9635C9.92145 11.6027 9.62697 11.2139 8.97321 11.4047C8.90481 11.4249 8.84217 11.4479 8.78529 11.4746L8.76729 11.4803C8.49225 10.6963 8.28705 10.1303 8.22369 9.99858C8.04873 9.63858 7.75425 9.24978 7.10049 9.44058C7.03281 9.46002 6.45177 9.65514 6.61737 10.09C6.51153 9.80418 6.43449 9.60618 6.39777 9.52986C6.22281 9.16914 5.92833 8.78034 5.27457 8.97114C4.59705 9.16986 4.47897 9.6825 4.80513 10.4853C4.91745 10.7589 5.04921 11.1988 5.08521 11.3219C5.28177 11.489 5.40417 11.7115 5.45961 11.8807C5.58561 12.2659 7.25169 17.2634 7.36545 17.5982C7.37265 17.6191 7.38057 17.6392 7.38993 17.6594C7.52385 17.9589 7.83777 18.149 7.83777 18.149C7.68369 17.4499 8.29209 17.1302 8.29209 17.1302C8.29209 17.1302 8.60961 16.9811 8.97681 16.9955C9.12729 17.0006 9.28641 17.0344 9.43617 17.1165C9.61833 17.2173 10.2563 17.591 11.0036 18.0302C11.4932 18.3182 12.0289 18.635 12.5135 18.9215C11.8763 17.033 10.3059 12.3983 10.095 11.9642L10.0964 11.9635Z" fill="#EFA7A0"/>
<path d="M16.7737 28.2431C16.7787 27.9688 16.6844 27.9097 16.4295 27.9112C16.2279 27.9126 16.0328 27.9126 15.8449 27.9133C14.7217 27.9169 13.8181 27.9184 12.885 27.9169C12.2622 27.9169 11.6257 27.9155 10.9043 27.9133H10.6011C10.4096 27.9119 10.2116 27.9119 10.0064 27.9112C9.73785 27.9097 9.63345 27.9673 9.63705 28.2618C9.65433 29.408 9.65361 31.6487 9.63849 32.7949C9.63345 33.0851 9.73137 33.1513 10.005 33.1492C11.1937 33.1362 11.8849 33.142 13.0153 33.1434H13.2277C14.4906 33.1434 15.1667 33.1376 16.4281 33.1484C16.6794 33.1506 16.7787 33.0966 16.7744 32.8187C16.76 31.658 16.76 29.4037 16.7744 28.2431H16.7737Z" fill="#4270B7"/>
<path d="M15.835 22.9963C15.8235 20.742 14.0609 19.8348 14.0609 19.8348C14.0609 19.8348 13.3675 19.4244 12.5151 18.9204C12.0305 18.6338 11.4941 18.317 11.0045 18.0297C10.2579 17.5898 9.61994 17.2161 9.43778 17.1153C9.2873 17.0332 9.1289 16.9994 8.9777 16.9944C8.6105 16.98 8.2937 17.129 8.2937 17.129C8.2937 17.129 7.68602 17.448 7.83938 18.1478C7.83938 18.1478 7.52474 17.9577 7.39082 17.6582C7.38146 17.638 5.58578 12.2647 5.4605 11.8788C5.40506 11.7096 5.28338 11.4878 5.0861 11.32C4.83698 11.1062 4.46906 10.9809 3.97154 11.1595C3.96938 11.1609 3.96794 11.1609 3.96578 11.1616C3.80018 11.2214 3.6785 11.3078 3.59138 11.4086C3.56186 11.4417 3.53666 11.477 3.51434 11.513C3.48122 11.567 3.4553 11.6239 3.43586 11.6822C3.42938 11.7016 3.42362 11.7211 3.41858 11.7405C3.31418 12.13 3.4625 12.5455 3.4625 12.5455C3.4625 12.5455 5.31506 19.4301 5.37194 19.644C5.42954 19.8578 5.47778 20.0392 5.51594 20.1811C5.61674 20.5584 5.7413 20.868 5.88962 21.1358C6.18554 21.6715 6.57434 22.0401 7.04594 22.4448C7.2821 22.6471 7.53842 22.8588 7.8149 23.1043C7.98626 23.2569 8.1605 23.4117 8.33474 23.5665C8.3369 23.5687 8.33978 23.5708 8.34194 23.573C8.39882 23.6234 8.4557 23.6745 8.51258 23.7249C8.51474 23.7264 8.51618 23.7285 8.51834 23.73C9.15698 24.3024 9.76682 24.869 10.1347 25.3399C10.1347 25.3399 10.1347 25.3399 10.1355 25.3406C10.1686 25.3831 10.2003 25.4248 10.2291 25.4659C10.3219 25.5962 10.3954 25.7186 10.4393 25.8288C10.7035 26.4904 10.6049 27.8764 10.6027 27.9132H15.8458C15.8458 27.9132 15.8472 25.2492 15.835 22.9963Z" fill="#FFDBD0"/>
<path d="M10.9045 27.9136C11.6259 27.9157 12.2624 27.9172 12.8852 27.9172C12.9356 28.2844 12.9745 28.653 13.0119 29.0181L13.0141 33.1444C11.8837 33.1429 11.1925 33.1372 10.0038 33.1501C9.73015 33.1523 9.63295 33.0853 9.63727 32.7959C9.65239 31.6497 9.65383 29.409 9.63583 28.2628C9.63223 27.9683 9.73663 27.9107 10.0052 27.9121C10.2104 27.9136 10.4091 27.9136 10.5999 27.9143H10.903L10.9045 27.9136Z" fill="#315B9D"/>
<path d="M12.8858 27.9136H10.602C10.6041 27.8769 10.7028 26.4916 10.4385 25.8292C10.1707 25.1603 8.91788 24.0876 7.81484 23.104C6.70964 22.1205 5.91836 21.6885 5.51588 20.1808C5.11196 18.6739 3.46244 12.5459 3.46244 12.5459C3.46244 12.5459 3.08228 11.4825 3.96572 11.1621C4.61732 13.2134 5.26964 15.2661 5.92196 17.3159C6.22148 18.2584 6.52892 19.2168 7.09412 20.0282C7.54844 20.6805 8.15036 21.2126 8.74796 21.7367C9.28508 22.2098 9.82292 22.6828 10.3615 23.1559C10.8576 23.5922 11.3601 24.035 11.7489 24.5714C12.448 25.5362 12.7238 26.7177 12.8858 27.9136Z" fill="#EFA7A0"/>
<path d="M8.97909 16.9949C8.93013 16.9949 8.88477 16.964 8.86821 16.9157C8.69613 16.411 7.17045 11.9376 6.53109 10.1909C6.50877 10.1297 6.54045 10.0628 6.60093 10.0404C6.66141 10.0181 6.72909 10.0491 6.75141 10.1103C7.39149 11.8599 8.91789 16.3354 9.08997 16.8401C9.11085 16.9013 9.07845 16.9683 9.01653 16.9892C9.00429 16.9935 8.99133 16.9956 8.97836 16.9956L8.97909 16.9949Z" fill="#F98480"/>
<path d="M10.9411 17.9587C10.8921 17.9587 10.8468 17.9278 10.8302 17.8788C10.3039 16.32 9.32683 13.4343 8.69395 11.6213C8.67235 11.5601 8.70475 11.4931 8.76595 11.4715C8.82643 11.4499 8.89411 11.4823 8.91571 11.5435C9.54859 13.3572 10.5264 16.2437 11.0527 17.8032C11.0736 17.8644 11.0404 17.9314 10.9792 17.9523C10.967 17.9566 10.954 17.9587 10.9418 17.9587H10.9411Z" fill="#F98480"/>
<path d="M25.9034 11.9635C26.0783 11.6027 26.3728 11.2139 27.0266 11.4047C27.095 11.4249 27.1576 11.4479 27.2145 11.4746L27.2325 11.4803C27.5075 10.6963 27.7127 10.1303 27.7761 9.99858C27.951 9.63858 28.2455 9.24978 28.8993 9.44058C28.967 9.46002 29.548 9.65514 29.3824 10.09C29.4882 9.80418 29.5653 9.60618 29.602 9.52986C29.777 9.16914 30.0714 8.78034 30.7252 8.97114C31.4027 9.16986 31.5208 9.6825 31.1946 10.4853C31.0823 10.7589 30.9506 11.1988 30.9146 11.3219C30.718 11.489 30.5956 11.7115 30.5402 11.8807C30.4142 12.2659 28.7481 17.2634 28.6343 17.5982C28.6271 17.6191 28.6192 17.6392 28.6098 17.6594C28.4759 17.9589 28.162 18.149 28.162 18.149C28.3161 17.4499 27.7077 17.1302 27.7077 17.1302C27.7077 17.1302 27.3902 16.9811 27.023 16.9955C26.8725 17.0006 26.7134 17.0344 26.5636 17.1165C26.3814 17.2173 25.7435 17.591 24.9962 18.0302C24.5066 18.3182 23.9709 18.635 23.4863 18.9215C24.1235 17.033 25.6938 12.3983 25.9048 11.9642L25.9034 11.9635Z" fill="#EFA7A0"/>
<path d="M19.2262 28.2431C19.2212 27.9688 19.3155 27.9097 19.5704 27.9112C19.772 27.9126 19.9671 27.9126 20.155 27.9133C21.2782 27.9169 22.1818 27.9184 23.1149 27.9169C23.7377 27.9169 24.3742 27.9155 25.0956 27.9133H25.3988C25.5903 27.9119 25.7883 27.9119 25.9935 27.9112C26.262 27.9097 26.3664 27.9673 26.3628 28.2618C26.3456 29.408 26.3463 31.6487 26.3614 32.7949C26.3664 33.0851 26.2685 33.1513 25.9949 33.1492C24.8062 33.1362 24.115 33.142 22.9846 33.1434C22.9155 33.1434 22.8449 33.1434 22.7722 33.1434C21.5093 33.1434 20.8332 33.1376 19.5718 33.1484C19.3205 33.1506 19.2212 33.0966 19.2255 32.8187C19.2399 31.658 19.2399 29.4037 19.2255 28.2431H19.2262Z" fill="#4270B7"/>
<path d="M20.1651 22.9963C20.1767 20.742 21.9392 19.8348 21.9392 19.8348C21.9392 19.8348 22.6326 19.4244 23.4851 18.9204C23.9696 18.6338 24.506 18.317 24.9956 18.0297C25.7423 17.5898 26.3802 17.2161 26.5623 17.1153C26.7128 17.0332 26.8712 16.9994 27.0224 16.9944C27.3896 16.98 27.7064 17.129 27.7064 17.129C27.7064 17.129 28.3141 17.448 28.1607 18.1478C28.1607 18.1478 28.4754 17.9577 28.6093 17.6582C28.6187 17.638 30.4143 12.2647 30.5396 11.8788C30.5951 11.7096 30.7167 11.4878 30.914 11.32C31.1631 11.1062 31.5311 10.9809 32.0286 11.1595C32.0307 11.1609 32.0322 11.1609 32.0343 11.1616C32.1999 11.2214 32.3216 11.3078 32.4087 11.4086C32.4383 11.4417 32.4635 11.477 32.4858 11.513C32.5189 11.567 32.5448 11.6239 32.5643 11.6822C32.5707 11.7016 32.5765 11.7211 32.5815 11.7405C32.6859 12.13 32.5376 12.5455 32.5376 12.5455C32.5376 12.5455 30.6851 19.4301 30.6282 19.644C30.5706 19.8578 30.5223 20.0392 30.4842 20.1811C30.3834 20.5584 30.2588 20.868 30.1105 21.1358C29.8146 21.6715 29.4258 22.0401 28.9542 22.4448C28.718 22.6471 28.4617 22.8588 28.1852 23.1043C28.0139 23.2569 27.8396 23.4117 27.6654 23.5665C27.6632 23.5687 27.6603 23.5708 27.6582 23.573C27.6013 23.6234 27.5444 23.6745 27.4875 23.7249C27.4854 23.7264 27.4839 23.7285 27.4818 23.73C26.8431 24.3024 26.2333 24.869 25.8654 25.3399C25.8654 25.3399 25.8654 25.3399 25.8647 25.3406C25.8315 25.3831 25.7999 25.4248 25.7711 25.4659C25.6782 25.5962 25.6047 25.7186 25.5608 25.8288C25.2966 26.4904 25.3952 27.8764 25.3974 27.9132C25.3002 27.9132 20.1543 27.9132 20.1543 27.9132C20.1543 27.9132 20.1529 25.2492 20.1651 22.9963Z" fill="#FFDBD0"/>
<path d="M25.0957 27.9136C24.3742 27.9157 23.7378 27.9172 23.115 27.9172C23.0646 28.2844 23.0257 28.653 22.9882 29.0181L22.9861 33.1444C24.1165 33.1429 24.8077 33.1372 25.9964 33.1501C26.27 33.1523 26.3672 33.0853 26.3629 32.7959C26.3478 31.6497 26.3463 29.409 26.3643 28.2628C26.3679 27.9683 26.2635 27.9107 25.995 27.9121C25.7898 27.9136 25.591 27.9136 25.4002 27.9143H25.1101H25.0971L25.0957 27.9136Z" fill="#315B9D"/>
<path d="M23.1143 27.9136H25.095H25.1079H25.3981C25.3959 27.8769 25.2973 26.4916 25.5615 25.8292C25.8294 25.1603 27.0822 24.0876 28.1852 23.104C29.2904 22.1205 30.0817 21.6885 30.4842 20.1808C30.8881 18.6739 32.5376 12.5459 32.5376 12.5459C32.5376 12.5459 32.9178 11.4825 32.0343 11.1621C31.3827 13.2134 30.7304 15.2661 30.0781 17.3159C29.7786 18.2584 29.4711 19.2168 28.9059 20.0282C28.4516 20.6805 27.8497 21.2126 27.2521 21.7367C26.715 22.2098 26.1771 22.6828 25.6386 23.1559C25.1425 23.5922 24.6399 24.035 24.2511 24.5714C23.552 25.5362 23.2763 26.7177 23.1143 27.9136Z" fill="#EFA7A0"/>
<path d="M27.0224 16.9908C27.0102 16.9908 26.9972 16.9886 26.9842 16.9843C26.923 16.9634 26.8899 16.8964 26.9108 16.8352C27.3176 15.6415 28.6885 11.6289 29.2522 10.1011C29.2746 10.0406 29.3422 10.0089 29.4027 10.032C29.4639 10.0543 29.4949 10.122 29.4726 10.1824C28.9095 11.7074 27.5401 15.7178 27.1333 16.9108C27.1167 16.9598 27.0714 16.99 27.0224 16.99V16.9908Z" fill="#F98480"/>
<path d="M25.0761 17.9093C25.0639 17.9093 25.0509 17.9072 25.0387 17.9029C24.9775 17.882 24.9444 17.8157 24.9652 17.7538C25.8912 15.0121 26.6234 12.8665 27.0849 11.5481C27.1065 11.4869 27.1735 11.4553 27.2347 11.4761C27.2959 11.4977 27.3283 11.5647 27.3067 11.6259C26.8459 12.9428 26.1136 15.0877 25.1877 17.8287C25.1712 17.8777 25.1258 17.9086 25.0768 17.9086L25.0761 17.9093Z" fill="#F98480"/>
<path d="M11.7438 22.006C11.7056 22.006 11.6674 21.9872 11.6451 21.9527C11.0871 21.0952 8.93289 19.5788 8.50665 19.2836C8.00553 18.9366 7.81401 18.5428 7.74201 18.2742C7.72545 18.2116 7.76217 18.1475 7.82481 18.1302C7.88745 18.1129 7.95153 18.1504 7.96881 18.213C8.03073 18.4441 8.19777 18.784 8.64057 19.0907C9.24825 19.5119 11.275 20.9526 11.8424 21.8245C11.8777 21.8785 11.8626 21.9512 11.8078 21.9872C11.7884 22.0002 11.7661 22.006 11.7438 22.006Z" fill="#F98480"/>
<path d="M24.2544 22.0064C24.2328 22.0064 24.2105 21.9999 24.1904 21.9876C24.1364 21.9524 24.1205 21.8796 24.1558 21.8249C24.7232 20.953 26.75 19.5116 27.3576 19.0911C27.7882 18.793 27.9567 18.4625 28.0222 18.2379C28.0402 18.176 28.1057 18.14 28.1676 18.158C28.2296 18.176 28.2656 18.2415 28.2476 18.3034C28.1712 18.5648 27.9776 18.9464 27.4908 19.2833C27.0646 19.5785 24.9104 21.0941 24.3524 21.9524C24.33 21.9869 24.2926 22.0056 24.2537 22.0056L24.2544 22.0064Z" fill="#F98480"/>
<path d="M17.6932 16.6814C17.7825 16.8017 17.8862 16.865 18.0014 16.8708H18.018C18.1922 16.8708 18.2988 16.7383 18.3628 16.6584C18.3758 16.6426 18.3873 16.6274 18.3988 16.6152C19.2254 15.7908 20.0505 14.965 20.8756 14.1398C22.1335 12.8813 23.4338 11.5795 24.7176 10.3058C25.8019 9.23015 26.2656 7.96223 26.0978 6.53663C25.925 5.07431 25.205 3.97127 23.9616 3.26135C22.6749 2.48159 21.286 2.40815 19.8345 3.04391C19.2016 3.32039 18.7063 3.77903 18.3045 4.19087C18.0662 4.43567 17.9553 4.43639 17.7105 4.19807C17.658 4.14695 17.6061 4.09439 17.5536 4.04255C17.4974 3.98639 17.4412 3.93023 17.3844 3.87479C15.8616 2.39447 13.4964 2.20439 11.7604 3.42191C10.6884 4.17431 10.0051 5.35151 9.88555 6.65255C9.76747 7.93415 10.2153 9.19487 11.1139 10.1107C12.6223 11.6479 14.1732 13.193 15.6736 14.687C16.3144 15.325 16.9552 15.9629 17.5946 16.603C17.6284 16.6368 17.6637 16.662 17.6918 16.6829L17.6932 16.6814ZM11.4501 9.78095C10.648 8.96375 10.2484 7.83839 10.3536 6.69431C10.4608 5.53079 11.0721 4.47815 12.0304 3.80495C12.7137 3.32543 13.5064 3.09071 14.2956 3.09071C15.2985 3.09071 16.2957 3.47015 17.0575 4.21031C17.1129 4.26359 17.1669 4.31831 17.2216 4.37303C17.2749 4.42631 17.3289 4.48031 17.3829 4.53359C17.8113 4.95119 18.2232 4.94615 18.6408 4.51775C19.0108 4.13831 19.4637 3.71783 20.0224 3.47375C21.3444 2.89559 22.5532 2.95679 23.724 3.66599C24.8356 4.30103 25.4779 5.28527 25.632 6.59207C25.7846 7.88519 25.3771 8.99111 24.3878 9.97319C23.1026 11.2483 21.8023 12.5501 20.5437 13.8086C19.7186 14.6338 18.8942 15.4596 18.0676 16.284C18.0511 16.3006 18.0345 16.3193 18.018 16.3394C18.0144 16.3366 18.0115 16.3337 18.0079 16.3308C17.9949 16.3207 17.982 16.3114 17.9683 16.3013C17.9539 16.2912 17.9395 16.2818 17.9272 16.2696C17.2879 15.6302 16.6464 14.9916 16.0056 14.3537C14.5065 12.8611 12.9564 11.3167 11.4501 9.78168V9.78095Z" fill="#564B57"/>
<path d="M19.3162 12.4348V10.7061H21.0449C21.1745 10.7061 21.2797 10.601 21.2797 10.4714V8.30851C21.2797 8.17891 21.1745 8.07379 21.0449 8.07379H19.3162V6.34507C19.3162 6.21547 19.2111 6.11035 19.0815 6.11035H16.9186C16.789 6.11035 16.6839 6.21547 16.6839 6.34507V8.07379H14.9552C14.8256 8.07379 14.7205 8.17891 14.7205 8.30851V10.4714C14.7205 10.601 14.8256 10.7061 14.9552 10.7061H16.6839V12.4348C16.6839 12.5644 16.789 12.6696 16.9186 12.6696H19.0815C19.2111 12.6696 19.3162 12.5644 19.3162 12.4348ZM18.8468 10.4714V12.2001H17.1533V10.4714C17.1533 10.3418 17.0482 10.2367 16.9186 10.2367H15.1899V8.54323H16.9186C17.0482 8.54323 17.1533 8.43811 17.1533 8.30851V6.57979H18.8468V8.30851C18.8468 8.43811 18.9519 8.54323 19.0815 8.54323H20.8102V10.2367H19.0815C18.9519 10.2367 18.8468 10.3418 18.8468 10.4714Z" fill="#564B57"/>
<path d="M16.8739 27.8174C16.7515 27.6935 16.5838 27.6791 16.4297 27.6777L16.0805 27.6791C16.0805 26.9786 16.0798 24.8395 16.0697 22.997C16.0575 20.6757 14.3187 19.7073 14.1747 19.6317C14.1113 19.5943 13.4856 19.2235 12.7087 18.7648C11.8865 16.3283 10.5113 12.2827 10.3075 11.8629C10.0008 11.23 9.53138 11.0011 8.91002 11.1803C8.56298 10.1961 8.47226 9.97578 8.43482 9.89802C8.12738 9.26442 7.6565 9.03546 7.03514 9.2169C7.00274 9.22626 6.7925 9.29178 6.61394 9.43794C6.6125 9.43506 6.61106 9.43146 6.60962 9.42858C6.30218 8.79426 5.8313 8.5653 5.20922 8.74674C4.86002 8.84898 4.61954 9.03258 4.49426 9.29178C4.33802 9.61506 4.36898 10.0348 4.58858 10.5755C4.62458 10.6634 4.66274 10.7699 4.69874 10.8765C4.44818 10.8211 4.17458 10.8405 3.89162 10.9413C3.88874 10.942 3.88658 10.9435 3.8837 10.9442C3.88298 10.9442 3.88226 10.9442 3.88154 10.9449C3.69074 11.0147 3.53378 11.1191 3.41354 11.2567C3.3761 11.2991 3.34298 11.3452 3.31346 11.3935C3.27242 11.4597 3.23858 11.5324 3.21266 11.6095C3.20474 11.6332 3.19754 11.6577 3.19034 11.6822C3.0773 12.1055 3.21194 12.5419 3.23642 12.6167C3.30554 12.8723 5.08754 19.4978 5.1437 19.7073L5.2877 20.2437C5.38922 20.6246 5.51882 20.9543 5.68226 21.2517C6.00914 21.8428 6.44042 22.2388 6.89114 22.6255C6.9689 22.6924 7.04882 22.7594 7.1309 22.8292C7.29938 22.9718 7.47362 23.1187 7.6565 23.2821L8.35922 23.9078C8.9705 24.455 9.58538 25.0252 9.94682 25.4867V25.4875C9.97778 25.5271 10.0073 25.5667 10.0347 25.6048C10.1225 25.7279 10.1837 25.8331 10.2183 25.9187C10.3824 26.3306 10.3983 27.1377 10.3767 27.6799L10.0059 27.6784C9.84746 27.6784 9.66746 27.6943 9.54074 27.8217C9.41186 27.952 9.3989 28.1378 9.40034 28.2667C9.4169 29.3769 9.4169 31.6197 9.40034 32.7933C9.39818 32.9344 9.41186 33.113 9.54074 33.2426C9.66314 33.3664 9.83234 33.3859 9.9857 33.3859H10.0037C10.9123 33.3765 11.5143 33.3772 12.2767 33.3787C12.5655 33.3787 12.8729 33.3801 13.2243 33.3801C13.5756 33.3801 13.873 33.3801 14.1552 33.3794C14.9105 33.3779 15.5074 33.3772 16.4218 33.3851C16.5708 33.3873 16.7458 33.3707 16.8689 33.2469C16.9942 33.1209 17.0064 32.9416 17.005 32.8178C16.9899 31.6643 16.9899 29.4007 17.005 28.2479C17.0071 28.1133 16.9935 27.9427 16.8696 27.8181L16.8739 27.8174ZM9.88562 12.0667C10.021 12.3453 10.8209 14.6421 12.0903 18.3983C11.7915 18.2219 11.4891 18.0434 11.1989 17.8735C10.2723 15.1267 9.53786 12.9767 9.06626 11.6239C9.45002 11.5209 9.68114 11.6462 9.88562 12.0667ZM6.83642 9.8865C6.89042 9.7785 7.08626 9.68994 7.1669 9.66618C7.5665 9.54954 7.8041 9.67122 8.0129 10.1011C8.05034 10.1781 8.17346 10.4942 8.54642 11.5591C8.85674 12.4447 9.45866 14.1878 10.5811 17.5091C10.0548 17.2003 9.6833 16.9843 9.55082 16.9108C9.44066 16.8503 9.32114 16.81 9.19586 16.7863C8.95322 16.0756 7.43474 11.6253 6.83858 10.0096C6.83858 10.0089 6.83858 10.0082 6.83786 10.0067C6.81482 9.94554 6.82418 9.9117 6.83714 9.8865H6.83642ZM4.91762 9.49482C4.98386 9.35874 5.1221 9.26082 5.3417 9.19674C5.7413 9.07938 5.9789 9.20178 6.1877 9.63234C6.2057 9.6705 6.25754 9.79074 6.39866 10.1716C6.95882 11.6887 8.3369 15.7199 8.69762 16.7769C8.41394 16.8165 8.20442 16.9144 8.1857 16.9231C8.00642 17.0174 7.73714 17.2521 7.62914 17.6085C7.62266 17.5963 7.61618 17.584 7.61042 17.5718C7.52042 17.3104 5.79674 12.1509 5.68514 11.8075C5.64914 11.6966 5.5397 11.4273 5.2949 11.1947C5.24882 11.0414 5.1293 10.6533 5.0249 10.397C4.86074 9.99234 4.82474 9.68922 4.91834 9.49482H4.91762ZM10.3205 25.1973V25.1959C9.93674 24.7055 9.30386 24.118 8.67026 23.5507L7.97258 22.9293C7.78466 22.7623 7.60826 22.6125 7.43762 22.4685C7.35626 22.4001 7.27706 22.3331 7.20074 22.2669C6.78386 21.9091 6.3857 21.5455 6.09698 21.0227C5.95154 20.7599 5.83634 20.4647 5.7449 20.1206L5.6009 19.5835C5.5433 19.3696 3.69146 12.485 3.69146 12.485C3.69002 12.4792 3.68786 12.4727 3.68642 12.4677C3.68498 12.4641 3.56402 12.1127 3.64754 11.8024C3.65186 11.7873 3.65618 11.7729 3.66122 11.7585C3.67634 11.7146 3.69506 11.6735 3.71738 11.6368C3.73322 11.6116 3.75122 11.5864 3.77066 11.5641C3.83834 11.4871 3.93122 11.4259 4.04858 11.3841C4.05146 11.3834 4.05434 11.3819 4.0565 11.3812C4.40426 11.2574 4.70018 11.2977 4.93706 11.5007C5.13722 11.6707 5.22002 11.8903 5.24018 11.9529C5.25818 12.0076 7.1561 17.7057 7.17986 17.7554C7.29434 18.0117 7.50458 18.1946 7.6277 18.286C7.69754 18.5582 7.89194 18.9988 8.44274 19.3804C8.86538 19.6735 11.0038 21.1775 11.5495 22.0171C11.5949 22.0862 11.6698 22.1236 11.7468 22.1236C11.7907 22.1236 11.8354 22.1114 11.8743 22.0855C11.983 22.0149 12.0139 21.8695 11.9434 21.7607C11.3645 20.8708 9.32186 19.4186 8.70986 18.9945C8.24978 18.6755 8.11514 18.3242 8.07482 18.1463C8.07482 18.1305 8.07482 18.1147 8.07122 18.0988C7.96466 17.6135 8.33474 17.3788 8.40098 17.3407C8.44202 17.3227 8.6933 17.2197 8.97266 17.2305C9.1037 17.2348 9.22322 17.2658 9.32618 17.3219C9.49394 17.4148 10.0923 17.764 10.8879 18.2335C11.3753 18.52 11.9095 18.8354 12.3977 19.1241C13.2495 19.6274 13.9428 20.0385 13.9428 20.0385C13.9464 20.0407 13.9507 20.0428 13.9543 20.045C14.0213 20.0795 15.5909 20.9219 15.6017 22.9991C15.6111 24.8402 15.6125 26.98 15.6125 27.6806H10.8511C10.8691 27.2104 10.8727 26.2802 10.6589 25.7438C10.6099 25.6221 10.5329 25.4867 10.422 25.3312C10.3911 25.288 10.3579 25.2434 10.3227 25.198L10.3205 25.1973ZM16.5399 32.8228C16.5399 32.866 16.5377 32.8934 16.5348 32.9092C16.5168 32.9121 16.4859 32.915 16.4297 32.915C15.5131 32.9071 14.9155 32.9078 14.1581 32.9092C13.8759 32.9092 13.5742 32.9099 13.2279 32.9099C12.8815 32.9099 12.5698 32.9099 12.2811 32.9085C11.5474 32.9071 10.9138 32.9056 10.003 32.9157C9.93242 32.9157 9.89786 32.9114 9.88058 32.9078C9.87698 32.8919 9.87266 32.8595 9.87338 32.7998C9.88922 31.6219 9.88922 29.3733 9.87338 28.2595C9.87266 28.2026 9.87698 28.1709 9.88058 28.1551C9.89786 28.1515 9.93458 28.1464 10.0073 28.1464L10.5991 28.1486C10.5991 28.1486 10.6013 28.1486 10.6027 28.1486H10.9008C10.9008 28.1486 10.903 28.1486 10.9037 28.1486C12.7066 28.1536 13.9414 28.1536 15.7327 28.1486H15.8451C15.8451 28.1486 15.8472 28.1486 15.8487 28.1486L16.4304 28.1464C16.4815 28.1464 16.5168 28.1493 16.5341 28.1522C16.537 28.168 16.5391 28.1954 16.5391 28.24C16.524 29.3963 16.524 31.6665 16.5391 32.8228H16.5399Z" fill="#564B57"/>
<path d="M25.9626 25.6038C25.9899 25.5657 26.0194 25.5261 26.0504 25.4865C26.4118 25.0249 27.0267 24.4547 27.6438 23.9025L28.3407 23.2825C28.5243 23.1191 28.6986 22.9715 28.867 22.8297C28.9491 22.7598 29.029 22.6929 29.1068 22.6259C29.5575 22.2393 29.9895 21.8433 30.3157 21.2521C30.4798 20.9555 30.6087 20.6257 30.7102 20.2449L30.8542 19.7085C30.9104 19.4989 32.6931 12.8728 32.7615 12.6179C32.7867 12.543 32.9214 12.1074 32.8076 11.6833C32.8011 11.6589 32.7939 11.6351 32.786 11.6113C32.7601 11.5343 32.7262 11.4616 32.6852 11.3953C32.6557 11.3471 32.6218 11.301 32.5851 11.2585C32.4656 11.1217 32.3079 11.0166 32.1171 10.9468C32.1171 10.9468 32.1157 10.9468 32.1157 10.9461C32.1128 10.9446 32.1099 10.9439 32.107 10.9432C31.8241 10.8417 31.5505 10.8229 31.2999 10.8777C31.3359 10.7711 31.3741 10.6645 31.4108 10.5767C31.6304 10.0367 31.6614 9.61693 31.5051 9.29365C31.3798 9.03445 31.1394 8.85157 30.7902 8.74861C30.1681 8.56717 29.6972 8.79685 29.3898 9.43045C29.3883 9.43333 29.3869 9.43693 29.3854 9.43909C29.2069 9.29221 28.9966 9.22741 28.9642 9.21805C28.3429 9.03661 27.872 9.26557 27.5638 9.89989C27.5264 9.97693 27.4364 10.1973 27.0886 11.1815C26.4687 11.0015 25.9978 11.2312 25.6911 11.8641C25.4874 12.2838 24.1122 16.3302 23.2899 18.766C22.5152 19.2239 21.8881 19.5954 21.824 19.6329C21.6807 19.7085 19.9412 20.6776 19.929 22.9981C19.9196 24.8406 19.9182 26.9805 19.9182 27.6803L19.569 27.6789C19.4199 27.6789 19.2471 27.6947 19.1247 27.8185C19.0016 27.9431 18.9879 28.1137 18.9894 28.2477C19.0045 29.4011 19.0045 31.6648 18.9894 32.8175C18.9879 32.9413 19.0002 33.1206 19.1254 33.2466C19.2486 33.3705 19.4192 33.387 19.5726 33.3849C20.487 33.3769 21.0838 33.3777 21.8391 33.3791C22.1214 33.3791 22.4238 33.3798 22.7701 33.3798C23.1164 33.3798 23.4289 33.3798 23.7176 33.3784C24.4801 33.3769 25.082 33.3762 25.9906 33.3856H26.0086C26.1613 33.3856 26.3305 33.3661 26.4529 33.2423C26.5818 33.1127 26.5954 32.9341 26.5933 32.7937C26.5774 31.6194 26.5774 29.3773 26.5933 28.2664C26.5947 28.1375 26.5825 27.9517 26.4529 27.8214C26.3262 27.694 26.1462 27.6774 25.9878 27.6781L25.6162 27.6796C25.5946 27.1403 25.6105 26.331 25.7746 25.9185C25.8085 25.8328 25.8704 25.7276 25.9582 25.6045L25.9626 25.6038ZM29.6022 10.1721C29.7426 9.79117 29.7944 9.67093 29.8124 9.63277C30.0212 9.20221 30.2581 9.07981 30.6584 9.19717C30.878 9.26125 31.0162 9.35917 31.0825 9.49525C31.1761 9.68965 31.1408 9.99277 30.9759 10.3967C30.8708 10.653 30.752 11.0418 30.7059 11.1952C30.4611 11.4277 30.3524 11.697 30.3157 11.8079C30.2041 12.1513 28.4797 17.3152 28.3904 17.5722C28.3846 17.5845 28.3782 17.5967 28.3717 17.6089C28.263 17.2518 27.9915 17.0157 27.8058 16.9185C27.7942 16.9134 27.5854 16.8162 27.3032 16.7766C27.6639 15.7197 29.042 11.6891 29.6014 10.1721H29.6022ZM27.4537 11.5595C27.8274 10.4946 27.9505 10.1793 27.9872 10.1022C28.196 9.67237 28.4336 9.54997 28.8332 9.66661C28.9146 9.69037 29.1097 9.77821 29.1637 9.88693C29.1759 9.91213 29.186 9.94597 29.163 10.0072C29.163 10.0079 29.163 10.0086 29.1622 10.0101C28.5661 11.6265 27.0469 16.0768 26.805 16.7874C26.679 16.8119 26.5594 16.8522 26.4486 16.9127C26.3168 16.9861 25.946 17.2014 25.4197 17.5103C26.5422 14.1889 27.1441 12.4458 27.4544 11.5602L27.4537 11.5595ZM26.1145 12.0671C26.3182 11.6459 26.5501 11.5206 26.9338 11.6243C26.4615 12.9765 25.7278 15.1271 24.8012 17.8732C24.5118 18.0431 24.2094 18.2217 23.9098 18.3988C25.1799 14.6425 25.9791 12.3465 26.1145 12.0671ZM25.9935 28.1469C26.0662 28.1469 26.1022 28.1512 26.1195 28.1555C26.1231 28.1713 26.1274 28.203 26.1267 28.2592C26.1102 29.373 26.1102 31.6223 26.1267 32.8002C26.1274 32.8593 26.1231 32.8917 26.1195 32.9075C26.1022 32.9111 26.0662 32.9161 25.9978 32.9154C25.3966 32.9089 24.9157 32.9075 24.4484 32.9075C24.2072 32.9075 23.9689 32.9075 23.7198 32.9082C23.4318 32.9082 23.1243 32.9097 22.773 32.9097C22.4216 32.9097 22.125 32.9097 21.8427 32.9089C21.0853 32.9075 20.4877 32.9068 19.5711 32.9147C19.515 32.9147 19.4833 32.9118 19.466 32.9089C19.4631 32.8931 19.461 32.8657 19.461 32.8225C19.4761 31.6662 19.4761 29.3961 19.461 28.2397C19.461 28.1958 19.4631 28.1685 19.466 28.1526C19.4833 28.1497 19.5099 28.1476 19.5697 28.1469L20.1514 28.149C20.1514 28.149 20.1536 28.149 20.155 28.149H20.2659C22.0587 28.1548 23.2935 28.1548 25.0964 28.149H25.0993H25.3974C25.3974 28.149 25.3995 28.149 25.4002 28.149L25.9928 28.1469H25.9935ZM25.6803 25.197C25.6803 25.197 25.6803 25.1977 25.6796 25.1985C25.6443 25.2438 25.6112 25.2877 25.5802 25.3317C25.4694 25.4872 25.3916 25.6218 25.3434 25.7442C25.1295 26.2799 25.1331 27.2087 25.1511 27.6803H20.3898C20.3898 26.9797 20.3905 24.8406 20.4006 22.9989C20.4114 20.9217 21.9817 20.0793 22.0479 20.0447C22.0522 20.0425 22.0558 20.0404 22.0602 20.0382C22.0602 20.0382 22.7535 19.6278 23.6103 19.1209C24.0934 18.8358 24.6277 18.5197 25.1151 18.2332C25.9107 17.7645 26.509 17.4153 26.6754 17.3231C26.7798 17.2662 26.8993 17.2353 27.0318 17.2309C27.3104 17.2209 27.5631 17.3245 27.602 17.3411C27.6639 17.3764 27.993 17.5852 27.9469 18.0107V18.0121C27.944 18.0402 27.939 18.069 27.9325 18.0993C27.9296 18.1122 27.9303 18.1252 27.9296 18.1381C27.8922 18.3131 27.7604 18.6709 27.2924 18.9949C26.6804 19.419 24.6385 20.8713 24.0589 21.7612C23.9883 21.8699 24.0193 22.0153 24.128 22.0859C24.1676 22.1118 24.2122 22.1241 24.2554 22.1241C24.3325 22.1241 24.4074 22.0866 24.4527 22.0175C24.9985 21.178 27.1369 19.6739 27.5595 19.3809C28.1096 19 28.3047 18.5601 28.3746 18.2879C28.497 18.1972 28.7079 18.015 28.8217 17.7601C28.8476 17.7054 30.7455 12.0073 30.7628 11.9533C30.7837 11.89 30.8665 11.6711 31.0666 11.4997C31.3028 11.2967 31.5987 11.2571 31.9465 11.3809C31.9494 11.3824 31.9515 11.3831 31.9544 11.3838C32.071 11.4263 32.1646 11.4868 32.2323 11.5638C32.2525 11.5869 32.2705 11.6113 32.2856 11.6365C32.3079 11.6733 32.3266 11.7143 32.3418 11.7582C32.3468 11.7726 32.3511 11.7877 32.3547 11.8014C32.4382 12.1125 32.3173 12.4638 32.3166 12.4667C32.3144 12.4725 32.3122 12.4789 32.3108 12.4847C32.3108 12.4847 30.459 19.3693 30.4014 19.5832L30.2574 20.1203C30.1659 20.4637 30.0507 20.7589 29.9053 21.0217C29.6166 21.5445 29.2184 21.9088 28.8015 22.2659C28.7245 22.3321 28.646 22.3984 28.5646 22.4675C28.394 22.6115 28.2176 22.7613 28.0297 22.9283L27.3363 23.5461C27.3363 23.5461 27.3277 23.554 27.3262 23.5547C26.6991 24.1163 26.0655 24.7045 25.6818 25.1949L25.6803 25.197Z" fill="#564B57"/>
</svg>
