<svg width="25" height="24" viewBox="0 0 25 24" fill="none" xmlns="http://www.w3.org/2000/svg">
<path d="M21.0682 12C21.3487 11.1055 21.5 10.2086 21.5 9.33876C21.5 6.38764 19.259 4 16.496 4C14.867 4 13.409 4.84045 12.5 6.13933C11.591 4.84045 10.142 4 8.504 4C5.741 4 3.5 6.38764 3.5 9.33876C3.5 10.4366 3.67239 11.495 3.99034 12.5M21.0682 12C19.9063 15.705 16.5276 19.3686 12.5 20.8955C8.53801 19.3935 5.20391 16.3359 3.99034 12.5M21.0682 12H18.6036C18.5372 12 18.4737 11.9737 18.4268 11.9268L17.2453 10.7453C17.1246 10.6246 16.9212 10.6576 16.8449 10.8102L15.6551 13.1898C15.5788 13.3424 15.3754 13.3754 15.2547 13.2547L14.2087 12.2087C14.0994 12.0994 13.9183 12.1144 13.8285 12.2401L11.8223 15.0487C11.6972 15.224 11.4237 15.1695 11.3753 14.9596L10.1463 9.63378C10.0948 9.41066 9.79533 9.36841 9.68412 9.56858L7.68723 13.163C7.59926 13.3213 7.37736 13.3365 7.26869 13.1916L6.17295 11.7306C6.08167 11.6089 5.90375 11.5962 5.79617 11.7038L5.07322 12.4268C5.02634 12.4737 4.96275 12.5 4.89645 12.5H4.44822H3.99034" stroke="#5D5D5D" stroke-linecap="round" stroke-linejoin="round"/>
</svg>
