<svg width="25" height="24" viewBox="0 0 25 24" fill="none" xmlns="http://www.w3.org/2000/svg">
<path d="M3 9.33876C3 6.14229 5.43504 3.5 8.504 3.5C10.0883 3.5 11.5048 4.20987 12.5002 5.33332C13.4974 4.20958 14.9199 3.5 16.496 3.5C19.565 3.5 22 6.14229 22 9.33876C22 10.051 21.9051 10.7759 21.7271 11.5H18.7071L17.5988 10.3917C17.2368 10.0297 16.6266 10.1288 16.3977 10.5866L15.363 12.6559L14.5622 11.8551C14.2345 11.5274 13.691 11.5724 13.4216 11.9495L11.7378 14.3069L10.6335 9.52135C10.479 8.85198 9.58066 8.72525 9.24704 9.32576L7.43737 12.5832L6.57295 11.4306C6.2991 11.0655 5.76535 11.0275 5.44262 11.3503L4.79289 12H3.32829C3.11432 11.1458 3 10.2564 3 9.33876Z" fill="#008D5C"/>
<path d="M3.62922 13C4.98399 16.845 8.37599 19.8668 12.3228 21.363C12.437 21.4063 12.563 21.4063 12.6772 21.363C15.2729 20.379 17.5953 18.5473 19.27 16.3901C20.2099 15.1793 20.9561 13.8524 21.4291 12.5H18.6036C18.4046 12.5 18.2139 12.421 18.0732 12.2803L17.137 11.3441L16.1023 13.4134C15.8734 13.8712 15.2632 13.9703 14.9012 13.6083L14.0638 12.7709L12.2292 15.3394C11.8537 15.8651 11.0334 15.7016 10.8881 15.0721L9.80532 10.38L8.1243 13.4058C7.86041 13.8808 7.19472 13.9263 6.86869 13.4916L5.9459 12.2612L5.42678 12.7803C5.28612 12.921 5.09536 13 4.89645 13H3.62922Z" fill="#008D5C"/>
</svg>
