<svg width="36" height="36" viewBox="0 0 36 36" fill="none" xmlns="http://www.w3.org/2000/svg">
<path d="M25.8653 6.56341C25.7054 5.20621 25.0452 4.14925 23.8406 3.46165C22.5734 2.69413 21.2645 2.67397 19.9289 3.25861C19.3594 3.50773 18.9029 3.91309 18.473 4.35373C18.1418 4.69285 17.8798 4.68997 17.5471 4.36525C17.4377 4.25869 17.3311 4.14853 17.2217 4.04197C15.7795 2.64013 13.5403 2.46013 11.8966 3.61285C9.78984 5.09101 9.4788 8.10565 11.2831 9.94525C13.4237 12.1276 15.6002 14.2739 17.7617 16.4353C17.7919 16.4656 17.8294 16.4893 17.8639 16.516C18.0367 16.7773 18.1375 16.5455 18.234 16.4497C20.3422 14.3473 22.4402 12.2363 24.5534 10.1397C25.5542 9.14605 26.0309 7.96597 25.866 6.56413L25.8653 6.56341Z" fill="#FF4B72"/>
<path d="M21.0442 8.30891H19.0814V6.34619H16.9186V8.30891H14.9558V10.4718H16.9186V12.4352H19.0814V10.4718H21.0442V8.30891Z" fill="white"/>
<path d="M10.0966 11.9635C9.9216 11.6027 9.62712 11.2139 8.97336 11.4047C8.90496 11.4249 8.84232 11.4479 8.78544 11.4746L8.76744 11.4803C8.4924 10.6963 8.2872 10.1303 8.22384 9.99858C8.04888 9.63858 7.7544 9.24978 7.10064 9.44058C7.03296 9.46002 6.45192 9.65514 6.61752 10.09C6.51168 9.80418 6.43464 9.60618 6.39792 9.52986C6.22296 9.16914 5.92848 8.78034 5.27472 8.97114C4.5972 9.16986 4.47912 9.6825 4.80528 10.4853C4.9176 10.7589 5.04936 11.1988 5.08536 11.3219C5.28192 11.489 5.40432 11.7115 5.45976 11.8807C5.58576 12.2659 7.25184 17.2634 7.3656 17.5982C7.3728 17.6191 7.38072 17.6392 7.39008 17.6594C7.524 17.9589 7.83792 18.149 7.83792 18.149C7.68384 17.4499 8.29224 17.1302 8.29224 17.1302C8.29224 17.1302 8.60976 16.9811 8.97696 16.9955C9.12744 17.0006 9.28656 17.0344 9.43632 17.1165C9.61848 17.2173 10.2564 17.591 11.0038 18.0302C11.4934 18.3182 12.029 18.635 12.5136 18.9215C11.8764 17.033 10.3061 12.3983 10.0951 11.9642L10.0966 11.9635Z" fill="#EFA7A0"/>
<path d="M16.7738 28.2436C16.7789 27.9692 16.6846 27.9102 16.4297 27.9116C16.2281 27.9131 16.033 27.9131 15.845 27.9138C14.7218 27.9174 13.8182 27.9188 12.8851 27.9174C12.2623 27.9174 11.6258 27.916 10.9044 27.9138H10.6013C10.4098 27.9124 10.2118 27.9124 10.0066 27.9116C9.738 27.9102 9.63361 27.9678 9.63721 28.2623C9.65449 29.4085 9.65376 31.6492 9.63864 32.7954C9.6336 33.0856 9.73153 33.1518 10.0051 33.1496C11.1938 33.1367 11.885 33.1424 13.0154 33.1439H13.2278C14.4907 33.1439 15.1668 33.1381 16.4282 33.1489C16.6795 33.1511 16.7789 33.0971 16.7746 32.8192C16.7602 31.6585 16.7602 29.4042 16.7746 28.2436H16.7738Z" fill="#0ABF7C"/>
<path d="M15.835 22.9968C15.8234 20.7424 14.0609 19.8352 14.0609 19.8352C14.0609 19.8352 13.3675 19.4248 12.515 18.9208C12.0305 18.6343 11.4941 18.3175 11.0045 18.0302C10.2578 17.5903 9.61992 17.2166 9.43776 17.1158C9.28728 17.0337 9.12888 16.9999 8.97768 16.9948C8.61048 16.9804 8.29368 17.1295 8.29368 17.1295C8.29368 17.1295 7.686 17.4484 7.83936 18.1483C7.83936 18.1483 7.52472 17.9582 7.3908 17.6587C7.38144 17.6385 5.58576 12.2652 5.46048 11.8792C5.40504 11.71 5.28336 11.4883 5.08608 11.3205C4.83696 11.1067 4.46904 10.9814 3.97152 11.16C3.96936 11.1614 3.96792 11.1614 3.96576 11.1621C3.80016 11.2219 3.67848 11.3083 3.59136 11.4091C3.56184 11.4422 3.53664 11.4775 3.51432 11.5135C3.4812 11.5675 3.45528 11.6244 3.43584 11.6827C3.42936 11.7021 3.4236 11.7216 3.41856 11.741C3.31416 12.1305 3.46248 12.546 3.46248 12.546C3.46248 12.546 5.31504 19.4306 5.37192 19.6444C5.42952 19.8583 5.47776 20.0397 5.51592 20.1816C5.61672 20.5588 5.74128 20.8684 5.8896 21.1363C6.18552 21.672 6.57432 22.0406 7.04592 22.4452C7.28208 22.6476 7.5384 22.8592 7.81488 23.1048C7.98624 23.2574 8.16048 23.4122 8.33472 23.567C8.33688 23.5692 8.33976 23.5713 8.34192 23.5735C8.3988 23.6239 8.45568 23.675 8.51256 23.7254C8.51472 23.7268 8.51616 23.729 8.51832 23.7304C9.15696 24.3028 9.7668 24.8695 10.1347 25.3404C10.1347 25.3404 10.1347 25.3404 10.1354 25.3411C10.1686 25.3836 10.2002 25.4253 10.229 25.4664C10.3219 25.5967 10.3954 25.7191 10.4393 25.8292C10.7035 26.4909 10.6049 27.8769 10.6027 27.9136H15.8458C15.8458 27.9136 15.8472 25.2496 15.835 22.9968Z" fill="#FFDBD0"/>
<path d="M10.9044 27.9136C11.6259 27.9157 12.2623 27.9172 12.8851 27.9172C12.9355 28.2844 12.9744 28.653 13.0119 29.0181L13.014 33.1444C11.8836 33.1429 11.1924 33.1372 10.0037 33.1501C9.73009 33.1523 9.63289 33.0853 9.63721 32.7959C9.65233 31.6497 9.65377 29.409 9.63577 28.2628C9.63217 27.9683 9.73657 27.9107 10.0051 27.9121C10.2103 27.9136 10.4091 27.9136 10.5999 27.9143H10.903L10.9044 27.9136Z" fill="#008D5C"/>
<path d="M12.8858 27.9136H10.602C10.6042 27.8769 10.7028 26.4916 10.4386 25.8292C10.1707 25.1603 8.91793 24.0876 7.81489 23.104C6.70969 22.1205 5.91841 21.6885 5.51593 20.1808C5.11201 18.6739 3.46249 12.5459 3.46249 12.5459C3.46249 12.5459 3.08233 11.4825 3.96577 11.1621C4.61737 13.2134 5.26969 15.2661 5.92201 17.3159C6.22153 18.2584 6.52897 19.2168 7.09417 20.0282C7.54849 20.6805 8.15041 21.2126 8.74801 21.7367C9.28513 22.2098 9.82297 22.6828 10.3615 23.1559C10.8576 23.5922 11.3602 24.035 11.749 24.5714C12.4481 25.5362 12.7238 26.7177 12.8858 27.9136Z" fill="#EFA7A0"/>
<path d="M8.97913 16.9949C8.93017 16.9949 8.88481 16.964 8.86825 16.9157C8.69617 16.411 7.17049 11.9376 6.53113 10.1909C6.50881 10.1297 6.54049 10.0628 6.60097 10.0404C6.66145 10.0181 6.72913 10.0491 6.75145 10.1103C7.39153 11.8599 8.91793 16.3354 9.09001 16.8401C9.11089 16.9013 9.07849 16.9683 9.01657 16.9892C9.00433 16.9935 8.99137 16.9956 8.97841 16.9956L8.97913 16.9949Z" fill="#F98480"/>
<path d="M10.9411 17.9592C10.8922 17.9592 10.8468 17.9283 10.8303 17.8793C10.3039 16.3205 9.32689 13.4347 8.69401 11.6218C8.67241 11.5606 8.70481 11.4936 8.76601 11.472C8.82649 11.4504 8.89417 11.4828 8.91577 11.544C9.54865 13.3577 10.5264 16.2442 11.0527 17.8037C11.0736 17.8649 11.0405 17.9319 10.9793 17.9527C10.9671 17.9571 10.9541 17.9592 10.9419 17.9592H10.9411Z" fill="#F98480"/>
<path d="M25.9034 11.9635C26.0784 11.6027 26.3729 11.2139 27.0266 11.4047C27.095 11.4249 27.1577 11.4479 27.2146 11.4746L27.2326 11.4803C27.5076 10.6963 27.7128 10.1303 27.7762 9.99858C27.9511 9.63858 28.2456 9.24978 28.8994 9.44058C28.967 9.46002 29.5481 9.65514 29.3825 10.09C29.4883 9.80418 29.5654 9.60618 29.6021 9.52986C29.777 9.16914 30.0715 8.78034 30.7253 8.97114C31.4028 9.16986 31.5209 9.6825 31.1947 10.4853C31.0824 10.7589 30.9506 11.1988 30.9146 11.3219C30.7181 11.489 30.5957 11.7115 30.5402 11.8807C30.4142 12.2659 28.7482 17.2634 28.6344 17.5982C28.6272 17.6191 28.6193 17.6392 28.6099 17.6594C28.476 17.9589 28.1621 18.149 28.1621 18.149C28.3162 17.4499 27.7078 17.1302 27.7078 17.1302C27.7078 17.1302 27.3902 16.9811 27.023 16.9955C26.8726 17.0006 26.7134 17.0344 26.5637 17.1165C26.3815 17.2173 25.7436 17.591 24.9962 18.0302C24.5066 18.3182 23.971 18.635 23.4864 18.9215C24.1236 17.033 25.6939 12.3983 25.9049 11.9642L25.9034 11.9635Z" fill="#EFA7A0"/>
<path d="M19.2262 28.2436C19.2211 27.9692 19.3154 27.9102 19.5703 27.9116C19.7719 27.9131 19.967 27.9131 20.155 27.9138C21.2782 27.9174 22.1818 27.9188 23.1149 27.9174C23.7377 27.9174 24.3742 27.916 25.0956 27.9138H25.3987C25.5902 27.9124 25.7882 27.9124 25.9934 27.9116C26.262 27.9102 26.3664 27.9678 26.3628 28.2623C26.3455 29.4085 26.3462 31.6492 26.3614 32.7954C26.3664 33.0856 26.2685 33.1518 25.9949 33.1496C24.8062 33.1367 24.115 33.1424 22.9846 33.1439C22.9154 33.1439 22.8449 33.1439 22.7722 33.1439C21.5093 33.1439 20.8332 33.1381 19.5718 33.1489C19.3205 33.1511 19.2211 33.0971 19.2254 32.8192C19.2398 31.6585 19.2398 29.4042 19.2254 28.2436H19.2262Z" fill="#0ABF7C"/>
<path d="M20.165 22.9968C20.1766 20.7424 21.9391 19.8352 21.9391 19.8352C21.9391 19.8352 22.6325 19.4248 23.485 18.9208C23.9695 18.6343 24.5059 18.3175 24.9955 18.0302C25.7422 17.5903 26.3801 17.2166 26.5622 17.1158C26.7127 17.0337 26.8711 16.9999 27.0223 16.9948C27.3895 16.9804 27.7063 17.1295 27.7063 17.1295C27.7063 17.1295 28.314 17.4484 28.1606 18.1483C28.1606 18.1483 28.4753 17.9582 28.6092 17.6587C28.6186 17.6385 30.4142 12.2652 30.5395 11.8792C30.595 11.71 30.7166 11.4883 30.9139 11.3205C31.163 11.1067 31.531 10.9814 32.0285 11.16C32.0306 11.1614 32.0321 11.1614 32.0342 11.1621C32.1998 11.2219 32.3215 11.3083 32.4086 11.4091C32.4382 11.4422 32.4634 11.4775 32.4857 11.5135C32.5188 11.5675 32.5447 11.6244 32.5642 11.6827C32.5706 11.7021 32.5764 11.7216 32.5814 11.741C32.6858 12.1305 32.5375 12.546 32.5375 12.546C32.5375 12.546 30.685 19.4306 30.6281 19.6444C30.5705 19.8583 30.5222 20.0397 30.4841 20.1816C30.3833 20.5588 30.2587 20.8684 30.1104 21.1363C29.8145 21.672 29.4257 22.0406 28.9541 22.4452C28.7179 22.6476 28.4616 22.8592 28.1851 23.1048C28.0138 23.2574 27.8395 23.4122 27.6653 23.567C27.6631 23.5692 27.6602 23.5713 27.6581 23.5735C27.6012 23.6239 27.5443 23.675 27.4874 23.7254C27.4853 23.7268 27.4838 23.729 27.4817 23.7304C26.843 24.3028 26.2332 24.8695 25.8653 25.3404C25.8653 25.3404 25.8653 25.3404 25.8646 25.3411C25.8314 25.3836 25.7998 25.4253 25.771 25.4664C25.6781 25.5967 25.6046 25.7191 25.5607 25.8292C25.2965 26.4909 25.3951 27.8769 25.3973 27.9136C25.3001 27.9136 20.1542 27.9136 20.1542 27.9136C20.1542 27.9136 20.1528 25.2496 20.165 22.9968Z" fill="#FFDBD0"/>
<path d="M25.0956 27.9136C24.3742 27.9157 23.7377 27.9172 23.1149 27.9172C23.0645 28.2844 23.0256 28.653 22.9882 29.0181L22.986 33.1444C24.1164 33.1429 24.8076 33.1372 25.9963 33.1501C26.2699 33.1523 26.3671 33.0853 26.3628 32.7959C26.3477 31.6497 26.3462 29.409 26.3642 28.2628C26.3678 27.9683 26.2634 27.9107 25.9949 27.9121C25.7897 27.9136 25.591 27.9136 25.4002 27.9143H25.11H25.097L25.0956 27.9136Z" fill="#008D5C"/>
<path d="M23.1142 27.9136H25.0949H25.1078H25.398C25.3958 27.8769 25.2972 26.4916 25.5614 25.8292C25.8293 25.1603 27.0821 24.0876 28.1851 23.104C29.2903 22.1205 30.0816 21.6885 30.4841 20.1808C30.888 18.6739 32.5375 12.5459 32.5375 12.5459C32.5375 12.5459 32.9177 11.4825 32.0342 11.1621C31.3826 13.2134 30.7303 15.2661 30.078 17.3159C29.7785 18.2584 29.471 19.2168 28.9058 20.0282C28.4515 20.6805 27.8496 21.2126 27.252 21.7367C26.7149 22.2098 26.177 22.6828 25.6385 23.1559C25.1424 23.5922 24.6398 24.035 24.251 24.5714C23.5519 25.5362 23.2762 26.7177 23.1142 27.9136Z" fill="#EFA7A0"/>
<path d="M27.0223 16.9903C27.0101 16.9903 26.9971 16.9881 26.9842 16.9838C26.923 16.9629 26.8899 16.8959 26.9107 16.8347C27.3175 15.641 28.6884 11.6284 29.2522 10.1006C29.2745 10.0401 29.3422 10.0084 29.4027 10.0315C29.4639 10.0538 29.4948 10.1215 29.4725 10.1819C28.9095 11.7069 27.54 15.7173 27.1332 16.9103C27.1167 16.9593 27.0713 16.9895 27.0223 16.9895V16.9903Z" fill="#F98480"/>
<path d="M25.0762 17.9089C25.0639 17.9089 25.051 17.9067 25.0387 17.9024C24.9775 17.8815 24.9444 17.8153 24.9653 17.7533C25.8912 15.0116 26.6234 12.866 27.085 11.5477C27.1066 11.4865 27.1735 11.4548 27.2347 11.4757C27.2959 11.4973 27.3283 11.5642 27.3067 11.6254C26.8459 12.9423 26.1137 15.0872 25.1878 17.8282C25.1712 17.8772 25.1258 17.9081 25.0769 17.9081L25.0762 17.9089Z" fill="#F98480"/>
<path d="M11.7439 22.006C11.7058 22.006 11.6676 21.9872 11.6453 21.9527C11.0873 21.0952 8.93304 19.5788 8.5068 19.2836C8.00568 18.9366 7.81416 18.5428 7.74216 18.2742C7.7256 18.2116 7.76232 18.1475 7.82496 18.1302C7.8876 18.1129 7.95168 18.1504 7.96896 18.213C8.03088 18.4441 8.19792 18.784 8.64072 19.0907C9.2484 19.5119 11.2752 20.9526 11.8426 21.8245C11.8778 21.8785 11.8627 21.9512 11.808 21.9872C11.7886 22.0002 11.7662 22.006 11.7439 22.006Z" fill="#F98480"/>
<path d="M24.2546 22.0059C24.233 22.0059 24.2107 21.9994 24.1906 21.9872C24.1366 21.9519 24.1207 21.8792 24.156 21.8244C24.7234 20.9525 26.7502 19.5111 27.3578 19.0906C27.7884 18.7925 27.9569 18.462 28.0224 18.2374C28.0404 18.1755 28.1059 18.1395 28.1678 18.1575C28.2298 18.1755 28.2658 18.241 28.2478 18.3029C28.1714 18.5643 27.9778 18.9459 27.491 19.2828C27.0648 19.578 24.9106 21.0936 24.3526 21.9519C24.3302 21.9864 24.2928 22.0052 24.2539 22.0052L24.2546 22.0059Z" fill="#F98480"/>
<path d="M17.6933 16.6809C17.7826 16.8012 17.8862 16.8645 18.0014 16.8703H18.018C18.1922 16.8703 18.2988 16.7378 18.3629 16.6579C18.3758 16.6421 18.3874 16.6269 18.3989 16.6147C19.2254 15.7903 20.0506 14.9645 20.8757 14.1393C22.1335 12.8808 23.4338 11.579 24.7176 10.3053C25.8019 9.22967 26.2656 7.96175 26.0978 6.53615C25.925 5.07383 25.205 3.97079 23.9616 3.26087C22.675 2.48111 21.2861 2.40767 19.8346 3.04343C19.2017 3.31991 18.7063 3.77855 18.3046 4.19039C18.0662 4.43519 17.9554 4.43591 17.7106 4.19759C17.658 4.14647 17.6062 4.09391 17.5536 4.04207C17.4974 3.98591 17.4413 3.92975 17.3844 3.87431C15.8616 2.39399 13.4964 2.20391 11.7605 3.42143C10.6884 4.17383 10.0051 5.35103 9.8856 6.65207C9.76752 7.93367 10.2154 9.19439 11.1139 10.1102C12.6223 11.6474 14.1732 13.1925 15.6737 14.6865C16.3145 15.3245 16.9553 15.9624 17.5946 16.6025C17.6285 16.6363 17.6638 16.6615 17.6918 16.6824L17.6933 16.6809ZM11.4502 9.78047C10.6481 8.96327 10.2485 7.83791 10.3536 6.69383C10.4609 5.53031 11.0722 4.47767 12.0305 3.80447C12.7138 3.32495 13.5065 3.09023 14.2956 3.09023C15.2986 3.09023 16.2958 3.46967 17.0575 4.20983C17.113 4.26311 17.167 4.31783 17.2217 4.37255C17.275 4.42583 17.329 4.47983 17.383 4.53311C17.8114 4.95071 18.2232 4.94567 18.6408 4.51727C19.0109 4.13783 19.4638 3.71735 20.0225 3.47327C21.3444 2.89511 22.5533 2.95631 23.724 3.66551C24.8357 4.30055 25.4779 5.28479 25.632 6.59159C25.7846 7.88471 25.3771 8.99063 24.3878 9.97271C23.1026 11.2478 21.8023 12.5496 20.5438 13.8081C19.7186 14.6333 18.8942 15.4591 18.0677 16.2835C18.0511 16.3001 18.0346 16.3188 18.018 16.3389C18.0144 16.3361 18.0115 16.3332 18.0079 16.3303C17.995 16.3202 17.982 16.3109 17.9683 16.3008C17.9539 16.2907 17.9395 16.2813 17.9273 16.2691C17.2879 15.6297 16.6464 14.9911 16.0056 14.3532C14.5066 12.8606 12.9564 11.3162 11.4502 9.78119V9.78047Z" fill="#564B57"/>
<path d="M19.3162 12.4343V10.7056H21.0449C21.1745 10.7056 21.2796 10.6005 21.2796 10.4709V8.30802C21.2796 8.17842 21.1745 8.0733 21.0449 8.0733H19.3162V6.34458C19.3162 6.21498 19.211 6.10986 19.0814 6.10986H16.9186C16.789 6.10986 16.6838 6.21498 16.6838 6.34458V8.0733H14.9551C14.8255 8.0733 14.7204 8.17842 14.7204 8.30802V10.4709C14.7204 10.6005 14.8255 10.7056 14.9551 10.7056H16.6838V12.4343C16.6838 12.5639 16.789 12.6691 16.9186 12.6691H19.0814C19.211 12.6691 19.3162 12.5639 19.3162 12.4343ZM18.8467 10.4709V12.1996H17.1533V10.4709C17.1533 10.3413 17.0482 10.2362 16.9186 10.2362H15.1898V8.54274H16.9186C17.0482 8.54274 17.1533 8.43762 17.1533 8.30802V6.5793H18.8467V8.30802C18.8467 8.43762 18.9518 8.54274 19.0814 8.54274H20.8102V10.2362H19.0814C18.9518 10.2362 18.8467 10.3413 18.8467 10.4709Z" fill="#564B57"/>
<path d="M16.8739 27.8164C16.7515 27.6926 16.5838 27.6782 16.4297 27.6767L16.0805 27.6782C16.0805 26.9776 16.0798 24.8385 16.0697 22.996C16.0574 20.6747 14.3186 19.7063 14.1746 19.6307C14.1113 19.5933 13.4856 19.2225 12.7087 18.7638C11.8865 16.3274 10.5113 12.2817 10.3075 11.8619C10.0008 11.229 9.53136 11.0001 8.91 11.1794C8.56296 10.1951 8.47224 9.9748 8.4348 9.89704C8.12736 9.26344 7.65648 9.03448 7.03512 9.21592C7.00272 9.22528 6.79248 9.2908 6.61392 9.43696C6.61248 9.43408 6.61104 9.43048 6.6096 9.4276C6.30216 8.79328 5.83128 8.56432 5.2092 8.74576C4.86 8.848 4.61952 9.0316 4.49424 9.2908C4.338 9.61408 4.36896 10.0338 4.58856 10.5746C4.62456 10.6624 4.66272 10.769 4.69872 10.8755C4.44816 10.8201 4.17456 10.8395 3.8916 10.9403C3.88872 10.941 3.88656 10.9425 3.88368 10.9432C3.88296 10.9432 3.88224 10.9432 3.88152 10.9439C3.69072 11.0138 3.53376 11.1182 3.41352 11.2557C3.37608 11.2982 3.34296 11.3442 3.31344 11.3925C3.2724 11.4587 3.23856 11.5314 3.21264 11.6085C3.20472 11.6322 3.19752 11.6567 3.19032 11.6812C3.07728 12.1046 3.21192 12.5409 3.2364 12.6158C3.30552 12.8714 5.08752 19.4968 5.14368 19.7063L5.28768 20.2427C5.3892 20.6236 5.5188 20.9534 5.68224 21.2507C6.00912 21.8418 6.4404 22.2378 6.89112 22.6245C6.96888 22.6914 7.0488 22.7584 7.13088 22.8282C7.29936 22.9708 7.4736 23.1177 7.65648 23.2811L8.3592 23.9068C8.97048 24.454 9.58536 25.0242 9.9468 25.4858V25.4865C9.97776 25.5261 10.0073 25.5657 10.0346 25.6038C10.1225 25.727 10.1837 25.8321 10.2182 25.9178C10.3824 26.3296 10.3982 27.1367 10.3766 27.6789L10.0058 27.6774C9.84744 27.6774 9.66744 27.6933 9.54072 27.8207C9.41184 27.951 9.39888 28.1368 9.40032 28.2657C9.41688 29.3759 9.41688 31.6187 9.40032 32.7923C9.39816 32.9334 9.41184 33.112 9.54072 33.2416C9.66312 33.3654 9.83232 33.3849 9.98568 33.3849H10.0037C10.9123 33.3755 11.5142 33.3762 12.2767 33.3777C12.5654 33.3777 12.8729 33.3791 13.2242 33.3791C13.5756 33.3791 13.873 33.3791 14.1552 33.3784C14.9105 33.377 15.5074 33.3762 16.4218 33.3842C16.5708 33.3863 16.7458 33.3698 16.8689 33.2459C16.9942 33.1199 17.0064 32.9406 17.005 32.8168C16.9898 31.6634 16.9898 29.3997 17.005 28.247C17.0071 28.1123 16.9934 27.9417 16.8696 27.8171L16.8739 27.8164ZM9.8856 12.0657C10.021 12.3443 10.8209 14.6411 12.0902 18.3974C11.7914 18.221 11.489 18.0424 11.1989 17.8725C10.2722 15.1257 9.53784 12.9758 9.06624 11.6229C9.45 11.5199 9.68112 11.6452 9.8856 12.0657ZM6.8364 9.88552C6.8904 9.77752 7.08624 9.68896 7.16688 9.6652C7.56648 9.54856 7.80408 9.67024 8.01288 10.1001C8.05032 10.1771 8.17344 10.4932 8.5464 11.5581C8.85672 12.4437 9.45864 14.1868 10.5811 17.5082C10.0548 17.1993 9.68328 16.9833 9.5508 16.9098C9.44064 16.8494 9.32112 16.809 9.19584 16.7853C8.9532 16.0746 7.43472 11.6243 6.83856 10.0086C6.83856 10.0079 6.83856 10.0072 6.83784 10.0058C6.8148 9.94456 6.82416 9.91072 6.83712 9.88552H6.8364ZM4.9176 9.49384C4.98384 9.35776 5.12208 9.25984 5.34168 9.19576C5.74128 9.0784 5.97888 9.2008 6.18768 9.63136C6.20568 9.66952 6.25752 9.78976 6.39864 10.1706C6.9588 11.6877 8.33688 15.719 8.6976 16.7759C8.41392 16.8155 8.2044 16.9134 8.18568 16.9221C8.0064 17.0164 7.73712 17.2511 7.62912 17.6075C7.62264 17.5953 7.61616 17.583 7.6104 17.5708C7.5204 17.3094 5.79672 12.1499 5.68512 11.8065C5.64912 11.6956 5.53968 11.4263 5.29488 11.1938C5.2488 11.0404 5.12928 10.6523 5.02488 10.396C4.86072 9.99136 4.82472 9.68824 4.91832 9.49384H4.9176ZM10.3205 25.1963V25.1949C9.93672 24.7046 9.30384 24.117 8.67024 23.5497L7.97256 22.9283C7.78464 22.7613 7.60824 22.6115 7.4376 22.4675C7.35624 22.3991 7.27704 22.3322 7.20072 22.2659C6.78384 21.9081 6.38568 21.5445 6.09696 21.0218C5.95152 20.759 5.83632 20.4638 5.74488 20.1196L5.60088 19.5825C5.54328 19.3686 3.69144 12.484 3.69144 12.484C3.69 12.4782 3.68784 12.4718 3.6864 12.4667C3.68496 12.4631 3.564 12.1118 3.64752 11.8014C3.65184 11.7863 3.65616 11.7719 3.6612 11.7575C3.67632 11.7136 3.69504 11.6726 3.71736 11.6358C3.7332 11.6106 3.7512 11.5854 3.77064 11.5631C3.83832 11.4861 3.9312 11.4249 4.04856 11.3831C4.05144 11.3824 4.05432 11.381 4.05648 11.3802C4.40424 11.2564 4.70016 11.2967 4.93704 11.4998C5.1372 11.6697 5.22 11.8893 5.24016 11.9519C5.25816 12.0066 7.15608 17.7047 7.17984 17.7544C7.29432 18.0107 7.50456 18.1936 7.62768 18.285C7.69752 18.5572 7.89192 18.9978 8.44272 19.3794C8.86536 19.6725 11.0038 21.1766 11.5495 22.0161C11.5949 22.0852 11.6698 22.1226 11.7468 22.1226C11.7907 22.1226 11.8354 22.1104 11.8742 22.0845C11.983 22.0139 12.0139 21.8685 11.9434 21.7598C11.3645 20.8698 9.32184 19.4176 8.70984 18.9935C8.24976 18.6746 8.11512 18.3232 8.0748 18.1454C8.0748 18.1295 8.0748 18.1137 8.0712 18.0978C7.96464 17.6126 8.33472 17.3778 8.40096 17.3397C8.442 17.3217 8.69328 17.2187 8.97264 17.2295C9.10368 17.2338 9.2232 17.2648 9.32616 17.321C9.49392 17.4138 10.0922 17.763 10.8878 18.2325C11.3753 18.519 11.9095 18.8344 12.3977 19.1231C13.2494 19.6264 13.9428 20.0375 13.9428 20.0375C13.9464 20.0397 13.9507 20.0418 13.9543 20.044C14.0213 20.0786 15.5909 20.921 15.6017 22.9982C15.611 24.8392 15.6125 26.979 15.6125 27.6796H10.8511C10.8691 27.2094 10.8727 26.2792 10.6589 25.7428C10.6099 25.6211 10.5329 25.4858 10.422 25.3302C10.391 25.287 10.3579 25.2424 10.3226 25.197L10.3205 25.1963ZM16.5398 32.8218C16.5398 32.865 16.5377 32.8924 16.5348 32.9082C16.5168 32.9111 16.4858 32.914 16.4297 32.914C15.5131 32.9061 14.9155 32.9068 14.1581 32.9082C13.8758 32.9082 13.5742 32.909 13.2278 32.909C12.8815 32.909 12.5698 32.909 12.281 32.9075C11.5474 32.9061 10.9138 32.9046 10.003 32.9147C9.9324 32.9147 9.89784 32.9104 9.88056 32.9068C9.87696 32.891 9.87264 32.8586 9.87336 32.7988C9.8892 31.6209 9.8892 29.3723 9.87336 28.2585C9.87264 28.2016 9.87696 28.1699 9.88056 28.1541C9.89784 28.1505 9.93456 28.1454 10.0073 28.1454L10.5991 28.1476C10.5991 28.1476 10.6013 28.1476 10.6027 28.1476H10.9008C10.9008 28.1476 10.903 28.1476 10.9037 28.1476C12.7066 28.1526 13.9414 28.1526 15.7327 28.1476H15.845C15.845 28.1476 15.8472 28.1476 15.8486 28.1476L16.4304 28.1454C16.4815 28.1454 16.5168 28.1483 16.5341 28.1512C16.537 28.167 16.5391 28.1944 16.5391 28.239C16.524 29.3954 16.524 31.6655 16.5391 32.8218H16.5398Z" fill="#564B57"/>
<path d="M25.9625 25.6033C25.9898 25.5652 26.0194 25.5256 26.0503 25.486C26.4118 25.0244 27.0266 24.4542 27.6437 23.902L28.3406 23.282C28.5242 23.1186 28.6985 22.971 28.867 22.8292C28.949 22.7593 29.029 22.6924 29.1067 22.6254C29.5574 22.2388 29.9894 21.8428 30.3156 21.2516C30.4798 20.955 30.6086 20.6252 30.7102 20.2444L30.8542 19.708C30.9103 19.4984 32.693 12.8723 32.7614 12.6174C32.7866 12.5425 32.9213 12.1069 32.8075 11.6828C32.801 11.6584 32.7938 11.6346 32.7859 11.6108C32.76 11.5338 32.7262 11.4611 32.6851 11.3948C32.6556 11.3466 32.6218 11.3005 32.585 11.258C32.4655 11.1212 32.3078 11.0161 32.117 10.9463C32.117 10.9463 32.1156 10.9463 32.1156 10.9456C32.1127 10.9441 32.1098 10.9434 32.107 10.9427C31.824 10.8412 31.5504 10.8224 31.2998 10.8772C31.3358 10.7706 31.374 10.664 31.4107 10.5762C31.6303 10.0362 31.6613 9.61644 31.505 9.29316C31.3798 9.03396 31.1393 8.85108 30.7901 8.74812C30.168 8.56668 29.6971 8.79636 29.3897 9.42996C29.3882 9.43284 29.3868 9.43644 29.3854 9.4386C29.2068 9.29172 28.9966 9.22692 28.9642 9.21756C28.3428 9.03612 27.8719 9.26508 27.5638 9.8994C27.5263 9.97644 27.4363 10.1968 27.0886 11.181C26.4686 11.001 25.9978 11.2307 25.691 11.8636C25.4873 12.2833 24.1121 16.3297 23.2898 18.7655C22.5151 19.2234 21.888 19.5949 21.8239 19.6324C21.6806 19.708 19.9411 20.6771 19.9289 22.9976C19.9195 24.8401 19.9181 26.98 19.9181 27.6798L19.5689 27.6784C19.4198 27.6784 19.247 27.6942 19.1246 27.818C19.0015 27.9426 18.9878 28.1132 18.9893 28.2472C19.0044 29.4006 19.0044 31.6643 18.9893 32.817C18.9878 32.9408 19.0001 33.1201 19.1254 33.2461C19.2485 33.37 19.4191 33.3865 19.5725 33.3844C20.4869 33.3764 21.0838 33.3772 21.839 33.3786C22.1213 33.3786 22.4237 33.3793 22.77 33.3793C23.1163 33.3793 23.4288 33.3793 23.7175 33.3779C24.48 33.3764 25.0819 33.3757 25.9906 33.3851H26.0086C26.1612 33.3851 26.3304 33.3656 26.4528 33.2418C26.5817 33.1122 26.5954 32.9336 26.5932 32.7932C26.5774 31.6189 26.5774 29.3768 26.5932 28.2659C26.5946 28.137 26.5824 27.9512 26.4528 27.8209C26.3261 27.6935 26.1461 27.6769 25.9877 27.6776L25.6162 27.6791C25.5946 27.1398 25.6104 26.3305 25.7746 25.918C25.8084 25.8323 25.8703 25.7272 25.9582 25.604L25.9625 25.6033ZM29.6021 10.1716C29.7425 9.79068 29.7943 9.67044 29.8123 9.63228C30.0211 9.20172 30.258 9.07932 30.6583 9.19668C30.8779 9.26076 31.0162 9.35868 31.0824 9.49476C31.176 9.68916 31.1407 9.99228 30.9758 10.3962C30.8707 10.6525 30.7519 11.0413 30.7058 11.1947C30.461 11.4272 30.3523 11.6965 30.3156 11.8074C30.204 12.1508 28.4796 17.3147 28.3903 17.5717C28.3846 17.584 28.3781 17.5962 28.3716 17.6084C28.2629 17.2513 27.9914 17.0152 27.8057 16.918C27.7942 16.9129 27.5854 16.8157 27.3031 16.7761C27.6638 15.7192 29.0419 11.6886 29.6014 10.1716H29.6021ZM27.4536 11.559C27.8273 10.4941 27.9504 10.1788 27.9871 10.1017C28.1959 9.67188 28.4335 9.54948 28.8331 9.66612C28.9145 9.68988 29.1096 9.77772 29.1636 9.88644C29.1758 9.91164 29.1859 9.94548 29.1629 10.0067C29.1629 10.0074 29.1629 10.0081 29.1622 10.0096C28.566 11.626 27.0468 16.0763 26.8049 16.7869C26.6789 16.8114 26.5594 16.8517 26.4485 16.9122C26.3167 16.9856 25.9459 17.2009 25.4196 17.5098C26.5421 14.1884 27.144 12.4453 27.4543 11.5597L27.4536 11.559ZM26.1144 12.0666C26.3182 11.6454 26.55 11.5201 26.9338 11.6238C26.4614 12.976 25.7278 15.1266 24.8011 17.8727C24.5117 18.0426 24.2093 18.2212 23.9098 18.3983C25.1798 14.642 25.979 12.346 26.1144 12.0666ZM25.9934 28.1464C26.0662 28.1464 26.1022 28.1507 26.1194 28.155C26.123 28.1708 26.1274 28.2025 26.1266 28.2587C26.1101 29.3725 26.1101 31.6218 26.1266 32.7997C26.1274 32.8588 26.123 32.8912 26.1194 32.907C26.1022 32.9106 26.0662 32.9156 25.9978 32.9149C25.3966 32.9084 24.9156 32.907 24.4483 32.907C24.2071 32.907 23.9688 32.907 23.7197 32.9077C23.4317 32.9077 23.1242 32.9092 22.7729 32.9092C22.4215 32.9092 22.1249 32.9092 21.8426 32.9084C21.0852 32.907 20.4876 32.9063 19.571 32.9142C19.5149 32.9142 19.4832 32.9113 19.4659 32.9084C19.463 32.8926 19.4609 32.8652 19.4609 32.822C19.476 31.6657 19.476 29.3956 19.4609 28.2392C19.4609 28.1953 19.463 28.168 19.4659 28.1521C19.4832 28.1492 19.5098 28.1471 19.5696 28.1464L20.1514 28.1485C20.1514 28.1485 20.1535 28.1485 20.155 28.1485H20.2658C22.0586 28.1543 23.2934 28.1543 25.0963 28.1485H25.0992H25.3973C25.3973 28.1485 25.3994 28.1485 25.4002 28.1485L25.9927 28.1464H25.9934ZM25.6802 25.1965C25.6802 25.1965 25.6802 25.1972 25.6795 25.198C25.6442 25.2433 25.6111 25.2872 25.5802 25.3312C25.4693 25.4867 25.3915 25.6213 25.3433 25.7437C25.1294 26.2794 25.133 27.2082 25.151 27.6798H20.3897C20.3897 26.9792 20.3904 24.8401 20.4005 22.9984C20.4113 20.9212 21.9816 20.0788 22.0478 20.0442C22.0522 20.042 22.0558 20.0399 22.0601 20.0377C22.0601 20.0377 22.7534 19.6273 23.6102 19.1204C24.0934 18.8353 24.6276 18.5192 25.115 18.2327C25.9106 17.764 26.509 17.4148 26.6753 17.3226C26.7797 17.2657 26.8992 17.2348 27.0317 17.2304C27.3103 17.2204 27.563 17.324 27.6019 17.3406C27.6638 17.3759 27.9929 17.5847 27.9468 18.0102V18.0116C27.9439 18.0397 27.9389 18.0685 27.9324 18.0988C27.9295 18.1117 27.9302 18.1247 27.9295 18.1376C27.8921 18.3126 27.7603 18.6704 27.2923 18.9944C26.6803 19.4185 24.6384 20.8708 24.0588 21.7607C23.9882 21.8694 24.0192 22.0148 24.1279 22.0854C24.1675 22.1113 24.2122 22.1236 24.2554 22.1236C24.3324 22.1236 24.4073 22.0861 24.4526 22.017C24.9984 21.1775 27.1368 19.6734 27.5594 19.3804C28.1095 18.9995 28.3046 18.5596 28.3745 18.2874C28.4969 18.1967 28.7078 18.0145 28.8216 17.7596C28.8475 17.7049 30.7454 12.0068 30.7627 11.9528C30.7836 11.8895 30.8664 11.6706 31.0666 11.4992C31.3027 11.2962 31.5986 11.2566 31.9464 11.3804C31.9493 11.3819 31.9514 11.3826 31.9543 11.3833C32.071 11.4258 32.1646 11.4863 32.2322 11.5633C32.2524 11.5864 32.2704 11.6108 32.2855 11.636C32.3078 11.6728 32.3266 11.7138 32.3417 11.7577C32.3467 11.7721 32.351 11.7872 32.3546 11.8009C32.4382 12.112 32.3172 12.4633 32.3165 12.4662C32.3143 12.472 32.3122 12.4784 32.3107 12.4842C32.3107 12.4842 30.4589 19.3688 30.4013 19.5827L30.2573 20.1198C30.1658 20.4632 30.0506 20.7584 29.9052 21.0212C29.6165 21.544 29.2183 21.9083 28.8014 22.2654C28.7244 22.3316 28.6459 22.3979 28.5646 22.467C28.3939 22.611 28.2175 22.7608 28.0296 22.9278L27.3362 23.5456C27.3362 23.5456 27.3276 23.5535 27.3262 23.5542C26.699 24.1158 26.0654 24.704 25.6817 25.1944L25.6802 25.1965Z" fill="#564B57"/>
</svg>
