<svg width="51" height="50" viewBox="0 0 51 50" fill="none" xmlns="http://www.w3.org/2000/svg">
<path d="M44.0761 15.412V15.133C44.0761 15.133 44.0831 9.71498 44.0871 9.68798V9.84298C44.1261 9.19998 44.6651 8.68598 45.3151 8.68898H45.5111C46.1901 8.68898 46.7431 9.24398 46.7431 9.92098C46.7431 9.92098 46.7371 15.841 46.7371 19.875C46.7371 24.461 44.4451 26.329 44.4451 26.329V47.279H41.4221V15.412H44.0751H44.0761Z" fill="#EFA7A0"/>
<path d="M41.4301 6.24899C41.4301 5.51999 42.0301 4.92099 42.7611 4.92099C43.1271 4.92099 43.4601 5.07199 43.7001 5.31199C43.9391 5.55499 44.0911 5.88799 44.0911 6.25199L44.0871 9.68899C44.0831 9.71499 44.0761 15.134 44.0761 15.134V15.413H41.4231V15.187L41.4301 6.24999V6.24899Z" fill="#EFA7A0"/>
<path d="M41.43 6.09199V6.24899L41.423 15.186V15.412H38.761V15.184L38.768 8.12799L38.77 6.23399V5.37399C38.772 4.64299 39.37 4.04499 40.103 4.04599C40.832 4.04599 41.431 4.64199 41.431 5.37199V6.09199H41.43Z" fill="#FFDBD0"/>
<path d="M38.7601 15.412H41.4221V47.282H36.2631L36.2691 37.875L36.2751 26.44L36.1831 26.352C35.2971 25.671 33.4331 22.82 33.4331 19.249C33.4331 17.69 33.4401 13.219 33.4401 13.219C33.4401 12.54 33.9971 11.987 34.6741 11.989H34.8681C35.5471 11.989 36.1001 12.546 36.1001 13.223H36.1021L36.1081 6.243C36.1081 5.512 36.7061 4.914 37.4371 4.914C37.8031 4.916 38.1361 5.065 38.3761 5.305C38.6171 5.546 38.7671 5.873 38.7691 6.234L38.7671 8.128L38.7601 15.184V15.412Z" fill="#FFDBD0"/>
<path d="M45.3661 15.575H37.3861C37.2961 15.575 37.2231 15.502 37.2231 15.412C37.2231 15.322 37.2961 15.249 37.3861 15.249H45.3661C45.4561 15.249 45.5291 15.322 45.5291 15.412C45.5291 15.502 45.4561 15.575 45.3661 15.575Z" fill="#F98480"/>
<path d="M15.4369 42.583H14.4509V37.475H12.2029V42.584H9.13988V37.475H7.24688C5.60188 37.475 4.25488 36.129 4.25488 34.483V9.16201C4.25488 7.51701 5.60088 6.17001 7.24688 6.17001H11.3869V3.91401C11.3869 3.25601 11.9249 2.71701 12.5839 2.71701H18.4659C19.1239 2.71701 19.6629 3.25501 19.6629 3.91401V6.17001H20.8279V2.88201H22.0489V6.17001H23.8039C25.4489 6.17001 26.7959 7.51601 26.7959 9.16201V34.483C26.7959 36.128 25.4499 37.475 23.8039 37.475H21.9099V42.578H18.8079V37.456C18.8079 37.456 17.8749 37.467 16.4349 37.467V42.584H15.4389L15.4369 42.583ZM15.4369 34.413H19.7199V40.706C19.7199 41.042 19.9949 41.316 20.3309 41.316C20.6669 41.316 20.9409 41.042 20.9409 40.706V34.413H22.3279C23.1839 34.413 23.8829 33.713 23.8829 32.857V10.748C23.8829 9.89201 23.1839 9.19301 22.3279 9.19301H8.64488C7.78888 9.19301 7.08988 9.89201 7.08988 10.748V32.857C7.08988 33.713 7.78888 34.413 8.64488 34.413H10.0319V40.703C10.0319 41.039 10.3069 41.314 10.6419 41.314C10.9769 41.314 11.2529 41.039 11.2529 40.703V34.413H15.4369ZM18.1919 4.91901C18.1919 4.40001 17.7669 3.97601 17.2489 3.97601H13.7249C13.2049 3.97601 12.7809 4.40101 12.7809 4.91901C12.7809 5.43701 13.2059 5.86301 13.7249 5.86301H17.2489C17.7679 5.86301 18.1919 5.43801 18.1919 4.91901Z" fill="#FFFAFA"/>
<path d="M23.8828 15.084V32.858C23.8828 33.714 23.1838 34.414 22.3278 34.414H20.9408V40.707C20.9408 41.043 20.6668 41.317 20.3308 41.317C19.9948 41.317 19.7198 41.043 19.7198 40.707V34.414H11.2528V40.704C11.2528 41.04 10.9778 41.315 10.6418 41.315C10.3058 41.315 10.0318 41.04 10.0318 40.704V34.414H8.64484C7.78884 34.414 7.08984 33.714 7.08984 32.858V26.954H7.10484C7.11984 27.453 9.32584 30.449 15.0028 29.946C16.7178 29.794 18.0638 29.119 19.0688 28.071H21.0498C21.3238 28.071 21.5488 27.847 21.5488 27.572V18.527C21.5488 18.301 21.3948 18.107 21.1868 18.048C21.1208 17.605 21.0418 17.161 20.9488 16.715C20.8678 16.331 20.7728 15.966 20.6628 15.62C21.7448 15.69 22.8428 15.557 23.8108 15.084H23.8838H23.8828Z" fill="#E84F69"/>
<path d="M23.8829 10.748V15.084H23.8099C22.8419 15.558 21.7439 15.69 20.6619 15.62C18.9169 10.105 13.7489 9.19302 13.9539 9.19302H22.3279C23.1839 9.19302 23.8829 9.89202 23.8829 10.748Z" fill="#DAD5D5"/>
<path d="M21.5488 18.527V27.572C21.5488 27.846 21.3248 28.071 21.0498 28.071H19.0688C21.1628 25.89 21.7798 22.095 21.1868 18.048C21.3948 18.107 21.5488 18.3 21.5488 18.527Z" fill="white"/>
<path d="M21.1868 18.049C21.7798 22.096 21.1628 25.891 19.0688 28.072H9.92283C9.64883 28.072 9.42383 27.848 9.42383 27.573V18.528C9.42383 18.254 9.64783 18.029 9.92283 18.029H21.0498C21.0968 18.029 21.1438 18.036 21.1868 18.049Z" fill="white"/>
<path d="M21.1868 18.049C21.1438 18.036 21.0968 18.029 21.0498 18.029H9.92284C9.64884 18.029 9.42384 18.253 9.42384 18.528V27.573C9.42384 27.847 9.64784 28.072 9.92284 28.072H19.0688C18.0638 29.12 16.7178 29.795 15.0028 29.947C9.32584 30.45 7.11984 27.453 7.10484 26.955H7.08984V15.189H7.10484C7.36684 14.965 7.64884 14.769 7.94684 14.6V16.559C9.21284 16.452 9.33684 15.233 9.60484 13.949C10.1868 13.805 10.7898 13.733 11.3868 13.723C12.9258 13.696 14.4448 14.052 15.9208 14.49C17.2178 14.875 18.5028 15.326 19.8398 15.531C20.1108 15.573 20.3858 15.604 20.6628 15.622C20.7728 15.968 20.8678 16.333 20.9488 16.717C21.0428 17.163 21.1218 17.607 21.1868 18.05V18.049Z" fill="#F980A0"/>
<path d="M20.6619 15.62C20.3859 15.602 20.1109 15.571 19.8389 15.529C18.5019 15.324 17.2169 14.873 15.9199 14.488C14.4439 14.05 12.9249 13.694 11.3859 13.721C10.7889 13.731 10.1859 13.804 9.60387 13.947C9.71287 13.421 9.84587 12.886 10.0929 12.41C10.9399 10.775 13.3739 11.159 14.7609 10.716C15.9189 9.96402 13.3839 9.96402 13.3839 9.96402H9.42387C8.13787 9.96402 7.94587 10.5 7.94587 11.482V14.597C7.64887 14.767 7.36687 14.962 7.10387 15.186H7.08887V10.747C7.08887 9.89102 7.78787 9.19202 8.64387 9.19202H13.9539C13.7489 9.19202 18.9169 10.103 20.6619 15.619V15.62Z" fill="#F3EEEE"/>
<path d="M13.3838 9.96503C13.3838 9.96503 15.9188 9.96503 14.7608 10.717C13.3738 11.16 10.9398 10.776 10.0928 12.411C9.8468 12.887 9.7128 13.422 9.6038 13.948C9.0228 14.091 8.4608 14.305 7.9458 14.598V11.483C7.9458 10.502 8.1368 9.96503 9.4238 9.96503H13.3838Z" fill="white"/>
<path d="M9.60478 13.948C9.33678 15.231 9.21278 16.451 7.94678 16.558V14.599C8.46278 14.306 9.02378 14.091 9.60478 13.949V13.948Z" fill="white"/>
<path d="M15.002 19.402H20.044V19.728H15.002V19.402Z" fill="#C7C2C2"/>
<path d="M15.002 20.562H20.044V20.888H15.002V20.562Z" fill="#C7C2C2"/>
<path d="M15.002 21.721H20.044V22.047H15.002V21.721Z" fill="#C7C2C2"/>
<path d="M27.8438 47.607H19.3108C17.5438 47.607 16.3188 47.215 15.6708 46.441C15.1108 45.772 15.1108 44.999 15.1108 44.538V34.413H15.7628V44.533C15.7628 44.935 15.7628 45.534 16.1708 46.022C16.6888 46.641 17.7458 46.955 19.3108 46.955H27.8438C30.2658 46.955 31.3458 46.579 31.3458 44.35V37.144C31.3458 35.317 31.6318 33.627 33.7088 33.627C34.4658 33.627 35.3088 33.609 36.1248 33.592C36.9438 33.575 37.7178 33.558 38.4168 33.558C40.7428 33.558 40.7428 35.546 40.7428 37.144V40.885H40.0908V37.144C40.0908 35.319 39.9778 34.21 38.4168 34.21C37.7258 34.21 36.9548 34.226 36.1388 34.244C35.3198 34.261 34.4728 34.279 33.7088 34.279C32.4298 34.279 31.9978 35.002 31.9978 37.144V44.35C31.9978 47.074 30.4748 47.607 27.8438 47.607Z" fill="#C7C2C2"/>
<path d="M15.002 22.88H20.044V23.206H15.002V22.88Z" fill="#C7C2C2"/>
<path d="M10.8289 24.04H20.0439V24.366H10.8289V24.04Z" fill="#C7C2C2"/>
<path d="M10.8289 25.199H20.0439V25.525H10.8289V25.199Z" fill="#C7C2C2"/>
<path d="M10.8289 26.358H20.0439V26.684H10.8289V26.358Z" fill="#C7C2C2"/>
<path d="M12.5109 23.135C13.4669 23.135 13.8439 22.299 13.6679 21.683C13.4919 21.067 12.5109 19.304 12.5109 19.304C12.5109 19.304 11.5299 21.067 11.3539 21.683C11.1779 22.299 11.5549 23.135 12.5109 23.135Z" fill="#FF4B72"/>
<path d="M38.417 40.85H42.417V43.414H38.417V40.85Z" fill="#4270B7"/>
<path d="M40.0989 22.246C40.0189 22.246 39.9499 22.188 39.9379 22.106C39.4039 18.397 36.2329 18.435 36.0989 18.438C36.0549 18.439 36.0119 18.422 35.9809 18.392C35.9489 18.361 35.9319 18.319 35.9319 18.275L35.9389 13.223C35.9389 13.133 36.0119 13.06 36.1019 13.06C36.1919 13.06 36.2649 13.133 36.2649 13.223L36.2579 18.118C36.9729 18.164 39.7579 18.569 40.2609 22.06C40.2739 22.149 40.2119 22.232 40.1229 22.245C40.1149 22.246 40.1069 22.247 40.0999 22.247L40.0989 22.246Z" fill="#F98480"/>
<path d="M41.4301 15.534C41.3401 15.534 41.2671 15.461 41.2671 15.371V6.24799C41.2671 6.15799 41.3401 6.08499 41.4301 6.08499C41.5201 6.08499 41.5931 6.15799 41.5931 6.24799V15.371C41.5931 15.461 41.5201 15.534 41.4301 15.534Z" fill="#F98480"/>
<path d="M44.0829 15.573C43.9929 15.573 43.9199 15.5 43.9199 15.41V10.043C43.9199 9.953 43.9929 9.88 44.0829 9.88C44.1729 9.88 44.2459 9.953 44.2459 10.043V15.41C44.2459 15.5 44.1729 15.573 44.0829 15.573Z" fill="#F98480"/>
<path d="M38.7621 15.578C38.6721 15.578 38.5991 15.505 38.5991 15.415L38.6041 6.37101C38.6041 6.28101 38.6771 6.20801 38.7671 6.20801C38.8571 6.20801 38.9301 6.28101 38.9301 6.37101L38.9251 15.415C38.9251 15.505 38.8521 15.578 38.7621 15.578Z" fill="#F98480"/>
<path d="M44.24 26.079C44.164 26.141 44.12 26.234 44.12 26.332V47.282C44.12 47.462 44.266 47.608 44.446 47.608C44.626 47.608 44.772 47.462 44.772 47.282V26.477C45.264 26.008 47.064 24.012 47.064 19.878C47.064 15.744 47.07 9.924 47.07 9.924C47.07 9.065 46.371 8.366 45.512 8.366H45.308C44.976 8.366 44.668 8.473 44.414 8.653L44.416 6.254C44.416 5.817 44.244 5.402 43.93 5.083C43.617 4.769 43.201 4.597 42.761 4.597C42.36 4.597 41.992 4.74 41.706 4.977C41.527 4.258 40.877 3.722 40.103 3.722C39.33 3.722 38.677 4.255 38.495 4.975C38.199 4.728 37.83 4.592 37.437 4.59C36.524 4.59 35.782 5.333 35.782 6.245L35.778 11.961C35.522 11.775 35.208 11.665 34.868 11.665H34.67C34.256 11.665 33.867 11.827 33.572 12.121C33.276 12.416 33.114 12.807 33.114 13.221C33.114 13.221 33.107 17.692 33.107 19.251C33.107 22.848 34.937 25.772 35.949 26.584L35.945 33.599C35.186 33.615 34.41 33.63 33.709 33.63C31.632 33.63 31.346 35.32 31.346 37.147V44.353C31.346 46.582 30.266 46.958 27.844 46.958H19.311C17.746 46.958 16.689 46.644 16.171 46.025C15.763 45.537 15.763 44.937 15.763 44.536V42.912H16.433C16.613 42.912 16.759 42.766 16.759 42.586V37.794C17.532 37.794 18.135 37.789 18.481 37.786V42.579C18.481 42.759 18.627 42.905 18.807 42.905H20.948C20.955 42.905 20.961 42.903 20.967 42.903C20.974 42.903 20.98 42.905 20.986 42.905H21.908C22.088 42.905 22.234 42.759 22.234 42.579V37.802H23.802C25.631 37.802 27.119 36.314 27.119 34.485V9.162C27.119 7.333 25.631 5.845 23.802 5.845H22.373V2.882C22.373 2.702 22.227 2.556 22.047 2.556H20.826C20.646 2.556 20.5 2.702 20.5 2.882V5.845H19.987V3.915C19.987 3.075 19.304 2.392 18.464 2.392H12.582C11.742 2.392 11.059 3.075 11.059 3.915V5.845H7.24498C5.41598 5.845 3.92798 7.333 3.92798 9.162V34.483C3.92798 36.312 5.41598 37.8 7.24498 37.8H8.81198V42.584C8.81198 42.764 8.95798 42.91 9.13798 42.91H12.201C12.381 42.91 12.527 42.764 12.527 42.584V37.8H14.123V42.583C14.123 42.763 14.269 42.909 14.449 42.909H15.109V44.538C15.109 44.999 15.109 45.772 15.669 46.441C16.317 47.215 17.541 47.607 19.309 47.607H27.842C30.473 47.607 31.996 47.074 31.996 44.35V37.144C31.996 35.002 32.428 34.279 33.707 34.279C34.411 34.279 35.185 34.264 35.943 34.248L35.936 47.281C35.936 47.461 36.082 47.607 36.262 47.607C36.442 47.607 36.588 47.461 36.588 47.281L36.595 34.234C37.241 34.221 37.855 34.21 38.415 34.21C39.977 34.21 40.089 35.318 40.089 37.144V40.523H38.415C38.235 40.523 38.089 40.669 38.089 40.849V43.413C38.089 43.593 38.235 43.739 38.415 43.739H42.415C42.595 43.739 42.741 43.593 42.741 43.413V40.849C42.741 40.669 42.595 40.523 42.415 40.523H40.741V37.144C40.741 35.547 40.741 33.558 38.415 33.558C37.853 33.558 37.24 33.569 36.596 33.582L36.6 26.439C36.6 26.35 36.564 26.265 36.5 26.204L36.408 26.116C36.399 26.108 36.39 26.1 36.381 26.093C35.495 25.413 33.758 22.62 33.758 19.248C33.758 17.689 33.765 13.219 33.765 13.218C33.765 12.978 33.86 12.751 34.032 12.579C34.204 12.408 34.43 12.314 34.671 12.314H34.868C35.368 12.314 35.774 12.721 35.774 13.222L35.767 18.274C35.767 18.362 35.802 18.446 35.865 18.508C35.928 18.57 36.013 18.603 36.101 18.601C36.23 18.597 39.261 18.563 39.775 22.13C39.801 22.308 39.967 22.433 40.144 22.406C40.322 22.38 40.446 22.215 40.42 22.037C39.931 18.644 37.349 18.066 36.419 17.969V17.786C36.424 17.765 36.426 17.743 36.426 17.72L36.433 6.243C36.433 5.69 36.883 5.24 37.435 5.24C37.704 5.241 37.956 5.346 38.145 5.535C38.335 5.725 38.441 5.974 38.442 6.236L38.44 8.128L38.433 15.087H37.385C37.205 15.087 37.059 15.233 37.059 15.413C37.059 15.593 37.205 15.739 37.385 15.739H45.365C45.545 15.739 45.691 15.593 45.691 15.413C45.691 15.233 45.545 15.087 45.365 15.087H44.401C44.403 13.752 44.408 10.63 44.411 9.869C44.411 9.868 44.411 9.866 44.411 9.865C44.44 9.389 44.833 9.018 45.309 9.018H45.511C46.011 9.018 46.417 9.425 46.417 9.924C46.417 9.924 46.411 15.844 46.411 19.879C46.411 24.235 44.26 26.063 44.239 26.081L44.24 26.079ZM15.111 42.257H14.777V37.474C14.777 37.294 14.631 37.148 14.451 37.148H12.203C12.023 37.148 11.877 37.294 11.877 37.474V42.258H9.46598V37.474C9.46598 37.294 9.31998 37.148 9.13998 37.148H7.24698C5.77698 37.148 4.58098 35.952 4.58098 34.482V9.162C4.58098 7.692 5.77698 6.496 7.24698 6.496H11.387C11.567 6.496 11.713 6.35 11.713 6.17V3.914C11.713 3.434 12.104 3.043 12.584 3.043H18.466C18.946 3.043 19.337 3.434 19.337 3.914V6.17C19.337 6.35 19.483 6.496 19.663 6.496H20.828C21.008 6.496 21.154 6.35 21.154 6.17V3.207H21.723V6.17C21.723 6.35 21.869 6.496 22.049 6.496H23.804C25.274 6.496 26.47 7.692 26.47 9.162V34.483C26.47 35.953 25.274 37.149 23.804 37.149H21.91C21.73 37.149 21.584 37.295 21.584 37.475V42.252H20.988C20.981 42.252 20.975 42.254 20.969 42.254C20.962 42.254 20.956 42.252 20.95 42.252H19.135V37.456C19.135 37.369 19.1 37.285 19.038 37.224C18.976 37.163 18.891 37.131 18.805 37.13C18.796 37.13 17.857 37.141 16.436 37.141C16.256 37.141 16.11 37.287 16.11 37.467V42.259H15.766V34.741H19.397V40.708C19.397 41.224 19.817 41.644 20.334 41.644C20.851 41.644 21.27 41.224 21.27 40.708V34.741H22.331C23.368 34.741 24.212 33.897 24.212 32.859V10.748C24.212 9.711 23.368 8.867 22.331 8.867H8.64498C7.60798 8.867 6.76398 9.711 6.76398 10.748V32.857C6.76398 33.894 7.60798 34.739 8.64498 34.739H9.70598V40.703C9.70598 41.22 10.126 41.64 10.642 41.64C11.158 41.64 11.579 41.22 11.579 40.703V34.739H15.111V42.257ZM23.557 14.839C22.547 15.301 21.315 15.427 19.889 15.208C18.857 15.05 17.83 14.733 16.836 14.427C16.562 14.343 16.288 14.258 16.013 14.177C14.657 13.775 13.045 13.366 11.381 13.397C9.87298 13.422 8.49098 13.828 7.41598 14.547V10.749C7.41598 10.071 7.96698 9.52 8.64498 9.52H22.329C23.007 9.52 23.558 10.071 23.558 10.749V14.839H23.557ZM11.253 34.087C11.073 34.087 10.927 34.233 10.927 34.413V40.703C10.927 40.86 10.799 40.988 10.642 40.988C10.485 40.988 10.358 40.857 10.358 40.703V34.413C10.358 34.233 10.212 34.087 10.032 34.087H8.64498C7.96698 34.087 7.41598 33.535 7.41598 32.857V15.355C8.42498 14.538 9.82998 14.074 11.393 14.048C12.968 14.022 14.521 14.413 15.829 14.802C16.101 14.883 16.373 14.967 16.645 15.05C17.661 15.363 18.712 15.687 19.791 15.852C20.282 15.927 20.752 15.965 21.203 15.965C22.067 15.965 22.854 15.825 23.558 15.549V32.858C23.558 33.536 23.007 34.088 22.329 34.088H20.942C20.762 34.088 20.616 34.234 20.616 34.414V40.707C20.616 40.864 20.488 40.991 20.332 40.991C20.176 40.991 20.047 40.864 20.047 40.707V34.414C20.047 34.234 19.901 34.088 19.721 34.088H11.253V34.087ZM42.091 41.176V43.088H38.743V41.176H42.091ZM41.104 6.248L41.097 15.086H39.088L39.093 8.128L39.095 6.234V5.375C39.096 4.822 39.546 4.373 40.1 4.373H40.103C40.655 4.373 41.105 4.821 41.105 5.378V6.092C41.105 6.11 41.107 6.127 41.11 6.145C41.108 6.18 41.105 6.214 41.105 6.249L41.104 6.248ZM43.761 9.755C43.758 10.037 43.755 11.075 43.75 15.086H41.749L41.756 6.249C41.756 5.697 42.207 5.247 42.761 5.247C43.027 5.247 43.279 5.352 43.467 5.541C43.658 5.736 43.764 5.988 43.764 6.252L43.76 9.755H43.761Z" fill="#564B57"/>
<path d="M21.8749 27.572V18.527C21.8749 18.072 21.5049 17.702 21.0499 17.702H9.9229C9.4679 17.702 9.0979 18.072 9.0979 18.527V27.572C9.0979 28.027 9.4679 28.396 9.9229 28.396H21.0499C21.5049 28.396 21.8749 28.026 21.8749 27.572ZM9.7499 27.572V18.527C9.7499 18.433 9.8289 18.354 9.9229 18.354H21.0499C21.1439 18.354 21.2229 18.433 21.2229 18.527V27.572C21.2229 27.666 21.1439 27.745 21.0499 27.745H9.9229C9.8289 27.745 9.7499 27.666 9.7499 27.572Z" fill="#564B57"/>
<path d="M15.002 19.239H20.044V19.891H15.002V19.239Z" fill="#564B57"/>
<path d="M15.002 20.399H20.044V21.051H15.002V20.399Z" fill="#564B57"/>
<path d="M15.002 21.558H20.044V22.21H15.002V21.558Z" fill="#564B57"/>
<path d="M15.002 22.717H20.044V23.369H15.002V22.717Z" fill="#564B57"/>
<path d="M10.8289 23.877H20.0439V24.529H10.8289V23.877Z" fill="#564B57"/>
<path d="M10.8289 25.036H20.0439V25.688H10.8289V25.036Z" fill="#564B57"/>
<path d="M10.8289 26.195H20.0439V26.847H10.8289V26.195Z" fill="#564B57"/>
<path d="M13.7251 6.18899H17.2491C17.9491 6.18899 18.5181 5.61899 18.5181 4.91899C18.5181 4.21899 17.9491 3.64999 17.2491 3.64999H13.7251C13.0251 3.64999 12.4551 4.21899 12.4551 4.91899C12.4551 5.61899 13.0251 6.18899 13.7251 6.18899ZM13.7251 4.30099H17.2491C17.5891 4.30099 17.8661 4.57799 17.8661 4.91799C17.8661 5.25799 17.5891 5.53599 17.2491 5.53599H13.7251C13.3841 5.53599 13.1071 5.25899 13.1071 4.91799C13.1071 4.57699 13.3841 4.30099 13.7251 4.30099Z" fill="#564B57"/>
<path d="M12.5111 23.461C13.0231 23.461 13.4591 23.257 13.7381 22.886C14.0121 22.523 14.1051 22.027 13.9811 21.593C13.7971 20.948 12.8371 19.218 12.7961 19.145C12.7381 19.042 12.6291 18.977 12.5111 18.977C12.3931 18.977 12.2841 19.041 12.2261 19.145C12.1851 19.218 11.2251 20.948 11.0411 21.593C10.9171 22.027 11.0101 22.523 11.2841 22.886C11.5641 23.257 11.9991 23.461 12.5111 23.461ZM11.6681 21.772C11.7681 21.421 12.1901 20.591 12.5111 19.987C12.8321 20.591 13.2541 21.421 13.3541 21.772C13.4221 22.01 13.3681 22.293 13.2181 22.493C13.0621 22.699 12.8181 22.808 12.5111 22.808C12.2041 22.808 11.9601 22.699 11.8041 22.493C11.6531 22.293 11.6001 22.01 11.6681 21.772Z" fill="#564B57"/>
</svg>
