<svg width="51" height="50" viewBox="0 0 51 50" fill="none" xmlns="http://www.w3.org/2000/svg">
<path d="M28.018 13.8832L8.316 11.6112C7.611 11.5292 6.967 12.0392 6.886 12.7452L3.978 37.9562L3.348 43.4172C3.266 44.1232 3.777 44.7662 4.483 44.8482L24.184 47.1202C24.89 47.2022 25.533 46.6912 25.615 45.9862L29.154 15.3142C29.235 14.6082 28.725 13.9652 28.019 13.8832H28.018Z" fill="white"/>
<path d="M8.30902 13.351L4.94702 42.494L24.35 44.733L27.712 15.59L8.30902 13.351Z" fill="white"/>
<path d="M8.30902 13.351C14.385 14.074 21.51 17.491 23.452 20.933C23.751 21.461 23.993 22.024 24.176 22.62C24.737 24.439 24.749 26.575 24.15 29.042H24.151C23.934 29.887 23.677 30.663 23.384 31.378C23.175 31.89 22.947 32.37 22.702 32.82C22.424 33.331 22.123 33.802 21.804 34.238C18.896 38.181 14.304 39.151 9.27202 39.151C8.18802 39.151 6.73302 38.826 5.41602 38.431L4.94702 42.495L24.35 44.734L27.712 15.591C27.712 15.591 8.44002 13.367 8.30902 13.352V13.351Z" fill="#F2EDED"/>
<path d="M20.7195 42.6062C22.6329 42.4699 24.0736 40.8083 23.9374 38.8949C23.8011 36.9815 22.1395 35.5408 20.2261 35.677C18.3126 35.8133 16.8719 37.4749 17.0082 39.3883C17.1445 41.3018 18.8061 42.7425 20.7195 42.6062Z" fill="#C7C2C2"/>
<path d="M20.6779 42.023C22.2693 41.9096 23.4674 40.5277 23.3541 38.9364C23.2408 37.3451 21.8589 36.147 20.2676 36.2603C18.6762 36.3736 17.4781 37.7555 17.5914 39.3468C17.7047 40.9381 19.0866 42.1363 20.6779 42.023Z" fill="#DAD5D5"/>
<path d="M20.499 40.587C21.2926 40.587 21.936 39.9436 21.936 39.15C21.936 38.3564 21.2926 37.713 20.499 37.713C19.7054 37.713 19.062 38.3564 19.062 39.15C19.062 39.9436 19.7054 40.587 20.499 40.587Z" fill="#8B9194"/>
<path d="M35.357 3.16699C35.966 2.80099 37.213 2.85999 38.196 3.09299C38.135 3.11699 38.098 3.13499 38.088 3.13899C37.874 3.24299 37.785 3.49999 37.888 3.71399C37.991 3.92699 38.243 4.01599 38.461 3.91399H38.463C38.463 3.91399 38.457 3.92299 38.453 3.92699C38.453 3.92699 36.585 5.87199 35.856 5.46699C35.158 5.07999 34.742 3.53599 35.357 3.16599V3.16699Z" fill="#6A6565"/>
<path d="M37.887 3.714C37.783 3.5 37.873 3.243 38.087 3.139C38.097 3.134 38.134 3.117 38.195 3.093C38.625 2.925 40.238 2.436 41.828 3.85C44.875 6.56 46.452 12.543 46.756 13.802C46.565 13.743 46.352 13.749 46.154 13.837C46.064 13.877 45.984 13.931 45.916 13.995C45.62 12.793 44.074 7 41.256 4.493C39.89 3.278 38.534 3.882 38.462 3.914H38.46C38.242 4.016 37.99 3.927 37.887 3.714Z" fill="#C7C2C2"/>
<path d="M29.7972 7.749C30.0092 7.655 30.1112 7.408 30.0222 7.192C29.9322 6.973 29.6842 6.867 29.4652 6.955C29.4552 6.959 29.4172 6.975 29.3582 7.004C29.8462 6.12 30.6412 5.157 31.3222 4.952C32.0102 4.745 32.8722 6.091 32.6902 6.868C32.4992 7.68 29.8042 7.754 29.8042 7.754C29.7982 7.754 29.7932 7.753 29.7872 7.752H29.7892C29.7892 7.752 29.7952 7.749 29.7982 7.747L29.7972 7.749Z" fill="#6A6565"/>
<path d="M27.4751 10.202C27.4971 8.075 28.9431 7.21 29.3581 7.004C29.4171 6.975 29.4551 6.959 29.4651 6.955C29.6851 6.867 29.9331 6.973 30.0221 7.192C30.1101 7.408 30.0091 7.655 29.7971 7.749C29.7941 7.75 29.7911 7.752 29.7881 7.753H29.7861C29.7121 7.786 28.3551 8.383 28.3361 10.212C28.2961 13.975 31.5351 19.008 32.2321 20.046C32.1441 20.055 32.0561 20.077 31.9711 20.115C31.7681 20.205 31.6181 20.364 31.5341 20.552C30.8211 19.502 27.4321 14.293 27.4761 10.203L27.4751 10.202Z" fill="#C7C2C2"/>
<path d="M26.0152 37.097C27.5252 37.684 28.2972 39.449 28.8082 40.616L28.9042 40.834C29.4762 42.126 30.7362 43.22 32.5592 42.413C34.3722 41.611 34.3492 39.734 33.9092 38.739L33.8202 38.538C33.2252 37.194 31.6462 33.625 35.3032 32.007C36.2362 31.594 37.1062 31.539 37.8882 31.842C39.3982 32.429 40.1702 34.194 40.6812 35.361L40.7772 35.579C41.3492 36.871 42.6092 37.965 44.4322 37.158C46.2452 36.356 46.2222 34.479 45.7822 33.484L43.1192 27.467C43.2992 27.467 43.4812 27.43 43.6562 27.352C43.8312 27.275 43.9812 27.164 44.1022 27.031L46.7652 33.048C47.3742 34.423 47.3962 37.022 44.8672 38.141C42.4802 39.198 40.5982 37.834 39.7932 36.014L39.6952 35.792C39.2552 34.788 38.5912 33.269 37.4972 32.844C36.9852 32.645 36.4092 32.692 35.7382 32.99C33.5202 33.972 33.7602 35.744 34.8042 38.102L34.8932 38.303C35.5022 39.678 35.5242 42.277 32.9952 43.396C30.6082 44.453 28.7262 43.089 27.9212 41.269L27.8232 41.047C27.3832 40.043 26.7192 38.524 25.6252 38.099C25.1132 37.9 24.5372 37.948 23.8662 38.245C23.8182 38.005 23.5622 37.423 23.4312 37.261C24.3642 36.848 25.2342 36.793 26.0162 37.096L26.0152 37.097Z" fill="#C7C2C2"/>
<path d="M47.2901 14.275C47.1861 14.037 46.9861 13.873 46.7561 13.802C46.5641 13.743 46.3511 13.749 46.1551 13.836C46.0651 13.876 45.9851 13.931 45.9161 13.994C45.6711 14.223 45.5751 14.583 45.6921 14.911C45.6921 14.913 45.6931 14.914 45.6941 14.917C45.7351 15.055 46.1281 16.437 45.8241 18.067C45.4251 20.21 44.0271 21.826 41.6701 22.869C39.3131 23.913 37.1771 23.861 35.3221 22.715C33.9321 21.856 33.1751 20.657 33.0821 20.506C33.0811 20.504 33.0801 20.502 33.0791 20.5C33.0781 20.498 33.0771 20.496 33.0761 20.495C32.9091 20.182 32.5701 20.011 32.2301 20.045C32.1421 20.055 32.0541 20.076 31.9691 20.114C31.7661 20.204 31.6161 20.364 31.5321 20.551C31.4361 20.766 31.4281 21.018 31.5301 21.249C31.6331 21.482 32.5811 22.999 34.2901 24.099C35.7431 25.034 38.0471 25.859 41.1061 24.917L41.8821 26.667C42.1051 27.172 42.6001 27.47 43.1181 27.467C43.2981 27.466 43.4811 27.43 43.6551 27.353C43.8301 27.276 43.9801 27.165 44.1011 27.031C44.4521 26.649 44.5641 26.082 44.3411 25.579L43.5651 23.828C46.3201 22.198 47.2581 19.938 47.5441 18.234C47.8791 16.231 47.3931 14.509 47.2901 14.276V14.275ZM33.1051 20.553C33.1011 20.541 33.0951 20.53 33.0901 20.52C33.0991 20.537 33.1041 20.549 33.1051 20.553Z" fill="#FFB6C7"/>
<path d="M47.2901 14.275C47.3931 14.508 47.8781 16.23 47.5441 18.233C47.2591 19.937 46.3211 22.198 43.5651 23.827L44.3411 25.578C44.5641 26.082 44.4521 26.648 44.1011 27.03C43.9791 27.163 43.8301 27.274 43.6551 27.352C43.4811 27.429 43.2981 27.465 43.1181 27.466C42.5991 27.468 42.1051 27.17 41.8821 26.666L41.1061 24.916C38.0471 25.858 35.7441 25.033 34.2901 24.098C32.5821 22.998 31.6341 21.482 31.5301 21.248C31.4281 21.017 31.4361 20.765 31.5321 20.55C31.6161 20.363 31.7651 20.204 31.9691 20.113C31.9691 20.113 35.0361 26.469 41.8741 23.542C48.9801 20.499 46.1541 13.836 46.1541 13.836C46.3511 13.749 46.5641 13.742 46.7551 13.802C46.9841 13.873 47.1841 14.038 47.2891 14.275H47.2901Z" fill="#FF4B72"/>
<path d="M13.6059 25.207C13.4529 25.207 13.2979 25.198 13.1429 25.18C10.9699 24.929 9.40589 22.957 9.65589 20.784C9.77689 19.731 10.3019 18.789 11.1319 18.13C11.9619 17.471 13.0009 17.175 14.0519 17.297C15.1049 17.419 16.0479 17.943 16.7059 18.773C17.3639 19.603 17.6599 20.64 17.5389 21.693C17.4179 22.746 16.8929 23.688 16.0629 24.347C15.3549 24.909 14.4959 25.207 13.6059 25.207ZM9.97989 20.822C9.75089 22.816 11.1859 24.626 13.1799 24.857C14.1469 24.969 15.0979 24.697 15.8599 24.092C16.6219 23.487 17.1029 22.622 17.2149 21.656C17.3269 20.69 17.0549 19.738 16.4509 18.976C15.8469 18.214 14.9809 17.733 14.0149 17.621C13.0489 17.509 12.0969 17.781 11.3349 18.385C10.5729 18.99 10.0919 19.855 9.97989 20.821V20.822Z" fill="#C7C2C2"/>
<path d="M24.8361 21.255C24.8301 21.255 24.8241 21.255 24.8171 21.254L19.3051 20.618C19.2161 20.608 19.1511 20.527 19.1621 20.437C19.1721 20.348 19.2551 20.283 19.3421 20.294L24.8541 20.93C24.9431 20.94 25.0081 21.021 24.9971 21.111C24.9871 21.194 24.9171 21.255 24.8351 21.255H24.8361Z" fill="#C7C2C2"/>
<path d="M24.654 22.837C24.648 22.837 24.642 22.837 24.635 22.836L19.122 22.2C19.033 22.19 18.968 22.109 18.979 22.019C18.989 21.93 19.069 21.865 19.159 21.876L24.672 22.512C24.761 22.522 24.826 22.603 24.815 22.693C24.805 22.776 24.735 22.837 24.653 22.837H24.654Z" fill="#C7C2C2"/>
<path d="M24.4709 24.42C24.4649 24.42 24.4589 24.42 24.4519 24.419L18.9389 23.783C18.8499 23.773 18.7849 23.692 18.7959 23.602C18.8059 23.513 18.8869 23.449 18.9759 23.459L24.4889 24.095C24.5779 24.105 24.6429 24.186 24.6319 24.276C24.6219 24.359 24.5519 24.42 24.4699 24.42H24.4709Z" fill="#C7C2C2"/>
<path d="M23.992 28.567C23.986 28.567 23.98 28.567 23.973 28.566L9.12102 26.853C9.03202 26.843 8.96702 26.762 8.97802 26.672C8.98802 26.583 9.06902 26.519 9.15802 26.529L24.01 28.242C24.099 28.252 24.164 28.333 24.153 28.423C24.143 28.506 24.073 28.567 23.991 28.567H23.992Z" fill="#C7C2C2"/>
<path d="M23.8189 30.068C23.8129 30.068 23.8069 30.068 23.7999 30.067L8.94793 28.354C8.85893 28.344 8.79393 28.263 8.80493 28.173C8.81493 28.084 8.89593 28.02 8.98493 28.03L23.8369 29.743C23.9259 29.753 23.9909 29.834 23.9799 29.924C23.9699 30.007 23.8999 30.068 23.8179 30.068H23.8189Z" fill="#C7C2C2"/>
<path d="M23.6461 31.57C23.6401 31.57 23.6341 31.57 23.6271 31.569L8.77507 29.855C8.68607 29.845 8.62107 29.764 8.63207 29.674C8.64207 29.585 8.72507 29.52 8.81207 29.531L23.6641 31.245C23.7531 31.255 23.8181 31.336 23.8071 31.426C23.7971 31.509 23.7271 31.57 23.6451 31.57H23.6461Z" fill="#C7C2C2"/>
<path d="M23.473 33.071C23.467 33.071 23.46 33.071 23.454 33.07L8.60198 31.356C8.51298 31.346 8.44798 31.265 8.45898 31.175C8.46898 31.086 8.54998 31.021 8.63898 31.032L23.491 32.746C23.58 32.756 23.644 32.837 23.634 32.927C23.624 33.01 23.554 33.071 23.472 33.071H23.473Z" fill="#C7C2C2"/>
<path d="M23.2989 34.572C23.2929 34.572 23.2869 34.572 23.2799 34.571L8.42791 32.857C8.33891 32.847 8.27391 32.766 8.28491 32.676C8.29491 32.587 8.37791 32.522 8.46491 32.533L23.3169 34.247C23.4059 34.257 23.4709 34.338 23.4599 34.428C23.4499 34.511 23.3799 34.572 23.2979 34.572H23.2989Z" fill="#C7C2C2"/>
<path d="M11.3981 20.184L11.2151 21.766L12.7161 21.94L12.5431 23.44L14.1251 23.622L14.2991 22.121L15.7991 22.295L15.9821 20.712L14.4811 20.539L14.6551 19.038L13.0711 18.855L12.8981 20.356L11.3981 20.184Z" fill="#FF4B72"/>
<path d="M24.2391 14.375C24.1171 14.298 23.9781 14.246 23.8261 14.229L22.7351 14.103L22.8301 13.284L22.8481 13.12C22.9101 12.579 22.5191 12.086 21.9791 12.024L20.6631 11.872C20.7541 11.658 20.8171 11.427 20.8461 11.183C20.9991 9.85899 20.0811 8.65799 18.7791 8.44499C18.7391 8.43899 18.7001 8.43299 18.6611 8.42899C17.2971 8.27099 16.0641 9.24999 15.9071 10.613C15.8791 10.857 15.8881 11.096 15.9271 11.325L14.6111 11.173C14.0711 11.111 13.5771 11.502 13.5161 12.042L13.4971 12.207L13.4021 13.025L12.3111 12.899C11.7971 12.84 11.3271 13.189 11.2281 13.689C11.2231 13.715 11.2181 13.742 11.2151 13.769L11.1021 14.751L24.5831 16.306L24.6101 16.069L24.6961 15.323C24.6991 15.296 24.7011 15.269 24.7011 15.243C24.7141 14.885 24.5291 14.557 24.2391 14.374V14.375ZM17.1181 10.754C17.1981 10.059 17.8261 9.56099 18.5211 9.64199C19.2161 9.72199 19.7141 10.35 19.6331 11.045C19.5531 11.74 18.9251 12.238 18.2301 12.157C17.5361 12.077 17.0371 11.449 17.1181 10.754Z" fill="#4270B7"/>
<path d="M24.2391 14.375C24.1171 14.298 23.9781 14.246 23.8261 14.229L22.7351 14.103L22.8301 13.284L22.8481 13.12C22.9101 12.579 22.5191 12.086 21.9791 12.024L20.6631 11.872C20.7541 11.658 20.8171 11.427 20.8461 11.183C20.9991 9.85901 20.0811 8.65801 18.7791 8.44501L18.7701 8.48801C19.3241 8.59201 19.7321 9.07801 19.9651 9.59201C20.4641 10.69 20.3331 12.05 19.6351 13.034C19.1231 13.756 18.3641 14.059 17.4991 14.231C16.6781 14.395 15.7071 14.259 14.8761 14.168C13.6551 14.035 12.4351 13.902 11.2141 13.769L11.1011 14.751L24.5821 16.306L24.6091 16.069L24.6951 15.323C24.6981 15.296 24.7001 15.269 24.7001 15.243C24.7131 14.885 24.5281 14.557 24.2381 14.374L24.2391 14.375Z" fill="#315B9D"/>
<path d="M18.699 8.10601C17.952 8.01901 17.218 8.22901 16.629 8.69601C16.041 9.16301 15.669 9.83101 15.583 10.577C15.569 10.703 15.563 10.83 15.565 10.956L14.649 10.85C14.3 10.81 13.957 10.908 13.681 11.128C13.448 11.313 13.289 11.565 13.222 11.847C10.425 11.524 8.35397 11.286 8.35397 11.286C7.92597 11.237 7.50397 11.357 7.16397 11.627C6.82497 11.896 6.61097 12.28 6.56197 12.707L3.02397 43.378C2.97397 43.806 3.09497 44.228 3.36497 44.568C3.63397 44.907 4.01797 45.121 4.44597 45.171L24.147 47.443C24.21 47.45 24.272 47.454 24.334 47.454C25.143 47.454 25.843 46.846 25.939 46.023L26.688 39.523C27.035 40.062 27.308 40.685 27.524 41.179L27.622 41.402C28.282 42.892 29.611 44.099 31.343 44.098C31.899 44.098 32.496 43.974 33.126 43.695C35.873 42.479 35.85 39.662 35.19 38.172L35.101 37.971C33.93 35.324 34.138 34.055 35.869 33.289C36.457 33.029 36.951 32.983 37.378 33.149C38.345 33.525 38.977 34.968 39.395 35.924L39.493 36.147C39.952 37.183 40.696 38.001 41.589 38.449C42.628 38.971 43.807 38.968 44.997 38.441C47.744 37.225 47.721 34.408 47.062 32.918L44.478 27.079C44.81 26.604 44.877 25.987 44.639 25.448L43.979 23.958C46.685 22.256 47.588 19.947 47.865 18.288C48.217 16.179 47.703 14.406 47.588 14.145C47.477 13.892 47.279 13.689 47.033 13.566C46.657 12.061 45.055 6.28501 42.044 3.60701C40.422 2.16501 38.77 2.54401 38.171 2.75501C37.219 2.54401 35.904 2.45801 35.187 2.88901C34.884 3.07101 34.722 3.42801 34.73 3.89501C34.741 4.55201 35.105 5.42701 35.696 5.75401C35.811 5.81801 35.939 5.84601 36.075 5.84601C36.961 5.84601 38.206 4.65001 38.652 4.18901C38.96 4.07201 39.979 3.79601 41.038 4.73801C43.679 7.08701 45.192 12.476 45.557 13.91C45.32 14.223 45.249 14.636 45.38 15.014C45.38 15.015 45.381 15.017 45.382 15.018C45.43 15.182 45.787 16.479 45.502 18.009C45.123 20.041 43.79 21.576 41.537 22.572C39.284 23.569 37.25 23.525 35.493 22.439C34.218 21.652 33.507 20.575 33.365 20.346C33.363 20.342 33.361 20.338 33.358 20.334C33.163 19.976 32.805 19.75 32.404 19.721C31.586 18.482 28.622 13.741 28.659 10.216C28.674 8.79001 29.579 8.22301 29.858 8.08101C30.6 8.05701 32.779 7.90301 33.004 6.94501C33.158 6.28801 32.756 5.43001 32.277 4.98001C31.937 4.66001 31.563 4.54001 31.225 4.64201C30.424 4.88301 29.603 5.91401 29.119 6.76101C28.561 7.06201 27.169 8.03201 27.146 10.2C27.135 11.263 27.35 12.399 27.687 13.518C26.975 13.436 25.282 13.241 23.177 12.998C23.172 12.344 22.679 11.779 22.014 11.702L21.098 11.596C21.129 11.474 21.152 11.35 21.168 11.223C21.345 9.68301 20.237 8.28501 18.697 8.10801L18.699 8.10601ZM31.415 5.26501C31.519 5.23401 31.674 5.30501 31.833 5.45401C32.205 5.80401 32.457 6.43101 32.372 6.79501C32.313 7.04501 31.427 7.30001 30.381 7.39501C30.381 7.38601 30.381 7.37801 30.381 7.36901C30.381 7.36201 30.381 7.35501 30.381 7.34701C30.381 7.30401 30.377 7.26201 30.369 7.21901C30.368 7.21301 30.366 7.20801 30.365 7.20201C30.356 7.15701 30.343 7.11201 30.325 7.06801C30.306 7.02101 30.282 6.97701 30.255 6.93701C30.246 6.92401 30.235 6.91301 30.226 6.90001C30.206 6.87401 30.187 6.84801 30.164 6.82501C30.151 6.81201 30.136 6.80101 30.122 6.78901C30.1 6.77001 30.078 6.75001 30.054 6.73401C30.038 6.72301 30.021 6.71501 30.004 6.70501C29.984 6.69301 29.965 6.68001 29.944 6.67001C30.427 5.94901 31.002 5.38901 31.415 5.26501ZM25.291 45.948C25.229 46.477 24.75 46.857 24.221 46.796L4.51997 44.524C4.26497 44.494 4.03597 44.367 3.87497 44.164C3.71397 43.961 3.64197 43.709 3.67097 43.455L7.20997 12.781C7.23897 12.527 7.36697 12.298 7.56897 12.137C7.77198 11.976 8.02297 11.904 8.27897 11.933C8.27897 11.933 10.345 12.171 13.137 12.493L13.117 12.664L12.35 12.575C11.769 12.508 11.235 12.83 11.004 13.332L8.34697 13.026C8.16897 13.005 8.00697 13.134 7.98597 13.313L4.62297 42.457C4.60197 42.636 4.73097 42.798 4.90997 42.818L24.313 45.057C24.326 45.058 24.338 45.059 24.351 45.059C24.514 45.059 24.655 44.937 24.674 44.77L25.413 38.373C25.445 38.383 25.476 38.391 25.507 38.403C25.726 38.488 25.928 38.63 26.114 38.807L25.291 45.948ZM18.108 38.227C18.355 37.588 18.836 37.084 19.462 36.807C19.794 36.66 20.146 36.586 20.499 36.586C20.811 36.586 21.124 36.644 21.424 36.76C22.063 37.007 22.567 37.488 22.844 38.114C23.121 38.74 23.138 39.437 22.891 40.075C22.644 40.714 22.163 41.218 21.537 41.495C20.911 41.772 20.214 41.789 19.576 41.542C18.937 41.295 18.433 40.814 18.156 40.188C17.879 39.562 17.862 38.865 18.109 38.226L18.108 38.227ZM18.961 35.675C17.044 36.523 16.175 38.773 17.023 40.689C17.434 41.617 18.182 42.33 19.129 42.696C19.574 42.868 20.037 42.954 20.5 42.954C21.023 42.954 21.545 42.845 22.037 42.627C22.965 42.216 23.678 41.468 24.044 40.521C24.303 39.851 24.362 39.139 24.232 38.45C24.419 38.383 24.595 38.341 24.762 38.321L24.063 44.372L5.30797 42.208L8.59597 13.712L10.864 13.974L10.779 14.715C10.758 14.894 10.887 15.055 11.066 15.076L24.547 16.631C24.56 16.632 24.572 16.633 24.584 16.633C24.657 16.633 24.729 16.608 24.787 16.562C24.855 16.508 24.898 16.43 24.908 16.344L24.993 15.604L27.353 15.877L24.964 36.583C24.506 36.585 24.031 36.68 23.539 36.869C22.501 35.487 20.608 34.946 18.961 35.675ZM46.468 33.182C47.026 34.442 47.048 36.821 44.736 37.845C43.729 38.291 42.743 38.298 41.884 37.867C41.126 37.487 40.489 36.782 40.092 35.885L39.994 35.662C39.533 34.608 38.836 33.016 37.616 32.542C37.019 32.31 36.362 32.36 35.607 32.693C32.996 33.849 33.535 36.04 34.507 38.235L34.596 38.436C35.154 39.696 35.176 42.076 32.864 43.099C30.683 44.064 28.96 42.81 28.22 41.139L28.122 40.916C27.8 40.181 27.363 39.184 26.713 38.487C26.699 38.469 26.683 38.452 26.665 38.438C26.396 38.16 26.092 37.932 25.744 37.796C25.498 37.701 25.243 37.653 24.974 37.653C24.688 37.653 24.388 37.707 24.07 37.816C24.021 37.688 23.962 37.551 23.901 37.426C24.623 37.175 25.293 37.166 25.898 37.401C27.282 37.939 28.022 39.629 28.511 40.748L28.607 40.967C28.951 41.744 29.484 42.359 30.108 42.698C30.876 43.116 31.769 43.12 32.692 42.712C34.722 41.814 34.699 39.718 34.208 38.608L34.119 38.407C33.835 37.765 33.305 36.569 33.294 35.373C33.28 33.953 33.981 32.949 35.436 32.306C36.287 31.929 37.072 31.876 37.771 32.147C39.155 32.685 39.895 34.375 40.384 35.493L40.48 35.712C41.087 37.083 42.521 38.362 44.565 37.457C46.595 36.559 46.572 34.463 46.081 33.353L43.59 27.724C43.59 27.724 43.599 27.72 43.603 27.719C43.666 27.7 43.728 27.678 43.788 27.651C43.849 27.624 43.907 27.593 43.963 27.56C43.968 27.557 43.973 27.555 43.977 27.553L46.468 33.182ZM31.234 21.381C31.35 21.643 32.317 23.215 34.115 24.373C35.53 25.283 37.846 26.166 40.925 25.31L41.585 26.799C41.823 27.338 42.325 27.704 42.9 27.778L45.484 33.617C45.873 34.496 45.896 36.155 44.3 36.861C42.283 37.754 41.322 36.005 41.075 35.449L40.979 35.231C40.447 34.014 39.642 32.175 38.005 31.539C37.14 31.203 36.186 31.26 35.17 31.709C33.475 32.459 32.624 33.694 32.64 35.379C32.653 36.709 33.217 37.985 33.521 38.67L33.61 38.871C33.999 39.75 34.022 41.409 32.426 42.115C31.685 42.443 31.009 42.446 30.417 42.124C29.919 41.853 29.487 41.348 29.201 40.703L29.105 40.485C28.67 39.491 28.053 38.081 26.948 37.252L29.249 17.306C30.028 18.838 30.808 20.056 31.171 20.599C31.103 20.858 31.122 21.133 31.231 21.38L31.234 21.381ZM36.015 5.18301C35.688 5.00101 35.393 4.39401 35.385 3.88201C35.381 3.66401 35.434 3.50201 35.526 3.44601C35.762 3.30401 36.175 3.23201 36.666 3.23201C36.943 3.23201 37.245 3.25501 37.554 3.30101C37.547 3.32201 37.545 3.34501 37.54 3.36701C37.536 3.38801 37.53 3.40801 37.527 3.42901C37.523 3.45601 37.524 3.48401 37.523 3.51201C37.523 3.53201 37.52 3.55201 37.521 3.57201C37.523 3.60301 37.529 3.63301 37.535 3.66401C37.538 3.68101 37.539 3.69901 37.543 3.71601C37.555 3.76401 37.572 3.81101 37.594 3.85701C37.618 3.90601 37.647 3.95101 37.678 3.99201C37.688 4.00501 37.701 4.01601 37.712 4.02901C37.735 4.05501 37.759 4.08101 37.785 4.10301C37.789 4.10601 37.792 4.11101 37.796 4.11401C37.023 4.82401 36.238 5.30701 36.013 5.18301H36.015ZM41.474 4.25001C40.726 3.58501 39.98 3.40801 39.398 3.40801C38.866 3.40801 38.471 3.55601 38.336 3.61401C38.332 3.61601 38.327 3.61801 38.323 3.62001C38.309 3.62601 38.295 3.63001 38.281 3.63101C38.239 3.63401 38.2 3.61301 38.181 3.57301C38.156 3.52101 38.178 3.45901 38.227 3.43501C38.235 3.43101 38.265 3.41701 38.314 3.39801C38.723 3.23801 40.171 2.81401 41.612 4.09501C44.326 6.50901 45.863 11.66 46.332 13.451C46.309 13.454 46.285 13.459 46.263 13.464C46.251 13.466 46.24 13.468 46.228 13.471C46.207 13.476 46.186 13.483 46.164 13.489C46.152 13.493 46.139 13.496 46.127 13.5C45.656 11.727 44.113 6.59801 41.474 4.25001ZM31.831 20.686C31.842 20.662 31.856 20.639 31.87 20.617C31.916 20.545 31.977 20.486 32.05 20.443C32.067 20.433 32.084 20.422 32.103 20.413C32.128 20.402 32.154 20.393 32.181 20.386C32.185 20.385 32.19 20.385 32.195 20.383C32.218 20.378 32.241 20.373 32.265 20.37H32.267C32.483 20.35 32.689 20.458 32.791 20.649C32.792 20.651 32.793 20.653 32.795 20.656C32.796 20.659 32.798 20.661 32.8 20.663C32.801 20.665 32.802 20.668 32.803 20.671V20.673C32.818 20.711 32.841 20.743 32.866 20.771C33.105 21.138 33.871 22.201 35.153 22.993C36.178 23.626 37.283 23.943 38.457 23.943C39.518 23.943 40.636 23.685 41.804 23.167C44.265 22.078 45.726 20.383 46.146 18.127C46.426 16.624 46.139 15.318 46.037 14.929C46.037 14.92 46.035 14.912 46.033 14.903C46.031 14.892 46.028 14.881 46.024 14.87C46.022 14.864 46.021 14.858 46.019 14.852C46.015 14.842 46.011 14.832 46.007 14.821C46.005 14.816 46.004 14.812 46.004 14.811C46.004 14.808 46.002 14.806 46.001 14.803C45.93 14.603 45.984 14.38 46.138 14.236C46.138 14.236 46.14 14.235 46.14 14.234C46.152 14.223 46.164 14.215 46.177 14.205C46.213 14.177 46.25 14.153 46.288 14.136C46.405 14.084 46.538 14.077 46.661 14.115C46.81 14.161 46.931 14.268 46.993 14.409C47.075 14.594 47.544 16.261 47.223 18.181C46.96 19.754 46.083 21.962 43.4 23.549C43.258 23.633 43.201 23.81 43.268 23.962L44.044 25.713C44.207 26.083 44.136 26.515 43.861 26.814C43.813 26.866 43.761 26.913 43.705 26.953C43.649 26.993 43.589 27.028 43.525 27.056C43.459 27.085 43.392 27.107 43.323 27.121C43.257 27.135 43.188 27.142 43.119 27.142H43.115C42.711 27.142 42.345 26.904 42.182 26.535L41.406 24.785C41.339 24.634 41.17 24.556 41.012 24.606C38.033 25.523 35.81 24.688 34.469 23.826C32.831 22.772 31.913 21.303 31.831 21.118C31.77 20.979 31.769 20.825 31.831 20.686ZM29.503 7.29701C29.549 7.27401 29.579 7.26101 29.587 7.25801C29.6 7.25301 29.613 7.25001 29.626 7.25101C29.644 7.25101 29.661 7.25701 29.676 7.26601C29.68 7.26801 29.683 7.27101 29.687 7.27301C29.701 7.28401 29.714 7.29801 29.721 7.31601C29.742 7.36801 29.717 7.42801 29.662 7.45301C29.659 7.45401 29.657 7.45501 29.654 7.45701C29.474 7.53601 28.032 8.23101 28.011 10.209C27.974 13.74 30.737 18.338 31.729 19.873C31.715 19.881 31.703 19.892 31.69 19.901C31.661 19.919 31.633 19.939 31.606 19.96C31.59 19.972 31.572 19.982 31.556 19.995C29.269 16.413 28.763 14.67 28.541 14.032C28.543 14.025 28.415 13.656 28.415 13.656C28.038 12.492 27.792 11.305 27.803 10.206C27.823 8.28001 29.109 7.49201 29.503 7.29701ZM23.117 13.646C25.616 13.935 27.533 14.155 27.912 14.199C28.151 14.89 28.429 15.567 28.722 16.21L26.337 36.884C26.27 36.853 26.204 36.82 26.134 36.793C25.964 36.727 25.789 36.68 25.612 36.645L28.037 15.628C28.055 15.471 27.959 15.328 27.815 15.281C27.812 15.281 27.809 15.28 27.805 15.279C27.787 15.274 27.769 15.269 27.75 15.267L25.001 14.949C24.89 14.408 24.442 13.973 23.864 13.906L23.097 13.817L23.117 13.646ZM21.942 12.349C22.305 12.391 22.567 12.721 22.525 13.084L22.412 14.066C22.391 14.245 22.52 14.406 22.699 14.427L23.79 14.553C23.965 14.573 24.122 14.661 24.233 14.8C24.344 14.939 24.393 15.112 24.373 15.287L24.297 15.945L11.464 14.465L11.54 13.807C11.582 13.444 11.911 13.183 12.275 13.224L13.366 13.35C13.544 13.371 13.706 13.243 13.727 13.064L13.841 12.081C13.861 11.907 13.948 11.75 14.087 11.639C14.226 11.528 14.401 11.478 14.575 11.498L15.891 11.65C15.994 11.662 16.095 11.625 16.165 11.55C16.236 11.475 16.267 11.372 16.249 11.27C16.213 11.066 16.207 10.858 16.231 10.651C16.297 10.078 16.582 9.56501 17.034 9.20701C17.486 8.84801 18.05 8.68701 18.624 8.75401C19.807 8.89001 20.659 9.96401 20.523 11.146C20.498 11.355 20.444 11.557 20.364 11.745C20.324 11.84 20.33 11.948 20.382 12.037C20.434 12.126 20.524 12.185 20.626 12.197L21.942 12.349Z" fill="#564B57"/>
<path d="M18.559 9.31801C18.138 9.26901 17.72 9.38701 17.386 9.65201C17.053 9.91601 16.843 10.294 16.794 10.717C16.745 11.14 16.864 11.556 17.128 11.889C17.392 12.222 17.771 12.433 18.193 12.481C18.256 12.488 18.318 12.492 18.38 12.492C18.737 12.492 19.082 12.373 19.366 12.147C19.699 11.883 19.909 11.504 19.958 11.082C20.007 10.659 19.889 10.243 19.624 9.90901C19.36 9.57601 18.981 9.36601 18.559 9.31701V9.31801ZM19.31 11.008C19.282 11.257 19.158 11.481 18.961 11.637C18.764 11.793 18.519 11.864 18.268 11.834C18.019 11.805 17.796 11.681 17.639 11.484C17.483 11.287 17.413 11.042 17.442 10.792C17.47 10.543 17.594 10.319 17.791 10.163C17.959 10.03 18.162 9.96001 18.373 9.96001C18.41 9.96001 18.447 9.96201 18.484 9.96601C18.733 9.99501 18.957 10.119 19.113 10.315C19.269 10.512 19.339 10.758 19.31 11.008Z" fill="#564B57"/>
<path d="M13.1251 25.343C13.2861 25.362 13.4471 25.371 13.6071 25.371C14.5341 25.371 15.4281 25.061 16.1651 24.476C17.0291 23.79 17.5751 22.809 17.7011 21.713C17.8281 20.617 17.5201 19.537 16.8341 18.673C16.1481 17.809 15.1671 17.263 14.0711 17.136C12.9761 17.01 11.8961 17.317 11.0311 18.003C10.1671 18.689 9.62105 19.67 9.49505 20.766C9.23505 23.028 10.8631 25.081 13.1251 25.342V25.343ZM10.1421 20.841C10.2491 19.918 10.7081 19.091 11.4361 18.514C12.1641 17.936 13.0731 17.677 13.9961 17.784C14.9191 17.891 15.7461 18.35 16.3231 19.078C16.9001 19.806 17.1601 20.715 17.0531 21.638C16.9461 22.561 16.4871 23.388 15.7591 23.965C15.0311 24.543 14.1221 24.802 13.1991 24.695C11.2941 24.475 9.92305 22.746 10.1421 20.841Z" fill="#564B57"/>
<path d="M11.1781 22.09L12.3551 22.226L12.2191 23.403C12.2091 23.489 12.2341 23.575 12.2871 23.643C12.3411 23.711 12.4191 23.754 12.5051 23.764L14.0881 23.946C14.1011 23.947 14.1131 23.948 14.1261 23.948C14.2891 23.948 14.4301 23.826 14.4491 23.659L14.5851 22.482L15.7621 22.618C15.9401 22.638 16.1031 22.511 16.1231 22.332L16.3061 20.749C16.3161 20.663 16.2911 20.577 16.2381 20.509C16.1841 20.441 16.1061 20.398 16.0201 20.388L14.8431 20.252L14.9791 19.075C15.0001 18.896 14.8711 18.734 14.6931 18.714L13.1091 18.531C13.0231 18.521 12.9371 18.546 12.8691 18.599C12.8011 18.652 12.7581 18.731 12.7481 18.817L12.6121 19.994L11.4361 19.859C11.2571 19.839 11.0961 19.967 11.0751 20.145L10.8921 21.728C10.8821 21.814 10.9071 21.9 10.9601 21.968C11.0141 22.036 11.0921 22.079 11.1781 22.089V22.09ZM11.6851 20.545L12.8611 20.68C13.0421 20.701 13.2011 20.572 13.2221 20.394L13.3581 19.217L14.2941 19.325L14.1581 20.502C14.1371 20.681 14.2661 20.843 14.4441 20.863L15.6211 20.999L15.5131 21.934L14.3361 21.798C14.2491 21.788 14.1641 21.813 14.0961 21.866C14.0281 21.92 13.9851 21.998 13.9751 22.084L13.8391 23.261L12.9041 23.154L13.0401 21.977C13.0611 21.798 12.9321 21.636 12.7541 21.616L11.5771 21.48L11.6851 20.545Z" fill="#564B57"/>
<path d="M19.2861 20.78L24.7981 21.416C24.8111 21.417 24.8231 21.418 24.8361 21.418C24.9991 21.418 25.1401 21.296 25.1591 21.129C25.1801 20.95 25.0511 20.788 24.8721 20.768L19.3601 20.132C19.1821 20.112 19.0191 20.24 18.9991 20.419C18.9781 20.598 19.1071 20.76 19.2861 20.78Z" fill="#564B57"/>
<path d="M19.1039 22.362L24.6169 22.998C24.6299 22.999 24.6419 23 24.6549 23C24.8179 23 24.9589 22.878 24.9779 22.711C24.9989 22.532 24.8699 22.37 24.6909 22.35L19.1779 21.714C18.9999 21.694 18.8369 21.822 18.8169 22.001C18.7959 22.18 18.9249 22.342 19.1039 22.362Z" fill="#564B57"/>
<path d="M18.9211 23.945L24.4341 24.581C24.4471 24.582 24.4591 24.583 24.4721 24.583C24.6351 24.583 24.7761 24.461 24.7951 24.294C24.8161 24.115 24.6871 23.953 24.5081 23.933L18.9951 23.297C18.8171 23.276 18.6541 23.405 18.6341 23.584C18.6131 23.763 18.7421 23.925 18.9211 23.945Z" fill="#564B57"/>
<path d="M9.10198 27.016L23.954 28.729C23.967 28.73 23.979 28.731 23.992 28.731C24.155 28.731 24.296 28.609 24.315 28.442C24.336 28.263 24.207 28.101 24.028 28.081L9.17598 26.368C8.99798 26.348 8.83498 26.476 8.81498 26.655C8.79398 26.834 8.92298 26.996 9.10198 27.016Z" fill="#564B57"/>
<path d="M8.92889 28.516L23.7809 30.229C23.7939 30.23 23.8059 30.231 23.8189 30.231C23.9819 30.231 24.1229 30.109 24.1419 29.942C24.1629 29.763 24.0339 29.601 23.8549 29.581L9.00289 27.868C8.82489 27.848 8.66189 27.976 8.64189 28.155C8.62089 28.334 8.74989 28.496 8.92889 28.516Z" fill="#564B57"/>
<path d="M8.75604 30.017L23.608 31.731C23.621 31.732 23.633 31.733 23.646 31.733C23.809 31.733 23.95 31.611 23.969 31.444C23.99 31.265 23.861 31.103 23.682 31.083L8.83004 29.369C8.65204 29.349 8.48904 29.477 8.46904 29.655C8.44804 29.834 8.57704 29.996 8.75504 30.016L8.75604 30.017Z" fill="#564B57"/>
<path d="M8.58294 31.518L23.4349 33.232C23.4479 33.233 23.4599 33.234 23.4729 33.234C23.6359 33.234 23.7769 33.112 23.7959 32.945C23.8169 32.766 23.6879 32.604 23.5089 32.584L8.65694 30.87C8.47894 30.849 8.31594 30.978 8.29594 31.156C8.27494 31.335 8.40394 31.497 8.58194 31.517L8.58294 31.518Z" fill="#564B57"/>
<path d="M23.3001 34.735C23.4631 34.735 23.6041 34.613 23.6231 34.446C23.6441 34.267 23.5151 34.105 23.3361 34.085L8.48409 32.371C8.30609 32.351 8.14309 32.479 8.12309 32.657C8.10209 32.836 8.23109 32.998 8.40909 33.018L23.2611 34.732C23.2741 34.733 23.2861 34.734 23.2991 34.734L23.3001 34.735Z" fill="#564B57"/>
<path d="M19.8629 40.795C20.0689 40.875 20.2839 40.914 20.4989 40.914C20.7409 40.914 20.9839 40.863 21.2119 40.762C21.6429 40.571 21.9729 40.224 22.1429 39.785C22.3129 39.346 22.3009 38.867 22.1109 38.436C21.7179 37.547 20.6739 37.144 19.7849 37.537C18.8959 37.93 18.4929 38.974 18.8859 39.863C19.0769 40.294 19.4239 40.624 19.8629 40.794V40.795ZM20.0489 38.134C20.1949 38.069 20.3469 38.039 20.4969 38.039C20.9239 38.039 21.3309 38.286 21.5149 38.701C21.6349 38.972 21.6419 39.274 21.5349 39.551C21.4279 39.828 21.2199 40.046 20.9479 40.167C20.3869 40.415 19.7299 40.161 19.4819 39.601C19.2339 39.041 19.4879 38.383 20.0479 38.135L20.0489 38.134Z" fill="#564B57"/>
</svg>
