<svg width="34" height="34" viewBox="0 0 34 34" fill="none" xmlns="http://www.w3.org/2000/svg">
<path d="M25.4822 9.41421C25.6968 9.94575 26.4701 10.6424 26.9506 10.9057C26.2106 11.3186 25.6972 11.9861 25.4822 12.3869C25.1422 11.6726 24.3156 11.0356 23.9945 10.9057C24.3961 10.7364 25.2367 10.0379 25.4822 9.41421ZM25.4883 7.99226C25.3054 7.9881 25.1422 8.11201 25.0973 8.29146C24.8037 9.37946 23.9579 10.2272 22.8699 10.5185C22.4744 10.6246 22.4744 11.1879 22.8699 11.294C23.9583 11.5853 24.8037 12.4308 25.0973 13.5195C25.2034 13.9151 25.7644 13.9151 25.8706 13.5195C26.1615 12.4311 27.0115 11.5853 28.0995 11.294C28.495 11.1879 28.495 10.6246 28.0995 10.5185C27.0111 10.2272 26.1611 9.37984 25.8706 8.29146C25.8245 8.11579 25.6696 7.99415 25.4883 7.99226Z" fill="#008D5C"/>
<path fill-rule="evenodd" clip-rule="evenodd" d="M7.08947 11.7047C7.22358 11.707 7.36903 11.7141 7.50843 11.7187C7.47518 12.1716 7.48349 12.6318 7.52845 13.0961C6.73738 13.1372 6.16505 13.2706 5.80843 13.5566C5.61576 13.7096 5.48014 13.92 5.45294 14.1916C5.42498 14.4636 5.51565 14.7745 5.67129 15.0533C5.98409 15.6143 6.53301 16.1236 7.30783 16.6849C8.08341 17.2456 9.09283 17.836 10.3346 18.4533C15.3005 20.9251 22.1617 22.8824 25.9746 22.8865C26.9285 22.8865 27.6119 22.7728 28.0561 22.5088C28.279 22.3765 28.4456 22.2039 28.5223 21.9595C28.6013 21.7154 28.568 21.4072 28.4456 21.1193C28.2057 20.5451 27.7018 20.0355 26.9802 19.4805C26.3346 18.9849 25.4884 18.4594 24.4612 17.9127C24.5991 17.5935 24.7608 17.2716 24.9557 16.8976H24.9572C27.5839 18.2984 29.4906 19.723 30.4747 20.8858C30.9662 21.4665 31.2162 21.9621 31.2729 22.3516C31.3319 22.7388 31.2317 23.0773 30.8657 23.4003C30.1335 24.0437 28.4063 24.3625 26.0807 24.2303C23.7529 24.0966 20.8296 23.5416 17.679 22.5855C14.529 21.627 11.5106 20.3758 9.01576 19.0438C6.52092 17.7099 4.54741 16.2754 3.52401 15.0575C3.01249 14.4496 2.78016 13.9559 2.73521 13.5743C2.68798 13.1905 2.80623 12.8558 3.16021 12.5513C3.77787 12.0175 5.12238 11.6832 7.08947 11.7047ZM12.3546 6.02972C10.389 6.02972 8.82461 7.45621 8.04978 9.36135C7.85296 9.8415 7.70525 10.3545 7.61081 10.8902C5.18132 10.7667 3.47527 11.0712 2.58976 11.8369C2.13529 12.2302 1.89692 12.7776 1.97587 13.4345C2.05407 14.0915 2.42807 14.7995 3.03403 15.5199C4.24858 16.9637 6.30029 18.4144 8.86012 19.7839C11.4218 21.1533 14.4875 22.4204 17.6892 23.3943C20.8923 24.3667 23.8651 24.9333 26.2659 25.0705C28.6663 25.2065 30.4981 24.9428 31.4425 24.1143C31.9125 23.6988 32.1286 23.1185 32.0285 22.4578C31.928 21.7967 31.543 21.1099 30.9601 20.4212C29.823 19.0774 27.8907 17.6585 25.2859 16.2535C25.3603 16.11 25.4196 15.9997 25.4997 15.8365C25.6282 15.5807 25.7381 15.3193 25.8348 15.0594C25.9368 14.7919 25.7302 14.5082 25.4453 14.5263C25.2874 14.5358 25.1518 14.6381 25.0985 14.7877C25.012 15.0239 24.9119 15.2562 24.7974 15.4844C23.9497 17.1821 23.4692 17.8375 23.1843 19.5534C23.1091 20.0003 23.0581 20.4072 23.0109 20.7952C22.9048 21.346 23.7585 21.4502 23.788 20.8892C23.8337 20.5081 23.887 20.1099 23.9591 19.6815C24.0302 19.2584 24.111 18.9123 24.207 18.5991C25.2459 19.1484 26.0804 19.6694 26.6765 20.1265C27.3198 20.6203 27.6836 21.0475 27.7626 21.2674C27.8533 21.5213 27.7154 21.6259 27.5499 21.7441C27.2704 21.9425 26.6489 22.0467 25.7517 22.0467C22.1605 22.0426 15.2899 20.105 10.4634 17.7042C9.25716 17.1043 8.28892 16.5297 7.58285 16.0197C6.87829 15.5104 6.43932 15.0514 6.29161 14.7843C6.15598 14.5403 6.23267 14.4262 6.36678 14.2864C6.53792 14.1036 7.00221 13.9955 7.65954 13.9442C7.79516 14.5837 8.00936 15.2207 8.31612 15.8368C8.55072 16.3053 9.25301 15.9547 9.01841 15.4847C8.05243 13.5524 8.08567 11.3511 8.77625 9.65677C9.46532 7.96244 10.7675 6.8155 12.3534 6.8155C13.6919 6.8155 14.4947 7.2405 15.4191 7.75995C16.342 8.28128 17.373 8.90272 18.9808 9.13921C19.5252 9.25368 19.6495 8.40935 19.0945 8.36212C18.4436 8.26768 17.9102 8.10448 17.43 7.90992C17.9124 7.77959 18.351 7.59712 18.7817 7.42372C19.5595 7.10903 20.3325 6.81588 21.4617 6.81588C22.4813 6.81588 23.3668 7.28432 24.0691 8.07312C24.4189 8.45695 24.9995 7.93901 24.6573 7.54764C23.8345 6.62472 22.7249 6.0301 21.4617 6.0301C20.1927 6.0301 19.28 6.37464 18.4889 6.69575C17.7118 7.01044 17.0605 7.28961 16.2022 7.29981C16.0708 7.22464 15.9389 7.1521 15.8067 7.07692C14.8691 6.54804 13.8657 6.02972 12.3546 6.02972Z" fill="#008D5C"/>
<path d="M18.5606 24.1653C18.3423 24.1695 18.1689 24.3485 18.1734 24.565V25.948C18.1734 27.0262 18.8716 27.8543 19.7805 27.9533C20.6894 28.0515 21.6951 27.4516 22.3702 26.1275C22.4423 25.9839 22.5118 25.8479 22.5768 25.7123C22.6807 25.5132 22.6006 25.2696 22.3974 25.1728C22.1968 25.0765 21.9546 25.1672 21.8685 25.3738C21.8073 25.503 21.7423 25.6333 21.6716 25.7693C21.0955 26.9046 20.371 27.2268 19.8655 27.172C19.36 27.1173 18.9566 26.7138 18.9566 25.948V24.565C18.96 24.3447 18.7813 24.163 18.5606 24.1653Z" fill="#008D5C"/>
<path d="M10.515 21.4034C10.2827 21.4124 10.11 21.6214 10.1433 21.8514C10.305 23.1189 10.5467 24.3644 11.4455 26.1275C12.1206 27.4516 13.1277 28.0515 14.0366 27.9533C14.9456 27.8543 15.6467 27.0262 15.6467 25.948V23.5099C15.6467 23.2938 15.4696 23.1166 15.2527 23.1166C15.0344 23.1166 14.8594 23.2938 14.8594 23.5099V25.948C14.8594 26.7138 14.4579 27.1173 13.9528 27.172C13.4466 27.2268 12.725 26.9046 12.1466 25.7694C11.2887 24.0867 11.0783 22.9848 10.9226 21.7513C10.8988 21.5466 10.7216 21.3928 10.515 21.4034Z" fill="#008D5C"/>
</svg>
