<svg width="34" height="34" viewBox="0 0 34 34" fill="none" xmlns="http://www.w3.org/2000/svg">
<g clip-path="url(#clip0_561_14217)">
<path d="M34 27.5055C34 27.799 33.7623 28.0367 33.4688 28.0367C33.1327 28.0367 32.7589 28.1808 32.2861 28.3641C31.5523 28.6476 30.6392 29.0003 29.3509 29.0003C28.0699 29.0003 27.1588 28.6483 26.4264 28.3661C25.9496 28.1821 25.573 28.0367 25.2324 28.0367C24.8964 28.0367 24.5225 28.1808 24.0497 28.3641C23.3159 28.6476 22.4028 29.0003 21.1145 29.0003C19.8342 29.0003 18.9225 28.6483 18.19 28.3661C17.7132 28.1821 17.3367 28.0367 16.996 28.0367C16.66 28.0367 16.2855 28.1815 15.812 28.3648C15.0795 28.6483 14.1684 29.0003 12.8855 29.0003C11.5972 29.0003 10.6841 28.6476 9.95031 28.3641C9.47684 28.1815 9.10363 28.0367 8.76762 28.0367C8.42695 28.0367 8.05043 28.1821 7.57363 28.3661C6.84117 28.649 5.93008 29.0003 4.6491 29.0003C3.36082 29.0003 2.44773 28.6476 1.71395 28.3641C1.24047 28.1815 0.867266 28.0367 0.53125 28.0367C0.237734 28.0367 0 27.799 0 27.5055C0 27.2119 0.237734 26.9742 0.53125 26.9742C1.06516 26.9742 1.56652 27.1681 2.09711 27.3726C2.78242 27.6376 3.55937 27.9378 4.64977 27.9378C5.73219 27.9378 6.50781 27.6389 7.1918 27.3746C7.7257 27.1688 8.22973 26.9742 8.76828 26.9742C9.30219 26.9742 9.80355 27.1681 10.3341 27.3726C11.0195 27.6376 11.7964 27.9378 12.8868 27.9378C13.9712 27.9378 14.7462 27.6383 15.4302 27.3733C15.9614 27.1681 16.4628 26.9742 16.9973 26.9742C17.5359 26.9742 18.0399 27.1688 18.5738 27.3746C19.2578 27.6389 20.0328 27.9378 21.1159 27.9378C22.2056 27.9378 22.9825 27.6376 23.6685 27.3726C24.1991 27.1674 24.7005 26.9742 25.2344 26.9742C25.7729 26.9742 26.277 27.1688 26.8109 27.3746C27.4948 27.6389 28.2698 27.9378 29.3529 27.9378C30.4426 27.9378 31.2196 27.6376 31.9055 27.3726C32.4361 27.1674 32.9375 26.9742 33.4714 26.9742C33.7623 26.9742 34 27.2119 34 27.5055ZM33.4688 31.5264H0.53125C0.237734 31.5264 0 31.7641 0 32.0576C0 32.3511 0.237734 32.5889 0.53125 32.5889H33.4688C33.7623 32.5889 34 32.3511 34 32.0576C34 31.7641 33.7623 31.5264 33.4688 31.5264ZM34 16.9057C34 17.1992 33.7623 17.4369 33.4688 17.4369H19.0785C19.2432 18.7651 19.5042 19.3003 19.8595 20.0261C20.0016 20.3163 20.1623 20.6457 20.3343 21.0574C20.3343 21.0581 20.3343 21.0581 20.3349 21.0587C20.5129 21.4884 20.6025 21.9492 20.6025 22.4294C20.6025 24.4156 18.9849 26.0319 16.9967 26.0319C15.0125 26.0319 13.3981 24.4162 13.3981 22.4294C13.3981 21.7972 13.5641 21.1763 13.8776 20.6351C14.6306 19.3295 14.8013 18.8115 14.877 17.4376H0.53125C0.237734 17.4376 0 17.1999 0 16.9064C0 16.6128 0.237734 16.3751 0.53125 16.3751H14.9188C14.9467 15.5165 14.9819 14.5164 15.0709 13.4419H0.53125C0.237734 13.4419 0 13.2042 0 12.9107C0 12.6172 0.237734 12.3794 0.53125 12.3794H5.64984C6.0609 10.7326 6.65191 9.2942 7.40961 8.09956C8.41035 6.52241 9.73383 5.31182 11.3442 4.49967C11.5713 4.38545 11.8475 4.44788 12.0029 4.64842C12.159 4.84897 12.1504 5.13252 11.983 5.32377C10.3315 7.2137 9.56051 10.0964 9.20125 12.3788H15.1758C15.6387 8.37315 16.9914 3.69217 21.3921 1.46823C21.6192 1.35401 21.8948 1.41577 22.0509 1.61631C22.2069 1.81686 22.1989 2.09975 22.0323 2.29166C20.0753 4.53819 19.1403 8.50928 18.9338 12.3794H25.7623C26.1734 10.7332 26.7637 9.29487 27.5214 8.10022C28.5208 6.52374 29.8423 5.31249 31.4487 4.50034C31.6751 4.38545 31.9514 4.44788 32.1074 4.64842C32.2635 4.84897 32.2555 5.13186 32.0888 5.32311C30.4473 7.21038 29.673 10.0944 29.3077 12.3794H33.4688C33.7623 12.3794 34 12.6172 34 12.9107C34 13.2042 33.7623 13.4419 33.4688 13.4419H18.8952C18.8753 14.4493 18.9039 15.4374 18.9762 16.3751H33.4688C33.7623 16.3744 34 16.6128 34 16.9057ZM26.86 12.3794H28.232C28.487 10.7219 28.9491 8.73241 29.7932 6.96069C28.4405 8.26889 27.4723 10.0639 26.86 12.3794ZM6.74754 12.3794H8.1268C8.37715 10.7233 8.83734 8.7344 9.68203 6.96268C8.32867 8.27088 7.3598 10.0645 6.74754 12.3794ZM19.3528 21.4651C19.1934 21.0833 19.0466 20.7831 18.9052 20.493C18.5001 19.6649 18.18 19.0114 17.9974 17.3393C17.7152 14.7342 17.7916 11.7499 18.2066 9.1521C18.5267 7.15061 19.042 5.39616 19.726 3.95315C16.2715 7.34452 16.0843 13.1856 15.9754 16.5571L15.9734 16.6248C15.901 18.8109 15.7914 19.4417 14.7966 21.1663C14.5762 21.5468 14.46 21.9831 14.46 22.4287C14.46 23.8292 15.5975 24.9687 16.996 24.9687C18.3985 24.9687 19.5394 23.8292 19.5394 22.4287C19.54 22.09 19.477 21.7653 19.3528 21.4651ZM29.8503 20.8542C29.8503 21.7301 29.1371 22.4433 28.2598 22.4433C27.3826 22.4433 26.6694 21.7308 26.6694 20.8542C26.6694 19.9737 27.3826 19.2578 28.2598 19.2578C29.1371 19.2578 29.8503 19.9737 29.8503 20.8542ZM28.7878 20.8542C28.7878 20.5594 28.5514 20.3203 28.2598 20.3203C27.9683 20.3203 27.7319 20.56 27.7319 20.8542C27.7319 21.1444 27.9683 21.3808 28.2598 21.3808C28.5514 21.3808 28.7878 21.1444 28.7878 20.8542ZM4.14176 20.8542C4.14176 19.9737 4.85895 19.2578 5.73949 19.2578C6.61605 19.2578 7.32992 19.9743 7.32992 20.8542C7.32992 21.7301 6.61672 22.4433 5.73949 22.4433C4.85828 22.4433 4.14176 21.7308 4.14176 20.8542ZM5.20426 20.8542C5.20426 21.1444 5.44465 21.3808 5.73949 21.3808C6.03035 21.3808 6.26742 21.1444 6.26742 20.8542C6.26742 20.5594 6.03102 20.3203 5.73949 20.3203C5.44465 20.3203 5.20426 20.56 5.20426 20.8542ZM11.301 22.7049C12.1776 22.7049 12.8914 23.4215 12.8914 24.3014C12.8914 25.1772 12.1782 25.8905 11.301 25.8905C10.4198 25.8905 9.70328 25.1779 9.70328 24.3014C9.70328 23.4208 10.4198 22.7049 11.301 22.7049ZM10.7658 24.3014C10.7658 24.5915 11.0062 24.828 11.301 24.828C11.5872 24.828 11.8289 24.5869 11.8289 24.3014C11.8289 24.0065 11.5925 23.7674 11.301 23.7674C11.0062 23.7674 10.7658 24.0072 10.7658 24.3014ZM22.699 22.7049C23.5802 22.7049 24.2967 23.4215 24.2967 24.3014C24.2967 25.1772 23.5795 25.8905 22.699 25.8905C21.8224 25.8905 21.1086 25.1779 21.1086 24.3014C21.1086 23.4208 21.8218 22.7049 22.699 22.7049ZM22.1711 24.3014C22.1711 24.5915 22.4075 24.828 22.699 24.828C22.9945 24.828 23.2342 24.5915 23.2342 24.3014C23.2342 24.0065 22.9938 23.7674 22.699 23.7674C22.4075 23.7674 22.1711 24.0072 22.1711 24.3014ZM3.70813 25.3433C3.70813 25.6408 3.9432 25.8758 4.2334 25.8758C4.53156 25.8758 4.76664 25.6408 4.76664 25.3433C4.76664 25.0531 4.53156 24.8187 4.2334 24.8187C3.9432 24.8187 3.70813 25.0537 3.70813 25.3433ZM29.2327 25.3433C29.2327 25.6408 29.4678 25.8758 29.7659 25.8758C30.0561 25.8758 30.2912 25.6408 30.2912 25.3433C30.2912 25.0531 30.0561 24.8187 29.7659 24.8187C29.4684 24.8187 29.2327 25.0537 29.2327 25.3433ZM23.4832 19.5068C23.4832 19.2093 23.2482 18.9742 22.958 18.9742C22.6598 18.9742 22.4247 19.2093 22.4247 19.5068C22.4247 19.797 22.6598 20.0314 22.958 20.0314C23.2482 20.0321 23.4832 19.797 23.4832 19.5068ZM11.5759 19.5068C11.5759 19.2093 11.3409 18.9742 11.0427 18.9742C10.7525 18.9742 10.5174 19.2093 10.5174 19.5068C10.5174 19.797 10.7525 20.0314 11.0427 20.0314C11.3402 20.0321 11.5759 19.797 11.5759 19.5068Z" fill="#008D5C"/>
</g>
<defs>
<clipPath id="clip0_561_14217">
<rect width="34" height="34" fill="white"/>
</clipPath>
</defs>
</svg>
