<svg width="34" height="34" viewBox="0 0 34 34" fill="none" xmlns="http://www.w3.org/2000/svg">
<path d="M23.7956 2.125H10.2168C9.47664 2.12517 8.7668 2.41891 8.24296 2.94177C7.71913 3.46464 7.42407 4.17393 7.42252 4.91406V16.1658C7.35744 20.3911 8.78876 24.5766 12.8168 26.4457C13.4011 26.7262 14.0122 26.9469 14.6408 27.1044V30.8125C14.6412 31.0942 14.7532 31.3643 14.9524 31.5634C15.1516 31.7626 15.4216 31.8747 15.7033 31.875H18.2958C18.5775 31.8747 18.8475 31.7626 19.0467 31.5634C19.2459 31.3643 19.3579 31.0942 19.3583 30.8125V24.6445H19.8665C20.0056 24.6419 20.1382 24.5847 20.2356 24.4854C20.3331 24.386 20.3877 24.2524 20.3877 24.1132C20.3877 23.9741 20.3331 23.8404 20.2356 23.7411C20.1381 23.6418 20.0056 23.5846 19.8664 23.582H14.1329C13.992 23.582 13.8569 23.638 13.7573 23.7376C13.6576 23.8372 13.6017 23.9724 13.6017 24.1133C13.6017 24.2541 13.6576 24.3893 13.7573 24.4889C13.8569 24.5885 13.992 24.6445 14.1329 24.6445H14.6408V25.9921C10.1497 24.8139 8.36681 20.5099 8.48514 16.1657L8.48502 4.91406C8.48624 4.45563 8.66925 4.01639 8.9939 3.69271C9.31855 3.36904 9.75834 3.18735 10.2168 3.1875H23.7956C24.2519 3.18799 24.6895 3.36952 25.0121 3.69224C25.3348 4.01496 25.5163 4.45251 25.5167 4.90887V16.1715C25.5789 19.964 24.3454 23.8143 20.7214 25.4896C20.6586 25.5201 20.6025 25.5626 20.5561 25.6147C20.5098 25.6669 20.4742 25.7276 20.4514 25.7935C20.4286 25.8595 20.4189 25.9292 20.4231 25.9989C20.4272 26.0685 20.445 26.1366 20.4755 26.1994C20.9287 26.958 21.8535 26.0168 22.3557 25.7704C25.6002 23.6293 26.5915 19.9238 26.5792 16.1715V4.90888C26.5784 4.17084 26.2849 3.46325 25.763 2.94135C25.2412 2.41945 24.5336 2.12586 23.7956 2.125ZM15.7033 30.8125V28.9806H18.2963L18.2965 30.8125H15.7033ZM18.2958 24.6445L18.2962 27.9181H15.7033V24.6445H18.2958Z" fill="#008D5C"/>
<path d="M24.2092 14.2856V6.01703C24.2088 5.59448 24.0407 5.18937 23.7419 4.89059C23.4432 4.5918 23.038 4.42374 22.6155 4.42328H11.3843C10.9617 4.42374 10.5566 4.5918 10.2578 4.89059C9.95905 5.18937 9.79099 5.59448 9.79053 6.01703V14.2856C9.79099 14.7082 9.95905 15.1133 10.2578 15.4121C10.5566 15.7109 10.9617 15.8789 11.3843 15.8794H22.6155C23.038 15.8789 23.4432 15.7109 23.7419 15.4121C24.0407 15.1133 24.2088 14.7082 24.2092 14.2856ZM10.853 14.2856V6.01703C10.8532 5.87618 10.9092 5.74113 11.0088 5.64153C11.1084 5.54194 11.2434 5.48592 11.3843 5.48578H22.6155C22.7564 5.48592 22.8914 5.54194 22.991 5.64153C23.0906 5.74113 23.1466 5.87618 23.1467 6.01703V14.2856C23.1466 14.4265 23.0906 14.5615 22.991 14.6611C22.8914 14.7607 22.7564 14.8168 22.6155 14.8169H11.3843C11.2434 14.8168 11.1084 14.7607 11.0088 14.6611C10.9092 14.5615 10.8532 14.4265 10.853 14.2856Z" fill="#008D5C"/>
<path d="M13.6051 18.7909C13.5558 18.7415 13.4973 18.7023 13.4329 18.6755C13.3685 18.6487 13.2994 18.6348 13.2296 18.6347C13.1598 18.6346 13.0907 18.6483 13.0262 18.6749C12.9617 18.7015 12.903 18.7406 12.8536 18.7898L11.2396 20.3981C11.1902 20.4474 11.1509 20.5061 11.1241 20.5706C11.0973 20.6351 11.0835 20.7043 11.0835 20.7742C11.0835 20.8441 11.0973 20.9133 11.1241 20.9779C11.1509 21.0424 11.1902 21.101 11.2396 21.1504L12.8536 22.7586C12.903 22.808 12.9616 22.8472 13.0261 22.8739C13.0906 22.9006 13.1598 22.9143 13.2296 22.9143C13.2994 22.9142 13.3686 22.9004 13.4331 22.8736C13.4975 22.8468 13.5561 22.8076 13.6054 22.7582C13.6547 22.7087 13.6938 22.6501 13.7204 22.5855C13.747 22.5209 13.7606 22.4518 13.7605 22.3819C13.7603 22.3121 13.7464 22.243 13.7195 22.1786C13.6927 22.1141 13.6533 22.0556 13.6038 22.0064L12.3673 20.7742L13.6038 19.5421C13.7036 19.4426 13.7597 19.3076 13.76 19.1668C13.7602 19.0259 13.7045 18.8907 13.6051 18.7909Z" fill="#008D5C"/>
<path d="M20.3942 22.7576C20.4435 22.807 20.502 22.8463 20.5665 22.8731C20.6309 22.8999 20.7 22.9137 20.7698 22.9138C20.8395 22.9139 20.9087 22.9002 20.9732 22.8736C21.0377 22.847 21.0963 22.808 21.1457 22.7587L22.7597 21.1504C22.8092 21.1011 22.8485 21.0425 22.8753 20.9779C22.9021 20.9134 22.9159 20.8442 22.9159 20.7743C22.9159 20.7044 22.9021 20.6352 22.8753 20.5707C22.8485 20.5061 22.8092 20.4475 22.7597 20.3982L21.1457 18.7899C21.0964 18.7404 21.0378 18.7011 20.9732 18.6743C20.9087 18.6475 20.8395 18.6337 20.7696 18.6337C20.6997 18.6337 20.6305 18.6474 20.5659 18.6742C20.5013 18.701 20.4427 18.7403 20.3933 18.7898C20.344 18.8393 20.3049 18.898 20.2783 18.9626C20.2517 19.0273 20.2381 19.0965 20.2383 19.1664C20.2385 19.2363 20.2525 19.3055 20.2795 19.3699C20.3065 19.4344 20.3459 19.4929 20.3955 19.5421L21.6321 20.7743L20.3955 22.0064C20.2958 22.1059 20.2396 22.2409 20.2394 22.3818C20.2391 22.5226 20.2948 22.6578 20.3942 22.7576Z" fill="#008D5C"/>
<path d="M14.2901 7.08627C13.9309 7.08277 13.5781 7.18219 13.2735 7.37276C12.9689 7.56334 12.7253 7.83711 12.5713 8.16174C12.5157 8.28938 12.5123 8.43378 12.5621 8.56386C12.6118 8.69393 12.7106 8.79927 12.8372 8.85721C12.9639 8.91515 13.1082 8.92106 13.2391 8.87365C13.3701 8.82624 13.4772 8.72932 13.5374 8.60374C13.8482 7.87887 15.1128 8.08245 15.1041 8.88447C15.093 9.08969 15.0011 9.28218 14.8487 9.41998C14.6962 9.55778 14.4954 9.62971 14.2901 9.62009H13.9487C13.8079 9.62009 13.6727 9.67607 13.5731 9.77569C13.4735 9.87532 13.4175 10.0104 13.4175 10.1513C13.4175 10.2922 13.4735 10.4274 13.5731 10.527C13.6727 10.6266 13.8079 10.6826 13.9487 10.6826H14.2901C14.3921 10.6737 14.4948 10.6861 14.5917 10.7191C14.6887 10.752 14.7777 10.8048 14.8531 10.8739C14.9286 10.9431 14.9889 11.0272 15.0301 11.1209C15.0713 11.2146 15.0926 11.3159 15.0926 11.4183C15.0926 11.5206 15.0713 11.6219 15.0301 11.7156C14.9888 11.8093 14.9286 11.8934 14.8531 11.9626C14.7777 12.0318 14.6886 12.0845 14.5917 12.1174C14.4948 12.1504 14.3921 12.1628 14.2901 12.1539C14.1343 12.1576 13.9806 12.1166 13.8473 12.0359C13.7139 11.9552 13.6064 11.8381 13.5373 11.6984C13.4786 11.5703 13.3713 11.4708 13.2392 11.4218C13.1071 11.3728 12.9609 11.3782 12.8328 11.4369C11.8323 12.0922 13.5029 13.3322 14.2901 13.2164C14.7772 13.226 15.2482 13.0421 15.5999 12.7051C15.9517 12.368 16.1555 11.9053 16.1666 11.4182C16.1658 11.1811 16.1169 10.9466 16.0229 10.7288C15.9289 10.5111 15.7918 10.3146 15.6198 10.1513C15.874 9.89634 16.0457 9.57087 16.1127 9.21712C16.1797 8.86336 16.139 8.49764 15.9957 8.16733C15.8524 7.83703 15.6132 7.55738 15.3091 7.36462C15.005 7.17187 14.65 7.07489 14.2901 7.08627Z" fill="#008D5C"/>
<path d="M21.5105 12.1539H21.125V7.61753C21.125 7.51885 21.0975 7.42212 21.0456 7.33819C20.9937 7.25426 20.9194 7.18644 20.8311 7.14233C20.7429 7.09822 20.644 7.07956 20.5458 7.08845C20.4475 7.09733 20.3536 7.13341 20.2747 7.19263L19.2485 7.96357C19.1389 8.04929 19.0673 8.17458 19.049 8.31252C19.0308 8.45047 19.0674 8.59007 19.1509 8.70134C19.2345 8.81261 19.3583 8.88667 19.4959 8.90761C19.6335 8.92855 19.7738 8.8947 19.8866 8.81334L20.0625 8.68106V12.1539H19.677C19.5379 12.1566 19.4054 12.2138 19.308 12.3131C19.2106 12.4125 19.156 12.546 19.156 12.6852C19.156 12.8243 19.2106 12.9579 19.308 13.0572C19.4055 13.1565 19.5379 13.2137 19.677 13.2164H21.5104C21.6495 13.2137 21.782 13.1565 21.8794 13.0572C21.9768 12.9578 22.0313 12.8243 22.0313 12.6852C22.0313 12.5461 21.9768 12.4125 21.8794 12.3132C21.782 12.2138 21.6495 12.1567 21.5105 12.1539Z" fill="#008D5C"/>
<path d="M17.6015 11.9839C17.4535 11.9859 17.3122 12.0461 17.2082 12.1515C17.1042 12.2568 17.0459 12.3989 17.0459 12.547C17.0459 12.695 17.1042 12.8371 17.2082 12.9425C17.3122 13.0479 17.4535 13.1081 17.6015 13.1101C17.7495 13.1081 17.8908 13.0479 17.9948 12.9425C18.0988 12.8371 18.1571 12.695 18.1571 12.547C18.1571 12.3989 18.0988 12.2568 17.9948 12.1515C17.8908 12.0461 17.7495 11.9859 17.6015 11.9839Z" fill="#008D5C"/>
</svg>
