<svg width="18" height="24" viewBox="0 0 18 24" fill="none" xmlns="http://www.w3.org/2000/svg">
<path d="M14.7907 3.08545H2.52527C1.72801 3.08545 1.08228 3.69916 1.08228 4.45688V21.5997C1.08228 22.3575 1.72801 22.9712 2.52527 22.9712H14.7907C15.588 22.9712 16.2337 22.3575 16.2337 21.5997V4.45688C16.2337 3.69916 15.588 3.08545 14.7907 3.08545Z" fill="#9B9FB1"/>
<path d="M1.56387 21.5997V4.45688C1.56387 3.69916 2.16813 3.08545 2.91488 3.08545H2.52527C1.72801 3.08545 1.08228 3.69916 1.08228 4.45688V21.5997C1.08228 22.3575 1.72801 22.9712 2.52527 22.9712H2.91488C2.16813 22.9712 1.56387 22.3575 1.56387 21.5997Z" fill="#BCBFCB"/>
<path d="M14.7907 3.08545H14.4011C15.1479 3.08545 15.7521 3.69916 15.7521 4.45688V21.5997C15.7521 22.3575 15.1479 22.9712 14.4011 22.9712H14.7907C15.588 22.9712 16.2337 22.3575 16.2337 21.5997V4.45688C16.2337 3.69916 15.588 3.08545 14.7907 3.08545Z" fill="#888B9B"/>
<path d="M14.7907 23.1426H2.52522C1.63057 23.1426 0.901855 22.4501 0.901855 21.5998V4.45692C0.901855 3.60663 1.63057 2.91406 2.52522 2.91406H14.7907C15.6853 2.91406 16.414 3.60663 16.414 4.45692V21.5998C16.414 22.4501 15.6853 23.1426 14.7907 23.1426ZM2.52522 3.25692C1.82898 3.25692 1.2626 3.79521 1.2626 4.45692V21.5998C1.2626 22.2615 1.82898 22.7998 2.52522 22.7998H14.7907C15.4869 22.7998 16.0533 22.2615 16.0533 21.5998V4.45692C16.0533 3.79521 15.4869 3.25692 14.7907 3.25692H2.52522Z" fill="#231F20"/>
<path d="M14.6103 22.1143H2.70563C2.307 22.1143 1.98413 21.8074 1.98413 21.4286V4.62859C1.98413 4.24973 2.307 3.94287 2.70563 3.94287H14.6103C15.0089 3.94287 15.3318 4.24973 15.3318 4.62859V21.4286C15.3318 21.8074 15.0089 22.1143 14.6103 22.1143Z" fill="#F2F2F3"/>
<path d="M2.57035 21.4286V4.62859C2.57035 4.24973 2.86436 3.94287 3.22871 3.94287H2.70563C2.307 3.94287 1.98413 4.24973 1.98413 4.62859V21.4286C1.98413 21.8074 2.307 22.1143 2.70563 22.1143H3.22871C2.86436 22.1143 2.57035 21.8074 2.57035 21.4286Z" fill="white"/>
<path d="M14.6102 3.94287H14.0872C14.4515 3.94287 14.7455 4.24973 14.7455 4.62859V21.4286C14.7455 21.8074 14.4515 22.1143 14.0872 22.1143H14.6102C15.0089 22.1143 15.3317 21.8074 15.3317 21.4286V4.62859C15.3317 4.24973 15.0089 3.94287 14.6102 3.94287Z" fill="#D4D4D5"/>
<path d="M14.6103 22.2853H2.70558C2.20775 22.2853 1.80371 21.9013 1.80371 21.4281V4.62814C1.80371 4.155 2.20775 3.771 2.70558 3.771H14.6103C15.1081 3.771 15.5121 4.155 15.5121 4.62814V21.4281C15.5121 21.9013 15.1081 22.2853 14.6103 22.2853ZM2.70558 4.11385C2.40796 4.11385 2.16446 4.34528 2.16446 4.62814V21.4281C2.16446 21.711 2.40796 21.9424 2.70558 21.9424H14.6103C14.9079 21.9424 15.1514 21.711 15.1514 21.4281V4.62814C15.1514 4.34528 14.9079 4.11385 14.6103 4.11385H2.70558Z" fill="#231F20"/>
<path d="M11.9046 3.20032V1.71403C11.9046 1.33518 11.5817 1.02832 11.1831 1.02832H6.13264C5.73402 1.02832 5.41115 1.33518 5.41115 1.71403V3.08546L4.50928 5.14261H12.8065L11.9046 3.20032Z" fill="#689BE9"/>
<path d="M13.528 20.4H3.7878C3.68859 20.4 3.60742 20.3228 3.60742 20.2286C3.60742 20.1343 3.68859 20.0571 3.7878 20.0571H13.528C13.6272 20.0571 13.7084 20.1343 13.7084 20.2286C13.7084 20.3228 13.6272 20.4 13.528 20.4Z" fill="#231F20"/>
<path d="M13.528 18.5997H3.7878C3.68859 18.5997 3.60742 18.5226 3.60742 18.4283C3.60742 18.334 3.68859 18.2568 3.7878 18.2568H13.528C13.6272 18.2568 13.7084 18.334 13.7084 18.4283C13.7084 18.5226 13.6272 18.5997 13.528 18.5997Z" fill="#231F20"/>
<path d="M13.528 16.7999H3.7878C3.68859 16.7999 3.60742 16.7227 3.60742 16.6285C3.60742 16.5342 3.68859 16.457 3.7878 16.457H13.528C13.6272 16.457 13.7084 16.5342 13.7084 16.6285C13.7084 16.7227 13.6272 16.7999 13.528 16.7999Z" fill="#231F20"/>
<path d="M13.528 14.9996H3.7878C3.68859 14.9996 3.60742 14.9225 3.60742 14.8282C3.60742 14.7339 3.68859 14.6567 3.7878 14.6567H13.528C13.6272 14.6567 13.7084 14.7339 13.7084 14.8282C13.7084 14.9225 13.6272 14.9996 13.528 14.9996Z" fill="#231F20"/>
<path d="M13.528 13.1998H3.7878C3.68859 13.1998 3.60742 13.1226 3.60742 13.0284C3.60742 12.9341 3.68859 12.8569 3.7878 12.8569H13.528C13.6272 12.8569 13.7084 12.9341 13.7084 13.0284C13.7084 13.1226 13.6272 13.1998 13.528 13.1998Z" fill="#231F20"/>
<path d="M8.65787 12.1714C10.451 12.1714 11.9046 10.7899 11.9046 9.08571C11.9046 7.38152 10.451 6 8.65787 6C6.86474 6 5.41113 7.38152 5.41113 9.08571C5.41113 10.7899 6.86474 12.1714 8.65787 12.1714Z" fill="#FAFFF5"/>
<path d="M10.5286 8.40133H9.37777V7.30762H7.93838V8.40133H6.7876V9.76933H7.93838V10.863H9.37777V9.76933H10.5286V8.40133Z" fill="#F2591F"/>
<path d="M9.37772 11.0345H7.93834C7.83913 11.0345 7.75796 10.9574 7.75796 10.8631V9.9408H6.78755C6.68835 9.9408 6.60718 9.86366 6.60718 9.76937V8.40137C6.60718 8.30709 6.68835 8.22994 6.78755 8.22994H7.75796V7.30766C7.75796 7.21337 7.83913 7.13623 7.93834 7.13623H9.37772C9.47693 7.13623 9.5581 7.21337 9.5581 7.30766V8.22994H10.5285C10.6277 8.22994 10.7089 8.30709 10.7089 8.40137V9.76937C10.7089 9.86366 10.6277 9.9408 10.5285 9.9408H9.5581V10.8631C9.5581 10.9574 9.47693 11.0345 9.37772 11.0345ZM8.11871 10.6917H9.19735V9.76937C9.19735 9.67509 9.27852 9.59794 9.37772 9.59794H10.3481V8.5728H9.37772C9.27852 8.5728 9.19735 8.49566 9.19735 8.40137V7.47909H8.11871V8.40137C8.11871 8.49566 8.03754 8.5728 7.93834 8.5728H6.96793V9.59794H7.93834C8.03754 9.59794 8.11871 9.67509 8.11871 9.76937V10.6917Z" fill="#231F20"/>
<path d="M11.9047 3.20032V1.71403C11.9047 1.33518 11.5819 1.02832 11.1832 1.02832H9.74023C10.1389 1.02832 10.4617 1.33518 10.4617 1.71403V3.20032L11.3636 5.14261H12.8066L11.9047 3.20032Z" fill="#4270B7"/>
<path d="M12.8065 5.31408H4.5093C4.44978 5.31408 4.39206 5.28493 4.35959 5.23693C4.32712 5.18893 4.31991 5.12893 4.34336 5.07579L5.2308 3.05122V1.71408C5.2308 1.24093 5.63484 0.856934 6.13267 0.856934H11.1831C11.681 0.856934 12.085 1.24093 12.085 1.71408V3.16436L12.9725 5.07236C12.9977 5.1255 12.9923 5.18722 12.958 5.23522C12.9238 5.28322 12.8678 5.31408 12.8065 5.31408ZM4.77986 4.97122H12.5305L11.7405 3.27065C11.7297 3.24836 11.7261 3.22436 11.7261 3.20208V1.71408C11.7261 1.43122 11.4826 1.19979 11.1849 1.19979H6.13267C5.83505 1.19979 5.59155 1.43122 5.59155 1.71408V3.08551C5.59155 3.10779 5.58613 3.13008 5.57712 3.15065L4.77986 4.97122Z" fill="#231F20"/>
<path d="M6.6523 4.13456C6.55309 4.13456 6.47192 4.05741 6.47192 3.96313V2.16313C6.47192 2.06884 6.55309 1.9917 6.6523 1.9917C6.7515 1.9917 6.83267 2.06884 6.83267 2.16313V3.96313C6.83267 4.05913 6.7515 4.13456 6.6523 4.13456Z" fill="#B8CFF3"/>
<path d="M5.77188 9.50914C5.77188 7.80514 7.2257 6.42343 9.01861 6.42343C9.93852 6.42343 10.7682 6.78857 11.3581 7.37314C10.7755 6.54514 9.7834 6 8.65787 6C6.86495 6 5.41113 7.38171 5.41113 9.08571C5.41113 9.91543 5.75745 10.668 6.31841 11.2217C5.9739 10.7314 5.77188 10.1434 5.77188 9.50914Z" fill="#DBDFD6"/>
<path d="M8.65782 12.3424C6.7675 12.3424 5.23071 10.8818 5.23071 9.08527C5.23071 7.2887 6.7675 5.82812 8.65782 5.82812C10.5481 5.82812 12.0849 7.2887 12.0849 9.08527C12.0849 10.8818 10.5481 12.3424 8.65782 12.3424ZM8.65782 6.17098C6.96772 6.17098 5.59146 7.47898 5.59146 9.08527C5.59146 10.6916 6.96772 11.9996 8.65782 11.9996C10.3479 11.9996 11.7242 10.6916 11.7242 9.08527C11.7242 7.47898 10.3479 6.17098 8.65782 6.17098Z" fill="#231F20"/>
</svg>
