<svg width="34" height="34" viewBox="0 0 34 34" fill="none" xmlns="http://www.w3.org/2000/svg">
<path d="M3.18735 25.7205C3.18528 25.5809 3.1284 25.4478 3.02899 25.3499C2.92959 25.2519 2.79564 25.197 2.6561 25.197C2.51655 25.197 2.38261 25.2519 2.2832 25.3499C2.1838 25.4478 2.12692 25.5809 2.12485 25.7205C2.12485 29.2491 4.10225 30.4049 4.46129 30.5855C7.36909 32.6046 12.4071 31.9134 14.0401 28.6197C14.5422 27.6654 14.6775 26.6408 15.002 25.6585C16.1427 22.5558 19.3351 20.9398 20.5993 17.8934C21.9507 14.4495 21.4131 10.0352 19.7233 6.89768C17.3101 2.07538 11.3068 0.958402 6.90733 3.81682C3.76561 5.971 2.08046 10.2301 2.12488 14.1922C2.12737 14.3315 2.18444 14.4642 2.2838 14.5618C2.38316 14.6594 2.51686 14.714 2.65613 14.714C2.7954 14.714 2.9291 14.6594 3.02845 14.5618C3.1278 14.4642 3.18486 14.3315 3.18735 14.1922C3.16741 12.3102 3.54853 10.4455 4.30536 8.72229C4.98323 7.11184 6.09052 5.71857 7.50635 4.69459C11.3675 2.16898 16.6931 3.1453 18.7904 7.40667C20.3328 10.2701 20.8424 14.3309 19.6167 17.4889C18.3344 20.421 15.0722 22.1456 13.994 25.3221C13.391 27.7969 12.77 29.7793 9.9407 30.4791C9.09433 30.6917 8.21308 30.7267 7.35252 30.5818C6.49195 30.437 5.67073 30.1154 4.94063 29.6374C4.92299 29.6299 3.18735 28.8325 3.18735 25.7205Z" fill="#008D5C"/>
<path d="M5.1123 21.1213C4.97141 21.1213 4.83629 21.1773 4.73666 21.2769C4.63703 21.3766 4.58106 21.5117 4.58105 21.6526V23.0012C4.5865 23.4749 4.7308 23.9365 4.99608 24.3289C5.26135 24.7213 5.63594 25.0273 6.07343 25.2089C6.51092 25.3905 6.99207 25.4397 7.45727 25.3505C7.92247 25.2613 8.35126 25.0375 8.69052 24.707C9.39064 24.0844 9.44449 23.0763 9.4004 22.1986C9.40431 21.7287 9.53099 21.2679 9.76788 20.8621C10.0048 20.4562 10.3436 20.1193 10.7509 19.8848C12.1552 19.1072 13.8386 19.308 14.5449 17.2944C14.7952 16.4621 14.8023 15.5755 14.5653 14.7392C14.3284 13.903 13.8572 13.1519 13.2074 12.5746C12.3775 11.8985 11.389 11.445 10.3352 11.2569C9.28143 11.0688 8.19708 11.1524 7.18454 11.4997C7.68463 9.32524 10.0699 6.80978 13.4163 7.75442C15.4468 8.45227 16.785 10.6914 16.6706 13.2001C16.6653 13.3402 16.7156 13.4767 16.8106 13.5799C16.9055 13.6831 17.0374 13.7445 17.1774 13.7509C17.3175 13.7573 17.4544 13.708 17.5583 13.6139C17.6622 13.5197 17.7247 13.3883 17.7321 13.2483C17.8675 10.272 16.2348 7.59962 13.7617 6.74957C11.0427 5.81547 8.66452 7.54489 8.40227 7.74488C5.96755 9.60504 5.20308 13.3235 6.54342 16.7873C6.59603 16.9162 6.69714 17.0193 6.82501 17.0745C6.95287 17.1296 7.09727 17.1323 7.22712 17.0821C7.35698 17.0318 7.46193 16.9326 7.51938 16.8058C7.57683 16.6789 7.5822 16.5346 7.53433 16.4039C7.07757 15.2427 6.88678 13.9939 6.97599 12.7493C7.8572 12.3037 8.84928 12.1249 9.83062 12.2347C10.812 12.3446 11.74 12.7383 12.5008 13.3678C12.9975 13.8046 13.359 14.3742 13.5428 15.0096C13.7266 15.6449 13.7251 16.3196 13.5384 16.9541C13.0689 18.4099 11.3699 18.2282 10.2168 18.9663C9.64902 19.2945 9.17692 19.7655 8.84735 20.3325C8.51778 20.8995 8.34217 21.5428 8.33796 22.1986V23.0012C8.33726 23.358 8.19501 23.7 7.94244 23.9521C7.68987 24.2041 7.34761 24.3457 6.99078 24.3457C6.63394 24.3457 6.29168 24.2041 6.03911 23.9521C5.78654 23.7 5.6443 23.358 5.64359 23.0012V21.6526C5.64358 21.5117 5.5876 21.3766 5.48797 21.2769C5.38833 21.1773 5.2532 21.1213 5.1123 21.1213Z" fill="#008D5C"/>
<path d="M26.6171 19.0653C26.7214 19.0637 26.8229 19.0315 26.9092 18.9729C26.9955 18.9142 27.0628 18.8316 27.1027 18.7352C27.1426 18.6388 27.1535 18.5329 27.1339 18.4304C27.1144 18.3279 27.0653 18.2334 26.9927 18.1584C25.705 16.8678 24.9818 15.1191 24.9818 13.296C24.9818 11.4729 25.705 9.7242 26.9927 8.4336C27.042 8.38427 27.0812 8.32571 27.1078 8.26127C27.1345 8.19682 27.1483 8.12774 27.1483 8.05799C27.1483 7.98823 27.1345 7.91916 27.1078 7.85471C27.0812 7.79026 27.042 7.7317 26.9927 7.68238C26.9434 7.63305 26.8848 7.59392 26.8204 7.56723C26.7559 7.54053 26.6868 7.52679 26.6171 7.52679C26.5473 7.52679 26.4783 7.54053 26.4138 7.56723C26.3494 7.59392 26.2908 7.63305 26.2415 7.68238C24.7548 9.17237 23.9199 11.1912 23.9199 13.296C23.9199 15.4008 24.7548 17.4197 26.2415 18.9097C26.2907 18.9591 26.3493 18.9983 26.4137 19.025C26.4782 19.0517 26.5473 19.0654 26.6171 19.0653Z" fill="#008D5C"/>
<path d="M28.605 17.1637C28.7052 17.2601 28.8393 17.3134 28.9785 17.3121C29.1176 17.3107 29.2506 17.2549 29.349 17.1565C29.4474 17.0581 29.5033 16.925 29.5046 16.7859C29.5059 16.6468 29.4526 16.5127 29.3561 16.4124C28.5309 15.5852 28.0675 14.4645 28.0675 13.296C28.0675 12.1275 28.5309 11.0068 29.3562 10.1796C29.4055 10.1303 29.4446 10.0717 29.4713 10.0073C29.498 9.94282 29.5118 9.87375 29.5118 9.80399C29.5118 9.73423 29.498 9.66516 29.4713 9.60071C29.4446 9.53626 29.4055 9.47771 29.3562 9.42838C29.3069 9.37905 29.2483 9.33993 29.1838 9.31323C29.1194 9.28654 29.0503 9.2728 28.9806 9.2728C28.9108 9.2728 28.8417 9.28654 28.7773 9.31323C28.7128 9.33993 28.6543 9.37905 28.605 9.42838C27.5806 10.4549 27.0054 11.8459 27.0054 13.296C27.0054 14.7462 27.5806 16.1371 28.605 17.1637Z" fill="#008D5C"/>
<path d="M31.3438 15.5733C31.4482 15.5717 31.5497 15.5395 31.636 15.4809C31.7223 15.4222 31.7895 15.3396 31.8295 15.2432C31.8694 15.1469 31.8802 15.0409 31.8607 14.9384C31.8411 14.8359 31.792 14.7414 31.7194 14.6665C31.3566 14.3027 31.1529 13.8098 31.1529 13.2961C31.1529 12.7823 31.3567 12.2895 31.7195 11.9257C31.8159 11.8254 31.8692 11.6913 31.8678 11.5522C31.8665 11.4131 31.8106 11.28 31.7122 11.1817C31.6138 11.0833 31.4808 11.0274 31.3417 11.0261C31.2026 11.0247 31.0685 11.078 30.9682 11.1745C30.4064 11.7376 30.0908 12.5006 30.0908 13.2961C30.0908 14.0916 30.4064 14.8546 30.9682 15.4177C31.0175 15.4671 31.0761 15.5063 31.1405 15.533C31.205 15.5597 31.2741 15.5734 31.3438 15.5733Z" fill="#008D5C"/>
</svg>
