<svg width="20" height="20" viewBox="0 0 20 20" fill="none" xmlns="http://www.w3.org/2000/svg">
<rect width="20" height="20" fill="white"/>
<path d="M14.0166 1.66675H5.98327C4.20827 1.66675 2.7666 3.11675 2.7666 4.88341V16.6251C2.7666 18.1251 3.8416 18.7584 5.15827 18.0334L9.22493 15.7751C9.65827 15.5334 10.3583 15.5334 10.7833 15.7751L14.8499 18.0334C16.1666 18.7667 17.2416 18.1334 17.2416 16.6251V4.88341C17.2333 3.11675 15.7916 1.66675 14.0166 1.66675Z" stroke="#ECF1F8" stroke-width="1.5" stroke-linecap="round" stroke-linejoin="round"/>
<path d="M14.0166 1.66675H5.98327C4.20827 1.66675 2.7666 3.11675 2.7666 4.88341V16.6251C2.7666 18.1251 3.8416 18.7584 5.15827 18.0334L9.22493 15.7751C9.65827 15.5334 10.3583 15.5334 10.7833 15.7751L14.8499 18.0334C16.1666 18.7667 17.2416 18.1334 17.2416 16.6251V4.88341C17.2333 3.11675 15.7916 1.66675 14.0166 1.66675Z" fill="#4270B7"/>
<path d="M7.70801 7.5415C9.19134 8.08317 10.808 8.08317 12.2913 7.5415" stroke="white" stroke-linecap="round" stroke-linejoin="round"/>
</svg>
