<svg width="34" height="34" viewBox="0 0 34 34" fill="none" xmlns="http://www.w3.org/2000/svg">
<path d="M21.3963 6.57229H19.166V4.34204C19.166 4.08531 18.9579 3.8772 18.7012 3.8772H15.2984C15.0417 3.8772 14.8336 4.08531 14.8336 4.34204V6.57223H12.6034C12.3466 6.57223 12.1385 6.78034 12.1385 7.03707V10.4399C12.1385 10.6967 12.3466 10.9048 12.6034 10.9048H14.8336V13.135C14.8336 13.3917 15.0417 13.5998 15.2984 13.5998H18.7012C18.9579 13.5998 19.166 13.3917 19.166 13.135V10.9048H21.3963C21.653 10.9048 21.8611 10.6967 21.8611 10.4399V7.03707C21.8611 6.78041 21.653 6.57229 21.3963 6.57229ZM20.9314 9.97508H18.7012C18.4445 9.97508 18.2363 10.1832 18.2363 10.4399V12.6701H15.7632V10.4399C15.7632 10.1832 15.5551 9.97508 15.2984 9.97508H13.0682V7.50191H15.2984C15.5551 7.50191 15.7632 7.2938 15.7632 7.03707V4.80688H18.2363V7.03707C18.2363 7.2938 18.4445 7.50191 18.7012 7.50191H20.9314V9.97508ZM29.8811 7.86257C29.3996 7.38112 28.7574 7.11596 28.0726 7.11596C27.3879 7.11596 26.7456 7.38112 26.2642 7.86257L25.139 8.98775C25.1415 8.90468 25.1432 8.82161 25.1432 8.73853C25.1431 4.24827 21.4901 0.5952 16.9998 0.5952C12.5095 0.5952 8.85646 4.24827 8.85646 8.73853C8.85646 13.2288 12.5095 16.8819 16.9998 16.8819C17.0829 16.8819 17.166 16.8801 17.249 16.8776L12.828 21.2986C12.6465 21.4802 12.6465 21.7745 12.828 21.956L13.1105 22.2385L3.50824 31.8408C3.32668 32.0223 3.32668 32.3166 3.50824 32.4981C4.096 33.0858 5.167 33.4048 6.31476 33.4047C7.6229 33.4046 9.03058 32.9902 9.9339 32.0868L13.1533 28.8674C13.3211 28.6998 13.327 28.5423 13.3654 27.5182C13.3758 27.2405 13.3873 26.9345 13.4019 26.7362L15.5051 24.6331L15.7876 24.9156C15.8747 25.0027 15.993 25.0517 16.1163 25.0517C16.2395 25.0517 16.3578 25.0028 16.4449 24.9156L29.8809 11.4795C30.3624 10.9981 30.6275 10.3559 30.6275 9.67101C30.6275 8.98616 30.3625 8.34395 29.8811 7.86257ZM16.9998 15.9522C13.0222 15.9522 9.78615 12.7162 9.78615 8.73853C9.78615 4.76086 13.0222 1.52489 16.9998 1.52489C20.9774 1.52489 24.2134 4.76086 24.2134 8.73853C24.2134 9.17203 24.1745 9.6052 24.0982 10.0285L18.2899 15.8368C17.8666 15.9131 17.4334 15.9522 16.9998 15.9522ZM12.6271 26.1963C12.5556 26.2679 12.5094 26.3608 12.4955 26.4609C12.4672 26.664 12.4523 27.062 12.4364 27.4833C12.4265 27.7485 12.4124 28.125 12.3961 28.3098L9.27655 31.4295C8.07167 32.6343 5.68258 32.6894 4.55208 32.1115L13.7679 22.8957L14.8478 23.9756L12.6271 26.1963ZM16.1163 23.9295L13.8141 21.6273L14.9092 20.5322L17.2114 22.8344L16.1163 23.9295ZM29.2237 10.8222L17.8688 22.177L15.5666 19.8749L26.9214 8.51992C27.2273 8.21412 27.6362 8.04565 28.0726 8.04565C28.509 8.04565 28.9179 8.21412 29.2237 8.51992C29.5295 8.82572 29.6979 9.23452 29.6979 9.67101C29.6979 10.1075 29.5295 10.5163 29.2237 10.8222ZM28.3256 9.41793C28.5072 9.59949 28.5072 9.8938 28.3256 10.0753L23.6594 14.7415C23.5687 14.8323 23.4497 14.8777 23.3308 14.8777C23.2118 14.8777 23.0928 14.8322 23.0021 14.7415C22.8206 14.56 22.8206 14.2657 23.0021 14.0842L27.6684 9.41793C27.8498 9.23638 28.1442 9.23638 28.3256 9.41793Z" fill="#008D5C"/>
</svg>
