<svg width="34" height="34" viewBox="0 0 34 34" fill="none" xmlns="http://www.w3.org/2000/svg">
<path d="M18.9537 8.49382C21.1534 8.49382 22.942 6.70418 22.942 4.50552C22.942 2.30376 21.1534 0.515152 18.9537 0.515152C16.753 0.515152 14.9634 2.30376 14.9634 4.50552C14.9644 6.70418 16.753 8.49382 18.9537 8.49382ZM18.9537 1.51558C20.6022 1.51558 21.9416 2.85703 21.9416 4.50552C21.9416 6.15297 20.6012 7.49339 18.9537 7.49339C17.3053 7.49339 15.9628 6.15194 15.9628 4.50552C15.9638 2.856 17.3053 1.51558 18.9537 1.51558Z" fill="#008D5C"/>
<path d="M26.138 20.9316C25.9927 20.4443 25.6548 20.0064 25.2025 19.6499C25.2231 19.5819 25.2468 19.5129 25.2591 19.4439C25.4765 18.3239 24.9356 17.3235 23.8785 16.897C23.8785 16.897 23.5324 16.7568 23.317 16.6538C22.909 16.4601 22.5144 16.2417 22.1198 16.0233L21.7438 15.8172C20.7176 15.2588 19.6574 14.6798 19.0186 13.8236C18.7229 13.4248 18.4591 12.9592 18.2335 12.4378C18.3118 12.1256 18.3963 11.8032 18.487 11.4642C18.6961 10.677 18.555 9.93521 18.0821 9.31909C17.4608 8.51133 16.3233 8.02915 15.0375 8.02915C13.5786 8.02915 12.1269 8.65352 11.0523 9.74358C8.15097 12.6851 7.75018 16.5343 7.58842 20.2238C7.54927 21.149 7.69866 22.0165 8.04587 22.8758C8.15097 23.1313 8.33024 23.6743 8.47345 24.107C8.56618 24.3852 8.64345 24.6181 8.67951 24.7149C8.832 25.1188 8.73824 25.2105 8.60945 25.3372L7.89545 26.0316C7.36381 26.5468 6.8229 27.0609 6.32527 27.5338C5.77612 28.0572 5.27848 28.5291 4.90551 28.8948C4.21006 29.5831 4.00812 30.5124 4.36666 31.3851C4.75406 32.3309 5.704 32.9924 6.6766 32.9924C7.27315 32.9924 7.8326 32.7513 8.29624 32.2948C8.71145 31.8838 9.206 31.4593 9.72939 31.0101C11.1728 29.7716 12.809 28.3663 13.4251 26.6612C13.4684 26.5447 13.5044 26.4242 13.5353 26.3005C13.5343 27.0949 13.5302 27.8882 13.5271 28.6836L13.5199 31.1491C13.5199 31.8652 13.7847 32.4731 14.2864 32.9058C14.7222 33.2798 15.3002 33.4859 15.9184 33.4859C17.1105 33.4859 18.318 32.6833 18.3201 31.1491L18.3304 26.8342C18.3304 26.6508 18.3365 26.4654 18.3386 26.2789C18.3602 25.3516 18.3829 24.3914 17.9708 23.4919C17.7194 22.9428 17.3413 22.4029 16.8199 21.8486C17.0126 21.4045 17.1053 20.876 17.1053 20.2444C17.1053 19.6675 17.1198 19.1368 17.1496 18.6227C17.9358 19.2337 18.8816 19.8065 19.9438 20.3485C19.5152 21.1758 19.3277 22.5101 20.1045 24.649L21.0442 24.3069C20.4868 22.7738 20.4188 21.5694 20.835 20.7833C21.2152 20.9564 21.5995 21.1295 22.0106 21.2943C22.3207 21.419 22.6339 21.4839 22.9441 21.4839C23.7106 21.4839 24.3288 21.0996 24.7388 20.5721C24.9501 20.7668 25.1108 20.9842 25.1798 21.2181L28.8508 33.4848L29.809 33.1974L26.138 20.9316ZM17.0621 23.9082C17.3794 24.5985 17.3598 25.4032 17.3413 26.2542C17.3361 26.4489 17.331 26.6416 17.331 26.8322L17.3196 31.1481C17.3176 32.5648 15.6588 32.7616 14.9386 32.1465C14.6604 31.9075 14.5203 31.5705 14.5203 31.1481L14.5275 28.6867C14.5316 27.7152 14.5358 26.7425 14.5358 25.7699C14.5358 25.1981 14.4234 24.8736 14.1205 24.5676C13.8825 24.3265 13.6301 24.0936 13.3756 23.867L12.2711 22.8851L12.5524 24.3358C12.7049 25.125 12.6833 25.773 12.4854 26.3201C11.959 27.778 10.429 29.0906 9.07824 30.2497C8.54145 30.7102 8.03454 31.1461 7.5946 31.5808C6.84866 32.3155 5.66381 31.9095 5.29187 31.0039C5.17339 30.7164 5.05697 30.1508 5.60921 29.6058C5.97806 29.2431 6.47054 28.7743 7.0166 28.2561C7.51424 27.7821 8.05927 27.2649 8.59193 26.7477L9.33581 26.0244C9.50066 25.8647 10.0034 25.3753 9.61709 24.3595C9.58309 24.2688 9.50994 24.0504 9.42442 23.7907C9.27297 23.3384 9.08339 22.7687 8.97315 22.4998C8.68054 21.7775 8.55484 21.047 8.58884 20.2671C8.7403 16.7723 9.11224 13.1353 11.7663 10.4452C12.6524 9.54473 13.8465 9.02958 15.0385 9.02958C16.0008 9.02958 16.8632 9.3737 17.2898 9.92903C17.5721 10.2938 17.6483 10.7244 17.5195 11.2066C17.5174 11.2148 17.5174 11.221 17.5154 11.2282C17.0342 10.573 16.3171 9.82188 15.4342 9.62715C14.8232 9.49321 14.2091 9.64982 13.661 10.0887C12.8811 10.7141 12.3958 12.1195 12.98 13.5876C13.4364 14.7364 14.5275 16.1562 16.2121 17.8057C16.1441 18.5795 16.1049 19.3594 16.1049 20.2434C16.1049 20.8605 15.9988 21.3273 15.7835 21.6755L15.5722 22.0145L15.8576 22.2947C16.4274 22.8583 16.822 23.3848 17.0621 23.9082ZM22.9451 20.4835C22.7638 20.4835 22.5773 20.4443 22.3856 20.367C20.1138 19.4511 18.3252 18.4012 17.0672 17.2483C15.4146 15.6524 14.3215 14.2604 13.9104 13.2208C13.4601 12.0906 13.9042 11.1798 14.2874 10.8697C14.6017 10.6204 14.9005 10.5348 15.2188 10.6059C16.1327 10.8048 17.0023 12.1854 17.2599 12.7005C17.5257 13.3465 17.8492 13.9256 18.215 14.4212C18.9836 15.4535 20.1952 16.1139 21.2636 16.6961L21.6335 16.898C22.0456 17.1278 22.4608 17.3544 22.8853 17.5574C23.1213 17.6697 23.4973 17.8242 23.4994 17.8253C24.3824 18.1828 24.3381 18.9432 24.2762 19.2553C24.1578 19.8642 23.6632 20.4835 22.9451 20.4835Z" fill="#008D5C"/>
</svg>
