<svg width="25" height="24" viewBox="0 0 25 24" fill="none" xmlns="http://www.w3.org/2000/svg">
<g clip-path="url(#clip0_33_101)">
<path d="M5.81891 14.5034L4.9835 17.6221L1.93011 17.6867C1.01759 15.9942 0.5 14.0577 0.5 11.9999C0.5 10.01 0.983938 8.1335 1.84175 6.4812H1.84241L4.56078 6.97958L5.75159 9.68164C5.50236 10.4082 5.36652 11.1882 5.36652 11.9999C5.36661 12.8808 5.52617 13.7247 5.81891 14.5034Z" fill="#FBBB00"/>
<path d="M24.2903 9.7583C24.4281 10.4842 24.5 11.2339 24.5 12.0001C24.5 12.8592 24.4097 13.6972 24.2376 14.5056C23.6534 17.2563 22.127 19.6583 20.0126 21.3581L20.0119 21.3574L16.588 21.1827L16.1034 18.1576C17.5064 17.3348 18.6029 16.0471 19.1805 14.5056H12.7638V9.7583H19.2741H24.2903Z" fill="#518EF8"/>
<path d="M20.0119 21.3575L20.0125 21.3581C17.9561 23.0111 15.3437 24.0001 12.5 24.0001C7.93011 24.0001 3.95694 21.4458 1.93011 17.6869L5.81891 14.5037C6.8323 17.2083 9.44132 19.1336 12.5 19.1336C13.8147 19.1336 15.0464 18.7781 16.1033 18.1577L20.0119 21.3575Z" fill="#28B446"/>
<path d="M20.1596 2.76262L16.2721 5.94525C15.1783 5.26153 13.8853 4.86656 12.5 4.86656C9.37208 4.86656 6.71427 6.88017 5.75164 9.68175L1.84241 6.48131H1.84175C3.83891 2.63077 7.86219 0 12.5 0C15.4116 0 18.0813 1.03716 20.1596 2.76262Z" fill="#F14336"/>
</g>
<defs>
<clipPath id="clip0_33_101">
<rect width="24" height="24" fill="white" transform="translate(0.5)"/>
</clipPath>
</defs>
</svg>
