<svg width="12" height="12" viewBox="0 0 12 12" fill="none" xmlns="http://www.w3.org/2000/svg">
<path d="M8.96192 7.16227C8.83238 7.28781 8.77286 7.46936 8.80237 7.64742L9.247 10.1082C9.28452 10.3167 9.19649 10.5278 9.02193 10.6484C8.85088 10.7734 8.62331 10.7884 8.43675 10.6884L6.22156 9.533C6.14454 9.49199 6.05901 9.46999 5.97148 9.46748H5.83594C5.78893 9.47449 5.74291 9.48949 5.7009 9.5125L3.48521 10.6734C3.37568 10.7284 3.25164 10.7479 3.1301 10.7284C2.83401 10.6724 2.63645 10.3903 2.68496 10.0927L3.1301 7.63191C3.15961 7.45236 3.10009 7.2698 2.97055 7.14226L1.16449 5.39172C1.01344 5.24517 0.960926 5.0251 1.02995 4.82654C1.09697 4.62848 1.26802 4.48393 1.47459 4.45142L3.96036 4.09081C4.14942 4.07131 4.31547 3.95627 4.4005 3.78622L5.49584 1.54052C5.52184 1.4905 5.55536 1.44449 5.59587 1.40548L5.64088 1.37046C5.66439 1.34446 5.6914 1.32295 5.72141 1.30544L5.77592 1.28544L5.86095 1.25043H6.07152C6.25957 1.26993 6.42513 1.38247 6.51165 1.55052L7.6215 3.78622C7.70152 3.94977 7.85707 4.0633 8.03663 4.09081L10.5224 4.45142C10.7325 4.48143 10.908 4.62648 10.9775 4.82654C11.0431 5.0271 10.9865 5.24717 10.8325 5.39172L8.96192 7.16227Z" fill="#008D5C"/>
</svg>
