<svg width="32" height="32" viewBox="0 0 32 32" fill="none" xmlns="http://www.w3.org/2000/svg">
<path d="M11.5884 12.36L10.1193 13.8291L11.6278 15.3376L13.0969 13.8685L11.5884 12.36Z" fill="#EEF7F4"/>
<path d="M15.7241 4.10205L3.93973 15.8864L15.7473 27.6939L25.4748 17.9664L17.8389 10.3281L16.3687 11.7983L22.5994 18.029L21.9989 18.6273L15.7681 12.3965L14.298 13.8667L20.5287 20.0974L19.9281 20.698L13.6974 14.4649L12.2273 15.9351L17.8597 21.5652L18.4603 22.1658L17.8597 22.7664L15.7913 24.8348L15.1931 24.2342L17.2615 22.1658L11.629 16.5334L10.1589 18.0035L9.55828 18.6018L8.9577 18.0035L7.44813 16.4939L6.84987 15.8934L7.44813 15.2951L8.91828 13.8249L9.51654 13.2244L10.9867 11.7542L11.5873 11.1536L13.0574 9.6835L13.6557 9.08292L15.1258 7.61277L15.7264 7.01451L16.327 7.61277L17.8365 9.12234L18.4371 9.72292L26.0731 17.3589L27.5316 15.9026M11.6313 19.4783L14.3397 22.1844L13.7415 22.7849L11.0331 20.0765L11.6313 19.4783Z" fill="#EEF7F4"/>
<path d="M9.51943 14.4278L8.0508 15.8975L9.55982 17.4054L11.0284 15.9358L9.51943 14.4278Z" fill="#EEF7F4"/>
<path d="M15.7287 8.22301L14.2593 9.69189L15.7675 11.2007L17.2369 9.73177L15.7287 8.22301Z" fill="#EEF7F4"/>
<path d="M15.7333 0.266602L0 15.9999L15.7333 31.7333L31.4667 15.9999L15.7333 0.266602ZM26.073 18.5646L15.7449 28.8927L2.73855 15.8863L15.7241 2.90312L28.7304 15.9095L26.6736 17.9663L26.073 18.5646Z" fill="#EEF7F4"/>
<path d="M13.6598 10.2904L12.1904 11.7593L13.6986 13.268L15.168 11.7991L13.6598 10.2904Z" fill="#EEF7F4"/>
</svg>
