<svg width="93" height="82" viewBox="0 0 93 82" fill="none" xmlns="http://www.w3.org/2000/svg">
<path d="M86.7852 24.9721C85.9702 18.1202 82.6036 12.784 76.4614 9.31261C69.9998 5.43772 63.3253 5.33594 56.5149 8.28755C53.6109 9.54525 51.2832 11.5917 49.0914 13.8163C47.4026 15.5284 46.0663 15.5139 44.3701 13.8745C43.812 13.3365 43.2687 12.7804 42.7106 12.2424C35.3569 5.1651 23.939 4.25636 15.5573 10.076C4.81494 17.5386 3.22892 32.7582 12.4293 42.0456C23.3443 53.0632 34.4428 63.8991 45.4642 74.8113C45.6184 74.964 45.8093 75.0839 45.9855 75.2184C46.8666 76.5379 47.3806 75.3674 47.8726 74.884C58.6223 64.2699 69.3206 53.6121 80.096 43.027C85.1992 38.0108 87.6296 32.053 86.7889 24.9757L86.7852 24.9721Z" fill="#FF4B72"/>
<path d="M62.2017 33.783H52.1936V23.874H41.1648V33.783H31.1567V44.7024H41.1648V54.615H52.1936V44.7024H62.2017V33.783Z" fill="white"/>
<path d="M45.1153 76.0509C45.5705 76.658 46.0992 76.9778 46.6866 77.0069H46.7711C47.6595 77.0069 48.2029 76.3381 48.5297 75.9346C48.5957 75.8546 48.6545 75.7783 48.7132 75.7165C52.9279 71.5545 57.1353 67.3851 61.3427 63.2194C67.7565 56.8655 74.387 50.2935 80.933 43.8632C86.4621 38.4325 88.8264 32.0313 87.971 24.8341C87.0899 17.4514 83.4185 11.8827 77.0781 8.29856C70.5174 4.36188 63.4353 3.99111 56.0339 7.2008C52.8068 8.59663 50.2809 10.9121 48.2323 12.9913C47.0171 14.2272 46.4517 14.2308 45.2034 13.0277C44.9354 12.7696 44.6711 12.5042 44.4031 12.2425C44.1167 11.959 43.8303 11.6755 43.5403 11.3956C35.7754 3.92205 23.715 2.96241 14.8634 9.10916C9.39671 12.9077 5.9126 18.8509 5.30315 25.4193C4.70105 31.8896 6.98463 38.2544 11.5665 42.8781C19.258 50.6388 27.1661 58.4394 34.8172 65.982C38.0847 69.2026 41.3522 72.4232 44.6123 75.6547C44.7849 75.8255 44.9648 75.9528 45.108 76.0582L45.1153 76.0509ZM13.281 41.2133C9.19111 37.0876 7.15351 31.4061 7.68953 25.6301C8.23656 19.756 11.3535 14.4417 16.2401 11.043C19.7242 8.62208 23.7664 7.43707 27.7902 7.43707C32.9044 7.43707 37.9892 9.35271 41.8735 13.0895C42.1562 13.3585 42.4315 13.6347 42.7106 13.911C42.9822 14.18 43.2576 14.4526 43.5329 14.7216C45.7174 16.8299 47.8174 16.8044 49.9468 14.6416C51.8339 12.726 54.1432 10.6031 56.9921 9.37088C63.7327 6.45199 69.8969 6.76097 75.8665 10.3414C81.5351 13.5475 84.81 18.5165 85.5956 25.114C86.374 31.6424 84.296 37.2257 79.2515 42.1838C72.6982 48.6214 66.0677 55.1934 59.6502 61.5474C55.4428 65.713 51.2391 69.8824 47.0244 74.0444C46.94 74.128 46.8555 74.2225 46.7711 74.3243C46.7527 74.3098 46.738 74.2952 46.7197 74.2807C46.6536 74.2298 46.5875 74.1825 46.5178 74.1316C46.4443 74.0808 46.3709 74.0335 46.3085 73.9717C43.0483 70.7439 39.7771 67.5196 36.5096 64.299C28.8659 56.7637 20.9615 48.9667 13.281 41.2169V41.2133Z" fill="#564B57"/>
<path d="M53.3905 54.6118V45.8842H62.2055C62.8663 45.8842 63.4023 45.3535 63.4023 44.6992V33.7797C63.4023 33.1254 62.8663 32.5947 62.2055 32.5947H53.3905V23.8671C53.3905 23.2128 52.8545 22.6821 52.1937 22.6821H41.1649C40.5041 22.6821 39.9681 23.2128 39.9681 23.8671V32.5947H31.1532C30.4923 32.5947 29.9563 33.1254 29.9563 33.7797V44.6992C29.9563 45.3535 30.4923 45.8842 31.1532 45.8842H39.9681V54.6118C39.9681 55.2661 40.5041 55.7968 41.1649 55.7968H52.1937C52.8545 55.7968 53.3905 55.2661 53.3905 54.6118ZM50.9968 44.6992V53.4268H42.3618V44.6992C42.3618 44.0449 41.8258 43.5142 41.1649 43.5142H32.35V34.9647H41.1649C41.8258 34.9647 42.3618 34.434 42.3618 33.7797V25.0521H50.9968V33.7797C50.9968 34.434 51.5328 34.9647 52.1937 34.9647H61.0086V43.5142H52.1937C51.5328 43.5142 50.9968 44.0449 50.9968 44.6992Z" fill="#564B57"/>
</svg>
