<svg width="34" height="34" viewBox="0 0 34 34" fill="none" xmlns="http://www.w3.org/2000/svg">
<path fill-rule="evenodd" clip-rule="evenodd" d="M24.4375 16.4688C28.8355 16.4688 32.4062 20.0395 32.4062 24.4375C32.4062 28.8355 28.8355 32.4062 24.4375 32.4062C20.0395 32.4062 16.4688 28.8355 16.4688 24.4375C16.4688 20.0395 20.0395 16.4688 24.4375 16.4688ZM24.4375 17.5312C20.6258 17.5312 17.5312 20.6258 17.5312 24.4375C17.5312 28.2492 20.6258 31.3438 24.4375 31.3438C28.2492 31.3438 31.3438 28.2492 31.3438 24.4375C31.3438 20.6258 28.2492 17.5312 24.4375 17.5312ZM22.5781 29.2188H22.3125C21.4915 29.2188 20.7188 28.446 20.7188 27.625C20.7188 26.0998 20.7188 23.3065 20.7188 21.7812C20.7188 20.9602 21.4915 20.1875 22.3125 20.1875H22.8438V19.6562C22.8438 19.0695 23.3195 18.5938 23.9062 18.5938H24.9688C25.5555 18.5938 26.0312 19.0695 26.0312 19.6562V20.1875H26.5625C27.3835 20.1875 28.1562 20.9602 28.1562 21.7812V27.625C28.1562 28.446 27.3835 29.2188 26.5625 29.2188H26.2969V29.75C26.2969 30.0432 26.0589 30.2812 25.7656 30.2812C25.4724 30.2812 25.2344 30.0432 25.2344 29.75V29.2188H24.9688V29.75C24.9688 30.0432 24.7307 30.2812 24.4375 30.2812C24.1443 30.2812 23.9062 30.0432 23.9062 29.75V29.2188H23.6406V29.75C23.6406 30.0432 23.4026 30.2812 23.1094 30.2812C22.8161 30.2812 22.5781 30.0432 22.5781 29.75V29.2188ZM23.9062 20.1875H24.9688V19.6562H23.9062V20.1875ZM27.0938 21.7812C27.0938 21.5077 26.8361 21.25 26.5625 21.25C25.3834 21.25 23.4916 21.25 22.3125 21.25C22.0389 21.25 21.7812 21.5077 21.7812 21.7812H27.0938ZM27.0938 26.5625V22.8438H21.7812V26.5625H27.0938ZM23.9062 24.9688H23.6406C23.3474 24.9688 23.1094 24.7307 23.1094 24.4375C23.1094 24.1443 23.3474 23.9062 23.6406 23.9062H23.9062V23.6406C23.9062 23.3474 24.1443 23.1094 24.4375 23.1094C24.7307 23.1094 24.9688 23.3474 24.9688 23.6406V23.9062H25.2344C25.5276 23.9062 25.7656 24.1443 25.7656 24.4375C25.7656 24.7307 25.5276 24.9688 25.2344 24.9688H24.9688V25.2344C24.9688 25.5276 24.7307 25.7656 24.4375 25.7656C24.1443 25.7656 23.9062 25.5276 23.9062 25.2344V24.9688ZM21.7812 27.625C21.7812 27.8986 22.0389 28.1562 22.3125 28.1562H26.5625C26.8361 28.1562 27.0938 27.8986 27.0938 27.625H21.7812ZM15.4275 25.063C14.0194 26.9434 11.7959 28.1562 9.29688 28.1562C5.0482 28.1562 1.59375 24.6479 1.59375 20.3203C1.59375 12.6384 8.91278 4.94541 8.91278 4.94541C9.01292 4.84048 9.15184 4.78125 9.29688 4.78125C9.44191 4.78125 9.58083 4.84048 9.68097 4.94541C9.68097 4.94541 11.3082 6.64647 13.0257 9.24667C15.186 4.93611 18.2097 1.75791 18.2097 1.75791C18.3098 1.65298 18.4487 1.59375 18.5938 1.59375C18.7388 1.59375 18.8777 1.65298 18.9778 1.75791C18.9778 1.75791 25.3417 8.44687 26.2013 15.5786C25.8458 15.5082 25.483 15.4586 25.114 15.4312C24.3294 9.7487 19.9288 4.41814 18.5938 2.91284C17.1259 4.56769 11.9531 10.8463 11.9531 17.1328C11.9531 19.7309 13.3912 21.9916 15.5008 23.1272C15.4384 23.5551 15.4062 23.9926 15.4062 24.4375C15.4062 24.6479 15.4134 24.8564 15.4275 25.063ZM11.2157 19.3906C11.0646 18.8793 10.9634 18.3462 10.918 17.7969H6.10938V19.3906H11.2157ZM12.4918 10.378C11.2099 8.35125 9.91844 6.80717 9.29581 6.10141C7.82664 7.75811 2.65625 14.0351 2.65625 20.3203C2.65625 24.0561 5.62913 27.0938 9.29688 27.0938C11.6352 27.0938 13.6916 25.8581 14.8747 23.9952C13.4544 23.1965 12.3075 21.9547 11.6153 20.4531H5.57812C5.28461 20.4531 5.04688 20.2154 5.04688 19.9219V17.2656C5.04688 16.9721 5.28461 16.7344 5.57812 16.7344H10.897C10.9679 14.5462 11.6123 12.368 12.4918 10.378ZM9.29688 24.9688C9.59013 24.9688 9.82812 25.2068 9.82812 25.5C9.82812 25.7932 9.59013 26.0312 9.29688 26.0312C7.95627 26.0312 6.72881 25.5478 5.76805 24.7427C5.54333 24.5544 5.51384 24.2192 5.70217 23.9944C5.8905 23.7697 6.22572 23.74 6.4507 23.9283C7.22553 24.5777 8.21552 24.9688 9.29688 24.9688ZM16.9052 19.4557V17.8917H14.875C14.5815 17.8917 14.3438 17.654 14.3438 17.3605V14.5145C14.3438 14.221 14.5815 13.9833 14.875 13.9833H16.9052V11.9531C16.9052 11.6596 17.1429 11.4219 17.4364 11.4219H20.2823C20.5758 11.4219 20.8136 11.6596 20.8136 11.9531V13.9833H22.8438C23.1373 13.9833 23.375 14.221 23.375 14.5145V15.4681C23.014 15.5106 22.6594 15.5744 22.3125 15.6581V15.0458H20.2823C19.9891 15.0458 19.7511 14.8078 19.7511 14.5145V12.4844H17.9677V14.5145C17.9677 14.8078 17.7297 15.0458 17.4364 15.0458H15.4062V16.8292H17.4364C17.7297 16.8292 17.9677 17.0672 17.9677 17.3605V18.139C17.574 18.543 17.2181 18.984 16.9052 19.4557Z" fill="#008D5C"/>
</svg>
