<svg width="34" height="34" viewBox="0 0 34 34" fill="none" xmlns="http://www.w3.org/2000/svg">
<g clip-path="url(#clip0_561_14028)">
<path d="M7.28968 9.71032L8.06511 8.93489L6.8077 7.67743L7.67743 6.8077L8.93489 8.06511L9.71032 7.28968L6.58066 4.16009V0H5.48389V4.61411L6.902 6.03228L6.03228 6.902L4.61411 5.48389H0V6.58066H4.16009L7.28968 9.71032Z" fill="#008D5C"/>
<path d="M0 7.67743H3.2903V8.77419H0V7.67743Z" fill="#008D5C"/>
<path d="M7.67725 0H8.77401V3.2903H7.67725V0Z" fill="#008D5C"/>
<path d="M7.67743 27.1923L6.8077 26.3226L8.06511 25.0651L7.28968 24.2897L4.16009 27.4193H0V28.5161H4.61411L6.03228 27.098L6.902 27.9677L5.48389 29.3859V34H6.58066V29.8399L9.71032 26.7103L8.93489 25.9349L7.67743 27.1923Z" fill="#008D5C"/>
<path d="M7.67725 30.7097H8.77401V34H7.67725V30.7097Z" fill="#008D5C"/>
<path d="M0 25.2258H3.2903V26.3226H0V25.2258Z" fill="#008D5C"/>
<path d="M26.7102 24.2897L25.9348 25.0651L27.1922 26.3226L26.3224 27.1923L25.065 25.9349L24.2896 26.7103L27.4192 29.8399V34H28.516V29.3859L27.0979 27.9677L27.9676 27.098L29.3858 28.5161H33.9999V27.4193H29.8398L26.7102 24.2897Z" fill="#008D5C"/>
<path d="M30.7095 25.2258H33.9998V26.3226H30.7095V25.2258Z" fill="#008D5C"/>
<path d="M25.2256 30.7097H26.3224V34H25.2256V30.7097Z" fill="#008D5C"/>
<path d="M25.2256 0H26.3224V3.2903H25.2256V0Z" fill="#008D5C"/>
<path d="M29.3858 5.48389L27.9676 6.902L27.0979 6.03228L28.516 4.61411V0H27.4192V4.16009L24.2896 7.28968L25.065 8.06511L26.3224 6.8077L27.1922 7.67743L25.9348 8.93489L26.7102 9.71032L29.8398 6.58066H33.9999V5.48389H29.3858Z" fill="#008D5C"/>
<path d="M30.7095 7.67743H33.9998V8.77419H30.7095V7.67743Z" fill="#008D5C"/>
<path d="M18.6453 17C18.6453 16.093 17.9072 15.3549 17.0001 15.3549C16.0931 15.3549 15.355 16.093 15.355 17C15.355 17.907 16.0931 18.6451 17.0001 18.6451C17.9072 18.6451 18.6453 17.907 18.6453 17ZM16.4517 17C16.4517 16.6979 16.698 16.4516 17.0001 16.4516C17.3023 16.4516 17.5485 16.6979 17.5485 17C17.5485 17.3021 17.3023 17.5484 17.0001 17.5484C16.698 17.5484 16.4517 17.3021 16.4517 17Z" fill="#008D5C"/>
<path d="M25.625 23.9799C25.625 23.5406 25.4539 23.1272 25.143 22.8162C24.6385 22.3111 23.8867 22.2102 23.2757 22.4998L22.4082 21.6322C23.3662 20.5157 23.9826 19.1014 24.1016 17.5484H25.3273C25.5543 18.1851 26.1575 18.6451 26.8715 18.6451C27.7786 18.6451 28.5167 17.907 28.5167 17C28.5167 16.093 27.7786 15.3548 26.8715 15.3548C26.1575 15.3548 25.5543 15.815 25.3273 16.4516H24.1016C23.9826 14.898 23.3662 13.4843 22.4082 12.3678L23.2757 11.5002C23.4984 11.6061 23.738 11.6647 23.9798 11.6647C24.401 11.6647 24.8227 11.5046 25.1429 11.1838C25.4538 10.8729 25.625 10.4599 25.625 10.0201C25.625 9.5803 25.4538 9.16738 25.1435 8.857C24.5216 8.2351 23.4385 8.2351 22.8167 8.857C22.3122 9.36149 22.2107 10.1133 22.5002 10.7243L21.6327 11.5918C20.5162 10.6338 19.1019 10.0174 17.5488 9.89838V8.67272C18.1855 8.44568 18.6456 7.84244 18.6456 7.12844C18.6456 6.2214 17.9075 5.4833 17.0005 5.4833C16.0934 5.4833 15.3553 6.2214 15.3553 7.12844C15.3553 7.84244 15.8154 8.44568 16.4521 8.67272V9.89838C14.8985 10.0174 13.4848 10.6338 12.3682 11.5918L11.5007 10.7243C11.7902 10.1134 11.6894 9.36155 11.1843 8.857C10.5624 8.2351 9.47875 8.2357 8.85746 8.857C8.54654 9.16791 8.37541 9.58089 8.37541 10.0207C8.37541 10.4605 8.54654 10.8734 8.85746 11.1844C9.17773 11.5052 9.59941 11.6653 10.0206 11.6653C10.2624 11.6653 10.5021 11.6061 10.7247 11.5008L11.5922 12.3684C10.6342 13.4849 10.0178 14.8992 9.89877 16.4522H8.67331C8.44627 15.8155 7.84304 15.3554 7.12904 15.3554C6.22199 15.3554 5.48389 16.0936 5.48389 17.0006C5.48389 17.9076 6.22199 18.6457 7.12904 18.6457C7.84304 18.6457 8.44627 18.1856 8.67331 17.549H9.89897C10.018 19.1026 10.6344 20.5163 11.5924 21.6328L10.7249 22.5004C10.114 22.2108 9.36214 22.3117 8.85759 22.8168C8.54668 23.1277 8.37555 23.5407 8.37555 23.9805C8.37555 24.4203 8.54668 24.8332 8.85706 25.1436C9.16797 25.4545 9.58095 25.6256 10.0208 25.6256C10.4606 25.6256 10.8735 25.4545 11.1845 25.1436C11.689 24.6391 11.7904 23.8873 11.5009 23.2763L12.3684 22.4088C13.4849 23.3668 14.8992 23.9832 16.4523 24.1022V25.3279C15.8156 25.5549 15.3555 26.1582 15.3555 26.8722C15.3555 27.7792 16.0936 28.5173 17.0007 28.5173C17.9077 28.5173 18.6458 27.7792 18.6458 26.8722C18.6458 26.1582 18.1857 25.5549 17.549 25.3279V24.1021C19.1026 23.9831 20.5163 23.3668 21.6329 22.4087L22.5004 23.2763C22.2109 23.8871 22.3118 24.639 22.8168 25.1435C23.1278 25.4544 23.5407 25.6256 23.9806 25.6256C24.4204 25.6256 24.8333 25.4544 25.1437 25.1441C25.4539 24.8326 25.625 24.4191 25.625 23.9799ZM17.5484 21.3871C17.5484 20.4801 18.2865 19.742 19.1935 19.742C20.1006 19.742 20.8387 20.4801 20.8387 21.3871C20.8387 21.4864 20.8168 21.5829 20.7992 21.68C20.1219 22.2311 19.3213 22.6331 18.4476 22.8497C17.8977 22.5705 17.5484 22.015 17.5484 21.3871ZM26.8709 16.4516C27.1731 16.4516 27.4193 16.6979 27.4193 17C27.4193 17.3021 27.1731 17.5484 26.8709 17.5484C26.5688 17.5484 26.3226 17.3021 26.3226 17C26.3226 16.6979 26.5688 16.4516 26.8709 16.4516ZM23.5921 9.63242C23.6958 9.52876 23.8335 9.47172 23.9804 9.47172C24.1274 9.47172 24.2645 9.52876 24.3681 9.63242C24.4718 9.73555 24.5288 9.87315 24.5288 10.0201C24.5288 10.1671 24.4718 10.3047 24.3681 10.4084C24.1537 10.6223 23.806 10.6217 23.5927 10.4084C23.3783 10.194 23.3783 9.84632 23.5921 9.63242ZM21.7731 13.3258C21.5028 13.8857 20.9259 14.2581 20.2903 14.2581C19.3832 14.2581 18.6451 13.52 18.6451 12.6129C18.6451 12.1369 18.8568 11.7015 19.2061 11.3917C20.2283 11.7947 21.1118 12.4687 21.7731 13.3258ZM17 6.58066C17.3021 6.58066 17.5484 6.82689 17.5484 7.12904C17.5484 7.43119 17.3021 7.67742 17 7.67742C16.6978 7.67742 16.4516 7.43119 16.4516 7.12904C16.4516 6.82689 16.6978 6.58066 17 6.58066ZM15.3548 12.6129C15.3548 12.915 15.1086 13.1613 14.8065 13.1613C14.5043 13.1613 14.2581 12.915 14.2581 12.6129C14.2581 12.3107 14.5043 12.0645 14.8065 12.0645C15.1086 12.0645 15.3548 12.3107 15.3548 12.6129ZM9.63242 10.4078C9.52876 10.3042 9.47171 10.1665 9.47171 10.0196C9.47171 9.87262 9.52876 9.73549 9.63242 9.63189C9.73555 9.52823 9.87314 9.47119 10.0201 9.47119C10.1671 9.47119 10.3047 9.52823 10.4084 9.63189C10.6223 9.84579 10.6223 10.1934 10.4084 10.4073C10.1945 10.6223 9.84631 10.6217 9.63242 10.4078ZM7.12904 17.5484C6.82689 17.5484 6.58065 17.3021 6.58065 17C6.58065 16.6979 6.82689 16.4516 7.12904 16.4516C7.43118 16.4516 7.67742 16.6979 7.67742 17C7.67742 17.3021 7.43118 17.5484 7.12904 17.5484ZM10.9908 16.5492C11.1602 16.4917 11.3357 16.4516 11.5161 16.4516C12.4231 16.4516 13.1612 17.1897 13.1612 18.0968C13.1612 18.9654 12.4824 19.6717 11.6279 19.7304C11.209 18.9095 10.9676 17.9833 10.9676 17C10.9677 16.8475 10.9793 16.6984 10.9908 16.5492ZM10.4078 24.3676C10.2005 24.5749 9.83914 24.5749 9.63189 24.3676C9.52823 24.2645 9.47118 24.1269 9.47118 23.9799C9.47118 23.8329 9.52823 23.6953 9.63189 23.5916C9.7388 23.4847 9.87918 23.4315 10.0196 23.4315C10.1599 23.4315 10.3003 23.4852 10.4072 23.5916C10.6217 23.806 10.6217 24.1537 10.4078 24.3676ZM12.2625 20.7225C13.4103 20.3946 14.2581 19.3482 14.2581 18.0968C14.2581 16.5849 13.028 15.3548 11.5162 15.3548C11.4092 15.3548 11.3023 15.3626 11.1965 15.3746C11.5365 14.1632 12.2412 13.1037 13.1899 12.3283C13.174 12.421 13.1614 12.5153 13.1614 12.6129C13.1614 13.5199 13.8995 14.258 14.8065 14.258C15.7136 14.258 16.4517 13.5199 16.4517 12.6129C16.4517 11.9734 16.0815 11.424 15.5474 11.152C16.0135 11.0363 16.4982 10.9677 17.0001 10.9677C17.3521 10.9677 17.6954 11.0044 18.031 11.0626C17.7223 11.5117 17.5484 12.0475 17.5484 12.6129C17.5484 14.1248 18.7785 15.3548 20.2904 15.3548C21.1261 15.3548 21.8949 14.9622 22.4061 14.3404C22.8031 15.1437 23.0323 16.0447 23.0323 17.0001C23.0323 18.3595 22.575 19.6115 21.8132 20.6211C21.4793 19.4837 20.4379 18.6452 19.1936 18.6452C17.6817 18.6452 16.4517 19.8753 16.4517 21.3871C16.4517 21.9997 16.6551 22.5689 17.0028 23.0323C17.0017 23.0323 17.0006 23.0323 17.0001 23.0323C15.0785 23.0323 13.368 22.1263 12.2625 20.7225ZM17 27.4193C16.6978 27.4193 16.4516 27.1731 16.4516 26.871C16.4516 26.5688 16.6978 26.3226 17 26.3226C17.3021 26.3226 17.5484 26.5688 17.5484 26.871C17.5484 27.1731 17.3021 27.4193 17 27.4193ZM24.3676 24.3676C24.1608 24.5749 23.7995 24.5749 23.5921 24.3676C23.3782 24.1537 23.3782 23.806 23.5921 23.5921C23.6991 23.4852 23.8394 23.432 23.9804 23.432C24.1208 23.432 24.2612 23.4852 24.3681 23.5921C24.4718 23.6958 24.5288 23.8335 24.5288 23.9804C24.5288 24.1274 24.4712 24.2639 24.3676 24.3676Z" fill="#008D5C"/>
<path d="M15.1899 30.5534L15.7426 30.0006L14.9672 29.2252L14.4145 29.778C14.3635 29.7539 14.3113 29.733 14.2581 29.7143V28.5161H13.1614V29.7138C13.1076 29.733 13.0555 29.7533 13.0051 29.7774L12.4523 29.2247L11.6769 30.0001L12.2296 30.5529C12.2055 30.6039 12.1847 30.6559 12.166 30.7092H10.9678V31.8059H12.1655C12.1847 31.8597 12.205 31.9118 12.2291 31.9623L11.6763 32.515L12.4518 33.2904L13.0045 32.7377C13.0555 32.7618 13.1076 32.7821 13.1608 32.8013V34H14.2576V32.8023C14.3113 32.7831 14.3635 32.7628 14.4139 32.7387L14.9667 33.2914L15.7421 32.516L15.1894 31.9633C15.2135 31.9123 15.2343 31.8601 15.253 31.8069H16.4517V30.7102H15.254C15.2348 30.6559 15.2146 30.6039 15.1899 30.5534ZM14.2582 31.2581C14.2582 31.5602 14.012 31.8065 13.7098 31.8065C13.4077 31.8065 13.1614 31.5602 13.1614 31.2581C13.1614 30.9559 13.4077 30.7097 13.7098 30.7097C14.012 30.7097 14.2582 30.9559 14.2582 31.2581Z" fill="#008D5C"/>
<path d="M32.7382 19.5857L33.291 19.0329L32.5156 18.2575L31.9628 18.8102C31.9118 18.7861 31.8597 18.7653 31.8065 18.7466V17.5484H30.7097V18.7461C30.656 18.7653 30.6039 18.7856 30.5534 18.8097L30.0006 18.2569L29.2252 19.0324L29.778 19.5851C29.7539 19.6361 29.733 19.6882 29.7143 19.7414H28.5161V20.8382H29.7138C29.733 20.8919 29.7533 20.9441 29.7774 20.9945L29.2247 21.5473L30.0001 22.3227L30.5529 21.77C30.6039 21.7941 30.6559 21.8144 30.7092 21.8336V23.0323H31.8059V21.8346C31.8597 21.8154 31.9118 21.7951 31.9623 21.771L32.515 22.3238L33.2905 21.5484L32.7377 20.9956C32.7618 20.9446 32.7826 20.8925 32.8013 20.8393H34.0001V19.7425H32.8024C32.7832 19.6882 32.7629 19.6361 32.7382 19.5857ZM31.8065 20.2903C31.8065 20.5924 31.5603 20.8387 31.2582 20.8387C30.956 20.8387 30.7098 20.5924 30.7098 20.2903C30.7098 19.9881 30.956 19.7419 31.2582 19.7419C31.5603 19.7419 31.8065 19.9881 31.8065 20.2903Z" fill="#008D5C"/>
<path d="M18.8103 3.44662L18.2575 3.99938L19.0329 4.77481L19.5857 4.22204C19.6362 4.24675 19.6882 4.267 19.742 4.28619V5.48389H20.8388V4.28619C20.8925 4.267 20.9446 4.24668 20.9951 4.22257L21.5479 4.77534L22.3233 3.99991L21.7705 3.44715C21.7952 3.39615 21.8155 3.34402 21.8347 3.2903H23.0324V2.19353H21.8347C21.8155 2.13981 21.7952 2.08768 21.771 2.03721L22.3238 1.48445L21.5484 0.70902L20.9956 1.26179C20.9446 1.23708 20.8925 1.21683 20.8388 1.19764V0H19.7419V1.1977C19.6882 1.21689 19.6361 1.23721 19.5856 1.26132L19.0329 0.708555L18.2574 1.48398L18.8102 2.03675C18.7855 2.08775 18.7652 2.13988 18.746 2.1936H17.5483V3.29036H18.746C18.7653 3.34409 18.7856 3.39615 18.8103 3.44662ZM19.7419 2.74191C19.7419 2.43977 19.9882 2.19353 20.2903 2.19353C20.5925 2.19353 20.8387 2.43977 20.8387 2.74191C20.8387 3.04406 20.5925 3.2903 20.2903 3.2903C19.9882 3.2903 19.7419 3.04413 19.7419 2.74191Z" fill="#008D5C"/>
<path d="M1.26185 14.4143L0.709086 14.9671L1.48451 15.7425L2.03728 15.1898C2.08775 15.2145 2.13981 15.2347 2.1936 15.2539V16.4516H3.29036V15.2539C3.34409 15.2347 3.39621 15.2144 3.44668 15.1903L3.99945 15.7431L4.77488 14.9676L4.22211 14.4149C4.24681 14.3639 4.26707 14.3117 4.28626 14.258H5.48396V13.1613H4.28619C4.267 13.1075 4.24668 13.0554 4.22257 13.0049L4.77534 12.4522L3.99991 11.6767L3.44715 12.2295C3.39615 12.2048 3.34402 12.1845 3.2903 12.1654V10.9677H2.19353V12.1654C2.13981 12.1845 2.08768 12.2049 2.03721 12.229L1.48445 11.6762L0.70902 12.4516L1.26179 13.0044C1.23708 13.0554 1.21683 13.1075 1.19764 13.1613H0V14.258H1.1977C1.21689 14.3118 1.23715 14.3639 1.26185 14.4143ZM2.19353 13.7097C2.19353 13.4076 2.43977 13.1613 2.74191 13.1613C3.04406 13.1613 3.2903 13.4076 3.2903 13.7097C3.2903 14.0118 3.04406 14.2581 2.74191 14.2581C2.43977 14.2581 2.19353 14.0118 2.19353 13.7097Z" fill="#008D5C"/>
</g>
<defs>
<clipPath id="clip0_561_14028">
<rect width="34" height="34" fill="white"/>
</clipPath>
</defs>
</svg>
