<svg width="34" height="34" viewBox="0 0 34 34" fill="none" xmlns="http://www.w3.org/2000/svg">
<g clip-path="url(#clip0_561_13886)">
<path d="M32.7209 15.9289C32.7209 14.7429 32.3709 13.612 31.7487 12.7533C32.4506 11.8389 32.8464 10.6104 32.8464 9.30883C32.8464 8.08562 32.4891 6.91422 31.8536 6.01574C32.4499 5.35766 32.7839 4.50102 32.7839 3.59855C32.7833 1.61434 31.1676 0 29.1814 0C27.5292 0 26.1261 1.10102 25.7017 2.6443C25.5105 2.61242 25.3166 2.59582 25.1207 2.59582C23.6557 2.59582 22.3787 3.48699 21.8535 4.79586C21.2054 4.4791 20.4968 4.31375 19.7723 4.31375C18.4302 4.31375 17.1798 4.8709 16.292 5.83711C15.6266 4.92004 14.5554 4.3609 13.3787 4.3609C12.7399 4.3609 12.1303 4.52227 11.5904 4.83105C10.7862 4.03816 9.62211 3.57664 8.38363 3.57664C8.2382 3.57664 8.09012 3.58328 7.93008 3.59656C7.30121 3.1118 6.52891 2.8475 5.72871 2.8475C3.7425 2.8475 2.12684 4.46184 2.12684 6.44605C2.12684 6.99059 2.24504 7.51785 2.47148 7.99664C2.02723 8.41832 1.76559 9.01133 1.76559 9.63887C1.76559 9.84074 1.7948 10.0466 1.85059 10.2458C1.50129 10.8149 1.31801 11.4624 1.31801 12.1331C1.31801 12.8675 1.54512 13.5801 1.9648 14.1837C1.44418 14.8199 1.15332 15.6274 1.15332 16.4634C1.15332 17.5764 1.66398 18.609 2.52062 19.287C2.04582 19.9099 1.78152 20.6763 1.78152 21.4685C1.78152 23.4527 3.40117 25.067 5.39137 25.067C6.48242 25.067 7.46059 24.5796 8.12199 23.812C8.45867 24.824 9.11609 25.4316 9.71973 25.7915C10.4748 26.2411 11.3859 26.4377 12.2212 26.4377C12.6071 26.4377 12.977 26.3952 13.3077 26.3175C13.3037 27.6868 13.8137 28.8827 14.5196 29.6497C14.8343 29.9911 15.1451 30.268 15.4453 30.5349C16.185 31.193 16.7196 31.6691 16.8245 32.6858C16.9414 33.8214 17.6593 34.0027 18.1002 34.0027C18.1135 34.0027 18.1261 34.0027 18.1387 34.002C18.9349 33.9907 19.3679 33.2868 19.3845 32.5968C19.3845 32.5935 19.3845 32.5909 19.3845 32.5875L19.3858 32.4016C19.3951 31.1339 19.4031 30.0641 19.1527 29.1537C20.3912 29.4751 21.7333 29.2891 22.562 28.7141C23.6385 29.7573 25.282 30.254 26.7463 29.9339C27.6355 29.74 29.1821 29.0793 29.8388 26.8381C31.5182 26.3772 32.7441 24.4833 32.7441 22.2607C32.7441 21.0734 32.3908 19.9398 31.7633 19.0798C32.3755 18.2212 32.7209 17.0983 32.7209 15.9289ZM10.2636 24.8764C9.27414 24.2868 8.84316 23.2468 8.98394 21.7839C8.9866 21.758 8.9866 21.7328 8.98527 21.7075C8.99059 21.6279 8.99457 21.5475 8.99457 21.4665C8.99457 20.3462 8.48324 19.3129 7.62727 18.6396C8.10273 18.0134 8.36637 17.2477 8.36637 16.4621C8.36637 15.7237 8.13926 15.0085 7.71957 14.4042C8.23953 13.7687 8.53105 12.9638 8.53105 12.1324C8.53105 11.734 8.4673 11.3448 8.34312 10.977C8.59215 10.9783 8.83918 10.961 9.08156 10.9265C9.09816 11.5587 9.29539 12.1231 9.67191 12.6099C9.97141 12.9964 10.3672 13.3018 10.7995 13.5356C10.1474 13.8596 9.54176 14.3511 9.13469 14.9985C8.71965 15.6593 8.20566 17.0279 9.42621 18.7744C10.2311 19.9272 11.2411 20.3688 12.3195 20.4598C11.9975 21.2779 11.779 22.3344 11.9005 22.9706C11.949 23.2249 12.1721 23.4022 12.4218 23.4022C12.455 23.4022 12.4882 23.3989 12.5221 23.3929C12.8103 23.3378 12.9989 23.0596 12.9438 22.7714C12.8521 22.2919 13.1489 21.0827 13.4916 20.4398C14.2274 20.3648 14.9718 20.1928 15.685 20.0275C16.1279 19.9245 16.5861 19.8183 17.0251 19.7386C19.8175 19.2312 20.7777 19.5706 22.2439 20.8482C22.3449 20.9359 22.4691 20.9791 22.5926 20.9791C22.7407 20.9791 22.8881 20.9173 22.9937 20.7964C23.1863 20.5753 23.163 20.2393 22.9419 20.0467C21.127 18.4662 19.757 18.1628 16.8352 18.6934C16.371 18.7777 15.9002 18.8873 15.4453 18.9929C13.3342 19.4823 11.5107 19.9053 10.2975 18.1668C9.63473 17.2178 9.54641 16.3419 10.0352 15.5643C10.6016 14.6632 11.85 14.1047 12.706 14.1366C12.789 14.1472 12.87 14.1552 12.9477 14.1611C13.23 14.1824 13.4816 13.9765 13.5148 13.6936C13.548 13.4107 13.3535 13.1524 13.0726 13.1066C12.9889 13.0933 12.9019 13.0834 12.8123 13.0787C12.1343 12.9877 11.0671 12.677 10.5126 11.9604C10.2297 11.5952 10.1109 11.1636 10.1507 10.6482C10.3446 10.5725 10.5319 10.4842 10.7112 10.3839C11.3945 11.1317 12.36 11.5666 13.3807 11.5666C14.2028 11.5666 14.9964 11.2837 15.6319 10.7764C16.1791 11.3263 16.9308 11.6676 17.804 11.7532C18.9615 11.8675 20.2239 11.5228 21.0028 10.9032C21.133 10.9318 21.2651 10.9537 21.3973 10.9736C21.4072 11.0427 21.4179 11.1111 21.4318 11.1788C20.4835 11.471 19.7922 12.3542 19.7922 13.3961C19.7922 13.6896 20.03 13.9274 20.3235 13.9274C20.617 13.9274 20.8547 13.6896 20.8547 13.3961C20.8547 12.8091 21.2605 12.3157 21.807 12.1782C22.3954 13.2168 23.509 13.9194 24.7846 13.9194H24.8006C25.0941 13.9194 25.3318 13.6817 25.3318 13.3882C25.3318 13.0946 25.0941 12.8569 24.8006 12.8569H24.7846C23.8264 12.8569 23.0003 12.2812 22.6318 11.4571C22.6205 11.4192 22.6059 11.3834 22.5866 11.3495C22.5474 11.2492 22.5149 11.1456 22.4896 11.0394C23.4784 11.0155 24.4938 10.7724 25.4706 10.3209C25.4075 11.4664 25.8292 12.3004 26.2482 12.837C25.6599 13.6857 25.3292 14.7867 25.3292 15.9289C25.3292 17.1182 25.6838 18.2537 26.314 19.1137C25.6346 20.1058 25.3232 21.515 25.3305 22.8404C24.4566 22.6804 23.2925 22.6571 22.3309 23.1293C21.4265 21.8171 19.933 21.0216 18.3134 21.0216C16.4075 21.0216 14.6637 22.1378 13.8734 23.8618C13.6689 24.2994 13.5255 24.735 13.4345 25.1613C12.787 25.4316 11.3394 25.5179 10.2636 24.8764ZM29.3308 25.8599C29.1163 25.8918 28.9423 26.0512 28.8925 26.2623C28.5499 27.7 27.7072 28.635 26.5198 28.894C25.2734 29.1663 23.8012 28.6364 23.0182 27.635C22.918 27.5061 22.7639 27.4311 22.6005 27.4311C22.5999 27.4311 22.5999 27.4311 22.5992 27.4311C22.4365 27.4311 22.2831 27.5055 22.1822 27.6336C21.7691 28.1576 20.449 28.463 19.2152 28.0646C18.9276 27.9716 18.5504 27.8063 18.2171 27.5181C18.1679 27.4689 18.1161 27.4198 18.0623 27.372C17.7277 27.024 17.4654 26.53 17.4355 25.83C17.4229 25.5372 17.1745 25.3094 16.8816 25.322C16.5888 25.3346 16.361 25.5823 16.3736 25.8759C16.4095 26.7152 16.699 27.4437 17.2024 28.0128C17.227 28.0473 17.2568 28.0799 17.2907 28.1084C17.2907 28.1084 17.2914 28.1084 17.2914 28.1091C17.3618 28.1828 17.4361 28.2532 17.5138 28.3209C18.3459 29.2075 18.3366 30.4433 18.3227 32.393L18.3213 32.5723C18.32 32.6028 18.3001 32.9355 18.1175 32.9382C17.9727 32.9415 17.9182 32.9428 17.8811 32.5756C17.7343 31.1485 16.9653 30.4645 16.1512 29.74C15.8703 29.4897 15.5794 29.2314 15.3012 28.9292C14.4638 28.0181 13.9598 26.1853 14.8357 24.3093C15.4552 22.9586 16.8192 22.0854 18.3114 22.0854C19.7265 22.0854 21.0187 22.861 21.6828 24.1101C21.7559 24.2476 21.886 24.3459 22.0381 24.3797C22.1902 24.4129 22.3495 24.3777 22.4737 24.2841C23.3084 23.6499 24.6193 23.7542 25.4122 23.9461C25.4945 24.4953 25.6366 24.9993 25.8352 25.4157C25.9614 25.6806 26.2788 25.7929 26.5431 25.6667C26.808 25.5405 26.9203 25.2238 26.7941 24.9588C26.6108 24.5743 26.488 24.0855 26.4295 23.5523C26.4315 23.5032 26.4262 23.4547 26.4156 23.4082C26.2934 22.0123 26.5982 20.3548 27.3891 19.4597C27.5684 19.2565 27.5664 18.951 27.3845 18.7511C26.7536 18.0565 26.3917 17.0286 26.3917 15.9315C26.3917 14.867 26.7363 13.859 27.338 13.1657C27.5206 12.9552 27.5093 12.6391 27.3121 12.4419C26.8034 11.9339 26.2887 11.046 26.6467 9.66543C26.6892 9.63688 26.7323 9.60832 26.7748 9.5791C28.4941 8.3984 29.6615 6.71832 29.8209 5.1943C29.8514 4.90277 29.6396 4.64113 29.3481 4.61059C29.0572 4.58004 28.7949 4.79188 28.7644 5.0834C28.6382 6.28801 27.6209 7.7091 26.1732 8.7032C26.0915 8.75965 26.0085 8.8141 25.9255 8.86656C25.9129 8.87387 25.9003 8.88184 25.8877 8.89047C24.2966 9.88789 22.5308 10.2239 20.9948 9.81086C20.8102 9.76105 20.613 9.81484 20.4789 9.95098C20.0426 10.3932 18.994 10.8063 17.9083 10.6987C17.3558 10.6443 16.5974 10.4284 16.1253 9.71059C16.0343 9.57246 15.8849 9.4848 15.7202 9.47285C15.5555 9.4609 15.3948 9.52598 15.2846 9.64949C14.7925 10.2027 14.1165 10.5068 13.38 10.5068C12.538 10.5068 11.7478 10.0858 11.2663 9.38121C11.1853 9.26234 11.0591 9.18133 10.917 9.15742C10.7749 9.13352 10.6295 9.16738 10.5133 9.25305C9.92824 9.68203 9.17254 9.9191 8.38496 9.9191C8.08281 9.9191 7.80059 9.88922 7.54625 9.83078C7.54559 9.83078 7.54492 9.83078 7.54492 9.83078C7.54426 9.83078 7.54359 9.83012 7.54293 9.83012C6.55613 9.61031 5.74797 9.00535 5.38074 8.2118C5.25723 7.94551 4.9418 7.8293 4.67551 7.95281C4.40922 8.07633 4.29301 8.39176 4.41652 8.65805C4.89398 9.69 5.88742 10.4842 7.09934 10.8143C7.34238 11.21 7.46988 11.6636 7.46988 12.1377C7.46988 12.841 7.17438 13.5163 6.65973 13.9905C6.44457 14.189 6.42996 14.5237 6.62785 14.7402C7.0648 15.2177 7.3052 15.8313 7.3052 16.4681C7.3052 17.0671 7.08539 17.6495 6.69426 18.1116C6.28387 17.9509 5.8416 17.8666 5.39402 17.8666C5.10051 17.8666 4.86277 18.1043 4.86277 18.3979C4.86277 18.6914 5.10051 18.9291 5.39402 18.9291C5.80641 18.9291 6.21082 19.0294 6.56477 19.2193C6.56609 19.22 6.56676 19.22 6.56809 19.2206C6.56941 19.2213 6.57008 19.222 6.57074 19.2226C7.41145 19.6596 7.9334 20.5215 7.9334 21.4731C7.9334 22.8716 6.79387 24.0092 5.39402 24.0092C3.98953 24.0092 2.84668 22.8716 2.84668 21.4731C2.84668 20.7553 3.1548 20.068 3.69137 19.5859C3.82086 19.4696 3.88527 19.2977 3.86402 19.125C3.84277 18.9523 3.73852 18.8016 3.58445 18.7206C2.74176 18.2763 2.21848 17.4137 2.21848 16.4688C2.21848 15.7502 2.50602 15.0895 3.02863 14.608C3.24379 14.4095 3.2584 14.0748 3.06051 13.8583C2.62355 13.3809 2.38316 12.7706 2.38316 12.1384C2.38316 11.5979 2.55184 11.0792 2.87125 10.6383C2.98016 10.4875 3.00273 10.291 2.93035 10.1196C2.86527 9.96625 2.83074 9.80223 2.83074 9.64418C2.83074 9.20988 3.05387 8.82141 3.4284 8.60625C3.5559 8.5332 3.64687 8.41035 3.68074 8.26758C3.71461 8.1248 3.68738 7.97473 3.60703 7.85187C3.33609 7.44215 3.19266 6.95805 3.19266 6.4507C3.19266 5.05219 4.33219 3.91465 5.73203 3.91465C5.99898 3.91465 6.25664 3.95449 6.50102 4.03152C6.02953 4.30777 5.66629 4.70023 5.46309 5.17504C5.34754 5.44465 5.47305 5.75676 5.74266 5.8723C5.81105 5.90152 5.88145 5.91547 5.95117 5.91547C6.1577 5.91547 6.35359 5.79461 6.43992 5.59273C6.64047 5.12324 7.17504 4.77395 7.83512 4.67898C8.04297 4.65508 8.21828 4.64379 8.38629 4.64379C9.48199 4.64379 10.4914 5.09801 11.0857 5.85902C11.2657 6.08945 11.5977 6.13129 11.8288 5.95266C12.2737 5.60934 12.8103 5.42805 13.3814 5.42805C14.4213 5.42805 15.3437 6.04629 15.7321 7.00254C15.8072 7.18715 15.9785 7.31398 16.1771 7.33191C16.3743 7.34984 16.5669 7.25555 16.6731 7.08754C17.3505 6.01906 18.5099 5.3809 19.7743 5.3809C20.5234 5.3809 21.2498 5.60867 21.8761 6.04031C22.0255 6.14324 22.2161 6.1625 22.3834 6.09277C22.5501 6.02238 22.6703 5.8723 22.7008 5.69367C22.9047 4.51695 23.9234 3.66297 25.1227 3.66297C25.4036 3.66297 25.6791 3.71078 25.9408 3.80441C26.0942 3.85953 26.2655 3.84094 26.4036 3.75328C26.5418 3.66629 26.6321 3.5202 26.6487 3.3575C26.7808 2.05129 27.8705 1.06648 29.1834 1.06648C30.5839 1.06648 31.7228 2.20402 31.7228 3.60254C31.7228 4.36355 31.3868 5.07742 30.8004 5.56219C30.6888 5.65449 30.6198 5.78797 30.6091 5.93207C30.5985 6.07617 30.6463 6.21828 30.7426 6.32586C31.4054 7.06695 31.7852 8.15602 31.7852 9.31348C31.7852 10.5234 31.3808 11.6417 30.6749 12.3828C30.483 12.5846 30.479 12.9001 30.6663 13.1066C31.2971 13.8012 31.659 14.8318 31.659 15.9342C31.659 17.0173 31.3044 18.0379 30.6855 18.7345C30.5055 18.9377 30.5069 19.2439 30.6895 19.4444C31.3204 20.139 31.6823 21.167 31.6823 22.264C31.6816 24.0816 30.649 25.6634 29.3308 25.8599ZM16.9394 15.652C16.6339 16.1394 16.1884 16.575 15.6485 16.9017C14.9691 17.3121 14.1842 17.5273 13.3873 17.5273C13.1795 17.5273 12.9703 17.5127 12.7625 17.4828C12.4723 17.4416 12.2697 17.1727 12.3116 16.8818C12.3527 16.5916 12.6223 16.3891 12.9125 16.4309C14.5249 16.66 15.948 15.6679 16.2667 14.5974C16.5025 13.8059 16.1054 13.1239 15.1498 12.677C14.8841 12.5528 14.7693 12.2367 14.8934 11.9704C15.0176 11.7048 15.3337 11.5899 15.6 11.7141C17.1048 12.4173 17.5019 13.5688 17.3664 14.529C19.3719 14.3331 22.4073 14.5888 24.8477 17.164C25.0496 17.3772 25.0403 17.7132 24.8278 17.9151C24.7249 18.0127 24.5934 18.0605 24.4626 18.0605C24.3218 18.0605 24.1817 18.0047 24.0768 17.8945C21.712 15.4009 18.6819 15.3883 16.9394 15.652Z" fill="#008D5C"/>
</g>
<defs>
<clipPath id="clip0_561_13886">
<rect width="34" height="34" fill="white"/>
</clipPath>
</defs>
</svg>
