<svg width="34" height="34" viewBox="0 0 34 34" fill="none" xmlns="http://www.w3.org/2000/svg">
<path fill-rule="evenodd" clip-rule="evenodd" d="M7.81016 6.6569L12.9873 4.04923C14.1164 3.47015 14.8624 3.08765 16.2222 2.99959C17.7388 2.90139 19.7903 3.72447 21.4387 4.38604C22.0711 4.63954 22.4643 4.81491 23.1546 4.95057L26.4861 5.608L25.9348 8.403L22.7465 7.77393C22.2312 7.67282 21.77 7.66493 21.2512 7.74877L19.3525 8.05668C19.3467 8.0577 19.3409 8.05851 19.3352 8.05953L17.3489 8.46203C17.0108 8.53084 16.7189 8.49936 16.4029 8.3603L15.1746 7.82038C14.5521 7.54702 14.5503 6.63915 15.206 6.3834C15.4007 6.30751 15.6121 6.31173 15.8013 6.39476L16.8263 6.84553C17.1096 6.96963 17.3948 6.99969 17.6978 6.93651L19.1349 6.63759C19.3793 6.58638 19.5361 6.34723 19.4851 6.10263C19.4342 5.85851 19.1951 5.70136 18.9506 5.7525L17.5137 6.05197C17.3965 6.07618 17.2998 6.06598 17.1901 6.0177L16.165 5.56767C15.3157 5.19415 14.321 5.58148 13.9476 6.43039C13.9315 6.46772 13.917 6.50512 13.9037 6.54245C13.1116 6.46174 12.7276 6.62269 11.9397 6.89381L8.31322 8.13141C7.90672 8.26986 7.46336 8.05185 7.32457 7.64569C7.18592 7.23905 7.40366 6.79616 7.81016 6.6569ZM6.4692 7.93795C6.76894 8.81569 7.72706 9.28639 8.60494 8.98624L12.4273 7.68179C13.0533 7.46542 13.2935 7.383 13.841 7.44386C13.9502 7.96977 14.308 8.42714 14.8108 8.64821L16.0392 9.18813C16.5277 9.40253 17.0157 9.45156 17.5282 9.34773L19.506 8.94714L21.3957 8.64107C21.8092 8.57409 22.1608 8.58014 22.5717 8.66099L26.2031 9.37731C26.4479 9.42545 26.6857 9.26585 26.7339 9.02126L27.4602 5.33926C27.5083 5.09467 27.349 4.85653 27.1043 4.80839L23.3293 4.06426C22.7159 3.94302 22.3418 3.77451 21.775 3.54678C19.9516 2.81524 17.8847 1.98557 16.1636 2.09763C14.4058 2.2116 13.4696 2.79769 12.1195 3.47674L7.48627 5.81275C6.62886 6.12487 6.17313 7.0702 6.4692 7.93795ZM6.00537 17.1384C6.00537 14.8519 6.77867 12.6967 8.20408 10.9578L7.70027 10.9993C7.45146 11.0198 7.23325 10.8348 7.21257 10.586C7.19211 10.3377 7.37707 10.1191 7.62574 10.0986L9.28188 9.96177C9.51254 9.94341 9.70627 10.0849 9.76455 10.3148C9.76455 10.3148 9.76455 10.3154 9.76468 10.3154L9.91075 12.0352C9.93121 12.2834 9.74626 12.502 9.49758 12.5226C9.24856 12.5431 9.03035 12.358 9.00988 12.1093L8.95677 11.4664C7.62989 13.0552 6.90909 15.0357 6.90909 17.1384C6.90909 19.5764 7.87768 21.8496 9.63623 23.5391C9.92979 23.8217 9.72715 24.317 9.32295 24.317C9.21048 24.317 9.09767 24.2754 9.01002 24.1911C7.0725 22.3292 6.00537 19.8245 6.00537 17.1384ZM27.9943 17.1384C27.9943 19.425 27.221 21.5802 25.7955 23.319L26.2994 23.2776C26.548 23.2565 26.7664 23.442 26.7869 23.6909C26.8076 23.9398 26.6226 24.1578 26.3737 24.1783L24.7175 24.3151C24.4649 24.3367 24.246 24.1525 24.2258 23.8994L24.0889 22.2424C24.0684 21.9935 24.2533 21.7755 24.5021 21.7549C24.7509 21.7345 24.9691 21.9194 24.9896 22.1676L25.0429 22.8111C28.0065 19.2612 27.738 13.9797 24.3635 10.7378C24.1834 10.5649 24.1778 10.2786 24.3507 10.0986C24.5236 9.91899 24.8097 9.91287 24.9896 10.0859C26.9271 11.9483 27.9943 14.4524 27.9943 17.1384ZM25.9191 27.3433L20.7419 29.9511C19.6127 30.5301 18.8668 30.9127 17.5069 31.0006C15.9907 31.0989 13.9387 30.2757 12.2901 29.6142C11.6566 29.3602 11.2669 29.1862 10.5745 29.0496L7.24317 28.3923L7.79431 25.5972L10.9826 26.2262C11.4982 26.3275 11.9594 26.3352 12.478 26.2516L14.3766 25.9437L16.3803 25.5381C16.7186 25.4695 17.0102 25.5008 17.3262 25.64L18.5546 26.1799C19.1774 26.4533 19.1784 27.3614 18.5233 27.6169C18.3285 27.6928 18.117 27.6885 17.9279 27.6054L16.9026 27.1547C16.6192 27.0306 16.3342 27.0004 16.0312 27.0638L14.5942 27.3626C14.3499 27.4138 14.193 27.6531 14.2439 27.897C14.2948 28.1417 14.5339 28.2984 14.7784 28.2478L16.2155 27.9482C16.3327 27.9242 16.4294 27.9338 16.539 27.9826L17.5641 28.4328C18.4537 28.8244 19.5015 28.3766 19.8254 27.4579C20.6404 27.5405 21.0442 27.3621 21.7894 27.1067L25.416 25.8691C25.8223 25.7304 26.2658 25.9486 26.4045 26.3547C26.5431 26.7607 26.3254 27.204 25.9191 27.3433ZM25.124 25.014L21.3017 26.3183C20.6757 26.5347 20.4355 26.6172 19.8881 26.5564C19.7788 26.0303 19.421 25.5729 18.9182 25.3519L17.6899 24.8121C17.2059 24.5994 16.7188 24.5468 16.2007 24.6523L14.2232 25.053L12.3332 25.3591C11.92 25.426 11.5684 25.4199 11.1575 25.3393L7.52585 24.6229C7.28078 24.5746 7.04332 24.7344 6.99504 24.979L6.26894 28.661C6.22086 28.9045 6.38107 29.1434 6.62485 29.1918L10.3995 29.9358C11.0113 30.0568 11.3883 30.2262 11.9535 30.4528C13.7383 31.1682 15.824 32.014 17.5652 31.9024C19.3176 31.7901 20.265 31.1996 21.6094 30.5233L26.2426 28.1875C27.1003 27.8753 27.5558 26.93 27.2599 26.0623C26.9602 25.1844 26.0021 24.714 25.124 25.014ZM19.789 17.7873H18.1006C17.851 17.7873 17.6487 17.9899 17.6487 18.2392V19.9274H16.351V18.2392C16.351 17.9899 16.1485 17.7873 15.8991 17.7873H14.2105V16.4896H15.8991C16.1486 16.4896 16.351 16.287 16.351 16.0376V14.3493H17.6487V16.0376C17.6487 16.2871 17.851 16.4896 18.1006 16.4896H19.789V17.7873ZM19.874 15.5856H18.5525V14.2643C18.5525 13.813 18.1852 13.4455 17.7336 13.4455H16.266C15.8145 13.4455 15.4472 13.8131 15.4472 14.2643V15.5856H14.1255C13.6741 15.5856 13.3068 15.9532 13.3068 16.4045V17.8723C13.3068 18.3237 13.6741 18.6912 14.1255 18.6912H15.4472V20.0125C15.4472 20.4644 15.8145 20.8312 16.266 20.8312H17.7336C18.1852 20.8312 18.5525 20.4644 18.5525 20.0125V18.6912H19.874C20.3254 18.6912 20.6927 18.3236 20.6927 17.8723V16.4045C20.6927 15.9532 20.3254 15.5856 19.874 15.5856ZM16.9997 22.9781C21.5237 21.4977 21.9411 17.6868 21.8713 13.5167C20.1212 13.2323 18.3511 12.3862 17.0008 11.1896C15.6743 12.3688 13.8708 13.2305 12.1283 13.5167C12.0585 17.6862 12.4758 21.4978 16.9997 22.9781ZM22.3667 12.6731C20.5439 12.4646 18.6556 11.5585 17.3157 10.2486C17.1394 10.0763 16.8576 10.0775 16.6823 10.2504C15.3788 11.538 13.4442 12.4665 11.6329 12.6731C11.4087 12.6991 11.2377 12.8858 11.2325 13.1118C11.1855 15.1519 11.1979 17.494 11.942 19.4654C12.7726 21.6652 14.383 23.1106 16.8654 23.8842C16.9544 23.9116 17.0452 23.9116 17.1341 23.8842C19.6167 23.1106 21.227 21.6652 22.0574 19.4654C22.8017 17.494 22.814 15.1519 22.7671 13.1118C22.7619 12.8858 22.591 12.6991 22.3667 12.6731Z" fill="#008D5C"/>
</svg>
