<svg width="36" height="36" viewBox="0 0 36 36" fill="none" xmlns="http://www.w3.org/2000/svg">
<path d="M8.15892 26.9882C8.15892 28.2842 9.21948 29.3448 10.5155 29.3448C11.8115 29.3448 12.872 28.2842 12.872 26.9882V4.83887H8.1582V26.9882H8.15892Z" fill="#F3EEEE"/>
<path d="M13.029 3.50781H8.0027C7.63694 3.50781 7.33813 3.80733 7.33813 4.17309C7.33813 4.53885 7.63766 4.83837 8.0027 4.83837H13.029C13.3948 4.83837 13.6936 4.53885 13.6936 4.17309C13.6936 3.80733 13.3941 3.50781 13.029 3.50781Z" fill="#F3EEEE"/>
<path d="M10.5162 23.7744V6.09624H12.8728V4.83984H8.15894V26.9892C8.15894 28.2852 9.2195 29.3458 10.5155 29.3458C11.7136 29.3458 12.7093 28.44 12.8533 27.2794C10.5155 27.2794 10.5155 23.7744 10.5155 23.7744H10.5162Z" fill="#DAD5D5"/>
<path d="M8.15892 18.9717V26.9889C8.15892 28.2849 9.21948 29.3454 10.5155 29.3454C11.8115 29.3454 12.872 28.2849 12.872 26.9889V18.9717H8.1582H8.15892Z" fill="#FFE780"/>
<path d="M10.7438 29.3344C10.8093 29.3279 10.8741 29.3185 10.9375 29.307C10.9468 29.3056 10.9555 29.3041 10.9648 29.302C11.0275 29.2897 11.0887 29.2753 11.1491 29.2581C11.1585 29.2552 11.1679 29.253 11.1772 29.2501C11.2377 29.2321 11.2967 29.2127 11.3551 29.1904C11.3637 29.1875 11.3716 29.1839 11.3803 29.1803C11.4393 29.1565 11.4976 29.1313 11.5538 29.1033C11.5595 29.1004 11.5646 29.0975 11.5703 29.0946C11.6294 29.0651 11.6877 29.0327 11.7439 28.9981C11.7439 28.9981 11.7453 28.9974 11.746 28.9967C11.8634 28.924 11.9743 28.8419 12.0772 28.7505C12.0787 28.749 12.0808 28.7476 12.083 28.7454C12.1327 28.7008 12.1809 28.654 12.227 28.6057C12.2291 28.6029 12.232 28.6007 12.2342 28.5978C12.2795 28.5489 12.3235 28.4985 12.3652 28.4459C12.3674 28.4437 12.3688 28.4409 12.371 28.4387C12.4127 28.3854 12.4531 28.33 12.4905 28.2731C12.4905 28.2731 12.4912 28.2717 12.4919 28.2709C12.6835 27.9779 12.8109 27.6409 12.8563 27.2788C10.5184 27.2788 10.5184 23.7738 10.5184 23.7738V18.9707H8.16187V26.9879C8.16187 28.2839 9.22242 29.3445 10.5184 29.3445C10.589 29.3445 10.6581 29.3409 10.7272 29.3344C10.7337 29.3344 10.7402 29.3337 10.7467 29.3329L10.7438 29.3344Z" fill="#E8AE4E"/>
<path d="M11.1672 7.39683H9.86541C9.80061 7.39683 9.74805 7.34427 9.74805 7.27947C9.74805 7.21467 9.80061 7.16211 9.86541 7.16211H11.1672C11.232 7.16211 11.2845 7.21467 11.2845 7.27947C11.2845 7.34427 11.232 7.39683 11.1672 7.39683Z" fill="#6A6565"/>
<path d="M11.1672 9.90562H9.86541C9.80061 9.90562 9.74805 9.85306 9.74805 9.78826C9.74805 9.72346 9.80061 9.6709 9.86541 9.6709H11.1672C11.232 9.6709 11.2845 9.72346 11.2845 9.78826C11.2845 9.85306 11.232 9.90562 11.1672 9.90562Z" fill="#6A6565"/>
<path d="M11.1672 12.4164H9.86541C9.80061 12.4164 9.74805 12.3638 9.74805 12.299C9.74805 12.2342 9.80061 12.1816 9.86541 12.1816H11.1672C11.232 12.1816 11.2845 12.2342 11.2845 12.299C11.2845 12.3638 11.232 12.4164 11.1672 12.4164Z" fill="#6A6565"/>
<path d="M11.1672 14.9251H9.86541C9.80061 14.9251 9.74805 14.8726 9.74805 14.8078C9.74805 14.743 9.80061 14.6904 9.86541 14.6904H11.1672C11.232 14.6904 11.2845 14.743 11.2845 14.8078C11.2845 14.8726 11.232 14.9251 11.1672 14.9251Z" fill="#6A6565"/>
<path d="M11.1672 17.4339H9.86541C9.80061 17.4339 9.74805 17.3814 9.74805 17.3166C9.74805 17.2518 9.80061 17.1992 9.86541 17.1992H11.1672C11.232 17.1992 11.2845 17.2518 11.2845 17.3166C11.2845 17.3814 11.232 17.4339 11.1672 17.4339Z" fill="#6A6565"/>
<path d="M11.1672 19.9437H9.86541C9.80061 19.9437 9.74805 19.8911 9.74805 19.8263C9.74805 19.7615 9.80061 19.709 9.86541 19.709H11.1672C11.232 19.709 11.2845 19.7615 11.2845 19.8263C11.2845 19.8911 11.232 19.9437 11.1672 19.9437Z" fill="#6A6565"/>
<path d="M11.1672 22.4525H9.86541C9.80061 22.4525 9.74805 22.3999 9.74805 22.3351C9.74805 22.2703 9.80061 22.2178 9.86541 22.2178H11.1672C11.232 22.2178 11.2845 22.2703 11.2845 22.3351C11.2845 22.3999 11.232 22.4525 11.1672 22.4525Z" fill="#6A6565"/>
<path d="M11.1672 24.9623H9.86541C9.80061 24.9623 9.74805 24.9097 9.74805 24.8449C9.74805 24.7801 9.80061 24.7275 9.86541 24.7275H11.1672C11.232 24.7275 11.2845 24.7801 11.2845 24.8449C11.2845 24.9097 11.232 24.9623 11.1672 24.9623Z" fill="#6A6565"/>
<path d="M15.5823 26.9882C15.5823 28.2842 16.6428 29.3448 17.9388 29.3448C19.2348 29.3448 20.2954 28.2842 20.2954 26.9882V4.83887H15.5815V26.9882H15.5823Z" fill="#F3EEEE"/>
<path d="M20.4524 3.50781H15.426C15.0603 3.50781 14.7615 3.80733 14.7615 4.17309C14.7615 4.53885 15.061 4.83837 15.426 4.83837H20.4524C20.8181 4.83837 21.1169 4.53885 21.1169 4.17309C21.1169 3.80733 20.8174 3.50781 20.4524 3.50781Z" fill="#F3EEEE"/>
<path d="M17.9396 23.7744V6.09624H20.2961V4.83984H15.5823V26.9892C15.5823 28.2852 16.6428 29.3458 17.9388 29.3458C19.1369 29.3458 20.1327 28.44 20.2767 27.2794C17.9993 27.2794 17.9388 23.7744 17.9388 23.7744H17.9396Z" fill="#DAD5D5"/>
<path d="M15.5823 13.1162V26.9892C15.5823 28.2852 16.6428 29.3457 17.9388 29.3457C19.2348 29.3457 20.2954 28.2852 20.2954 26.9892V13.1162H15.5815H15.5823Z" fill="#FF4B72"/>
<path d="M18.1671 29.3342C18.2326 29.3277 18.2974 29.3184 18.3608 29.3069C18.3702 29.3054 18.3788 29.304 18.3882 29.3018C18.4508 29.2896 18.512 29.2752 18.5725 29.2579C18.5818 29.255 18.5912 29.2529 18.6006 29.25C18.661 29.232 18.7201 29.2125 18.7784 29.1902C18.787 29.1873 18.795 29.1837 18.8036 29.1801C18.8626 29.1564 18.921 29.1312 18.9771 29.1031C18.9829 29.1002 18.9879 29.0973 18.9937 29.0945C19.0527 29.0649 19.111 29.0325 19.1672 28.998C19.1672 28.998 19.1686 28.9973 19.1694 28.9965C19.2867 28.9238 19.3976 28.8417 19.5006 28.7503C19.502 28.7489 19.5042 28.7474 19.5063 28.7453C19.556 28.7006 19.6042 28.6538 19.6503 28.6056C19.6525 28.6027 19.6554 28.6005 19.6575 28.5977C19.7029 28.5487 19.7468 28.4983 19.7886 28.4457C19.7907 28.4436 19.7922 28.4407 19.7943 28.4385C19.8361 28.3853 19.8764 28.3298 19.9138 28.2729C19.9138 28.2729 19.9146 28.2715 19.9153 28.2708C20.1068 27.9777 20.2342 27.6408 20.2796 27.2786C17.9418 27.2786 17.9418 23.7737 17.9418 23.7737V13.1162H15.5852V26.9892C15.5852 28.2852 16.6458 29.3457 17.9418 29.3457C18.0123 29.3457 18.0814 29.3421 18.1506 29.3357C18.157 29.3357 18.1635 29.3349 18.17 29.3342H18.1671Z" fill="#FA5477"/>
<path d="M18.5905 7.39683H17.2887C17.2239 7.39683 17.1714 7.34427 17.1714 7.27947C17.1714 7.21467 17.2239 7.16211 17.2887 7.16211H18.5905C18.6553 7.16211 18.7079 7.21467 18.7079 7.27947C18.7079 7.34427 18.6553 7.39683 18.5905 7.39683Z" fill="#6A6565"/>
<path d="M18.5905 9.90562H17.2887C17.2239 9.90562 17.1714 9.85306 17.1714 9.78826C17.1714 9.72346 17.2239 9.6709 17.2887 9.6709H18.5905C18.6553 9.6709 18.7079 9.72346 18.7079 9.78826C18.7079 9.85306 18.6553 9.90562 18.5905 9.90562Z" fill="#6A6565"/>
<path d="M18.5905 12.4164H17.2887C17.2239 12.4164 17.1714 12.3638 17.1714 12.299C17.1714 12.2342 17.2239 12.1816 17.2887 12.1816H18.5905C18.6553 12.1816 18.7079 12.2342 18.7079 12.299C18.7079 12.3638 18.6553 12.4164 18.5905 12.4164Z" fill="#6A6565"/>
<path d="M18.5905 14.9251H17.2887C17.2239 14.9251 17.1714 14.8726 17.1714 14.8078C17.1714 14.743 17.2239 14.6904 17.2887 14.6904H18.5905C18.6553 14.6904 18.7079 14.743 18.7079 14.8078C18.7079 14.8726 18.6553 14.9251 18.5905 14.9251Z" fill="#6A6565"/>
<path d="M18.5905 17.4339H17.2887C17.2239 17.4339 17.1714 17.3814 17.1714 17.3166C17.1714 17.2518 17.2239 17.1992 17.2887 17.1992H18.5905C18.6553 17.1992 18.7079 17.2518 18.7079 17.3166C18.7079 17.3814 18.6553 17.4339 18.5905 17.4339Z" fill="#6A6565"/>
<path d="M18.5905 19.9437H17.2887C17.2239 19.9437 17.1714 19.8911 17.1714 19.8263C17.1714 19.7615 17.2239 19.709 17.2887 19.709H18.5905C18.6553 19.709 18.7079 19.7615 18.7079 19.8263C18.7079 19.8911 18.6553 19.9437 18.5905 19.9437Z" fill="#6A6565"/>
<path d="M18.5905 22.4525H17.2887C17.2239 22.4525 17.1714 22.3999 17.1714 22.3351C17.1714 22.2703 17.2239 22.2178 17.2887 22.2178H18.5905C18.6553 22.2178 18.7079 22.2703 18.7079 22.3351C18.7079 22.3999 18.6553 22.4525 18.5905 22.4525Z" fill="#6A6565"/>
<path d="M18.5905 24.9623H17.2887C17.2239 24.9623 17.1714 24.9097 17.1714 24.8449C17.1714 24.7801 17.2239 24.7275 17.2887 24.7275H18.5905C18.6553 24.7275 18.7079 24.7801 18.7079 24.8449C18.7079 24.9097 18.6553 24.9623 18.5905 24.9623Z" fill="#6A6565"/>
<path d="M23.0054 26.9882C23.0054 28.2842 24.0659 29.3448 25.3619 29.3448C26.6579 29.3448 27.7185 28.2842 27.7185 26.9882V4.83887H23.0046V26.9882H23.0054Z" fill="#F3EEEE"/>
<path d="M27.8755 3.50781H22.8491C22.4834 3.50781 22.1846 3.80733 22.1846 4.17309C22.1846 4.53885 22.4841 4.83837 22.8491 4.83837H27.8755C28.2412 4.83837 28.54 4.53885 28.54 4.17309C28.54 3.80733 28.2405 3.50781 27.8755 3.50781Z" fill="#F3EEEE"/>
<path d="M25.3627 23.7744V6.09624H27.7192V4.83984H23.0054V26.9892C23.0054 28.2852 24.0659 29.3458 25.3619 29.3458C26.56 29.3458 27.5558 28.44 27.6998 27.2794C25.3619 27.2794 25.3619 23.7744 25.3619 23.7744H25.3627Z" fill="#DAD5D5"/>
<path d="M23.0054 10.4619V26.9888C23.0054 28.2848 24.0659 29.3454 25.3619 29.3454C26.6579 29.3454 27.7185 28.2848 27.7185 26.9888V10.4619H23.0046H23.0054Z" fill="#759CBB"/>
<path d="M25.5902 29.3338C25.6557 29.3274 25.7205 29.318 25.7839 29.3065C25.7933 29.305 25.8019 29.3036 25.8113 29.3014C25.8739 29.2892 25.9351 29.2748 25.9956 29.2575C26.0049 29.2546 26.0143 29.2525 26.0237 29.2496C26.0841 29.2316 26.1432 29.2122 26.2015 29.1898C26.2101 29.187 26.2181 29.1834 26.2267 29.1798C26.2857 29.156 26.3441 29.1308 26.4002 29.1027C26.406 29.0998 26.411 29.097 26.4168 29.0941C26.4758 29.0646 26.5341 29.0322 26.5903 28.9976C26.5903 28.9976 26.5917 28.9969 26.5925 28.9962C26.7098 28.9234 26.8207 28.8414 26.9237 28.7499C26.9251 28.7485 26.9273 28.747 26.9294 28.7449C26.9791 28.7002 27.0273 28.6534 27.0734 28.6052C27.0756 28.6023 27.0785 28.6002 27.0806 28.5973C27.126 28.5483 27.1699 28.4979 27.2117 28.4454C27.2138 28.4432 27.2153 28.4403 27.2174 28.4382C27.2592 28.3849 27.2995 28.3294 27.3369 28.2726C27.3369 28.2726 27.3377 28.2711 27.3384 28.2704C27.5299 27.9774 27.6573 27.6404 27.7027 27.2782C25.3649 27.2782 25.3649 23.7733 25.3649 23.7733V10.4619H23.0083V26.9888C23.0083 28.2848 24.0689 29.3454 25.3649 29.3454C25.4354 29.3454 25.5045 29.3418 25.5737 29.3353C25.5801 29.3353 25.5866 29.3346 25.5931 29.3338H25.5902Z" fill="#4270B7"/>
<path d="M26.0136 7.39683H24.7118C24.647 7.39683 24.5945 7.34427 24.5945 7.27947C24.5945 7.21467 24.647 7.16211 24.7118 7.16211H26.0136C26.0784 7.16211 26.131 7.21467 26.131 7.27947C26.131 7.34427 26.0784 7.39683 26.0136 7.39683Z" fill="#6A6565"/>
<path d="M26.0136 9.90562H24.7118C24.647 9.90562 24.5945 9.85306 24.5945 9.78826C24.5945 9.72346 24.647 9.6709 24.7118 9.6709H26.0136C26.0784 9.6709 26.131 9.72346 26.131 9.78826C26.131 9.85306 26.0784 9.90562 26.0136 9.90562Z" fill="#6A6565"/>
<path d="M26.0136 12.4164H24.7118C24.647 12.4164 24.5945 12.3638 24.5945 12.299C24.5945 12.2342 24.647 12.1816 24.7118 12.1816H26.0136C26.0784 12.1816 26.131 12.2342 26.131 12.299C26.131 12.3638 26.0784 12.4164 26.0136 12.4164Z" fill="#6A6565"/>
<path d="M26.0136 14.9251H24.7118C24.647 14.9251 24.5945 14.8726 24.5945 14.8078C24.5945 14.743 24.647 14.6904 24.7118 14.6904H26.0136C26.0784 14.6904 26.131 14.743 26.131 14.8078C26.131 14.8726 26.0784 14.9251 26.0136 14.9251Z" fill="#6A6565"/>
<path d="M26.0136 17.4339H24.7118C24.647 17.4339 24.5945 17.3814 24.5945 17.3166C24.5945 17.2518 24.647 17.1992 24.7118 17.1992H26.0136C26.0784 17.1992 26.131 17.2518 26.131 17.3166C26.131 17.3814 26.0784 17.4339 26.0136 17.4339Z" fill="#6A6565"/>
<path d="M26.0136 19.9437H24.7118C24.647 19.9437 24.5945 19.8911 24.5945 19.8263C24.5945 19.7615 24.647 19.709 24.7118 19.709H26.0136C26.0784 19.709 26.131 19.7615 26.131 19.8263C26.131 19.8911 26.0784 19.9437 26.0136 19.9437Z" fill="#6A6565"/>
<path d="M26.0136 22.4525H24.7118C24.647 22.4525 24.5945 22.3999 24.5945 22.3351C24.5945 22.2703 24.647 22.2178 24.7118 22.2178H26.0136C26.0784 22.2178 26.131 22.2703 26.131 22.3351C26.131 22.3999 26.0784 22.4525 26.0136 22.4525Z" fill="#6A6565"/>
<path d="M26.0136 24.9623H24.7118C24.647 24.9623 24.5945 24.9097 24.5945 24.8449C24.5945 24.7801 24.647 24.7275 24.7118 24.7275H26.0136C26.0784 24.7275 26.131 24.7801 26.131 24.8449C26.131 24.9097 26.0784 24.9623 26.0136 24.9623Z" fill="#6A6565"/>
<path d="M3.95068 15.1357H5.78884V29.4861H3.95068V15.1357Z" fill="#787373"/>
<path d="M30.063 15.1357H31.9011V29.4861H30.063V15.1357Z" fill="#787373"/>
<path d="M32.6945 29.0479H3.15789C2.7336 29.0479 2.38965 29.3918 2.38965 29.8161V31.7241C2.38965 32.1484 2.7336 32.4923 3.15789 32.4923H32.6945C33.1187 32.4923 33.4627 32.1484 33.4627 31.7241V29.8161C33.4627 29.3918 33.1187 29.0479 32.6945 29.0479Z" fill="#8F8A8A"/>
<path d="M2.38965 30.7705V31.2399C2.38965 31.929 2.95341 32.4927 3.64245 32.4927H32.2099C32.8989 32.4927 33.4627 31.929 33.4627 31.2399V30.7705H2.38965Z" fill="#6A6565"/>
<path d="M34.3714 14.2051H1.6287C1.35631 14.2051 1.1355 14.4259 1.1355 14.6983V15.3189C1.1355 15.5913 1.35631 15.8121 1.6287 15.8121H34.3714C34.6438 15.8121 34.8646 15.5913 34.8646 15.3189V14.6983C34.8646 14.4259 34.6438 14.2051 34.3714 14.2051Z" fill="#8F8A8A"/>
<path d="M1.93902 15.8123H34.0611C34.5032 15.8123 34.8646 15.4509 34.8646 15.0088H1.1355C1.1355 15.4509 1.49694 15.8123 1.93902 15.8123Z" fill="#6A6565"/>
<path d="M9.86534 7.51339H11.1671C11.2967 7.51339 11.4018 7.40827 11.4018 7.27867C11.4018 7.14907 11.2967 7.04395 11.1671 7.04395H9.86534C9.73574 7.04395 9.63062 7.14907 9.63062 7.27867C9.63062 7.40827 9.73574 7.51339 9.86534 7.51339Z" fill="#564B57"/>
<path d="M9.86534 10.0232H11.1671C11.2967 10.0232 11.4018 9.91803 11.4018 9.78843C11.4018 9.65883 11.2967 9.55371 11.1671 9.55371H9.86534C9.73574 9.55371 9.63062 9.65883 9.63062 9.78843C9.63062 9.91803 9.73574 10.0232 9.86534 10.0232Z" fill="#564B57"/>
<path d="M9.86534 12.5329H11.1671C11.2967 12.5329 11.4018 12.4278 11.4018 12.2982C11.4018 12.1686 11.2967 12.0635 11.1671 12.0635H9.86534C9.73574 12.0635 9.63062 12.1686 9.63062 12.2982C9.63062 12.4278 9.73574 12.5329 9.86534 12.5329Z" fill="#564B57"/>
<path d="M9.86534 17.5515H11.1671C11.2967 17.5515 11.4018 17.4464 11.4018 17.3168C11.4018 17.1872 11.2967 17.082 11.1671 17.082H9.86534C9.73574 17.082 9.63062 17.1872 9.63062 17.3168C9.63062 17.4464 9.73574 17.5515 9.86534 17.5515Z" fill="#564B57"/>
<path d="M9.86534 20.0603H11.1671C11.2967 20.0603 11.4018 19.9551 11.4018 19.8255C11.4018 19.6959 11.2967 19.5908 11.1671 19.5908H9.86534C9.73574 19.5908 9.63062 19.6959 9.63062 19.8255C9.63062 19.9551 9.73574 20.0603 9.86534 20.0603Z" fill="#564B57"/>
<path d="M9.86534 22.569H11.1671C11.2967 22.569 11.4018 22.4639 11.4018 22.3343C11.4018 22.2047 11.2967 22.0996 11.1671 22.0996H9.86534C9.73574 22.0996 9.63062 22.2047 9.63062 22.3343C9.63062 22.4639 9.73574 22.569 9.86534 22.569Z" fill="#564B57"/>
<path d="M9.86534 25.0788H11.1671C11.2967 25.0788 11.4018 24.9737 11.4018 24.8441C11.4018 24.7145 11.2967 24.6094 11.1671 24.6094H9.86534C9.73574 24.6094 9.63062 24.7145 9.63062 24.8441C9.63062 24.9737 9.73574 25.0788 9.86534 25.0788Z" fill="#564B57"/>
<path d="M17.2887 7.51339H18.5904C18.72 7.51339 18.8252 7.40827 18.8252 7.27867C18.8252 7.14907 18.72 7.04395 18.5904 7.04395H17.2887C17.1591 7.04395 17.054 7.14907 17.054 7.27867C17.054 7.40827 17.1591 7.51339 17.2887 7.51339Z" fill="#564B57"/>
<path d="M17.2884 10.0232H18.5902C18.7198 10.0232 18.8249 9.91803 18.8249 9.78843C18.8249 9.65883 18.7198 9.55371 18.5902 9.55371H17.2884C17.1588 9.55371 17.0537 9.65883 17.0537 9.78843C17.0537 9.91803 17.1588 10.0232 17.2884 10.0232Z" fill="#564B57"/>
<path d="M17.2884 12.5329H18.5902C18.7198 12.5329 18.8249 12.4278 18.8249 12.2982C18.8249 12.1686 18.7198 12.0635 18.5902 12.0635H17.2884C17.1588 12.0635 17.0537 12.1686 17.0537 12.2982C17.0537 12.4278 17.1588 12.5329 17.2884 12.5329Z" fill="#564B57"/>
<path d="M17.2884 17.5515H18.5902C18.7198 17.5515 18.8249 17.4464 18.8249 17.3168C18.8249 17.1872 18.7198 17.082 18.5902 17.082H17.2884C17.1588 17.082 17.0537 17.1872 17.0537 17.3168C17.0537 17.4464 17.1588 17.5515 17.2884 17.5515Z" fill="#564B57"/>
<path d="M17.2887 20.0603H18.5904C18.72 20.0603 18.8252 19.9551 18.8252 19.8255C18.8252 19.6959 18.72 19.5908 18.5904 19.5908H17.2887C17.1591 19.5908 17.054 19.6959 17.054 19.8255C17.054 19.9551 17.1591 20.0603 17.2887 20.0603Z" fill="#564B57"/>
<path d="M17.2884 22.569H18.5902C18.7198 22.569 18.8249 22.4639 18.8249 22.3343C18.8249 22.2047 18.7198 22.0996 18.5902 22.0996H17.2884C17.1588 22.0996 17.0537 22.2047 17.0537 22.3343C17.0537 22.4639 17.1588 22.569 17.2884 22.569Z" fill="#564B57"/>
<path d="M17.2887 25.0788H18.5904C18.72 25.0788 18.8252 24.9737 18.8252 24.8441C18.8252 24.7145 18.72 24.6094 18.5904 24.6094H17.2887C17.1591 24.6094 17.054 24.7145 17.054 24.8441C17.054 24.9737 17.1591 25.0788 17.2887 25.0788Z" fill="#564B57"/>
<path d="M24.7118 7.51339H26.0135C26.1431 7.51339 26.2483 7.40827 26.2483 7.27867C26.2483 7.14907 26.1431 7.04395 26.0135 7.04395H24.7118C24.5822 7.04395 24.4771 7.14907 24.4771 7.27867C24.4771 7.40827 24.5822 7.51339 24.7118 7.51339Z" fill="#564B57"/>
<path d="M24.7118 10.0232H26.0135C26.1431 10.0232 26.2483 9.91803 26.2483 9.78843C26.2483 9.65883 26.1431 9.55371 26.0135 9.55371H24.7118C24.5822 9.55371 24.4771 9.65883 24.4771 9.78843C24.4771 9.91803 24.5822 10.0232 24.7118 10.0232Z" fill="#564B57"/>
<path d="M24.7118 12.5329H26.0135C26.1431 12.5329 26.2483 12.4278 26.2483 12.2982C26.2483 12.1686 26.1431 12.0635 26.0135 12.0635H24.7118C24.5822 12.0635 24.4771 12.1686 24.4771 12.2982C24.4771 12.4278 24.5822 12.5329 24.7118 12.5329Z" fill="#564B57"/>
<path d="M24.7118 17.5515H26.0135C26.1431 17.5515 26.2483 17.4464 26.2483 17.3168C26.2483 17.1872 26.1431 17.082 26.0135 17.082H24.7118C24.5822 17.082 24.4771 17.1872 24.4771 17.3168C24.4771 17.4464 24.5822 17.5515 24.7118 17.5515Z" fill="#564B57"/>
<path d="M24.7118 20.0603H26.0135C26.1431 20.0603 26.2483 19.9551 26.2483 19.8255C26.2483 19.6959 26.1431 19.5908 26.0135 19.5908H24.7118C24.5822 19.5908 24.4771 19.6959 24.4771 19.8255C24.4771 19.9551 24.5822 20.0603 24.7118 20.0603Z" fill="#564B57"/>
<path d="M24.7118 22.569H26.0135C26.1431 22.569 26.2483 22.4639 26.2483 22.3343C26.2483 22.2047 26.1431 22.0996 26.0135 22.0996H24.7118C24.5822 22.0996 24.4771 22.2047 24.4771 22.3343C24.4771 22.4639 24.5822 22.569 24.7118 22.569Z" fill="#564B57"/>
<path d="M24.7118 25.0788H26.0135C26.1431 25.0788 26.2483 24.9737 26.2483 24.8441C26.2483 24.7145 26.1431 24.6094 26.0135 24.6094H24.7118C24.5822 24.6094 24.4771 24.7145 24.4771 24.8441C24.4771 24.9737 24.5822 25.0788 24.7118 25.0788Z" fill="#564B57"/>
<path d="M34.061 13.9698H27.9539V5.0684C28.4133 5.0288 28.7754 4.64216 28.7754 4.17272C28.7754 3.67664 28.3715 3.27344 27.8762 3.27344H22.8498C22.3538 3.27344 21.9506 3.67664 21.9506 4.17272C21.9506 4.64216 22.3127 5.0288 22.7721 5.0684V13.9698H20.5322V5.0684C20.9915 5.0288 21.3537 4.64216 21.3537 4.17272C21.3537 3.67664 20.9498 3.27344 20.4544 3.27344H15.4281C14.932 3.27344 14.5288 3.67664 14.5288 4.17272C14.5288 4.64216 14.891 5.0288 15.3503 5.0684V13.9698H13.1104V5.0684C13.5698 5.0288 13.9319 4.64216 13.9319 4.17272C13.9319 3.67664 13.528 3.27344 13.0326 3.27344H8.00271C7.50663 3.27344 7.10343 3.67664 7.10343 4.17272C7.10343 4.64216 7.46559 5.0288 7.92495 5.0684V13.9698H1.93887C1.36647 13.9698 0.900635 14.4356 0.900635 15.008C0.900635 15.5804 1.36647 16.0462 1.93887 16.0462H3.71583V28.8126H3.64167C2.82159 28.8126 2.15415 29.48 2.15415 30.3001V31.2397C2.15415 32.0598 2.82159 32.7272 3.64167 32.7272H32.2098C33.0299 32.7272 33.6974 32.0598 33.6974 31.2397V30.3001C33.6974 29.48 33.0299 28.8126 32.2098 28.8126H32.1357V16.0462H34.061C34.6334 16.0462 35.0992 15.5804 35.0992 15.008C35.0992 14.4356 34.6334 13.9698 34.061 13.9698ZM22.4193 4.17272C22.4193 3.93584 22.6122 3.74216 22.8498 3.74216H27.8762C28.113 3.74216 28.3067 3.93512 28.3067 4.17272C28.3067 4.41032 28.1138 4.60328 27.8762 4.60328H22.8498C22.613 4.60328 22.4193 4.41032 22.4193 4.17272ZM27.4852 5.07416V13.9705H23.2408V5.07344H27.4852V5.07416ZM14.9961 4.17272C14.9961 3.93584 15.189 3.74216 15.4266 3.74216H20.453C20.6898 3.74216 20.8835 3.93512 20.8835 4.17272C20.8835 4.41032 20.6906 4.60328 20.453 4.60328H15.4266C15.1898 4.60328 14.9961 4.41032 14.9961 4.17272ZM20.062 5.07416V13.9705H15.8176V5.07344H20.062V5.07416ZM7.57287 4.17272C7.57287 3.93584 7.76583 3.74216 8.00343 3.74216H13.0298C13.2666 3.74216 13.4603 3.93512 13.4603 4.17272C13.4603 4.41032 13.2674 4.60328 13.0298 4.60328H8.00271C7.76583 4.60328 7.57215 4.41032 7.57215 4.17272H7.57287ZM12.6388 5.07416V13.9705H8.39439V5.07344H12.6388V5.07416ZM32.2098 29.282C32.7707 29.282 33.2279 29.7385 33.2279 30.3001V31.2397C33.2279 31.8006 32.7714 32.2578 32.2098 32.2578H3.64167C3.08079 32.2578 2.62359 31.8013 2.62359 31.2397V30.3001C2.62359 29.7392 3.08007 29.282 3.64167 29.282H32.2098ZM4.18527 28.8126V16.0462H5.55399V28.8126H4.18527ZM8.68095 28.8126H6.02343V16.0462H7.92423V26.9888C7.92423 27.6757 8.20431 28.3316 8.68095 28.8133V28.8126ZM16.1258 28.8126H12.3515C12.8282 28.3323 13.1075 27.6786 13.1075 26.9881V16.0462H15.3474V26.9888C15.3474 27.6894 15.6304 28.3359 16.1258 28.8133V28.8126ZM23.5281 28.8126H19.797C20.2312 28.3453 20.4933 27.7081 20.5307 27.0003C20.5307 26.996 20.5307 26.9924 20.5307 26.9881V16.0462H22.7706V26.9888C22.7706 27.675 23.0514 28.3316 23.5281 28.8133V28.8126ZM27.4845 26.9881C27.4845 27.7297 27.0856 28.4288 26.4426 28.8126H24.279C24.279 28.8126 24.2733 28.8082 24.2704 28.8061C23.6346 28.4216 23.2394 27.7254 23.2394 26.9881V16.0462H27.4838V26.9888L27.4845 26.9881ZM27.9539 26.9881V16.0462H29.8281V28.8126H27.1972C27.6738 28.3316 27.9539 27.675 27.9539 26.9881ZM20.0613 26.9816C20.0202 27.7268 19.6898 28.3741 19.1526 28.7586C19.1318 28.7737 19.1145 28.7924 19.1001 28.8118H16.9062C16.9062 28.8118 16.9048 28.8104 16.9041 28.8104C16.2237 28.4259 15.8176 27.7441 15.8176 26.9881V16.0462H20.062V26.9823L20.0613 26.9816ZM12.6381 26.9881C12.6381 27.7347 12.2392 28.4288 11.5941 28.8126H9.43479C9.43479 28.8126 9.43479 28.8126 9.43407 28.8126C8.79255 28.4295 8.39367 27.7304 8.39367 26.9888V16.0462H12.6381V26.9888V26.9881ZM30.2975 28.8126V16.0462H31.6662V28.8126H30.2975ZM34.061 15.5768H1.93887C1.62495 15.5768 1.37007 15.3219 1.37007 15.008C1.37007 14.6941 1.62495 14.4392 1.93887 14.4392H34.061C34.3749 14.4392 34.6298 14.6941 34.6298 15.008C34.6298 15.3219 34.3749 15.5768 34.061 15.5768Z" fill="#564B57"/>
</svg>
