<svg width="76" height="112" viewBox="0 0 76 112" fill="none" xmlns="http://www.w3.org/2000/svg">
<g filter="url(#filter0_d_561_13009)">
<path d="M57.3956 18.5585C52.8402 18.0401 48.123 19.3067 44.3707 22.3555C44.4603 23.0731 44.5098 23.8033 44.5098 24.5453C44.5098 24.9131 44.4968 25.2778 44.4745 25.64C46.7059 24.4547 49.2236 24.0004 51.6748 24.2793C52.0859 27.8913 50.9095 31.6494 48.1393 34.4197C45.5422 37.0168 42.0769 38.2129 38.6777 38.0136C43.5894 38.3813 48.6253 36.6966 52.3812 32.9408C56.3103 29.0117 57.9786 23.6812 57.3956 18.5585Z" fill="#008D5C"/>
<path d="M27.8608 34.4197C25.0906 31.6495 23.9143 27.8912 24.3253 24.2794C26.6909 24.0101 29.1176 24.4265 31.2901 25.521C31.2724 25.1979 31.2618 24.8729 31.2618 24.5453C31.2618 23.7448 31.3215 22.9587 31.4256 22.1868C27.7073 19.2573 23.077 18.0495 18.6044 18.5585C18.0215 23.6813 19.6898 29.0117 23.6188 32.9407C27.3748 36.6966 32.4109 38.3812 37.3223 38.0136C33.9232 38.2129 30.4578 37.0167 27.8608 34.4197Z" fill="#008D5C"/>
<path d="M38.2258 37.9746C41.8012 34.9796 44.1687 30.5916 44.4744 25.6398C44.4968 25.2776 44.5098 24.913 44.5098 24.5451C44.5098 23.8031 44.4603 23.073 44.3706 22.3554C43.7891 17.699 41.3816 13.6111 37.8857 10.8297C34.4324 13.5773 32.0438 17.6006 31.4255 22.1867C31.3215 22.9586 31.2617 23.7446 31.2617 24.5451C31.2617 24.8727 31.2723 25.1978 31.2901 25.5209C31.5655 30.531 33.9509 34.9731 37.5669 37.9924C34.9071 35.7265 33.2154 32.3583 33.2154 28.5904C33.2154 27.9898 33.2632 27.401 33.3461 26.8234C33.4582 26.0426 33.6416 25.2853 33.8927 24.5591C34.6674 22.3176 36.0667 20.3675 37.8857 18.9202C39.7573 20.4093 41.1834 22.4313 41.9431 24.7547C42.1781 25.4737 42.35 26.2207 42.4498 26.9911C42.5177 27.5149 42.556 28.0481 42.556 28.5904C42.556 32.3484 40.8735 35.7089 38.2258 37.9746Z" fill="#4270B7"/>
<path d="M65.5081 31.9734C65.4816 31.7408 65.2939 31.5513 65.0601 31.5401C64.8435 31.5296 64.626 31.5501 64.4177 31.6142C63.389 31.9306 62.9975 33.121 62.8353 34.0739C62.7904 34.3379 62.1285 37.0273 61.958 37.471C61.039 39.8502 59.978 42.1848 58.5858 44.3306C58.0908 45.0933 57.5066 45.8012 56.8078 46.383C56.4186 46.707 55.984 46.9921 55.4957 47.1273C55.0147 47.2604 54.4744 47.2344 54.0477 46.9755C53.9198 46.8978 53.7918 46.7731 53.81 46.6245C53.823 46.5192 53.9059 46.4384 53.9828 46.3652C55.6294 44.8 56.6608 42.6039 56.8138 40.3373C56.8315 40.0749 56.5609 39.6072 56.3136 39.9938C53.9536 43.6852 44.8625 49.9623 44.8625 49.9623C36.9325 55.4524 38.3268 63.731 38.3268 63.731C40.9411 61.0295 50.5269 56.0623 50.5269 56.0623C66.729 49.232 65.8 34.5258 65.5081 31.9734Z" fill="#4270B7"/>
<path d="M31.1376 49.9623C31.1376 49.9623 22.0466 43.6852 19.6865 39.9939C19.4392 39.6072 19.1686 40.0749 19.1864 40.3373C19.3393 42.6039 20.3707 44.8 22.0173 46.3652C22.0942 46.4384 22.1773 46.5192 22.1901 46.6245C22.2084 46.7731 22.0804 46.8978 21.9524 46.9755C21.5258 47.2344 20.9855 47.2604 20.5045 47.1273C20.0162 46.9923 19.5816 46.707 19.1925 46.383C18.4937 45.8012 17.9093 45.0933 17.4144 44.3306C16.0221 42.1848 14.9613 39.8502 14.0423 37.471C13.8718 37.0273 13.2097 34.3379 13.1649 34.074C13.0026 33.121 12.6112 31.9306 11.5825 31.6142C11.3741 31.5501 11.1566 31.5296 10.94 31.5401C10.7064 31.5513 10.5186 31.7408 10.492 31.9734C10.2003 34.5258 9.27113 49.232 25.4733 56.0623C25.4733 56.0623 35.059 61.0295 37.6734 63.731C37.6734 63.731 39.0676 55.4524 31.1376 49.9623Z" fill="#4270B7"/>
<path d="M11.4897 30.3219C11.9899 30.3219 12.3954 29.9164 12.3954 29.4162H12.3964C12.3964 15.2983 23.8821 3.81244 38.0002 3.81244C52.118 3.81244 63.6038 15.2983 63.6038 29.4162H63.6048C63.6048 29.9164 64.0103 30.3219 64.5105 30.3219C65.0107 30.3219 65.4162 29.9164 65.4162 29.4162C65.4162 14.299 53.1175 2.00006 38.0002 2.00006C22.883 2.00006 10.584 14.299 10.584 29.4162C10.584 29.9164 10.9895 30.3219 11.4897 30.3219Z" fill="#4270B7"/>
<path d="M52.0621 34.556C52.0485 34.4373 51.9528 34.3406 51.8334 34.3349C51.723 34.3296 51.612 34.34 51.5056 34.3728C50.9808 34.5342 50.781 35.1416 50.6983 35.6278C50.6754 35.7624 50.3376 37.1347 50.2506 37.3611C49.7818 38.5751 49.2404 39.7663 48.53 40.8611C48.2775 41.2503 47.9793 41.6115 47.6227 41.9083C47.4242 42.0736 47.2025 42.2192 46.9533 42.288C46.7079 42.3559 46.4322 42.3427 46.2145 42.2106C46.1493 42.171 46.084 42.1073 46.0933 42.0315C46.0999 41.9778 46.1422 41.9366 46.1815 41.8993C47.0216 41.1007 47.5478 39.9801 47.6259 38.8235C47.6349 38.6896 47.4968 38.451 47.3706 38.6483C46.1665 40.5318 41.528 43.7346 41.528 43.7346C37.4818 46.5358 38.1932 50.7599 38.1932 50.7599C39.5271 49.3815 44.4181 46.8471 44.4181 46.8471C52.685 43.362 52.211 35.8584 52.0621 34.556Z" fill="#4270B7"/>
<path d="M34.5251 43.7347C34.5251 43.7347 29.8866 40.5318 28.6823 38.6484C28.5562 38.4511 28.4181 38.6897 28.4271 38.8236C28.5052 39.9802 29.0315 41.1007 29.8716 41.8993C29.9108 41.9367 29.9532 41.9779 29.9598 42.0316C29.9691 42.1074 29.9038 42.171 29.8385 42.2107C29.6209 42.3428 29.3451 42.356 29.0997 42.2882C28.8506 42.2192 28.6289 42.0737 28.4302 41.9083C28.0737 41.6116 27.7755 41.2504 27.523 40.8612C26.8127 39.7663 26.2713 38.5751 25.8025 37.3611C25.7154 37.1347 25.3777 35.7624 25.3548 35.6278C25.2719 35.1416 25.0722 34.5342 24.5473 34.3728C24.4411 34.3402 24.3301 34.3296 24.2197 34.3349C24.1003 34.3407 24.0045 34.4374 23.991 34.5561C23.8421 35.8584 23.368 43.3621 31.635 46.8471C31.635 46.8471 36.5259 49.3816 37.8599 50.7599C37.8599 50.7599 38.5713 46.5359 34.5251 43.7347Z" fill="#4270B7"/>
<path fill-rule="evenodd" clip-rule="evenodd" d="M25.8295 71.731V93.2402H28.3082V84.4141L32.032 93.2402H34.5832L30.5569 84.0633L34.3776 75.1042H31.8749L28.3082 83.7249V71.731H25.8295ZM3 93.2402V71.9606H5.50274V91.1726H9.43226V93.2402H3ZM15.4969 82.5761H18.447V80.2667C18.447 79.5413 18.4228 78.9307 18.3744 78.435C18.3261 77.9393 18.2091 77.5645 18.0239 77.3105C17.8383 77.0566 17.5321 76.9298 17.1049 76.9298C16.6292 76.9298 16.2767 77.0749 16.0471 77.365C15.8173 77.6552 15.668 78.0562 15.5997 78.568C15.5312 79.0799 15.4969 79.6744 15.4969 80.3514V82.5761ZM17.0082 93.4576C16.1376 93.4576 15.4383 93.3065 14.9105 93.0042C14.3825 92.702 13.9814 92.2728 13.7075 91.7166C13.4334 91.1604 13.25 90.4935 13.1573 89.7155C13.0646 88.9378 13.0183 88.0772 13.0183 87.1343V80.7262C13.0183 79.872 13.0788 79.0879 13.1997 78.3746C13.3206 77.6612 13.53 77.0446 13.8285 76.5247C14.1266 76.0048 14.5417 75.6019 15.0736 75.3156C15.6057 75.0297 16.2827 74.8864 17.1049 74.8864C17.935 74.8864 18.6042 75.0315 19.112 75.3217C19.6198 75.6118 20.0046 76.021 20.2666 76.5488C20.5285 77.0769 20.7037 77.7056 20.7927 78.435C20.8812 79.1646 20.9256 79.9645 20.9256 80.835V84.2566H15.509V87.8718C15.509 89.0164 15.5875 89.889 15.7448 90.4894C15.9019 91.09 16.3311 91.3901 17.0324 91.3901C17.4919 91.3901 17.8201 91.2471 18.0178 90.9609C18.2152 90.6749 18.3362 90.2717 18.3806 89.7518C18.4247 89.2319 18.447 88.6175 18.447 87.9081V86.4451H20.8772V87.2189C20.8772 88.162 20.8388 89.0164 20.7623 89.782C20.6857 90.5479 20.5225 91.2049 20.2727 91.7529C20.0228 92.3011 19.6379 92.7222 19.1181 93.0163C18.5982 93.3104 17.8948 93.4576 17.0082 93.4576ZM41.869 93.4822C40.5793 93.4822 39.5999 93.0771 38.931 92.2671C38.2618 91.457 37.9275 90.113 37.9275 88.2349V86.8685H40.3335V88.2228C40.3335 89.2383 40.4442 90.0163 40.666 90.5563C40.8876 91.0963 41.2524 91.3663 41.7603 91.3663C42.2681 91.3663 42.6408 91.2012 42.8785 90.8706C43.1162 90.5402 43.2352 89.9477 43.2352 89.0933C43.2352 88.6661 43.1706 88.2408 43.0418 87.8176C42.9128 87.3946 42.7153 86.9755 42.4493 86.5603C42.1833 86.1452 41.8407 85.7402 41.4216 85.3451L40.14 84.124C39.3741 83.3906 38.7899 82.6107 38.3868 81.7844C37.9837 80.9583 37.7824 80.0817 37.7824 79.1548C37.7824 77.6878 38.1287 76.6096 38.8221 75.9205C39.5153 75.2313 40.4704 74.8868 41.6876 74.8868C42.5016 74.8868 43.1868 75.0641 43.743 75.4187C44.2992 75.7735 44.7182 76.3618 45.0005 77.184C45.2825 78.0061 45.4236 79.1266 45.4236 80.5451V81.4158H43.066V80.1583C43.066 79.1427 42.9672 78.3649 42.7698 77.8248C42.5722 77.2848 42.2196 77.0147 41.7118 77.0147C41.22 77.0147 40.8512 77.1579 40.6055 77.4439C40.3596 77.7301 40.2247 78.2521 40.2005 79.0097C40.1923 79.3966 40.2428 79.7876 40.3516 80.1824C40.4604 80.5775 40.6397 80.9683 40.8896 81.3552C41.1394 81.7421 41.4618 82.1211 41.8569 82.4917L43.1627 83.713C44.009 84.4948 44.6477 85.3351 45.0791 86.2337C45.5102 87.1326 45.7259 88.0817 45.7259 89.0811C45.7259 90.4515 45.4134 91.5276 44.7888 92.3093C44.1641 93.0914 43.1908 93.4822 41.869 93.4822ZM55.2242 82.5761H52.2742V80.3514C52.2742 79.6744 52.3084 79.0799 52.3769 78.568C52.4454 78.0562 52.5946 77.6552 52.8244 77.365C53.0541 77.0749 53.4065 76.9298 53.8822 76.9298C54.3094 76.9298 54.6156 77.0566 54.8012 77.3105C54.9864 77.5645 55.1033 77.9393 55.1517 78.435C55.2001 78.9307 55.2242 79.5413 55.2242 80.2667V82.5761ZM51.6878 93.0042C52.2156 93.3065 52.915 93.4576 53.7856 93.4576C54.6721 93.4576 55.3755 93.3104 55.8954 93.0163C56.4152 92.7222 56.8001 92.3011 57.05 91.7529C57.2997 91.2049 57.463 90.5479 57.5397 89.782C57.6161 89.0164 57.6545 88.162 57.6545 87.2189V86.4451H55.2242V87.9081C55.2242 88.6175 55.202 89.2319 55.1578 89.7518C55.1135 90.2717 54.9925 90.6749 54.7951 90.9609C54.5975 91.2471 54.2691 91.3901 53.8097 91.3901C53.1084 91.3901 52.6792 91.09 52.5221 90.4894C52.3649 89.889 52.2863 89.0164 52.2863 87.8718V84.2566H57.7029V80.835C57.7029 79.9645 57.6585 79.1646 57.5699 78.435C57.4811 77.7056 57.3057 77.0769 57.0439 76.5488C56.7819 76.021 56.3971 75.6118 55.8893 75.3217C55.3815 75.0315 54.7123 74.8864 53.8822 74.8864C53.0601 74.8864 52.383 75.0297 51.851 75.3156C51.319 75.6019 50.9038 76.0048 50.6057 76.5247C50.3074 77.0446 50.0979 77.6612 49.977 78.3746C49.8561 79.0879 49.7956 79.872 49.7956 80.7262V87.1343C49.7956 88.0772 49.8418 88.9378 49.9346 89.7155C50.0272 90.4935 50.2106 91.1604 50.4848 91.7166C50.7587 92.2728 51.1597 92.702 51.6878 93.0042ZM62.5827 71.731H65.0613V93.2402H62.5827V71.731ZM73 71.731H70.5214V93.2402H73V71.731Z" fill="#4270B7"/>
<path fill-rule="evenodd" clip-rule="evenodd" d="M5.04918 104.945C4.95539 105.047 4.81948 105.097 4.64125 105.097C4.45676 105.097 4.31607 105.047 4.21919 104.945C4.12222 104.843 4.0566 104.675 4.02225 104.439C3.9878 104.202 3.97067 103.881 3.97067 103.475V99.7657C3.97067 99.2719 4.01832 98.9069 4.1137 98.6709C4.20899 98.4349 4.39273 98.3168 4.66465 98.3168C4.92731 98.3168 5.09767 98.4356 5.17583 98.6732C5.25389 98.9108 5.29302 99.2765 5.29302 99.7705V103.475C5.29302 103.878 5.2758 104.199 5.24144 104.436C5.207 104.674 5.14297 104.843 5.04918 104.945ZM3.66356 105.66C3.90272 105.841 4.22865 105.932 4.64125 105.932C5.05386 105.932 5.3782 105.841 5.61417 105.66C5.85024 105.479 6.01751 105.205 6.11599 104.839C6.21446 104.474 6.26369 104.016 6.26369 103.466V99.8267C6.26369 99.4703 6.24179 99.1483 6.19798 98.8607C6.15418 98.5732 6.07527 98.327 5.96126 98.1221C5.84706 97.9174 5.68531 97.7596 5.47592 97.6486C5.26643 97.5377 4.99601 97.4822 4.66465 97.4822C4.22387 97.4822 3.88315 97.5791 3.6425 97.7729C3.40165 97.9667 3.23448 98.2387 3.14069 98.5889C3.04699 98.9389 3 99.3515 3 99.8267V103.466C3 104.016 3.05083 104.474 3.15239 104.839C3.25395 105.205 3.4244 105.479 3.66356 105.66ZM8.47595 98.8046V105.838H9.43726V100.329C9.43726 100.141 9.46768 99.9878 9.52862 99.8691C9.58965 99.7502 9.67324 99.6627 9.77957 99.6065C9.88581 99.5502 10.003 99.522 10.1312 99.522C10.3063 99.522 10.4501 99.5783 10.5627 99.6908C10.6752 99.8034 10.7314 99.9847 10.7314 100.235V105.838H11.6927V100.23C11.6927 99.7206 11.5943 99.3408 11.3973 99.0906C11.2004 98.8406 10.9253 98.7155 10.572 98.7155C10.2876 98.7155 10.0429 98.8 9.83817 98.9687C9.63336 99.1375 9.4997 99.3315 9.43726 99.5502V98.8046H8.47595ZM15.4572 105.923C15.1164 105.923 14.8421 105.865 14.6342 105.75C14.4262 105.634 14.2685 105.467 14.1606 105.25C14.0527 105.033 13.9801 104.774 13.9426 104.472C13.905 104.17 13.8863 103.835 13.8863 103.466V101.112C13.8863 100.643 13.9253 100.229 14.0035 99.8695C14.0816 99.5099 14.2349 99.2286 14.4631 99.0253C14.6912 98.8221 15.0305 98.7206 15.4806 98.7206C15.7931 98.7206 16.0457 98.7721 16.2379 98.8753C16.4302 98.9784 16.577 99.127 16.6787 99.3208C16.7803 99.5146 16.849 99.7459 16.885 100.015C16.9209 100.284 16.9388 100.582 16.9388 100.91V101.398H15.9917V100.779C15.9917 100.51 15.9831 100.284 15.966 100.102C15.9487 99.9187 15.9041 99.7803 15.8323 99.6865C15.7604 99.5927 15.64 99.5459 15.4712 99.5459C15.293 99.5459 15.1602 99.5967 15.0726 99.6982C14.9851 99.7998 14.9264 99.9452 14.8969 100.134C14.8671 100.324 14.8522 100.548 14.8522 100.807V103.799C14.8522 104.09 14.8647 104.331 14.8897 104.523C14.9147 104.716 14.9695 104.859 15.0539 104.955C15.1384 105.05 15.268 105.098 15.443 105.098C15.6119 105.098 15.7345 105.047 15.8112 104.945C15.8877 104.844 15.937 104.697 15.9589 104.505C15.9807 104.312 15.9917 104.083 15.9917 103.818V103.138H16.9388V103.593C16.9388 103.94 16.9217 104.255 16.8873 104.54C16.8529 104.824 16.7849 105.07 16.6833 105.276C16.5817 105.482 16.4325 105.642 16.2356 105.754C16.0386 105.867 15.7791 105.923 15.4572 105.923ZM20.912 104.952C20.829 105.065 20.7033 105.121 20.5345 105.121C20.3594 105.121 20.2281 105.065 20.1406 104.952C20.0531 104.84 19.996 104.683 19.9695 104.481C19.9428 104.28 19.9296 104.046 19.9296 103.78V100.831C19.9296 100.568 19.9428 100.339 19.9695 100.144C19.996 99.9483 20.0531 99.796 20.1406 99.6865C20.2281 99.5771 20.3594 99.5224 20.5345 99.5224C20.7001 99.5224 20.8252 99.5771 20.9097 99.6865C20.9941 99.796 21.0503 99.9483 21.0785 100.144C21.1067 100.339 21.1206 100.568 21.1206 100.831V103.78C21.1206 104.046 21.1067 104.28 21.0785 104.481C21.0503 104.683 20.9947 104.84 20.912 104.952ZM19.728 105.752C19.9343 105.866 20.2031 105.923 20.5345 105.923C20.8689 105.923 21.1386 105.865 21.3434 105.75C21.5481 105.634 21.7044 105.469 21.8122 105.255C21.9201 105.041 21.9927 104.787 22.0302 104.493C22.0678 104.199 22.0866 103.872 22.0866 103.513V101.023C22.0866 100.692 22.0654 100.386 22.0232 100.106C21.981 99.8264 21.9038 99.5826 21.7912 99.3747C21.6787 99.1668 21.5208 99.0059 21.3175 98.8917C21.1142 98.7777 20.8534 98.7206 20.5345 98.7206C20.1093 98.7206 19.7834 98.8206 19.5569 99.0206C19.3301 99.2208 19.1747 99.4942 19.0902 99.8413C19.0058 100.188 18.9637 100.582 18.9637 101.023V103.513C18.9637 103.879 18.9839 104.209 19.0246 104.505C19.0652 104.8 19.1411 105.053 19.252 105.264C19.363 105.475 19.5217 105.638 19.728 105.752ZM24.3177 97.4964H25.279V105.838H24.3177V97.4964ZM29.4771 104.952C29.3942 105.065 29.2684 105.121 29.0997 105.121C28.9245 105.121 28.7932 105.065 28.7058 104.952C28.6182 104.84 28.5611 104.683 28.5346 104.481C28.508 104.28 28.4947 104.046 28.4947 103.78V100.831C28.4947 100.568 28.508 100.339 28.5346 100.144C28.5611 99.9483 28.6182 99.796 28.7058 99.6865C28.7932 99.5771 28.9245 99.5224 29.0997 99.5224C29.2653 99.5224 29.3903 99.5771 29.4747 99.6865C29.5592 99.796 29.6154 99.9483 29.6436 100.144C29.6717 100.339 29.6857 100.568 29.6857 100.831V103.78C29.6857 104.046 29.6717 104.28 29.6436 104.481C29.6154 104.683 29.5599 104.84 29.4771 104.952ZM28.2932 105.752C28.4995 105.866 28.7682 105.923 29.0997 105.923C29.4341 105.923 29.7037 105.865 29.9085 105.75C30.1132 105.634 30.2696 105.469 30.3774 105.255C30.4852 105.041 30.5579 104.787 30.5955 104.493C30.6329 104.199 30.6517 103.872 30.6517 103.513V101.023C30.6517 100.692 30.6306 100.386 30.5884 100.106C30.5462 99.8264 30.4689 99.5826 30.3563 99.3747C30.2438 99.1668 30.0859 99.0059 29.8827 98.8917C29.6794 98.7777 29.4185 98.7206 29.0997 98.7206C28.6745 98.7206 28.3485 98.8206 28.1219 99.0206C27.8952 99.2208 27.7399 99.4942 27.6553 99.8413C27.5709 100.188 27.5288 100.582 27.5288 101.023V103.513C27.5288 103.879 27.549 104.209 27.5897 104.505C27.6304 104.8 27.7062 105.053 27.8171 105.264C27.9281 105.475 28.0868 105.638 28.2932 105.752ZM34.3786 104.418C34.5035 104.418 34.6067 104.38 34.688 104.305C34.7694 104.23 34.8295 104.09 34.8686 103.886C34.9076 103.681 34.9272 103.386 34.9272 103.002V100.831C34.9272 100.403 34.8889 100.077 34.8123 99.8554C34.7357 99.6335 34.5755 99.5224 34.3317 99.5224C34.1535 99.5224 34.0214 99.578 33.9355 99.6889C33.8494 99.7998 33.794 99.9523 33.769 100.146C33.7439 100.34 33.7315 100.565 33.7315 100.821V103.011C33.7315 103.477 33.7737 103.828 33.858 104.064C33.9426 104.3 34.1159 104.418 34.3786 104.418ZM34.2848 106.913C33.9628 106.922 33.6728 106.886 33.4149 106.805C33.157 106.723 32.936 106.609 32.7515 106.462L33.0985 105.806C33.236 105.9 33.3985 105.982 33.586 106.054C33.7737 106.126 33.991 106.159 34.2379 106.153C34.4566 106.147 34.6263 106.065 34.7466 105.907C34.867 105.749 34.9272 105.537 34.9272 105.271V104.601C34.8365 104.832 34.7115 104.987 34.5521 105.065C34.3926 105.143 34.2113 105.182 34.0081 105.182C33.6799 105.182 33.4259 105.087 33.2462 104.896C33.0663 104.706 32.9414 104.444 32.8711 104.113C32.8007 103.782 32.7655 103.407 32.7655 102.988V100.971C32.7655 100.543 32.8069 100.159 32.8898 99.8178C32.9726 99.4772 33.1109 99.2075 33.3048 99.009C33.4986 98.8105 33.7612 98.7144 34.0925 98.7207C34.2926 98.7238 34.4654 98.7738 34.6107 98.8706C34.756 98.9676 34.8616 99.1177 34.9272 99.3209V98.805H35.8884V105.182C35.8884 105.382 35.8643 105.583 35.8158 105.782C35.7673 105.982 35.6845 106.166 35.5673 106.333C35.4501 106.501 35.2874 106.637 35.0796 106.741C34.8717 106.846 34.6067 106.903 34.2848 106.913ZM37.9977 106.289V107.015H38.9401C39.1715 107.015 39.3458 106.982 39.463 106.915C39.5802 106.847 39.667 106.737 39.7233 106.584C39.7796 106.431 39.8264 106.228 39.8639 105.975L41.0315 98.8047H40.1031L39.6436 102.462L39.4607 104.366H39.3763L39.17 102.462L38.6635 98.8047H37.7304L38.8792 105.59C38.898 105.715 38.9112 105.831 38.9191 105.939C38.9268 106.047 38.9121 106.126 38.8746 106.176C38.8526 106.223 38.7908 106.253 38.6894 106.268C38.5877 106.282 38.4681 106.289 38.3306 106.289H37.9977ZM47.6367 105.937C47.2364 105.937 46.9176 105.839 46.6801 105.644C46.4425 105.449 46.2721 105.162 46.1689 104.784C46.0658 104.405 46.0142 103.946 46.0142 103.405V99.9679C46.0142 99.6053 46.0376 99.2732 46.0845 98.9714C46.1314 98.6698 46.2151 98.4087 46.3355 98.1883C46.4557 97.9679 46.6238 97.7976 46.8395 97.6772C47.0552 97.5569 47.3319 97.4968 47.6694 97.4968C47.9914 97.4968 48.254 97.5538 48.4572 97.6679C48.6604 97.782 48.8183 97.9445 48.9308 98.1555C49.0434 98.3665 49.1207 98.6166 49.163 98.9058C49.2051 99.1949 49.2262 99.5146 49.2262 99.8647V100.779H48.2744V99.8601C48.2744 99.3473 48.2376 98.9636 48.1641 98.7088C48.0906 98.4541 47.9257 98.3267 47.6694 98.3267C47.3975 98.3267 47.2153 98.4572 47.1232 98.7182C47.0309 98.9793 46.9849 99.3583 46.9849 99.8553V103.428C46.9849 103.829 47.002 104.153 47.0365 104.401C47.0708 104.65 47.1356 104.831 47.2311 104.943C47.3263 105.056 47.4631 105.112 47.6413 105.112C47.9008 105.112 48.0711 104.981 48.1524 104.718C48.2338 104.455 48.2744 104.024 48.2744 103.424V102.509H49.2356V103.414C49.2356 103.965 49.188 104.427 49.0927 104.802C48.9972 105.178 48.8339 105.46 48.6026 105.651C48.3713 105.842 48.0493 105.937 47.6367 105.937ZM53.3845 101.703H52.2404V100.84C52.2404 100.577 52.2536 100.347 52.2803 100.148C52.3068 99.95 52.3646 99.7944 52.4537 99.6819C52.5427 99.5693 52.6796 99.5129 52.864 99.5129C53.0297 99.5129 53.1485 99.5622 53.2203 99.6606C53.2923 99.7591 53.3376 99.9046 53.3563 100.097C53.3752 100.289 53.3845 100.526 53.3845 100.807V101.703ZM52.013 105.747C52.2177 105.865 52.4889 105.923 52.8265 105.923C53.1704 105.923 53.4431 105.866 53.6447 105.752C53.8464 105.638 53.9957 105.475 54.0925 105.262C54.1894 105.049 54.2527 104.795 54.2825 104.498C54.3121 104.201 54.327 103.869 54.327 103.504V103.203H53.3845V103.771C53.3845 104.046 53.3758 104.284 53.3587 104.486C53.3416 104.687 53.2947 104.844 53.2181 104.955C53.1413 105.066 53.014 105.121 52.8359 105.121C52.564 105.121 52.3975 105.005 52.3364 104.772C52.2755 104.539 52.2451 104.201 52.2451 103.757V102.355H54.3458V101.028C54.3458 100.69 54.3286 100.38 54.2942 100.097C54.2597 99.814 54.1918 99.57 54.0903 99.3652C53.9885 99.1605 53.8393 99.0018 53.6424 98.8893C53.4455 98.7768 53.186 98.7206 52.864 98.7206C52.5452 98.7206 52.2826 98.7761 52.0762 98.887C51.8699 98.998 51.7089 99.1543 51.5933 99.3559C51.4775 99.5576 51.3964 99.7966 51.3494 100.073C51.3025 100.35 51.2791 100.654 51.2791 100.985V103.471C51.2791 103.836 51.2971 104.17 51.3331 104.472C51.3689 104.774 51.4401 105.032 51.5463 105.248C51.6526 105.464 51.8081 105.63 52.013 105.747ZM56.4596 105.838V98.8046H57.4209V99.5502C57.4834 99.3315 57.617 99.1375 57.8218 98.9687C58.0265 98.8 58.2711 98.7155 58.5557 98.7155C58.9089 98.7155 59.1841 98.8406 59.381 99.0906C59.5779 99.3408 59.6763 99.7206 59.6763 100.23V105.838H58.7151V100.235C58.7151 99.9847 58.6588 99.8034 58.5462 99.6908C58.4338 99.5783 58.29 99.522 58.1148 99.522C57.9866 99.522 57.8695 99.5502 57.7632 99.6065C57.6569 99.6627 57.5732 99.7502 57.5123 99.8691C57.4514 99.9878 57.4209 100.141 57.4209 100.329V105.838H56.4596ZM62.5217 105.773C62.6749 105.845 62.9016 105.881 63.2016 105.881H63.8629V105.117C63.6315 105.117 63.4611 105.107 63.3518 105.089C63.2423 105.07 63.172 105.032 63.1407 104.974C63.1094 104.916 63.0938 104.828 63.0938 104.709V99.5742H63.8535V98.8614H63.0938V97.5861H62.1326V98.8614H61.4901V99.5742H62.1326V104.793C62.1326 105.056 62.1592 105.267 62.2123 105.426C62.2653 105.586 62.3686 105.701 62.5217 105.773ZM66.5863 101.703H67.7304V100.807C67.7304 100.526 67.721 100.289 67.7022 100.097C67.6835 99.9046 67.6382 99.7591 67.5662 99.6606C67.4943 99.5622 67.3755 99.5129 67.2098 99.5129C67.0254 99.5129 66.8886 99.5693 66.7996 99.6819C66.7105 99.7944 66.6526 99.95 66.6261 100.148C66.5995 100.347 66.5863 100.577 66.5863 100.84V101.703ZM67.1723 105.923C66.8348 105.923 66.5635 105.865 66.3588 105.747C66.154 105.63 65.9984 105.464 65.8922 105.248C65.7859 105.032 65.7147 104.774 65.679 104.472C65.6429 104.17 65.6249 103.836 65.6249 103.471V100.985C65.6249 100.654 65.6483 100.35 65.6952 100.073C65.7422 99.7966 65.8234 99.5576 65.9392 99.3559C66.0548 99.1543 66.2158 98.998 66.4221 98.887C66.6285 98.7761 66.891 98.7206 67.2098 98.7206C67.5318 98.7206 67.7913 98.7768 67.9883 98.8893C68.1852 99.0018 68.3344 99.1605 68.4361 99.3652C68.5376 99.57 68.6056 99.814 68.64 100.097C68.6744 100.38 68.6917 100.69 68.6917 101.028V102.355H66.5909V103.757C66.5909 104.201 66.6214 104.539 66.6823 104.772C66.7433 105.005 66.9098 105.121 67.1817 105.121C67.3599 105.121 67.4872 105.066 67.5639 104.955C67.6405 104.844 67.6874 104.687 67.7045 104.486C67.7217 104.284 67.7304 104.046 67.7304 103.771V103.203H68.6729V103.504C68.6729 103.869 68.658 104.201 68.6283 104.498C68.5986 104.795 68.5353 105.049 68.4384 105.262C68.3415 105.475 68.1922 105.638 67.9906 105.752C67.789 105.866 67.5162 105.923 67.1723 105.923ZM70.8242 98.8046V105.838H71.7901V100.122C71.884 99.9754 71.9965 99.8589 72.1278 99.773C72.2591 99.687 72.3998 99.626 72.5498 99.59C72.7 99.5541 72.8499 99.5362 73 99.5362V99.1282C73 99.0219 72.9991 98.9274 72.9976 98.8444C72.996 98.7617 72.9921 98.7202 72.9859 98.7202C72.6733 98.7202 72.4163 98.7968 72.2146 98.9499C72.0129 99.1033 71.8715 99.3157 71.7901 99.5878V98.8046H70.8242Z" fill="#4270B7"/>
</g>
<defs>
<filter id="filter0_d_561_13009" x="0" y="0" width="76" height="111.016" filterUnits="userSpaceOnUse" color-interpolation-filters="sRGB">
<feFlood flood-opacity="0" result="BackgroundImageFix"/>
<feColorMatrix in="SourceAlpha" type="matrix" values="0 0 0 0 0 0 0 0 0 0 0 0 0 0 0 0 0 0 127 0" result="hardAlpha"/>
<feOffset dy="1"/>
<feGaussianBlur stdDeviation="1.5"/>
<feComposite in2="hardAlpha" operator="out"/>
<feColorMatrix type="matrix" values="0 0 0 0 0 0 0 0 0 0 0 0 0 0 0 0 0 0 0.15 0"/>
<feBlend mode="normal" in2="BackgroundImageFix" result="effect1_dropShadow_561_13009"/>
<feBlend mode="normal" in="SourceGraphic" in2="effect1_dropShadow_561_13009" result="shape"/>
</filter>
</defs>
</svg>
