<svg width="46" height="46" viewBox="0 0 46 46" fill="none" xmlns="http://www.w3.org/2000/svg">
<rect width="46" height="46" rx="23" fill="#EEF7F4"/>
<path d="M32.1273 16.0473C29.9836 15.7953 27.7637 16.4109 25.9979 17.8925C26.0401 18.2413 26.0634 18.5961 26.0634 18.9567C26.0634 19.1354 26.0573 19.3127 26.0468 19.4887C27.0968 18.9127 28.2816 18.6919 29.4351 18.8275C29.6286 20.5828 29.075 22.4092 27.7714 23.7554C26.5492 25.0176 24.9184 25.5989 23.3188 25.502C25.6302 25.6807 28.0001 24.862 29.7676 23.0367C31.6166 21.1273 32.4017 18.5368 32.1273 16.0473Z" fill="#008D5C"/>
<path d="M18.2286 23.7554C16.9249 22.4092 16.3714 20.5827 16.5648 18.8275C17.6781 18.6966 18.82 18.899 19.8424 19.4309C19.8341 19.2739 19.8291 19.1159 19.8291 18.9567C19.8291 18.5677 19.8572 18.1857 19.9061 17.8105C18.1563 16.3869 15.9774 15.7999 13.8726 16.0473C13.5983 18.5368 14.3834 21.1273 16.2323 23.0367C17.9999 24.862 20.3698 25.6806 22.6811 25.502C21.0815 25.5989 19.4507 25.0175 18.2286 23.7554Z" fill="#008D5C"/>
<path d="M23.1063 25.4829C24.7889 24.0274 25.903 21.895 26.0468 19.4885C26.0574 19.3125 26.0635 19.1353 26.0635 18.9565C26.0635 18.5959 26.0402 18.2411 25.998 17.8923C25.7244 15.6294 24.5914 13.6428 22.9463 12.2911C21.3212 13.6264 20.1971 15.5816 19.9062 17.8103C19.8572 18.1855 19.8291 18.5675 19.8291 18.9565C19.8291 19.1157 19.8341 19.2737 19.8424 19.4307C19.9721 21.8655 21.0946 24.0243 22.7963 25.4916C21.5446 24.3904 20.7485 22.7535 20.7485 20.9224C20.7485 20.6305 20.771 20.3444 20.81 20.0637C20.8627 19.6843 20.9491 19.3162 21.0672 18.9633C21.4318 17.874 22.0903 16.9262 22.9463 16.2229C23.8271 16.9466 24.4982 17.9292 24.8557 19.0583C24.9662 19.4078 25.0472 19.7708 25.0941 20.1452C25.1261 20.3998 25.1441 20.6588 25.1441 20.9224C25.1441 22.7487 24.3523 24.3818 23.1063 25.4829Z" fill="#4270B7"/>
<path d="M35.9451 22.5667C35.9326 22.4536 35.8443 22.3616 35.7342 22.3561C35.6323 22.351 35.53 22.361 35.4319 22.3921C34.9478 22.5459 34.7636 23.1244 34.6873 23.5875C34.6661 23.7157 34.3546 25.0228 34.2744 25.2384C33.8419 26.3946 33.3426 27.5292 32.6875 28.572C32.4546 28.9427 32.1796 29.2867 31.8508 29.5694C31.6676 29.7269 31.4631 29.8654 31.2333 29.9311C31.007 29.9958 30.7527 29.9832 30.5519 29.8574C30.4917 29.8196 30.4315 29.759 30.44 29.6868C30.4461 29.6356 30.4852 29.5963 30.5214 29.5608C31.2962 28.8001 31.7816 27.7329 31.8536 26.6313C31.862 26.5038 31.7346 26.2765 31.6182 26.4644C30.5076 28.2584 26.2295 31.3089 26.2295 31.3089C22.4977 33.9769 23.1538 38.0001 23.1538 38.0001C24.3841 36.6873 28.895 34.2733 28.895 34.2733C36.5196 30.954 36.0824 23.8071 35.9451 22.5667Z" fill="#4270B7"/>
<path d="M19.7706 31.3089C19.7706 31.3089 15.4924 28.2584 14.3818 26.4645C14.2654 26.2765 14.1381 26.5038 14.1464 26.6313C14.2184 27.7329 14.7038 28.8001 15.4787 29.5608C15.5149 29.5963 15.5539 29.6356 15.56 29.6868C15.5686 29.759 15.5083 29.8196 15.4481 29.8574C15.2474 29.9832 14.9931 29.9958 14.7667 29.9311C14.537 29.8655 14.3324 29.7269 14.1493 29.5694C13.8205 29.2867 13.5455 28.9427 13.3126 28.572C12.6574 27.5292 12.1581 26.3946 11.7257 25.2384C11.6455 25.0228 11.3339 23.7157 11.3128 23.5875C11.2364 23.1244 11.0522 22.5459 10.5681 22.3921C10.4701 22.361 10.3677 22.351 10.2658 22.3561C10.1558 22.3616 10.0675 22.4536 10.0549 22.5667C9.91766 23.8071 9.48042 30.954 17.105 34.2733C17.105 34.2733 21.616 36.6873 22.8462 38.0001C22.8462 38.0001 23.5024 33.9769 19.7706 31.3089Z" fill="#4270B7"/>
<path d="M10.5244 21.7635C10.7597 21.7635 10.9506 21.5665 10.9506 21.3234H10.951C10.951 14.4624 16.3561 8.88056 23 8.88056C29.6437 8.88056 35.0488 14.4624 35.0488 21.3234H35.0493C35.0493 21.5665 35.2401 21.7635 35.4755 21.7635C35.7109 21.7635 35.9017 21.5665 35.9017 21.3234C35.9017 13.9768 30.114 7.99978 23 7.99978C15.886 7.99978 10.0981 13.9768 10.0981 21.3234C10.0981 21.5665 10.289 21.7635 10.5244 21.7635Z" fill="#4270B7"/>
<path d="M29.6176 23.8217C29.6112 23.764 29.5662 23.717 29.51 23.7142C29.458 23.7116 29.4058 23.7167 29.3557 23.7326C29.1087 23.8111 29.0148 24.1063 28.9758 24.3426C28.965 24.408 28.8061 25.0749 28.7651 25.1849C28.5445 25.7749 28.2897 26.3538 27.9554 26.8858C27.8366 27.075 27.6963 27.2505 27.5285 27.3948C27.4351 27.4751 27.3307 27.5458 27.2135 27.5793C27.098 27.6123 26.9682 27.6059 26.8658 27.5416C26.8351 27.5224 26.8044 27.4914 26.8087 27.4546C26.8118 27.4285 26.8317 27.4085 26.8502 27.3904C27.2456 27.0023 27.4932 26.4577 27.53 25.8956C27.5342 25.8305 27.4692 25.7146 27.4098 25.8105C26.8432 26.7258 24.6604 28.2823 24.6604 28.2823C22.7562 29.6436 23.091 31.6964 23.091 31.6964C23.7188 31.0265 26.0204 29.7949 26.0204 29.7949C29.9107 28.1012 29.6877 24.4546 29.6176 23.8217Z" fill="#4270B7"/>
<path d="M21.3647 28.2823C21.3647 28.2823 19.1818 26.7258 18.6151 25.8105C18.5558 25.7146 18.4908 25.8306 18.495 25.8957C18.5318 26.4577 18.7794 27.0023 19.1748 27.3904C19.1932 27.4085 19.2132 27.4286 19.2163 27.4547C19.2207 27.4915 19.1899 27.5224 19.1592 27.5417C19.0568 27.6059 18.927 27.6123 18.8115 27.5793C18.6943 27.5458 18.59 27.4751 18.4965 27.3948C18.3287 27.2505 18.1884 27.075 18.0696 26.8859C17.7353 26.3538 17.4805 25.7749 17.2599 25.1849C17.2189 25.0749 17.06 24.408 17.0492 24.3426C17.0102 24.1063 16.9162 23.8111 16.6693 23.7326C16.6192 23.7168 16.567 23.7116 16.515 23.7142C16.4589 23.7171 16.4138 23.7641 16.4074 23.8217C16.3374 24.4546 16.1143 28.1013 20.0046 29.7949C20.0046 29.7949 22.3063 31.0266 22.934 31.6964C22.934 31.6964 23.2688 29.6437 21.3647 28.2823Z" fill="#4270B7"/>
</svg>
