<svg width="81" height="90" viewBox="0 0 81 90" fill="none" xmlns="http://www.w3.org/2000/svg">
<path d="M68.5526 24.1414C61.9111 23.3856 55.0338 25.2321 49.5631 29.6772C49.6938 30.7234 49.7659 31.7879 49.7659 32.8697C49.7659 33.4059 49.747 33.9377 49.7145 34.4657C52.9677 32.7377 56.6383 32.0754 60.212 32.482C60.8114 37.7479 59.0964 43.2271 55.0576 47.2659C51.2711 51.0524 46.2189 52.7962 41.2632 52.5056C48.424 53.0417 55.7661 50.5855 61.2419 45.1098C66.9703 39.3814 69.4027 31.61 68.5526 24.1414Z" fill="#008D5C"/>
<path d="M25.4929 47.2659C21.4541 43.2272 19.7391 37.7478 20.3384 32.482C23.7873 32.0894 27.3252 32.6966 30.4925 34.2922C30.4668 33.8212 30.4513 33.3473 30.4513 32.8698C30.4513 31.7027 30.5384 30.5565 30.6901 29.4311C25.2691 25.1602 18.5184 23.3993 11.9976 24.1414C11.1478 31.61 13.5802 39.3814 19.3084 45.1096C24.7843 50.5856 32.1266 53.0415 39.2871 52.5057C34.3314 52.7962 29.2792 51.0523 25.4929 47.2659Z" fill="#008D5C"/>
<path d="M40.6044 52.4488C45.8171 48.0824 49.2688 41.685 49.7145 34.4655C49.7472 33.9375 49.7661 33.4059 49.7661 32.8695C49.7661 31.7877 49.6939 30.7233 49.5632 29.677C48.7153 22.8883 45.2054 16.9284 40.1086 12.8734C35.074 16.8791 31.5915 22.7449 30.6901 29.4311C30.5384 30.5565 30.4513 31.7024 30.4513 32.8695C30.4513 33.3471 30.4668 33.8211 30.4926 34.2922C30.8942 41.5966 34.3719 48.0729 39.6439 52.4749C35.7661 49.1713 33.2997 44.2607 33.2997 38.7674C33.2997 37.8916 33.3694 37.0332 33.4901 36.1911C33.6536 35.0528 33.921 33.9487 34.2871 32.8899C35.4166 29.622 37.4567 26.7788 40.1086 24.6687C42.8374 26.8398 44.9165 29.7877 46.024 33.1751C46.3667 34.2233 46.6173 35.3125 46.7629 36.4356C46.8618 37.1994 46.9177 37.9766 46.9177 38.7674C46.9177 44.2462 44.4646 49.1456 40.6044 52.4488Z" fill="#4270B7"/>
<path d="M80.3801 43.6995C80.3414 43.3605 80.0678 43.0842 79.7269 43.0678C79.4111 43.0525 79.094 43.0824 78.7903 43.1759C77.2905 43.6372 76.7198 45.3727 76.4833 46.762C76.4178 47.1468 75.4527 51.0679 75.2042 51.7147C73.8644 55.1835 72.3175 58.5871 70.2877 61.7155C69.5661 62.8276 68.7143 63.8596 67.6955 64.7078C67.1281 65.1802 66.4946 65.5959 65.7826 65.793C65.0813 65.987 64.2937 65.9491 63.6716 65.5716C63.485 65.4584 63.2985 65.2765 63.325 65.0599C63.3439 64.9064 63.4648 64.7885 63.577 64.6819C65.9776 62.4 67.4813 59.1982 67.7043 55.8935C67.7302 55.511 67.3356 54.8291 66.9751 55.3928C63.5343 60.7747 50.2802 69.9262 50.2802 69.9262C38.7187 77.9304 40.7515 90 40.7515 90C44.563 86.0615 58.5384 78.8196 58.5384 78.8196C82.1601 68.8615 80.8056 47.4207 80.3801 43.6995Z" fill="#4270B7"/>
<path d="M30.2702 69.9262C30.2702 69.9262 17.016 60.7747 13.5753 55.393C13.2147 54.8291 12.8202 55.511 12.846 55.8935C13.069 59.1982 14.5728 62.4 16.9734 64.6819C17.0855 64.7885 17.2066 64.9064 17.2253 65.0599C17.252 65.2765 17.0653 65.4584 16.8788 65.5716C16.2568 65.9491 15.469 65.987 14.7678 65.793C14.0559 65.5961 13.4223 65.1802 12.855 64.7078C11.8362 63.8596 10.9842 62.8276 10.2626 61.7155C8.23282 58.5871 6.68613 55.1835 5.34632 51.7147C5.09776 51.0679 4.1325 47.1468 4.06707 46.7621C3.83056 45.3727 3.25987 43.6372 1.76006 43.1759C1.45632 43.0824 1.13923 43.0525 0.823444 43.0678C0.482755 43.0842 0.208967 43.3605 0.170226 43.6995C-0.255106 47.4207 -1.60972 68.8615 22.0119 78.8196C22.0119 78.8196 35.9873 86.0615 39.7989 90C39.7989 90 41.8316 77.9304 30.2702 69.9262Z" fill="#4270B7"/>
<path d="M1.62476 41.2914C2.35399 41.2914 2.94519 40.7002 2.94519 39.971H2.94665C2.94665 19.3881 19.6922 2.64237 40.2755 2.64237C60.8582 2.64237 77.6038 19.3881 77.6038 39.971H77.6052C77.6052 40.7002 78.1964 41.2914 78.9257 41.2914C79.6549 41.2914 80.2461 40.7002 80.2461 39.971C80.2461 17.9311 62.3154 4.19617e-05 40.2755 4.19617e-05C18.2355 4.19617e-05 0.304321 17.9311 0.304321 39.971C0.304321 40.7002 0.895522 41.2914 1.62476 41.2914Z" fill="#4270B7"/>
<path d="M60.7769 47.4646C60.757 47.2916 60.6175 47.1506 60.4435 47.1423C60.2825 47.1345 60.1207 47.1498 59.9656 47.1975C59.2004 47.4329 58.9092 48.3184 58.7886 49.0273C58.7552 49.2236 58.2626 51.2242 58.1358 51.5544C57.4523 53.3242 56.663 55.0609 55.6273 56.657C55.2593 57.2245 54.8245 57.751 54.3046 58.1839C54.0152 58.4248 53.6919 58.637 53.3286 58.7375C52.9708 58.8364 52.5689 58.8172 52.2515 58.6245C52.1564 58.5669 52.0612 58.4739 52.0747 58.3634C52.0843 58.2851 52.146 58.2251 52.2033 58.1707C53.4282 57.0064 54.1954 55.3726 54.3091 53.6864C54.3223 53.4912 54.121 53.1434 53.937 53.431C52.1815 56.177 45.4188 60.8464 45.4188 60.8464C39.5197 64.9304 40.5569 71.0889 40.5569 71.0889C42.5017 69.0792 49.6324 65.3842 49.6324 65.3842C61.685 60.3032 60.994 49.3634 60.7769 47.4646Z" fill="#4270B7"/>
<path d="M35.2087 60.8464C35.2087 60.8464 28.4461 56.1769 26.6904 53.431C26.5064 53.1434 26.3051 53.4913 26.3183 53.6864C26.432 55.3726 27.1994 57.0062 28.4242 58.1706C28.4814 58.2251 28.5432 58.2852 28.5528 58.3635C28.5663 58.474 28.4711 58.5668 28.3759 58.6245C28.0586 58.8171 27.6566 58.8365 27.2988 58.7375C26.9357 58.6369 26.6124 58.4248 26.3228 58.1837C25.8031 57.7511 25.3683 57.2245 25.0001 56.6571C23.9645 55.0607 23.1752 53.3241 22.4917 51.5542C22.3648 51.2241 21.8724 49.2234 21.839 49.0271C21.7182 48.3183 21.427 47.4328 20.6618 47.1974C20.5068 47.1499 20.345 47.1344 20.1841 47.1422C20.0101 47.1507 19.8704 47.2916 19.8507 47.4647C19.6336 49.3633 18.9424 60.3032 30.9951 65.3841C30.9951 65.3841 38.1258 69.0793 40.0707 71.0887C40.0707 71.0887 41.1079 64.9305 35.2087 60.8464Z" fill="#4270B7"/>
</svg>
