<svg width="138" height="68" viewBox="0 0 138 68" fill="none" xmlns="http://www.w3.org/2000/svg">
<path fill-rule="evenodd" clip-rule="evenodd" d="M2.84131 41.0796V0.761108H7.47628V37.1623H14.7536V41.0796H2.84131ZM26.0508 21.0565H31.8626V16.6126C31.8626 15.2167 31.8149 14.0416 31.7196 13.0877C31.6245 12.1339 31.394 11.4127 31.029 10.9239C30.6635 10.4353 30.0602 10.1912 29.2186 10.1912C28.2815 10.1912 27.5872 10.4704 27.1347 11.0287C26.682 11.5871 26.388 12.3589 26.2534 13.3437C26.1183 14.3288 26.0508 15.4727 26.0508 16.7755V21.0565ZM29.0282 41.9959C27.3131 41.9959 25.9354 41.7052 24.8956 41.1235C23.8555 40.5421 23.0652 39.7161 22.5257 38.6458C21.9857 37.5754 21.6244 36.2922 21.4418 34.7951C21.2592 33.2985 21.1679 31.6424 21.1679 29.828V17.4967C21.1679 15.8529 21.2872 14.3441 21.5253 12.9715C21.7636 11.5987 22.1761 10.4121 22.764 9.41171C23.3513 8.4113 24.1691 7.63587 25.217 7.08504C26.2652 6.53477 27.5989 6.25908 29.2186 6.25908C30.854 6.25908 32.1722 6.5383 33.1726 7.09675C34.173 7.65501 34.9311 8.44251 35.4473 9.45815C35.9633 10.4743 36.3085 11.6841 36.4836 13.0877C36.658 14.4918 36.7455 16.0309 36.7455 17.7061V24.2903H26.0746V31.2471C26.0746 33.4497 26.2294 35.1289 26.5392 36.2843C26.8487 37.44 27.6942 38.0175 29.0758 38.0175C29.9811 38.0175 30.6277 37.7422 31.017 37.1916C31.406 36.6411 31.6443 35.8653 31.7318 34.8649C31.8187 33.8645 31.8626 32.682 31.8626 31.317V28.5017H36.6502V29.9907C36.6502 31.8056 36.5745 33.4497 36.4239 34.9231C36.2729 36.3968 35.9515 37.661 35.4593 38.7157C34.9671 39.7705 34.2088 40.5809 33.1846 41.1468C32.1604 41.7128 30.7747 41.9959 29.0282 41.9959ZM45.9088 0.761108V41.0796H50.5792V24.5353L57.5957 41.0796H62.4027L54.8164 23.8779L62.0153 7.08419H57.2997L50.5792 23.2434V0.761108H45.9088ZM76.3596 41.9959C73.9793 41.9959 72.1717 41.2174 70.9371 39.6608C69.7019 38.104 69.0849 35.521 69.0849 31.9116V29.2857H73.5256V31.8884C73.5256 33.84 73.73 35.3353 74.1393 36.373C74.5484 37.4108 75.2217 37.9296 76.159 37.9296C77.0963 37.9296 77.7842 37.6123 78.2229 36.9771C78.6616 36.342 78.8813 35.2034 78.8813 33.5614C78.8813 32.7404 78.7621 31.9231 78.5244 31.1097C78.2862 30.2967 77.9218 29.4913 77.4307 28.6935C76.9398 27.8957 76.3074 27.1174 75.5339 26.358L73.1685 24.0114C71.755 22.6019 70.6766 21.1031 69.9327 19.5151C69.1887 17.9275 68.817 16.2429 68.817 14.4614C68.817 11.6422 69.4564 9.57013 70.7361 8.24578C72.0155 6.92125 73.7783 6.25908 76.0248 6.25908C77.5273 6.25908 78.792 6.59991 79.8186 7.28137C80.8451 7.96321 81.6184 9.09386 82.1394 10.6739C82.6599 12.2539 82.9204 14.4072 82.9204 17.1334V18.8066H78.569V16.39C78.569 14.4382 78.3867 12.9433 78.0223 11.9054C77.6575 10.8678 77.0068 10.3486 76.0695 10.3486C75.1619 10.3486 74.4812 10.6238 74.0277 11.1735C73.5739 11.7234 73.3248 12.7266 73.2802 14.1825C73.2651 14.9261 73.3583 15.6775 73.5591 16.4364C73.7599 17.1956 74.0908 17.9466 74.5521 18.6902C75.0131 19.4337 75.6082 20.1621 76.3374 20.8744L78.7475 23.2214C80.3095 24.724 81.4883 26.3389 82.2845 28.0658C83.0803 29.7934 83.4783 31.6173 83.4783 33.538C83.4783 36.1717 82.9015 38.2396 81.7489 39.7419C80.5958 41.2449 78.7994 41.9959 76.3596 41.9959ZM101.791 21.0565H96.321V16.7755C96.321 15.4727 96.3843 14.3288 96.5114 13.3437C96.6383 12.3589 96.9151 11.5871 97.3411 11.0287C97.7669 10.4704 98.4205 10.1912 99.3024 10.1912C100.094 10.1912 100.662 10.4353 101.006 10.9239C101.35 11.4127 101.567 12.1339 101.656 13.0877C101.746 14.0416 101.791 15.2167 101.791 16.6126V21.0565ZM95.2337 41.1235C96.2123 41.7052 97.5092 41.9959 99.1232 41.9959C100.767 41.9959 102.071 41.7128 103.035 41.1468C103.999 40.5809 104.713 39.7705 105.176 38.7157C105.639 37.661 105.942 36.3968 106.084 34.9231C106.226 33.4497 106.297 31.8056 106.297 29.9907V28.5017H101.791V31.317C101.791 32.682 101.75 33.8645 101.668 34.8649C101.585 35.8653 101.361 36.6411 100.995 37.1916C100.629 37.7422 100.02 38.0175 99.168 38.0175C97.8677 38.0175 97.0719 37.44 96.7806 36.2843C96.4891 35.1289 96.3433 33.4497 96.3433 31.2471V24.2903H106.387V17.7061C106.387 16.0309 106.304 14.4918 106.14 13.0877C105.975 11.6841 105.65 10.4743 105.165 9.45815C104.679 8.44251 103.965 7.65501 103.024 7.09675C102.082 6.5383 100.841 6.25908 99.3024 6.25908C97.778 6.25908 96.5227 6.53477 95.5362 7.08504C94.5499 7.63587 93.7801 8.4113 93.2273 9.41171C92.6742 10.4121 92.2858 11.5987 92.0616 12.9715C91.8375 14.3441 91.7253 15.8529 91.7253 17.4967V29.828C91.7253 31.6424 91.811 33.2985 91.9831 34.7951C92.1547 36.2922 92.4948 37.5754 93.0032 38.6458C93.511 39.7161 94.2546 40.5421 95.2337 41.1235ZM115.55 0.761108H120.132V41.0796H115.55V0.761108ZM135.709 0.761108H131.127V41.0796H135.709V0.761108Z" fill="#4270B7"/>
<path fill-rule="evenodd" clip-rule="evenodd" d="M4.5779 62.563C4.39357 62.7614 4.12645 62.8606 3.77618 62.8606C3.41358 62.8606 3.13709 62.7614 2.94668 62.563C2.75609 62.3649 2.62713 62.0355 2.55962 61.5747C2.49192 61.1139 2.45825 60.487 2.45825 59.6937V52.4535C2.45825 51.4895 2.55189 50.7771 2.73935 50.3163C2.92663 49.8556 3.28775 49.6252 3.82217 49.6252C4.33838 49.6252 4.67319 49.8571 4.8268 50.3208C4.98023 50.7845 5.05713 51.4984 5.05713 52.4628V59.6937C5.05713 60.4808 5.02328 61.1062 4.95576 61.5701C4.88806 62.0339 4.76223 62.3649 4.5779 62.563ZM1.85467 63.9589C2.3247 64.3129 2.96526 64.4899 3.77618 64.4899C4.5871 64.4899 5.22454 64.3129 5.68831 63.9589C6.15227 63.605 6.48102 63.0711 6.67455 62.3573C6.86808 61.6432 6.96485 60.7494 6.96485 59.6754V52.5724C6.96485 51.8768 6.9218 51.2483 6.8357 50.6868C6.74961 50.1257 6.59452 49.6451 6.37045 49.2452C6.14602 48.8456 5.82813 48.5375 5.4166 48.3208C5.00488 48.1043 4.47341 47.996 3.82217 47.996C2.95588 47.996 2.28625 48.1851 1.81327 48.5635C1.33993 48.9417 1.01137 49.4727 0.827037 50.1562C0.642888 50.8395 0.550537 51.6449 0.550537 52.5724V59.6754C0.550537 60.7494 0.65043 61.6432 0.850032 62.3573C1.04963 63.0711 1.38463 63.605 1.85467 63.9589ZM11.5465 50.9169V64.4899H13.4634V53.8577C13.4634 53.4959 13.524 53.2002 13.6455 52.9712C13.7672 52.7418 13.9339 52.5729 14.1459 52.4643C14.3578 52.3558 14.5915 52.3014 14.8472 52.3014C15.1962 52.3014 15.4829 52.41 15.7074 52.6271C15.9318 52.8444 16.0439 53.1943 16.0439 53.6769V64.4899H17.9608V53.6677C17.9608 52.6845 17.7645 51.9517 17.3717 51.4689C16.979 50.9865 16.4305 50.745 15.7261 50.745C15.1589 50.745 14.671 50.9081 14.2628 51.2337C13.8544 51.5594 13.5879 51.9337 13.4634 52.3558V50.9169H11.5465ZM25.3718 64.4899C24.7579 64.4899 24.264 64.3793 23.8895 64.1587C23.5149 63.9381 23.2308 63.6203 23.0364 63.2057C22.8422 62.7911 22.7114 62.2962 22.6438 61.7203C22.5762 61.1445 22.5425 60.5047 22.5425 59.8009V55.3087C22.5425 54.4138 22.6128 53.6234 22.7535 52.9374C22.8941 52.2513 23.1703 51.7144 23.5813 51.3266C23.9922 50.9388 24.6033 50.745 25.4139 50.745C25.9769 50.745 26.4317 50.8434 26.778 51.0402C27.1243 51.2371 27.3888 51.5206 27.5719 51.8903C27.7548 52.2603 27.8786 52.7017 27.9435 53.2147C28.0082 53.7277 28.0404 54.2975 28.0404 54.9238V55.8545H26.3346V54.6734C26.3346 54.1603 26.3191 53.7293 26.2882 53.3803C26.2571 53.0314 26.1768 52.7674 26.0475 52.5882C25.9178 52.4092 25.701 52.3199 25.3971 52.3199C25.0761 52.3199 24.8368 52.4169 24.6792 52.6106C24.5216 52.8045 24.4159 53.082 24.3626 53.4428C24.309 53.804 24.2822 54.2318 24.2822 54.727V60.4363C24.2822 60.9909 24.3048 61.4518 24.3498 61.8187C24.3948 62.1856 24.4934 62.46 24.6455 62.642C24.7975 62.824 25.031 62.9149 25.3463 62.9149C25.6505 62.9149 25.8713 62.8179 26.0094 62.624C26.1473 62.4303 26.236 62.1499 26.2754 61.7828C26.3147 61.4161 26.3346 60.9791 26.3346 60.472V59.1744H28.0404V60.0424C28.0404 60.7046 28.0096 61.3073 27.9477 61.85C27.8857 62.393 27.7633 62.8612 27.5802 63.255C27.3972 63.6487 27.1285 63.9529 26.7738 64.1677C26.4191 64.3826 25.9516 64.4899 25.3718 64.4899ZM35.7074 62.6375C35.5371 62.8522 35.2789 62.9596 34.932 62.9596C34.5725 62.9596 34.3028 62.8522 34.123 62.6375C33.9434 62.4228 33.826 62.1231 33.7716 61.7381C33.7168 61.3534 33.6897 60.9075 33.6897 60.4004V54.7716C33.6897 54.2707 33.7168 53.8336 33.7716 53.4607C33.826 53.0879 33.9434 52.7972 34.123 52.5882C34.3028 52.3796 34.5725 52.2751 34.932 52.2751C35.2723 52.2751 35.5292 52.3796 35.7028 52.5882C35.876 52.7972 35.9916 53.0879 36.0494 53.4607C36.1073 53.8336 36.136 54.2707 36.136 54.7716V60.4004C36.136 60.9075 36.1073 61.3534 36.0494 61.7381C35.9916 62.1231 35.8774 62.4228 35.7074 62.6375ZM33.2755 64.1632C33.6993 64.3809 34.2514 64.4899 34.932 64.4899C35.619 64.4899 36.1729 64.3793 36.5935 64.1587C37.014 63.9381 37.3351 63.6232 37.5565 63.2147C37.778 62.8062 37.9272 62.3214 38.0043 61.7605C38.0814 61.1997 38.1201 60.5763 38.1201 59.8904V55.1387C38.1201 54.5063 38.0764 53.9231 37.9899 53.3892C37.9032 52.8553 37.7446 52.39 37.5133 51.9932C37.2822 51.5965 36.9579 51.2894 36.5405 51.0715C36.1229 50.8539 35.5871 50.745 34.932 50.745C34.0588 50.745 33.3894 50.9359 32.9241 51.3175C32.4584 51.6996 32.1391 52.2213 31.9657 52.8837C31.7923 53.5457 31.7057 54.2975 31.7057 55.1387V59.8904C31.7057 60.5883 31.7473 61.219 31.8309 61.7828C31.9142 62.3465 32.0701 62.8299 32.2979 63.2325C32.5259 63.6352 32.8518 63.9456 33.2755 64.1632ZM42.7017 47.996H44.5344V64.4899H42.7017V47.996ZM52.546 62.6375C52.4002 62.8522 52.1787 62.9596 51.8816 62.9596C51.5732 62.9596 51.342 62.8522 51.1881 62.6375C51.0339 62.4228 50.9333 62.1231 50.8867 61.7381C50.8399 61.3534 50.8165 60.9075 50.8165 60.4004V54.7716C50.8165 54.2707 50.8399 53.8336 50.8867 53.4607C50.9333 53.0879 51.0339 52.7972 51.1881 52.5882C51.342 52.3796 51.5732 52.2751 51.8816 52.2751C52.1732 52.2751 52.3932 52.3796 52.5419 52.5882C52.6905 52.7972 52.7896 53.0879 52.8392 53.4607C52.8886 53.8336 52.9133 54.2707 52.9133 54.7716V60.4004C52.9133 60.9075 52.8886 61.3534 52.8392 61.7381C52.7896 62.1231 52.6918 62.4228 52.546 62.6375ZM50.4617 64.1632C50.8249 64.3809 51.298 64.4899 51.8816 64.4899C52.4704 64.4899 52.945 64.3793 53.3055 64.1587C53.6659 63.9381 53.9413 63.6232 54.131 63.2147C54.3208 62.8062 54.4489 62.3214 54.5149 61.7605C54.5809 61.1997 54.614 60.5763 54.614 59.8904V55.1387C54.614 54.5063 54.5767 53.9231 54.5026 53.3892C54.4283 52.8553 54.2922 52.39 54.0939 51.9932C53.8958 51.5965 53.6178 51.2894 53.2601 51.0715C52.9023 50.8539 52.4428 50.745 51.8816 50.745C51.1331 50.745 50.5591 50.9359 50.1601 51.3175C49.761 51.6996 49.4876 52.2213 49.3388 52.8837C49.1902 53.5457 49.116 54.2975 49.116 55.1387V59.8904C49.116 60.5883 49.1516 61.219 49.2233 61.7828C49.2948 62.3465 49.4283 62.8299 49.6236 63.2325C49.819 63.6352 50.0983 63.9456 50.4617 64.1632ZM62.5227 61.5772C62.7782 61.5772 62.9891 61.5058 63.1555 61.3631C63.3218 61.2206 63.4447 60.9545 63.5247 60.5653C63.6045 60.1761 63.6445 59.6159 63.6445 58.8848V54.7571C63.6445 53.9431 63.5662 53.325 63.4096 52.9027C63.2529 52.481 62.9254 52.2697 62.4268 52.2697C62.0624 52.2697 61.7923 52.3754 61.6166 52.5863C61.4407 52.7972 61.3274 53.0871 61.2763 53.4557C61.225 53.824 61.1996 54.252 61.1996 54.7393V58.9026C61.1996 59.7883 61.2859 60.4555 61.4583 60.9041C61.6312 61.3528 61.9856 61.5772 62.5227 61.5772ZM62.3309 66.3198C61.6725 66.3376 61.0796 66.2693 60.5523 66.1148C60.025 65.9602 59.5729 65.7432 59.1956 65.464L59.9052 64.216C60.1863 64.3941 60.5188 64.5516 60.9021 64.6885C61.2859 64.8249 61.7301 64.8876 62.235 64.8757C62.6823 64.8636 63.0291 64.7077 63.2753 64.4076C63.5214 64.1076 63.6445 63.7049 63.6445 63.1996V61.9247C63.459 62.3648 63.2035 62.6588 62.8776 62.8072C62.5514 62.956 62.1807 63.0302 61.7652 63.0302C61.0941 63.0302 60.5747 62.8491 60.2072 62.4864C59.8395 62.1241 59.584 61.6276 59.4402 60.9978C59.2963 60.3678 59.2243 59.6547 59.2243 58.858V55.0247C59.2243 54.2104 59.3089 53.4793 59.4785 52.8314C59.6477 52.1838 59.9306 51.6711 60.327 51.2936C60.7234 50.9163 61.2602 50.7336 61.9378 50.7455C62.3468 50.7514 62.7001 50.8466 62.9974 51.0306C63.2944 51.215 63.5103 51.5002 63.6445 51.8866V50.9058H65.6099V63.0302C65.6099 63.4107 65.5606 63.7912 65.4614 64.1713C65.3623 64.5516 65.1931 64.9008 64.9533 65.2188C64.7136 65.5366 64.381 65.7952 63.9561 65.9945C63.531 66.1935 62.9891 66.302 62.3309 66.3198ZM69.7947 65.7788V67.2389H71.6259C72.0755 67.2389 72.4141 67.1712 72.6418 67.0362C72.8696 66.9012 73.0382 66.6797 73.1476 66.3722C73.257 66.0644 73.3479 65.6564 73.4208 65.1478L75.6896 50.745H73.8855L72.9927 58.0924L72.6373 61.9166H72.4734L72.0726 58.0924L71.0884 50.745H69.2753L71.5075 64.3753C71.544 64.6264 71.5697 64.8603 71.5849 65.0769C71.6 65.2937 71.5713 65.4522 71.4986 65.5526C71.4558 65.6468 71.3358 65.7081 71.1386 65.7365C70.9411 65.7647 70.7087 65.7788 70.4415 65.7788H69.7947ZM88.0834 64.4899C87.2865 64.4899 86.6516 64.2989 86.1788 63.9172C85.7056 63.5354 85.3664 62.975 85.161 62.2358C84.9556 61.4966 84.8529 60.5987 84.8529 59.5418V52.825C84.8529 52.1164 84.8995 51.4674 84.9928 50.8777C85.0862 50.2883 85.2528 49.778 85.4925 49.3474C85.732 48.9166 86.0666 48.5839 86.4962 48.3486C86.9256 48.1134 87.4766 47.996 88.1487 47.996C88.7898 47.996 89.3126 48.1074 89.7172 48.3303C90.1219 48.5533 90.4363 48.8709 90.6603 49.2832C90.8845 49.6956 91.0385 50.1844 91.1226 50.7494C91.2064 51.3145 91.2485 51.9391 91.2485 52.6233V54.4102H89.3532V52.6143C89.3532 51.6123 89.28 50.8625 89.1337 50.3646C88.9874 49.8669 88.659 49.6177 88.1487 49.6177C87.6072 49.6177 87.2445 49.8729 87.0611 50.3829C86.8773 50.893 86.7856 51.6337 86.7856 52.605V59.5875C86.7856 60.3697 86.8198 61.0033 86.8883 61.4889C86.9567 61.9746 87.0857 62.3274 87.2758 62.5473C87.4654 62.7672 87.7379 62.8771 88.0927 62.8771C88.6094 62.8771 88.9484 62.6207 89.1104 62.1074C89.2723 61.5941 89.3532 60.7514 89.3532 59.5784V57.7916H91.2672V59.5601C91.2672 60.6353 91.1723 61.5394 90.9826 62.2724C90.7925 63.0055 90.4674 63.5583 90.0067 63.9309C89.5461 64.3035 88.905 64.4899 88.0834 64.4899ZM99.6234 56.4363H97.5722V54.7896C97.5722 54.2886 97.5959 53.8486 97.6437 53.4698C97.6912 53.0911 97.7949 52.7942 97.9547 52.5795C98.1143 52.3646 98.3596 52.2571 98.6902 52.2571C98.9872 52.2571 99.2002 52.351 99.3291 52.5389C99.4581 52.7268 99.5393 53.0044 99.5729 53.3713C99.6066 53.7381 99.6234 54.19 99.6234 54.727V56.4363ZM97.1646 64.1543C97.5316 64.3781 98.0178 64.4899 98.6229 64.4899C99.2394 64.4899 99.7284 64.3809 100.09 64.1632C100.451 63.9456 100.719 63.6339 100.893 63.2281C101.066 62.8226 101.18 62.3364 101.233 61.7696C101.286 61.2028 101.313 60.5704 101.313 59.8725V59.2997H99.6234V60.3825C99.6234 60.9075 99.6078 61.3623 99.5771 61.7472C99.5464 62.1318 99.4623 62.4303 99.325 62.642C99.1874 62.8537 98.9592 62.9596 98.6399 62.9596C98.1524 62.9596 97.8538 62.7374 97.7444 62.293C97.6352 61.8487 97.5806 61.2028 97.5806 60.3555V57.68H101.347V55.1474C101.347 54.5033 101.316 53.9112 101.254 53.3713C101.192 52.8315 101.071 52.366 100.889 51.9752C100.706 51.5845 100.439 51.2817 100.086 51.067C99.7326 50.8523 99.2675 50.745 98.6902 50.745C98.1186 50.745 97.6479 50.8509 97.2779 51.0626C96.9081 51.2744 96.6194 51.5727 96.4122 51.9573C96.2046 52.3423 96.0591 52.7985 95.9749 53.3265C95.8908 53.8544 95.8488 54.4347 95.8488 55.0671V59.8097C95.8488 60.5079 95.8811 61.1445 95.9457 61.7203C96.0098 62.2962 96.1375 62.7895 96.3279 63.2013C96.5184 63.6128 96.7973 63.9306 97.1646 64.1543ZM105.928 64.4899V50.9169H107.572V52.3558C107.678 51.9337 107.907 51.5594 108.257 51.2337C108.606 50.9081 109.025 50.745 109.511 50.745C110.115 50.745 110.585 50.9865 110.922 51.4689C111.258 51.9517 111.426 52.6845 111.426 53.6677V64.4899H109.784V53.6769C109.784 53.1943 109.687 52.8444 109.495 52.6271C109.303 52.41 109.057 52.3014 108.758 52.3014C108.538 52.3014 108.338 52.3558 108.157 52.4643C107.975 52.5729 107.832 52.7418 107.728 52.9712C107.624 53.2002 107.572 53.4959 107.572 53.8577V64.4899H105.928ZM117.084 64.2755C117.38 64.4184 117.817 64.4899 118.397 64.4899H119.673V62.9702C119.227 62.9702 118.898 62.9516 118.687 62.9142C118.475 62.877 118.339 62.8008 118.279 62.6858C118.219 62.5708 118.188 62.3953 118.188 62.1589V51.9492H119.655V50.5319H118.188V47.996H116.332V50.5319H115.092V51.9492H116.332V62.3268C116.332 62.8489 116.384 63.2686 116.486 63.5855C116.589 63.9025 116.788 64.1325 117.084 64.2755ZM125.349 56.4363H127.742V54.727C127.742 54.19 127.723 53.7381 127.683 53.3713C127.644 53.0044 127.55 52.7268 127.399 52.5389C127.249 52.351 127 52.2571 126.654 52.2571C126.268 52.2571 125.982 52.3646 125.796 52.5795C125.609 52.7942 125.488 53.0911 125.433 53.4698C125.377 53.8486 125.349 54.2886 125.349 54.7896V56.4363ZM126.575 64.4899C125.869 64.4899 125.302 64.3781 124.874 64.1543C124.445 63.9306 124.12 63.6128 123.898 63.2013C123.675 62.7895 123.526 62.2962 123.452 61.7203C123.376 61.1445 123.339 60.5079 123.339 59.8097V55.0671C123.339 54.4347 123.388 53.8544 123.486 53.3265C123.584 52.7985 123.754 52.3423 123.996 51.9573C124.238 51.5727 124.574 51.2744 125.006 51.0626C125.438 50.8509 125.987 50.745 126.654 50.745C127.327 50.745 127.87 50.8523 128.282 51.067C128.694 51.2817 129.006 51.5845 129.219 51.9752C129.431 52.366 129.573 52.8315 129.645 53.3713C129.717 53.9112 129.753 54.5033 129.753 55.1474V57.68H125.359V60.3555C125.359 61.2028 125.423 61.8487 125.55 62.293C125.678 62.7374 126.026 62.9596 126.595 62.9596C126.967 62.9596 127.234 62.8537 127.394 62.642C127.554 62.4303 127.653 62.1318 127.688 61.7472C127.724 61.3623 127.742 60.9075 127.742 60.3825V59.2997H129.714V59.8725C129.714 60.5704 129.683 61.2028 129.62 61.7696C129.558 62.3364 129.426 62.8226 129.223 63.2281C129.021 63.6339 128.708 63.9456 128.287 64.1632C127.865 64.3809 127.294 64.4899 126.575 64.4899ZM133.418 50.9078V64.4899H135.452V53.4522C135.65 53.1686 135.887 52.9438 136.163 52.7778C136.44 52.6117 136.736 52.4941 137.052 52.4245C137.368 52.3552 137.684 52.3205 138 52.3205V51.5327C138 51.3275 137.998 51.145 137.995 50.9848C137.992 50.825 137.983 50.745 137.97 50.745C137.312 50.745 136.771 50.8928 136.346 51.1885C135.921 51.4846 135.624 51.8949 135.452 52.4201V50.9078H133.418Z" fill="#4270B7"/>
</svg>
