<svg width="73" height="36" viewBox="0 0 73 36" fill="none" xmlns="http://www.w3.org/2000/svg">
<path fill-rule="evenodd" clip-rule="evenodd" d="M8.85986 20.1436V3.56934H10.7652V18.5332H13.7568V20.1436H8.85986ZM18.401 11.9121H20.7902V10.0853C20.7902 9.51143 20.7705 9.02839 20.7314 8.63623C20.6923 8.24415 20.5975 7.94769 20.4475 7.74676C20.2972 7.54591 20.0492 7.44556 19.7033 7.44556C19.3181 7.44556 19.0326 7.56034 18.8466 7.78983C18.6605 8.0194 18.5397 8.33664 18.4843 8.74147C18.4288 9.14646 18.401 9.61666 18.401 10.1522V11.9121ZM19.625 20.5199C18.9199 20.5199 18.3536 20.4004 17.9262 20.1613C17.4986 19.9223 17.1737 19.5827 16.9519 19.1428C16.7299 18.7027 16.5814 18.1752 16.5063 17.5598C16.4313 16.9445 16.3938 16.2638 16.3938 15.5179V10.4487C16.3938 9.77299 16.4428 9.15272 16.5407 8.5885C16.6386 8.02413 16.8082 7.53636 17.0499 7.12511C17.2913 6.71386 17.6275 6.39509 18.0583 6.16866C18.4892 5.94245 19.0375 5.82912 19.7033 5.82912C20.3756 5.82912 20.9174 5.9439 21.3287 6.17347C21.7399 6.40296 22.0516 6.72669 22.2638 7.1442C22.4759 7.56194 22.6178 8.05926 22.6898 8.63623C22.7615 9.21343 22.7974 9.84615 22.7974 10.5348V13.2415H18.4108V16.1013C18.4108 17.0067 18.4745 17.697 18.6018 18.172C18.729 18.647 19.0766 18.8845 19.6445 18.8845C20.0167 18.8845 20.2825 18.7713 20.4426 18.5449C20.6024 18.3187 20.7004 17.9997 20.7364 17.5885C20.7721 17.1772 20.7902 16.6912 20.7902 16.13V14.9727H22.7583V15.5848C22.7583 16.3308 22.7272 17.0067 22.6652 17.6124C22.6032 18.2182 22.471 18.7379 22.2687 19.1715C22.0664 19.6051 21.7546 19.9382 21.3336 20.1708C20.9126 20.4035 20.343 20.5199 19.625 20.5199ZM26.5641 3.56934V20.1436H28.4841V13.3425L31.3684 20.1436H33.3445L30.2259 13.0722L33.1852 6.16865H31.2468L28.4841 12.8114V3.56934H26.5641ZM39.082 20.5199C38.1035 20.5199 37.3604 20.1999 36.8529 19.56C36.3451 18.92 36.0914 17.8582 36.0914 16.3744V15.295H37.917V16.3649C37.917 17.1672 38.001 17.7818 38.1692 18.2084C38.3374 18.6351 38.6142 18.8483 38.9995 18.8483C39.3848 18.8483 39.6676 18.7179 39.8479 18.4568C40.0283 18.1957 40.1186 17.7276 40.1186 17.0526C40.1186 16.7151 40.0696 16.3792 39.9719 16.0448C39.874 15.7106 39.7242 15.3795 39.5223 15.0515C39.3205 14.7236 39.0605 14.4036 38.7425 14.0914L37.7702 13.1268C37.1891 12.5474 36.7458 11.9313 36.44 11.2785C36.1342 10.6258 35.9814 9.93328 35.9814 9.20094C35.9814 8.04202 36.2442 7.19023 36.7702 6.64582C37.2962 6.10133 38.0208 5.82912 38.9443 5.82912C39.562 5.82912 40.0819 5.96923 40.5039 6.24937C40.9259 6.52966 41.2438 6.99445 41.458 7.64397C41.6719 8.29348 41.779 9.17867 41.779 10.2994V10.9872H39.9902V9.99377C39.9902 9.19141 39.9153 8.5769 39.7655 8.15025C39.6155 7.72367 39.348 7.51026 38.9627 7.51026C38.5896 7.51026 38.3098 7.62337 38.1234 7.84936C37.9368 8.07542 37.8344 8.48782 37.8161 9.08631C37.8099 9.392 37.8482 9.70089 37.9307 10.0128C38.0133 10.3249 38.1493 10.6337 38.3389 10.9394C38.5284 11.245 38.7731 11.5444 39.0728 11.8372L40.0636 12.802C40.7057 13.4197 41.1903 14.0836 41.5176 14.7935C41.8447 15.5037 42.0084 16.2535 42.0084 17.043C42.0084 18.1257 41.7712 18.9758 41.2974 19.5933C40.8234 20.2112 40.0849 20.5199 39.082 20.5199ZM49.5363 11.9121H47.2878V10.1522C47.2878 9.61666 47.3138 9.14646 47.3661 8.74147C47.4182 8.33664 47.532 8.0194 47.7071 7.78983C47.8822 7.56034 48.1508 7.44556 48.5134 7.44556C48.839 7.44556 49.0724 7.54591 49.2138 7.74676C49.3551 7.94769 49.4442 8.24415 49.481 8.63623C49.5179 9.02839 49.5363 9.51143 49.5363 10.0853V11.9121ZM46.8408 20.1613C47.2431 20.4004 47.7762 20.5199 48.4397 20.5199C49.1155 20.5199 49.6516 20.4035 50.0479 20.1708C50.4441 19.9382 50.7374 19.6051 50.9279 19.1715C51.1182 18.7379 51.2427 18.2182 51.3011 17.6124C51.3594 17.0067 51.3887 16.3308 51.3887 15.5848V14.9727H49.5363V16.13C49.5363 16.6912 49.5194 17.1772 49.4857 17.5885C49.4519 17.9997 49.3597 18.3187 49.2092 18.5449C49.0586 18.7713 48.8083 18.8845 48.4581 18.8845C47.9236 18.8845 47.5965 18.647 47.4767 18.172C47.3569 17.697 47.297 17.0067 47.297 16.1013V13.2415H51.4256V10.5348C51.4256 9.84615 51.3917 9.21343 51.3242 8.63623C51.2565 8.05926 51.1228 7.56194 50.9233 7.1442C50.7236 6.72669 50.4303 6.40296 50.0432 6.17347C49.6562 5.9439 49.1461 5.82912 48.5134 5.82912C47.8868 5.82912 47.3707 5.94245 46.9652 6.16866C46.5597 6.39509 46.2432 6.71386 46.016 7.12511C45.7886 7.53636 45.629 8.02413 45.5368 8.5885C45.4447 9.15272 45.3986 9.77299 45.3986 10.4487V15.5179C45.3986 16.2638 45.4338 16.9445 45.5045 17.5598C45.5751 18.1752 45.7149 18.7027 45.9239 19.1428C46.1326 19.5827 46.4383 19.9223 46.8408 20.1613ZM55.1924 3.56934H57.0759V20.1436H55.1924V3.56934ZM63.4795 3.56934H61.596V20.1436H63.4795V3.56934Z" fill="white"/>
<path fill-rule="evenodd" clip-rule="evenodd" d="M9.57379 30.5082C9.49802 30.5898 9.38821 30.6306 9.24422 30.6306C9.09516 30.6306 8.9815 30.5898 8.90323 30.5082C8.82488 30.4268 8.77187 30.2914 8.74411 30.1019C8.71628 29.9125 8.70244 29.6548 8.70244 29.3287V26.3524C8.70244 25.9561 8.74094 25.6632 8.818 25.4738C8.89498 25.2844 9.04344 25.1897 9.26313 25.1897C9.47533 25.1897 9.61297 25.285 9.67611 25.4757C9.73918 25.6663 9.7708 25.9598 9.7708 26.3562V29.3287C9.7708 29.6523 9.75688 29.9094 9.72913 30.1001C9.7013 30.2907 9.64957 30.4268 9.57379 30.5082ZM8.45432 31.0821C8.64754 31.2276 8.91086 31.3003 9.24422 31.3003C9.57757 31.3003 9.83961 31.2276 10.0303 31.0821C10.221 30.9366 10.3561 30.7171 10.4357 30.4236C10.5152 30.1301 10.555 29.7627 10.555 29.3212V26.4013C10.555 26.1153 10.5373 25.8569 10.5019 25.6261C10.4665 25.3954 10.4028 25.1979 10.3107 25.0335C10.2184 24.8692 10.0877 24.7426 9.91857 24.6535C9.74932 24.5645 9.53084 24.52 9.26313 24.52C8.90701 24.52 8.63173 24.5977 8.4373 24.7533C8.24272 24.9087 8.10765 25.127 8.03188 25.408C7.95618 25.6889 7.91821 26.02 7.91821 26.4013V29.3212C7.91821 29.7627 7.95928 30.1301 8.04133 30.4236C8.12338 30.7171 8.2611 30.9366 8.45432 31.0821ZM12.4385 25.7207V31.3003H13.2265V26.9296C13.2265 26.7809 13.2514 26.6593 13.3014 26.5652C13.3514 26.4709 13.4199 26.4015 13.5071 26.3568C13.5942 26.3122 13.6902 26.2899 13.7953 26.2899C13.9388 26.2899 14.0567 26.3345 14.149 26.4237C14.2412 26.5131 14.2873 26.6569 14.2873 26.8553V31.3003H15.0753V26.8515C15.0753 26.4473 14.9946 26.1461 14.8331 25.9476C14.6717 25.7493 14.4462 25.65 14.1566 25.65C13.9235 25.65 13.7229 25.7171 13.5551 25.8509C13.3872 25.9848 13.2777 26.1387 13.2265 26.3122V25.7207H12.4385ZM18.1219 31.3003C17.8695 31.3003 17.6664 31.2549 17.5125 31.1642C17.3585 31.0735 17.2417 30.9429 17.1618 30.7724C17.082 30.602 17.0282 30.3985 17.0004 30.1618C16.9726 29.9251 16.9588 29.6621 16.9588 29.3728V27.5261C16.9588 27.1582 16.9877 26.8333 17.0455 26.5513C17.1033 26.2693 17.2169 26.0485 17.3858 25.8891C17.5547 25.7297 17.806 25.65 18.1392 25.65C18.3706 25.65 18.5576 25.6905 18.6999 25.7714C18.8423 25.8523 18.951 25.9689 19.0263 26.1209C19.1015 26.2729 19.1524 26.4544 19.179 26.6653C19.2057 26.8762 19.2189 27.1104 19.2189 27.3679V27.7504H18.5177V27.2649C18.5177 27.054 18.5113 26.8768 18.4986 26.7334C18.4858 26.5899 18.4528 26.4814 18.3996 26.4078C18.3463 26.3342 18.2572 26.2975 18.1322 26.2975C18.0003 26.2975 17.9019 26.3373 17.8371 26.4169C17.7723 26.4967 17.7289 26.6107 17.707 26.7591C17.6849 26.9075 17.6739 27.0834 17.6739 27.287V29.634C17.6739 29.862 17.6832 30.0514 17.7017 30.2022C17.7202 30.3531 17.7608 30.4659 17.8233 30.5407C17.8858 30.6155 17.9818 30.6529 18.1114 30.6529C18.2364 30.6529 18.3272 30.613 18.384 30.5333C18.4407 30.4537 18.4771 30.3384 18.4933 30.1875C18.5095 30.0367 18.5177 29.8571 18.5177 29.6486V29.1152H19.2189V29.472C19.2189 29.7443 19.2062 29.992 19.1808 30.2151C19.1553 30.4383 19.1049 30.6308 19.0297 30.7927C18.9545 30.9545 18.844 31.0796 18.6982 31.1679C18.5524 31.2562 18.3602 31.3003 18.1219 31.3003ZM22.3707 30.5389C22.3007 30.6271 22.1946 30.6712 22.052 30.6712C21.9042 30.6712 21.7933 30.6271 21.7194 30.5389C21.6456 30.4506 21.5973 30.3274 21.5749 30.1691C21.5524 30.011 21.5413 29.8277 21.5413 29.6192V27.3053C21.5413 27.0994 21.5524 26.9197 21.5749 26.7664C21.5973 26.6131 21.6456 26.4937 21.7194 26.4078C21.7933 26.322 21.9042 26.279 22.052 26.279C22.1919 26.279 22.2975 26.322 22.3688 26.4078C22.44 26.4937 22.4875 26.6131 22.5113 26.7664C22.5351 26.9197 22.5469 27.0994 22.5469 27.3053V29.6192C22.5469 29.8277 22.5351 30.011 22.5113 30.1691C22.4875 30.3274 22.4406 30.4506 22.3707 30.5389ZM21.371 31.166C21.5452 31.2555 21.7722 31.3003 22.052 31.3003C22.3344 31.3003 22.5621 31.2549 22.735 31.1642C22.9078 31.0735 23.0398 30.944 23.1309 30.7761C23.2219 30.6082 23.2833 30.4089 23.3149 30.1783C23.3466 29.9478 23.3625 29.6915 23.3625 29.4096V27.4562C23.3625 27.1963 23.3446 26.9565 23.309 26.737C23.2734 26.5175 23.2082 26.3262 23.1131 26.1632C23.0181 26.0001 22.8848 25.8738 22.7132 25.7843C22.5415 25.6948 22.3212 25.65 22.052 25.65C21.693 25.65 21.4178 25.7285 21.2265 25.8854C21.0351 26.0424 20.9039 26.2569 20.8326 26.5292C20.7613 26.8013 20.7257 27.1104 20.7257 27.4562V29.4096C20.7257 29.6964 20.7428 29.9557 20.7772 30.1875C20.8114 30.4192 20.8755 30.6179 20.9691 30.7835C21.0629 30.949 21.1968 31.0766 21.371 31.166ZM25.2458 24.52H25.9992V31.3003H25.2458V24.52ZM29.2926 30.5389C29.2327 30.6271 29.1416 30.6712 29.0195 30.6712C28.8928 30.6712 28.7977 30.6271 28.7344 30.5389C28.671 30.4506 28.6297 30.3274 28.6105 30.1691C28.5913 30.011 28.5817 29.8277 28.5817 29.6192V27.3053C28.5817 27.0994 28.5913 26.9197 28.6105 26.7664C28.6297 26.6131 28.671 26.4937 28.7344 26.4078C28.7977 26.322 28.8928 26.279 29.0195 26.279C29.1394 26.279 29.2298 26.322 29.291 26.4078C29.3521 26.4937 29.3928 26.6131 29.4132 26.7664C29.4335 26.9197 29.4436 27.0994 29.4436 27.3053V29.6192C29.4436 29.8277 29.4335 30.011 29.4132 30.1691C29.3928 30.3274 29.3526 30.4506 29.2926 30.5389ZM28.4358 31.166C28.5851 31.2555 28.7796 31.3003 29.0195 31.3003C29.2615 31.3003 29.4566 31.2549 29.6049 31.1642C29.753 31.0735 29.8662 30.944 29.9442 30.7761C30.0222 30.6082 30.0749 30.4089 30.102 30.1783C30.1291 29.9478 30.1428 29.6915 30.1428 29.4096V27.4562C30.1428 27.1963 30.1274 26.9565 30.097 26.737C30.0664 26.5175 30.0105 26.3262 29.929 26.1632C29.8475 26.0001 29.7332 25.8738 29.5862 25.7843C29.4391 25.6948 29.2502 25.65 29.0195 25.65C28.7118 25.65 28.4759 25.7285 28.3119 25.8854C28.1478 26.0424 28.0354 26.2569 27.9742 26.5292C27.9131 26.8013 27.8826 27.1104 27.8826 27.4562V29.4096C27.8826 29.6964 27.8973 29.9557 27.9267 30.1875C27.9561 30.4192 28.011 30.6179 28.0913 30.7835C28.1716 30.949 28.2864 31.0766 28.4358 31.166ZM33.3938 30.1023C33.4988 30.1023 33.5855 30.073 33.6539 30.0143C33.7223 29.9557 33.7728 29.8463 33.8057 29.6863C33.8385 29.5263 33.8549 29.296 33.8549 28.9955V27.2987C33.8549 26.964 33.8227 26.71 33.7584 26.5364C33.6939 26.363 33.5593 26.2762 33.3544 26.2762C33.2046 26.2762 33.0935 26.3196 33.0213 26.4063C32.949 26.493 32.9024 26.6122 32.8814 26.7637C32.8603 26.9151 32.8499 27.091 32.8499 27.2913V29.0028C32.8499 29.3669 32.8854 29.6412 32.9562 29.8256C33.0273 30.01 33.173 30.1023 33.3938 30.1023ZM33.3149 32.0519C33.0443 32.0592 32.8005 32.0311 32.5838 31.9676C32.367 31.9041 32.1812 31.8149 32.0261 31.7001L32.3178 31.187C32.4333 31.2603 32.57 31.325 32.7276 31.3813C32.8854 31.4374 33.068 31.4631 33.2755 31.4582C33.4594 31.4533 33.602 31.3892 33.7032 31.2658C33.8043 31.1425 33.8549 30.9769 33.8549 30.7693V30.2452C33.7787 30.4261 33.6737 30.5469 33.5397 30.6079C33.4056 30.6691 33.2532 30.6996 33.0824 30.6996C32.8065 30.6996 32.593 30.6251 32.4419 30.476C32.2908 30.3271 32.1857 30.123 32.1266 29.8641C32.0675 29.6051 32.0379 29.312 32.0379 28.9845V27.4087C32.0379 27.0739 32.0727 26.7734 32.1424 26.507C32.2119 26.2408 32.3282 26.0301 32.4912 25.8749C32.6541 25.7198 32.8748 25.6447 33.1533 25.6496C33.3215 25.652 33.4667 25.6911 33.5889 25.7668C33.711 25.8426 33.7998 25.9598 33.8549 26.1186V25.7155H34.6629V30.6996C34.6629 30.856 34.6426 31.0124 34.6018 31.1687C34.5611 31.325 34.4915 31.4686 34.3929 31.5993C34.2944 31.7299 34.1577 31.8362 33.983 31.9182C33.8083 32 33.5855 32.0446 33.3149 32.0519ZM36.3832 31.8304V32.4306H37.136C37.3208 32.4306 37.46 32.4028 37.5536 32.3473C37.6472 32.2918 37.7166 32.2008 37.7616 32.0744C37.8065 31.9478 37.8439 31.7801 37.8739 31.571L38.8065 25.6503H38.0649L37.6979 28.6707L37.5518 30.2427H37.4844L37.3196 28.6707L36.9151 25.6503H36.1697L37.0873 31.2535C37.1023 31.3567 37.1129 31.4528 37.1192 31.5419C37.1254 31.631 37.1136 31.6962 37.0837 31.7374C37.0661 31.7762 37.0167 31.8014 36.9357 31.813C36.8545 31.8246 36.7589 31.8304 36.6491 31.8304H36.3832ZM43.9015 31.3003C43.5738 31.3003 43.3129 31.2218 43.1185 31.0649C42.924 30.908 42.7845 30.6776 42.7001 30.3737C42.6157 30.0698 42.5734 29.7007 42.5734 29.2662V26.5051C42.5734 26.2138 42.5926 25.947 42.631 25.7046C42.6694 25.4623 42.7379 25.2525 42.8364 25.0755C42.9349 24.8984 43.0724 24.7616 43.249 24.6649C43.4255 24.5682 43.652 24.52 43.9283 24.52C44.1918 24.52 44.4068 24.5658 44.5731 24.6574C44.7394 24.7491 44.8687 24.8796 44.9608 25.0491C45.053 25.2187 45.1162 25.4196 45.1508 25.6519C45.1853 25.8841 45.2026 26.1409 45.2026 26.4222V27.1567H44.4235V26.4185C44.4235 26.0066 44.3934 25.6983 44.3332 25.4937C44.2731 25.289 44.1381 25.1866 43.9283 25.1866C43.7057 25.1866 43.5566 25.2915 43.4812 25.5012C43.4057 25.7109 43.368 26.0154 43.368 26.4146V29.285C43.368 29.6066 43.382 29.867 43.4102 30.0667C43.4383 30.2663 43.4913 30.4114 43.5695 30.5018C43.6474 30.5922 43.7594 30.6373 43.9053 30.6373C44.1177 30.6373 44.257 30.5319 44.3236 30.3209C44.3902 30.1099 44.4235 29.7635 44.4235 29.2813V28.5468H45.2103V29.2738C45.2103 29.7158 45.1713 30.0874 45.0933 30.3887C45.0151 30.6901 44.8815 30.9174 44.6921 31.0705C44.5028 31.2237 44.2392 31.3003 43.9015 31.3003ZM48.6454 27.9896H47.8022V27.3127C47.8022 27.1067 47.8119 26.9259 47.8316 26.7701C47.8511 26.6145 47.8937 26.4924 47.9594 26.4042C48.025 26.3158 48.1259 26.2716 48.2618 26.2716C48.3839 26.2716 48.4714 26.3102 48.5244 26.3875C48.5774 26.4647 48.6108 26.5789 48.6246 26.7297C48.6385 26.8804 48.6454 27.0662 48.6454 27.287V27.9896ZM47.6346 31.1624C47.7855 31.2544 47.9853 31.3003 48.2341 31.3003C48.4875 31.3003 48.6886 31.2555 48.8372 31.166C48.9857 31.0766 49.0958 30.9485 49.1672 30.7816C49.2386 30.6149 49.2852 30.415 49.3071 30.182C49.329 29.9491 49.34 29.6891 49.34 29.4022V29.1667H48.6454V29.6119C48.6454 29.8277 48.639 30.0146 48.6263 30.1729C48.6137 30.331 48.5792 30.4537 48.5227 30.5407C48.4662 30.6277 48.3723 30.6712 48.2411 30.6712C48.0407 30.6712 47.9179 30.5799 47.873 30.3972C47.8281 30.2146 47.8056 29.9491 47.8056 29.6008V28.5009H49.3538V27.4598C49.3538 27.195 49.3412 26.9516 49.3158 26.7297C49.2904 26.5078 49.2403 26.3164 49.1655 26.1557C49.0905 25.9951 48.9806 25.8707 48.8354 25.7824C48.6903 25.6942 48.4991 25.65 48.2618 25.65C48.0268 25.65 47.8333 25.6936 47.6812 25.7806C47.5291 25.8677 47.4105 25.9903 47.3253 26.1484C47.24 26.3066 47.1802 26.4942 47.1455 26.7112C47.111 26.9282 47.0937 27.1668 47.0937 27.4268V29.3764C47.0937 29.6634 47.107 29.9251 47.1335 30.1618C47.1599 30.3985 47.2124 30.6013 47.2907 30.7706C47.369 30.9398 47.4836 31.0704 47.6346 31.1624ZM51.2372 31.3003V25.7207H51.9126V26.3122C51.9565 26.1387 52.0504 25.9848 52.1943 25.8509C52.3381 25.7171 52.51 25.65 52.7099 25.65C52.9581 25.65 53.1514 25.7493 53.2898 25.9476C53.4282 26.1461 53.4973 26.4473 53.4973 26.8515V31.3003H52.8219V26.8553C52.8219 26.6569 52.7824 26.5131 52.7033 26.4237C52.6243 26.3345 52.5232 26.2899 52.4002 26.2899C52.3101 26.2899 52.2278 26.3122 52.1531 26.3568C52.0784 26.4015 52.0196 26.4709 51.9768 26.5652C51.934 26.6593 51.9126 26.7809 51.9126 26.9296V31.3003H51.2372ZM55.823 31.2122C55.9446 31.271 56.1245 31.3003 56.3627 31.3003H56.8876V30.6756C56.7039 30.6756 56.5687 30.668 56.4819 30.6526C56.395 30.6373 56.3391 30.606 56.3143 30.5587C56.2895 30.5114 56.2771 30.4393 56.2771 30.3421V26.1451H56.8801V25.5624H56.2771V24.52H55.5141V25.5624H55.0041V26.1451H55.5141V30.4111C55.5141 30.6257 55.5352 30.7983 55.5774 30.9286C55.6195 31.0589 55.7014 31.1534 55.823 31.2122ZM59.2208 27.9896H60.2045V27.287C60.2045 27.0662 60.1965 26.8804 60.1803 26.7297C60.1642 26.5789 60.1252 26.4647 60.0634 26.3875C60.0015 26.3102 59.8994 26.2716 59.757 26.2716C59.5984 26.2716 59.4808 26.3158 59.4042 26.4042C59.3276 26.4924 59.2779 26.6145 59.2551 26.7701C59.2321 26.9259 59.2208 27.1067 59.2208 27.3127V27.9896ZM59.7247 31.3003C59.4345 31.3003 59.2012 31.2544 59.0252 31.1624C58.8491 31.0704 58.7154 30.9398 58.624 30.7706C58.5327 30.6013 58.4714 30.3985 58.4407 30.1618C58.4097 29.9251 58.3943 29.6634 58.3943 29.3764V27.4268C58.3943 27.1668 58.4144 26.9282 58.4547 26.7112C58.4951 26.4942 58.5649 26.3066 58.6644 26.1484C58.7638 25.9903 58.9023 25.8677 59.0796 25.7806C59.2571 25.6936 59.4828 25.65 59.757 25.65C60.0338 25.65 60.2569 25.6942 60.4262 25.7824C60.5956 25.8707 60.7239 25.9951 60.8114 26.1557C60.8986 26.3164 60.957 26.5078 60.9866 26.7297C61.0162 26.9516 61.0311 27.195 61.0311 27.4598V28.5009H59.2248V29.6008C59.2248 29.9491 59.251 30.2146 59.3034 30.3972C59.3558 30.5799 59.499 30.6712 59.7327 30.6712C59.886 30.6712 59.9954 30.6277 60.0613 30.5407C60.1273 30.4537 60.1676 30.331 60.1823 30.1729C60.197 30.0146 60.2045 29.8277 60.2045 29.6119V29.1667H61.0149V29.4022C61.0149 29.6891 61.0021 29.9491 60.9766 30.182C60.951 30.415 60.8966 30.6149 60.8133 30.7816C60.73 30.9485 60.6016 31.0766 60.4283 31.166C60.2549 31.2555 60.0204 31.3003 59.7247 31.3003ZM62.5379 25.717V31.3003H63.374V26.7629C63.4553 26.6463 63.5527 26.5539 63.6663 26.4857C63.78 26.4174 63.9017 26.369 64.0316 26.3404C64.1616 26.312 64.2914 26.2977 64.4213 26.2977V25.9738C64.4213 25.8895 64.4206 25.8145 64.4193 25.7486C64.4179 25.6829 64.4145 25.65 64.4091 25.65C64.1385 25.65 63.916 25.7108 63.7414 25.8324C63.5669 25.9541 63.4444 26.1227 63.374 26.3387V25.717H62.5379Z" fill="white"/>
</svg>
