<svg width="375" height="419" viewBox="0 0 375 419" fill="none" xmlns="http://www.w3.org/2000/svg">
<g opacity="0.05">
<path d="M319.145 112.389C288.226 108.871 256.209 117.467 230.74 138.161C231.348 143.031 231.684 147.987 231.684 153.024C231.684 155.52 231.596 157.996 231.445 160.454C246.59 152.409 263.678 149.326 280.316 151.219C283.106 175.734 275.122 201.242 256.319 220.045C238.692 237.672 215.171 245.791 192.1 244.438C225.437 246.933 259.618 235.499 285.11 210.007C311.779 183.338 323.102 147.159 319.145 112.389Z" fill="#008D5C"/>
<path d="M118.681 220.045C99.8786 201.242 91.8945 175.733 94.6847 151.219C110.741 149.391 127.212 152.218 141.957 159.646C141.837 157.453 141.765 155.247 141.765 153.024C141.765 147.59 142.17 142.255 142.877 137.015C117.639 117.132 86.2118 108.935 55.8545 112.389C51.898 147.159 63.2218 183.339 89.8893 210.006C115.382 235.499 149.564 246.933 182.9 244.438C159.829 245.791 136.308 237.672 118.681 220.045Z" fill="#008D5C"/>
<path d="M189.032 244.174C213.3 223.846 229.369 194.063 231.444 160.454C231.596 157.995 231.684 155.52 231.684 153.023C231.684 147.987 231.349 143.032 230.74 138.161C226.793 106.556 210.452 78.8102 186.724 59.932C163.286 78.5806 147.073 105.889 142.877 137.016C142.17 142.255 141.765 147.59 141.765 153.023C141.765 155.247 141.837 157.453 141.957 159.647C143.827 193.652 160.017 223.802 184.561 244.295C166.508 228.916 155.026 206.055 155.026 180.481C155.026 176.404 155.35 172.407 155.912 168.487C156.673 163.188 157.918 158.048 159.622 153.118C164.881 137.905 174.378 124.668 186.724 114.845C199.428 124.952 209.107 138.676 214.263 154.446C215.858 159.326 217.025 164.396 217.703 169.625C218.164 173.181 218.424 176.799 218.424 180.481C218.424 205.987 207.004 228.796 189.032 244.174Z" fill="#4270B7"/>
<path d="M374.207 203.442C374.027 201.863 372.753 200.577 371.166 200.501C369.696 200.429 368.22 200.569 366.806 201.004C359.824 203.151 357.167 211.231 356.066 217.699C355.761 219.49 351.268 237.745 350.111 240.756C343.873 256.905 336.672 272.75 327.222 287.314C323.863 292.492 319.898 297.296 315.154 301.245C312.513 303.444 309.563 305.379 306.249 306.297C302.984 307.2 299.317 307.024 296.421 305.267C295.553 304.739 294.684 303.893 294.808 302.884C294.896 302.169 295.459 301.621 295.981 301.124C307.157 290.501 314.157 275.595 315.195 260.21C315.316 258.43 313.479 255.255 311.8 257.879C295.782 282.934 234.078 325.539 234.078 325.539C180.254 362.802 189.717 418.992 189.717 418.992C207.462 400.656 272.524 366.942 272.524 366.942C382.494 320.582 376.188 220.766 374.207 203.442Z" fill="#4270B7"/>
<path d="M140.922 325.539C140.922 325.539 79.2175 282.934 63.1992 257.88C61.5207 255.255 59.6838 258.43 59.8043 260.21C60.8425 275.595 67.843 290.501 79.0189 301.124C79.5411 301.621 80.1049 302.169 80.192 302.884C80.3163 303.893 79.4471 304.739 78.5787 305.267C75.6831 307.024 72.0154 307.2 68.7508 306.297C65.437 305.38 62.4869 303.444 59.846 301.245C55.1029 297.296 51.1366 292.492 47.7773 287.314C38.3276 272.75 31.127 256.905 24.8896 240.756C23.7325 237.745 19.2387 219.49 18.9341 217.7C17.833 211.231 15.1762 203.151 8.19388 201.004C6.77983 200.569 5.30364 200.429 3.83351 200.501C2.24745 200.577 0.972837 201.863 0.792482 203.442C-1.18764 220.766 -7.49401 320.582 102.476 366.942C102.476 366.942 167.538 400.656 185.282 418.992C185.282 418.992 194.746 362.802 140.922 325.539Z" fill="#4270B7"/>
<path d="M7.56423 192.231C10.9592 192.231 13.7115 189.478 13.7115 186.083H13.7183C13.7183 90.2603 91.6765 12.3013 187.501 12.3013C283.324 12.3013 361.282 90.2603 361.282 186.083H361.289C361.289 189.478 364.041 192.231 367.436 192.231C370.831 192.231 373.583 189.478 373.583 186.083C373.583 83.4772 290.107 3.05176e-05 187.501 3.05176e-05C84.895 3.05176e-05 1.41699 83.4772 1.41699 186.083C1.41699 189.478 4.1693 192.231 7.56423 192.231Z" fill="#4270B7"/>
<path d="M282.944 220.97C282.852 220.164 282.202 219.508 281.392 219.469C280.643 219.433 279.89 219.504 279.167 219.726C275.605 220.822 274.249 224.945 273.688 228.245C273.532 229.159 271.239 238.473 270.649 240.01C267.467 248.249 263.793 256.334 258.971 263.765C257.257 266.407 255.233 268.858 252.813 270.873C251.465 271.995 249.96 272.983 248.269 273.45C246.603 273.911 244.732 273.822 243.255 272.924C242.812 272.656 242.369 272.223 242.432 271.709C242.477 271.344 242.764 271.065 243.03 270.812C248.733 265.391 252.304 257.785 252.834 249.935C252.895 249.027 251.958 247.407 251.102 248.746C242.929 261.53 211.446 283.268 211.446 283.268C183.982 302.281 188.811 330.952 188.811 330.952C197.865 321.596 231.062 304.394 231.062 304.394C287.172 280.74 283.955 229.81 282.944 220.97Z" fill="#4270B7"/>
<path d="M163.914 283.269C163.914 283.269 132.43 261.53 124.257 248.747C123.4 247.408 122.463 249.027 122.524 249.936C123.054 257.786 126.626 265.391 132.329 270.811C132.595 271.065 132.883 271.345 132.927 271.709C132.99 272.224 132.547 272.656 132.104 272.925C130.627 273.821 128.755 273.911 127.089 273.451C125.399 272.982 123.894 271.995 122.546 270.873C120.126 268.858 118.102 266.407 116.388 263.765C111.567 256.334 107.892 248.249 104.71 240.009C104.119 238.472 101.827 229.158 101.671 228.244C101.109 224.944 99.7535 220.822 96.1911 219.726C95.4696 219.505 94.7164 219.433 93.9669 219.469C93.1568 219.509 92.5067 220.165 92.415 220.97C91.4041 229.809 88.1865 280.74 144.297 304.394C144.297 304.394 177.494 321.596 186.548 330.951C186.548 330.951 191.377 302.282 163.914 283.269Z" fill="#4270B7"/>
</g>
</svg>
