<svg width="42" height="46" viewBox="0 0 42 46" fill="none" xmlns="http://www.w3.org/2000/svg">
<path d="M6.13207 12.3392C9.5266 11.9529 13.0416 12.8966 15.8377 15.1685C15.7709 15.7032 15.734 16.2473 15.734 16.8002C15.734 17.0743 15.7437 17.3461 15.7603 17.616C14.0976 16.7328 12.2215 16.3943 10.395 16.6021C10.0887 19.2935 10.9652 22.094 13.0295 24.1582C14.9647 26.0935 17.547 26.9848 20.0798 26.8362C16.4199 27.1102 12.6673 25.8549 9.86862 23.0562C6.94081 20.1284 5.69763 16.1564 6.13207 12.3392Z" fill="#ECF1F8"/>
<path d="M28.14 24.1582C30.2043 22.094 31.0808 19.2935 30.7745 16.6021C29.0117 16.4014 27.2035 16.7117 25.5847 17.5273C25.5978 17.2865 25.6057 17.0444 25.6057 16.8003C25.6057 16.2038 25.5612 15.618 25.4837 15.0428C28.2544 12.8599 31.7047 11.9599 35.0375 12.3392C35.4719 16.1564 34.2287 20.1284 31.3009 23.0561C28.5022 25.8549 24.7495 27.1101 21.0897 26.8363C23.6226 26.9848 26.2048 26.0934 28.14 24.1582Z" fill="#ECF1F8"/>
<path d="M20.4167 26.808C17.7524 24.5763 15.9883 21.3065 15.7605 17.6167C15.7437 17.3468 15.7341 17.0751 15.7341 16.8009C15.7341 16.248 15.771 15.704 15.8378 15.1692C16.2711 11.6995 18.0651 8.65336 20.6701 6.5808C23.2433 8.62815 25.0232 11.6262 25.4839 15.0435C25.5614 15.6187 25.606 16.2044 25.606 16.8009C25.606 17.045 25.5981 17.2873 25.5848 17.528C25.3796 21.2614 23.6021 24.5714 20.9076 26.8213C22.8896 25.1328 24.1501 22.623 24.1501 19.8153C24.1501 19.3677 24.1145 18.929 24.0528 18.4986C23.9693 17.9168 23.8326 17.3525 23.6455 16.8113C23.0682 15.1411 22.0255 13.6879 20.6701 12.6095C19.2754 13.7191 18.2127 15.2258 17.6467 16.9571C17.4715 17.4929 17.3434 18.0495 17.269 18.6236C17.2185 19.0139 17.1899 19.4112 17.1899 19.8153C17.1899 22.6156 18.4437 25.1197 20.4167 26.808Z" fill="white"/>
<path d="M0.0871696 22.3351C0.10697 22.1618 0.24682 22.0206 0.421032 22.0122C0.58243 22.0044 0.744495 22.0197 0.899736 22.0674C1.6663 22.3032 1.95798 23.1902 2.07886 23.9003C2.11231 24.097 2.60557 26.1011 2.73261 26.4317C3.41739 28.2046 4.208 29.9442 5.24544 31.5431C5.61424 32.1115 6.04961 32.639 6.57032 33.0725C6.86034 33.3139 7.18414 33.5264 7.54803 33.6272C7.90644 33.7263 8.30902 33.7069 8.62699 33.514C8.72233 33.4561 8.81768 33.3632 8.80412 33.2524C8.79447 33.174 8.73265 33.1138 8.67533 33.0593C7.44837 31.893 6.67981 30.2565 6.56583 28.5675C6.5526 28.372 6.75427 28.0235 6.93855 28.3116C8.69713 31.0623 15.4714 35.7397 15.4714 35.7397C21.3805 39.8306 20.3415 45.9995 20.3415 45.9995C18.3934 43.9865 11.2506 40.2851 11.2506 40.2851C-0.822571 35.1955 -0.130302 24.237 0.0871696 22.3351Z" fill="white"/>
<path d="M25.6985 35.7397C25.6985 35.7397 32.4727 31.0623 34.2313 28.3117C34.4156 28.0235 34.6172 28.372 34.604 28.5675C34.49 30.2565 33.7215 31.893 32.4945 33.0593C32.4372 33.1138 32.3753 33.174 32.3657 33.2524C32.3521 33.3632 32.4475 33.4561 32.5429 33.514C32.8607 33.7069 33.2634 33.7263 33.6218 33.6272C33.9856 33.5265 34.3095 33.3139 34.5994 33.0725C35.1202 32.639 35.5556 32.1115 35.9244 31.5431C36.9618 29.9442 37.7524 28.2046 38.4371 26.4317C38.5642 26.1011 39.0575 24.097 39.091 23.9004C39.2119 23.1902 39.5035 22.3032 40.2701 22.0674C40.4253 22.0197 40.5874 22.0044 40.7488 22.0122C40.9229 22.0206 41.0629 22.1618 41.0827 22.3351C41.3001 24.237 41.9924 35.1955 29.9193 40.2851C29.9193 40.2851 22.7764 43.9865 20.8283 45.9995C20.8283 45.9995 19.7894 39.8306 25.6985 35.7397Z" fill="white"/>
<path d="M40.339 21.1048C39.9663 21.1048 39.6642 20.8026 39.6642 20.4299H39.6634C39.6634 9.90988 31.1047 1.35109 20.5845 1.35109C10.0645 1.35109 1.50584 9.90988 1.50584 20.4299H1.50509C1.50509 20.8026 1.20292 21.1048 0.830212 21.1048C0.457497 21.1048 0.155331 20.8026 0.155331 20.4299C0.155331 9.1652 9.31978 0.000583649 20.5845 0.000583649C31.8492 0.000583649 41.0139 9.1652 41.0139 20.4299C41.0139 20.8026 40.7118 21.1048 40.339 21.1048Z" fill="white"/>
<path d="M10.1064 24.2609C10.1166 24.1725 10.1879 24.1005 10.2768 24.0962C10.3591 24.0922 10.4418 24.1 10.5211 24.1244C10.9122 24.2447 11.061 24.6973 11.1226 25.0596C11.1397 25.1599 11.3914 26.1825 11.4563 26.3512C11.8056 27.2558 12.209 28.1434 12.7384 28.9592C12.9265 29.2492 13.1487 29.5184 13.4144 29.7396C13.5623 29.8627 13.7276 29.9712 13.9133 30.0225C14.0961 30.0731 14.3015 30.0633 14.4638 29.9648C14.5124 29.9353 14.561 29.8878 14.5541 29.8314C14.5492 29.7913 14.5177 29.7606 14.4884 29.7329C13.8623 29.1378 13.4702 28.3027 13.4121 27.4409C13.4054 27.3412 13.5083 27.1634 13.6023 27.3104C14.4995 28.7139 17.956 31.1004 17.956 31.1004C20.971 33.1878 20.4409 36.3354 20.4409 36.3354C19.4469 35.3083 15.8024 33.4197 15.8024 33.4197C9.64227 30.8228 9.99543 25.2314 10.1064 24.2609Z" fill="white"/>
<path d="M23.1741 31.1005C23.1741 31.1005 26.6306 28.7139 27.5279 27.3105C27.6219 27.1634 27.7248 27.3412 27.7181 27.441C27.6599 28.3028 27.2678 29.1378 26.6417 29.7328C26.6125 29.7607 26.5809 29.7914 26.576 29.8314C26.5691 29.8879 26.6178 29.9353 26.6664 29.9649C26.8286 30.0633 27.0341 30.0732 27.2169 30.0226C27.4025 29.9712 27.5678 29.8628 27.7158 29.7396C27.9814 29.5185 28.2036 29.2493 28.3918 28.9593C28.9211 28.1434 29.3245 27.2558 29.6739 26.3512C29.7387 26.1825 29.9904 25.1599 30.0075 25.0596C30.0692 24.6973 30.218 24.2447 30.6091 24.1244C30.6883 24.1001 30.771 24.0922 30.8533 24.0962C30.9422 24.1005 31.0136 24.1726 31.0237 24.261C31.1347 25.2314 31.4879 30.8229 25.3277 33.4197C25.3277 33.4197 21.6832 35.3083 20.6892 36.3354C20.6892 36.3354 20.1591 33.1879 23.1741 31.1005Z" fill="white"/>
</svg>
