<svg width="34" height="34" viewBox="0 0 34 34" fill="none" xmlns="http://www.w3.org/2000/svg">
<path d="M5.40968 28.3862C5.22079 28.3862 5.03946 28.3635 4.88079 28.3182C3.21101 27.9102 1.88123 25.6813 1.54879 23.7622C0.279455 17.0831 0.793233 12.2324 3.09012 9.33866C4.67679 7.33644 7.12479 6.25599 10.3586 6.12755C16.2595 5.89333 18.2315 6.00666 18.307 6.00666C18.4808 6.01422 18.6243 6.14266 18.6546 6.30888L20.4377 15.4738C20.4377 15.4889 20.4452 15.4964 20.4452 15.5115C20.7248 18.5867 19.9239 20.8382 17.9972 22.4173C17.8386 22.5458 17.5968 22.5231 17.4683 22.3644C17.3399 22.2058 17.3626 21.964 17.5212 21.8355C19.2363 20.4378 19.9466 18.3978 19.6972 15.6022L17.9746 6.7471C17.2341 6.72444 15.0128 6.69422 10.3888 6.87555C7.38168 6.99644 5.13012 7.97866 3.67946 9.8071C1.52612 12.5195 1.05768 17.1662 2.29679 23.6262V23.6338C2.61412 25.4849 3.8759 27.2982 5.06212 27.5929C5.70434 27.7515 6.30879 27.4644 6.86034 26.7467C7.85012 25.4395 9.83723 24.8653 11.9452 24.2533C12.7612 24.0191 13.5999 23.7698 14.4083 23.4827C14.6048 23.4147 14.8239 23.5129 14.8919 23.7093C14.9599 23.9058 14.8617 24.1249 14.6652 24.1929C13.8341 24.4951 12.9803 24.7444 12.1568 24.9787C10.1772 25.5529 8.30346 26.0969 7.46479 27.2C6.75457 28.1218 6.01412 28.3862 5.40968 28.3862Z" fill="#4270B7"/>
<path d="M22.916 18.4356C22.6969 18.4356 22.508 18.3978 22.3267 18.3147C21.7751 18.0578 21.6013 17.4609 21.5862 17.1511C21.5862 17.1436 21.5862 17.1285 21.5862 17.1209C21.8809 9.74669 20.3396 7.96357 20.3244 7.94846C20.3018 7.91824 20.2791 7.88802 20.2564 7.8578C19.9542 7.28357 20.06 6.84535 20.2036 6.58091C20.5813 5.87824 21.6996 5.43246 23.6111 5.21335C25.6284 4.98668 27.8196 5.10002 28.0613 5.11513C30.3431 5.03957 31.892 5.50802 32.6627 6.51291C33.456 7.54802 33.0933 8.7418 33.0782 8.78713C33.048 8.8778 32.9951 8.95335 32.912 8.99868C30.4413 10.4796 25.8476 16.9471 25.8022 17.0076C25.7796 17.0378 25.7569 17.068 25.7267 17.0907C24.548 17.9898 23.6262 18.4356 22.916 18.4356ZM22.3418 17.1209C22.3493 17.1814 22.3947 17.5138 22.6516 17.6271C22.8631 17.7254 23.5356 17.8085 25.2204 16.524C25.6738 15.8894 29.852 10.0716 32.3907 8.43202C32.4436 8.16757 32.4964 7.52535 32.0582 6.95868C31.4462 6.17291 30.0711 5.78757 28.0764 5.86313C28.0613 5.86313 28.0538 5.86313 28.0387 5.86313C28.016 5.86313 25.7267 5.73468 23.7018 5.96135C21.488 6.21068 20.9893 6.72446 20.876 6.92846C20.8231 7.02668 20.7778 7.1778 20.9138 7.46491C21.2009 7.82002 22.6213 9.95068 22.3418 17.1209Z" fill="#4270B7"/>
<path d="M4.50301 20.8836C4.32168 20.8836 4.17057 20.7551 4.13279 20.5738C3.3319 16.3805 3.65679 13.3205 5.11501 11.492C6.12746 10.2151 7.6839 9.52002 9.73901 9.4369C9.95057 9.42935 10.1243 9.58802 10.1319 9.79957C10.1395 10.0111 9.98079 10.1849 9.76924 10.1925C7.94835 10.268 6.58079 10.8573 5.70435 11.9605C4.38968 13.6151 4.11012 16.4636 4.87324 20.4302C4.91101 20.6342 4.77501 20.8307 4.57101 20.876C4.5559 20.876 4.53324 20.8836 4.50301 20.8836Z" fill="#4270B7"/>
<path d="M14.7031 6.74712C14.552 6.74712 14.4084 6.65645 14.348 6.50534C14.0609 5.77245 14.212 5.06223 14.7636 4.50312C15.6476 3.61156 17.4231 3.27912 18.7227 3.77023C19.6747 4.12534 19.7729 4.07245 20.0827 3.90623C20.3471 3.76267 20.7098 3.57378 21.4729 3.44534C22.0698 3.34712 22.5987 3.45289 23.0369 3.77023C23.8529 4.35956 24.0191 5.47023 24.0267 5.51556C24.0569 5.71956 23.9133 5.916 23.7093 5.94623C23.5053 5.97645 23.3089 5.83289 23.2787 5.62889C23.2787 5.61378 23.1427 4.78267 22.5836 4.38223C22.3116 4.18578 21.9942 4.12534 21.5938 4.19334C20.9516 4.29912 20.6644 4.45023 20.4302 4.57867C19.9164 4.85067 19.6067 4.91112 18.4507 4.48045C17.4231 4.09512 15.9724 4.352 15.2924 5.03956C14.9524 5.38712 14.8693 5.78756 15.0431 6.23334C15.1187 6.42978 15.0204 6.64889 14.8316 6.72445C14.7938 6.73956 14.7484 6.74712 14.7031 6.74712Z" fill="#4270B7"/>
<path d="M22.6364 23.7093C22.5986 23.7093 22.5533 23.7018 22.5079 23.6867C22.319 23.6187 22.2662 23.46 22.2435 23.3845C22.2359 23.3693 22.2284 23.3467 22.2208 23.3165C22.0319 22.8556 21.2915 21.1933 19.5235 19.38C19.3799 19.2289 19.3799 18.9947 19.531 18.8436C19.6822 18.6925 19.9164 18.7 20.0675 18.8511C21.6995 20.5209 22.5079 22.0849 22.8253 22.7876L23.4902 22.4022C22.3493 20.7173 21.8582 17.9293 21.8355 17.8009C21.7977 17.5969 21.9413 17.4005 22.1453 17.3627C22.3493 17.3249 22.5457 17.4685 22.5835 17.6725C22.591 17.7027 23.135 20.8231 24.3364 22.2738C24.4044 22.3569 24.4346 22.4702 24.4195 22.5836C24.3968 22.6893 24.3364 22.7876 24.2382 22.8405L23.0066 23.5507C22.9688 23.5733 22.9386 23.5885 22.9235 23.6036C22.8555 23.6489 22.7573 23.7093 22.6364 23.7093Z" fill="#4270B7"/>
<path d="M18.2769 30.6982C17.5213 30.6982 16.9395 30.4111 16.8035 29.9049C16.6146 29.2098 17.3626 28.4467 18.5413 28.1293C19.72 27.812 20.7475 28.0991 20.9289 28.8018C21.1177 29.4969 20.3697 30.26 19.1911 30.5773C18.8737 30.6529 18.564 30.6982 18.2769 30.6982ZM18.7377 28.8547C17.9217 29.0738 17.4911 29.5347 17.5364 29.7009C17.5817 29.8671 18.1862 30.056 19.0022 29.8369C19.8182 29.6178 20.2489 29.1569 20.2035 28.9907C20.1506 28.8244 19.5462 28.6356 18.7377 28.8547Z" fill="#4270B7"/>
<path d="M20.5663 29.2702C20.4455 29.2702 20.3321 29.2173 20.2566 29.1116C18.2921 26.2858 17.5441 23.3467 17.257 21.3822C16.9472 19.244 17.1059 17.7933 17.1135 17.7329C17.1361 17.5289 17.325 17.3778 17.529 17.4004C17.733 17.4231 17.8841 17.612 17.8615 17.816C17.8539 17.8689 17.2797 23.5204 20.8686 28.6809C20.9895 28.8547 20.9441 29.0889 20.7779 29.2098C20.7175 29.2476 20.6419 29.2702 20.5663 29.2702Z" fill="#4270B7"/>
<path d="M17.1737 30.1769C17.0528 30.1769 16.9395 30.124 16.8639 30.0182C14.8995 27.1925 14.1439 24.2307 13.8493 22.236C13.5395 20.0751 13.6831 18.5942 13.6906 18.5338C13.7133 18.3298 13.9022 18.1787 14.1062 18.2013C14.3102 18.224 14.4613 18.4053 14.4386 18.6169C14.4311 18.6773 13.8795 24.4271 17.4759 29.5951C17.5968 29.7689 17.5515 30.0031 17.3853 30.124C17.3173 30.1542 17.2493 30.1769 17.1737 30.1769Z" fill="#4270B7"/>
<path d="M11.9982 19.0476C11.8698 19.0476 11.7413 19.0476 11.6053 19.0476C11.3938 19.0476 11.2276 18.8738 11.2351 18.6622C11.2351 18.4507 11.4089 18.2845 11.6204 18.292C17.3551 18.3827 18.9947 16.3956 19.0098 16.3729C19.1382 16.2067 19.38 16.184 19.5387 16.3125C19.7049 16.4409 19.7276 16.6827 19.5991 16.8413C19.5311 16.932 17.7858 19.0476 11.9982 19.0476Z" fill="#4270B7"/>
</svg>
