<svg width="375" height="375" viewBox="0 0 375 375" fill="none" xmlns="http://www.w3.org/2000/svg">
<path d="M138.104 144.118L120.595 161.627L138.572 179.604L156.081 162.096L138.104 144.118Z" fill="#008D5C" fill-opacity="0.05"/>
<path d="M187.39 45.7074L46.9512 186.146L187.666 326.861L303.593 210.934L212.592 119.906L195.072 137.426L269.326 211.68L262.169 218.81L187.915 144.556L170.394 162.076L244.648 236.33L237.491 243.487L163.237 169.206L145.717 186.726L212.841 253.823L219.998 260.98L212.841 268.137L188.191 292.787L181.061 285.63L205.711 260.98L138.587 193.856L121.067 211.376L113.91 218.506L106.752 211.376L88.7621 193.386L81.6324 186.229L88.7621 179.099L106.282 161.579L113.412 154.421L130.932 136.901L138.09 129.744L155.61 112.224L162.74 105.066L180.26 87.546L187.417 80.4163L194.575 87.546L212.565 105.536L219.722 112.693L310.722 203.694L328.104 186.339M138.615 228.952L170.892 261.201L163.762 268.358L131.485 236.081L138.615 228.952Z" fill="#008D5C" fill-opacity="0.05"/>
<path d="M113.447 168.768L95.9443 186.282L113.928 204.253L131.43 186.739L113.447 168.768Z" fill="#008D5C" fill-opacity="0.05"/>
<path d="M187.444 94.8215L169.933 112.327L187.907 130.307L205.419 112.802L187.444 94.8215Z" fill="#008D5C" fill-opacity="0.05"/>
<path d="M187.5 0L0 187.5L187.5 375L375 187.5L187.5 0ZM310.722 218.064L187.638 341.148L32.6363 186.146L187.389 31.4204L342.391 186.422L317.879 210.934L310.722 218.064Z" fill="#008D5C" fill-opacity="0.05"/>
<path d="M162.788 119.457L145.277 136.962L163.251 154.943L180.762 137.437L162.788 119.457Z" fill="#008D5C" fill-opacity="0.05"/>
</svg>
