<svg width="83" height="24" viewBox="0 0 83 24" fill="none" xmlns="http://www.w3.org/2000/svg">
<path fill-rule="evenodd" clip-rule="evenodd" d="M58.785 9.55263C58.7937 9.66308 58.8412 9.76027 58.9232 9.83979C58.9664 9.88397 58.9966 9.90607 59.0095 9.90607H60.0673V9.90613H61.2071C61.2071 9.90613 61.2503 9.88845 61.2935 9.84869C61.3712 9.76475 61.4187 9.66314 61.4316 9.54827V5.36005L63.5169 5.35564V9.46875V9.46884C63.5169 9.53505 63.5169 9.57036 63.5083 9.58361C63.5126 9.61012 63.5298 9.64988 63.5557 9.7029C63.5816 9.75591 63.6119 9.80451 63.655 9.84869C63.6982 9.88845 63.7284 9.90613 63.7414 9.90613H64.7775V9.90604H65.8352C65.8352 9.90604 65.8784 9.88837 65.9216 9.84861C66.0036 9.76466 66.0468 9.66306 66.0597 9.54819V5.35997H68.145V9.46866C68.145 9.53493 68.145 9.57027 68.1364 9.58353C68.1407 9.61003 68.1579 9.6498 68.1838 9.6984C68.2098 9.75141 68.2443 9.80001 68.2831 9.84419C68.3263 9.88395 68.3565 9.90162 68.3695 9.90162H69.0257C69.0257 9.90162 69.0689 9.88395 69.1121 9.84419C69.1509 9.80001 69.1855 9.75141 69.2114 9.6984C69.2373 9.64538 69.2545 9.61003 69.2589 9.58353C69.2589 9.57943 69.2584 9.57323 69.2579 9.56465C69.2566 9.54548 69.2545 9.51445 69.2545 9.46866V5.35997H71.3398V9.5526C71.3484 9.66305 71.3916 9.76025 71.478 9.83977C71.5211 9.88395 71.5514 9.90604 71.5643 9.90604H72.186C72.186 9.90604 72.2249 9.88837 72.2724 9.84861C72.3112 9.80443 72.3457 9.75583 72.3717 9.70281L72.3717 9.7027C72.3976 9.64975 72.4148 9.61444 72.4191 9.58795C72.4191 9.58385 72.4187 9.57765 72.4182 9.56907V9.56896C72.4169 9.54977 72.4148 9.51878 72.4148 9.47308V5.36439H74.4958L74.4828 9.5526C74.4915 9.66305 74.5389 9.76025 74.621 9.83977C74.6685 9.88395 74.6944 9.90604 74.7073 9.90604H75.3679V9.90173H76.1536V7.71927C76.1536 7.39676 76.1925 7.09633 76.2702 6.82242C76.3522 6.54409 76.4602 6.29226 76.594 6.07137C76.7322 5.84605 76.8962 5.65166 77.0862 5.48378C77.2805 5.3159 77.4834 5.17453 77.6992 5.0685C77.9065 4.96689 78.1224 4.89178 78.3425 4.83876C78.5627 4.78575 78.7915 4.75924 79.0203 4.75924H79.0808C79.288 4.75924 79.4953 4.78133 79.7025 4.82551C79.9227 4.87411 80.1385 4.94921 80.3501 5.04641C80.5703 5.15244 80.7775 5.29381 80.9718 5.46611C81.1661 5.63841 81.3344 5.84164 81.4769 6.07579C81.6194 6.30994 81.7359 6.5706 81.818 6.86218C81.9 7.15377 81.9475 7.47186 81.9561 7.81646V10.0652C81.9604 10.3745 81.9 10.6616 81.7662 10.9223C81.6971 11.0504 81.6107 11.1785 81.5158 11.2978C81.4208 11.4171 81.3085 11.5275 81.1747 11.6291C80.8811 11.8766 80.5444 12.0356 80.1688 12.1019C80.0133 12.1328 79.8493 12.146 79.6852 12.146C79.478 12.146 79.2794 12.124 79.0894 12.0798H79.0635L77.0214 11.5452H75.7651V11.5495H74.7116C74.4267 11.5495 74.159 11.5098 73.9086 11.4258C73.6582 11.3463 73.5028 11.28 73.4423 11.2358C73.3733 11.2844 73.2135 11.3463 72.9674 11.4258C72.7214 11.5098 72.4537 11.5495 72.1687 11.5495H71.56C71.275 11.5495 71.0074 11.5098 70.757 11.4258C70.5066 11.3463 70.3511 11.28 70.2907 11.2358C70.2216 11.2844 70.0619 11.3463 69.8158 11.4258C69.5697 11.5098 69.302 11.5495 69.0171 11.5495H68.3738C68.0889 11.5495 67.8212 11.5098 67.5751 11.4258C67.329 11.3463 67.1693 11.28 67.1002 11.2358C67.0398 11.2844 66.8843 11.3463 66.6339 11.4258C66.3835 11.5098 66.1158 11.5495 65.8309 11.5495H65.1704V11.5496H63.7457C63.4608 11.5496 63.1931 11.5098 62.947 11.4303C62.7009 11.3508 62.5412 11.2845 62.4721 11.2359C62.4116 11.2845 62.2562 11.3464 62.0058 11.4303C61.7554 11.5098 61.4877 11.5496 61.2028 11.5496H59.6745V11.5495H59.0139C58.7289 11.5495 58.4612 11.5098 58.2108 11.4303C57.9604 11.3507 57.805 11.2845 57.7446 11.2359C57.6755 11.2845 57.5158 11.3463 57.2697 11.4303C57.0236 11.5098 56.7559 11.5495 56.4666 11.5495H55.8579C55.573 11.5495 55.3053 11.5098 55.0549 11.4303C54.8045 11.3507 54.649 11.2845 54.5886 11.2359C54.5195 11.2845 54.3598 11.3463 54.1137 11.4303C53.8676 11.5098 53.5999 11.5495 53.315 11.5495H52.6717C52.3868 11.5495 52.1191 11.5098 51.873 11.4303C51.6269 11.3507 51.4672 11.2845 51.3981 11.2359C51.3377 11.2845 51.1822 11.3463 50.9318 11.4303C50.6814 11.5098 50.4137 11.5495 50.1288 11.5495H49.4683V11.5496H42.0165V11.5541H41.3733C41.3905 11.6689 41.3992 11.8103 41.3992 11.9649C41.3992 12.0489 41.3949 12.1328 41.3862 12.2167C41.356 12.4421 41.2956 12.6541 41.2092 12.8529C41.097 13.0827 40.9631 13.2903 40.7991 13.4803C40.6091 13.7056 40.3932 13.9044 40.1515 14.0679C39.9097 14.2313 39.6463 14.3727 39.3657 14.4787C39.0851 14.5892 38.7958 14.6687 38.4893 14.7217C38.2087 14.7703 37.9324 14.7924 37.6474 14.7924H37.5697C37.2071 14.7836 36.853 14.735 36.499 14.6466C36.145 14.5627 35.8082 14.4301 35.4844 14.2578C35.1736 14.09 34.893 13.8867 34.6382 13.6437C34.3835 13.4008 34.1677 13.118 33.9906 12.7911C33.8525 12.5393 33.7446 12.2653 33.6668 11.9649C33.5891 11.6689 33.5416 11.3508 33.533 11.0062V10.8825C33.533 10.5777 33.5632 10.264 33.6194 9.92826C33.6755 9.55273 33.8136 9.06234 34.0295 8.45708L36.0586 8.77959C35.7564 9.65434 35.6096 10.3303 35.6096 10.8074V10.9135C35.6269 11.395 35.7262 11.8015 35.8989 12.124C35.9982 12.3095 36.1105 12.4597 36.24 12.5834C36.3695 12.7071 36.5163 12.8132 36.6717 12.9015C36.8185 12.9811 36.9739 13.0385 37.1337 13.0827C37.2977 13.1224 37.4575 13.1445 37.6172 13.1489H37.6776C37.941 13.1489 38.1957 13.1003 38.4375 13.0031C38.6879 12.9015 38.8994 12.7513 39.0678 12.5525C39.1369 12.473 39.1973 12.3846 39.2405 12.2874C39.2794 12.2123 39.3053 12.1284 39.3139 12.04C39.3182 12.0224 39.3225 12.0047 39.3225 11.9826C39.3225 11.9252 39.3139 11.8677 39.2966 11.8059C39.2707 11.7043 39.2189 11.5982 39.1455 11.4878C39.0721 11.3773 38.9599 11.2536 38.8088 11.1255C38.6793 11.0195 38.5238 10.9135 38.3382 10.803C38.1525 10.6926 37.7899 10.5203 37.2545 10.2817L38.4116 8.96072L38.6706 9.02699L38.7095 9.04024C38.8475 9.09322 38.977 9.15062 39.1064 9.20801L39.1065 9.20803L39.1067 9.20813C39.1815 9.24131 39.2549 9.27302 39.3269 9.30411L39.3271 9.30423C39.3796 9.3269 39.4313 9.34925 39.4823 9.37159C39.6593 9.45553 39.8277 9.53064 39.9831 9.59249C40.1385 9.65876 40.3026 9.71177 40.4666 9.76037C40.6307 9.80455 40.812 9.83989 41.0063 9.87082C41.1409 9.88918 41.3438 9.90118 41.6151 9.90682V9.90611H42.6944C42.6944 9.90611 42.716 9.91053 42.7246 9.91053C42.7549 9.91053 42.7721 9.89286 42.7721 9.85309C42.7721 9.83542 42.7635 9.80008 42.7505 9.7559C42.7074 9.6322 42.6685 9.46432 42.6383 9.24784C42.6081 9.03136 42.5908 8.80604 42.5908 8.56305C42.5908 8.54197 42.5898 8.51888 42.5888 8.49473C42.5877 8.46828 42.5865 8.44056 42.5865 8.41285C42.5865 8.21846 42.5865 8.02406 42.5994 7.81642C42.6037 7.47182 42.6512 7.15373 42.7333 6.86215C42.8196 6.57056 42.9319 6.30991 43.0787 6.07575C43.2211 5.8416 43.3895 5.64279 43.5838 5.46607C43.7781 5.29377 43.9853 5.1524 44.2055 5.04637C44.4084 4.94918 44.6243 4.87849 44.8531 4.82989C45.0819 4.78129 45.315 4.7592 45.5482 4.7592C45.7813 4.7592 46.0144 4.78129 46.2432 4.82547C46.4721 4.87407 46.6923 4.94476 46.8995 5.04637L46.9038 5.05079C47.124 5.15682 47.3312 5.29819 47.5255 5.47049C47.7198 5.64279 47.8881 5.84602 48.0306 6.08017C48.1731 6.31432 48.2853 6.57498 48.3717 6.86656C48.458 7.15815 48.5012 7.47624 48.5098 7.82084C48.5098 7.95529 48.5121 8.0862 48.5144 8.21299C48.5165 8.33201 48.5185 8.4474 48.5185 8.55864C48.5185 8.80604 48.5012 9.03136 48.471 9.24784C48.4408 9.4599 48.3933 9.6322 48.3328 9.7559C48.3112 9.80008 48.2983 9.831 48.2983 9.85309C48.2983 9.89286 48.3199 9.91053 48.3631 9.91053H48.3631C48.3803 9.91053 48.3976 9.91053 48.4149 9.90611H49.0754V9.90607H50.1331C50.1331 9.90607 50.1763 9.88839 50.2195 9.84863C50.2972 9.76469 50.3447 9.66308 50.3576 9.54821V5.35999H52.4429V9.4731V9.47319C52.4429 9.5394 52.4429 9.57473 52.4343 9.58797C52.4386 9.61448 52.4558 9.65425 52.4818 9.70726C52.5077 9.76028 52.5422 9.80887 52.581 9.85305C52.6242 9.89281 52.6544 9.91048 52.6674 9.91048H53.3236C53.3236 9.91048 53.3668 9.89281 53.41 9.85305C53.4488 9.80887 53.4834 9.76028 53.5093 9.70726C53.5352 9.65425 53.5524 9.61448 53.5568 9.58797C53.5568 9.58388 53.5559 9.57767 53.5548 9.5691C53.5522 9.54992 53.5481 9.51889 53.5481 9.4731V5.35999H55.6334V9.55704C55.642 9.66749 55.6895 9.76469 55.7715 9.84422C55.8147 9.8884 55.8449 9.91048 55.8579 9.91048H56.4796C56.4796 9.91048 56.5228 9.89281 56.5659 9.85305C56.6048 9.80887 56.6393 9.76028 56.6652 9.70726C56.6911 9.65425 56.7084 9.61448 56.7127 9.58797C56.7084 9.57472 56.7041 9.53937 56.7041 9.4731V5.35999H58.7894L58.785 9.55263ZM52.4084 3.74745C52.4084 3.60165 52.4386 3.46911 52.4904 3.34541C52.5465 3.22171 52.6199 3.11126 52.7106 3.01848C52.8012 2.9257 52.9092 2.85502 53.03 2.79758C53.1509 2.74457 53.2805 2.72248 53.4186 2.72248C53.5568 2.72248 53.6863 2.74899 53.8072 2.79758C53.9324 2.8506 54.0403 2.9257 54.1353 3.01848C54.2303 3.11126 54.3037 3.22171 54.3555 3.34541C54.4073 3.46911 54.4332 3.60607 54.4332 3.74745C54.4332 3.88882 54.4073 4.02136 54.3555 4.14064C54.3037 4.25993 54.2303 4.36596 54.1353 4.45874C54.0403 4.55151 53.9324 4.6222 53.8072 4.67521C53.682 4.72823 53.5524 4.75474 53.4186 4.75474C53.2848 4.75474 53.1553 4.72823 53.03 4.67521C52.9092 4.6222 52.8012 4.55151 52.7106 4.45874C52.6156 4.36596 52.5422 4.26435 52.4904 4.14064C52.4343 4.02136 52.4084 3.88882 52.4084 3.74745ZM53.4316 1.66217C53.4316 1.51638 53.4618 1.38826 53.5179 1.26014C53.574 1.13644 53.6517 1.02599 53.7424 0.933215C53.8331 0.840439 53.9453 0.765333 54.0662 0.712318C54.1871 0.659303 54.3252 0.637207 54.4677 0.637207C54.6016 0.637207 54.7268 0.663721 54.852 0.712318C54.9728 0.765333 55.0765 0.840439 55.1671 0.933215C55.2578 1.02599 55.3269 1.13644 55.383 1.26014C55.4348 1.38384 55.4607 1.51638 55.4607 1.66217C55.4607 1.80797 55.4348 1.93608 55.383 2.05979C55.3312 2.17907 55.2578 2.2851 55.1671 2.37788C55.0765 2.47066 54.9685 2.54135 54.852 2.59436C54.7311 2.64738 54.6016 2.67388 54.4677 2.67388C54.3209 2.67388 54.1871 2.64738 54.0662 2.59436C53.941 2.54135 53.8331 2.47066 53.7424 2.37788C53.6474 2.2851 53.574 2.17907 53.5179 2.05979C53.4618 1.9405 53.4316 1.80797 53.4316 1.66217ZM54.6447 3.74745C54.6447 3.60165 54.6749 3.46911 54.7311 3.34541C54.7872 3.22171 54.8649 3.11126 54.9556 3.01848C55.0462 2.9257 55.1585 2.85502 55.2794 2.79758C55.4046 2.74457 55.5384 2.72248 55.6852 2.72248C55.819 2.72248 55.9442 2.74899 56.0651 2.79758C56.186 2.8506 56.2896 2.9257 56.3803 3.01848C56.471 3.11126 56.54 3.22171 56.5962 3.34541C56.648 3.46911 56.6782 3.60607 56.6782 3.74745C56.6782 3.88882 56.6523 4.02136 56.5962 4.14064C56.5443 4.25993 56.471 4.36596 56.3803 4.45874C56.2896 4.55151 56.1817 4.6222 56.0651 4.67521C55.9442 4.72823 55.819 4.75474 55.6852 4.75474C55.5384 4.75474 55.4046 4.72823 55.2794 4.67521C55.1542 4.6222 55.0462 4.55151 54.9556 4.45874C54.8649 4.36596 54.7872 4.26435 54.7311 4.14064C54.6749 4.02136 54.6447 3.88882 54.6447 3.74745ZM28.6847 10.233C28.7926 9.99446 28.8488 9.73822 28.8488 9.46431L28.8617 5.3512H26.7764V9.44663C26.7764 9.54825 26.7635 9.62335 26.7419 9.67637C26.716 9.73822 26.6771 9.79565 26.634 9.83983C26.5908 9.87959 26.5476 9.89727 26.5476 9.89727H25.9259C25.913 9.89727 25.8828 9.87518 25.8396 9.831C25.7576 9.75148 25.7101 9.65428 25.7014 9.54383V5.3512H23.6162V9.45989C23.6162 9.50568 23.6203 9.5367 23.6228 9.55588C23.624 9.56446 23.6248 9.57066 23.6248 9.57476C23.6205 9.60126 23.6032 9.64102 23.5773 9.69404C23.5514 9.74705 23.5169 9.79565 23.478 9.83983C23.4348 9.87959 23.3917 9.89727 23.3917 9.89727H22.7354C22.7225 9.89727 22.6923 9.87959 22.6491 9.83983C22.6102 9.79565 22.5757 9.74705 22.5498 9.69404C22.5239 9.64102 22.5066 9.60126 22.5023 9.57476C22.5109 9.5615 22.5109 9.52616 22.5109 9.45989V5.3512H20.4257V9.53941C20.4127 9.65428 20.3652 9.75589 20.2875 9.83983C20.2443 9.87959 20.2012 9.89727 20.2012 9.89727H19.1434V9.90611H18.4785C18.4613 9.91053 18.444 9.91053 18.4267 9.91053H18.4267C18.3835 9.91053 18.3619 9.89286 18.3619 9.85309C18.3619 9.831 18.3749 9.80008 18.3965 9.7559C18.4569 9.6322 18.5044 9.4599 18.5346 9.24784C18.5649 9.03136 18.5821 8.80604 18.5821 8.55864C18.5821 8.4474 18.5801 8.33201 18.578 8.21299C18.5758 8.0862 18.5735 7.95529 18.5735 7.82084C18.5649 7.47624 18.5174 7.15815 18.4353 6.86656C18.349 6.57498 18.2367 6.31432 18.0943 6.08017C17.9518 5.84602 17.7834 5.64279 17.5891 5.47049C17.3949 5.29819 17.1876 5.15682 16.9675 5.05079L16.9588 5.04637C16.7516 4.94476 16.5314 4.87407 16.3026 4.82547C16.0738 4.78129 15.8406 4.7592 15.6075 4.7592C15.3744 4.7592 15.1412 4.78129 14.9124 4.82989C14.6836 4.87849 14.4677 4.94918 14.2648 5.04637C14.0446 5.1524 13.8374 5.29377 13.6431 5.46607C13.4488 5.64279 13.2805 5.8416 13.138 6.07575C12.9912 6.30991 12.879 6.57056 12.7926 6.86215C12.7106 7.15373 12.6631 7.47182 12.6588 7.81642C12.6458 8.02405 12.6458 8.21843 12.6458 8.4128V8.41285C12.6458 8.44056 12.6482 8.46828 12.6504 8.49473C12.6525 8.51888 12.6544 8.54197 12.6544 8.56305C12.6544 8.80604 12.6717 9.03136 12.7019 9.24784C12.7322 9.46432 12.771 9.6322 12.8142 9.7559C12.8271 9.80008 12.8358 9.83542 12.8358 9.85309C12.8358 9.89286 12.8185 9.91053 12.7883 9.91053C12.7797 9.91053 12.7581 9.90611 12.7581 9.90611H12.076V9.90157H8.37169H7.97451H4.66312H4.27023H3.39383C3.38519 9.90157 3.35929 9.87948 3.3118 9.8353C3.26863 9.79554 3.23409 9.74252 3.20818 9.68067C3.18228 9.61882 3.16933 9.54814 3.16933 9.4642V2.80635L1.0927 2.81077V9.46861C1.0927 9.74253 1.1445 9.99877 1.25244 10.2373C1.36037 10.4803 1.50284 10.688 1.68417 10.8647C1.89572 11.0767 2.15044 11.2446 2.44402 11.3639C2.74191 11.4832 3.05708 11.545 3.39815 11.545H4.66312V11.5406H7.97451H8.37169H11.6787V11.5496H19.5319V11.5407H20.1968C20.4818 11.5407 20.7495 11.501 20.9999 11.4215C21.2503 11.3375 21.4057 11.2757 21.4661 11.2271C21.5352 11.2757 21.695 11.3419 21.941 11.4215C22.1871 11.501 22.4548 11.5407 22.7397 11.5407H23.383C23.668 11.5407 23.9356 11.501 24.1817 11.4215C24.4278 11.3375 24.5876 11.2757 24.6566 11.2271C24.7171 11.2757 24.8725 11.3419 25.1229 11.4215C25.3733 11.501 25.6367 11.5407 25.9259 11.5407H26.5347C26.8801 11.5407 27.1995 11.4789 27.4888 11.3596C27.7737 11.2403 28.0285 11.0724 28.2443 10.8604C28.43 10.6837 28.5768 10.476 28.6847 10.233ZM22.5455 3.3587C22.4893 3.48682 22.4634 3.61936 22.4634 3.76074C22.4634 3.90653 22.4893 4.03906 22.5455 4.15835C22.5973 4.28205 22.675 4.38366 22.7656 4.47644C22.8563 4.56922 22.9642 4.63991 23.0851 4.69292C23.206 4.74594 23.3312 4.77244 23.4694 4.77244C23.6075 4.77244 23.737 4.74594 23.8622 4.69292C23.9875 4.63991 24.0954 4.56922 24.1904 4.47644C24.2853 4.38366 24.3587 4.27763 24.4105 4.15835C24.4667 4.03906 24.4926 3.90211 24.4926 3.76074C24.4926 3.61936 24.4624 3.4824 24.4105 3.3587C24.3587 3.235 24.2853 3.12455 24.1904 3.03178C24.0954 2.939 23.9875 2.86831 23.8622 2.81529C23.737 2.76228 23.6032 2.73577 23.4694 2.73577C23.3355 2.73577 23.206 2.76228 23.0851 2.81529C22.9642 2.86831 22.8606 2.939 22.7656 3.03178C22.675 3.12455 22.6016 3.235 22.5455 3.3587ZM23.573 1.27343C23.5169 1.39713 23.4866 1.52967 23.4866 1.67546C23.4866 1.81684 23.5169 1.94938 23.573 2.06866C23.6291 2.18795 23.7068 2.29398 23.7975 2.38675C23.8925 2.47953 23.9961 2.55022 24.1213 2.60324C24.2465 2.65183 24.3803 2.67834 24.5271 2.67834C24.661 2.67834 24.7862 2.65183 24.907 2.60324C25.0279 2.55022 25.1315 2.47953 25.2222 2.38675C25.3129 2.29398 25.3863 2.18795 25.4381 2.06866C25.4899 1.94938 25.5158 1.81684 25.5158 1.67546C25.5158 1.53409 25.4899 1.39713 25.4381 1.27343C25.3819 1.14973 25.3129 1.03928 25.2222 0.946505C25.1359 0.853728 25.0279 0.783039 24.907 0.730023C24.7862 0.677008 24.661 0.650503 24.5271 0.650503C24.3803 0.650503 24.2465 0.677008 24.1213 0.730023C24.0004 0.778621 23.8925 0.853728 23.7975 0.946505C23.7068 1.03928 23.6291 1.14973 23.573 1.27343ZM24.7862 3.3587C24.73 3.48682 24.6998 3.61936 24.6998 3.76074C24.6998 3.90653 24.73 4.03906 24.7862 4.15835C24.8423 4.28205 24.92 4.38366 25.0107 4.47644C25.1013 4.56922 25.2093 4.63991 25.3345 4.69292C25.4597 4.74594 25.5935 4.77244 25.7403 4.77244C25.8741 4.77244 25.9993 4.74594 26.1202 4.69292C26.2454 4.63991 26.349 4.56922 26.4397 4.47644C26.5304 4.38366 26.6037 4.27763 26.6556 4.15835C26.7074 4.03906 26.7333 3.90211 26.7333 3.76074C26.7333 3.61936 26.7074 3.4824 26.6556 3.3587C26.5994 3.235 26.5304 3.12455 26.4397 3.03178C26.349 2.939 26.2411 2.86831 26.1202 2.81529C25.9993 2.76228 25.8741 2.73577 25.7403 2.73577C25.5935 2.73577 25.4597 2.76228 25.3345 2.81529C25.2136 2.86831 25.1056 2.939 25.0107 3.03178C24.92 3.12455 24.8423 3.235 24.7862 3.3587ZM14.5109 3.29245C14.5109 3.14665 14.5411 3.01411 14.5972 2.89041C14.6534 2.76671 14.7311 2.65626 14.8217 2.56348C14.9124 2.4707 15.0203 2.3956 15.1455 2.347C15.2707 2.29399 15.4046 2.26748 15.5471 2.26748C15.6809 2.26748 15.8061 2.29399 15.927 2.347C16.0479 2.40002 16.1558 2.4707 16.2465 2.56348C16.3371 2.65626 16.4062 2.76671 16.4623 2.89041C16.5141 3.01411 16.54 3.15107 16.54 3.29245C16.54 3.43382 16.5141 3.56636 16.4623 3.68564C16.4105 3.80493 16.3371 3.91096 16.2465 4.00374C16.1558 4.09651 16.0522 4.16719 15.927 4.22021C15.8061 4.27323 15.6809 4.29974 15.5471 4.29974C15.4003 4.29974 15.2664 4.27323 15.1455 4.22021C15.0203 4.16719 14.9124 4.09651 14.8217 4.00374C14.7268 3.91538 14.6534 3.80934 14.5972 3.68564C14.5411 3.56636 14.5109 3.43382 14.5109 3.29245ZM16.4969 7.84735C16.4969 7.63529 16.471 7.45415 16.4364 7.29952C16.3976 7.14047 16.3501 7.00794 16.2853 6.88865C16.2249 6.77379 16.1558 6.68101 16.0824 6.61032C16.009 6.53963 15.9313 6.47778 15.8449 6.43802C15.8277 6.42919 15.7975 6.42035 15.7543 6.41152C15.7111 6.40268 15.6636 6.39384 15.6205 6.38942H15.6032C15.5686 6.38942 15.5298 6.38942 15.4909 6.40268C15.4521 6.41151 15.4175 6.42477 15.383 6.43802C15.301 6.4822 15.2276 6.53963 15.1542 6.61032C15.0808 6.68101 15.016 6.77379 14.9513 6.88865C14.8908 7.00352 14.839 7.14047 14.8002 7.29952C14.7656 7.45415 14.744 7.63971 14.7397 7.84735C14.7354 8.00639 14.7354 8.15219 14.7354 8.28473C14.7354 8.351 14.7354 8.41726 14.7397 8.47911C14.7397 8.67792 14.7484 8.85023 14.7699 8.99602C14.7872 9.14623 14.8174 9.26551 14.852 9.36712C14.8865 9.46432 14.934 9.54826 14.9988 9.61011C15.0419 9.6587 15.0808 9.69846 15.1153 9.7338L15.1153 9.73381C15.1499 9.76474 15.1844 9.79124 15.2233 9.81333C15.2621 9.83542 15.3139 9.8531 15.3744 9.87077C15.4348 9.88402 15.5125 9.89286 15.6161 9.89286C15.7197 9.89286 15.8018 9.88844 15.8622 9.87077C15.9227 9.8531 15.9702 9.83542 16.009 9.81333C16.0392 9.79614 16.0669 9.7736 16.0959 9.74988L16.1213 9.72939C16.1558 9.69405 16.1947 9.65429 16.2378 9.60569C16.2983 9.54384 16.3501 9.46432 16.3846 9.36712C16.4192 9.26993 16.4451 9.14623 16.4666 8.99602C16.4839 8.84581 16.4969 8.67792 16.5012 8.48795V8.28473C16.5012 8.15219 16.5012 8.00639 16.4969 7.84735ZM44.5336 2.89041C44.4775 3.01411 44.4472 3.14665 44.4472 3.29245C44.4472 3.43382 44.4775 3.56636 44.5336 3.68564C44.5897 3.80934 44.6631 3.91538 44.7581 4.00374C44.8488 4.09651 44.9567 4.16719 45.0819 4.22021C45.2028 4.27323 45.3366 4.29974 45.4834 4.29974C45.6172 4.29974 45.7424 4.27323 45.8633 4.22021C45.9885 4.16719 46.0921 4.09651 46.1828 4.00374C46.2735 3.91096 46.3469 3.80493 46.3987 3.68564C46.4505 3.56636 46.4764 3.43382 46.4764 3.29245C46.4764 3.15107 46.4505 3.01411 46.3987 2.89041C46.3425 2.76671 46.2735 2.65626 46.1828 2.56348C46.0921 2.4707 45.9842 2.40002 45.8633 2.347C45.7424 2.29399 45.6172 2.26748 45.4834 2.26748C45.3409 2.26748 45.2071 2.29399 45.0819 2.347C44.9567 2.3956 44.8488 2.4707 44.7581 2.56348C44.6674 2.65626 44.5897 2.76671 44.5336 2.89041ZM46.3728 7.29952C46.4073 7.45415 46.4332 7.63529 46.4332 7.84735C46.4375 8.00639 46.4375 8.15219 46.4375 8.28473V8.48795C46.4375 8.67792 46.4246 8.84581 46.403 8.99602C46.3857 9.14623 46.3555 9.26993 46.321 9.36712C46.2864 9.46432 46.2346 9.54384 46.1742 9.60569C46.1311 9.65422 46.0923 9.69393 46.0578 9.72924L46.0576 9.72939L46.0323 9.74989C46.0032 9.77361 45.9756 9.79615 45.9454 9.81333C45.9065 9.83542 45.859 9.8531 45.7986 9.87077C45.7381 9.88844 45.6561 9.89286 45.5525 9.89286C45.4489 9.89286 45.3712 9.88402 45.3107 9.87077C45.2503 9.8531 45.1985 9.83542 45.1596 9.81333C45.1207 9.79124 45.0862 9.76474 45.0517 9.73381L45.0516 9.73371C45.0171 9.69839 44.9782 9.65866 44.9351 9.61011C44.8703 9.54826 44.8228 9.46432 44.7883 9.36712C44.7538 9.26551 44.7236 9.14623 44.7063 8.99602C44.6847 8.85023 44.6761 8.67792 44.6761 8.47911C44.6717 8.41726 44.6717 8.351 44.6717 8.28473C44.6717 8.15219 44.6717 8.00639 44.6761 7.84735C44.6761 7.63971 44.702 7.45415 44.7365 7.29952C44.771 7.14047 44.8228 7.00352 44.8833 6.88865C44.9481 6.77379 45.0128 6.68101 45.0862 6.61032C45.1596 6.53963 45.2373 6.4822 45.315 6.43802L45.3151 6.43801C45.3496 6.42476 45.3841 6.41151 45.423 6.40268C45.4618 6.38942 45.5007 6.38942 45.5352 6.38942H45.5568C45.6 6.39384 45.6475 6.40268 45.6906 6.41152C45.7338 6.42035 45.764 6.42919 45.7813 6.43802C45.8676 6.47778 45.9454 6.53963 46.0187 6.61032C46.0921 6.68101 46.1612 6.77379 46.2217 6.88865C46.2864 7.00794 46.3339 7.14047 46.3728 7.29952ZM60.4084 2.83741C60.3523 2.96111 60.3264 3.09365 60.3264 3.23944C60.3264 3.38081 60.3523 3.51336 60.4084 3.63264C60.4602 3.75193 60.5379 3.85795 60.6286 3.95073C60.7236 4.0435 60.8315 4.11419 60.9524 4.16721C61.0733 4.22022 61.1985 4.24674 61.3366 4.24674C61.4748 4.24674 61.6043 4.22022 61.7295 4.16721C61.8547 4.11419 61.9626 4.0435 62.0576 3.95073C62.1526 3.85795 62.226 3.75193 62.2778 3.63264C62.3296 3.51336 62.3555 3.38081 62.3555 3.23944C62.3555 3.09806 62.3296 2.96111 62.2778 2.83741C62.226 2.71371 62.1526 2.60767 62.0576 2.51048C61.9626 2.4177 61.8547 2.34701 61.7295 2.294C61.6043 2.24098 61.4705 2.21448 61.3366 2.21448C61.2028 2.21448 61.0733 2.24098 60.9524 2.294C60.8272 2.34701 60.7236 2.4177 60.6286 2.51048C60.5379 2.60767 60.4645 2.71371 60.4084 2.83741ZM62.6491 2.83741C62.593 2.96111 62.5628 3.09365 62.5628 3.23944C62.5628 3.38081 62.593 3.51336 62.6491 3.63264C62.7052 3.75193 62.7829 3.85795 62.8736 3.95073C62.9686 4.0435 63.0722 4.11419 63.1974 4.16721C63.3226 4.22022 63.4564 4.24674 63.6032 4.24674C63.7371 4.24674 63.8623 4.22022 63.9832 4.16721C64.104 4.11419 64.2077 4.0435 64.2983 3.95073C64.389 3.85795 64.4624 3.75193 64.5142 3.63264C64.566 3.51336 64.5919 3.38081 64.5919 3.23944C64.5919 3.09806 64.566 2.96111 64.5142 2.83741C64.4581 2.71371 64.389 2.60767 64.2983 2.51048C64.212 2.4177 64.104 2.34701 63.9832 2.294C63.8623 2.24098 63.7371 2.21448 63.6032 2.21448C63.4564 2.21448 63.3226 2.24098 63.1974 2.294C63.0765 2.34701 62.9686 2.4177 62.8736 2.51048C62.7829 2.60767 62.7052 2.71371 62.6491 2.83741ZM79.3398 10.4275L78.2432 10.1403H78.2389V7.72368C78.2389 7.36583 78.2994 7.08308 78.4116 6.87544C78.5282 6.66779 78.662 6.52642 78.8174 6.4469C78.8995 6.41155 78.9772 6.39388 79.0462 6.38946C79.0981 6.38946 79.1671 6.40713 79.2449 6.44247C79.3182 6.48223 79.3916 6.53967 79.465 6.61036C79.5384 6.68104 79.6075 6.77382 79.6679 6.88869C79.7284 7.00798 79.7802 7.14051 79.8191 7.29956C79.8579 7.45418 79.8752 7.63532 79.8881 7.84738V10.0696C79.8881 10.1624 79.8795 10.2419 79.8579 10.3038C79.8406 10.37 79.8147 10.4142 79.7888 10.4363C79.7586 10.4628 79.7111 10.4805 79.6507 10.4805C79.6377 10.4849 79.6248 10.4849 79.6161 10.4849C79.5427 10.4849 79.4478 10.4672 79.3398 10.4275Z" fill="#EEF7F4"/>
<path d="M0.466675 21.1719L1.69711 21.0482C1.77051 21.4723 1.92161 21.7816 2.14611 21.9804C2.37493 22.1792 2.67714 22.2764 3.06139 22.2764C3.46721 22.2764 3.77374 22.188 3.98098 22.0113C4.18821 21.839 4.29182 21.6314 4.29182 21.3928C4.29182 21.2426 4.24865 21.1145 4.1623 21.0085C4.07596 20.9024 3.92485 20.8097 3.70898 20.7301C3.55788 20.6815 3.22544 20.5843 2.69873 20.4518C2.02091 20.2795 1.54601 20.0674 1.27401 19.8156C0.889773 19.4622 0.69981 19.0336 0.69981 18.5256C0.69981 18.2031 0.790474 17.8938 0.971802 17.6111C1.15313 17.3283 1.41217 17.1118 1.75324 16.9616C2.09431 16.8114 2.50445 16.7407 2.98367 16.7407C3.76943 16.7407 4.3609 16.9174 4.75809 17.2709C5.15529 17.6243 5.36252 18.0926 5.38411 18.6846L4.11913 18.7376C4.06732 18.4107 3.95075 18.1721 3.77374 18.0263C3.59673 17.885 3.32906 17.8099 2.97072 17.8099C2.61238 17.8099 2.31881 17.8894 2.11157 18.0396C1.97774 18.1412 1.90866 18.2737 1.90866 18.4372C1.90866 18.5874 1.9691 18.72 2.09862 18.826C2.25836 18.963 2.64692 19.1043 3.25998 19.2545C3.87304 19.4003 4.32636 19.555 4.62426 19.714C4.91783 19.873 5.15097 20.0895 5.31503 20.3634C5.4834 20.6374 5.56543 20.9775 5.56543 21.384C5.56543 21.7551 5.46613 22.0953 5.26754 22.4134C5.06894 22.7315 4.78831 22.9744 4.42134 23.1291C4.05869 23.2837 3.60105 23.3632 3.06139 23.3632C2.27132 23.3632 1.66257 23.1777 1.23948 22.8021C0.816378 22.431 0.561656 21.8832 0.479627 21.1675" fill="#EEF7F4"/>
<path d="M7.49529 23.2527V16.8555H8.76026V19.3737H11.2341V16.8555H12.4947V23.2527H11.2341V20.4561H8.76026V23.2527" fill="#EEF7F4"/>
<path d="M15.9054 16.8555H14.6404V23.2571H15.9054V16.8555Z" fill="#EEF7F4"/>
<path d="M17.9864 23.2527V16.8555H22.2778V17.9379H19.2514V19.4532H21.8633V20.5356H19.2514V23.2527" fill="#EEF7F4"/>
<path d="M29.3496 23.2527H27.9767L27.4284 21.7992H24.9286L24.4149 23.2527H23.0765L25.5115 16.8511H26.8498M27.0269 20.7212L26.1634 18.3443L25.3172 20.7212H27.0225H27.0269Z" fill="#EEF7F4"/>
<path d="M33.8784 23.2527V16.8555H35.1391V19.3737H37.6172V16.8555H38.8779V23.2527H37.6172V20.4561H35.1391V23.2527" fill="#EEF7F4"/>
<path d="M40.8034 20.0939C40.8034 19.4445 40.8984 18.8967 41.0884 18.4505C41.2308 18.128 41.4251 17.832 41.6712 17.5713C41.9173 17.3106 42.185 17.1207 42.4785 16.9925C42.8714 16.8247 43.3161 16.7407 43.8255 16.7407C44.7495 16.7407 45.4834 17.0323 46.0403 17.6199C46.5929 18.2031 46.8693 19.0204 46.8693 20.0586C46.8693 21.0968 46.593 21.9009 46.0447 22.4841C45.4964 23.0672 44.7624 23.3588 43.8428 23.3588C42.9232 23.3588 42.172 23.0672 41.6237 22.4885C41.0754 21.9097 40.7991 21.1101 40.7991 20.0895M42.1029 20.0498C42.1029 20.7743 42.267 21.3266 42.5951 21.6977C42.9232 22.0732 43.3377 22.2587 43.8428 22.2587C44.3479 22.2587 44.7581 22.0732 45.0819 21.7021C45.4057 21.331 45.5654 20.7743 45.5654 20.0321C45.5654 19.2899 45.41 18.7553 45.0948 18.3886C44.7797 18.0263 44.3609 17.8496 43.8428 17.8496C43.3247 17.8496 42.9016 18.0308 42.5822 18.3975C42.2627 18.7641 42.1029 19.3164 42.1029 20.0498Z" fill="#EEF7F4"/>
<path d="M48.4106 21.1719L49.641 21.0482C49.7144 21.4723 49.8655 21.7816 50.09 21.9804C50.3145 22.1792 50.621 22.2764 51.0053 22.2764C51.4111 22.2764 51.7176 22.188 51.9249 22.0113C52.1321 21.839 52.2357 21.6314 52.2357 21.3928C52.2357 21.2426 52.1925 21.1145 52.1062 21.0085C52.0198 20.9024 51.8687 20.8097 51.6529 20.7301C51.5018 20.6815 51.165 20.5843 50.6426 20.4518C49.9648 20.2795 49.4899 20.0674 49.2179 19.8156C48.8336 19.4622 48.6437 19.0336 48.6437 18.5256C48.6437 18.2031 48.7344 17.8938 48.9157 17.6111C49.097 17.3283 49.356 17.1118 49.6971 16.9616C50.0382 16.8114 50.4483 16.7407 50.9275 16.7407C51.7133 16.7407 52.3048 16.9174 52.702 17.2709C53.0992 17.6243 53.3064 18.0926 53.328 18.6846L52.063 18.7376C52.0069 18.4107 51.8946 18.1721 51.7133 18.0263C51.5363 17.885 51.2686 17.8099 50.9146 17.8099C50.5606 17.8099 50.2627 17.8894 50.0555 18.0396C49.9216 18.1412 49.8525 18.2737 49.8525 18.4372C49.8525 18.5874 49.913 18.72 50.0382 18.826C50.1979 18.963 50.5865 19.1043 51.1995 19.2545C51.8126 19.4003 52.2702 19.555 52.5638 19.714C52.8574 19.873 53.0905 20.0895 53.2546 20.3634C53.423 20.6374 53.505 20.9775 53.505 21.384C53.505 21.7551 53.4057 22.0953 53.2071 22.4134C53.0085 22.7315 52.7279 22.9744 52.3609 23.1291C51.9939 23.2837 51.5406 23.3632 50.9966 23.3632C50.2066 23.3632 49.5978 23.1777 49.1747 22.8021C48.7516 22.431 48.4969 21.8832 48.4149 21.1675" fill="#EEF7F4"/>
<path d="M55.4348 23.2571V16.8555H57.4596C58.2281 16.8555 58.7289 16.8864 58.9621 16.9527C59.3204 17.0499 59.6183 17.2575 59.8644 17.58C60.1062 17.9025 60.2271 18.3178 60.2271 18.8303C60.2271 19.2191 60.158 19.5504 60.0155 19.8199C59.8774 20.085 59.7003 20.297 59.4845 20.4517C59.2686 20.6019 59.0527 20.7035 58.8282 20.7521C58.526 20.814 58.09 20.8449 57.5158 20.8449H56.6912V23.2615M56.6955 17.9379V19.7536H57.3863C57.8871 19.7536 58.2195 19.7183 58.3879 19.652C58.5563 19.5858 58.6858 19.4841 58.7808 19.3384C58.8757 19.197 58.9232 19.0291 58.9232 18.8435C58.9232 18.6094 58.8585 18.4194 58.7246 18.2648C58.5908 18.1102 58.4224 18.0174 58.2152 17.982C58.0641 17.9511 57.7619 17.9379 57.3042 17.9379H56.6955Z" fill="#EEF7F4"/>
<path d="M63.3658 16.8555H62.1008V23.2571H63.3658V16.8555Z" fill="#EEF7F4"/>
<path d="M66.8455 23.2527V17.9379H64.9934V16.8555H69.9626V17.9379H68.1105V23.2527" fill="#EEF7F4"/>
<path d="M76.6459 23.2527H75.2729L74.729 21.7992H72.2249L71.7068 23.2527H70.3685L72.8034 16.8511H74.1418M74.3188 20.7212L73.4554 18.3443L72.6092 20.7212H74.3188Z" fill="#EEF7F4"/>
<path d="M78.226 23.2529V16.9043H79.4866V22.1749H82.6297V23.2529" fill="#EEF7F4"/>
</svg>
