<svg width="34" height="34" viewBox="0 0 34 34" fill="none" xmlns="http://www.w3.org/2000/svg">
<path d="M23.375 6.375C26.0312 6.375 32.9375 13.2812 32.9375 23.375C32.9375 29.2188 32.4062 31.3438 29.75 31.3438C27.0938 31.3438 27.5719 29.7394 24.9688 29.2188C22.3125 28.6875 20.1875 28.1562 20.1875 24.9688C20.1875 21.7812 20.7188 19.125 20.7188 15.4062C20.7188 11.6875 20.1875 6.375 23.375 6.375Z" stroke="#4270B7" stroke-width="1.2" stroke-linecap="round" stroke-linejoin="round"/>
<path d="M10.625 6.375C7.96875 6.375 1.0625 13.2812 1.0625 23.375C1.0625 29.2188 1.59375 31.3438 4.25 31.3438C6.90625 31.3438 6.42812 29.7394 9.03125 29.2188C11.6875 28.6875 13.8125 28.1562 13.8125 24.9688C13.8125 21.7812 13.2812 19.125 13.2812 15.4062C13.2812 11.6875 13.8125 6.375 10.625 6.375Z" stroke="#4270B7" stroke-width="1.2" stroke-linecap="round" stroke-linejoin="round"/>
<path d="M18.5938 2.65625V10.625C18.5938 13.2812 23.9062 13.8125 25.5 18.0625" stroke="#4270B7" stroke-width="1.2" stroke-linecap="round" stroke-linejoin="round"/>
<path d="M15.4062 2.65625V10.625C15.4062 13.2812 10.0938 13.8125 8.5 18.0625" stroke="#4270B7" stroke-width="1.2" stroke-linecap="round" stroke-linejoin="round"/>
<path d="M9.5625 24.9688C9.94611 23.5856 10.1251 22.1538 10.0938 20.7188C10.0937 18.0625 15.4062 13.8125 17 13.8125C18.5938 13.8125 23.9062 18.0625 23.9062 20.7188C23.8749 22.1538 24.0539 23.5856 24.4375 24.9688" stroke="#4270B7" stroke-width="1.2" stroke-linecap="round" stroke-linejoin="round"/>
<path d="M23.9062 20.7188C24.9688 21.25 28.6875 20.7188 29.75 22.8438" stroke="#4270B7" stroke-width="1.2" stroke-linecap="round" stroke-linejoin="round"/>
<path d="M10.0938 20.7188C9.03125 21.25 5.3125 20.7188 4.25 22.8438" stroke="#4270B7" stroke-width="1.2" stroke-linecap="round" stroke-linejoin="round"/>
<path d="M26.3235 21.1119C27.1416 22.5091 27.3222 24.6659 28.1563 25.5" stroke="#4270B7" stroke-width="1.2" stroke-linecap="round" stroke-linejoin="round"/>
<path d="M7.67656 21.1119C6.85844 22.5091 6.67781 24.6659 5.84375 25.5" stroke="#4270B7" stroke-width="1.2" stroke-linecap="round" stroke-linejoin="round"/>
<path d="M22.2913 14.3119C23.6755 14.2155 24.9896 13.6667 26.0313 12.75" stroke="#4270B7" stroke-width="1.2" stroke-linecap="round" stroke-linejoin="round"/>
<path d="M11.7088 14.3119C10.3245 14.2155 9.01037 13.6667 7.96875 12.75" stroke="#4270B7" stroke-width="1.2" stroke-linecap="round" stroke-linejoin="round"/>
<path d="M24.156 15.9003C25.3513 15.7994 26.307 15.5869 27.6251 16.4687" stroke="#4270B7" stroke-width="1.2" stroke-linecap="round" stroke-linejoin="round"/>
<path d="M9.84406 15.9003C8.64875 15.7994 7.6925 15.5869 6.375 16.4687" stroke="#4270B7" stroke-width="1.2" stroke-linecap="round" stroke-linejoin="round"/>
</svg>
