<svg width="34" height="34" viewBox="0 0 34 34" fill="none" xmlns="http://www.w3.org/2000/svg">
<g clip-path="url(#clip0_561_22449)">
<path d="M33.6151 20.4393C31.91 11.2755 26.0488 3.74184 18.3186 0.778374C15.4637 -0.304449 12.3031 -0.255922 9.48291 0.914034C8.21565 1.4273 7.12591 2.29953 6.34754 3.42359C4.4343 6.20317 4.60422 10.3565 6.7608 13.5241C8.40812 15.9434 10.806 17.7095 12.8009 18.9997C12.3956 20.1209 11.7518 21.1408 10.9139 21.9889C10.076 22.8371 9.06409 23.4933 7.94791 23.9122C6.05378 24.5561 3.99766 24.5413 2.113 23.8702C1.87649 23.7849 1.62281 23.7584 1.3738 23.793C1.12479 23.8276 0.887915 23.9222 0.683579 24.0686C0.472562 24.2175 0.30035 24.4149 0.181403 24.6441C0.0624569 24.8733 0.00024838 25.1278 1.41582e-06 25.386V26.4111C-0.000459818 26.7581 0.111784 27.0958 0.319841 27.3735C0.527897 27.6512 0.820512 27.8538 1.15365 27.9508C3.80791 28.684 6.62068 28.6077 9.23127 27.7317C11.8028 26.8066 14.0169 25.0938 15.5583 22.8371C15.7897 23.6167 15.9749 24.4093 16.113 25.2107C16.3983 26.6879 16.6933 28.2154 17.5681 29.6506C18.3922 30.9787 19.5412 32.075 20.9065 32.8359C22.2718 33.5969 23.8084 33.9975 25.3715 34C27.2978 34.0118 29.1713 33.3705 30.6863 32.1807C33.6416 29.8265 34.6269 25.876 33.6151 20.4393ZM16.1527 21.4265C16.1117 21.3373 16.0469 21.2612 15.9653 21.2067C15.8838 21.1521 15.7887 21.1212 15.6906 21.1173C15.6836 21.1171 15.6766 21.1168 15.6696 21.1168C15.5751 21.1168 15.4823 21.142 15.4007 21.1899C15.3192 21.2377 15.2519 21.3064 15.2058 21.3889C13.8046 23.8704 11.5586 25.7659 8.8769 26.7299C6.47427 27.535 3.88594 27.6043 1.44368 26.9289C1.33265 26.8955 1.23547 26.827 1.16674 26.7336C1.09801 26.6402 1.06146 26.5271 1.06259 26.4111V25.386C1.06214 25.2979 1.08313 25.211 1.12376 25.1327C1.16439 25.0545 1.22344 24.9873 1.29581 24.937C1.36141 24.8894 1.43763 24.8585 1.51786 24.847C1.5981 24.8355 1.67993 24.8437 1.75628 24.8709C3.87451 25.6224 6.18451 25.6363 8.31162 24.9103C9.64562 24.4102 10.847 23.6106 11.8232 22.573C12.7995 21.5354 13.5245 20.2875 13.9424 18.9255C13.9753 18.8148 13.9712 18.6963 13.9308 18.588C13.8903 18.4798 13.8156 18.3877 13.718 18.3258C11.7662 17.0855 9.3245 15.3608 7.68953 12.9967C7.69872 12.9579 7.7035 12.9183 7.7038 12.8785C7.7038 10.5876 9.78903 8.50108 12.0787 8.50108C12.9128 8.49935 13.7284 8.74674 14.421 9.21153C14.5031 9.26682 14.599 9.29802 14.6979 9.3016C14.7968 9.30517 14.8947 9.28098 14.9806 9.23177C15.615 8.86924 16.3328 8.6782 17.0635 8.67746C17.6567 8.66703 18.2451 8.78521 18.7883 9.02388C19.3314 9.26254 19.8164 9.61603 20.21 10.06C20.6035 10.504 20.8962 11.028 21.0679 11.5959C21.2396 12.1638 21.2862 12.7621 21.2046 13.3498C21.1881 13.4778 21.2188 13.6075 21.2909 13.7146C21.363 13.8217 21.4717 13.8988 21.5966 13.9316C22.3932 14.133 23.1112 14.568 23.6585 15.1808C24.2058 15.7936 24.5573 16.556 24.6679 17.3701C24.7784 18.1843 24.6429 19.0128 24.2787 19.7493C23.9146 20.4858 23.3385 21.0966 22.6245 21.503C22.5075 21.5705 22.4206 21.6801 22.3815 21.8094C22.3425 21.9387 22.3541 22.078 22.4141 22.199C22.6964 22.7633 22.8434 23.3857 22.8434 24.0167C22.8368 25.1196 22.393 26.1748 21.6093 26.9508C20.8257 27.7269 19.7662 28.1604 18.6633 28.1563C18.4313 28.1557 18.1997 28.1361 17.9709 28.0977C17.5954 27.0985 17.3224 26.0636 17.1564 25.0092C16.9276 23.8251 16.691 22.6005 16.1527 21.4265ZM30.0242 31.3496C29.1887 31.9991 28.2263 32.4663 27.1992 32.7211C26.172 32.9759 25.1029 33.0127 24.0606 32.8291C22.9372 32.6553 21.864 32.2426 20.9136 31.619C19.9631 30.9953 19.1574 30.1752 18.5507 29.2138C18.5883 29.2146 18.6258 29.2187 18.6633 29.2187C20.0479 29.2225 21.3774 28.6769 22.3603 27.7017C23.3431 26.7265 23.899 25.4013 23.906 24.0167C23.9067 23.3833 23.7891 22.7553 23.5592 22.165C24.3397 21.6189 24.9544 20.8679 25.3355 19.9948C25.7167 19.1218 25.8495 18.1605 25.7193 17.2168C25.5892 16.2731 25.2011 15.3836 24.5979 14.6463C23.9947 13.909 23.1997 13.3524 22.3004 13.038C22.3043 12.9622 22.3061 12.8888 22.3061 12.8167C22.299 11.9285 22.0663 11.0567 21.63 10.2831C21.1937 9.5094 20.568 8.85924 19.8116 8.39356C19.0553 7.92788 18.1931 7.66193 17.3058 7.62067C16.4186 7.5794 15.5354 7.76417 14.7391 8.15764C13.9322 7.68522 13.0137 7.43699 12.0787 7.43862C9.6597 7.43862 7.49482 9.21322 6.84463 11.4855C5.72175 8.94708 5.8256 6.0558 7.22283 4.02588C7.88655 3.0704 8.81477 2.32946 9.89358 1.89399C12.4614 0.828901 15.3389 0.784644 17.9383 1.77026C25.3256 4.6025 30.9324 11.8305 32.5707 20.6338C33.5049 25.654 32.648 29.2594 30.0242 31.3496Z" fill="#4270B7"/>
<path d="M17.5327 14.6101C17.9529 14.6101 18.3637 14.4854 18.7131 14.2519C19.0625 14.0184 19.3348 13.6865 19.4956 13.2982C19.6564 12.9099 19.6984 12.4827 19.6164 12.0705C19.5344 11.6583 19.332 11.2798 19.0348 10.9826C18.7376 10.6855 18.359 10.4831 17.9468 10.4012C17.5346 10.3192 17.1074 10.3613 16.7191 10.5221C16.3309 10.683 15.999 10.9553 15.7656 11.3047C15.5321 11.6542 15.4075 12.065 15.4075 12.4852C15.4082 13.0486 15.6323 13.5888 16.0307 13.9871C16.4291 14.3855 16.9693 14.6095 17.5327 14.6101ZM17.5327 11.4228C17.7428 11.4228 17.9482 11.4852 18.1229 11.6019C18.2976 11.7187 18.4337 11.8846 18.5141 12.0788C18.5945 12.2729 18.6155 12.4865 18.5745 12.6926C18.5335 12.8987 18.4323 13.088 18.2837 13.2366C18.1351 13.3851 17.9458 13.4863 17.7397 13.5273C17.5336 13.5683 17.32 13.5472 17.1259 13.4668C16.9318 13.3864 16.7658 13.2502 16.6491 13.0755C16.5324 12.9008 16.4701 12.6954 16.4701 12.4852C16.4704 12.2035 16.5824 11.9334 16.7816 11.7343C16.9808 11.5351 17.2509 11.4231 17.5327 11.4228Z" fill="#4270B7"/>
<path d="M21.2519 19.9224C21.6721 19.9223 22.0829 19.7977 22.4323 19.5641C22.7817 19.3306 23.054 18.9987 23.2148 18.6105C23.3756 18.2222 23.4176 17.7949 23.3356 17.3828C23.2536 16.9706 23.0512 16.592 22.754 16.2949C22.4568 15.9977 22.0782 15.7954 21.666 15.7134C21.2539 15.6315 20.8266 15.6735 20.4384 15.8344C20.0501 15.9952 19.7183 16.2676 19.4848 16.617C19.2513 16.9664 19.1267 17.3772 19.1267 17.7975C19.1274 18.3609 19.3515 18.901 19.7499 19.2994C20.1483 19.6977 20.6885 19.9218 21.2519 19.9224ZM21.2519 16.7351C21.462 16.7351 21.6674 16.7974 21.8421 16.9142C22.0168 17.0309 22.153 17.1969 22.2334 17.391C22.3138 17.5852 22.3348 17.7988 22.2938 18.0049C22.2527 18.2109 22.1515 18.4002 22.003 18.5488C21.8544 18.6974 21.6651 18.7986 21.459 18.8395C21.2529 18.8805 21.0393 18.8595 20.8451 18.7791C20.651 18.6986 20.4851 18.5625 20.3683 18.3877C20.2516 18.213 20.1893 18.0076 20.1893 17.7975C20.1896 17.5158 20.3016 17.2457 20.5009 17.0465C20.7001 16.8473 20.9702 16.7353 21.2519 16.7351Z" fill="#4270B7"/>
<path d="M15.9389 15.407C15.6237 15.407 15.3156 15.5005 15.0536 15.6757C14.7915 15.8508 14.5873 16.0997 14.4667 16.3909C14.3461 16.6821 14.3146 17.0026 14.3761 17.3117C14.4376 17.6208 14.5894 17.9048 14.8123 18.1276C15.0352 18.3505 15.3192 18.5022 15.6283 18.5637C15.9374 18.6252 16.2579 18.5936 16.549 18.473C16.8402 18.3524 17.0891 18.1481 17.2642 17.886C17.4393 17.6239 17.5328 17.3158 17.5328 17.0006C17.5323 16.5781 17.3642 16.173 17.0654 15.8742C16.7666 15.5755 16.3615 15.4074 15.9389 15.407ZM15.9389 17.5319C15.8338 17.5319 15.7311 17.5007 15.6438 17.4423C15.5564 17.3839 15.4884 17.301 15.4482 17.2039C15.408 17.1068 15.3975 17 15.418 16.897C15.4385 16.7939 15.4891 16.6993 15.5634 16.625C15.6377 16.5507 15.7323 16.5001 15.8354 16.4796C15.9384 16.4591 16.0452 16.4697 16.1423 16.5099C16.2393 16.5501 16.3223 16.6182 16.3807 16.7055C16.439 16.7929 16.4702 16.8956 16.4702 17.0006C16.4702 17.1415 16.4142 17.2767 16.3146 17.3763C16.2149 17.4759 16.0798 17.5319 15.9389 17.5319Z" fill="#4270B7"/>
<path d="M19.9237 22.5785C19.556 22.5785 19.1965 22.6876 18.8908 22.892C18.5851 23.0963 18.3468 23.3867 18.2062 23.7264C18.0655 24.0662 18.0287 24.44 18.1005 24.8007C18.1722 25.1613 18.3493 25.4926 18.6094 25.7526C18.8694 26.0126 19.2007 26.1896 19.5613 26.2613C19.922 26.3331 20.2958 26.2962 20.6355 26.1555C20.9753 26.0148 21.2656 25.7765 21.4699 25.4707C21.6742 25.1649 21.7833 24.8055 21.7833 24.4378C21.7826 23.9448 21.5865 23.4722 21.2379 23.1237C20.8893 22.7751 20.4167 22.5791 19.9237 22.5785ZM19.9237 25.2346C19.7661 25.2346 19.6121 25.1878 19.481 25.1003C19.35 25.0127 19.2479 24.8882 19.1876 24.7426C19.1273 24.597 19.1116 24.4368 19.1423 24.2822C19.1731 24.1277 19.249 23.9857 19.3604 23.8743C19.4719 23.7629 19.6138 23.687 19.7684 23.6562C19.923 23.6255 20.0832 23.6413 20.2288 23.7016C20.3744 23.7619 20.4988 23.864 20.5864 23.9951C20.6739 24.1261 20.7207 24.2802 20.7207 24.4378C20.7204 24.649 20.6364 24.8516 20.487 25.001C20.3376 25.1504 20.135 25.2344 19.9237 25.2346Z" fill="#4270B7"/>
<path d="M11.6886 9.82916C11.2683 9.82922 10.8575 9.95389 10.5081 10.1874C10.1587 10.4209 9.88641 10.7528 9.72563 11.1411C9.56485 11.5294 9.52281 11.9566 9.60483 12.3688C9.68685 12.7809 9.88925 13.1595 10.1864 13.4567C10.4836 13.7538 10.8622 13.9562 11.2744 14.0381C11.6866 14.1201 12.1138 14.078 12.5021 13.9172C12.8903 13.7563 13.2222 13.484 13.4557 13.1345C13.6891 12.7851 13.8137 12.3743 13.8137 11.9541C13.8131 11.3907 13.5889 10.8505 13.1905 10.4522C12.7921 10.0538 12.252 9.82977 11.6886 9.82916ZM11.6886 13.0165C11.4784 13.0165 11.273 12.9541 11.0983 12.8374C10.9236 12.7206 10.7875 12.5547 10.7071 12.3605C10.6267 12.1664 10.6057 11.9528 10.6467 11.7467C10.6877 11.5406 10.7889 11.3513 10.9375 11.2027C11.0861 11.0542 11.2754 10.953 11.4815 10.912C11.6876 10.871 11.9012 10.8921 12.0953 10.9725C12.2894 11.0529 12.4554 11.1891 12.5721 11.3638C12.6888 11.5385 12.7511 11.7439 12.7511 11.9541C12.7509 12.2358 12.6388 12.5059 12.4396 12.705C12.2404 12.9042 11.9703 13.0162 11.6886 13.0165Z" fill="#4270B7"/>
</g>
<defs>
<clipPath id="clip0_561_22449">
<rect width="34" height="34" fill="white"/>
</clipPath>
</defs>
</svg>
