<svg width="36" height="36" viewBox="0 0 36 36" fill="none" xmlns="http://www.w3.org/2000/svg">
<path d="M16.6126 17.1994L14.6434 16.285L7.24607 12.8492L7.19279 12.8247L4.52303 18.5717C4.43735 18.7568 4.36247 18.9447 4.30055 19.1348C4.30055 19.1355 4.29983 19.1369 4.30055 19.1384C3.48479 21.6137 4.64111 24.3843 7.06031 25.5075C9.66599 26.7178 12.7865 25.5766 13.9961 22.971L16.6658 17.2239L16.6126 17.1994Z" fill="#FF4B72"/>
<path d="M19.4976 7.48597C19.0577 6.28285 18.1814 5.24029 16.9661 4.62325C16.9106 4.59517 16.8545 4.56781 16.7983 4.54117C14.1926 3.33085 11.0722 4.47205 9.86255 7.07773L7.19279 12.8248L7.24607 12.8492L14.6434 16.2851L16.6126 17.1995L16.6658 17.224L19.3356 11.4769C19.9404 10.1744 19.9577 8.74381 19.4976 7.48597Z" fill="white"/>
<path d="M19.3349 11.4767L16.6651 17.2238L16.6118 17.1993L14.6426 16.2849C15.5628 14.3042 16.5175 12.2493 17.0899 11.0166C18.913 7.09121 17.4528 5.12849 16.9661 4.62305C18.1814 5.24081 19.0577 6.28265 19.4976 7.48577C19.9577 8.74361 19.9397 10.1742 19.3349 11.4767Z" fill="#DAD5D5"/>
<path d="M14.7802 4.88439C14.8565 5.19903 14.305 5.60295 13.5497 5.78655C12.7944 5.97015 12.1198 5.86215 12.0434 5.54751C11.9671 5.23287 12.5179 4.82967 13.2732 4.64607C14.0285 4.46247 14.7038 4.56903 14.7802 4.88367V4.88439Z" fill="white"/>
<path d="M16.6658 17.2245L13.9961 22.9716C12.7858 25.5772 9.66527 26.7184 7.06031 25.5081C4.64111 24.3842 3.48479 21.6144 4.30055 19.139C4.10471 20.584 5.27687 22.4157 6.86087 23.1516C9.62783 24.4368 11.5783 22.8844 12.1219 21.7137C12.1795 21.5906 13.379 19.0072 14.6434 16.2856L16.6126 17.2L16.6658 17.2245Z" fill="#BF5768"/>
<path d="M7.44625 13.3948L10.2132 14.68C9.17713 14.2638 8.39017 14.2861 7.81633 14.4078C7.24249 14.5295 5.36977 17.8645 5.36977 17.8645L7.44625 13.394V13.3948Z" fill="white"/>
<path d="M23.0098 28.9067L22.1378 26.9188L18.8626 19.4495L18.8388 19.3955L13.0356 21.9407C12.8484 22.0228 12.6684 22.1142 12.4963 22.2157C12.4956 22.2157 12.4942 22.2165 12.4934 22.2179C10.2442 23.5348 9.27936 26.3773 10.35 28.8203C11.5034 31.4512 14.5987 32.6594 17.2296 31.5052L23.0328 28.96L23.009 28.906L23.0098 28.9067Z" fill="#0ABF7C"/>
<path d="M31.5936 19.7078C31.5706 19.6502 31.5468 19.5926 31.5216 19.5357C30.3682 16.9048 27.2729 15.6966 24.642 16.8508L18.8388 19.396L18.8626 19.45L22.1378 26.9193L23.0098 28.9072L23.0335 28.9612L28.8367 26.416C30.1522 25.8393 31.1119 24.778 31.5986 23.5302C32.0645 22.3365 32.0969 20.9757 31.5936 19.7085V19.7078Z" fill="white"/>
<path d="M28.8367 26.4155L23.0335 28.9607L23.0098 28.9067L22.1378 26.9188C24.138 26.0418 26.213 25.1318 27.4579 24.586C31.4215 22.8479 31.6246 20.41 31.5936 19.708C32.0969 20.9752 32.0645 22.336 31.5986 23.5298C31.1119 24.7775 30.1522 25.8388 28.8367 26.4155Z" fill="#DAD5D5"/>
<path d="M23.0335 28.9603L17.2303 31.5055C14.5994 32.659 11.5042 31.4515 10.3507 28.8207C9.27935 26.3777 10.2449 23.5351 12.4942 22.2183C11.3911 23.1723 11.0592 25.3222 11.7605 26.9213C12.9859 29.7156 15.4757 29.8409 16.6579 29.3225C16.7825 29.2678 19.391 28.1237 22.1393 26.9191L23.0112 28.9071L23.035 28.9611L23.0335 28.9603Z" fill="#008D5C"/>
<path d="M18.6516 19.9902L19.877 22.7846C19.3759 21.7874 18.7704 21.2834 18.2592 20.9954C17.748 20.7066 14.1379 21.9702 14.1379 21.9702L18.6516 19.991V19.9902Z" fill="white"/>
<path d="M6.96168 25.721C7.68168 26.0551 8.45856 26.2258 9.24408 26.2258C9.39672 26.2258 9.55008 26.2186 9.70272 26.2056C9.6156 27.102 9.7488 28.0322 10.1354 28.9142C10.7186 30.2441 11.7893 31.2694 13.1508 31.8007C13.7981 32.0534 14.4727 32.1794 15.1459 32.1794C15.8875 32.1794 16.627 32.0261 17.3246 31.7201L28.9318 26.6297C30.2616 26.0465 31.2862 24.9751 31.8182 23.6143C32.3496 22.2528 32.3208 20.771 31.7376 19.4412C31.1544 18.1114 30.0838 17.0861 28.7222 16.5547C27.3607 16.0234 25.879 16.0522 24.5491 16.6354L15.3187 20.6832L19.5487 11.5759C20.1607 10.259 20.2212 8.778 19.7194 7.40496C19.2175 6.03264 18.216 4.93968 16.8984 4.32768C14.1696 3.06048 10.9181 4.2492 9.65088 6.978L4.31064 18.4728C3.69864 19.7897 3.63816 21.2707 4.14072 22.6438C4.64256 24.0161 5.64408 25.109 6.96168 25.721ZM24.737 17.0652C25.3742 16.7858 26.0496 16.6462 26.7271 16.6462C27.342 16.6462 27.959 16.7614 28.5509 16.9925C29.7958 17.4785 30.7742 18.4152 31.307 19.6298C31.8398 20.8452 31.8658 22.1995 31.3798 23.4444C30.8938 24.6893 29.957 25.6678 28.7424 26.2006L23.1538 28.6514L19.1477 19.5161L24.7363 17.0652H24.737ZM18.7186 19.7047L22.7246 28.8401L17.136 31.291C15.9206 31.8238 14.5663 31.8497 13.3214 31.3637C12.0766 30.8777 11.0981 29.941 10.5653 28.7263C10.0325 27.511 10.0066 26.1566 10.4926 24.9118C10.9786 23.6669 11.9153 22.6884 13.1299 22.1556L18.7186 19.7047ZM10.0757 7.176C11.2342 4.68192 14.2056 3.59472 16.6997 4.75392C17.9028 5.31264 18.8186 6.312 19.2773 7.56624C19.7359 8.8212 19.6812 10.1748 19.1225 11.3779L16.5521 16.9126L7.50528 12.7106L10.0757 7.176ZM4.73688 18.6708L7.30728 13.1362L16.3541 17.3381L14.6686 20.9676L12.9413 21.725C11.2262 22.4767 10.0915 24.0103 9.7704 25.7254C8.87616 25.8204 7.97688 25.675 7.15968 25.2955C4.6656 24.137 3.57912 21.1656 4.7376 18.6715L4.73688 18.6708Z" fill="#564B57"/>
</svg>
