<svg width="36" height="36" viewBox="0 0 36 36" fill="none" xmlns="http://www.w3.org/2000/svg">
<path d="M16.6125 17.1989L14.6433 16.2845L7.24603 12.8487L7.19275 12.8242L4.52299 18.5713C4.43731 18.7563 4.36243 18.9442 4.30051 19.1343C4.30051 19.135 4.29979 19.1365 4.30051 19.1379C3.48475 21.6133 4.64107 24.3838 7.06027 25.507C9.66595 26.7173 12.7864 25.5761 13.996 22.9705L16.6658 17.2234L16.6125 17.1989Z" fill="#FF4B72"/>
<path d="M19.4977 7.48597C19.0578 6.28285 18.1815 5.24029 16.9662 4.62325C16.9107 4.59517 16.8546 4.56781 16.7984 4.54117C14.1927 3.33085 11.0722 4.47205 9.86263 7.07773L7.19287 12.8248L7.24615 12.8492L14.6434 16.2851L16.6126 17.1995L16.6659 17.224L19.3357 11.4769C19.9405 10.1744 19.9578 8.74381 19.4977 7.48597Z" fill="white"/>
<path d="M19.3348 11.4767L16.6651 17.2238L16.6118 17.1993L14.6426 16.2849C15.5627 14.3042 16.5175 12.2493 17.0899 11.0166C18.9129 7.09121 17.4527 5.12849 16.966 4.62305C18.1814 5.24081 19.0576 6.28265 19.4975 7.48577C19.9576 8.74361 19.9396 10.1742 19.3348 11.4767Z" fill="#DAD5D5"/>
<path d="M14.7802 4.88488C14.8565 5.19952 14.305 5.60344 13.5497 5.78704C12.7944 5.97064 12.1198 5.86264 12.0434 5.548C11.9671 5.23336 12.5179 4.83016 13.2732 4.64656C14.0285 4.46296 14.7038 4.56952 14.7802 4.88416V4.88488Z" fill="white"/>
<path d="M16.6658 17.225L13.996 22.9721C12.7857 25.5777 9.66523 26.7189 7.06027 25.5086C4.64107 24.3847 3.48475 21.6149 4.30051 19.1395C4.10467 20.5845 5.27683 22.4162 6.86083 23.1521C9.62779 24.4373 11.5783 22.8849 12.1219 21.7142C12.1795 21.5911 13.379 19.0077 14.6433 16.2861L16.6125 17.2005L16.6658 17.225Z" fill="#BF5768"/>
<path d="M7.44635 13.3953L10.2133 14.6805C9.17723 14.2643 8.39027 14.2866 7.81643 14.4083C7.24259 14.53 5.36987 17.865 5.36987 17.865L7.44635 13.3945V13.3953Z" fill="white"/>
<path d="M23.0097 28.9067L22.1378 26.9188L18.8625 19.4495L18.8388 19.3955L13.0356 21.9407C12.8484 22.0228 12.6684 22.1142 12.4963 22.2157C12.4956 22.2157 12.4941 22.2165 12.4934 22.2179C10.2441 23.5348 9.27933 26.3773 10.35 28.8203C11.5034 31.4512 14.5987 32.6594 17.2296 31.5052L23.0328 28.96L23.009 28.906L23.0097 28.9067Z" fill="#4270B7"/>
<path d="M31.5937 19.7078C31.5706 19.6502 31.5469 19.5926 31.5217 19.5357C30.3682 16.9048 27.2729 15.6966 24.6421 16.8508L18.8389 19.396L18.8626 19.45L22.1379 26.9193L23.0098 28.9072L23.0336 28.9612L28.8368 26.416C30.1522 25.8393 31.112 24.778 31.5987 23.5302C32.0645 22.3365 32.0969 20.9757 31.5937 19.7085V19.7078Z" fill="white"/>
<path d="M28.8368 26.4155L23.0336 28.9607L23.0099 28.9067L22.1379 26.9188C24.1381 26.0418 26.2131 25.1318 27.458 24.586C31.4216 22.8479 31.6247 20.41 31.5937 19.708C32.097 20.9752 32.0646 22.336 31.5987 23.5298C31.112 24.7775 30.1523 25.8388 28.8368 26.4155Z" fill="#DAD5D5"/>
<path d="M23.0336 28.9608L17.2304 31.506C14.5995 32.6595 11.5042 31.452 10.3508 28.8212C9.27941 26.3782 10.2449 23.5356 12.4942 22.2188C11.3912 23.1728 11.0593 25.3227 11.7605 26.9218C12.986 29.7161 15.4757 29.8414 16.658 29.323C16.7825 29.2683 19.3911 28.1242 22.1393 26.9196L23.0113 28.9075L23.035 28.9615L23.0336 28.9608Z" fill="#315B9D"/>
<path d="M18.6516 19.9902L19.8771 22.7846C19.3759 21.7874 18.7704 21.2834 18.2592 20.9954C17.748 20.7066 14.1379 21.9702 14.1379 21.9702L18.6516 19.991V19.9902Z" fill="white"/>
<path d="M6.96165 25.721C7.68165 26.0551 8.45853 26.2258 9.24405 26.2258C9.39669 26.2258 9.55005 26.2186 9.70269 26.2056C9.61557 27.102 9.74877 28.0322 10.1354 28.9142C10.7186 30.2441 11.7892 31.2694 13.1508 31.8007C13.798 32.0534 14.4727 32.1794 15.1459 32.1794C15.8875 32.1794 16.6269 32.0261 17.3246 31.7201L28.9317 26.6297C30.2616 26.0465 31.2861 24.9751 31.8182 23.6143C32.3496 22.2528 32.3208 20.771 31.7376 19.4412C31.1544 18.1114 30.0837 17.0861 28.7222 16.5547C27.3607 16.0234 25.8789 16.0522 24.5491 16.6354L15.3187 20.6832L19.5487 11.5759C20.1607 10.259 20.2212 8.778 19.7193 7.40496C19.2175 6.03264 18.216 4.93968 16.8984 4.32768C14.1696 3.06048 10.918 4.2492 9.65085 6.978L4.31061 18.4728C3.69861 19.7897 3.63813 21.2707 4.14069 22.6438C4.64253 24.0161 5.64405 25.109 6.96165 25.721ZM24.737 17.0652C25.3742 16.7858 26.0496 16.6462 26.7271 16.6462C27.342 16.6462 27.959 16.7614 28.5508 16.9925C29.7957 17.4785 30.7742 18.4152 31.307 19.6298C31.8398 20.8452 31.8657 22.1995 31.3797 23.4444C30.8937 24.6893 29.957 25.6678 28.7424 26.2006L23.1537 28.6514L19.1476 19.5161L24.7363 17.0652H24.737ZM18.7185 19.7047L22.7246 28.8401L17.136 31.291C15.9206 31.8238 14.5663 31.8497 13.3214 31.3637C12.0765 30.8777 11.098 29.941 10.5652 28.7263C10.0324 27.511 10.0065 26.1566 10.4925 24.9118C10.9785 23.6669 11.9152 22.6884 13.1299 22.1556L18.7185 19.7047ZM10.0756 7.176C11.2341 4.68192 14.2056 3.59472 16.6996 4.75392C17.9028 5.31264 18.8186 6.312 19.2772 7.56624C19.7359 8.8212 19.6812 10.1748 19.1224 11.3779L16.552 16.9126L7.50525 12.7106L10.0756 7.176ZM4.73685 18.6708L7.30725 13.1362L16.354 17.3381L14.6685 20.9676L12.9412 21.725C11.2262 22.4767 10.0915 24.0103 9.77037 25.7254C8.87613 25.8204 7.97685 25.675 7.15965 25.2955C4.66557 24.137 3.57909 21.1656 4.73757 18.6715L4.73685 18.6708Z" fill="#564B57"/>
</svg>
