<svg width="14" height="14" viewBox="0 0 14 14" fill="none" xmlns="http://www.w3.org/2000/svg">
<path d="M9.91675 11.9582H4.08341C2.33341 11.9582 1.16675 11.0832 1.16675 9.0415V4.95817C1.16675 2.9165 2.33341 2.0415 4.08341 2.0415H9.91675C11.6667 2.0415 12.8334 2.9165 12.8334 4.95817V9.0415C12.8334 11.0832 11.6667 11.9582 9.91675 11.9582Z" stroke="#6D6D6D" stroke-miterlimit="10" stroke-linecap="round" stroke-linejoin="round"/>
<path d="M7 8.75C7.9665 8.75 8.75 7.9665 8.75 7C8.75 6.0335 7.9665 5.25 7 5.25C6.0335 5.25 5.25 6.0335 5.25 7C5.25 7.9665 6.0335 8.75 7 8.75Z" stroke="#6D6D6D" stroke-miterlimit="10" stroke-linecap="round" stroke-linejoin="round"/>
<path d="M4.95833 3.5H4.08333C3.27833 3.5 2.625 4.15333 2.625 4.95833V5.83333" stroke="#6D6D6D" stroke-miterlimit="10" stroke-linecap="round" stroke-linejoin="round"/>
<path d="M9.04175 3.5H9.91675C10.7217 3.5 11.3751 4.15333 11.3751 4.95833V5.83333" stroke="#6D6D6D" stroke-miterlimit="10" stroke-linecap="round" stroke-linejoin="round"/>
<path d="M4.95833 10.4998H4.08333C3.27833 10.4998 2.625 9.8465 2.625 9.0415V8.1665" stroke="#6D6D6D" stroke-miterlimit="10" stroke-linecap="round" stroke-linejoin="round"/>
<path d="M9.04175 10.4998H9.91675C10.7217 10.4998 11.3751 9.8465 11.3751 9.0415V8.1665" stroke="#6D6D6D" stroke-miterlimit="10" stroke-linecap="round" stroke-linejoin="round"/>
</svg>
