<svg width="34" height="34" viewBox="0 0 34 34" fill="none" xmlns="http://www.w3.org/2000/svg">
<g clip-path="url(#clip0_561_14017)">
<path d="M26.4771 26.8283C26.5935 26.8283 26.7107 26.8228 26.8261 26.8125C26.8426 26.8127 26.8592 26.8127 26.8761 26.8127C28.5354 26.8127 31.4414 26.1459 32.8768 21.8399C33.3834 20.3158 33.6376 18.7193 33.6296 17.1133C33.9517 16.0916 34.0661 15.0159 33.966 13.9493C33.7601 11.7008 32.6297 9.70328 31.0057 8.70313C28.9678 5.85489 26.2488 4.55332 23.713 5.21706C23.6878 5.22171 23.6628 5.22768 23.6382 5.23496C21.638 5.74256 20.1878 7.78622 20.1878 10.0999C20.1712 11.4304 20.6571 12.7183 21.5483 13.7063C20.3909 13.4498 19.2176 13.0172 18.6166 12.3206C18.6452 10.857 18.8101 9.39938 19.1093 7.96648C19.1436 7.82982 19.1222 7.68513 19.0497 7.56427C18.9773 7.4434 18.8599 7.35626 18.7232 7.322C18.5865 7.28774 18.4419 7.30918 18.321 7.38159C18.2001 7.45401 18.113 7.57147 18.0787 7.70814C18.0288 7.90709 16.8699 12.6584 18.0705 19.6144C18.0918 19.7377 18.1559 19.8495 18.2516 19.9302C18.3472 20.0109 18.4683 20.0552 18.5934 20.0554C18.6239 20.0555 18.6544 20.0528 18.6844 20.0476C18.7532 20.0357 18.8189 20.0105 18.8778 19.9732C18.9368 19.9359 18.9879 19.8874 19.0281 19.8305C19.0683 19.7735 19.0969 19.7091 19.1122 19.6411C19.1276 19.573 19.1294 19.5027 19.1175 19.4339C18.9136 18.2535 18.7689 17.0636 18.6841 15.8688C19.7542 16.4188 20.9127 16.7761 22.1066 16.9245C18.2107 20.1301 18.5901 27.822 18.6108 28.1864C18.6184 28.3218 18.6775 28.4491 18.7761 28.5423C18.8746 28.6355 19.005 28.6874 19.1406 28.6875C19.1507 28.6875 19.161 28.6873 19.1711 28.6867C19.2407 28.6828 19.3089 28.6652 19.3718 28.6349C19.4347 28.6046 19.4909 28.5622 19.5374 28.5101C19.5839 28.4581 19.6196 28.3974 19.6426 28.3315C19.6656 28.2657 19.6754 28.1959 19.6715 28.1262C19.6665 28.0371 19.2384 19.498 23.6086 17.1915C23.6654 17.4145 23.744 17.6312 23.8434 17.8387C22.8204 18.7286 22.187 19.984 22.079 21.3355C21.2719 23.619 20.906 26.035 21.0008 28.4551C21.0092 28.5899 21.0687 28.7164 21.1671 28.8089C21.2655 28.9015 21.3954 28.953 21.5305 28.9531C21.5417 28.9531 21.5531 28.9529 21.5643 28.9521C21.7049 28.9433 21.8363 28.8789 21.9295 28.7733C22.0226 28.6676 22.07 28.5293 22.0612 28.3887C22.0101 26.8784 22.1399 25.3674 22.4479 23.8879C23.1423 25.6188 24.6852 26.8283 26.4771 26.8283ZM23.4944 15.9511C21.7768 15.9571 20.0905 15.4923 18.6186 14.6073C18.6078 14.2935 18.6012 13.9886 18.599 13.6927C20.1791 14.7278 22.6273 15.0059 23.6693 15.0786C23.5757 15.3612 23.517 15.6542 23.4944 15.9511ZM24.5185 18.6613C25.4015 19.0046 27.1427 19.7853 27.7449 20.5238C27.837 20.6284 27.9651 20.6944 28.1038 20.7085C28.2424 20.7226 28.3812 20.6838 28.4924 20.5998C28.5465 20.5558 28.5914 20.5015 28.6245 20.4401C28.6576 20.3787 28.6783 20.3114 28.6853 20.242C28.6924 20.1726 28.6857 20.1024 28.6657 20.0356C28.6457 19.9688 28.6127 19.9066 28.5686 19.8525C27.7703 18.8735 25.8338 18.0364 24.9924 17.7055C24.9869 17.6966 24.9832 17.6868 24.9772 17.6782C24.7858 17.394 24.6562 17.0728 24.5966 16.7353H30.5475C30.6173 16.7355 30.6865 16.7219 30.7511 16.6952C30.8157 16.6686 30.8744 16.6295 30.9238 16.5802C30.9733 16.5308 31.0125 16.4722 31.0393 16.4077C31.0661 16.3432 31.0798 16.274 31.0798 16.2041C31.0798 16.1343 31.0661 16.0651 31.0393 16.0006C31.0125 15.936 30.9733 15.8774 30.9238 15.8281C30.8744 15.7787 30.8157 15.7396 30.7511 15.713C30.6865 15.6864 30.6173 15.6728 30.5475 15.6729H24.6109C24.6621 15.4341 24.7482 15.2042 24.8665 14.9905C28.6357 13.9876 28.9393 11.5863 28.9507 11.4795C28.9652 11.3411 28.9245 11.2025 28.8374 11.0939C28.7503 10.9853 28.6239 10.9154 28.4856 10.8996C28.3465 10.8838 28.2068 10.9231 28.0963 11.0091C27.9859 11.0951 27.9136 11.221 27.8949 11.3597C27.8844 11.4384 27.6052 13.2311 24.414 14.0112C22.6605 13.8918 21.2503 12.1652 21.2503 10.0999C21.2503 8.26167 22.3685 6.64782 23.909 6.26238C23.9131 6.26134 23.9172 6.2603 23.9213 6.259C23.9354 6.25641 23.9495 6.2533 23.9633 6.24967C26.085 5.68681 28.4179 6.86517 30.2021 9.40657C30.246 9.46922 30.3031 9.5216 30.3692 9.56012C31.7558 10.3683 32.7285 12.0875 32.9079 14.0463C32.9979 14.9963 32.891 15.9546 32.594 16.8614C32.5753 16.9173 32.566 16.9759 32.5665 17.0349C32.5832 18.553 32.3474 20.0633 31.8687 21.504C30.7027 25.002 28.5273 25.7503 26.8804 25.7503C26.857 25.7503 26.8337 25.75 26.8104 25.7498C26.7907 25.7495 26.7709 25.7503 26.7513 25.7524C26.6613 25.7612 26.5691 25.7659 26.4771 25.7659C24.6242 25.7659 23.1168 24.006 23.1168 21.8427C23.1074 21.2428 23.2278 20.6479 23.4697 20.0987C23.7116 19.5496 24.0694 19.0593 24.5185 18.6613Z" fill="#008D5C"/>
<path d="M7.17399 26.8125C7.28943 26.8228 7.40668 26.8283 7.52303 26.8283C9.31457 26.8283 10.8573 25.6192 11.5518 23.8888C11.8589 25.3682 11.9888 26.8789 11.9389 28.389C11.9302 28.5295 11.9777 28.6678 12.0709 28.7733C12.1642 28.8788 12.2955 28.9431 12.4361 28.9518C12.4473 28.9526 12.4585 28.9531 12.4696 28.9531C12.6047 28.953 12.7346 28.9014 12.833 28.8089C12.9314 28.7164 12.9909 28.5899 12.9993 28.4551C13.0941 26.035 12.7282 23.619 11.9211 21.3355C11.8132 19.984 11.1797 18.7286 10.1568 17.8387C10.2561 17.6313 10.3347 17.4145 10.3916 17.1917C14.7555 19.4967 14.3335 28.0374 14.3285 28.1265C14.3207 28.2671 14.369 28.4051 14.4629 28.5102C14.5568 28.6152 14.6885 28.6786 14.8292 28.6865C14.8393 28.6873 14.8494 28.6875 14.8595 28.6875C14.9951 28.6874 15.1256 28.6355 15.2241 28.5423C15.3226 28.4491 15.3817 28.3218 15.3894 28.1864C15.4101 27.822 15.7895 20.129 11.8927 16.9238C13.0872 16.7757 14.2463 16.4183 15.3168 15.8679C15.2384 16.9725 15.1013 18.1668 14.8826 19.4339C14.8708 19.5026 14.8726 19.573 14.8879 19.6411C14.9032 19.7091 14.9318 19.7735 14.9721 19.8305C15.0123 19.8875 15.0633 19.936 15.1223 19.9732C15.1813 20.0105 15.247 20.0357 15.3157 20.0476C15.3458 20.0529 15.3762 20.0555 15.4068 20.0554C15.5319 20.0552 15.6529 20.0109 15.7486 19.9302C15.8442 19.8496 15.9083 19.7377 15.9296 19.6144C17.1302 12.6584 15.9714 7.9071 15.9214 7.70816C15.887 7.5716 15.7998 7.45429 15.6789 7.38202C15.558 7.30975 15.4134 7.28843 15.2768 7.32273C15.1402 7.35704 15.0228 7.44418 14.9504 7.56499C14.8781 7.6858 14.8566 7.8304 14.8908 7.96702C15.1916 9.39888 15.357 10.8558 15.3851 12.3187C14.7856 13.0147 13.6117 13.4476 12.4533 13.7047C13.3436 12.7168 13.8289 11.4297 13.8123 10.0999C13.8123 7.78623 12.3621 5.74257 10.362 5.23497C10.3374 5.22769 10.3124 5.22172 10.2871 5.21708C7.75066 4.55358 5.03235 5.85489 2.99444 8.70314C1.37044 9.70328 0.240069 11.7008 0.0341062 13.9493C-0.0659203 15.0159 0.0484721 16.0916 0.370547 17.1132C0.362513 18.7194 0.616785 20.316 1.12333 21.8402C2.57356 26.19 5.5348 26.8337 7.17399 26.8125ZM15.4025 13.6912C15.4002 13.9869 15.3936 14.292 15.3827 14.6065C13.4753 15.8175 11.3447 15.95 10.5057 15.9502C10.4831 15.6536 10.4243 15.3609 10.3308 15.0785C11.3728 15.0055 13.8225 14.7274 15.4025 13.6912ZM1.09221 14.0463C1.27161 12.0875 2.24437 10.3683 3.63089 9.56011C3.69705 9.52159 3.75409 9.46921 3.79809 9.40656C5.58253 6.86542 7.91538 5.68629 10.0368 6.24965C10.0492 6.25303 10.0642 6.25614 10.078 6.25873C10.0823 6.26003 10.0867 6.26133 10.0911 6.26236C11.6316 6.64778 12.7498 8.26165 12.7498 10.0999C12.7498 12.1651 11.3397 13.8918 9.58623 14.0112C6.40676 13.2339 6.1179 11.4514 6.10537 11.3607C6.08882 11.2214 6.0178 11.0942 5.90782 11.007C5.79784 10.9199 5.65784 10.8797 5.51838 10.8954C5.37892 10.9111 5.25134 10.9813 5.16348 11.0908C5.07563 11.2002 5.03464 11.34 5.04947 11.4795C5.06083 11.5863 5.36438 13.9876 9.13361 14.9905C9.2519 15.2041 9.33802 15.4341 9.3892 15.6729H3.45268C3.38283 15.6728 3.31362 15.6864 3.24904 15.713C3.18445 15.7396 3.12575 15.7787 3.0763 15.8281C3.02685 15.8774 2.98761 15.936 2.96084 16.0006C2.93407 16.0651 2.92029 16.1343 2.92029 16.2041C2.92029 16.274 2.93407 16.3431 2.96084 16.4077C2.98761 16.4722 3.02685 16.5308 3.0763 16.5801C3.12575 16.6295 3.18445 16.6686 3.24904 16.6952C3.31362 16.7218 3.38283 16.7355 3.45268 16.7353H9.40352C9.34398 17.0728 9.21432 17.394 9.02291 17.6782C9.01692 17.6868 9.0132 17.6965 9.00776 17.7055C8.16639 18.0363 6.22988 18.8734 5.43161 19.8525C5.37224 19.9315 5.3356 20.0252 5.32567 20.1236C5.31574 20.2219 5.3329 20.3211 5.37528 20.4103C5.41766 20.4996 5.48365 20.5756 5.56611 20.6301C5.64858 20.6846 5.74437 20.7154 5.84312 20.7194C5.92203 20.7195 5.99997 20.702 6.07126 20.6682C6.14255 20.6344 6.20538 20.585 6.25517 20.5238C6.85737 19.7853 8.59862 19.0046 9.4817 18.6613C9.93077 19.0593 10.2885 19.5496 10.5305 20.0987C10.7724 20.6479 10.8928 21.2428 10.8834 21.8428C10.8834 24.006 9.37596 25.7659 7.52302 25.7659C7.43106 25.7659 7.33885 25.7612 7.24883 25.7524C7.22918 25.7504 7.20944 25.7496 7.18969 25.7498C5.5326 25.7635 3.31404 25.0515 2.13139 21.5043C1.65275 20.0634 1.41694 18.5531 1.4336 17.0349C1.43414 16.9759 1.42485 16.9173 1.4061 16.8614C1.10908 15.9546 1.00222 14.9963 1.09221 14.0463Z" fill="#008D5C"/>
</g>
<defs>
<clipPath id="clip0_561_14017">
<rect width="34" height="34" fill="white"/>
</clipPath>
</defs>
</svg>
