<svg width="34" height="34" viewBox="0 0 34 34" fill="none" xmlns="http://www.w3.org/2000/svg">
<path d="M3.15486 21.6574C3.16575 21.6654 3.17519 21.675 3.18619 21.6829C2.72621 23.5356 3.83412 25.4272 5.63222 25.9783C5.65556 27.8912 7.21652 29.4145 9.09039 29.4308C9.39643 31.0788 10.847 32.3308 12.5852 32.3308C13.5935 32.3308 14.5457 31.8904 15.2101 31.1568C15.8748 31.89 16.8273 32.3308 17.8353 32.3308C19.5613 32.3308 21.0037 31.0963 21.3232 29.4308C21.3443 29.4307 21.3637 29.4247 21.3846 29.4242C23.2458 29.378 24.7245 27.8914 24.7849 26.0503C24.7858 26.0254 24.7928 26.0022 24.7931 25.9771C26.26 25.5257 27.3364 24.1402 27.3364 22.5355C27.3364 22.5331 27.3351 22.531 27.335 22.5286C27.3344 22.2354 27.3011 21.9526 27.2343 21.6829C27.2441 21.6759 27.2524 21.6674 27.2621 21.6603C29.3682 20.1003 29.3039 16.9739 27.2315 15.4918C27.2745 15.3173 27.3327 14.9344 27.3343 14.6622C27.3343 14.6546 27.3364 14.6476 27.3364 14.6401C27.3364 14.2858 27.0492 13.9986 26.6949 13.9986C26.3367 13.9986 26.0525 14.2913 26.0525 14.6423C26.0525 14.9427 25.9908 15.2468 25.8739 15.5215C25.8721 15.5258 25.8728 15.5303 25.8711 15.5346C25.5328 16.334 24.7549 16.9032 23.8254 16.9395C23.4714 16.9533 23.1958 17.2515 23.2096 17.6055C23.223 17.951 23.5071 18.2219 23.8501 18.2219C23.8583 18.2219 23.867 18.2219 23.8755 18.2213C25.0457 18.1758 26.0559 17.5801 26.6792 16.6951C26.929 16.9151 27.1296 17.1809 27.2741 17.4773C27.2749 17.4789 27.2746 17.4805 27.2754 17.4821C28.1114 19.1954 26.7993 21.1322 24.9862 21.1322C24.8353 21.1322 24.6824 21.1175 24.5198 21.0871C24.1706 21.0204 23.8367 21.2519 23.7715 21.5999C23.7063 21.9482 23.9359 22.2834 24.2843 22.3482C24.5223 22.3927 24.7585 22.4152 24.9862 22.4152C25.3472 22.4152 25.6953 22.3617 26.0267 22.2681C26.0368 22.3569 26.0525 22.4432 26.0525 22.5365C26.0525 23.8372 24.9687 24.8532 23.7358 24.8532C22.4615 24.8532 21.425 23.8135 21.425 22.5355C21.425 22.1813 21.1378 21.894 20.7835 21.894C20.4293 21.894 20.142 22.1813 20.142 22.5355C20.142 24.4373 21.6225 25.9955 23.4887 26.1236C23.3915 27.2532 22.4519 28.1456 21.2976 28.1456C20.0825 28.1456 19.0939 27.1542 19.0939 25.9354C19.0939 25.5811 18.8067 25.2939 18.4524 25.2939C18.0981 25.2939 17.8109 25.5811 17.8109 25.9354C17.8109 27.4261 18.7494 28.6981 20.0642 29.1987C19.8675 30.2492 18.9449 31.0477 17.8353 31.0477C17.0113 31.0477 16.2488 30.58 15.8519 29.8512V22.0795C16.3776 21.7107 17.1086 21.758 17.5779 22.2273C17.8285 22.4779 18.2344 22.4779 18.485 22.2273C18.7356 21.9767 18.7356 21.5708 18.485 21.3202C17.7727 20.6079 16.7537 20.4019 15.8519 20.6784V14.7312C15.8526 14.7192 15.8588 14.7092 15.8588 14.6971C15.8588 14.685 15.8526 14.6749 15.8519 14.663V13.3973C16.4429 13.648 16.8587 14.2341 16.8587 14.9154C16.8587 15.2697 17.1459 15.5569 17.5002 15.5569C17.8545 15.5569 18.1417 15.2697 18.1417 14.9154C18.1417 13.5201 17.1598 12.3538 15.8519 12.0598V7.32689C16.2474 6.5945 17.0102 6.12473 17.8353 6.12473C19.0877 6.12473 20.1063 7.14337 20.1063 8.44675C20.1063 8.80102 20.3935 9.06258 20.7478 9.06258C21.1021 9.06258 21.3893 8.74997 21.3893 8.39569C21.3893 6.43608 19.795 4.84171 17.8353 4.84171C16.8264 4.84171 15.8742 5.28306 15.2101 6.01823C14.5474 5.28451 13.597 4.84327 12.5898 4.84194C12.5872 4.8419 12.585 4.84045 12.5824 4.84045C10.8897 4.84045 9.40157 6.06254 9.09165 7.74314C9.09137 7.74467 9.09067 7.74608 9.09039 7.74761C7.33032 7.76383 5.67016 9.22207 5.63531 11.1784C5.63519 11.1838 5.63359 11.1888 5.63351 11.1942C3.87717 11.7268 2.72737 13.6153 3.18901 15.4936C1.10734 16.9916 1.05711 20.0994 3.15486 21.6574ZM6.54534 18.2213C6.5538 18.2219 6.56226 18.2219 6.57071 18.2219C6.91371 18.2219 7.19781 17.951 7.21128 17.6055C7.22507 17.2515 6.94942 16.9533 6.59546 16.9395C4.04455 16.8398 3.57649 13.3422 5.86574 12.478C6.26362 13.5142 7.14269 14.3294 8.2766 14.6135C8.32891 14.6263 8.38154 14.6326 8.43322 14.6326C8.72046 14.6326 8.98201 14.4384 9.055 14.147C9.14082 13.8031 8.93221 13.4548 8.58859 13.3686C6.36303 12.8119 6.38373 9.66021 8.58921 9.10518C8.59246 9.10435 8.5947 9.10185 8.59795 9.10099C8.7573 9.0616 8.92156 9.03619 9.09231 9.03376C9.39815 10.6836 10.8453 11.9378 12.5824 11.9378C12.9366 11.9378 13.2239 11.6505 13.2239 11.2963C13.2239 10.942 12.9366 10.6548 12.5824 10.6548C11.3313 10.6548 10.3133 9.63674 10.3133 8.38567C10.3133 7.1891 11.3054 6.12473 12.5852 6.12473C13.411 6.12473 14.1739 6.59489 14.5689 7.32763V14.1334C13.2646 14.4301 12.286 15.5941 12.286 16.9872C12.286 17.3414 12.5733 17.6287 12.9275 17.6287C13.2818 17.6287 13.5691 17.3414 13.5691 16.9872C13.5691 16.3085 13.9817 15.7249 14.5689 15.4724V21.4792C14.0443 21.837 13.3218 21.7852 12.8568 21.3202C12.6062 21.0696 12.2002 21.0696 11.9496 21.3202C11.699 21.5708 11.699 21.9767 11.9496 22.2273C12.4627 22.7404 13.1365 22.9969 13.8102 22.9969C14.0671 22.9969 14.321 22.9476 14.5689 22.8731V29.8497C14.1727 30.5793 13.4099 31.0477 12.5852 31.0477C11.4764 31.0477 10.5565 30.2496 10.3589 29.1978C11.6725 28.6967 12.6099 27.4252 12.6099 25.9354C12.6099 25.5811 12.3227 25.2939 11.9684 25.2939C11.6141 25.2939 11.3269 25.5811 11.3269 25.9354C11.3269 27.1542 10.3383 28.1456 9.12328 28.1456C7.99916 28.1456 7.03542 27.2857 6.93528 26.1235C8.80006 25.9938 10.2788 24.4362 10.2788 22.5355C10.2788 22.1813 9.99158 21.894 9.63731 21.894C9.28303 21.894 8.9958 22.1813 8.9958 22.5355C8.9958 23.8135 7.95929 24.8532 6.68505 24.8532C5.41558 24.8532 4.22434 23.7458 4.3936 22.268C4.98724 22.4357 5.55679 22.4565 6.13625 22.3482C6.48457 22.2834 6.71449 21.9485 6.64934 21.6002C6.5845 21.2519 6.24777 21.0198 5.90133 21.0871C4.32942 21.3798 2.88642 20.1516 2.88642 18.5916C2.88642 17.9245 3.16896 17.2041 3.74301 16.6968C4.36647 17.5808 5.37587 18.1758 6.54534 18.2213Z" fill="#008D5C"/>
<path d="M9.12003 19.4812C8.76575 19.4812 8.47852 19.7684 8.47852 20.1227C8.47852 20.477 8.76575 20.7642 9.12003 20.7642C10.4835 20.7642 11.5927 19.6547 11.5927 18.2912C11.5927 16.9277 10.4835 15.8182 9.12003 15.8182C8.76575 15.8182 8.47852 16.1054 8.47852 16.4597C8.47852 16.814 8.76575 17.1012 9.12003 17.1012C9.77594 17.1012 10.3097 17.635 10.3097 18.2912C10.3097 18.9474 9.77594 19.4812 9.12003 19.4812Z" fill="#008D5C"/>
<path d="M31.7539 1.66925C30.6018 1.66925 29.5274 2.23809 28.8797 3.19127L27.8952 4.63995L27.7658 4.55197C27.4049 4.30639 26.9708 4.21681 26.541 4.29825C26.1125 4.38 25.7413 4.62402 25.4961 4.98486C20.3026 12.6267 21.9737 10.1677 21.5552 10.7835C21.3936 11.0219 21.2827 11.2856 21.2257 11.5675L21.0328 12.5192C20.9173 13.0897 21.0938 13.6651 21.4832 14.0749L18.551 18.3895C18.3518 18.6824 18.4279 19.0815 18.7211 19.2807C19.0135 19.4793 19.4128 19.4042 19.6122 19.1106L22.5444 14.796C22.7542 14.8806 22.9751 14.9276 23.1975 14.9276C23.5305 14.9276 23.8641 14.8324 24.1567 14.642L24.9708 14.1123C25.212 13.9553 25.4165 13.7549 25.5788 13.5162C25.9976 12.8998 24.3251 15.361 29.5187 7.71848C30.0249 6.97329 29.8306 5.95527 29.0858 5.44908L28.9564 5.36114L29.9409 3.91234C30.3494 3.31124 31.0272 2.95227 31.7539 2.95227C32.1082 2.95227 32.3954 2.66503 32.3954 2.31076C32.3954 1.95649 32.1082 1.66925 31.7539 1.66925ZM26.5573 5.70594C26.6099 5.62857 26.6895 5.57626 26.7816 5.55871C26.8734 5.53992 26.967 5.56059 27.0444 5.61322L28.3647 6.51033C28.5254 6.61963 28.5661 6.83762 28.4574 6.99741L27.7226 8.07898C27.6068 8.00029 25.7085 6.71012 25.8225 6.78754L26.5573 5.70594ZM24.5178 12.7948C24.4517 12.8919 24.3684 12.9733 24.2707 13.0372L23.4569 13.5666C23.2956 13.6712 23.0892 13.6687 22.9303 13.5613C22.8947 13.5371 22.513 13.2778 22.4887 13.2612C22.3299 13.1535 22.2522 12.9621 22.2901 12.7741L22.483 11.8225C22.5062 11.7079 22.5516 11.6004 22.6171 11.5036L25.1014 7.84883C25.2171 7.92752 27.1154 9.21769 27.0015 9.14027L24.5178 12.7948Z" fill="#008D5C"/>
</svg>
