<svg width="34" height="34" viewBox="0 0 34 34" fill="none" xmlns="http://www.w3.org/2000/svg">
<path d="M16.355 27.8132C16.355 29.2022 17.3665 30.3843 18.7388 30.5988C19.8559 30.7735 20.8015 31.517 21.2346 32.5614L21.5561 33.3359H24.93V32.7751C24.93 31.4774 25.5963 30.2558 26.7161 29.5999C27.7646 28.9857 28.4688 27.8472 28.4688 26.5442C28.4688 25.5454 28.055 24.6432 27.3894 23.9998" stroke="#008D5C" stroke-miterlimit="10" stroke-linecap="round" stroke-linejoin="round"/>
<path d="M17.2404 16.3187C17.2404 17.5678 16.2277 18.5805 14.9785 18.5805" stroke="#008D5C" stroke-miterlimit="10" stroke-linecap="round" stroke-linejoin="round"/>
<path d="M20.2118 27.8132C19.3089 27.8132 18.4652 27.5596 17.7481 27.1197L17.7482 27.1196C16.9703 27.6844 16.0134 28.0175 14.9787 28.0175C12.3728 28.0175 10.2603 25.905 10.2603 23.2991C10.2603 20.6931 12.3728 18.5806 14.9787 18.5806C16.2279 18.5806 17.2405 19.5933 17.2405 20.8425" stroke="#008D5C" stroke-miterlimit="10" stroke-linecap="round" stroke-linejoin="round"/>
<path d="M2.44003 18.3C2.1511 19.0261 1.99219 19.8181 1.99219 20.6472C1.99219 24.1541 4.83511 26.997 8.34202 26.997C9.41315 26.997 10.4223 26.7318 11.3075 26.2634" stroke="#008D5C" stroke-miterlimit="10" stroke-linecap="round" stroke-linejoin="round"/>
<path d="M8.25825 15.3036C6.91651 13.9619 4.74111 13.9619 3.39937 15.3036C2.05763 16.6453 2.05763 18.8207 3.39937 20.1625" stroke="#008D5C" stroke-miterlimit="10" stroke-linecap="round" stroke-linejoin="round"/>
<path d="M14.0637 10.7727C13.2817 9.94394 12.1731 9.42664 10.9437 9.42664C8.57499 9.42664 6.65479 11.3468 6.65479 13.7155C6.65479 13.9128 6.66813 14.1071 6.6939 14.2973" stroke="#008D5C" stroke-miterlimit="10" stroke-linecap="round" stroke-linejoin="round"/>
<path d="M23.7123 12.42C22.8391 10.3283 20.7742 8.85815 18.3659 8.85815C16.0688 8.85815 14.084 10.1956 13.1479 12.1343" stroke="#008D5C" stroke-miterlimit="10" stroke-linecap="round" stroke-linejoin="round"/>
<path d="M28.3749 27.3589C30.4654 26.8121 32.008 24.9105 32.008 22.6485C32.008 19.9598 29.8284 17.7802 27.1397 17.7802C26.5913 17.7802 26.0641 17.8708 25.5723 18.0379" stroke="#008D5C" stroke-miterlimit="10" stroke-linecap="round" stroke-linejoin="round"/>
<path d="M29.8511 18.6046C30.1744 17.9099 30.3548 17.1354 30.3548 16.3188C30.3548 13.3228 27.9261 10.8942 24.9302 10.8942C24.2658 10.8942 23.6293 11.0136 23.041 11.2322" stroke="#008D5C" stroke-miterlimit="10" stroke-linecap="round" stroke-linejoin="round"/>
<path d="M19.9653 14.0358C19.9653 15.3574 21.0367 16.4288 22.3583 16.4288C22.8539 16.4288 23.3144 16.2782 23.6963 16.0202" stroke="#008D5C" stroke-miterlimit="10" stroke-linecap="round" stroke-linejoin="round"/>
<path d="M22.0139 16.4041C22.2934 17.4116 21.7358 18.4719 20.7324 18.8048" stroke="#008D5C" stroke-miterlimit="10" stroke-linecap="round" stroke-linejoin="round"/>
<path d="M7.785 19.7101C7.00626 19.7101 6.375 19.0788 6.375 18.3" stroke="#008D5C" stroke-miterlimit="10" stroke-linecap="round" stroke-linejoin="round"/>
<path d="M19.999 23.299C21.178 22.1201 23.0895 22.1201 24.2685 23.299" stroke="#008D5C" stroke-miterlimit="10" stroke-linecap="round" stroke-linejoin="round"/>
<path d="M7.45752 2.50012L8.06832 4.97681L9.29697 4.26746L9.90778 6.74415" stroke="#008D5C" stroke-miterlimit="10" stroke-linecap="round" stroke-linejoin="round"/>
<path d="M24.0918 6.74421L24.7026 4.26752L25.9312 4.97687L26.5421 2.50018" stroke="#008D5C" stroke-miterlimit="10" stroke-linecap="round" stroke-linejoin="round"/>
<path d="M16.9905 5.9087L17.7542 3.28638H16.2358L16.9995 0.664062" stroke="#008D5C" stroke-miterlimit="10" stroke-linecap="round" stroke-linejoin="round"/>
</svg>
