<svg width="34" height="34" viewBox="0 0 34 34" fill="none" xmlns="http://www.w3.org/2000/svg">
<path d="M17 19.9883C18.6477 19.9883 19.9883 18.6477 19.9883 17C19.9883 15.3523 18.6477 14.0117 17 14.0117C15.3523 14.0117 14.0117 15.3523 14.0117 17C14.0117 18.6477 15.3523 19.9883 17 19.9883ZM17 15.0078C18.0985 15.0078 18.9922 15.9015 18.9922 17C18.9922 18.0985 18.0985 18.9922 17 18.9922C15.9015 18.9922 15.0078 18.0985 15.0078 17C15.0078 15.9015 15.9015 15.0078 17 15.0078Z" fill="#008D5C"/>
<path d="M33.502 18.4941C32.9645 18.4941 32.4442 18.3366 31.9971 18.0385L30.6266 17.1249C30.5606 17.0809 30.4931 17.0395 30.4248 17C30.4932 16.9605 30.5606 16.9191 30.6266 16.8751L31.9971 15.9615C32.4442 15.6634 32.9645 15.5059 33.502 15.5059C33.7771 15.5059 34 15.2829 34 15.0078C34 14.7327 33.7771 14.5098 33.502 14.5098C32.7673 14.5098 32.0558 14.7252 31.4446 15.1327L30.0741 16.0463C29.6269 16.3444 29.1066 16.502 28.5692 16.502H27.3296C25.7951 16.502 24.4241 15.5859 23.8367 14.1681C23.2495 12.7503 23.5712 11.1331 24.6564 10.048L25.5329 9.1715C25.9128 8.79146 26.3922 8.53493 26.9192 8.42954L28.5341 8.10654C29.2546 7.96244 29.91 7.61168 30.4295 7.09225C30.624 6.89768 30.624 6.58239 30.4295 6.38788C30.235 6.19345 29.9197 6.19345 29.7252 6.38788C29.3452 6.76793 28.8658 7.02445 28.3388 7.12984L26.7239 7.45284C26.646 7.46838 26.5691 7.48684 26.4928 7.50723C26.5132 7.43099 26.5316 7.35403 26.5472 7.2762L26.8702 5.66127C26.9756 5.13427 27.2321 4.65488 27.6122 4.2749C27.8067 4.08033 27.8067 3.76504 27.6122 3.57053C27.4176 3.37609 27.1023 3.37609 26.9078 3.57053C26.3884 4.09003 26.0376 4.74546 25.8935 5.46596L25.5705 7.0809C25.4651 7.6079 25.2086 8.08722 24.8286 8.4672L23.9521 9.34369C22.8669 10.4288 21.2498 10.7506 19.832 10.1633C18.4142 9.57598 17.4981 8.20502 17.4981 6.67044V5.43077C17.4981 4.89341 17.6557 4.37305 17.9537 3.92587L18.8673 2.55545C19.2749 1.94418 19.4903 1.2327 19.4903 0.498047C19.4903 0.222926 19.2674 0 18.9923 0C18.7171 0 18.4942 0.222926 18.4942 0.498047C18.4942 1.03547 18.3366 1.55583 18.0386 2.00295L17.125 3.37337C17.0809 3.43945 17.0396 3.50691 17.0001 3.57518C16.9606 3.50685 16.9192 3.43945 16.8752 3.37337L15.9615 2.00295C15.6634 1.55583 15.5059 1.03547 15.5059 0.498047C15.5059 0.222926 15.2829 0 15.0078 0C14.7327 0 14.5098 0.222926 14.5098 0.498047C14.5098 1.2327 14.7252 1.94418 15.1327 2.55545L16.0463 3.92587C16.3444 4.37305 16.502 4.89341 16.502 5.43077V6.67037C16.502 8.20489 15.5859 9.57591 14.1681 10.1633C12.7505 10.7504 11.1331 10.4288 10.048 9.34363L9.1715 8.46713C8.79146 8.08715 8.53493 7.60783 8.42954 7.08083L8.10654 5.4659C7.96244 4.74539 7.61168 4.08996 7.09225 3.57046C6.89768 3.37603 6.58239 3.37603 6.38788 3.57046C6.19338 3.76504 6.19338 4.08033 6.38788 4.27484C6.76793 4.65481 7.02445 5.1342 7.12984 5.6612L7.45284 7.27613C7.46838 7.35396 7.48684 7.43093 7.50723 7.50716C7.43099 7.48684 7.35403 7.46838 7.2762 7.45277L5.66127 7.12977C5.13427 7.02439 4.65488 6.76786 4.2749 6.38782C4.08033 6.19338 3.76504 6.19338 3.57053 6.38782C3.37603 6.58239 3.37603 6.89768 3.57053 7.09219C4.09003 7.61162 4.74546 7.96237 5.46596 8.10648L7.0809 8.42948C7.6079 8.53486 8.08722 8.79139 8.4672 9.17143L9.34369 10.0479C10.4288 11.133 10.7506 12.7503 10.1633 14.168C9.57598 15.5858 8.20502 16.5019 6.67044 16.5019H5.43077C4.89341 16.5019 4.37305 16.3443 3.92587 16.0463L2.55545 15.1327C1.94418 14.7252 1.2327 14.5098 0.498047 14.5098C0.222926 14.5098 0 14.7327 0 15.0078C0 15.2829 0.222926 15.5059 0.498047 15.5059C1.03547 15.5059 1.55583 15.6634 2.00295 15.9615L3.37337 16.8751C3.43945 16.9191 3.50691 16.9605 3.57518 17C3.50685 17.0395 3.43945 17.0809 3.37337 17.1249L2.00295 18.0385C1.55583 18.3366 1.03547 18.4941 0.498047 18.4941C0.222926 18.4941 0 18.7171 0 18.9922C0 19.2673 0.222926 19.4902 0.498047 19.4902C1.2327 19.4902 1.94418 19.2748 2.55545 18.8673L3.92587 17.9537C4.37305 17.6556 4.89341 17.498 5.43077 17.498H6.67037C8.20489 17.498 9.57591 18.4141 10.1633 19.8319C10.7505 21.2497 10.4288 22.8669 9.34363 23.952L8.46713 24.8285C8.08715 25.2085 7.60783 25.4651 7.08083 25.5705L5.4659 25.8935C4.74539 26.0376 4.08996 26.3883 3.57046 26.9077C3.37596 27.1023 3.37596 27.4176 3.57046 27.6121C3.66775 27.7093 3.79525 27.7579 3.92268 27.7579C4.05012 27.7579 4.17762 27.7093 4.2749 27.6121C4.65488 27.2321 5.13427 26.9755 5.66127 26.8702L7.2762 26.5472C7.35403 26.5316 7.43099 26.5132 7.50723 26.4928C7.48691 26.569 7.46845 26.646 7.45284 26.7238L7.12984 28.3387C7.02445 28.8657 6.76793 29.3451 6.38788 29.7251C6.19338 29.9197 6.19338 30.235 6.38788 30.4295C6.48517 30.5267 6.61267 30.5753 6.7401 30.5753C6.86754 30.5753 6.99504 30.5267 7.09232 30.4295C7.61175 29.91 7.96251 29.2545 8.10661 28.534L8.42961 26.9191C8.535 26.3921 8.79152 25.9128 9.17157 25.5328L10.0481 24.6563C11.1332 23.5712 12.7503 23.2496 14.1682 23.8367C15.5859 24.424 16.502 25.795 16.502 27.3296V28.5692C16.502 29.1065 16.3444 29.6269 16.0464 30.0741L15.1328 31.4445C14.7253 32.0558 14.5098 32.7672 14.5098 33.5019C14.5098 33.777 14.7328 33.9999 15.0079 33.9999C15.283 33.9999 15.5059 33.777 15.5059 33.5019C15.5059 32.9645 15.6635 32.4441 15.9615 31.997L16.8752 30.6266C16.9192 30.5605 16.9606 30.493 17.0001 30.4248C17.0396 30.4931 17.0809 30.5605 17.125 30.6266L18.0386 31.997C18.3366 32.4441 18.4942 32.9645 18.4942 33.5019C18.4942 33.777 18.7171 33.9999 18.9923 33.9999C19.2674 33.9999 19.4903 33.777 19.4903 33.5019C19.4903 32.7672 19.2749 32.0558 18.8673 31.4445L17.9537 30.0741C17.6557 29.6269 17.4981 29.1065 17.4981 28.5692V27.3296C17.4981 25.795 18.4142 24.424 19.832 23.8367C21.2496 23.2495 22.8669 23.5712 23.9521 24.6563L24.8286 25.5328C25.2086 25.9128 25.4651 26.3921 25.5705 26.9191L25.8935 28.534C26.0376 29.2545 26.3884 29.91 26.9078 30.4295C27.0051 30.5267 27.1326 30.5753 27.26 30.5753C27.3875 30.5753 27.515 30.5267 27.6123 30.4295C27.8068 30.2349 27.8068 29.9196 27.6123 29.7251C27.2322 29.3451 26.9757 28.8657 26.8703 28.3387L26.5473 26.7238C26.5318 26.646 26.5133 26.569 26.4929 26.4928C26.5691 26.5131 26.6461 26.5316 26.7239 26.5472L28.3389 26.8702C28.8659 26.9755 29.3453 27.2321 29.7252 27.6121C29.9198 27.8066 30.2351 27.8066 30.4296 27.6121C30.6241 27.4175 30.6241 27.1023 30.4296 26.9077C29.9101 26.3883 29.2547 26.0376 28.5342 25.8935L26.9192 25.5705C26.3922 25.4651 25.9129 25.2085 25.5329 24.8285L24.6564 23.952C23.5713 22.8669 23.2496 21.2497 23.8368 19.8319C24.4242 18.4141 25.7951 17.498 27.3297 17.498H28.5693C29.1067 17.498 29.627 17.6556 30.0742 17.9537L31.4446 18.8673C32.0559 19.2748 32.7674 19.4902 33.502 19.4902C33.7771 19.4902 34.0001 19.2673 34.0001 18.9922C34.0001 18.7171 33.7771 18.4941 33.502 18.4941ZM22.9165 19.4507C22.464 20.5432 22.4394 21.7292 22.7995 22.7995C21.7292 22.4394 20.5431 22.464 19.4507 22.9165C18.3582 23.3691 17.5022 24.1903 17.0001 25.2018C16.4979 24.1903 15.6419 23.3691 14.5494 22.9165C13.457 22.464 12.2709 22.4393 11.2006 22.7995C11.5607 21.7292 11.5361 20.5432 11.0836 19.4507C10.631 18.3581 9.8098 17.5022 8.79836 17C9.8098 16.4978 10.631 15.6418 11.0836 14.5493C11.5362 13.4566 11.5607 12.2704 11.2004 11.1999C11.6884 11.3642 12.2002 11.4495 12.7166 11.4495C13.3328 11.4495 13.955 11.3297 14.5495 11.0835C15.642 10.6309 16.498 9.80966 17.0001 8.79823C17.5023 9.80966 18.3583 10.6309 19.4508 11.0835C20.0453 11.3298 20.6673 11.4495 21.2837 11.4495C21.8 11.4494 22.3118 11.3641 22.7999 11.1998C22.4395 12.2703 22.464 13.4566 22.9167 14.5493C23.3692 15.6418 24.1905 16.4978 25.2019 16.9999C24.1903 17.5022 23.3691 18.3582 22.9165 19.4507Z" fill="#008D5C"/>
<path d="M17 12.0195C16.0599 12.0195 15.1431 12.284 14.3489 12.7844C14.1162 12.931 14.0464 13.2386 14.193 13.4713C14.3396 13.704 14.6473 13.7739 14.8799 13.6272C15.515 13.2271 16.248 13.0156 17 13.0156C19.197 13.0156 20.9844 14.803 20.9844 17C20.9844 19.197 19.197 20.9844 17 20.9844C14.803 20.9844 13.0156 19.197 13.0156 17C13.0156 16.248 13.2271 15.515 13.6272 14.8799C13.7738 14.6472 13.704 14.3396 13.4712 14.193C13.2385 14.0464 12.931 14.1162 12.7843 14.3489C12.284 15.1431 12.0195 16.0599 12.0195 17C12.0195 19.7462 14.2538 21.9805 17 21.9805C19.7462 21.9805 21.9805 19.7462 21.9805 17C21.9805 14.2538 19.7462 12.0195 17 12.0195Z" fill="#008D5C"/>
</svg>
