<svg width="34" height="34" viewBox="0 0 34 34" fill="none" xmlns="http://www.w3.org/2000/svg">
<path d="M30.7022 20.162C29.9542 19.448 29.1042 19.006 28.2882 18.87C27.0642 18.666 26.4522 18.972 25.9762 19.244C25.8062 19.346 25.6362 19.414 25.4322 19.482C25.5002 18.394 25.8402 18.054 26.4182 17.85C26.6902 17.748 26.8262 17.476 26.7242 17.204C26.6222 16.932 26.3502 16.796 26.0782 16.898C24.7522 17.374 24.4802 18.428 24.4122 19.482C24.2082 19.414 24.0382 19.346 23.8682 19.244C23.5962 19.108 23.2902 18.938 22.8482 18.87V6.49401C22.8482 5.20201 21.7262 4.14801 20.3662 4.14801H17.7822C17.5442 3.12801 16.6262 2.34601 15.5382 2.34601H9.0102C7.9222 2.34601 7.0042 3.12801 6.7662 4.14801H4.1822C2.8222 4.14801 1.7002 5.20201 1.7002 6.49401V29.308C1.7002 30.6 2.8222 31.654 4.1822 31.654H20.4002C20.9102 31.654 21.4202 31.484 21.8282 31.212C22.4062 31.484 22.9842 31.654 23.5622 31.654C24.0382 31.654 24.5142 31.552 24.9562 31.348C26.6902 32.198 28.8322 31.348 30.4982 29.104C32.5042 26.418 33.2182 22.508 30.7022 20.162ZM7.75219 4.65801C7.75219 3.94401 8.3302 3.36601 9.0442 3.36601H15.6062C16.3202 3.36601 16.8982 3.94401 16.8982 4.65801V5.88201C16.8982 5.91601 16.8642 5.95001 16.8302 5.95001H7.7862C7.7522 5.95001 7.7182 5.91601 7.7182 5.88201V4.65801H7.75219ZM20.4002 30.634H4.1822C3.3662 30.634 2.7202 30.022 2.7202 29.308V6.49401C2.7202 5.74601 3.3662 5.16801 4.1822 5.16801H6.6982V5.88201C6.6982 6.49401 7.1742 6.97001 7.7862 6.97001H16.7962C17.3742 6.97001 17.8842 6.49401 17.8842 5.88201V5.16801H20.4002C21.2162 5.16801 21.8622 5.78001 21.8622 6.49401V18.836C21.7602 18.836 21.6922 18.87 21.5902 18.87C20.7742 19.006 19.9582 19.448 19.1762 20.162C18.0542 21.182 17.5782 22.542 17.5782 23.936H11.0502C10.7782 23.936 10.5402 24.174 10.5402 24.446C10.5402 24.718 10.7782 24.956 11.0502 24.956H17.6802C17.8842 26.418 18.5302 27.88 19.4482 29.07C19.8902 29.648 20.3662 30.158 20.8422 30.532C20.6722 30.6 20.5362 30.634 20.4002 30.634ZM29.6822 28.492C28.5942 29.92 26.7922 31.246 25.2282 30.328C25.0582 30.226 24.8542 30.226 24.7182 30.328C23.1542 31.28 21.3522 29.92 20.2642 28.492C18.5642 26.248 17.8842 22.814 19.9242 20.91C20.5362 20.332 21.1822 19.992 21.7942 19.89C22.0322 19.856 22.2022 19.822 22.3722 19.822C22.8482 19.822 23.1202 19.958 23.4602 20.128C23.7322 20.264 24.0382 20.434 24.4802 20.536V22.066C24.0042 21.998 23.5962 21.862 23.0522 21.556C22.8142 21.42 22.5082 21.522 22.3722 21.76C22.2362 21.998 22.3382 22.304 22.5762 22.44C23.4262 22.916 24.1402 23.086 24.9902 23.086C25.8402 23.086 26.5202 22.882 27.4042 22.44C27.6422 22.304 27.7442 21.998 27.6082 21.76C27.4722 21.522 27.1662 21.42 26.9282 21.556C26.3842 21.828 25.9762 21.998 25.5002 22.066V20.536C25.9422 20.468 26.2482 20.298 26.5202 20.128C26.9622 19.89 27.3022 19.72 28.1862 19.856C28.7982 19.958 29.4442 20.332 30.0562 20.876C32.0622 22.814 31.3482 26.248 29.6822 28.492Z" fill="#008D5C"/>
<path d="M7.85438 10.336L6.18838 12.308L5.50838 11.73C5.30438 11.56 4.96438 11.56 4.79438 11.798C4.62438 12.002 4.62438 12.342 4.86238 12.512L5.91638 13.396C6.01838 13.464 6.12038 13.532 6.25638 13.532H6.29038C6.42638 13.532 6.56238 13.464 6.63038 13.362L8.63638 10.982C8.80638 10.778 8.77238 10.438 8.56838 10.268C8.36438 10.098 8.05838 10.098 7.85438 10.336Z" fill="#008D5C"/>
<path d="M7.85438 17.272L6.18838 19.244L5.50838 18.666C5.30438 18.496 4.96438 18.496 4.79438 18.734C4.62438 18.938 4.62438 19.278 4.86238 19.448L5.91638 20.332C6.01838 20.4 6.12038 20.468 6.25638 20.468H6.29038C6.42638 20.468 6.56238 20.4 6.63038 20.298L8.63638 17.918C8.80638 17.714 8.77238 17.374 8.56838 17.204C8.36438 17.034 8.05838 17.068 7.85438 17.272Z" fill="#008D5C"/>
<path d="M7.85438 24.208L6.18838 26.18L5.50838 25.602C5.30438 25.432 4.96438 25.432 4.79438 25.67C4.62438 25.874 4.62438 26.214 4.86238 26.384L5.91638 27.268C6.01838 27.336 6.12038 27.404 6.25638 27.404H6.29038C6.42638 27.404 6.56238 27.336 6.63038 27.234L8.63638 24.854C8.80638 24.65 8.77238 24.31 8.56838 24.14C8.36438 23.97 8.05838 24.004 7.85438 24.208Z" fill="#008D5C"/>
<path d="M11.05 18.054H19.38C19.652 18.054 19.89 17.816 19.89 17.544C19.89 17.272 19.652 17.034 19.38 17.034H11.05C10.778 17.034 10.54 17.272 10.54 17.544C10.54 17.816 10.778 18.054 11.05 18.054Z" fill="#008D5C"/>
<path d="M11.05 20.57H14.314C14.586 20.57 14.824 20.332 14.824 20.06C14.824 19.788 14.586 19.55 14.314 19.55H11.05C10.778 19.55 10.54 19.788 10.54 20.06C10.54 20.332 10.778 20.57 11.05 20.57Z" fill="#008D5C"/>
<path d="M11.05 11.084H19.38C19.652 11.084 19.89 10.846 19.89 10.574C19.89 10.302 19.652 10.064 19.38 10.064H11.05C10.778 10.064 10.54 10.302 10.54 10.574C10.54 10.846 10.778 11.084 11.05 11.084Z" fill="#008D5C"/>
<path d="M11.05 13.634H14.314C14.586 13.634 14.824 13.396 14.824 13.124C14.824 12.852 14.586 12.614 14.314 12.614H11.05C10.778 12.614 10.54 12.852 10.54 13.124C10.54 13.396 10.778 13.634 11.05 13.634Z" fill="#008D5C"/>
<path d="M14.314 26.486H11.05C10.778 26.486 10.54 26.724 10.54 26.996C10.54 27.268 10.778 27.506 11.05 27.506H14.314C14.586 27.506 14.824 27.268 14.824 26.996C14.824 26.724 14.62 26.486 14.314 26.486Z" fill="#008D5C"/>
</svg>
