<svg width="34" height="34" viewBox="0 0 34 34" fill="none" xmlns="http://www.w3.org/2000/svg">
<path d="M17.8171 7.27204C18.0675 7.27204 18.2704 7.06906 18.2704 6.81871V5.91204C18.2704 5.66169 18.0675 5.45871 17.8171 5.45871C17.5667 5.45871 17.3638 5.66169 17.3638 5.91204V6.81871C17.3638 7.06906 17.5667 7.27204 17.8171 7.27204Z" fill="#008D5C"/>
<path d="M17.8171 8.17871C17.5667 8.17871 17.3638 8.38169 17.3638 8.63204V9.53871C17.3638 9.78906 17.5667 9.99204 17.8171 9.99204C18.0675 9.99204 18.2704 9.78906 18.2704 9.53871V8.63204C18.2704 8.38169 18.0675 8.17871 17.8171 8.17871Z" fill="#008D5C"/>
<path d="M16.0041 8.1787H16.9108C17.1611 8.1787 17.3641 7.97572 17.3641 7.72537C17.3641 7.47501 17.1611 7.27203 16.9108 7.27203H16.0041C15.7538 7.27203 15.5508 7.47501 15.5508 7.72537C15.5508 7.97572 15.7538 8.1787 16.0041 8.1787Z" fill="#008D5C"/>
<path d="M18.7238 8.1787H19.6305C19.8809 8.1787 20.0838 7.97572 20.0838 7.72537C20.0838 7.47501 19.8809 7.27203 19.6305 7.27203H18.7238C18.4735 7.27203 18.2705 7.47501 18.2705 7.72537C18.2705 7.97572 18.4735 8.1787 18.7238 8.1787Z" fill="#008D5C"/>
<path d="M29.7826 14.2918C29.7826 11.0646 27.1573 8.43938 23.9302 8.43938C23.2101 8.43938 22.5337 8.54206 21.9196 8.74436C20.2141 9.30683 19.0794 10.9955 19.0963 12.947C19.1038 13.8047 18.6753 14.0963 18.3524 14.241C18.3019 14.2636 18.256 14.2953 18.2172 14.3342C18.2053 14.346 18.1919 14.3614 18.1816 14.3744C18.1218 14.449 18.087 14.5409 18.0826 14.6364C18.0382 15.5924 18.3203 16.5146 18.7888 17.3382C18.4743 17.4345 17.9339 17.6235 17.3471 17.922C17.2823 17.0587 17.0214 15.5908 16.0353 14.5673C15.3065 13.8114 14.3211 13.4307 13.1169 13.4563C12.0881 13.4749 11.298 13.1931 10.7998 12.6258C9.92172 11.626 10.1417 10.0171 10.1456 9.99148C10.1823 9.74418 10.0118 9.51355 9.76464 9.47638C9.51826 9.43739 9.28604 9.60943 9.24886 9.85706C9.23651 9.93968 8.95714 11.8955 10.1142 13.2188C10.7955 13.9984 11.8073 14.3809 13.1312 14.363C14.0788 14.3455 14.8328 14.6277 15.3797 15.1937C16.3876 16.2365 16.4601 17.9712 16.46 18.4518C15.9812 18.7917 15.5418 19.2162 15.2339 19.7289C15.1152 19.2254 14.9444 18.7652 14.7114 18.4009C14.224 17.6385 13.609 17.5003 13.1796 17.4934C12.209 17.5084 11.4005 18.0367 10.7862 18.6455C10.2758 18.165 9.62411 17.6832 8.94864 17.882C8.25822 18.085 7.81089 18.8776 7.40425 20.6184C7.18087 21.574 7.49129 22.157 7.79094 22.478C8.40476 23.1354 9.48652 23.2797 10.3193 23.2797C10.6141 23.2797 10.8762 23.2616 11.0767 23.2417C10.9539 24.6578 11.0993 26.4953 12.3444 27.7023C13.0802 28.4155 14.2168 28.7823 15.6353 28.7823C16.2279 28.7823 16.8696 28.7183 17.5516 28.5886C19.526 28.2136 21.6174 27.311 23.0092 26.2327C26.5129 23.5191 26.5928 20.8888 26.4953 19.9814C28.4308 18.8748 29.7826 16.5873 29.7826 14.2918ZM25.5549 19.4429C25.3241 19.54 25.2158 19.8059 25.3132 20.0366C25.3688 20.1685 25.4811 20.2537 25.6088 20.2902C25.638 21.1513 25.3627 23.2635 22.454 25.5164C19.7431 27.6155 14.7369 28.7586 12.9754 27.0518C11.153 25.2851 12.3133 21.5061 12.3253 21.4683C12.4003 21.2295 12.268 20.9748 12.0294 20.8998C11.789 20.8243 11.5362 20.9569 11.4607 21.1953C11.4436 21.2493 11.311 21.6814 11.1992 22.3135C10.5439 22.4035 9.02208 22.4694 8.45292 21.8588C8.23374 21.6236 8.17934 21.2853 8.28689 20.8249C8.6805 19.1404 9.03047 18.8033 9.20421 18.7521C9.31188 18.7204 9.58694 18.7603 10.1892 19.3292C9.7371 19.9227 9.47961 20.4438 9.45536 20.4941C9.34712 20.7194 9.44187 20.9899 9.66718 21.0986C9.89248 21.2077 10.1637 21.1125 10.2724 20.8875C10.2842 20.8626 11.4821 18.4267 13.1935 18.4004C13.3009 18.3966 13.6299 18.3934 13.9474 18.8897C14.7052 20.0744 14.6684 22.8473 14.2173 23.7849C14.1088 24.0107 14.2038 24.2815 14.4293 24.3901C14.4929 24.4205 14.5597 24.4349 14.6256 24.4349C14.7943 24.4349 14.9563 24.3404 15.0344 24.1781C15.2094 23.8143 15.337 23.2584 15.4006 22.6207C15.4252 22.6442 15.4433 22.6705 15.4694 22.6934C16.4643 23.5662 18.4235 23.7585 19.9582 23.7585C21.0121 23.7585 21.8658 23.6678 22.0688 23.6441C22.3176 23.6153 22.4958 23.3904 22.467 23.1418C22.4385 22.893 22.2132 22.7152 21.9648 22.7435C20.7207 22.8872 17.2354 23.0366 16.0672 22.0115C15.8282 21.8018 15.7146 21.567 15.7102 21.2725C15.6819 19.4403 18.2823 18.3889 19.2869 18.1383C19.2975 18.1357 19.3049 18.1282 19.3151 18.125C19.7016 18.6276 20.1494 19.0775 20.6195 19.453C19.6868 19.7166 18.9372 20.123 18.8942 20.1467C18.6746 20.267 18.5939 20.5422 18.7142 20.7619C18.7966 20.9124 18.952 20.9976 19.1123 20.9976C19.1857 20.9976 19.2604 20.9797 19.3294 20.9419C19.3422 20.9349 20.6297 20.2368 21.8165 20.1461C22.0337 20.1296 22.2025 19.9591 22.2267 19.7426C22.2475 19.5561 22.1474 19.3784 21.9863 19.2916C20.5001 18.4434 19.0403 16.7026 18.986 14.9311C19.6605 14.5247 20.0107 13.8419 20.0027 12.9389C19.9895 11.3834 20.8738 10.0438 22.2032 9.60535C22.7256 9.43308 23.3064 9.34593 23.93 9.34593C26.657 9.34593 28.8757 11.5645 28.8757 14.2917C28.8759 16.4655 27.4792 18.6317 25.5549 19.4429Z" fill="#008D5C"/>
<path d="M20.8796 15.1472C21.13 15.1472 21.3329 14.9443 21.3329 14.6939C21.3329 14.4435 21.13 14.2406 20.8796 14.2406C20.6292 14.2406 20.4263 14.4435 20.4263 14.6939C20.4263 14.9443 20.6292 15.1472 20.8796 15.1472Z" fill="#008D5C"/>
<path d="M24.0461 5.93731C24.3138 5.93731 24.5308 5.72028 24.5308 5.4527C24.5308 5.18512 24.3137 4.96797 24.0461 4.96797C23.7786 4.96797 23.5615 5.18501 23.5615 5.4527C23.5615 5.72039 23.7784 5.93731 24.0461 5.93731Z" fill="#008D5C"/>
<path d="M12.2595 8.20397C12.5272 8.20397 12.7441 7.98694 12.7441 7.71936C12.7441 7.45178 12.5271 7.23463 12.2595 7.23463C11.9919 7.23463 11.7749 7.45167 11.7749 7.71936C11.7749 7.98705 11.9918 8.20397 12.2595 8.20397Z" fill="#008D5C"/>
<path d="M5.80395 25.8587C4.92913 25.8587 4.21729 26.5706 4.21729 27.4454C4.21729 28.3202 4.92913 29.032 5.80395 29.032C6.67877 29.032 7.39062 28.3202 7.39062 27.4454C7.39062 26.5706 6.67877 25.8587 5.80395 25.8587ZM5.80395 28.1254C5.42893 28.1254 5.12395 27.8204 5.12395 27.4454C5.12395 27.0704 5.42893 26.7654 5.80395 26.7654C6.17897 26.7654 6.48395 27.0704 6.48395 27.4454C6.48395 27.8204 6.17897 28.1254 5.80395 28.1254Z" fill="#008D5C"/>
</svg>
