<svg width="258" height="258" viewBox="0 0 258 258" fill="none" xmlns="http://www.w3.org/2000/svg">
<path d="M113.185 45.2687H39.9539V146.265H113.185V45.2687Z" fill="#E0E0E0"/>
<path d="M109.149 47.7919H43.0808V143.216H109.149V47.7919Z" fill="#FAFAFA" stroke="#FAFAFA" stroke-miterlimit="10"/>
<path d="M110.367 75.1451H42.7712V76.6518H110.367V75.1451Z" fill="#E0E0E0"/>
<path d="M75.3618 75.1451V143.639H76.8685V75.1451H75.3618Z" fill="#E0E0E0"/>
<path d="M124.836 35.764H28.6793V37.6371H124.836V35.764Z" fill="#E0E0E0"/>
<path d="M28.6793 42.1985C28.6793 42.1985 29.5565 143.195 28.7051 143.195H47.6939V42.1985H28.6793Z" fill="#EBEBEB"/>
<path d="M33.4316 44.376C33.2988 42.9784 33.254 41.5738 33.2975 40.1706C33.254 38.7674 33.2988 37.3628 33.4316 35.9652C33.5675 37.3626 33.6123 38.7674 33.5658 40.1706C33.6123 41.5738 33.5675 42.9786 33.4316 44.376Z" fill="#E0E0E0"/>
<path d="M30.8723 44.376C30.7364 42.9786 30.6916 41.5738 30.7381 40.1706C30.6916 38.7674 30.7364 37.3626 30.8723 35.9652C31.0051 37.3628 31.0499 38.7674 31.0064 40.1706C31.0499 41.5738 31.0051 42.9784 30.8723 44.376Z" fill="#E0E0E0"/>
<path d="M36.378 44.376C36.2421 42.9786 36.1973 41.5738 36.2439 40.1706C36.1973 38.7674 36.2421 37.3626 36.378 35.9652C36.5108 37.3628 36.5556 38.7674 36.5122 40.1706C36.5556 41.5738 36.5108 42.9784 36.378 44.376Z" fill="#E0E0E0"/>
<path d="M39.3192 44.376C39.1864 42.9784 39.1416 41.5738 39.1851 40.1706C39.1416 38.7674 39.1864 37.3628 39.3192 35.9652C39.4551 37.3626 39.4999 38.7674 39.4534 40.1706C39.4999 41.5738 39.4551 42.9786 39.3192 44.376Z" fill="#E0E0E0"/>
<path d="M42.2656 44.376C42.1328 42.9784 42.088 41.5738 42.1314 40.1706C42.088 38.7674 42.1328 37.3628 42.2656 35.9652C42.3984 37.3628 42.4432 38.7674 42.3997 40.1706C42.4432 41.5738 42.3984 42.9784 42.2656 44.376Z" fill="#E0E0E0"/>
<path d="M45.0984 44.376C44.9625 42.9786 44.9177 41.5738 44.9643 40.1706C44.9177 38.7674 44.9625 37.3626 45.0984 35.9652C45.2312 37.3628 45.276 38.7674 45.2326 40.1706C45.276 41.5738 45.2312 42.9784 45.0984 44.376Z" fill="#E0E0E0"/>
<path d="M105.187 42.1985C105.187 42.1985 106.064 143.195 105.218 143.195H124.206V42.1985H105.187Z" fill="#EBEBEB"/>
<path d="M109.944 44.376C109.811 42.9784 109.767 41.5738 109.81 40.1706C109.767 38.7674 109.811 37.3628 109.944 35.9652C110.077 37.3628 110.122 38.7674 110.078 40.1706C110.122 41.5738 110.077 42.9784 109.944 44.376Z" fill="#E0E0E0"/>
<path d="M107.38 44.376C107.247 42.9784 107.202 41.5738 107.245 40.1706C107.202 38.7674 107.247 37.3628 107.38 35.9652C107.516 37.3626 107.56 38.7674 107.514 40.1706C107.56 41.5738 107.516 42.9786 107.38 44.376Z" fill="#E0E0E0"/>
<path d="M112.89 44.376C112.755 42.9786 112.71 41.5738 112.756 40.1706C112.71 38.7674 112.755 37.3626 112.89 35.9652C113.023 37.3628 113.068 38.7674 113.025 40.1706C113.068 41.5738 113.023 42.9784 112.89 44.376Z" fill="#E0E0E0"/>
<path d="M115.832 44.376C115.699 42.9784 115.654 41.5738 115.698 40.1706C115.654 38.7674 115.699 37.3628 115.832 35.9652C115.964 37.3628 116.009 38.7674 115.966 40.1706C116.009 41.5738 115.964 42.9784 115.832 44.376Z" fill="#E0E0E0"/>
<path d="M118.778 44.376C118.642 42.9786 118.597 41.5738 118.644 40.1706C118.597 38.7674 118.642 37.3626 118.778 35.9652C118.911 37.3628 118.956 38.7674 118.912 40.1706C118.956 41.5738 118.911 42.9784 118.778 44.376Z" fill="#E0E0E0"/>
<path d="M121.606 44.376C121.473 42.9784 121.428 41.5738 121.472 40.1706C121.428 38.7674 121.473 37.3628 121.606 35.9652C121.742 37.3626 121.786 38.7674 121.74 40.1706C121.786 41.5738 121.742 42.9786 121.606 44.376Z" fill="#E0E0E0"/>
<path d="M178.742 224.878V240.043H200.92H225.378V224.878H178.742Z" fill="#EBEBEB"/>
<path d="M176.787 220.642V224.878H227.009V220.642H200.92H176.787Z" fill="#F5F5F5"/>
<path d="M201.9 240.043H225.378V224.878H227.009V220.642H200.92V224.486L201.9 240.043Z" fill="#E0E0E0"/>
<path d="M194.723 227.324H185.265V229.605H194.723V227.324Z" fill="#E0E0E0"/>
<path d="M196.194 232.463H184.047V237.283H196.194V232.463Z" fill="#FAFAFA"/>
<path d="M190.595 204.011L190.528 198.309L210.502 200.017L211.127 205.657L190.595 204.011Z" fill="#EBEBEB"/>
<path d="M194.907 200.903L194.819 201.926L207.312 202.995L207.4 201.972L194.907 200.903Z" fill="#E0E0E0"/>
<path d="M188.211 198.598L188.206 192.896L208.165 194.816L208.67 199.914L188.211 198.598Z" fill="#E0E0E0"/>
<path d="M188.206 193.67L188.196 197.52L207.644 198.949L207.319 195.404L188.206 193.67Z" fill="white"/>
<path d="M206.168 196.88C205.933 196.905 205.696 196.905 205.461 196.88L203.552 196.73C201.937 196.591 199.707 196.384 197.251 196.137C194.795 195.889 192.571 195.647 190.961 195.461L189.057 195.223C188.821 195.206 188.588 195.165 188.361 195.1C188.596 195.078 188.832 195.078 189.068 195.1L190.977 195.249C192.592 195.389 194.816 195.6 197.277 195.848C199.738 196.096 201.962 196.333 203.567 196.524L205.471 196.756C205.707 196.773 205.941 196.815 206.168 196.88Z" fill="#E0E0E0"/>
<path d="M206.127 197.36C205.89 197.385 205.651 197.385 205.414 197.36L203.485 197.267C201.859 197.179 199.609 197.04 197.127 196.864C194.646 196.689 192.396 196.524 190.77 196.384L188.846 196.209C188.609 196.201 188.373 196.166 188.144 196.106C188.381 196.083 188.619 196.083 188.856 196.106L190.786 196.194C192.416 196.281 194.666 196.426 197.148 196.596C199.63 196.766 201.875 196.942 203.5 197.081L205.425 197.257C205.661 197.27 205.896 197.305 206.127 197.36Z" fill="#E0E0E0"/>
<path d="M190.822 209.264L190.75 203.562L210.729 205.254L211.297 210.347L190.822 209.264Z" fill="#E0E0E0"/>
<path d="M193.025 209.383C192.855 208.457 192.774 207.517 192.783 206.575C192.699 205.638 192.708 204.694 192.809 203.758C192.976 204.684 193.057 205.624 193.051 206.565C193.132 207.503 193.123 208.446 193.025 209.383Z" fill="#F5F5F5"/>
<path d="M193.779 203.82C193.93 204.746 193.996 205.684 193.975 206.622C194.04 207.558 194.014 208.498 193.897 209.429C193.746 208.503 193.68 207.565 193.701 206.627C193.636 205.691 193.662 204.751 193.779 203.82Z" fill="#F5F5F5"/>
<path d="M195.595 206.328C199.078 206.715 203.17 206.937 206.71 207.251L195.595 206.328Z" fill="white"/>
<path d="M206.71 207.251C206.164 207.277 205.617 207.263 205.074 207.21C204.068 207.153 202.68 207.066 201.142 206.952C199.604 206.839 198.216 206.71 197.21 206.591C196.665 206.554 196.124 206.466 195.595 206.328C196.141 206.311 196.688 206.335 197.231 206.4L201.163 206.684C202.711 206.797 204.088 206.916 205.089 207.019C205.635 207.048 206.178 207.126 206.71 207.251Z" fill="#F5F5F5"/>
<path d="M208.17 210.182C207.996 209.344 207.91 208.49 207.912 207.633C207.821 206.784 207.821 205.928 207.912 205.079C208.086 205.916 208.173 206.768 208.17 207.623C208.26 208.474 208.26 209.332 208.17 210.182Z" fill="#F5F5F5"/>
<path d="M209.403 210.244C209.183 209.413 209.054 208.56 209.016 207.7C208.887 206.847 208.848 205.982 208.897 205.12C209.114 205.951 209.244 206.802 209.284 207.659C209.413 208.514 209.453 209.381 209.403 210.244Z" fill="#F5F5F5"/>
<path d="M198.562 207.607C200.76 207.757 202.437 207.865 204.192 207.907L198.562 207.607Z" fill="white"/>
<path d="M204.192 207.907C203.253 207.995 202.308 207.995 201.369 207.907C200.426 207.901 199.487 207.806 198.562 207.623C199.501 207.532 200.446 207.532 201.384 207.623C202.327 207.63 203.267 207.725 204.192 207.907Z" fill="#F5F5F5"/>
<path d="M192.164 220.399L191.787 214.708L211.828 215.342L212.664 220.394L192.164 220.399Z" fill="#E0E0E0"/>
<path d="M192.958 219.682L212.458 219.403L211.916 215.863L192.592 215.507L192.958 219.682Z" fill="#FAFAFA"/>
<path d="M192.711 214.821L192.525 209.125L212.53 210.43L213.196 215.502L192.711 214.821Z" fill="#EBEBEB"/>
<path d="M196.951 211.615L196.885 212.64L209.397 213.453L209.464 212.429L196.951 211.615Z" fill="#E0E0E0"/>
<path d="M212.117 217.319C211.864 217.364 211.606 217.383 211.348 217.375L209.284 217.427C207.52 217.458 205.089 217.484 202.401 217.494C199.713 217.504 197.282 217.494 195.518 217.494L193.454 217.463C193.196 217.471 192.939 217.453 192.685 217.411C192.937 217.369 193.193 217.35 193.448 217.355L195.538 217.303C197.298 217.272 199.733 217.251 202.422 217.241C205.11 217.231 207.546 217.241 209.305 217.241L211.369 217.277C211.619 217.269 211.87 217.283 212.117 217.319Z" fill="#E0E0E0"/>
<path d="M212.344 218.423C212.089 218.464 211.829 218.48 211.57 218.469H209.47C207.695 218.469 205.244 218.469 202.54 218.413C199.836 218.356 197.38 218.33 195.61 218.278L193.5 218.216C193.242 218.222 192.985 218.201 192.731 218.155C192.986 218.117 193.243 218.103 193.5 218.113H195.6C197.375 218.113 199.826 218.113 202.535 218.17C205.244 218.227 207.695 218.258 209.465 218.304L211.565 218.376C211.826 218.372 212.086 218.388 212.344 218.423Z" fill="#E0E0E0"/>
<path d="M43.6072 182.37C41.0994 182.772 39.9952 185.853 40.2016 188.386C40.408 190.92 41.4606 193.387 41.182 195.91C40.8259 199.119 38.4059 201.828 38.1221 205.038C37.7918 208.825 40.4699 212.19 41.2697 215.905C41.6567 217.716 41.6051 219.63 42.3017 221.354C42.878 222.818 43.9435 224.038 45.3172 224.805C46.6909 225.573 48.288 225.841 49.8371 225.565C51.3862 225.288 52.7917 224.483 53.8149 223.288C54.838 222.092 55.4155 220.579 55.4494 219.006C55.5061 216.096 53.7104 213.356 53.9014 210.451C54.0665 208.309 55.3204 206.276 55.052 204.145C54.7321 201.606 52.3792 199.8 51.5484 197.38C50.7176 194.96 51.5174 192.293 51.2285 189.749C50.7125 185.187 48.1841 182.009 43.6072 182.37Z" fill="#F5F5F5"/>
<path d="M30.8052 204.465C30.3769 208.691 32.25 213.665 34.4172 217.319C36.6203 220.991 39.9346 223.868 43.8807 225.533C44.3244 225.719 44.8765 225.874 45.2481 225.569C45.3798 225.424 45.4788 225.252 45.5384 225.065C45.5981 224.878 45.6169 224.681 45.5938 224.486C45.6235 219.998 44.198 215.621 41.5309 212.012C38.8638 208.402 35.0988 205.755 30.8001 204.465" fill="#EBEBEB"/>
<path d="M49.2213 234.372C49.1735 234.298 49.1338 234.218 49.1026 234.135C49.0252 233.954 48.922 233.727 48.8033 233.444C48.5453 232.84 48.1686 231.973 47.6836 230.905C46.4241 228.125 45.0222 225.413 43.4833 222.778C41.9408 220.145 40.265 217.593 38.4627 215.131C37.7712 214.186 37.2036 213.428 36.8011 212.912L36.3471 212.308C36.2893 212.24 36.2392 212.165 36.1974 212.086C36.2666 212.143 36.3289 212.207 36.3832 212.277L36.8734 212.85C37.2965 213.366 37.9054 214.094 38.602 215.028C40.4493 217.468 42.1499 220.017 43.6949 222.659C45.232 225.301 46.6104 228.032 47.8229 230.838C48.2873 231.911 48.6433 232.793 48.8549 233.418C48.9633 233.707 49.0458 233.934 49.1181 234.13C49.1648 234.205 49.1996 234.287 49.2213 234.372Z" fill="#E0E0E0"/>
<path d="M46.5019 194.068C46.5019 194.068 46.5019 194.207 46.5484 194.475C46.5948 194.744 46.5948 195.146 46.6309 195.636C46.698 196.668 46.7909 198.129 46.9044 199.919C47.1366 203.531 47.4565 208.536 47.8435 214.052C48.2305 219.568 48.6175 224.563 48.8755 228.18C49.0097 229.971 49.1232 231.426 49.2006 232.458C49.2367 232.948 49.2625 233.335 49.2832 233.624C49.2957 233.76 49.2957 233.896 49.2832 234.032C49.2499 233.9 49.2292 233.765 49.2212 233.629L49.0974 232.468C48.9994 231.436 48.8652 229.981 48.6949 228.191C48.3698 224.579 47.9622 219.589 47.5752 214.068C47.1882 208.547 46.8889 203.552 46.7083 199.929C46.6206 198.139 46.5535 196.679 46.5071 195.641C46.5071 195.151 46.4761 194.764 46.4658 194.475C46.4653 194.339 46.4774 194.202 46.5019 194.068Z" fill="#E0E0E0"/>
<path d="M42.6113 228.346H53.1996V236.116C53.1996 237.464 52.6641 238.757 51.711 239.71C50.7578 240.664 49.465 241.199 48.117 241.199C46.816 241.2 45.5643 240.701 44.6197 239.807C43.6751 238.912 43.1096 237.689 43.0396 236.39L42.6113 228.346Z" fill="#E0E0E0"/>
<path d="M196.529 44.1644L193.732 70.1089H229.558L232.53 44.1644H196.529Z" fill="#EBEBEB"/>
<path d="M198.005 46.0272L195.285 68.7312H227.618L230.234 46.0272H198.005Z" fill="#FAFAFA"/>
<path d="M203.443 49.8456L201.771 64.9128H222.174L223.222 49.8456H203.443Z" fill="#E0E0E0"/>
<path d="M231.251 55.3359L238.65 70.2173L229.558 70.1089L231.364 54.3658" fill="#F5F5F5"/>
<path d="M238.774 73.1998H235.549V81.27H238.774V73.1998Z" fill="#E0E0E0"/>
<path d="M191.575 73.1998H188.35V81.27H191.575V73.1998Z" fill="#E0E0E0"/>
<path d="M244.677 70.2689H181.725V73.6745H244.677V70.2689Z" fill="#E0E0E0"/>
<path d="M234.811 240.203C234.811 240.275 187.432 240.337 129.031 240.337C70.6301 240.337 23.2148 240.275 23.2148 240.203C23.2148 240.131 70.5836 240.069 129.031 240.069C187.478 240.069 234.811 240.126 234.811 240.203Z" fill="#263238"/>
<path d="M174.764 165.486C165.863 159.294 163.84 147.726 164.196 137.349C164.253 135.62 164.062 133.794 164.888 132.271C165.713 130.749 167.633 129.717 169.181 130.445C170.471 131.049 171.028 132.545 171.761 133.783C172.722 135.434 174.13 136.779 175.822 137.664C176.926 138.236 178.288 138.587 179.377 137.984C180.873 137.163 181.049 135.099 181.039 133.376L180.977 123.742C180.977 122.024 180.977 120.264 181.493 118.628C182.009 116.993 183.211 115.476 184.847 115.016C186.482 114.557 188.515 115.501 188.861 117.189C188.926 117.901 188.941 118.616 188.908 119.33C188.959 120.047 189.289 120.837 189.971 121.038C190.652 121.239 191.348 120.749 191.859 120.249C193.639 118.51 194.847 116.265 195.987 114.057C197.127 111.848 198.211 109.547 199.821 107.648C201.431 105.749 203.665 104.248 206.132 104.108C208.598 103.969 211.23 105.491 211.854 107.911C212.479 110.331 211.044 112.792 209.496 114.753C207.208 117.67 204.511 120.24 201.488 122.385C200.901 122.717 200.435 123.226 200.156 123.84C199.78 124.991 200.868 126.131 202.004 126.508C203.289 126.936 204.682 126.802 206.023 126.962C207.365 127.122 208.82 127.71 209.331 128.979C210.033 130.739 208.562 132.591 207.112 133.794C204.21 136.216 200.913 138.12 197.365 139.423C196.095 139.888 194.785 140.29 193.753 141.183C192.721 142.075 192.112 143.618 192.721 144.836C193.33 146.054 194.924 146.436 196.25 146.188C197.576 145.94 198.768 145.223 200.033 144.748C202.396 143.856 205.456 144.016 206.973 146.064C207.969 147.406 208.056 149.279 207.551 150.884C206.971 152.462 206.084 153.909 204.94 155.141C201.188 159.647 196.307 163.077 190.796 165.079C185.306 166.983 180.218 167.499 174.764 165.502" fill="#008D5C"/>
<path d="M209.341 105.537C209.29 105.595 209.235 105.648 209.176 105.697L208.66 106.157C208.211 106.554 207.546 107.142 206.71 107.921C204.343 110.121 202.144 112.495 200.131 115.022C198.846 116.621 197.514 118.427 196.121 120.393C194.728 122.359 193.257 124.48 191.792 126.761C190.24 129.133 188.82 131.589 187.54 134.119C186.875 135.435 186.286 136.812 185.677 138.221C185.069 139.63 184.47 141.049 183.851 142.488C181.499 147.896 179.451 153.431 177.716 159.067C176.317 163.678 175.354 168.41 174.841 173.201C174.509 176.432 174.455 179.686 174.681 182.927C174.774 184.073 174.862 184.965 174.939 185.564C174.976 185.853 175.001 186.08 175.022 186.25C175.029 186.329 175.029 186.409 175.022 186.488C174.999 186.411 174.982 186.334 174.97 186.255C174.945 186.085 174.909 185.863 174.862 185.574C174.759 184.976 174.651 184.088 174.542 182.937C174.269 179.69 174.289 176.424 174.604 173.18C175.087 168.367 176.031 163.612 177.421 158.98C179.143 153.328 181.188 147.781 183.546 142.364L185.378 138.092C185.982 136.688 186.58 135.3 187.246 133.964C188.538 131.426 189.968 128.961 191.529 126.58C193.005 124.299 194.491 122.189 195.889 120.223C197.287 118.257 198.645 116.456 199.94 114.867C201.981 112.352 204.219 110.004 206.632 107.844C207.478 107.08 208.18 106.502 208.624 106.121L209.14 105.687C209.202 105.631 209.269 105.581 209.341 105.537Z" fill="#263238"/>
<path d="M187.36 133.964C187.276 133.727 187.218 133.481 187.189 133.231C187.102 132.757 186.993 132.06 186.869 131.203C186.627 129.49 186.353 127.111 186.101 124.495C185.848 121.879 185.538 119.5 185.27 117.787C185.141 116.936 185.027 116.239 184.94 115.77C184.881 115.525 184.848 115.274 184.842 115.022C184.943 115.253 185.016 115.495 185.058 115.744C185.182 116.214 185.332 116.895 185.492 117.746C185.817 119.454 186.142 121.828 186.415 124.454C186.689 127.081 186.931 129.392 187.091 131.162C187.179 131.967 187.251 132.648 187.313 133.195C187.357 133.449 187.373 133.707 187.36 133.964Z" fill="#263238"/>
<path d="M209.496 129.826C209.204 129.89 208.907 129.926 208.608 129.934C208.041 129.986 207.22 130.053 206.209 130.171C204.176 130.388 201.384 130.791 198.325 131.363C195.265 131.936 192.53 132.612 190.559 133.128C189.568 133.381 188.773 133.608 188.221 133.763C187.942 133.862 187.653 133.933 187.36 133.974C187.625 133.841 187.901 133.731 188.185 133.644C188.727 133.453 189.511 133.19 190.497 132.906C192.463 132.328 195.208 131.647 198.278 131.059C200.896 130.555 203.538 130.187 206.194 129.955C207.226 129.867 208.041 129.831 208.614 129.82C208.907 129.796 209.203 129.798 209.496 129.826Z" fill="#263238"/>
<path d="M177.71 158.572C177.647 158.491 177.597 158.4 177.561 158.304L177.184 157.504C176.854 156.807 176.41 155.786 175.879 154.516C174.81 151.978 173.443 148.427 171.988 144.49C170.533 140.553 169.207 136.993 168.19 134.434C167.674 133.195 167.282 132.173 166.983 131.41C166.849 131.08 166.745 130.811 166.658 130.589C166.612 130.495 166.581 130.394 166.565 130.29C166.628 130.373 166.679 130.465 166.714 130.564C166.818 130.775 166.941 131.043 167.091 131.363C167.421 132.06 167.865 133.082 168.397 134.351C169.465 136.885 170.832 140.435 172.287 144.377C173.742 148.319 175.068 151.874 176.085 154.429L177.292 157.452C177.427 157.783 177.53 158.056 177.618 158.278C177.662 158.371 177.693 158.47 177.71 158.572Z" fill="#263238"/>
<path d="M207.138 149.088C207.047 149.141 206.95 149.183 206.849 149.212L205.992 149.496L202.845 150.528C200.182 151.389 196.519 152.628 192.478 153.995C188.438 155.362 184.738 156.575 182.076 157.375C180.734 157.777 179.651 158.092 178.892 158.298L178.02 158.526C177.824 158.577 177.716 158.598 177.71 158.582C177.803 158.53 177.902 158.491 178.005 158.464L178.861 158.18L182.009 157.148C184.671 156.286 188.33 155.048 192.375 153.68C196.421 152.313 200.115 151.1 202.778 150.3C204.114 149.898 205.203 149.578 205.956 149.377L206.828 149.15C206.928 149.115 207.032 149.095 207.138 149.088Z" fill="#263238"/>
<path d="M181.854 163.35C182.755 163.349 183.641 163.11 184.42 162.657C185.199 162.204 185.845 161.553 186.291 160.77C186.724 159.98 186.995 159.112 187.088 158.216C187.181 157.321 187.094 156.415 186.833 155.553C186.606 154.754 186.193 153.923 185.43 153.593C185.063 153.46 184.668 153.428 184.285 153.5C183.903 153.571 183.546 153.744 183.252 154C182.671 154.52 182.237 155.184 181.993 155.925C181.049 158.422 180.6 161.002 181.854 163.355" fill="#455A64"/>
<path d="M180.894 168.144C182.795 168.077 184.684 168.463 186.406 169.271C188.127 170.078 189.632 171.284 190.796 172.788C191.379 173.557 191.875 174.614 191.384 175.445C190.894 176.276 189.718 176.359 188.768 176.193C186.785 175.822 184.956 174.871 183.513 173.46C182.07 172.049 181.078 170.242 180.662 168.268" fill="#455A64"/>
<path d="M203.995 161.467C203.512 160.822 202.903 160.281 202.205 159.878C201.507 159.474 200.735 159.216 199.935 159.119C198.33 158.934 196.704 159.12 195.182 159.661C192.22 160.615 189.506 162.958 187.442 165.306C190.187 167.406 194.191 167.205 196.214 166.978C199.413 166.616 204.986 164.021 203.954 161.467" fill="#455A64"/>
<path d="M173.892 168.417C174.399 168.296 174.899 168.144 175.388 167.963C177.197 167.189 178.893 166.173 180.43 164.945C181.977 163.691 183.156 162.042 183.84 160.172C184.035 159.602 184.16 159.011 184.212 158.412C184.246 158.193 184.246 157.97 184.212 157.752C184.074 158.541 183.875 159.319 183.619 160.079C182.886 161.87 181.715 163.449 180.213 164.671C178.693 165.874 177.042 166.901 175.29 167.731" fill="#263238"/>
<path d="M173.825 168.428L176.689 167.793C179.109 167.251 182.452 166.513 186.152 165.729C189.852 164.945 193.216 164.315 195.652 163.851L198.536 163.293C198.887 163.242 199.232 163.16 199.568 163.046C199.208 163.057 198.849 163.095 198.495 163.159C197.809 163.252 196.818 163.407 195.595 163.608C193.144 164.011 189.774 164.64 186.07 165.388C182.365 166.137 179.021 166.936 176.616 167.535C175.414 167.834 174.444 168.087 173.773 168.273" fill="#263238"/>
<path d="M187.824 172.974C187.735 172.785 187.619 172.611 187.478 172.458C187.338 172.257 187.183 172.067 187.014 171.89C186.801 171.643 186.573 171.409 186.333 171.188C185.716 170.605 185.042 170.087 184.32 169.64C183.434 169.099 182.491 168.656 181.508 168.319C180.517 167.998 179.495 167.784 178.459 167.679C177.614 167.601 176.763 167.61 175.92 167.705C175.595 167.734 175.273 167.784 174.955 167.855C174.714 167.894 174.476 167.95 174.243 168.025C173.856 168.139 173.778 168.283 173.784 168.304C174.496 168.147 175.216 168.029 175.941 167.948C176.769 167.892 177.602 167.909 178.428 167.999C180.452 168.22 182.405 168.873 184.155 169.914C184.868 170.339 185.542 170.828 186.168 171.374C187.241 172.298 187.778 173.015 187.824 172.974Z" fill="#263238"/>
<path d="M164.222 196.797L106.673 196.529C105.027 196.521 103.398 196.19 101.881 195.553C100.363 194.916 98.9852 193.987 97.8266 192.818C96.6681 191.649 95.7511 190.263 95.1281 188.739C94.5051 187.216 94.1883 185.584 94.1958 183.939L94.8047 39.6701C94.8121 38.0235 95.1438 36.3944 95.7808 34.876C96.4178 33.3576 97.3477 31.9795 98.5173 30.8204C99.6869 29.6613 101.073 28.744 102.598 28.1208C104.122 27.4975 105.754 27.1806 107.4 27.1881L164.945 27.4564C168.268 27.4714 171.449 28.8056 173.789 31.1657C176.128 33.5257 177.435 36.7184 177.421 40.0416L176.813 184.31C176.806 185.957 176.476 187.586 175.84 189.105C175.204 190.624 174.274 192.003 173.105 193.163C171.936 194.322 170.549 195.24 169.025 195.864C167.501 196.488 165.869 196.805 164.222 196.797Z" fill="#263238"/>
<path d="M164.862 32.4358L153.706 32.3842C153.342 32.3902 152.984 32.4679 152.65 32.6129C152.316 32.7578 152.015 32.9671 151.762 33.2288C151.509 33.4905 151.311 33.7995 151.178 34.138C151.045 34.4765 150.98 34.8379 150.987 35.2015V37.2243C150.994 37.5882 150.929 37.9498 150.796 38.2886C150.663 38.6275 150.464 38.9367 150.212 39.1989C149.959 39.461 149.658 39.6708 149.324 39.8162C148.99 39.9617 148.631 40.0401 148.267 40.0468L126.518 39.9436C125.784 39.9233 125.087 39.6127 124.581 39.0797C124.075 38.5468 123.801 37.835 123.819 37.1004L123.84 35.088C123.858 34.3534 123.584 33.6417 123.078 33.1087C122.572 32.5758 121.876 32.2651 121.141 32.2449H117.22L107.452 32.1984C106.296 32.1923 105.15 32.4147 104.081 32.8528C103.011 33.2909 102.039 33.936 101.219 34.7512C100.4 35.5664 99.7493 36.5355 99.3056 37.6028C98.8618 38.6701 98.6334 39.8146 98.6334 40.9704L98.04 181.73C98.0346 182.882 98.2563 184.025 98.6924 185.091C99.1286 186.158 99.7706 187.128 100.582 187.947C101.393 188.765 102.358 189.416 103.421 189.861C104.483 190.307 105.623 190.539 106.776 190.543L164.207 190.812C165.363 190.818 166.508 190.595 167.578 190.157C168.647 189.719 169.62 189.074 170.439 188.259C171.259 187.444 171.909 186.475 172.353 185.407C172.797 184.34 173.025 183.196 173.025 182.04L173.624 41.2233C173.626 40.0709 173.401 38.9294 172.961 37.864C172.522 36.7986 171.877 35.8302 171.064 35.0142C170.25 34.1981 169.283 33.5504 168.219 33.108C167.155 32.6655 166.014 32.4371 164.862 32.4358Z" fill="#FAFAFA"/>
<path d="M144.366 49.1439H129.552V51.8632H144.366V49.1439Z" fill="#455A64"/>
<path d="M112.065 72.0491C112.183 72.0519 112.301 72.0675 112.416 72.0955C112.522 72.0674 112.631 72.0518 112.741 72.0491H112.065Z" fill="#455A64"/>
<path d="M116.126 64.5877C115.854 64.2118 115.523 63.8824 115.145 63.6125C114.355 63.0292 113.398 62.7145 112.416 62.7145C111.433 62.7145 110.477 63.0292 109.686 63.6125C109.307 63.8823 108.974 64.2116 108.701 64.5877C108.43 64.9407 108.218 65.3343 108.071 65.7539C107.802 66.4818 107.719 67.2655 107.831 68.0335C107.943 68.8015 108.245 69.5292 108.711 70.1502C108.768 70.2276 108.83 70.2947 108.886 70.3618C109.078 69.7456 109.444 69.1982 109.94 68.786C110.437 68.3738 111.042 68.1146 111.683 68.0398C111.282 67.8647 110.942 67.5757 110.705 67.2087C110.467 66.8417 110.342 66.413 110.347 65.9758C110.326 65.6883 110.366 65.3997 110.462 65.1281C110.558 64.8564 110.709 64.6074 110.905 64.3966C111.102 64.1858 111.34 64.0177 111.604 63.9028C111.868 63.7878 112.153 63.7285 112.442 63.7285C112.73 63.7285 113.015 63.7878 113.279 63.9028C113.543 64.0177 113.781 64.1858 113.978 64.3966C114.174 64.6074 114.325 64.8564 114.421 65.1281C114.518 65.3997 114.557 65.6883 114.537 65.9758C114.54 66.4122 114.417 66.8403 114.18 67.2071C113.943 67.5739 113.605 67.8634 113.205 68.0398C113.839 68.1161 114.436 68.3761 114.924 68.7877C115.412 69.1994 115.769 69.7448 115.95 70.3566L116.121 70.1502C116.586 69.5292 116.889 68.8015 117 68.0335C117.112 67.2655 117.03 66.4818 116.76 65.7539C116.61 65.3351 116.396 64.9418 116.126 64.5877Z" fill="#FAFAFA"/>
<path d="M117.018 65.661C116.866 65.2141 116.643 64.7943 116.358 64.4174C116.071 64.0212 115.722 63.6729 115.326 63.3854C114.486 62.7621 113.467 62.4256 112.421 62.4256C111.375 62.4256 110.356 62.7621 109.516 63.3854C109.118 63.6712 108.77 64.0198 108.484 64.4174C108.199 64.7953 107.975 65.2148 107.818 65.661C107.524 66.4882 107.457 67.3789 107.622 68.241C107.764 68.9927 108.083 69.7001 108.551 70.305C109.223 71.1766 110.177 71.7877 111.25 72.0336C111.535 72.102 111.828 72.1367 112.122 72.1368C112.223 72.1503 112.325 72.1503 112.426 72.1368C112.311 72.1088 112.193 72.0932 112.075 72.0904H112.751C112.641 72.0931 112.532 72.1087 112.426 72.1368C112.527 72.1503 112.629 72.1503 112.731 72.1368C113.024 72.1367 113.317 72.102 113.603 72.0336C114.674 71.7874 115.626 71.1763 116.296 70.305C116.768 69.7017 117.088 68.9939 117.23 68.241C117.393 67.3776 117.32 66.4863 117.018 65.661ZM116.972 68.1894C116.842 68.9112 116.543 69.5919 116.1 70.176L115.93 70.3824C115.748 69.7705 115.391 69.2252 114.904 68.8135C114.416 68.4018 113.818 68.1419 113.185 68.0656C113.584 67.8892 113.923 67.5997 114.159 67.2329C114.396 66.8661 114.52 66.438 114.516 66.0016C114.536 65.7141 114.497 65.4255 114.401 65.1538C114.305 64.8822 114.154 64.6332 113.957 64.4224C113.761 64.2116 113.523 64.0435 113.258 63.9286C112.994 63.8136 112.709 63.7543 112.421 63.7543C112.133 63.7543 111.848 63.8136 111.583 63.9286C111.319 64.0435 111.081 64.2116 110.885 64.4224C110.688 64.6332 110.537 64.8822 110.441 65.1538C110.345 65.4255 110.306 65.7141 110.326 66.0016C110.322 66.4387 110.446 66.8675 110.684 67.2345C110.921 67.6015 111.262 67.8905 111.662 68.0656C111.022 68.1404 110.416 68.3996 109.92 68.8118C109.423 69.224 109.057 69.7714 108.866 70.3876C108.809 70.3205 108.747 70.2534 108.69 70.176C108.225 69.555 107.922 68.8273 107.811 68.0593C107.699 67.2913 107.781 66.5076 108.05 65.7797C108.197 65.3601 108.41 64.9665 108.68 64.6135C108.954 64.2374 109.287 63.9081 109.665 63.6383C110.456 63.055 111.413 62.7403 112.395 62.7403C113.378 62.7403 114.334 63.055 115.125 63.6383C115.502 63.9082 115.833 64.2375 116.105 64.6135C116.375 64.9676 116.589 65.3608 116.74 65.7797C117.029 66.5483 117.109 67.3798 116.972 68.1894Z" fill="#455A64"/>
<path d="M168.164 76.3938C168.164 76.3938 168.314 76.3938 168.593 76.3371C169.006 76.2516 169.387 76.0513 169.692 75.7591C169.936 75.5225 170.125 75.2345 170.245 74.9159C170.364 74.5973 170.412 74.2561 170.383 73.917C170.383 73.0966 170.383 72.1523 170.383 71.0945C170.383 68.9686 170.383 66.3731 170.357 63.3545C170.357 62.6011 170.357 61.8065 170.357 61.0119C170.378 60.6113 170.289 60.2128 170.099 59.8597C169.909 59.5066 169.625 59.2126 169.279 59.0098C168.567 58.5609 167.638 58.7569 166.745 58.7157H163.969L104.629 58.7569C104.291 58.7583 103.958 58.8399 103.658 58.9951C103.357 59.1503 103.098 59.3746 102.901 59.6496C102.704 59.9246 102.579 60.2435 102.534 60.5784C102.508 60.9217 102.499 61.2662 102.509 61.6104V74.1956C102.524 74.5143 102.61 74.8255 102.762 75.106C102.914 75.3865 103.127 75.6292 103.386 75.8159C103.641 76.0024 103.936 76.1278 104.247 76.1823C104.573 76.2206 104.901 76.2327 105.228 76.2184H116.92L143.592 76.2493L161.57 76.2958L166.462 76.3216H167.731C168.02 76.3216 168.164 76.3216 168.164 76.3216H167.731H166.462L161.57 76.3525L143.592 76.399L116.92 76.4299H105.228C104.883 76.4416 104.538 76.4278 104.196 76.3886C103.658 76.2922 103.17 76.016 102.81 75.6054C102.45 75.1948 102.24 74.6741 102.214 74.1286C102.214 71.3938 102.214 68.6143 102.214 65.79V61.5279C102.214 61.1667 102.214 60.8209 102.214 60.4339C102.271 60.0618 102.414 59.7082 102.632 59.4019C102.855 59.0844 103.151 58.8249 103.495 58.6454C103.839 58.4658 104.221 58.3713 104.609 58.3699L163.949 58.4112H168.077C168.53 58.3942 168.978 58.5089 169.367 58.7415C169.74 58.9623 170.045 59.281 170.25 59.663C170.454 60.0451 170.55 60.4758 170.528 60.9087C170.528 61.7136 170.528 62.4979 170.528 63.2513C170.528 66.2647 170.528 68.8602 170.502 70.9913C170.502 72.0491 170.502 72.9934 170.502 73.8138C170.525 74.164 170.471 74.5149 170.342 74.8415C170.214 75.1681 170.015 75.4621 169.759 75.7024C169.442 75.9947 169.048 76.1899 168.624 76.2648C168.478 76.3302 168.323 76.3737 168.164 76.3938Z" fill="#455A64"/>
<path d="M138.371 63.241H121.611V64.5H138.371V63.241Z" fill="#455A64"/>
<path d="M150.971 70.3411H121.611V71.6002H150.971V70.3411Z" fill="#455A64"/>
<path d="M164.16 66.7034H121.611V67.9624H164.16V66.7034Z" fill="#455A64"/>
<path d="M112.065 116.508C112.292 116.539 112.416 116.539 112.416 116.559C112.522 116.531 112.631 116.516 112.741 116.513L112.065 116.508Z" fill="#455A64"/>
<path d="M116.126 109.051C115.855 108.674 115.524 108.345 115.145 108.076C114.355 107.493 113.398 107.178 112.416 107.178C111.433 107.178 110.477 107.493 109.686 108.076C108.947 108.614 108.385 109.359 108.071 110.218C107.802 110.946 107.719 111.729 107.831 112.497C107.943 113.265 108.245 113.993 108.711 114.614L108.886 114.826C109.076 114.208 109.442 113.66 109.938 113.247C110.435 112.835 111.042 112.576 111.683 112.504C111.282 112.328 110.942 112.039 110.705 111.672C110.467 111.305 110.342 110.877 110.347 110.44C110.326 110.152 110.366 109.863 110.462 109.592C110.558 109.32 110.709 109.071 110.905 108.86C111.102 108.65 111.34 108.481 111.604 108.367C111.868 108.252 112.153 108.192 112.442 108.192C112.73 108.192 113.015 108.252 113.279 108.367C113.543 108.481 113.781 108.65 113.978 108.86C114.174 109.071 114.325 109.32 114.421 109.592C114.518 109.863 114.557 110.152 114.537 110.44C114.54 110.876 114.416 111.304 114.179 111.67C113.943 112.037 113.604 112.327 113.205 112.504C113.839 112.579 114.436 112.838 114.924 113.249C115.412 113.659 115.768 114.204 115.95 114.815L116.121 114.614C116.586 113.993 116.889 113.265 117 112.497C117.112 111.729 117.03 110.946 116.76 110.218C116.61 109.799 116.396 109.406 116.126 109.051Z" fill="#FAFAFA"/>
<path d="M117.018 110.125C116.867 109.675 116.644 109.254 116.358 108.876C116.071 108.48 115.722 108.131 115.326 107.844C114.486 107.221 113.467 106.884 112.421 106.884C111.375 106.884 110.356 107.221 109.516 107.844C108.737 108.423 108.145 109.218 107.813 110.13C107.519 110.957 107.451 111.848 107.617 112.71C107.759 113.462 108.077 114.169 108.546 114.774C109.219 115.643 110.173 116.252 111.244 116.497C111.53 116.569 111.822 116.606 112.116 116.606C112.218 116.619 112.32 116.619 112.421 116.606C112.421 116.606 112.297 116.606 112.07 116.554H112.746C112.636 116.557 112.527 116.572 112.421 116.601C112.522 116.614 112.624 116.614 112.725 116.601C113.019 116.601 113.312 116.564 113.597 116.492C114.667 116.246 115.619 115.637 116.291 114.769C116.762 114.165 117.082 113.457 117.225 112.705C117.39 111.842 117.319 110.95 117.018 110.125ZM116.972 112.653C116.845 113.364 116.553 114.035 116.121 114.614L115.95 114.815C115.768 114.204 115.412 113.659 114.924 113.249C114.436 112.838 113.839 112.579 113.205 112.503C113.604 112.327 113.943 112.037 114.179 111.67C114.416 111.304 114.54 110.876 114.537 110.439C114.557 110.152 114.518 109.863 114.421 109.592C114.325 109.32 114.174 109.071 113.978 108.86C113.781 108.65 113.543 108.481 113.279 108.366C113.015 108.252 112.73 108.192 112.442 108.192C112.153 108.192 111.868 108.252 111.604 108.366C111.34 108.481 111.102 108.65 110.905 108.86C110.709 109.071 110.558 109.32 110.462 109.592C110.366 109.863 110.326 110.152 110.347 110.439C110.342 110.877 110.467 111.305 110.705 111.672C110.942 112.039 111.282 112.328 111.683 112.503C111.042 112.576 110.435 112.835 109.938 113.247C109.442 113.66 109.076 114.208 108.886 114.825L108.711 114.614C108.245 113.993 107.943 113.265 107.831 112.497C107.719 111.729 107.802 110.946 108.071 110.218C108.385 109.359 108.947 108.614 109.686 108.076C110.477 107.493 111.433 107.178 112.416 107.178C113.398 107.178 114.355 107.493 115.145 108.076C115.524 108.345 115.855 108.674 116.126 109.051C116.396 109.405 116.61 109.799 116.76 110.218C117.047 110.996 117.12 111.837 116.972 112.653Z" fill="#455A64"/>
<path d="M168.164 120.858C168.164 120.858 168.314 120.858 168.593 120.801C169.006 120.715 169.387 120.515 169.692 120.223C169.937 119.986 170.126 119.697 170.246 119.377C170.366 119.058 170.412 118.716 170.383 118.376C170.383 117.56 170.383 116.616 170.383 115.553C170.383 113.432 170.383 110.832 170.357 107.813C170.357 107.06 170.357 106.265 170.357 105.476C170.378 105.074 170.289 104.675 170.099 104.321C169.908 103.967 169.625 103.672 169.279 103.468C168.567 103.019 167.638 103.215 166.745 103.174H163.969L104.629 103.221C104.291 103.221 103.957 103.302 103.657 103.457C103.356 103.612 103.097 103.837 102.901 104.113C102.704 104.386 102.578 104.703 102.534 105.037C102.508 105.38 102.499 105.725 102.509 106.069V118.68C102.524 118.998 102.611 119.309 102.763 119.59C102.915 119.87 103.128 120.113 103.386 120.3C103.641 120.487 103.936 120.612 104.247 120.667C104.573 120.702 104.901 120.714 105.228 120.703H116.92L143.592 120.734L161.57 120.785H166.462L161.57 120.811L143.592 120.863L116.92 120.894H105.228C104.883 120.907 104.539 120.895 104.196 120.858C103.672 120.764 103.195 120.499 102.837 120.105C102.48 119.711 102.262 119.21 102.22 118.68C102.22 115.945 102.22 113.166 102.22 110.341V106.079C102.22 105.718 102.22 105.378 102.22 104.985C102.272 104.604 102.415 104.241 102.638 103.928C102.861 103.611 103.157 103.352 103.501 103.172C103.844 102.993 104.226 102.898 104.614 102.896L163.954 102.937H168.082C168.411 102.924 168.739 102.98 169.046 103.102C169.352 103.224 169.629 103.408 169.86 103.643C170.091 103.878 170.27 104.159 170.386 104.468C170.502 104.776 170.552 105.105 170.533 105.434C170.533 106.239 170.533 107.018 170.533 107.772C170.533 110.785 170.533 113.386 170.507 115.512C170.507 116.575 170.507 117.519 170.507 118.334C170.531 118.684 170.477 119.036 170.348 119.362C170.22 119.689 170.02 119.983 169.764 120.223C169.447 120.516 169.054 120.713 168.629 120.79C168.478 120.835 168.322 120.858 168.164 120.858Z" fill="#455A64"/>
<path d="M138.371 107.7H121.611V108.959H138.371V107.7Z" fill="#455A64"/>
<path d="M150.971 114.805H121.611V116.064H150.971V114.805Z" fill="#455A64"/>
<path d="M164.16 111.167H121.611V112.426H164.16V111.167Z" fill="#455A64"/>
<path d="M102.522 82.3071L102.484 96.0275C102.48 97.1475 103.386 98.058 104.506 98.0611L168.52 98.2398C169.64 98.243 170.551 97.3376 170.554 96.2176L170.592 82.4972C170.595 81.3773 169.69 80.4668 168.57 80.4637L104.555 80.2849C103.435 80.2818 102.525 81.1872 102.522 82.3071Z" fill="#008D5C"/>
<path d="M138.54 85.0002L121.781 84.9534L121.777 86.2125L138.537 86.2593L138.54 85.0002Z" fill="#FAFAFA"/>
<path d="M151.121 92.1355L121.761 92.0535L121.757 93.3125L151.118 93.3945L151.121 92.1355Z" fill="#FAFAFA"/>
<path d="M164.32 88.5397L121.771 88.4209L121.767 89.6799L164.317 89.7987L164.32 88.5397Z" fill="#FAFAFA"/>
<path d="M113.37 89.7221C113.766 89.5364 114.099 89.2392 114.328 88.8671C114.557 88.4949 114.673 88.064 114.66 87.6271C114.675 87.3396 114.631 87.0522 114.53 86.7825C114.43 86.5128 114.275 86.2668 114.075 86.0596C113.875 85.8524 113.635 85.6885 113.369 85.578C113.103 85.4676 112.817 85.413 112.529 85.4176C112.242 85.4222 111.958 85.4859 111.696 85.6048C111.434 85.7237 111.199 85.8952 111.006 86.1087C110.812 86.3222 110.665 86.5731 110.573 86.8458C110.481 87.1186 110.446 87.4074 110.47 87.6942C110.47 88.136 110.6 88.5681 110.846 88.9356C111.091 89.3031 111.44 89.5894 111.848 89.7582C111.188 89.8512 110.571 90.1383 110.075 90.583C109.579 91.0277 109.226 91.6099 109.062 92.2556C109.832 93.0913 110.875 93.6255 112.003 93.7624H113.293C114.434 93.5894 115.472 93.0059 116.214 92.1215C116.036 91.4822 115.669 90.9113 115.162 90.4833C114.655 90.0553 114.03 89.7901 113.37 89.7221Z" fill="#FAFAFA"/>
<path d="M112.669 93.7933C112.669 93.7572 113.092 93.7933 113.814 93.5663C114.441 93.3895 115.025 93.0837 115.527 92.6684C116.029 92.2531 116.439 91.7375 116.731 91.1546C117.022 90.5717 117.189 89.9344 117.22 89.2834C117.25 88.6324 117.145 87.9822 116.91 87.3743C116.753 86.9574 116.532 86.5674 116.255 86.2184C115.972 85.8477 115.632 85.5239 115.249 85.2587C114.441 84.6946 113.474 84.402 112.489 84.4233C111.504 84.4447 110.551 84.7788 109.769 85.3774C109.396 85.6583 109.071 85.9961 108.804 86.3784C108.542 86.7388 108.336 87.1374 108.195 87.56C107.986 88.1777 107.908 88.8321 107.965 89.4816C108.022 90.1311 108.214 90.7616 108.528 91.3331C108.842 91.9046 109.271 92.4047 109.789 92.8015C110.306 93.1984 110.9 93.4834 111.533 93.6385C112.266 93.814 112.694 93.7778 112.689 93.814C112.296 93.8538 111.898 93.8294 111.513 93.7417C110.44 93.5167 109.477 92.9279 108.788 92.075C108.311 91.4862 107.979 90.7933 107.818 90.0523C107.634 89.1949 107.684 88.3038 107.963 87.4723C108.272 86.5554 108.845 85.7498 109.609 85.1555C110.433 84.5173 111.441 84.1609 112.483 84.1386C113.525 84.1163 114.547 84.4293 115.398 85.0316C115.804 85.3166 116.161 85.665 116.456 86.0636C116.747 86.4347 116.979 86.8491 117.142 87.2917C117.459 88.1129 117.546 89.0047 117.395 89.8717C117.239 90.784 116.822 91.6317 116.197 92.3135C115.571 92.9953 114.761 93.4822 113.866 93.7159C113.474 93.8092 113.069 93.8354 112.669 93.7933Z" fill="#FAFAFA"/>
<path d="M132.359 177.329C132.317 177.613 132.174 177.872 131.957 178.06C131.74 178.247 131.462 178.35 131.175 178.35C130.888 178.35 130.61 178.247 130.393 178.06C130.175 177.872 130.033 177.613 129.991 177.329C130.033 177.045 130.175 176.785 130.393 176.597C130.61 176.41 130.888 176.307 131.175 176.307C131.462 176.307 131.74 176.41 131.957 176.597C132.174 176.785 132.317 177.045 132.359 177.329Z" fill="#455A64"/>
<path d="M136.033 177.344C136.067 177.586 136.026 177.832 135.916 178.05C135.805 178.267 135.631 178.446 135.417 178.562C135.202 178.678 134.957 178.726 134.715 178.699C134.472 178.672 134.244 178.571 134.06 178.411C133.876 178.25 133.746 178.038 133.686 177.801C133.627 177.564 133.641 177.315 133.727 177.087C133.813 176.858 133.967 176.662 134.168 176.523C134.369 176.385 134.607 176.311 134.851 176.312C135.145 176.292 135.434 176.39 135.656 176.583C135.878 176.777 136.013 177.051 136.033 177.344Z" fill="#455A64"/>
<path d="M139.702 177.36C139.736 177.601 139.694 177.848 139.584 178.066C139.474 178.283 139.299 178.462 139.084 178.578C138.869 178.694 138.624 178.742 138.381 178.714C138.139 178.687 137.91 178.586 137.727 178.425C137.543 178.263 137.413 178.05 137.354 177.813C137.295 177.576 137.311 177.327 137.397 177.099C137.484 176.87 137.639 176.674 137.841 176.536C138.042 176.398 138.281 176.326 138.525 176.328C138.818 176.309 139.106 176.407 139.327 176.601C139.547 176.794 139.682 177.067 139.702 177.36Z" fill="#455A64"/>
<path d="M112.065 139.568C112.292 139.599 112.416 139.599 112.416 139.619C112.416 139.64 112.529 139.619 112.741 139.573L112.065 139.568Z" fill="#455A64"/>
<path d="M116.126 132.096C115.854 131.722 115.523 131.394 115.145 131.126C114.355 130.543 113.398 130.228 112.416 130.228C111.433 130.228 110.477 130.543 109.686 131.126C109.307 131.394 108.975 131.722 108.701 132.096C108.43 132.451 108.218 132.846 108.071 133.267C107.802 133.995 107.719 134.779 107.831 135.547C107.943 136.315 108.245 137.043 108.711 137.664C108.768 137.736 108.83 137.803 108.886 137.87C109.077 137.254 109.444 136.707 109.94 136.296C110.437 135.884 111.042 135.626 111.683 135.553C111.278 135.376 110.935 135.083 110.697 134.711C110.459 134.339 110.337 133.905 110.347 133.463C110.326 133.176 110.366 132.887 110.462 132.616C110.558 132.344 110.709 132.095 110.905 131.884C111.102 131.673 111.34 131.505 111.604 131.39C111.868 131.275 112.153 131.216 112.442 131.216C112.73 131.216 113.015 131.275 113.279 131.39C113.543 131.505 113.781 131.673 113.978 131.884C114.174 132.095 114.325 132.344 114.421 132.616C114.518 132.887 114.557 133.176 114.537 133.463C114.54 133.9 114.416 134.328 114.179 134.694C113.943 135.061 113.604 135.35 113.205 135.527C113.839 135.603 114.436 135.862 114.924 136.272C115.412 136.683 115.768 137.228 115.95 137.839L116.121 137.638C116.584 137.016 116.885 136.288 116.997 135.521C117.109 134.753 117.027 133.97 116.76 133.242C116.607 132.83 116.393 132.444 116.126 132.096Z" fill="#FAFAFA"/>
<path d="M117.018 133.185C116.866 132.736 116.643 132.315 116.358 131.936C116.07 131.54 115.722 131.192 115.326 130.904C114.486 130.281 113.467 129.944 112.421 129.944C111.375 129.944 110.356 130.281 109.516 130.904C108.734 131.48 108.141 132.276 107.813 133.19C107.519 134.017 107.451 134.908 107.617 135.77C107.76 136.521 108.078 137.229 108.546 137.834C109.219 138.703 110.173 139.312 111.244 139.557C111.53 139.624 111.823 139.661 112.116 139.666C112.218 139.679 112.32 139.679 112.421 139.666C112.421 139.666 112.297 139.666 112.07 139.614H112.746C112.534 139.64 112.421 139.64 112.421 139.661C112.522 139.674 112.624 139.674 112.725 139.661C113.019 139.656 113.311 139.619 113.597 139.552C114.667 139.306 115.619 138.697 116.291 137.829C116.762 137.225 117.082 136.517 117.225 135.765C117.39 134.902 117.319 134.01 117.018 133.185ZM116.972 135.708C116.846 136.421 116.555 137.095 116.121 137.674L115.95 137.875C115.768 137.264 115.412 136.719 114.924 136.309C114.436 135.898 113.839 135.639 113.205 135.564C113.604 135.387 113.943 135.097 114.179 134.73C114.416 134.364 114.54 133.936 114.537 133.5C114.557 133.212 114.518 132.924 114.421 132.652C114.325 132.38 114.174 132.131 113.978 131.92C113.781 131.71 113.543 131.541 113.279 131.427C113.015 131.312 112.73 131.252 112.442 131.252C112.153 131.252 111.868 131.312 111.604 131.427C111.34 131.541 111.102 131.71 110.905 131.92C110.709 132.131 110.558 132.38 110.462 132.652C110.366 132.924 110.326 133.212 110.347 133.5C110.337 133.941 110.459 134.375 110.697 134.748C110.935 135.12 111.278 135.413 111.683 135.589C111.042 135.663 110.437 135.921 109.94 136.332C109.444 136.743 109.077 137.29 108.886 137.906C108.83 137.839 108.768 137.772 108.711 137.7C108.245 137.079 107.943 136.351 107.831 135.583C107.719 134.815 107.802 134.031 108.071 133.303C108.218 132.882 108.43 132.487 108.701 132.132C108.975 131.758 109.307 131.43 109.686 131.162C110.477 130.579 111.433 130.264 112.416 130.264C113.398 130.264 114.355 130.579 115.145 131.162C115.523 131.43 115.854 131.758 116.126 132.132C116.396 132.488 116.61 132.883 116.76 133.303C117.042 134.072 117.115 134.902 116.972 135.708Z" fill="#455A64"/>
<path d="M168.164 143.918C168.164 143.918 168.314 143.918 168.593 143.861C169.006 143.775 169.387 143.575 169.692 143.283C169.937 143.046 170.126 142.757 170.246 142.437C170.366 142.118 170.412 141.776 170.383 141.436C170.383 140.615 170.383 139.676 170.383 138.613C170.383 136.487 170.383 133.892 170.357 130.873C170.357 130.12 170.357 129.325 170.357 128.536C170.378 128.134 170.289 127.735 170.099 127.381C169.908 127.027 169.625 126.732 169.279 126.528C168.567 126.079 167.638 126.276 166.745 126.234H163.969L104.629 126.281C104.291 126.279 103.957 126.36 103.656 126.515C103.355 126.671 103.096 126.897 102.901 127.173C102.703 127.446 102.577 127.763 102.534 128.097C102.508 128.44 102.5 128.785 102.509 129.129V141.745C102.523 142.065 102.61 142.377 102.762 142.658C102.914 142.939 103.127 143.183 103.386 143.371C103.641 143.557 103.936 143.683 104.247 143.737C104.573 143.77 104.901 143.782 105.228 143.773H116.92L143.592 143.804L161.57 143.856L166.462 143.881H167.731C168.02 143.881 168.164 143.881 168.164 143.881H167.731H166.462H161.57L143.592 143.928L116.92 143.964H105.228C104.883 143.978 104.538 143.965 104.196 143.923C103.839 143.865 103.502 143.723 103.21 143.51C102.915 143.298 102.672 143.021 102.499 142.701C102.327 142.381 102.229 142.026 102.214 141.663C102.214 138.911 102.214 136.131 102.214 133.324V129.062C102.214 128.701 102.214 128.36 102.214 127.968C102.267 127.587 102.41 127.224 102.632 126.91C102.857 126.595 103.153 126.336 103.497 126.157C103.84 125.978 104.221 125.882 104.609 125.878L163.949 125.925H168.077C168.529 125.913 168.976 126.027 169.367 126.255C169.74 126.477 170.045 126.797 170.249 127.18C170.454 127.562 170.55 127.994 170.528 128.427C170.528 129.232 170.528 130.011 170.528 130.765C170.528 133.778 170.528 136.374 170.502 138.505C170.502 139.568 170.502 140.507 170.502 141.327C170.526 141.677 170.471 142.029 170.343 142.355C170.214 142.682 170.015 142.976 169.759 143.216C169.442 143.509 169.048 143.706 168.624 143.783C168.478 143.851 168.323 143.896 168.164 143.918Z" fill="#455A64"/>
<path d="M138.371 130.76H121.611V132.019H138.371V130.76Z" fill="#455A64"/>
<path d="M150.971 137.865H121.611V139.124H150.971V137.865Z" fill="#455A64"/>
<path d="M164.16 134.227H121.611V135.486H164.16V134.227Z" fill="#455A64"/>
<path d="M112.065 162.168C112.292 162.194 112.416 162.199 112.416 162.22C112.416 162.241 112.529 162.194 112.741 162.174L112.065 162.168Z" fill="#455A64"/>
<path d="M116.126 154.707C115.853 154.332 115.522 154.003 115.145 153.732C114.352 153.155 113.396 152.845 112.416 152.845C111.435 152.845 110.48 153.155 109.686 153.732C109.308 154.003 108.976 154.332 108.701 154.707C108.43 155.062 108.218 155.457 108.071 155.878C107.802 156.606 107.719 157.39 107.831 158.158C107.943 158.926 108.245 159.654 108.711 160.275C108.768 160.347 108.83 160.414 108.886 160.481C109.077 159.865 109.444 159.318 109.94 158.907C110.437 158.495 111.042 158.237 111.683 158.164C111.283 157.989 110.943 157.7 110.705 157.333C110.468 156.966 110.343 156.537 110.347 156.1C110.326 155.813 110.366 155.524 110.462 155.253C110.558 154.981 110.709 154.732 110.905 154.521C111.102 154.31 111.34 154.142 111.604 154.027C111.868 153.912 112.153 153.853 112.442 153.853C112.73 153.853 113.015 153.912 113.279 154.027C113.543 154.142 113.781 154.31 113.978 154.521C114.174 154.732 114.325 154.981 114.421 155.253C114.518 155.524 114.557 155.813 114.537 156.1C114.54 156.537 114.416 156.964 114.179 157.331C113.943 157.698 113.604 157.987 113.205 158.164C113.839 158.239 114.436 158.498 114.924 158.909C115.412 159.319 115.769 159.864 115.95 160.476C116.007 160.409 116.064 160.347 116.121 160.27C116.556 159.693 116.848 159.021 116.972 158.309C117.119 157.494 117.046 156.655 116.76 155.878C116.61 155.458 116.396 155.063 116.126 154.707Z" fill="#FAFAFA"/>
<path d="M117.018 155.78C116.866 155.333 116.643 154.914 116.358 154.537C116.071 154.141 115.722 153.792 115.326 153.505C114.484 152.885 113.466 152.55 112.421 152.55C111.375 152.55 110.357 152.885 109.516 153.505C109.118 153.791 108.77 154.139 108.484 154.537C108.199 154.915 107.975 155.334 107.818 155.78C107.524 156.608 107.457 157.498 107.622 158.36C107.763 159.112 108.082 159.82 108.551 160.424C109.223 161.296 110.177 161.907 111.25 162.153C111.536 162.22 111.828 162.256 112.122 162.261C112.223 162.275 112.325 162.275 112.426 162.261C112.426 162.261 112.302 162.236 112.075 162.21H112.751C112.54 162.21 112.426 162.21 112.426 162.256C112.527 162.27 112.629 162.27 112.731 162.256C113.024 162.251 113.317 162.215 113.603 162.148C114.503 161.931 115.321 161.46 115.962 160.792C116.602 160.123 117.037 159.284 117.215 158.376C117.385 157.509 117.317 156.612 117.018 155.78ZM116.972 158.309C116.848 159.021 116.556 159.693 116.121 160.27C116.064 160.347 116.007 160.409 115.95 160.476C115.769 159.864 115.412 159.319 114.924 158.909C114.436 158.498 113.839 158.239 113.205 158.164C113.604 157.987 113.943 157.698 114.179 157.331C114.416 156.964 114.54 156.537 114.537 156.1C114.557 155.813 114.518 155.524 114.421 155.253C114.325 154.981 114.174 154.732 113.978 154.521C113.781 154.31 113.543 154.142 113.279 154.027C113.015 153.912 112.73 153.853 112.442 153.853C112.153 153.853 111.868 153.912 111.604 154.027C111.34 154.142 111.102 154.31 110.905 154.521C110.709 154.732 110.558 154.981 110.462 155.253C110.366 155.524 110.326 155.813 110.347 156.1C110.343 156.537 110.468 156.966 110.705 157.333C110.943 157.7 111.283 157.989 111.683 158.164C111.041 158.235 110.434 158.492 109.935 158.902C109.437 159.313 109.069 159.86 108.876 160.476C108.819 160.409 108.757 160.342 108.701 160.27C108.235 159.649 107.933 158.921 107.821 158.153C107.709 157.385 107.792 156.601 108.061 155.873C108.208 155.452 108.42 155.057 108.69 154.702C108.965 154.327 109.298 153.998 109.676 153.727C110.469 153.15 111.425 152.84 112.405 152.84C113.386 152.84 114.342 153.15 115.135 153.727C115.872 154.269 116.433 155.015 116.75 155.873C117.04 156.651 117.117 157.492 116.972 158.309Z" fill="#455A64"/>
<path d="M168.164 166.518C168.164 166.518 168.314 166.518 168.593 166.462C169.136 166.345 169.617 166.035 169.947 165.588C170.277 165.141 170.432 164.589 170.383 164.036C170.383 163.216 170.383 162.277 170.383 161.214C170.383 159.088 170.383 156.492 170.357 153.474C170.357 152.721 170.357 151.926 170.357 151.136C170.377 150.731 170.283 150.329 170.087 149.973C169.892 149.618 169.601 149.324 169.248 149.124C168.536 148.675 167.607 148.871 166.714 148.83H163.938L104.598 148.871C104.26 148.872 103.926 148.954 103.625 149.11C103.324 149.267 103.065 149.492 102.87 149.769C102.672 150.041 102.546 150.359 102.503 150.693C102.477 151.036 102.468 151.38 102.478 151.725V164.346C102.493 164.665 102.579 164.976 102.731 165.256C102.883 165.537 103.096 165.78 103.355 165.966C103.61 166.155 103.905 166.282 104.217 166.338C104.542 166.372 104.87 166.382 105.197 166.369H116.889L143.562 166.4L161.539 166.446L166.431 166.477H167.7H168.133C168.133 166.477 167.989 166.477 167.7 166.477H166.431L161.539 166.508L143.562 166.554L116.889 166.585H105.228C104.883 166.597 104.538 166.583 104.196 166.544C103.839 166.484 103.501 166.341 103.21 166.126C102.915 165.915 102.672 165.64 102.499 165.32C102.327 165.001 102.229 164.647 102.214 164.284C102.214 161.549 102.214 158.77 102.214 155.946V151.683C102.214 151.322 102.214 150.982 102.214 150.589C102.267 150.208 102.41 149.845 102.632 149.532C102.856 149.215 103.152 148.956 103.496 148.777C103.84 148.597 104.221 148.502 104.609 148.5L163.949 148.546H168.077C168.529 148.534 168.976 148.648 169.367 148.876C169.74 149.098 170.046 149.418 170.25 149.801C170.455 150.183 170.551 150.615 170.528 151.049C170.528 151.854 170.528 152.633 170.528 153.386C170.528 156.4 170.528 158.995 170.502 161.126C170.502 162.189 170.502 163.128 170.502 163.949C170.525 164.299 170.471 164.65 170.342 164.976C170.214 165.303 170.015 165.597 169.759 165.837C169.443 166.132 169.049 166.327 168.624 166.4C168.478 166.463 168.323 166.503 168.164 166.518Z" fill="#455A64"/>
<path d="M138.371 153.36H121.611V154.619H138.371V153.36Z" fill="#455A64"/>
<path d="M150.971 160.461H121.611V161.72H150.971V160.461Z" fill="#455A64"/>
<path d="M164.16 156.823H121.611V158.082H164.16V156.823Z" fill="#455A64"/>
<path d="M168.366 85.1916C170.264 85.1916 171.802 83.653 171.802 81.755C171.802 79.8571 170.264 78.3185 168.366 78.3185C166.468 78.3185 164.929 79.8571 164.929 81.755C164.929 83.653 166.468 85.1916 168.366 85.1916Z" fill="#263238"/>
<path d="M166.678 81.4764L168.123 82.7458L170.048 80.7643" stroke="#FAFAFA" stroke-linecap="round" stroke-linejoin="round"/>
<path d="M73.1275 234.765L72.2864 239.651L79.82 240.203L79.8458 235.399L73.1275 234.765Z" fill="#008D5C"/>
<path d="M76.5228 234.832C76.5023 236.325 76.3294 237.811 76.0068 239.269C75.9778 238.522 76.0227 237.773 76.1409 237.035C76.1946 236.29 76.3225 235.552 76.5228 234.832Z" fill="#263238"/>
<path d="M79.82 239.672C79.4554 239.677 79.0909 239.65 78.7313 239.589L76.1151 239.3C75.0831 239.181 74.1647 239.058 73.499 238.944C73.1357 238.902 72.7777 238.823 72.4309 238.707C72.7955 238.694 73.1605 238.72 73.5197 238.784L76.1409 239.078C77.1729 239.192 78.0863 239.321 78.7519 239.434C79.1152 239.476 79.4732 239.556 79.82 239.672Z" fill="#263238"/>
<path d="M100.321 237.432V233.046L92.1163 232.969L92.0286 239.383L92.5446 239.419C94.8098 239.563 104.067 240.007 105.584 239.563C107.282 239.068 100.321 237.432 100.321 237.432Z" fill="#008D5C"/>
<g opacity="0.38">
<path d="M95.0162 239.347C94.9008 238.653 94.5333 238.026 93.9842 237.587C93.4457 237.149 92.7629 236.928 92.0699 236.968V239.264L95.0162 239.347Z" fill="black"/>
</g>
<g opacity="0.38">
<path d="M103.716 238.351C103.716 238.351 106.152 239.078 105.842 239.481C105.532 239.883 96.1618 239.785 92.0338 239.383V239.197L102.963 239.398C102.963 239.398 103.241 238.392 103.716 238.351Z" fill="black"/>
</g>
<path d="M91.9254 239.192H92.0647L92.4672 239.223L93.9584 239.3C95.2226 239.357 96.9615 239.414 98.8862 239.434C100.811 239.455 102.55 239.434 103.814 239.408L105.305 239.362H105.713C105.759 239.369 105.806 239.369 105.852 239.362H105.305H103.814C102.55 239.362 100.811 239.362 98.8862 239.362C96.9615 239.362 95.2226 239.295 93.9636 239.254L92.4724 239.207H92.0647L91.9254 239.192Z" fill="#263238"/>
<path d="M102.978 239.527C103.047 239.281 103.144 239.044 103.267 238.82C103.419 238.614 103.592 238.423 103.783 238.253C103.528 238.347 103.315 238.53 103.185 238.769C103.025 238.988 102.952 239.258 102.978 239.527Z" fill="#263238"/>
<path d="M100.568 238.273C100.568 238.273 100.708 238.149 100.832 237.964C100.92 237.858 100.982 237.732 101.012 237.597C101.012 237.597 100.868 237.721 100.749 237.907C100.63 238.093 100.548 238.258 100.568 238.273Z" fill="#263238"/>
<path d="M99.9079 237.917C99.9079 237.917 100.058 237.85 100.202 237.726C100.347 237.602 100.445 237.484 100.424 237.463C100.403 237.443 100.279 237.525 100.135 237.654C99.9905 237.783 99.8924 237.876 99.9079 237.917Z" fill="#263238"/>
<path d="M99.4951 237.138C99.7773 237.2 100.069 237.2 100.352 237.138C100.352 237.107 100.161 237.081 99.9286 237.076C99.7813 237.066 99.6335 237.087 99.4951 237.138Z" fill="#263238"/>
<path d="M99.3558 236.591C99.4983 236.685 99.665 236.735 99.8357 236.736C100.01 236.77 100.19 236.748 100.352 236.674C100.192 236.644 100.029 236.631 99.8666 236.638C99.6984 236.604 99.5272 236.589 99.3558 236.591Z" fill="#263238"/>
<path d="M100.857 237.561C101.028 237.589 101.202 237.589 101.373 237.561C101.564 237.537 101.752 237.497 101.936 237.443C102.047 237.412 102.154 237.369 102.256 237.314C102.288 237.296 102.316 237.273 102.34 237.245C102.363 237.216 102.38 237.184 102.39 237.148C102.398 237.109 102.394 237.069 102.381 237.032C102.367 236.994 102.344 236.962 102.312 236.937C102.113 236.834 101.883 236.806 101.664 236.856C101.445 236.906 101.251 237.031 101.115 237.21C101.031 237.31 100.97 237.429 100.94 237.556C100.94 237.649 100.94 237.701 100.94 237.701C100.992 237.537 101.075 237.385 101.182 237.252C101.303 237.114 101.461 237.014 101.637 236.963C101.845 236.897 102.071 236.915 102.266 237.014C102.349 237.076 102.312 237.174 102.22 237.231C102.125 237.28 102.027 237.321 101.925 237.355C101.747 237.414 101.564 237.459 101.379 237.489C101.059 237.546 100.857 237.546 100.857 237.561Z" fill="#263238"/>
<path d="M100.991 237.587C100.991 237.587 101.079 237.463 101.059 237.226C101.041 237.087 100.992 236.955 100.914 236.839C100.872 236.759 100.81 236.692 100.734 236.644C100.658 236.596 100.57 236.569 100.481 236.565C100.454 236.57 100.428 236.58 100.405 236.595C100.383 236.61 100.363 236.63 100.347 236.652C100.332 236.675 100.321 236.7 100.316 236.727C100.31 236.754 100.31 236.781 100.316 236.808C100.327 236.891 100.357 236.97 100.403 237.04C100.471 237.157 100.553 237.266 100.646 237.365C100.728 237.459 100.83 237.533 100.945 237.582C100.945 237.582 100.842 237.484 100.697 237.319C100.617 237.218 100.545 237.111 100.481 236.999C100.408 236.885 100.362 236.684 100.481 236.663C100.599 236.643 100.744 236.782 100.826 236.89C100.899 236.994 100.949 237.112 100.971 237.236C100.989 237.352 100.996 237.47 100.991 237.587Z" fill="#263238"/>
<path d="M92.1163 236.947C92.1163 236.947 92.3485 236.947 92.72 236.973C93.2021 237.036 93.6575 237.23 94.0358 237.535C94.4119 237.844 94.6942 238.251 94.8511 238.712C94.9111 238.904 94.961 239.098 95.0007 239.295C95.0096 239.24 95.0096 239.185 95.0007 239.13C94.9864 238.979 94.957 238.831 94.913 238.686C94.7676 238.204 94.482 237.777 94.0926 237.458C93.7015 237.139 93.2229 236.947 92.72 236.906C92.5708 236.89 92.4203 236.89 92.2711 236.906C92.2174 236.91 92.165 236.924 92.1163 236.947Z" fill="#263238"/>
<path d="M92.9987 233.542C92.9372 234.1 92.908 234.662 92.911 235.224C92.8795 235.786 92.8795 236.349 92.911 236.911C92.9724 236.353 93.0017 235.791 92.9987 235.229C93.0302 234.667 93.0302 234.104 92.9987 233.542Z" fill="#263238"/>
<path d="M96.0534 238.557C96.4451 238.652 96.8476 238.695 97.2505 238.686C97.6531 238.712 98.0574 238.684 98.4528 238.604C98.4528 238.573 97.9368 238.604 97.2557 238.604C96.5745 238.604 96.0585 238.526 96.0534 238.557Z" fill="#263238"/>
<path d="M94.428 238.536C94.428 238.536 94.4693 238.65 94.5209 238.774C94.5725 238.898 94.6034 239.006 94.6344 239.006C94.6653 239.006 94.6757 238.877 94.6344 238.733C94.5931 238.588 94.4641 238.516 94.428 238.536Z" fill="#263238"/>
<path d="M93.8501 237.778C93.8501 237.778 93.881 237.881 93.9636 237.969C94.0461 238.057 94.1339 238.108 94.1545 238.093C94.1751 238.077 94.1184 237.984 94.0358 237.897C93.9533 237.809 93.8655 237.757 93.8501 237.778Z" fill="#263238"/>
<path d="M92.9832 237.422C92.9832 237.448 93.0967 237.448 93.2206 237.494C93.3444 237.541 93.427 237.602 93.4476 237.582C93.4682 237.561 93.4012 237.453 93.2515 237.401C93.1019 237.35 92.978 237.396 92.9832 237.422Z" fill="#263238"/>
<path d="M92.364 237.252C92.364 237.252 92.4001 237.324 92.4672 237.35C92.5343 237.375 92.5962 237.35 92.6065 237.35C92.6168 237.35 92.5704 237.283 92.5033 237.257C92.4362 237.231 92.364 237.226 92.364 237.252Z" fill="#263238"/>
<path d="M87.8748 104.263C87.9367 102.978 88.076 101.523 88.076 101.523C88.076 101.523 91.2546 101.177 91.4455 97.911C91.6364 94.6447 91.4455 87.075 91.4455 87.075L85.656 84.108L79.2834 89.1338L80.2483 105.558L86.1101 105.93C86.3362 105.939 86.5619 105.904 86.774 105.824C86.986 105.745 87.18 105.625 87.3446 105.469C87.5091 105.314 87.6408 105.127 87.7319 104.92C87.8229 104.713 87.8715 104.489 87.8748 104.263Z" fill="#FFBE9D"/>
<path d="M88.4475 95.2948C88.4475 95.2948 88.4475 95.3516 88.3959 95.4342C88.3524 95.4872 88.2971 95.5293 88.2344 95.5571C88.1716 95.5849 88.1033 95.5976 88.0347 95.5941C87.6632 95.5941 87.3072 95.171 87.1782 94.6705C87.1192 94.4316 87.1192 94.1819 87.1782 93.9429C87.1852 93.8341 87.2209 93.729 87.2817 93.6384C87.3424 93.5478 87.4259 93.4749 87.5239 93.4269C87.5622 93.4103 87.6034 93.4017 87.6452 93.4017C87.6869 93.4017 87.7281 93.4103 87.7664 93.4269C87.8252 93.4532 87.8715 93.5013 87.8954 93.5611C87.9419 93.654 87.8954 93.7159 87.8954 93.7107C87.8954 93.7056 87.8954 93.654 87.8335 93.5972C87.8041 93.5543 87.7596 93.5242 87.7089 93.5127C87.6582 93.5012 87.605 93.5093 87.56 93.5353C87.4912 93.5806 87.4342 93.6417 87.3938 93.7135C87.3534 93.7853 87.3307 93.8657 87.3278 93.9481C87.2878 94.164 87.2966 94.3862 87.3536 94.5982C87.4671 95.0472 87.7767 95.4084 88.0502 95.4445C88.1051 95.4516 88.1608 95.4475 88.214 95.4325C88.2673 95.4174 88.3169 95.3916 88.3598 95.3568C88.4166 95.3361 88.4372 95.2897 88.4475 95.2948Z" fill="#EB996E"/>
<path d="M88.4269 97.3227C88.4682 97.2041 88.494 97.0751 88.5301 96.9512C88.5662 96.8274 88.5766 96.7758 88.6075 96.6829C88.6628 96.4128 88.6921 96.1381 88.6952 95.8625C88.4126 95.9721 88.104 95.9963 87.8077 95.9321C87.5114 95.8679 87.2405 95.7181 87.0286 95.5013C86.8151 95.2753 86.6662 94.9962 86.5972 94.6931C86.5282 94.39 86.5418 94.0739 86.6364 93.7778C86.772 93.4534 86.9744 93.1612 87.2304 92.9203C87.4865 92.6794 87.7904 92.4951 88.1225 92.3795C88.7623 92.1111 89.4486 91.977 90.0781 91.6777C91.4094 91.0482 92.3279 89.7324 92.9574 88.3547C93.396 87.3897 93.7262 86.2907 93.427 85.2587C92.9832 83.7468 91.363 82.9986 89.913 82.5806C87.6839 81.9511 85.269 81.6725 83.0915 82.4723C80.914 83.2721 78.2978 84.6859 78.2978 87.0905C77.013 86.9821 76.2803 88.1225 75.7694 89.5053C75.5181 90.3715 75.3284 91.2543 75.2018 92.1473" fill="#263238"/>
<path d="M80.0522 102.168C78.4458 101.06 77.1541 99.5541 76.3032 97.7979C75.4522 96.0416 75.0709 94.0948 75.1967 92.1473C75.5269 85.2535 88.4269 97.3073 88.4269 97.3073C88.4269 97.3073 85.9553 105.429 80.3154 102.152" fill="#263238"/>
<path d="M78.1379 95.2949C78.1017 95.2639 78.3598 95.0214 78.5713 94.5209C78.7158 94.2029 78.7918 93.8581 78.7944 93.5088C78.7971 93.1596 78.7263 92.8137 78.5867 92.4936C78.447 92.1734 78.2417 91.8862 77.9839 91.6506C77.7261 91.4149 77.4217 91.236 77.0904 91.1256C76.5744 90.9398 76.2235 90.9656 76.2235 90.9192C76.5259 90.8261 76.8505 90.8351 77.1471 90.945C77.5151 91.0486 77.8562 91.2311 78.1467 91.4797C78.4371 91.7283 78.6701 92.0371 78.8293 92.3846C78.98 92.737 79.0503 93.1184 79.0351 93.5013C79.02 93.8842 78.9197 94.259 78.7416 94.5983C78.4681 95.1194 78.1533 95.3155 78.1379 95.2949Z" fill="#008D5C"/>
<path d="M75.4805 91.074C75.3637 91.0889 75.2454 91.0634 75.1451 91.0018C74.8553 90.8597 74.6171 90.6305 74.464 90.3464C74.2498 89.921 74.1723 89.4398 74.2421 88.9687C74.3021 88.3992 74.4777 87.8478 74.7581 87.3485C75.0447 86.8369 75.4956 86.4369 76.0378 86.2133C76.4876 86.0297 76.9914 86.0297 77.4413 86.2133C77.7387 86.3375 77.9909 86.55 78.1637 86.8222C78.272 87.0182 78.2875 87.1472 78.272 87.1472C78.062 86.8037 77.7447 86.5389 77.369 86.3939C76.9641 86.2539 76.521 86.2742 76.1306 86.4506C75.6486 86.6618 75.2484 87.024 74.9903 87.4826C74.4382 88.4682 74.2834 89.5982 74.6188 90.2536C74.8031 90.618 75.1074 90.9078 75.4805 91.074Z" fill="#263238"/>
<path d="M134.072 93.396C133.84 93.1586 133.272 93.2721 133.272 93.2721C133.327 92.9407 133.327 92.6026 133.272 92.2711C133.169 91.946 132.442 92.0079 132.442 92.0079C132.407 91.7356 132.407 91.4599 132.442 91.1875C132.445 91.1278 132.431 91.0684 132.401 91.0169C132.371 90.9654 132.325 90.9242 132.271 90.8986C131.928 90.7594 131.559 90.6927 131.188 90.7025C130.739 90.3825 132.54 87.8645 133.211 87.0595C133.881 86.2546 133.758 85.6302 133.164 85.6302C132.756 85.6302 130.656 88.0502 130.011 88.8604C129.366 89.6705 127.653 91.9305 127.596 90.1297C127.54 88.3289 126.812 86.9615 126.358 86.7293C125.904 86.4971 125.419 87.044 125.672 87.5446C125.887 88.1131 126.022 88.7087 126.074 89.3144C126.132 89.8016 126.109 90.2949 126.007 90.7747C125.819 91.6541 125.56 92.5169 125.233 93.3547L125.187 93.3289C125.187 93.3289 112.612 105.388 111.704 106.229C110.888 107.003 94.5467 105.31 91.2752 104.965C90.1592 104.806 89.033 104.73 87.9057 104.738C86.4867 104.8 86.2339 105.001 84.8097 105.016C81.4282 105.028 78.053 105.311 74.7168 105.863C71.4505 106.415 69.6548 108.959 68.6486 112.122C65.3411 122.442 56.4039 146.694 55.0675 160.419C54.0712 162.228 53.1704 164.089 52.3688 165.992C51.4452 168.515 51.6722 168.603 51.9818 168.66C52.8177 168.815 53.7775 164.289 54.1387 165.378C54.4999 166.467 52.3224 170.781 53.2047 170.904C54.3503 171.069 55.2687 166.312 55.3771 165.915C55.4855 165.517 56.0634 165.662 55.9447 166.013C55.7796 166.529 54.1593 171.895 55.2842 172.071C55.9086 172.163 55.9757 171.039 55.9757 171.039C55.9757 171.039 57.1212 165.879 57.6527 165.997C58.1841 166.116 57.6217 169.14 57.3534 170.151C57.0851 171.162 57.4617 171.699 57.9984 171.431C58.3699 171.26 59.2523 168.18 59.4948 167.174C59.7373 166.167 60.3359 163.397 61.1511 165.006C61.9664 166.616 63.2151 167.545 63.7311 167.586C63.8499 167.581 63.964 167.538 64.057 167.464C64.1499 167.39 64.217 167.288 64.2485 167.174C64.28 167.059 64.2744 166.937 64.2324 166.826C64.1905 166.715 64.1143 166.62 64.0149 166.554C63.5783 166.129 63.2032 165.644 62.9004 165.115C62.6411 164.698 62.4527 164.241 62.3431 163.763C62.1145 162.807 61.9815 161.83 61.9458 160.848L61.8477 160.254C63.1377 153.866 67.5237 132.091 72.854 120.109L74.402 127.664L75.3566 131.012L69.4897 145.512L94.5002 145.182L90.7696 130.816L95.3 115.852C100.207 115.961 112.798 116.146 114.908 115.197C117.545 114.021 131.203 96.8067 131.203 96.8067C132.103 96.1159 132.964 95.3769 133.783 94.5931C133.783 94.5931 134.573 93.912 134.072 93.396Z" fill="#FFBE9D"/>
<path d="M68.401 134.851C69.1234 132.375 72.8489 120.125 72.8489 120.125C72.8489 120.125 74.6807 130.109 74.2008 131.312C73.7572 132.343 73.2309 133.337 72.627 134.284C68.401 140.724 68.9531 143.943 68.9531 143.943L94.5002 143.164C94.5622 139.593 92.4362 131.296 92.0028 129.96C91.5694 128.623 93.0348 124.284 93.0348 124.284C93.0348 124.284 95.9244 121.353 95.8109 119.846C95.7507 118.493 95.5781 117.146 95.2949 115.821L114.217 116.183L112.101 105.899L93.8552 104.562L87.7871 103.995C84.7324 106.575 80.1554 103.995 80.1554 103.995C74.335 104.562 73.4836 105.496 71.0945 107.885C68.2565 110.713 60.5887 132.349 60.5887 132.349L68.401 134.851Z" fill="#008D5C"/>
<path d="M83.5094 132.359C83.0649 132.437 82.6126 132.459 82.1627 132.426C81.3267 132.426 80.1812 132.369 78.917 132.246C77.6528 132.122 76.5176 131.936 75.7023 131.776C75.2547 131.72 74.8159 131.608 74.3969 131.441C74.8455 131.439 75.2933 131.482 75.7333 131.57C76.5589 131.673 77.6889 131.817 78.948 131.946C80.207 132.075 81.3422 132.158 82.1678 132.215C82.6188 132.217 83.0683 132.265 83.5094 132.359Z" fill="#263238"/>
<path d="M85.2535 130.187C84.811 130.403 84.3429 130.563 83.8603 130.661C82.713 130.965 81.5456 131.188 80.367 131.327C79.1892 131.469 78.0028 131.526 76.8169 131.497C76.3248 131.512 75.8327 131.467 75.3515 131.363C75.8367 131.294 76.3271 131.268 76.8169 131.286C77.7199 131.255 78.9635 131.193 80.336 131.028C81.7086 130.863 82.916 130.641 83.8139 130.455C84.2849 130.323 84.7666 130.233 85.2535 130.187Z" fill="#263238"/>
<path d="M93.8501 120.496C93.8444 120.935 93.7855 121.372 93.6746 121.797C93.525 122.596 93.2928 123.69 92.9987 124.893C92.7046 126.095 92.4053 127.173 92.1679 127.953C92.0688 128.38 91.9181 128.794 91.719 129.186C91.7502 128.748 91.8316 128.315 91.9615 127.896C92.1782 126.998 92.4311 125.966 92.7046 124.826C92.978 123.685 93.2464 122.653 93.4682 121.73C93.5489 121.305 93.677 120.892 93.8501 120.496Z" fill="#263238"/>
<path d="M68.7828 144.119L94.3248 143.34L105.439 186.746L103.375 236.534H89.8562L91.5435 187.824L81.6621 157.586L83.1637 237.05L69.5103 237.252L68.112 162.643C68.0552 160.533 67.3586 155.765 67.596 153.67L68.7828 144.119Z" fill="#455A64"/>
<path d="M85.0677 158.2C84.6484 158.23 84.227 158.206 83.8138 158.128C83.045 158.035 81.9872 157.875 80.8314 157.643C79.6755 157.411 78.6332 157.127 77.8902 156.936C77.4784 156.848 77.0796 156.708 76.7034 156.518C76.7034 156.436 78.5816 156.885 80.8881 157.349C83.1946 157.813 85.0781 158.113 85.0677 158.2Z" fill="#263238"/>
<path d="M103.267 233.805C103.267 233.887 100.207 233.954 96.4301 233.954C92.653 233.954 89.9646 233.836 89.9646 233.753C89.9646 233.671 92.653 233.655 96.4301 233.655C100.207 233.655 103.267 233.748 103.267 233.805Z" fill="#263238"/>
<path d="M82.9728 233.954C82.9728 234.037 80.0006 234.104 76.337 234.104C72.6734 234.104 69.7064 234.037 69.7064 233.954C69.7064 233.872 72.6734 233.805 76.337 233.805C80.0006 233.805 82.9728 233.872 82.9728 233.954Z" fill="#263238"/>
<path d="M81.3061 233.954C81.2236 233.954 80.8624 216.777 80.5012 195.585C80.14 174.393 79.9181 157.215 79.9852 157.21C80.0522 157.205 80.4444 174.408 80.8056 195.564C81.1668 216.72 81.3887 233.949 81.3061 233.954Z" fill="#263238"/>
<path d="M101.451 233.805C101.445 233.726 101.445 233.646 101.451 233.567C101.451 233.397 101.451 233.17 101.451 232.876C101.451 232.257 101.492 231.364 101.528 230.224C101.606 227.907 101.724 224.579 101.864 220.471C102.178 212.215 102.617 200.863 103.097 188.294C103.097 188.175 103.097 188.061 103.097 187.953V187.994C100.068 175.873 97.3331 164.914 95.3568 156.967L93.0606 147.576C92.7974 146.477 92.591 145.62 92.4517 144.996C92.3863 144.717 92.3347 144.495 92.2969 144.33C92.2775 144.256 92.2637 144.18 92.2556 144.103C92.2883 144.174 92.3126 144.249 92.3279 144.325C92.3691 144.485 92.4311 144.702 92.5085 144.98C92.6633 145.579 92.8903 146.436 93.1741 147.53C93.7469 149.753 94.5673 152.953 95.5787 156.9C97.5859 164.841 100.352 175.791 103.417 187.907V187.953C103.417 188.056 103.417 188.175 103.417 188.288C102.901 200.848 102.436 212.215 102.096 220.461C101.915 224.589 101.766 227.897 101.662 230.213C101.606 231.354 101.559 232.241 101.528 232.866C101.528 233.155 101.497 233.382 101.487 233.552C101.483 233.637 101.471 233.722 101.451 233.805Z" fill="#263238"/>
<path d="M97.0441 186.942C96.0721 187.26 95.0716 187.483 94.0565 187.607C92.8181 187.819 91.7448 187.963 91.2752 187.994V187.876C91.43 187.917 91.5126 187.953 91.5074 187.974C91.5023 187.994 91.4146 187.974 91.2546 187.974H90.9089L91.2546 187.87C91.7035 187.736 92.7665 187.52 94.01 187.303C95.0072 187.084 96.0234 186.963 97.0441 186.942Z" fill="#263238"/>
<path d="M96.7861 188.598C95.8881 188.634 94.9887 188.592 94.0977 188.474C93.1984 188.451 92.3026 188.353 91.4197 188.18C92.3168 188.057 93.2265 188.057 94.1236 188.18C95.026 188.197 95.9218 188.338 96.7861 188.598Z" fill="#263238"/>
<path d="M68.6693 145.032C69.2833 145.904 70.1657 146.209 71.1874 146.374C72.2171 146.496 73.2588 146.477 74.2834 146.317C80.8778 145.584 87.8645 144.908 94.3196 143.34C85.9604 143.804 77.1368 143.649 68.7776 144.119C68.7776 144.119 68.7054 144.692 68.6899 144.831" fill="#263238"/>
<path d="M77.2865 156.818L81.9924 175.099L81.6621 157.586L77.2865 156.818Z" fill="#263238"/>
<path d="M76.337 91.2855C74.5207 90.8005 72.6218 92.7355 72.5599 94.6137C72.5599 95.1297 72.6167 95.7696 72.2348 96.1617C71.853 96.5539 71.1719 96.4455 70.5991 96.492C70.0141 96.5502 69.4665 96.8066 69.0471 97.2185C68.6276 97.6305 68.3614 98.1733 68.2926 98.7572C68.21 99.5931 68.5454 100.491 68.1946 101.255C67.8437 102.018 67.0336 102.328 66.4711 102.896C66.1299 103.282 65.8732 103.735 65.7177 104.227C65.5622 104.718 65.5112 105.237 65.5681 105.749C65.6902 106.773 65.9596 107.774 66.3679 108.721C66.6982 109.604 67.1316 110.584 68.0191 110.899H75.6508L76.2235 108.019L77.1575 110.899H78.401L77.7302 92.204C77.7302 92.204 77.7251 91.6519 76.337 91.2855Z" fill="#263238"/>
<path d="M65.8984 100.212C65.8984 100.212 65.8158 100.212 65.692 100.254C65.6033 100.302 65.5357 100.382 65.5023 100.477C65.469 100.572 65.4722 100.677 65.5114 100.77C65.6071 100.98 65.7798 101.147 65.9939 101.234C66.2081 101.322 66.4477 101.325 66.6638 101.242C66.8798 101.159 67.056 100.996 67.1564 100.788C67.2568 100.579 67.2738 100.34 67.2038 100.119C67.095 99.8719 66.9545 99.6395 66.7859 99.428C66.3949 98.9068 66.2261 98.2519 66.3163 97.6066C66.3625 97.2488 66.4909 96.9066 66.6914 96.6067C66.892 96.3068 67.1592 96.0574 67.4722 95.878C67.8071 95.6819 68.1837 95.5679 68.5712 95.5455C68.9587 95.5231 69.346 95.5928 69.7013 95.749C70.403 96.0534 71.0119 96.5023 71.6879 96.4094C71.8402 96.4035 71.9887 96.3592 72.1194 96.2807C72.2502 96.2023 72.3591 96.0922 72.4361 95.9605C72.5448 95.6673 72.5802 95.352 72.5393 95.042C72.4986 94.4499 72.5848 93.8559 72.7921 93.2997C72.9994 92.7435 73.3231 92.238 73.7416 91.817C74.3307 91.2652 75.112 90.9652 75.9191 90.9811C76.133 90.9872 76.345 91.0237 76.5486 91.0895C76.6217 91.1072 76.6915 91.1368 76.755 91.1772C76.4792 91.1246 76.1997 91.0936 75.9191 91.0843C75.1452 91.1021 74.4072 91.4139 73.8551 91.9564C73.4649 92.366 73.1662 92.8538 72.9785 93.3875C72.7908 93.9212 72.7185 94.4887 72.7663 95.0524C72.8124 95.4013 72.7698 95.7562 72.6425 96.0844C72.5475 96.2556 72.4105 96.3999 72.2444 96.5037C72.0783 96.6075 71.8886 96.6674 71.693 96.6778C71.3106 96.7143 70.9255 96.6465 70.5785 96.4817C70.2276 96.332 69.9077 96.1411 69.5774 96.0018C69.2601 95.8627 68.9146 95.8001 68.5687 95.8189C68.2227 95.8377 67.886 95.9375 67.5857 96.1102C67.306 96.2713 67.0674 96.4948 66.8884 96.7633C66.7094 97.0318 66.5948 97.3381 66.5537 97.6582C66.4649 98.2465 66.6134 98.846 66.9665 99.3249C67.1427 99.5535 67.2868 99.8053 67.3948 100.073C67.4434 100.206 67.4647 100.348 67.4577 100.49C67.4506 100.632 67.4151 100.771 67.3535 100.899C67.2467 101.125 67.0642 101.308 66.8375 101.415C66.6301 101.507 66.3987 101.53 66.177 101.482C66.0005 101.448 65.8365 101.367 65.7028 101.247C65.5691 101.127 65.4708 100.973 65.4185 100.801C65.3807 100.69 65.3863 100.57 65.4342 100.463C65.4821 100.357 65.5688 100.273 65.6765 100.228C65.8261 100.156 65.9035 100.212 65.8984 100.212Z" fill="#263238"/>
<path d="M95.46 115.656C95.2648 115.683 95.0669 115.683 94.8717 115.656C94.3348 115.591 93.812 115.44 93.3237 115.207C92.5954 114.866 91.9455 114.377 91.4145 113.773C90.7405 113.041 90.2862 112.134 90.1037 111.155C89.9212 110.177 90.0178 109.167 90.3825 108.241C90.6646 107.487 91.1004 106.8 91.6622 106.224C92.035 105.833 92.4689 105.505 92.9471 105.254C93.1164 105.152 93.3011 105.079 93.494 105.037C92.8701 105.393 92.3002 105.836 91.8015 106.353C91.2802 106.925 90.8769 107.595 90.6147 108.324C90.275 109.208 90.1853 110.169 90.3555 111.101C90.5257 112.033 90.9492 112.9 91.5797 113.608C92.0837 114.196 92.697 114.682 93.3857 115.037C94.046 115.336 94.7438 115.544 95.46 115.656Z" fill="#263238"/>
</svg>
