<svg width="32" height="34" viewBox="0 0 32 34" fill="none" xmlns="http://www.w3.org/2000/svg">
<path d="M18.2072 29.7859C17.6088 30.2839 16.8392 30.5834 15.9998 30.5834C14.1205 30.5834 12.5932 29.082 12.5487 27.2133C11.8102 27.5586 10.9211 27.5506 10.1614 27.1123C9.40169 26.6741 8.95013 25.9077 8.8804 25.0956C7.24017 25.9914 5.1756 25.419 4.23595 23.7914C3.2963 22.1644 3.83286 20.0906 5.42927 19.1177C4.76056 18.6515 4.32294 17.8772 4.32294 17C4.32294 16.1228 4.76056 15.3485 5.42927 14.8823C4.95247 14.5914 4.57064 14.203 4.29439 13.7574" stroke="#008D5C" stroke-miterlimit="10" stroke-linecap="round" stroke-linejoin="round"/>
<path d="M28.2233 22.2169C28.2757 20.9983 27.6781 19.7931 26.5704 19.1177C27.2391 18.6515 27.6767 17.8772 27.6767 17C27.6767 16.1228 27.2391 15.3485 26.5704 14.8823C28.1668 13.9095 28.7034 11.8356 27.7637 10.2086C26.8241 8.58102 24.7602 8.0086 23.1199 8.90442H23.1193C23.0495 8.09227 22.598 7.32594 21.8383 6.88766C21.0786 6.44938 20.1894 6.44141 19.451 6.78673C19.4397 6.31591 19.3348 5.86833 19.1528 5.46259" stroke="#008D5C" stroke-miterlimit="10" stroke-linecap="round" stroke-linejoin="round"/>
<path d="M17.5399 3.77785C17.0764 3.54675 16.5531 3.4166 15.9999 3.4166C14.1206 3.4166 12.5933 4.91804 12.5488 6.78671C11.8104 6.4414 10.9212 6.44937 10.1615 6.88765C9.4018 7.32593 8.95023 8.09226 8.88051 8.90441C7.24027 8.00859 5.1757 8.58101 4.23605 10.2086C4.00164 10.6144 3.85953 11.048 3.80176 11.485" stroke="#008D5C" stroke-miterlimit="10" stroke-linecap="round" stroke-linejoin="round"/>
<path d="M12.9449 8.4818C12.6904 8.00062 12.5464 7.45204 12.5464 6.86985C12.5464 6.84203 12.5467 6.81434 12.5474 6.78671" stroke="#008D5C" stroke-miterlimit="10" stroke-linecap="round" stroke-linejoin="round"/>
<path d="M8.95361 8.94434C9.49848 9.2589 9.9252 9.69957 10.2181 10.2081" stroke="#008D5C" stroke-miterlimit="10" stroke-linecap="round" stroke-linejoin="round"/>
<path d="M5.50049 19.0745C6.06182 18.7504 6.67628 18.6018 7.28044 18.6117" stroke="#008D5C" stroke-miterlimit="10" stroke-linecap="round" stroke-linejoin="round"/>
<path d="M12.5474 27.2133C12.5467 27.1857 12.5464 27.158 12.5464 27.1302C12.5464 26.4049 12.77 25.7318 13.152 25.1761" stroke="#008D5C" stroke-miterlimit="10" stroke-linecap="round" stroke-linejoin="round"/>
<path d="M24.8501 14.4299C24.9308 14.4224 25.0125 14.4185 25.0951 14.4185C25.6298 14.4185 26.1265 14.581 26.5385 14.8593" stroke="#008D5C" stroke-miterlimit="10" stroke-linecap="round" stroke-linejoin="round"/>
<path d="M23.1197 8.90454C23.1634 9.41275 23.0573 9.93888 22.7829 10.4142C22.6979 10.5615 22.6004 10.6974 22.4927 10.821" stroke="#008D5C" stroke-miterlimit="10" stroke-linecap="round" stroke-linejoin="round"/>
<path d="M16 1.33444V3.41661" stroke="#008D5C" stroke-miterlimit="10" stroke-linecap="round" stroke-linejoin="round"/>
<path d="M17.4925 0.498047C16.6333 1.23336 15.3666 1.23336 14.5073 0.498047" stroke="#008D5C" stroke-miterlimit="10" stroke-linecap="round" stroke-linejoin="round"/>
<path d="M9.0874 4.99719L9.97897 6.5414" stroke="#008D5C" stroke-miterlimit="10" stroke-linecap="round" stroke-linejoin="round"/>
<path d="M9.79689 4.03284C9.51752 4.8242 8.70345 5.29422 7.87842 5.14049" stroke="#008D5C" stroke-miterlimit="10" stroke-linecap="round" stroke-linejoin="round"/>
<path d="M2.14893 16.9851H3.932" stroke="#008D5C" stroke-miterlimit="10" stroke-linecap="round" stroke-linejoin="round"/>
<path d="M1.66846 15.8883C2.21412 16.5259 2.21412 17.466 1.66846 18.1036" stroke="#008D5C" stroke-miterlimit="10" stroke-linecap="round" stroke-linejoin="round"/>
<path d="M9.06152 28.9879L9.95309 27.4436" stroke="#008D5C" stroke-miterlimit="10" stroke-linecap="round" stroke-linejoin="round"/>
<path d="M7.87158 28.8554C8.69661 28.7017 9.51075 29.1717 9.79006 29.9631" stroke="#008D5C" stroke-miterlimit="10" stroke-linecap="round" stroke-linejoin="round"/>
<path d="M29.8509 17.0149H28.0679" stroke="#008D5C" stroke-miterlimit="10" stroke-linecap="round" stroke-linejoin="round"/>
<path d="M30.3311 18.1117C29.7855 17.4741 29.7855 16.534 30.3311 15.8964" stroke="#008D5C" stroke-miterlimit="10" stroke-linecap="round" stroke-linejoin="round"/>
<path d="M22.9384 5.01208L22.0469 6.55636" stroke="#008D5C" stroke-miterlimit="10" stroke-linecap="round" stroke-linejoin="round"/>
<path d="M24.1284 5.14455C23.3034 5.29835 22.4893 4.82833 22.21 4.0369" stroke="#008D5C" stroke-miterlimit="10" stroke-linecap="round" stroke-linejoin="round"/>
<path d="M2.43311 9.16718L4.23637 10.2083" stroke="#008D5C" stroke-miterlimit="10" stroke-linecap="round" stroke-linejoin="round"/>
<path d="M2.45502 7.45642C2.6622 8.56819 2.02882 9.66523 0.962402 10.0417" stroke="#008D5C" stroke-miterlimit="10" stroke-linecap="round" stroke-linejoin="round"/>
<path d="M2.43311 24.8328L4.23637 23.7917" stroke="#008D5C" stroke-miterlimit="10" stroke-linecap="round" stroke-linejoin="round"/>
<path d="M0.962402 23.9584C2.02882 24.3348 2.6622 25.4319 2.45502 26.5436" stroke="#008D5C" stroke-miterlimit="10" stroke-linecap="round" stroke-linejoin="round"/>
<path d="M16 32.6656V30.5834" stroke="#008D5C" stroke-miterlimit="10" stroke-linecap="round" stroke-linejoin="round"/>
<path d="M14.5073 33.502C15.3666 32.7666 16.6333 32.7666 17.4925 33.502" stroke="#008D5C" stroke-miterlimit="10" stroke-linecap="round" stroke-linejoin="round"/>
<path d="M29.5664 9.16718L27.7632 10.2083" stroke="#008D5C" stroke-miterlimit="10" stroke-linecap="round" stroke-linejoin="round"/>
<path d="M31.0371 10.0416C29.9707 9.66516 29.3373 8.56813 29.5445 7.45636" stroke="#008D5C" stroke-miterlimit="10" stroke-linecap="round" stroke-linejoin="round"/>
<path d="M11.2408 17.4646C12.572 17.4646 13.6511 16.3855 13.6511 15.0543C13.6511 13.7231 12.572 12.644 11.2408 12.644C9.90969 12.644 8.83057 13.7231 8.83057 15.0543C8.83057 16.3855 9.90969 17.4646 11.2408 17.4646Z" stroke="#008D5C" stroke-miterlimit="10" stroke-linecap="round" stroke-linejoin="round"/>
<path d="M17.3912 26.5982C17.3724 26.6102 17.3533 26.6218 17.3338 26.633C16.6232 27.0433 15.7146 26.7998 15.3043 26.0892C14.894 25.3786 15.1375 24.47 15.8481 24.0596C16.4986 23.6841 17.3151 23.8564 17.7633 24.4334" stroke="#008D5C" stroke-miterlimit="10" stroke-linecap="round" stroke-linejoin="round"/>
<path d="M10.9105 22.8286C11.731 22.8286 12.3962 22.1634 12.3962 21.3429C12.3962 20.5224 11.731 19.8572 10.9105 19.8572C10.09 19.8572 9.4248 20.5224 9.4248 21.3429C9.4248 22.1634 10.09 22.8286 10.9105 22.8286Z" stroke="#008D5C" stroke-miterlimit="10" stroke-linecap="round" stroke-linejoin="round"/>
<path d="M16.35 11.3485C17.1705 11.3485 17.8357 10.6833 17.8357 9.86278C17.8357 9.04225 17.1705 8.37708 16.35 8.37708C15.5294 8.37708 14.8643 9.04225 14.8643 9.86278C14.8643 10.6833 15.5294 11.3485 16.35 11.3485Z" stroke="#008D5C" stroke-miterlimit="10" stroke-linecap="round" stroke-linejoin="round"/>
<path d="M18.2603 14.4347C20.107 13.5283 22.3655 14.197 23.4094 16.0046C24.2202 17.4097 24.0688 19.1071 23.1584 20.3309" stroke="#008D5C" stroke-miterlimit="10" stroke-linecap="round" stroke-linejoin="round"/>
<path d="M16.5662 16.0278C15.8988 17.2039 15.8549 18.692 16.5794 19.9478C17.2223 21.0601 18.3246 21.7407 19.508 21.8888" stroke="#008D5C" stroke-miterlimit="10" stroke-linecap="round" stroke-linejoin="round"/>
</svg>
