<svg width="34" height="34" viewBox="0 0 34 34" fill="none" xmlns="http://www.w3.org/2000/svg">
<mask id="mask0_561_13986" style="mask-type:luminance" maskUnits="userSpaceOnUse" x="0" y="0" width="34" height="34">
<path d="M0 3.8147e-06H34V34H0V3.8147e-06Z" fill="white"/>
</mask>
<g mask="url(#mask0_561_13986)">
<path d="M6.10382 20.7862C7.69824 20.7862 7.95231 18.5549 7.95231 16.9284C7.95231 15.3037 7.69824 13.0706 6.10382 13.0706C4.50755 13.0706 3.21436 14.7985 3.21436 16.9284C3.21436 19.0602 4.50755 20.7862 6.10382 20.7862Z" stroke="#008D5C" stroke-miterlimit="10" stroke-linecap="round" stroke-linejoin="round"/>
<path d="M13.5864 22.1254C18.0778 22.9499 17.5997 16.4776 22.3037 17.7886C24.9843 18.5361 25.741 16.7293 28.8469 16.9284" stroke="#008D5C" stroke-miterlimit="10" stroke-linecap="round" stroke-linejoin="round"/>
<path d="M22.3038 17.7886C17.9912 16.2316 18.7329 12.2216 15.2769 10.2552" stroke="#008D5C" stroke-miterlimit="10" stroke-linecap="round" stroke-linejoin="round"/>
<path d="M21.6543 8.95356L23.2957 11.7295" stroke="#008D5C" stroke-miterlimit="10" stroke-linecap="round" stroke-linejoin="round"/>
<path d="M24.6339 8.23794C22.5877 8.78075 20.6019 8.57409 19.5967 11.0947" stroke="#008D5C" stroke-miterlimit="10" stroke-linecap="round" stroke-linejoin="round"/>
<path d="M25.7335 24.8563C23.004 24.7323 21.2158 22.5611 18.6558 24.5615" stroke="#008D5C" stroke-miterlimit="10" stroke-linecap="round" stroke-linejoin="round"/>
<path d="M18.07 13.4349L14.1113 13.2772" stroke="#008D5C" stroke-miterlimit="10" stroke-linecap="round" stroke-linejoin="round"/>
<path d="M17.6411 20.0706L14.9492 19.2404" stroke="#008D5C" stroke-miterlimit="10" stroke-linecap="round" stroke-linejoin="round"/>
<path d="M23.0113 24.197L22.2734 21.6183" stroke="#008D5C" stroke-miterlimit="10" stroke-linecap="round" stroke-linejoin="round"/>
<path d="M19.8812 28.2802C25.0239 27.0519 28.847 22.4352 28.847 16.9284C28.847 10.4824 23.6083 5.25534 17.148 5.25534C12.0411 5.25534 7.70028 8.51967 6.104 13.0706M6.104 20.7862C7.70028 25.3371 12.0429 28.6014 17.148 28.6014C17.2966 28.6014 17.4454 28.5977 17.5941 28.592" stroke="#008D5C" stroke-miterlimit="10" stroke-linecap="round" stroke-linejoin="round"/>
<path d="M8.38146 5.42067C10.8399 3.56501 13.8855 2.49248 17.1195 2.49248C25.1083 2.49248 31.5875 8.95733 31.5875 16.9284C31.5875 18.5831 31.3089 20.1739 30.795 21.6539C30.0797 23.7125 29.9367 23.8909 31.5574 25.508L33.4059 27.3543C33.534 27.4801 33.534 27.6868 33.4059 27.8126L29.7974 31.4131C29.6713 31.539 29.4642 31.539 29.3381 31.4131L27.7136 29.7941C26.6707 28.7517 26.2303 28.4136 24.8034 29.178C22.17 30.5867 20.2161 31.3661 17.1195 31.3661C11.6587 31.3661 6.7306 28.3066 4.27225 23.5791C4.09527 23.2354 4.17994 23.3068 3.843 23.1265C1.61241 21.9376 0.498047 19.4339 0.498047 16.9284C0.498047 14.4248 1.61241 11.9192 3.843 10.7303C4.17994 10.5519 4.09527 10.6233 4.27225 10.2795C4.9122 9.05123 5.71791 7.93368 6.65723 6.95512" stroke="#008D5C" stroke-miterlimit="10" stroke-linecap="round" stroke-linejoin="round"/>
</g>
</svg>
