<svg width="34" height="34" viewBox="0 0 34 34" fill="none" xmlns="http://www.w3.org/2000/svg">
<path d="M22.5138 33.5405C22.5057 33.5405 22.4976 33.5403 22.4895 33.5399C22.3679 33.5336 22.2537 33.4792 22.1721 33.3887C22.0905 33.2982 22.0482 33.179 22.0545 33.0573L22.8121 18.4955C22.8135 18.4669 22.8177 18.4385 22.8245 18.4107C23.7373 14.661 23.2319 11.4426 21.3223 8.84478C16.754 2.63022 5.59602 1.84411 5.48393 1.83694C5.36231 1.82917 5.24876 1.77341 5.16825 1.68192C5.08775 1.59044 5.04688 1.47071 5.05465 1.3491C5.06241 1.22748 5.11817 1.11392 5.20966 1.03342C5.30115 0.952912 5.42087 0.912046 5.54249 0.919811C6.01787 0.95009 17.2363 1.73822 22.061 8.29832C24.1332 11.1156 24.6937 14.5766 23.7275 18.5859L22.9721 33.1048C22.966 33.2223 22.9151 33.333 22.8298 33.4141C22.7446 33.4951 22.6314 33.5404 22.5138 33.5405Z" fill="#008D5C"/>
<path d="M13.3245 33.5408C13.2317 33.5407 13.1412 33.5126 13.0647 33.4601C12.9882 33.4077 12.9294 33.3333 12.896 33.2467C10.329 26.6052 12.0483 20.3493 12.6954 17.9944C12.7537 17.7824 12.8132 17.5661 12.8549 17.3987C4.79106 15.474 1.18695 11.5029 1.03507 11.3324C0.954091 11.2413 0.912603 11.1218 0.919733 11.0001C0.926863 10.8785 0.982028 10.7647 1.07309 10.6837C1.16415 10.6027 1.28366 10.5612 1.40531 10.5683C1.52696 10.5755 1.6408 10.6306 1.72178 10.7217C1.77361 10.7791 5.43538 14.7774 13.4405 16.5915C13.5054 16.6061 13.5667 16.6338 13.6206 16.673C13.6745 16.7121 13.7197 16.7619 13.7537 16.8192C13.9029 17.0684 13.8349 17.3161 13.5816 18.2377C12.9563 20.5128 11.2955 26.5564 13.753 32.9155C13.7797 32.9851 13.7892 33.0602 13.7805 33.1343C13.7718 33.2084 13.7452 33.2792 13.7031 33.3408C13.6609 33.4023 13.6044 33.4526 13.5385 33.4875C13.4725 33.5223 13.3991 33.5406 13.3245 33.5408Z" fill="#008D5C"/>
<path d="M12.8444 13.0024C11.9078 13.0024 10.8802 12.4489 9.78323 11.3519C6.39931 7.96797 4.04761 7.34373 4.0243 7.33789C3.95082 7.3194 3.88305 7.28305 3.82698 7.23209C3.77092 7.18112 3.7283 7.11711 3.7029 7.04572C3.67751 6.97434 3.67012 6.89779 3.6814 6.82287C3.69267 6.74795 3.72227 6.67696 3.76755 6.61622L5.14593 4.77838C5.21904 4.68097 5.32783 4.61658 5.44839 4.59935C5.56896 4.58212 5.69143 4.61346 5.7889 4.68649C5.8248 4.71318 9.42308 7.37258 13.8294 7.81311C15.4501 7.9753 16.3313 8.41996 16.5234 9.17286C16.7964 10.2437 15.4512 11.3183 14.9865 11.6523C14.8105 11.9827 14.5652 12.2711 14.2672 12.4977C13.9692 12.7243 13.6258 12.8837 13.2604 12.965C13.1231 12.9899 12.9839 13.0025 12.8444 13.0024ZM4.8774 6.66777C5.84771 7.06957 7.85807 8.12736 10.4329 10.7022C11.4501 11.7194 12.3683 12.19 13.0871 12.0624C13.8432 11.9284 14.2091 11.1576 14.2126 11.1498C14.2478 11.074 14.3025 11.0091 14.3712 10.9615C14.9637 10.5552 15.7318 9.78663 15.6329 9.39985C15.6116 9.31715 15.4207 8.89576 13.7378 8.72748C9.86871 8.3405 6.67986 6.40349 5.614 5.68581L4.8774 6.66777Z" fill="#008D5C"/>
<path d="M19.2973 33.0811H16.5405C16.4738 33.0811 16.4078 33.0666 16.3473 33.0385C16.2867 33.0105 16.233 32.9696 16.1899 32.9186C16.1467 32.8677 16.1152 32.808 16.0975 32.7436C16.0798 32.6793 16.0763 32.6118 16.0874 32.546L16.5468 29.7893C16.9944 26.2058 16.9977 23.48 16.5542 21.7061C16.5098 21.528 16.4681 21.3669 16.4302 21.2206C16.1848 20.2714 16.0495 19.7482 16.4715 19.2675C17.1008 18.5502 19.2788 18.4423 20.2298 19.0822C20.8375 19.4907 20.9863 20.1633 20.6273 20.8812C19.9133 22.3089 19.7568 29.8402 19.7568 32.6216C19.7568 32.7435 19.7083 32.8603 19.6222 32.9465C19.536 33.0327 19.4192 33.0811 19.2973 33.0811ZM17.0827 32.1622H18.8391C18.8496 29.9995 18.9481 22.1842 19.8051 20.4702C20.0008 20.0791 19.8688 19.9468 19.7169 19.8447C19.028 19.381 17.4196 19.5795 17.1621 19.8736C17.0686 19.98 17.124 20.2337 17.3198 20.9907C17.3582 21.1389 17.4006 21.3025 17.4457 21.4831C17.9168 23.3676 17.9202 26.2069 17.4558 29.9218L17.0827 32.1622Z" fill="#008D5C"/>
<path d="M19.8094 17.7038C18.9235 17.7038 17.8634 16.7472 17.1693 15.2431C16.3462 13.4594 16.4429 11.7833 17.3939 11.3443C18.3458 10.9052 19.6836 11.9193 20.5067 13.7028C21.3296 15.4866 21.2331 17.1625 20.2821 17.6017C20.1339 17.6698 19.9725 17.7047 19.8094 17.7038ZM17.8854 12.1573C17.8488 12.1565 17.8124 12.1638 17.7788 12.1786C17.4468 12.3318 17.3672 13.4787 18.0037 14.8582C18.6401 16.2377 19.5646 16.9219 19.897 16.7674C20.2288 16.6141 20.3087 15.4673 19.6725 14.0878C19.0946 12.8359 18.2794 12.1573 17.8854 12.1573Z" fill="#008D5C"/>
<path d="M25.2701 11.0273C25.1627 11.0272 25.0588 10.9896 24.9763 10.921C24.8937 10.8524 24.8378 10.757 24.8183 10.6515C24.7987 10.5459 24.8166 10.4369 24.8691 10.3432C24.9215 10.2495 25.005 10.1772 25.1052 10.1386L29.8851 8.30078C29.9988 8.25705 30.1253 8.2603 30.2367 8.30982C30.3481 8.35934 30.4352 8.45108 30.4789 8.56484C30.5227 8.67861 30.5194 8.80508 30.4699 8.91645C30.4204 9.02782 30.3286 9.11495 30.2149 9.15868L25.435 10.9965C25.3824 11.0168 25.3265 11.0272 25.2701 11.0273Z" fill="#008D5C"/>
<path d="M22.1653 6.89189C22.0782 6.89185 21.993 6.86708 21.9195 6.82047C21.846 6.77386 21.7872 6.70732 21.75 6.62861C21.7129 6.5499 21.6988 6.46225 21.7096 6.37587C21.7203 6.28948 21.7553 6.20792 21.8106 6.14068L24.4558 2.92446C24.4942 2.87785 24.5413 2.83925 24.5946 2.81085C24.6478 2.78246 24.7061 2.76483 24.7662 2.75897C24.8262 2.75312 24.8869 2.75915 24.9446 2.77672C25.0023 2.7943 25.056 2.82307 25.1026 2.8614C25.1493 2.89973 25.1879 2.94686 25.2163 3.00011C25.2447 3.05336 25.2623 3.11168 25.2681 3.17174C25.274 3.2318 25.268 3.29243 25.2504 3.35016C25.2328 3.40789 25.204 3.46159 25.1657 3.50821L22.5205 6.72442C22.4773 6.77688 22.4231 6.81911 22.3617 6.84807C22.3003 6.87703 22.2332 6.892 22.1653 6.89189Z" fill="#008D5C"/>
<path d="M31.2143 18.8378C31.1764 18.8378 31.1386 18.8332 31.1019 18.8239L25.6178 17.4456C25.5012 17.4144 25.4015 17.3387 25.3403 17.2347C25.2791 17.1306 25.2613 17.0067 25.2907 16.8897C25.3201 16.7727 25.3944 16.6719 25.4975 16.6092C25.6006 16.5464 25.7242 16.5268 25.8417 16.5544L31.3258 17.9328C31.4344 17.9602 31.5293 18.0262 31.5926 18.1186C31.656 18.211 31.6833 18.3234 31.6697 18.4346C31.656 18.5457 31.6021 18.6481 31.5183 18.7223C31.4344 18.7966 31.3263 18.8377 31.2143 18.8378Z" fill="#008D5C"/>
<path d="M24.3515 8.27027C24.2606 8.27026 24.1718 8.24331 24.0963 8.19282C24.0207 8.14233 23.9618 8.07058 23.9271 7.98663C23.8923 7.90268 23.8832 7.81031 23.9009 7.72119C23.9186 7.63207 23.9624 7.55021 24.0266 7.48595L25.405 6.10757C25.4915 6.02321 25.6078 5.97633 25.7287 5.9771C25.8495 5.97786 25.9652 6.02621 26.0506 6.11166C26.1361 6.19711 26.1844 6.31279 26.1852 6.43364C26.186 6.55448 26.1391 6.67076 26.0547 6.75729L24.6764 8.13567C24.6337 8.1784 24.5831 8.21229 24.5274 8.23539C24.4716 8.25849 24.4118 8.27034 24.3515 8.27027Z" fill="#008D5C"/>
<path d="M28.0272 14.2432H26.1328C26.0109 14.2432 25.8941 14.1948 25.8079 14.1087C25.7217 14.0225 25.6733 13.9056 25.6733 13.7838C25.6733 13.6619 25.7217 13.5451 25.8079 13.4589C25.8941 13.3727 26.0109 13.3243 26.1328 13.3243H28.0272C28.149 13.3243 28.2659 13.3727 28.3521 13.4589C28.4382 13.5451 28.4866 13.6619 28.4866 13.7838C28.4866 13.9056 28.4382 14.0225 28.3521 14.1087C28.2659 14.1948 28.149 14.2432 28.0272 14.2432Z" fill="#008D5C"/>
</svg>
