<svg width="34" height="34" viewBox="0 0 34 34" fill="none" xmlns="http://www.w3.org/2000/svg">
<g clip-path="url(#clip0_561_22459)">
<path fill-rule="evenodd" clip-rule="evenodd" d="M31.9627 5.96262C31.2906 5.697 30.5582 5.88427 30.0966 6.44009C29.1344 7.59755 27.7605 8.71716 26.0797 9.72056C26.4058 8.96352 26.5864 8.13012 26.5864 7.25489C26.5864 3.80442 23.7787 0.996765 20.3283 0.996765C16.8778 0.996765 14.0702 3.80442 14.0702 7.25489C14.0702 9.80091 15.5988 11.997 17.7862 12.9731C16.2715 13.3198 14.79 13.5323 13.4406 13.5987C13.6345 13.3091 13.7481 12.9612 13.7481 12.5873V12.4432C13.7481 11.4398 12.932 10.6237 11.9286 10.6237H11.8568C5.86832 10.623 0.996094 15.4952 0.996094 21.4844V21.7069C0.996094 25.6229 2.89133 29.0733 6.19637 31.1731C9.50141 33.2735 13.43 33.5239 16.9754 31.8611C19.7505 30.5595 21.9273 28.1582 22.9487 25.2736C22.9819 25.1806 23.0602 25.1248 23.1592 25.1248H23.9481C24.1261 25.1248 24.2768 25.2756 24.2768 25.4535V31.1844C24.2768 32.1878 25.0929 33.0039 26.0963 33.0039H26.2404C27.2438 33.0039 28.06 32.1878 28.06 31.1844V25.4535C28.06 23.6592 26.9038 22.1306 25.2981 21.5701C27.5168 20.4737 29.159 18.1661 30.2155 16.2277C31.6612 13.5748 32.7529 10.1881 32.9973 7.59954C33.0637 6.89165 32.648 6.23356 31.9627 5.96262ZM14.867 7.25423C14.867 4.2427 17.3168 1.79298 20.3283 1.79298C23.3398 1.79298 25.7895 4.2427 25.7895 7.25423C25.7895 10.2657 23.3398 12.7155 20.3283 12.7155C17.3168 12.7155 14.867 10.2657 14.867 7.25423ZM27.2631 25.4535V31.1844C27.2631 31.7482 26.8042 32.207 26.2404 32.207H26.0963C25.5325 32.207 25.0737 31.7482 25.0737 31.1844V25.4535C25.0737 24.8326 24.569 24.3279 23.9481 24.3279H23.1592C22.7209 24.3279 22.3437 24.5949 22.1976 25.0079C21.2473 27.6934 19.2206 29.928 16.6374 31.1399C15.1957 31.8159 13.6863 32.1519 12.1869 32.1513C10.2604 32.1513 8.35059 31.5974 6.62469 30.5004C3.55406 28.5494 1.79297 25.3446 1.79297 21.7069V21.4844C1.79297 15.9349 6.30793 11.4206 11.8568 11.4206H11.9286C12.4923 11.4206 12.9512 11.8794 12.9512 12.4432V12.5873C12.9512 13.1511 12.4923 13.61 11.9286 13.61H11.8568C7.51453 13.61 3.98172 17.1428 3.98172 21.4851V21.7075C3.98172 24.6234 5.33707 27.0898 7.79742 28.6536C10.2578 30.2175 13.0668 30.3968 15.7064 29.1583C17.925 28.1177 19.5905 26.1767 20.2758 23.8332C20.5766 22.8046 21.4638 22.1392 22.5356 22.1392H23.9468C25.7762 22.1385 27.2631 23.626 27.2631 25.4535ZM32.2037 7.52516C31.9686 10.0147 30.9141 13.2813 29.5156 15.8472C28.2917 18.0937 26.2517 20.8655 23.4773 21.3423H22.537C21.1245 21.3423 19.9086 22.2534 19.5121 23.6094C18.8906 25.7338 17.3805 27.4935 15.3691 28.4372C12.9851 29.5554 10.4477 29.3934 8.22574 27.9809C7.41227 27.4643 6.73359 26.8374 6.19836 26.1222C6.85977 24.237 8.17594 22.8869 9.88059 21.8258C9.90449 21.8145 9.92707 21.8005 9.94899 21.7839C11.2413 20.9904 12.7513 20.3588 14.3663 19.7844C16.1155 19.8681 17.7099 20.2167 18.7498 20.744C18.8076 20.7732 18.8693 20.7872 18.9298 20.7872C19.0752 20.7872 19.2153 20.7075 19.2857 20.5687C19.3853 20.3721 19.307 20.1324 19.1104 20.0328C18.35 19.647 17.3307 19.3495 16.1839 19.1682C16.6388 19.0201 17.0976 18.8733 17.5591 18.7259C18.87 18.3069 20.1928 17.8839 21.4691 17.4071C22.6034 17.4283 23.6977 17.5678 24.6374 17.8128C24.6713 17.8215 24.7051 17.8261 24.7383 17.8261C24.9156 17.8261 25.077 17.7072 25.1235 17.5279C25.1793 17.3148 25.0511 17.0976 24.8386 17.0418C24.316 16.9057 23.7502 16.8001 23.1585 16.7271C23.4587 16.5956 23.7548 16.4601 24.045 16.3187C24.055 16.3147 24.0643 16.3094 24.0743 16.3047C26.3659 15.1878 28.3289 13.7381 29.5375 11.5952C29.6457 11.4033 29.578 11.1602 29.3861 11.0527C29.1942 10.9444 28.9511 11.0122 28.8436 11.2041C27.8999 12.8775 26.4264 14.1087 24.6739 15.0908C24.8054 14.6273 24.8844 14.124 24.9037 13.6073C24.9116 13.3875 24.7403 13.2022 24.5205 13.1943C24.3014 13.187 24.1154 13.3576 24.1075 13.5774C24.0789 14.3477 23.9029 15.0756 23.6094 15.6427C21.8915 16.4688 19.975 17.1136 18.0598 17.7291C18.3713 17.0604 18.5446 16.2476 18.5446 15.3903C18.5446 15.1705 18.366 14.9919 18.1462 14.9919C17.9264 14.9919 17.7477 15.1705 17.7477 15.3903C17.7477 16.4874 17.413 17.5173 16.8712 18.1097C15.9787 18.3952 15.0809 18.6874 14.201 18.9995C14.1864 19.0035 14.1718 19.0088 14.1578 19.0148C12.93 19.4511 11.74 19.9279 10.6549 20.4824C11.0022 19.5234 11.1974 18.3089 11.1974 17.0086C11.1974 16.5252 11.1702 16.0464 11.1157 15.5849C11.0905 15.3664 10.8926 15.2104 10.6735 15.2356C10.455 15.2615 10.2983 15.4594 10.3242 15.6779C10.3746 16.1088 10.4005 16.5564 10.4005 17.0093C10.4005 18.7286 10.028 20.315 9.42637 21.1763C7.6168 22.3132 6.37832 23.6705 5.66711 25.2975C5.08473 24.2356 4.77926 23.0217 4.77926 21.7069V21.4844C4.77926 17.5817 7.95414 14.4062 11.8575 14.4062H11.9246C12.1291 14.4141 12.3376 14.4181 12.5501 14.4181C14.5529 14.4181 16.907 14.0702 19.2658 13.4214C19.6111 13.4805 19.9664 13.5124 20.3283 13.5124C22.3391 13.5124 24.1307 12.5594 25.2762 11.0812C27.5871 9.87329 29.4651 8.44622 30.7089 6.94942C30.9466 6.66321 31.3238 6.56692 31.6691 6.70372C32.0277 6.84516 32.2376 7.1679 32.2037 7.52516ZM20.4671 10.0101C20.7294 10.1648 21.0309 10.2491 21.3396 10.2491C22.2853 10.2491 23.0543 9.48016 23.0543 8.53454C23.0543 8.51528 23.0543 8.49669 23.0536 8.47743C23.5689 8.22841 23.9155 7.69848 23.9155 7.10548C23.9155 6.42348 23.4713 5.83844 22.8345 5.64786C22.691 5.43137 22.4938 5.25407 22.2634 5.13454C22.1193 4.4386 21.509 3.92594 20.7725 3.92594C20.2758 3.92594 19.8203 4.17231 19.5394 4.5568C19.2904 4.40606 19.0028 4.32438 18.7007 4.32438C17.8068 4.32438 17.079 5.05153 17.079 5.94602C17.079 6.12665 17.1089 6.30462 17.1667 6.47329C16.8997 6.71567 16.7404 7.06364 16.7404 7.43551C16.7404 7.95415 17.0465 8.40637 17.4921 8.61423C17.4795 8.69723 17.4735 8.78223 17.4735 8.8679C17.4735 9.81352 18.2425 10.5825 19.1881 10.5825C19.6815 10.5825 20.1463 10.3674 20.4671 10.0101ZM20.317 9.03923C20.1868 9.05915 20.0746 9.14282 20.0182 9.26169C19.8668 9.57977 19.5414 9.78563 19.1887 9.78563C18.6827 9.78563 18.271 9.37391 18.271 8.8679C18.271 8.73841 18.2976 8.61423 18.3487 8.49735C18.4018 8.37782 18.3925 8.24036 18.3248 8.1288C18.2571 8.01723 18.1389 7.94618 18.0087 7.93821C17.7444 7.92161 17.5372 7.70114 17.5372 7.43618C17.5372 7.23762 17.6548 7.057 17.8361 6.97598C17.9423 6.92884 18.0233 6.83719 18.0559 6.72497C18.0891 6.61341 18.0711 6.49255 18.008 6.39493C17.9211 6.26145 17.8752 6.10606 17.8752 5.94602C17.8752 5.49114 18.2451 5.12126 18.7 5.12126C18.9596 5.12126 19.1987 5.24012 19.3568 5.44665C19.4511 5.57016 19.6078 5.62794 19.7592 5.59407C19.9106 5.56087 20.0288 5.442 20.0627 5.29059C20.135 4.96122 20.4332 4.72216 20.7719 4.72216C21.1663 4.72216 21.4851 5.03094 21.4977 5.42473C21.503 5.59473 21.6159 5.74282 21.7779 5.79262C21.9685 5.85173 22.1286 5.98919 22.2162 6.16915C22.2727 6.28536 22.3822 6.36704 22.5097 6.38829C22.8617 6.44606 23.1167 6.74755 23.1167 7.10481C23.1167 7.44946 22.8723 7.74895 22.535 7.81669C22.428 7.83794 22.3344 7.90302 22.276 7.99532C22.2175 8.08762 22.2003 8.19985 22.2275 8.3061C22.2461 8.37981 22.2561 8.45684 22.2561 8.53387C22.2561 9.03989 21.8443 9.45161 21.3383 9.45161C21.0813 9.45161 20.8436 9.34801 20.6676 9.16075C20.5793 9.06446 20.4478 9.0193 20.317 9.03923ZM20.9339 6.62005C20.9339 6.40024 21.1125 6.22161 21.3323 6.22161H21.3596C21.5794 6.22161 21.758 6.40024 21.758 6.62005C21.758 6.83985 21.5794 7.01848 21.3596 7.01848H21.3323C21.1119 7.01848 20.9339 6.83985 20.9339 6.62005ZM20.6729 8.46548C20.4531 8.46548 20.2745 8.28684 20.2745 8.06704C20.2745 7.84723 20.4531 7.6686 20.6729 7.6686H20.7002C20.92 7.6686 21.0986 7.84723 21.0986 8.06704C21.0986 8.28684 20.92 8.46548 20.7002 8.46548H20.6729ZM19.5978 7.34719C19.5978 7.567 19.4192 7.74563 19.1994 7.74563H19.1721C18.9523 7.74563 18.7737 7.567 18.7737 7.34719C18.7737 7.12739 18.9523 6.94876 19.1721 6.94876H19.1994C19.4198 6.94876 19.5978 7.12673 19.5978 7.34719Z" fill="#4270B7"/>
</g>
<defs>
<clipPath id="clip0_561_22459">
<rect width="34" height="34" fill="white"/>
</clipPath>
</defs>
</svg>
