<svg width="34" height="34" viewBox="0 0 34 34" fill="none" xmlns="http://www.w3.org/2000/svg">
<path d="M17.015 26.525C17.015 26.9708 16.6523 27.3335 16.2066 27.3335C15.7619 27.3335 15.4001 26.9708 15.4001 26.525C15.4001 26.0793 15.7619 25.7166 16.2066 25.7166C16.6523 25.7166 17.015 26.0793 17.015 26.525ZM18.1457 13.1821C17.9025 13.4763 17.5054 13.8269 16.9942 13.8269C16.4846 13.8269 16.0878 13.4763 15.8447 13.1821C15.6805 12.9834 15.3865 12.9556 15.1879 13.1198C14.9892 13.2839 14.9613 13.578 15.1255 13.7766C15.6573 14.4199 16.3035 14.76 16.9942 14.76C17.6763 14.76 18.3406 14.4107 18.8648 13.7766C19.0289 13.578 19.001 13.2839 18.8024 13.1198C18.6039 12.9557 18.3098 12.9836 18.1457 13.1821ZM11.7661 9.84533C10.9662 9.84533 10.3155 10.4961 10.3155 11.2959C10.3155 11.5536 10.5243 11.7625 10.782 11.7625C11.0397 11.7625 11.2485 11.5536 11.2485 11.2959C11.2485 11.0105 11.4807 10.7784 11.766 10.7784C12.0514 10.7784 12.2835 11.0105 12.2835 11.2959C12.2835 11.5536 12.4924 11.7625 12.75 11.7625C13.0077 11.7625 13.2165 11.5536 13.2165 11.2959C13.2167 10.4961 12.5659 9.84533 11.7661 9.84533ZM21.7067 11.2959C21.7067 11.0105 21.9388 10.7784 22.2242 10.7784C22.5095 10.7784 22.7417 11.0105 22.7417 11.2959C22.7417 11.5536 22.9505 11.7625 23.2082 11.7625C23.4659 11.7625 23.6747 11.5536 23.6747 11.2959C23.6747 10.496 23.024 9.84533 22.2241 9.84533C21.4243 9.84533 20.7736 10.4961 20.7736 11.2959C20.7736 11.5536 20.9824 11.7625 21.2401 11.7625C21.4978 11.7625 21.7067 11.5536 21.7067 11.2959ZM31.5037 23.9978V28.4138C31.5037 28.4538 31.4986 28.4937 31.4883 28.5324C30.7991 31.1545 29.1123 32.9228 26.3318 33.9384C26.2801 33.9573 26.2259 33.9667 26.1717 33.9667C26.1175 33.9667 26.0633 33.9572 26.0115 33.9384C24.5272 33.3958 23.3549 32.6384 22.4795 31.6512C21.0347 33.1288 19.0654 33.9667 16.9942 33.9667C12.7565 33.9667 9.30884 30.519 9.30884 26.2813V20.3874C7.73329 19.0134 6.52815 17.2253 5.86369 15.1945C3.98964 15.0931 2.49609 13.5366 2.49609 11.6378C2.49609 9.758 3.95989 8.21465 5.80738 8.08536C6.19964 6.81919 6.80931 5.62381 7.62325 4.53887C9.10192 2.568 11.2067 1.08581 13.5499 0.365434C15.3176 -0.176773 17.1334 0.0618251 18.4074 1.00366C19.5131 1.82099 20.122 3.10642 20.122 4.62294C20.122 7.01695 18.0622 8.51521 16.0707 8.58062C14.2879 8.63786 13.0164 7.57031 12.9079 5.92085C12.863 5.23507 13.1058 4.57181 13.5915 4.05317C14.1147 3.4947 14.8551 3.17429 15.623 3.17429C16.4238 3.17429 17.1808 3.52644 17.6999 4.14043C17.8663 4.33719 17.8416 4.6315 17.6449 4.79792C17.4482 4.9642 17.1538 4.93956 16.9874 4.74287C16.6459 4.33898 16.1486 4.10743 15.623 4.10743C15.1122 4.10743 14.6199 4.32013 14.2725 4.69107C13.9651 5.01925 13.8111 5.43436 13.839 5.85982C13.929 7.22865 15.0347 7.68088 16.04 7.64808C17.5879 7.59727 19.189 6.45183 19.189 4.623C19.189 3.39236 18.727 2.40032 17.8528 1.75399C16.8157 0.987329 15.3096 0.801724 13.8239 1.25747C9.27511 2.65585 6.21883 6.79628 6.21883 11.5604C6.21883 17.503 11.0527 22.3376 16.9942 22.3376C22.9369 22.3376 27.7715 17.503 27.7715 11.5604C27.7715 6.34897 24.0562 1.89032 18.9374 0.958774C18.6838 0.912622 18.5157 0.669708 18.5619 0.416235C18.608 0.162829 18.851 -0.00511242 19.1044 0.0407743C23.4831 0.837649 26.9161 4.00934 28.1794 8.08516C30.0285 8.21279 31.4942 9.75687 31.4942 11.6378C31.4942 13.5368 30.0006 15.0932 28.1265 15.1945C27.4618 17.2258 26.256 19.0144 24.6796 20.3885V22.1096L25.9945 21.5698C26.108 21.5232 26.2353 21.5232 26.3488 21.5698L31.2142 23.5663C31.3894 23.6381 31.5037 23.8086 31.5037 23.9978ZM28.4355 9.05755C28.6115 9.86624 28.7045 10.7038 28.7045 11.5603C28.7045 12.4765 28.5985 13.3684 28.3985 14.2246C29.6264 14.0038 30.5612 12.9282 30.5612 11.6378C30.5612 10.3602 29.6452 9.29316 28.4355 9.05755ZM5.59169 14.2246C5.39174 13.3684 5.28575 12.4765 5.28575 11.5603C5.28575 10.7088 5.376 9.87149 5.55231 9.05795C4.34391 9.29449 3.4291 10.361 3.4291 11.6378C3.4291 12.9283 4.3639 14.0038 5.59169 14.2246ZM16.9942 33.0337C18.0879 33.0337 19.1494 32.7671 20.0982 32.2726L14.5898 28.3207C14.0103 27.9064 13.6907 27.2846 13.6907 26.5704C13.6907 25.8574 14.0099 25.2352 14.5894 24.8185L16.7513 23.2676C14.3314 23.2181 12.0895 22.431 10.2419 21.1219V26.2813C10.2419 30.0047 13.271 33.0337 16.9942 33.0337ZM21.9035 30.9048C21.4381 30.2091 21.0902 29.4198 20.857 28.5324C20.8468 28.4937 20.8416 28.4538 20.8416 28.4138V23.9979C20.8416 23.8087 20.9559 23.6382 21.131 23.5663L23.7466 22.4927V21.1228C22.2191 22.2045 20.4224 22.9301 18.4784 23.1772L15.1337 25.5764C14.8003 25.8162 14.6238 26.16 14.6238 26.5705C14.6238 26.9811 14.7999 27.324 15.1331 27.5622L20.9566 31.7402C21.2946 31.4936 21.6119 31.2145 21.9035 30.9048ZM30.5707 24.3107L26.1718 22.5057L21.7747 24.3107V28.3527C22.3766 30.5755 23.8164 32.0983 26.1718 33.0022C28.5283 32.0986 29.9687 30.5758 30.5707 28.3527V24.3107ZM25.2764 24.5267H27.0689C27.3265 24.5267 27.5354 24.7355 27.5354 24.9933V26.3872H28.9293C29.187 26.3872 29.3958 26.596 29.3958 26.8538V28.6481C29.3958 28.9057 29.187 29.1146 28.9293 29.1146H27.5354V30.5085C27.5354 30.7661 27.3265 30.9751 27.0689 30.9751H25.2764C25.0188 30.9751 24.8099 30.7662 24.8099 30.5085V29.1146H23.4141C23.1565 29.1146 22.9476 28.9058 22.9476 28.6481V26.8538C22.9476 26.5961 23.1565 26.3872 23.4141 26.3872H24.8099V24.9933C24.8099 24.7355 25.0188 24.5267 25.2764 24.5267ZM25.2764 27.3203H23.8806V28.1815H25.2764C25.5341 28.1815 25.7429 28.3903 25.7429 28.6481V30.0419H26.6024V28.6481C26.6024 28.3904 26.8112 28.1815 27.0689 28.1815H28.4628V27.3203H27.0689C26.8112 27.3203 26.6024 27.1114 26.6024 26.8537V25.4598H25.7429V26.8537C25.7429 27.1113 25.5341 27.3203 25.2764 27.3203Z" fill="#008D5C"/>
</svg>
