<svg width="16" height="16" viewBox="0 0 16 16" fill="none" xmlns="http://www.w3.org/2000/svg">
<path d="M2.04472 9.49598L8.54954 2.02124C9.6273 0.782783 11.505 0.652511 12.7434 1.73026C13.9819 2.80802 14.1121 4.68568 13.0344 5.92413L12.0594 7.04447C11.578 6.84994 11.0518 6.74284 10.5007 6.74284C8.20155 6.74284 6.33773 8.60666 6.33773 10.9058M2.04472 9.49598C0.966963 10.7344 1.09724 12.6121 2.33569 13.6898C3.87071 15.0257 5.71532 14.3345 6.8919 12.9825C6.5394 12.3713 6.33773 11.6621 6.33773 10.9058M2.04472 9.49598L5.62237 5.38486C6.27669 6.53508 6.85926 7.31362 7.59761 7.9221C6.82045 8.67839 6.33773 9.73573 6.33773 10.9058" stroke="#262626"/>
<path d="M11.3003 2.56787C10.2276 2.29112 9.57709 3.03859 9.25185 3.41233" stroke="#262626" stroke-linecap="round"/>
<path d="M14.6633 10.9056C14.6633 13.2048 12.7995 15.0686 10.5004 15.0686C8.20123 15.0686 6.3374 13.2048 6.3374 10.9056C6.3374 8.6065 8.20123 6.74268 10.5004 6.74268C12.7995 6.74268 14.6633 8.6065 14.6633 10.9056Z" stroke="#262626"/>
<path d="M7.68604 11.6597L13.3156 10.1512" stroke="#262626" stroke-linecap="round"/>
</svg>
