<svg width="34" height="34" viewBox="0 0 34 34" fill="none" xmlns="http://www.w3.org/2000/svg">
<path d="M24.3698 6.95804C24.2622 6.86773 24.1593 6.77941 24.063 6.6891C22.8152 8.01257 24.0085 10.5666 23.4082 12.3887C23.5589 12.483 23.7057 12.5827 23.8465 12.6843C24.5789 10.7923 23.3836 8.32269 24.4807 7.04835C24.4435 7.01847 24.4076 6.98859 24.3698 6.95804ZM23.4308 6.00578C21.6577 3.70746 23.3159 1.46558 25.3752 1.57249C27.19 1.66878 28.728 3.21605 29.2945 4.84765C29.5408 5.55554 29.669 6.33648 29.6956 7.03906C29.7898 9.52398 27.5081 11.4212 26.2882 10.5612C25.8964 10.2843 25.6634 9.75175 25.7331 8.91437C25.7709 8.48738 25.4602 8.02187 25.1627 7.6905C24.4548 8.62218 25.5996 11.1821 24.5962 13.2866C26.4901 15.0032 27.4065 17.5273 26.4124 19.969C25.765 21.5561 24.8127 22.3802 23.8033 22.9938C24.3226 24.0085 24.0763 25.2603 23.4892 26.4011C23.1824 26.9961 22.695 27.9975 23.0284 28.6523C23.4122 29.3735 23.4089 29.9419 23.1638 30.339C22.8139 30.9075 22.0854 31.0018 21.4413 30.8683C20.7991 30.7348 20.0706 30.345 19.4969 29.7128C19.4444 30.2228 19.4026 30.673 19.3747 30.9984C19.2824 32.0171 18.0798 32.3817 17.1534 32.3817C16.2257 32.3817 15.0244 32.0164 14.9321 30.9984C14.9022 30.673 14.8604 30.2188 14.8079 29.7088C14.0722 30.5223 12.8656 31.1073 11.9093 30.8743C11.5759 30.7912 11.307 30.6146 11.1377 30.3397C10.8946 29.9426 10.8913 29.3741 11.2731 28.653C11.6065 27.9982 11.1204 26.9968 10.8136 26.4018C10.2246 25.2609 9.97754 24.0072 10.4975 22.9925C9.4775 22.3729 8.51329 21.5375 7.8718 19.9225C6.90825 17.4921 7.82465 15.0058 9.70926 13.2965C8.70055 11.1901 9.84871 8.62285 9.14082 7.6905C8.84133 8.02187 8.53254 8.48671 8.57039 8.91437C8.72645 10.6841 7.43352 11.2353 6.18375 10.358C5.34239 9.76503 4.55016 8.53054 4.60661 7.03972C4.63516 6.33781 4.76067 5.55621 5.0077 4.84832C5.57414 3.21605 7.11211 1.66878 8.92899 1.57316C10.9882 1.46558 12.6464 3.70812 10.8714 6.00644C12.4844 7.62542 11.3382 10.3056 11.728 11.9305C14.9261 10.3288 19.374 10.3195 22.5781 11.9212C22.96 10.2976 21.8191 7.62277 23.4308 6.00578ZM23.6712 4.49636C23.8538 5.1664 24.3844 5.7707 24.9588 6.24351C25.3619 6.57488 25.7683 6.93413 26.0884 7.35382C26.4383 7.81468 26.7059 8.3964 26.6588 8.98941C26.6189 9.45425 26.6907 9.71058 26.8208 9.80289C27.2179 10.0818 28.8422 8.97281 28.7692 7.0716C28.7446 6.45601 28.6357 5.77667 28.4192 5.15312C27.975 3.8748 26.7458 2.57456 25.3287 2.49886C24.2722 2.44441 23.3551 3.32894 23.6712 4.49636ZM16.6029 23.9992C16.8081 24.3379 16.9907 24.7051 17.1527 25.1002C17.8719 23.3365 19.0898 22.017 20.8463 21.2566C22.2488 20.6503 23.7323 19.5852 23.8239 18.0638C23.8784 17.1209 23.3816 16.2569 22.7076 15.6035C20.6198 13.5821 16.7198 13.2786 14.0277 14.1917C12.5441 14.6944 10.9856 15.7462 10.5659 17.243C10.0273 19.1615 11.7798 20.5295 13.4592 21.256C14.798 21.8364 15.8498 22.7534 16.6029 23.9992ZM16.3227 25.5206C15.7018 23.956 14.6432 22.778 13.0927 22.106C11.3229 21.3396 9.63821 20.0128 9.54657 18.093C9.48813 16.8771 10.0964 15.7662 10.9716 14.9288C12.5528 13.4194 14.9155 12.7639 17.259 12.7812C24.5079 12.8323 27.7718 19.2678 21.2141 22.1066C19.6629 22.7787 18.6031 23.9567 17.9822 25.5212C17.8394 25.8805 17.7185 26.265 17.6189 26.6694V29.9446C17.6189 30.2009 17.4097 30.4094 17.1541 30.4094C16.8964 30.4094 16.6892 30.2002 16.6892 29.9446V26.6687C16.5883 26.2637 16.4654 25.8798 16.3227 25.5206ZM10.8959 12.3967C10.2897 10.5785 11.487 8.01257 10.2392 6.6891L9.8195 7.04835C10.9205 8.32468 9.71789 10.8016 10.4577 12.6916C10.6004 12.59 10.7452 12.4923 10.8959 12.3967ZM9.85868 5.76273C9.87196 5.74746 9.88524 5.73285 9.89985 5.71956C10.293 5.29257 10.5247 4.8782 10.6283 4.4957C10.9464 3.32894 10.028 2.44374 8.97348 2.4982C7.55438 2.57324 6.3252 3.87414 5.88094 5.15246C5.66446 5.77535 5.55555 6.45535 5.53098 7.07093C5.45926 8.97214 7.08223 10.0811 7.47934 9.80222C7.6095 9.70992 7.68055 9.45425 7.64336 8.98874C7.57164 8.12281 8.17993 7.26617 8.80282 6.70902C9.16739 6.37831 9.5459 6.0941 9.85868 5.76273ZM10.5984 13.7534L10.194 14.1113C8.68594 15.553 7.94086 17.5844 8.7311 19.5799C10.0772 22.9699 13.2434 22.4187 14.8391 25.063C15.4302 26.0399 15.7463 29.7407 15.8538 30.9134C15.8711 31.1034 16.0949 31.2501 16.3957 31.3444C16.8473 31.4872 17.4556 31.4872 17.9091 31.3444C18.2106 31.2501 18.4344 31.1034 18.451 30.9134C18.5566 29.7407 18.8727 26.0399 19.4637 25.063C21.0581 22.4241 24.1792 22.9812 25.5491 19.621C26.3626 17.6295 25.6414 15.5855 24.1393 14.1299C21.4399 11.5155 16.672 11.0918 13.2726 12.2812C12.2287 12.6471 11.3289 13.1531 10.5984 13.7534ZM19.6636 28.2818C20.3635 29.912 22.1425 30.2281 22.3703 29.8576C22.4493 29.7294 22.4134 29.4791 22.2049 29.0859C21.932 28.5719 21.9473 27.953 22.0847 27.4032C22.3802 26.2152 23.1353 25.4867 23.1598 24.2894C23.1672 23.96 23.1054 23.6798 22.9945 23.448C21.9532 23.9959 20.9034 24.476 20.2612 25.5412C20.0102 25.9549 19.801 27.2259 19.6636 28.2818ZM11.3077 23.446C10.9557 24.1745 11.1988 25.1288 11.637 25.9761C12.1132 26.9005 12.5973 28.0241 12.1059 29.0614C12.1019 29.0687 12.0986 29.0766 12.0946 29.0859C11.8854 29.4791 11.8495 29.7294 11.9292 29.8576C12.0381 30.0342 12.4505 30.0063 12.669 29.9612C13.3769 29.8124 14.2256 29.244 14.6399 28.2744C14.6286 28.1861 14.6173 28.0958 14.6041 28.0068C14.4533 26.9191 14.2634 25.9024 14.0449 25.5412C13.4014 24.4773 12.3489 23.9959 11.3077 23.446Z" fill="#4270B7"/>
</svg>
