<svg width="50" height="50" viewBox="0 0 50 50" fill="none" xmlns="http://www.w3.org/2000/svg">
<path d="M44.6569 25.984H34.0459V27.373L34.0489 28.762H44.6559C45.2259 28.762 45.6939 28.296 45.6939 27.724V27.023C45.6939 26.453 45.2259 25.985 44.6559 25.985L44.6569 25.984Z" fill="white"/>
<path d="M43.7101 28.762V29.852H34.05V28.762H43.7101Z" fill="#8B9194"/>
<path d="M34.05 29.852V45.127H43.7101V29.852H34.05ZM41.75 39.027H36.01V35.811H41.75V39.027ZM41.75 34.282H36.01V31.068H41.75V34.282Z" fill="white"/>
<path d="M34.855 13.682H15.15C14.58 13.682 14.113 14.148 14.113 14.719V15.421C14.113 15.991 14.579 16.458 15.15 16.458H34.855C35.425 16.458 35.893 15.992 35.893 15.421V14.719C35.893 14.149 35.425 13.682 34.855 13.682Z" fill="white"/>
<path d="M34.047 16.458V17.569H32.163H15.958V16.458H34.047Z" fill="#8B9194"/>
<path d="M28.4811 4.87201H20.5991V13.678H29.4071V4.87201H28.4811Z" fill="white"/>
<path d="M32.163 17.569H15.958V45.127H34.047V17.569H32.163Z" fill="white"/>
<path d="M15.8989 25.984H5.34293C4.77293 25.984 4.30493 26.452 4.30493 27.022V27.723C4.30493 28.295 4.77293 28.761 5.34293 28.761H15.9519L15.9589 27.372V25.983H15.8999L15.8989 25.984Z" fill="white"/>
<path d="M15.952 28.762V29.852H6.29102V28.762H15.951H15.952Z" fill="#8B9194"/>
<path d="M15.899 29.852H6.29102V45.127H15.951V29.852H15.899Z" fill="white"/>
<path d="M15.899 29.852H14.113V35.811L14.108 39.115C13.712 40.572 12.413 41.799 10.98 42.277C10.115 42.564 9.18702 42.588 8.27602 42.611C7.61602 42.626 6.95302 42.642 6.29102 42.658V45.127H15.951V29.852H15.899Z" fill="#F2EDED"/>
<path d="M8.25391 31.068V34.282H9.88391H13.9939V31.068H12.5269H8.25391Z" fill="#4270B7"/>
<path d="M8.25391 35.811V39.027H9.88391H13.9699H13.9939V35.811H12.5269H8.25391Z" fill="#4270B7"/>
<path d="M13.994 35.811V39.027H13.97H9.88403L12.527 35.811H13.994Z" fill="#315B9D"/>
<path d="M13.994 31.068V34.282H9.88403L12.527 31.068H13.994Z" fill="#315B9D"/>
<path d="M15.9519 28.762H5.34293C4.77293 28.762 4.30493 28.296 4.30493 27.724V27.374H15.9589L15.9519 28.763V28.762Z" fill="#F2EDED"/>
<path d="M45.6961 27.373V27.723C45.6961 28.295 45.2281 28.761 44.6581 28.761H34.0511L34.0481 27.372H45.6971L45.6961 27.373Z" fill="#F2EDED"/>
<path d="M41.666 29.852V39.807C41.136 40.951 40.129 41.877 38.928 42.276C38.064 42.563 37.1371 42.587 36.226 42.61C35.558 42.625 34.8891 42.641 34.223 42.657H34.05V45.126H43.7101V29.851H41.666V29.852Z" fill="#F2EDED"/>
<path d="M36.009 35.811V39.027H37.802H41.666V35.811H40.283H36.009Z" fill="#4270B7"/>
<path d="M40.283 31.068H36.009V34.282H37.802H41.666V31.068H40.283Z" fill="#4270B7"/>
<path d="M41.666 35.811V39.027H37.802L40.283 35.811H41.666Z" fill="#315B9D"/>
<path d="M41.666 31.068V34.282H37.802L40.283 31.068H41.666Z" fill="#315B9D"/>
<path d="M29.4059 4.87201V13.678H20.5979V11.9C21.7619 11.934 22.9419 11.944 24.0809 11.74V11.768L25.9229 11.165C26.4429 10.914 26.9299 10.59 27.3439 10.197L27.4939 10.049C27.9239 9.60701 28.2599 9.08601 28.4539 8.49701C28.7519 7.59601 28.6949 6.62101 28.6369 5.67201C28.6219 5.44501 28.6039 5.20701 28.4809 5.01701V4.87201H29.4069H29.4059Z" fill="#F2EDED"/>
<path d="M25.924 8.35399V6.78299H24.082V8.35399H22.511V10.197H24.082V11.741V11.769H25.924V10.197H27.495V8.35399H25.924Z" fill="#FF4B72"/>
<path d="M35.893 14.932V15.421C35.893 15.991 35.425 16.458 34.855 16.458H15.15C14.58 16.458 14.113 15.992 14.113 15.421V14.932H35.893Z" fill="#F2EDED"/>
<path d="M28.3391 19.16H31.3481V22.788H28.3391V19.16Z" fill="#4270B7"/>
<path d="M28.3391 24.751H31.3481V28.379H28.3391V24.751Z" fill="#4270B7"/>
<path d="M28.3391 30.341H31.3481V33.969H28.3391V30.341Z" fill="#4270B7"/>
<path d="M26.4999 30.341H23.4919V33.319V33.969H26.4999V30.341Z" fill="#4270B7"/>
<path d="M23.4919 24.751H26.5009V28.379H23.4919V24.751Z" fill="#4270B7"/>
<path d="M23.4919 19.16H26.5009V22.788H23.4919V19.16Z" fill="#4270B7"/>
<path d="M18.644 30.341H21.653V33.969H18.644V30.341Z" fill="#4270B7"/>
<path d="M18.644 24.751H21.653V28.379H18.644V24.751Z" fill="#4270B7"/>
<path d="M18.644 19.16H21.653V22.788H18.644V19.16Z" fill="#4270B7"/>
<path d="M31.3481 30.341V33.969H28.3391L31.3481 30.341Z" fill="#315B9D"/>
<path d="M31.3481 24.751V28.379H28.3391L31.3481 24.751Z" fill="#315B9D"/>
<path d="M31.3481 19.16V22.788H28.3391L31.3481 19.16Z" fill="#315B9D"/>
<path d="M26.4999 30.341V33.969H23.4919L26.4999 30.341Z" fill="#315B9D"/>
<path d="M26.4999 24.751V28.379H23.4919L26.4999 24.751Z" fill="#315B9D"/>
<path d="M26.4999 19.16V22.788H23.4919L26.4999 19.16Z" fill="#315B9D"/>
<path d="M21.653 30.341V33.969H18.644L21.653 30.341Z" fill="#315B9D"/>
<path d="M21.653 24.751V28.379H18.644L21.653 24.751Z" fill="#315B9D"/>
<path d="M21.653 19.16V22.788H18.644L21.653 19.16Z" fill="#315B9D"/>
<path d="M30.573 37.03V37.928H29.822H24.975H20.126H19.374V37.03H30.573Z" fill="#C7C2C2"/>
<path d="M31.541 17.616V36.751C31.273 37.341 30.994 37.918 30.59 38.426C28.673 40.834 25.644 42.106 22.627 42.716C20.437 43.158 18.187 43.3 15.958 43.14V45.175H34.047V17.616H31.542H31.541Z" fill="#F2EDED"/>
<path d="M24.975 37.928H20.126V41.574V43.824V45.127H24.975H29.822V37.928H24.975Z" fill="#4270B7"/>
<path d="M24.975 43.824V37.928L20.126 43.824V45.127H24.975H29.822V37.928L24.975 43.824Z" fill="#315B9D"/>
<path d="M27.4941 8.028H26.2491V6.783C26.2491 6.603 26.1031 6.457 25.9231 6.457H24.0811C23.9011 6.457 23.7551 6.603 23.7551 6.783V8.028H22.5101C22.3301 8.028 22.1841 8.174 22.1841 8.354V10.197C22.1841 10.377 22.3301 10.523 22.5101 10.523H23.7551V11.768C23.7551 11.948 23.9011 12.094 24.0811 12.094H25.9231C26.1031 12.094 26.2491 11.948 26.2491 11.768V10.523H27.4941C27.6741 10.523 27.8201 10.377 27.8201 10.197V8.354C27.8201 8.174 27.6741 8.028 27.4941 8.028ZM27.1681 9.871H25.9231C25.7431 9.871 25.5971 10.017 25.5971 10.197V11.442H24.4071V10.197C24.4071 10.017 24.2611 9.871 24.0811 9.871H22.8361V8.68H24.0811C24.2611 8.68 24.4071 8.534 24.4071 8.354V7.109H25.5971V8.354C25.5971 8.534 25.7431 8.68 25.9231 8.68H27.1681V9.871Z" fill="#564B57"/>
<path d="M36.0091 39.353H41.7491C41.9291 39.353 42.0751 39.207 42.0751 39.027V35.811C42.0751 35.631 41.9291 35.485 41.7491 35.485H36.0091C35.8291 35.485 35.6831 35.631 35.6831 35.811V39.027C35.6831 39.207 35.8291 39.353 36.0091 39.353ZM36.3351 36.137H41.4231V38.701H36.3351V36.137Z" fill="#564B57"/>
<path d="M36.0091 34.608H41.7491C41.9291 34.608 42.0751 34.462 42.0751 34.282V31.068C42.0751 30.888 41.9291 30.742 41.7491 30.742H36.0091C35.8291 30.742 35.6831 30.888 35.6831 31.068V34.282C35.6831 34.462 35.8291 34.608 36.0091 34.608ZM36.3351 31.394H41.4231V33.956H36.3351V31.394Z" fill="#564B57"/>
<path d="M8.25398 39.353H13.995C14.175 39.353 14.321 39.207 14.321 39.027V35.811C14.321 35.631 14.175 35.485 13.995 35.485H8.25398C8.07398 35.485 7.92798 35.631 7.92798 35.811V39.027C7.92798 39.207 8.07398 39.353 8.25398 39.353ZM8.57998 36.137H13.669V38.701H8.57998V36.137Z" fill="#564B57"/>
<path d="M8.25398 34.608H13.995C14.175 34.608 14.321 34.462 14.321 34.282V31.068C14.321 30.888 14.175 30.742 13.995 30.742H8.25398C8.07398 30.742 7.92798 30.888 7.92798 31.068V34.282C7.92798 34.462 8.07398 34.608 8.25398 34.608ZM8.57998 31.394H13.669V33.956H8.57998V31.394Z" fill="#564B57"/>
<path d="M28.3389 23.114H31.3479C31.5279 23.114 31.6739 22.968 31.6739 22.788V19.16C31.6739 18.98 31.5279 18.834 31.3479 18.834H28.3389C28.1589 18.834 28.0129 18.98 28.0129 19.16V22.788C28.0129 22.968 28.1589 23.114 28.3389 23.114ZM28.6649 19.486H31.0219V22.462H28.6649V19.486Z" fill="#564B57"/>
<path d="M23.491 23.114H26.5C26.68 23.114 26.826 22.968 26.826 22.788V19.16C26.826 18.98 26.68 18.834 26.5 18.834H23.491C23.311 18.834 23.165 18.98 23.165 19.16V22.788C23.165 22.968 23.311 23.114 23.491 23.114ZM23.817 19.486H26.174V22.462H23.817V19.486Z" fill="#564B57"/>
<path d="M18.6441 23.114H21.6531C21.8331 23.114 21.9791 22.968 21.9791 22.788V19.16C21.9791 18.98 21.8331 18.834 21.6531 18.834H18.6441C18.4641 18.834 18.3181 18.98 18.3181 19.16V22.788C18.3181 22.968 18.4641 23.114 18.6441 23.114ZM18.9701 19.486H21.3271V22.462H18.9701V19.486Z" fill="#564B57"/>
<path d="M28.3389 34.295H31.3479C31.5279 34.295 31.6739 34.149 31.6739 33.969V30.341C31.6739 30.161 31.5279 30.015 31.3479 30.015H28.3389C28.1589 30.015 28.0129 30.161 28.0129 30.341V33.969C28.0129 34.149 28.1589 34.295 28.3389 34.295ZM28.6649 30.667H31.0219V33.643H28.6649V30.667Z" fill="#564B57"/>
<path d="M23.491 34.295H26.5C26.68 34.295 26.826 34.149 26.826 33.969V30.341C26.826 30.161 26.68 30.015 26.5 30.015H23.491C23.311 30.015 23.165 30.161 23.165 30.341V33.969C23.165 34.149 23.311 34.295 23.491 34.295ZM23.817 30.667H26.174V33.643H23.817V30.667Z" fill="#564B57"/>
<path d="M18.6441 34.295H21.6531C21.8331 34.295 21.9791 34.149 21.9791 33.969V30.341C21.9791 30.161 21.8331 30.015 21.6531 30.015H18.6441C18.4641 30.015 18.3181 30.161 18.3181 30.341V33.969C18.3181 34.149 18.4641 34.295 18.6441 34.295ZM18.9701 30.667H21.3271V33.643H18.9701V30.667Z" fill="#564B57"/>
<path d="M28.3389 28.705H31.3479C31.5279 28.705 31.6739 28.559 31.6739 28.379V24.751C31.6739 24.571 31.5279 24.425 31.3479 24.425H28.3389C28.1589 24.425 28.0129 24.571 28.0129 24.751V28.379C28.0129 28.559 28.1589 28.705 28.3389 28.705ZM28.6649 25.077H31.0219V28.053H28.6649V25.077Z" fill="#564B57"/>
<path d="M23.491 28.705H26.5C26.68 28.705 26.826 28.559 26.826 28.379V24.751C26.826 24.571 26.68 24.425 26.5 24.425H23.491C23.311 24.425 23.165 24.571 23.165 24.751V28.379C23.165 28.559 23.311 28.705 23.491 28.705ZM23.817 25.077H26.174V28.053H23.817V25.077Z" fill="#564B57"/>
<path d="M18.6441 28.705H21.6531C21.8331 28.705 21.9791 28.559 21.9791 28.379V24.751C21.9791 24.571 21.8331 24.425 21.6531 24.425H18.6441C18.4641 24.425 18.3181 24.571 18.3181 24.751V28.379C18.3181 28.559 18.4641 28.705 18.6441 28.705ZM18.9701 25.077H21.3271V28.053H18.9701V25.077Z" fill="#564B57"/>
<path d="M46.022 27.724V27.023C46.022 26.271 45.41 25.659 44.658 25.659H34.373V16.784H34.855C35.607 16.784 36.219 16.173 36.219 15.421V14.719C36.219 13.968 35.607 13.356 34.855 13.356H29.732V4.87199C29.732 4.69199 29.586 4.54599 29.406 4.54599H20.598C20.418 4.54599 20.272 4.69199 20.272 4.87199V13.356H15.149C14.398 13.356 13.786 13.967 13.786 14.719V15.421C13.786 16.172 14.397 16.784 15.149 16.784H15.631V25.659H5.343C4.591 25.659 3.979 26.271 3.979 27.023V27.724C3.979 28.476 4.591 29.088 5.343 29.088H5.966V45.128C5.966 45.308 6.112 45.454 6.292 45.454H15.952C15.952 45.454 15.954 45.454 15.955 45.454H15.958H34.047C34.047 45.454 34.048 45.454 34.049 45.454C34.05 45.454 34.05 45.454 34.051 45.454H43.711C43.891 45.454 44.037 45.308 44.037 45.128V29.088H44.658C45.41 29.088 46.022 28.476 46.022 27.724ZM15.626 44.802H6.617V29.088H15.625V44.802H15.626ZM15.633 28.436H5.343C4.95 28.436 4.631 28.116 4.631 27.724V27.023C4.631 26.63 4.951 26.311 5.343 26.311H15.632V28.436H15.633ZM20.924 5.19799H29.08V13.352H20.924V5.19799ZM24.648 44.801H20.451V38.254H24.648V44.801ZM29.495 44.801H25.3V38.254H29.495V44.801ZM20.125 37.602H19.7V37.356H30.247V37.602H20.125ZM33.72 44.801H30.147V38.254H30.572C30.752 38.254 30.898 38.108 30.898 37.928V37.03C30.898 36.85 30.752 36.704 30.572 36.704H19.373C19.193 36.704 19.047 36.85 19.047 37.03V37.928C19.047 38.108 19.193 38.254 19.373 38.254H19.798V44.801H16.282V16.784H33.719V44.802L33.72 44.801ZM34.046 16.131H15.15C14.758 16.131 14.439 15.812 14.439 15.42V14.718C14.439 14.326 14.758 14.007 15.15 14.007H34.855C35.248 14.007 35.567 14.326 35.567 14.718V15.42C35.567 15.812 35.247 16.131 34.855 16.131H34.047H34.046ZM43.384 44.801H34.376V29.087H43.384V44.801ZM45.369 27.723C45.369 28.116 45.049 28.435 44.657 28.435H34.372V26.31H44.657C45.05 26.31 45.369 26.63 45.369 27.022V27.723Z" fill="#564B57"/>
</svg>
