<svg width="36" height="34" viewBox="0 0 36 34" fill="none" xmlns="http://www.w3.org/2000/svg">
<path d="M19.2542 12.3373C19.2218 12.9248 19.4868 13.1559 20.0686 13.0969C20.9628 13.0055 21.109 12.7895 20.8289 11.937C20.6014 11.2393 20.4761 10.5272 20.4898 9.79354C20.4898 9.6661 20.4898 9.53794 20.489 9.41122C20.4833 8.89786 20.1528 8.6005 19.6452 8.65234C19.0598 8.71282 18.8244 8.99722 18.9223 9.53434C18.9605 9.7489 19.0073 9.96202 19.0613 10.1737C19.2384 10.8851 19.2953 11.6051 19.255 12.338L19.2542 12.3373ZM20.5639 13.6167C20.2133 13.436 19.8418 13.4101 19.4926 13.6167C19.1707 13.8083 19.1095 14.138 19.1491 14.4786C19.1909 14.8393 19.2766 15.195 19.3248 15.5543C19.4918 16.7869 19.3478 18.0051 19.1311 19.2183C19.0786 19.5135 19.0195 19.8095 18.972 20.1054C18.923 20.4063 19.0361 20.5482 19.3421 20.5835C19.8331 20.6411 20.1204 20.4395 20.2558 19.9326C20.3882 19.4351 20.3623 18.9195 20.3998 18.4127C20.4883 17.2131 20.6597 16.0266 20.9232 14.853C20.9542 14.7126 20.9657 14.5671 20.9873 14.4224C20.9779 14.0797 20.8836 13.7802 20.5639 13.6167ZM29.1715 15.9906C28.7539 15.5291 28.4508 15.1957 28.4508 15.1957C28.1232 14.8335 27.5594 14.8069 27.198 15.1359L27.0943 15.2288C26.7314 15.5579 26.7048 16.1216 27.0317 16.4823L29.1715 18.8425V18.849V19.5085C28.7158 20.0967 28.021 21.4208 29.1708 23.138V34.1274L6.97896 34.1259V22.8975C7.80984 21.477 7.38936 20.348 6.97896 19.7216V18.6827V18.6762L8.96832 16.4823C9.2952 16.1209 9.26784 15.5571 8.90568 15.2295L8.802 15.1359C8.44272 14.8069 7.87752 14.8335 7.5492 15.1971C7.5492 15.1971 7.31808 15.4527 6.97896 15.825V1.87354L29.1715 1.87498V15.9899V15.9906ZM18.0677 31.8882C18.4414 31.5275 18.504 31.0307 18.6437 30.5684C19.0087 29.3761 19.4069 28.1931 19.6236 26.9605C19.687 26.6019 19.7554 26.2427 19.7618 25.8783C19.7741 25.0964 19.3133 24.6925 18.5436 24.8113C18.0209 24.8919 17.4982 24.9798 16.969 24.8862C16.691 24.8379 16.4182 24.7566 16.1395 24.7242C15.4548 24.6443 15.215 24.9193 15.4015 25.5867C15.5693 26.1923 15.7694 26.787 15.8846 27.4069C16.0855 28.4855 16.0351 29.5626 15.9178 30.644C15.899 30.8067 15.8904 30.9716 15.894 31.1343C15.9012 31.4173 15.9991 31.6506 16.2778 31.7737C16.3274 31.7967 17.2901 32.1337 18.0684 31.8889L18.0677 31.8882ZM21.7814 23.3547C22.0349 23.5081 22.2034 23.4462 22.3222 23.1683C22.3538 23.0934 22.379 23.0149 22.3992 22.935C22.7153 21.6764 23.3777 20.613 24.2539 19.6719C24.5218 19.3861 24.7925 19.1024 25.038 18.7986C25.321 18.4479 25.2914 18.2795 24.9379 18.0037C24.7666 17.8705 24.588 17.7423 24.4087 17.6192C24.2863 17.5357 24.1481 17.4903 24.007 17.4738C23.8003 17.4752 23.6563 17.576 23.5462 17.7344C23.4367 17.895 23.3762 18.0764 23.3122 18.2564C22.8031 19.6748 22.5202 20.5691 21.4582 21.6656C21.2645 21.8643 21.2357 22.4209 21.4034 22.6254C21.6115 22.881 21.4985 23.1848 21.7814 23.3555V23.3547ZM13.2646 31.7759C13.549 31.8047 13.7621 31.5815 13.8074 31.1833C14.0263 29.312 14.3525 27.458 14.7024 25.6076C14.8327 24.9193 14.5886 24.5557 13.9205 24.4175C13.5554 24.3411 13.3222 24.4628 13.1875 24.8142C13.0428 25.1929 13.0234 25.5954 12.9866 25.9935C12.8952 26.9562 12.9298 27.921 12.9298 29.1673C12.929 29.6223 12.9449 30.3589 12.8873 31.0969C12.8549 31.5217 12.9924 31.7471 13.2646 31.7759ZM19.561 24.447C19.8684 24.4455 20.1146 24.4088 20.1924 24.1158C20.3321 23.5981 20.4718 23.0761 20.5128 22.5397C20.5632 21.8665 20.1816 21.4071 19.4839 21.2891C18.6264 21.1451 17.5327 21.7931 16.668 21.8557C15.4267 21.9457 14.4785 21.5994 13.3934 22.2272C13.05 22.4267 12.8102 22.6909 12.8196 23.1726C12.8218 23.7155 12.9938 23.835 13.6015 23.8213C15.4073 23.781 16.7386 23.4915 18.4867 24.0229C18.7042 24.0891 19.3284 24.447 19.561 24.4463V24.447ZM25.4916 17.3557C25.6968 17.3816 25.933 17.0979 26.0633 16.9359C26.2634 16.6883 25.9654 15.92 26.167 15.1035C26.3981 14.1654 26.6501 13.8126 26.4197 12.873C26.3894 12.7499 26.3462 12.6195 26.2433 12.5447C26.1641 12.4856 26.0611 12.4712 25.9632 12.4669C25.7328 12.4568 25.4765 12.513 25.3447 12.7031C25.2648 12.8197 25.2461 12.9666 25.2288 13.1063C25.1078 14.1186 24.7385 15.4873 24.6031 15.6464C24.3814 15.9121 24.1322 16.4399 24.3821 16.73C24.6607 17.0526 25.0661 17.3003 25.4916 17.3557ZM16.6766 20.6245C17.1482 20.8679 17.5716 20.6079 17.5766 19.9988C17.4874 19.5294 17.3772 18.9851 17.2829 18.4393C17.064 17.1757 16.979 15.9114 17.2325 14.6399C17.2908 14.3447 17.2966 14.0408 17.2152 13.7456C17.0762 13.2351 16.7191 13.0321 16.1669 13.1423C15.583 13.2603 15.2978 13.6031 15.3893 14.1287C15.4699 14.5938 15.6146 15.0459 15.6766 15.5175C15.8299 16.6904 15.9149 17.8712 15.989 19.0513C16.0078 19.3335 16.0308 19.6151 16.1122 19.8865C16.205 20.2033 16.375 20.4668 16.6774 20.6245H16.6766ZM15.3396 20.9492C15.5287 20.7659 15.5741 20.4582 15.4757 20.0262C15.3317 19.3969 15.1258 18.7835 15.0012 18.1484C14.8385 17.3247 14.7593 16.4939 14.7895 15.6536C14.7895 15.3267 14.7895 14.9991 14.7895 14.6723C14.7874 14.2511 14.5886 13.9609 14.1991 13.8119C14.0213 13.7435 13.837 13.6844 13.6505 13.6513C13.1954 13.5721 12.9535 13.7838 12.9542 14.2467C12.9542 14.5592 13.0356 14.8595 13.1285 15.1539C13.531 16.4327 13.8139 17.738 13.9435 19.0729C13.9968 19.6259 14.0285 20.1788 14.0803 20.7318C14.1401 21.3863 14.7514 21.2264 15.3396 20.9485V20.9492ZM12.3948 21.8348C12.9485 21.7002 13.2372 21.3589 13.1177 20.9255C12.9442 20.2947 12.6914 19.6871 12.5496 19.0448C12.2998 17.9043 12.1586 16.7495 12.1068 15.5823C12.0859 15.1136 11.9822 14.9271 11.6885 14.8393C11.1067 14.6658 10.7302 14.9675 10.7482 15.5463C10.8468 17.0605 11.111 18.5012 11.425 19.934C11.5265 20.3963 11.6251 20.8592 11.7432 21.3179C11.8606 21.7722 12.0571 21.9176 12.3955 21.8348H12.3948ZM16.4966 12.3906C16.8516 12.3755 16.9949 12.2329 16.9654 11.8801C16.9495 11.6828 16.9034 11.487 16.8696 11.289C16.7746 10.718 16.7846 10.1485 16.8905 9.5797C16.9243 9.40186 16.9632 9.22258 16.9438 9.0397C16.9164 8.7733 16.7623 8.63434 16.5017 8.68186C15.6586 8.83594 15.3353 9.20098 15.4303 9.90226C15.4692 10.1881 15.4368 10.4833 15.4375 10.6475C15.462 11.2105 15.3792 11.6454 15.4296 12.0817C15.4728 12.4475 15.5498 12.5007 15.9005 12.446C16.097 12.4172 16.2986 12.3992 16.4966 12.3913V12.3906ZM19.5876 7.96762C19.7438 7.92514 19.9087 7.84954 19.993 7.68394C20.0621 7.54714 20.0614 7.37721 20.0441 7.22025C20.011 6.94162 19.9318 6.67018 19.9426 6.38794C19.9483 6.2353 19.9807 6.08482 20.0045 5.93434C20.0621 5.5693 20.075 5.19202 20.0225 4.82914C19.9879 4.58002 19.9051 4.3129 19.715 4.21138C19.566 4.1329 19.3831 4.18546 19.2535 4.30786C19.1232 4.4317 19.0426 4.61746 18.9994 4.8097C18.9562 5.00194 18.9482 5.20138 18.9403 5.39866C18.9288 5.71258 18.9158 6.02578 18.9036 6.34042C18.8899 6.6709 18.8762 7.00498 18.8014 7.3261C18.7531 7.5385 18.6646 7.86682 18.8964 7.9453C19.1254 8.02162 19.3536 8.03386 19.5876 7.96762ZM13.9169 12.6843C14.2222 12.8262 14.3863 12.6951 14.3676 12.3567C14.3654 12.3207 14.3654 12.2826 14.3554 12.248C14.0954 11.456 13.9766 10.6403 13.9363 9.80938C13.9212 9.49258 13.7657 9.39033 13.4453 9.38097C12.7498 9.36153 12.4985 9.60706 12.5028 10.2983C12.5042 10.5611 12.5028 10.826 12.5028 11.0895C12.5086 11.5266 12.4589 11.9651 12.5446 12.3978C12.623 12.7887 12.7843 12.8795 13.1371 12.698C13.4035 12.5619 13.6454 12.5569 13.9169 12.6843ZM11.5265 13.8601C11.6143 13.773 11.6784 13.652 11.6712 13.5296C11.6683 13.4785 11.6546 13.4295 11.6417 13.3813C11.4818 12.7592 11.5308 12.1047 11.6006 11.4654C11.6453 11.0485 11.6957 10.6093 11.5315 10.2234C11.4955 10.1384 11.4451 10.0542 11.3638 10.0117C11.2522 9.9541 11.1103 9.99514 11.0174 10.0779C10.9253 10.1615 10.872 10.2803 10.8324 10.3991C10.53 11.2731 10.7359 12.2379 10.5991 13.1516C10.579 13.2863 10.5516 13.4187 10.5538 13.5548C10.5574 13.8032 10.6553 13.9587 10.895 14.0178C11.1139 14.0725 11.3638 14.0192 11.5265 13.8594V13.8601ZM16.6932 7.89057C16.825 7.83153 16.961 7.74442 16.9956 7.6069C17.0222 7.49314 16.974 7.37866 16.9366 7.26706C16.8286 6.93874 16.8257 6.58234 16.8804 6.24178C16.9337 5.89978 17.041 5.57002 17.1482 5.24098C17.1936 5.10274 17.239 4.96162 17.3059 4.83202C17.3513 4.74202 17.4067 4.65634 17.4413 4.56202C17.4809 4.45258 17.4902 4.33594 17.4982 4.22002C17.5133 4.01266 17.5248 3.80098 17.4737 3.60082C17.4218 3.39922 17.2966 3.20626 17.1065 3.12346C17.0503 3.0997 16.9891 3.08458 16.9294 3.09034C16.7767 3.10474 16.663 3.2365 16.5838 3.3661C16.3534 3.7369 16.2396 4.16746 16.1633 4.5973C16.0855 5.02642 16.0438 5.46202 15.9401 5.88538C15.8234 6.36562 15.6298 6.82425 15.5261 7.30809C15.4858 7.49674 15.4109 7.76818 15.5038 7.9525C15.5808 8.10802 15.7658 8.09218 15.9142 8.08282C16.182 8.06554 16.4477 8.00074 16.6918 7.8913L16.6932 7.89057ZM13.7621 8.39386C13.8636 8.32186 13.9428 8.21026 13.9514 8.0857C13.9579 8.00434 13.9349 7.9237 13.9205 7.84306C13.9046 7.75018 13.8989 7.65802 13.8953 7.56441C13.865 6.70905 14.0328 5.85874 14.1948 5.01778C14.2452 4.76146 14.2855 4.46626 14.1199 4.26394C14.0926 4.2301 14.0587 4.19914 14.0184 4.1833C13.9766 4.16746 13.9306 4.16746 13.8859 4.16674C13.4323 4.16674 12.8974 5.37274 12.8894 5.94442C12.8858 6.12082 12.8945 6.29794 12.888 6.47362C12.8628 7.09138 12.6425 7.69258 12.654 8.31178C12.6612 8.68474 13.1681 8.58034 13.4172 8.52994C13.5396 8.50474 13.6606 8.4673 13.7621 8.39314V8.39386Z" fill="#6A6565"/>
<path d="M34.7234 25.1719L33.3216 23.6246L33.3281 23.5325C33.4721 22.7412 33.0905 20.3191 31.3646 18.4118C30.8945 17.8906 29.8699 16.7609 29.1701 15.9898C28.7525 15.5282 28.4494 15.1949 28.4494 15.1949C28.1218 14.8327 27.558 14.8061 27.1966 15.1351L29.1701 17.2886L31.3236 19.6373C31.3236 19.6373 30.3055 19.3536 30.0053 20.4545C29.7058 21.5561 30.7613 23.436 30.7613 23.436C30.7613 23.436 29.4372 26.9071 34.6651 29.5639H34.7213V25.313L34.7227 25.1726H34.722L34.7234 25.1719Z" fill="#FFDBD0"/>
<path d="M34.7234 29.5641H34.6673C29.4394 26.9073 30.7634 23.4361 30.7634 23.4361C30.7634 23.4361 29.7086 21.5562 30.0074 20.4546C30.3077 19.3537 31.3258 19.6374 31.3258 19.6374L27.1987 15.1353L27.095 15.2281C26.7322 15.5572 26.7055 16.1209 27.0324 16.4817L29.1722 18.8418L29.4761 19.1766C29.4761 19.1766 29.34 19.2933 29.1722 19.5085C28.7165 20.0968 28.0217 21.4209 29.1715 23.1381C29.1737 23.1402 29.1758 23.1417 29.1766 23.1445V27.8893L30.0521 28.7793L34.6673 33.8394L34.7234 33.8157H34.7242L34.7234 29.5648V29.5641Z" fill="#EFA7A0"/>
<path d="M18.6437 30.5684C18.504 31.0299 18.4414 31.5267 18.0677 31.8881C17.2886 32.1329 16.3267 31.7967 16.277 31.7729C15.9984 31.6498 15.9005 31.4165 15.8933 31.1336C15.8897 30.9708 15.899 30.8067 15.917 30.6432C16.0344 29.5625 16.0848 28.4847 15.8839 27.4061C15.7687 26.7869 15.5686 26.1915 15.4008 25.586C15.215 24.9185 15.4548 24.6435 16.1388 24.7234C16.4174 24.7558 16.6903 24.8379 16.9682 24.8854C17.4974 24.979 18.0194 24.8904 18.5429 24.8105C19.3126 24.6917 19.7734 25.0956 19.7611 25.8776C19.7546 26.2419 19.6862 26.6012 19.6229 26.9597C19.4062 28.1924 19.008 29.3753 18.643 30.5676L18.6437 30.5684Z" fill="white"/>
<path d="M22.3222 23.1674C22.2034 23.4453 22.0349 23.5065 21.7814 23.3538C21.4985 23.1832 21.6115 22.8794 21.4034 22.6238C21.2357 22.4193 21.2645 21.8627 21.4582 21.664C22.5202 20.5682 22.8031 19.6732 23.3122 18.2548C23.3762 18.0755 23.4367 17.8941 23.5462 17.7328C23.6563 17.5751 23.8003 17.4743 24.007 17.4722C24.1481 17.4887 24.2863 17.5341 24.4087 17.6176C24.588 17.74 24.7666 17.8682 24.9379 18.0021C25.2907 18.2778 25.3202 18.4463 25.038 18.797C24.7918 19.1008 24.521 19.3845 24.2539 19.6703C23.3777 20.6114 22.7153 21.6748 22.3992 22.9334C22.379 23.0133 22.3538 23.0918 22.3222 23.1666V23.1674Z" fill="white"/>
<path d="M13.8082 31.1823C13.7621 31.5804 13.5497 31.8036 13.2653 31.7748C12.9931 31.7468 12.8563 31.5207 12.888 31.0959C12.9456 30.3579 12.929 29.6213 12.9305 29.1663C12.9305 27.9192 12.8959 26.9552 12.9874 25.9925C13.0248 25.5944 13.0435 25.1919 13.1882 24.8132C13.3229 24.4611 13.5562 24.3401 13.9212 24.4164C14.5894 24.5547 14.8335 24.919 14.7031 25.6066C14.3525 27.457 14.0263 29.311 13.8082 31.1823Z" fill="white"/>
<path d="M20.1931 24.1147C20.1154 24.4078 19.8691 24.4445 19.5617 24.4459C19.3291 24.4459 18.7049 24.0888 18.4874 24.0226C16.7393 23.4905 15.408 23.7806 13.6022 23.821C12.9946 23.8346 12.8232 23.7151 12.8203 23.1722C12.8117 22.6906 13.0507 22.4256 13.3942 22.2269C14.4785 21.5998 15.4274 21.9453 16.6687 21.8553C17.5327 21.7927 18.6271 21.1454 19.4846 21.2887C20.1823 21.4061 20.5639 21.8654 20.5135 22.5393C20.4725 23.0757 20.3328 23.5978 20.1931 24.1154V24.1147Z" fill="white"/>
<path d="M26.064 16.935C25.9337 17.097 25.6975 17.3807 25.4923 17.3548C25.0675 17.2986 24.6614 17.0516 24.3828 16.7291C24.133 16.4396 24.3821 15.9112 24.6038 15.6455C24.7385 15.4864 25.1086 14.1184 25.2295 13.1053C25.2475 12.9649 25.2655 12.8188 25.3454 12.7021C25.4772 12.5128 25.7335 12.4559 25.9639 12.466C26.0626 12.4696 26.1648 12.4847 26.244 12.5437C26.347 12.6186 26.3909 12.7489 26.4204 12.872C26.6508 13.8116 26.3988 14.1644 26.1677 15.1026C25.9668 15.9191 26.2642 16.6873 26.064 16.935Z" fill="white"/>
<path d="M20.2558 19.9318C20.1204 20.4386 19.8331 20.6402 19.3421 20.5826C19.0361 20.5474 18.923 20.4055 18.972 20.1046C19.0202 19.8086 19.0786 19.5127 19.1311 19.2175C19.3478 18.005 19.4911 16.7861 19.3248 15.5534C19.2766 15.1934 19.1909 14.8385 19.1491 14.4778C19.1102 14.1372 19.1707 13.8074 19.4926 13.6159C19.8418 13.4086 20.2133 13.4352 20.5639 13.6159C20.8836 13.7801 20.9779 14.0796 20.9873 14.4216C20.9657 14.5656 20.9542 14.711 20.9232 14.8522C20.659 16.025 20.4876 17.2123 20.3998 18.4118C20.3623 18.9187 20.3882 19.4342 20.2558 19.9318Z" fill="white"/>
<path d="M17.5766 19.9972C17.5716 20.6064 17.1482 20.8663 16.6766 20.6229C16.3742 20.4652 16.2043 20.2017 16.1114 19.8849C16.0301 19.6135 16.0078 19.332 15.9883 19.0497C15.9142 17.8696 15.8292 16.6896 15.6758 15.516C15.6139 15.0444 15.4692 14.5922 15.3886 14.1271C15.2971 13.6015 15.5822 13.2588 16.1662 13.1407C16.7184 13.0298 17.0755 13.2336 17.2145 13.744C17.2958 14.0392 17.2901 14.3424 17.2318 14.6383C16.9783 15.9098 17.0633 17.1741 17.2822 18.4377C17.3765 18.9842 17.4866 19.5285 17.5759 19.9972H17.5766Z" fill="white"/>
<path d="M15.4757 20.0242C15.5741 20.4557 15.5287 20.7634 15.3396 20.9473C14.7514 21.2245 14.1394 21.385 14.0803 20.7305C14.0285 20.1776 13.9968 19.6246 13.9435 19.0717C13.8139 17.7361 13.531 16.4314 13.1285 15.1527C13.0356 14.8582 12.955 14.558 12.9542 14.2455C12.9542 13.7825 13.1962 13.5709 13.6505 13.6501C13.837 13.6825 14.0213 13.7422 14.1991 13.8106C14.5886 13.9597 14.7874 14.2498 14.7895 14.671V15.6524C14.7593 16.4926 14.8392 17.3235 15.0012 18.1472C15.1258 18.7822 15.3317 19.3957 15.4757 20.0249V20.0242Z" fill="white"/>
<path d="M13.1177 20.9235C13.2379 21.357 12.9485 21.6983 12.3948 21.8329C12.0571 21.9157 11.8598 21.7703 11.7425 21.3159C11.6244 20.8566 11.5258 20.3936 11.4242 19.9321C11.1103 18.4993 10.8461 17.0586 10.7474 15.5444C10.7302 14.9655 11.1067 14.6639 11.6878 14.8374C11.9822 14.9252 12.0859 15.1117 12.1061 15.5804C12.1579 16.7475 12.299 17.9017 12.5489 19.0429C12.6907 19.6851 12.9434 20.2928 13.117 20.9235H13.1177Z" fill="white"/>
<path d="M20.8282 11.9366C21.1082 12.789 20.9621 13.005 20.0678 13.0965C19.4868 13.1555 19.2211 12.9244 19.2535 12.3369C19.2938 11.6039 19.237 10.8839 19.0598 10.1726C19.0066 9.96088 18.9598 9.74776 18.9209 9.5332C18.8237 8.9968 19.0591 8.7124 19.6438 8.6512C20.1514 8.60008 20.4818 8.89672 20.4876 9.41008C20.489 9.5368 20.4876 9.66424 20.4883 9.7924C20.4746 10.5261 20.5999 11.2382 20.8274 11.9358L20.8282 11.9366Z" fill="white"/>
<path d="M16.9661 11.8776C16.9956 12.2304 16.8516 12.373 16.4974 12.3881C16.2994 12.396 16.0985 12.414 15.9012 12.4428C15.5506 12.4975 15.4735 12.4442 15.4303 12.0785C15.3799 11.6429 15.4627 11.2073 15.4382 10.6442C15.4382 10.4801 15.4706 10.1849 15.431 9.89904C15.336 9.19776 15.6586 8.83272 16.5024 8.67864C16.763 8.63112 16.9171 8.77008 16.9445 9.03648C16.9639 9.21936 16.9258 9.39864 16.8912 9.57648C16.7854 10.1453 16.7746 10.7148 16.8703 11.2858C16.9042 11.483 16.9502 11.6789 16.9661 11.8769V11.8776Z" fill="white"/>
<path d="M19.9937 7.68217C19.9095 7.84777 19.7446 7.92337 19.5883 7.96585C19.3543 8.03209 19.1261 8.01985 18.8971 7.94353C18.6653 7.86433 18.7539 7.53601 18.8021 7.32433C18.8763 7.00321 18.8899 6.66913 18.9043 6.33865C18.9159 6.02473 18.9288 5.71153 18.9411 5.39689C18.949 5.19889 18.9576 4.99945 19.0001 4.80793C19.0426 4.61641 19.1239 4.42993 19.2543 4.30609C19.3831 4.18297 19.5667 4.13113 19.7158 4.20961C19.9059 4.31041 19.9887 4.57825 20.0232 4.82737C20.0758 5.19097 20.0635 5.56753 20.0052 5.93257C19.9815 6.08305 19.9491 6.23353 19.9433 6.38617C19.9325 6.66913 20.0124 6.94057 20.0448 7.21849C20.0621 7.37617 20.0628 7.54537 19.9937 7.68217Z" fill="white"/>
<path d="M14.3683 12.3543C14.387 12.6927 14.2229 12.8237 13.9176 12.6819C13.6462 12.5544 13.4043 12.5587 13.1379 12.6955C12.7851 12.877 12.6238 12.7863 12.5453 12.3953C12.4596 11.9619 12.5093 11.5241 12.5035 11.0871C12.5035 10.8243 12.5057 10.5586 12.5035 10.2958C12.4992 9.60387 12.7498 9.35907 13.446 9.37851C13.7664 9.38715 13.9227 9.49011 13.9371 9.80691C13.9767 10.6378 14.0962 11.4535 14.3561 12.2455C14.3662 12.2801 14.3662 12.3183 14.3683 12.3543Z" fill="white"/>
<path d="M11.6719 13.5281C11.6791 13.6505 11.6158 13.7715 11.5272 13.8586C11.3645 14.0184 11.1146 14.0717 10.8958 14.017C10.6553 13.9572 10.5581 13.8024 10.5545 13.554C10.5523 13.418 10.5804 13.2848 10.5998 13.1508C10.7366 12.2364 10.5314 11.2716 10.8331 10.3983C10.8727 10.2802 10.926 10.1614 11.0182 10.0772C11.111 9.99435 11.2529 9.95403 11.3645 10.0109C11.4458 10.0534 11.497 10.1376 11.5322 10.2226C11.6964 10.6092 11.646 11.0477 11.6014 11.4646C11.5315 12.104 11.4826 12.7584 11.6424 13.3805C11.6554 13.4288 11.669 13.477 11.6719 13.5288V13.5281Z" fill="white"/>
<path d="M16.9956 7.60444C16.9618 7.74268 16.825 7.82908 16.6932 7.88812C16.4491 7.99756 16.1834 8.06236 15.9156 8.07964C15.7673 8.089 15.5822 8.10484 15.5052 7.94932C15.4123 7.765 15.4872 7.49356 15.5275 7.30492C15.6312 6.82108 15.8242 6.36244 15.9415 5.8822C16.0452 5.45884 16.087 5.02252 16.1647 4.59412C16.241 4.16428 16.3548 3.73372 16.5852 3.36292C16.6644 3.23332 16.7782 3.10156 16.9308 3.08716C16.9906 3.0814 17.051 3.09652 17.1079 3.12028C17.298 3.20308 17.4233 3.39604 17.4751 3.59764C17.5263 3.7978 17.5147 4.00948 17.4996 4.21684C17.491 4.33276 17.4816 4.4494 17.4427 4.55884C17.4082 4.65316 17.3527 4.73884 17.3074 4.82884C17.2404 4.95916 17.195 5.09956 17.1497 5.2378C17.0424 5.56756 16.9351 5.8966 16.8818 6.2386C16.8271 6.57988 16.83 6.93628 16.938 7.26388C16.9747 7.37548 17.0237 7.48996 16.9971 7.60372L16.9956 7.60444Z" fill="white"/>
<path d="M8.96904 16.4817C9.29592 16.1202 9.26856 15.5565 8.9064 15.2289L8.80272 15.1353L6.9804 17.1246L4.6764 19.6381C4.6764 19.6381 5.69448 19.3537 5.99472 20.4546C6.29424 21.5569 5.23872 23.4354 5.23872 23.4354C5.23872 23.4354 6.56208 26.9073 1.33488 29.5648H1.27872V33.8157L1.33488 33.8394L5.95008 28.7785L6.97968 27.7324V22.8983C7.81128 21.4777 7.39008 20.3488 6.97968 19.7224C6.75144 19.371 6.52536 19.1773 6.52536 19.1773L6.97968 18.6769L8.96904 16.4831V16.4817Z" fill="#EFA7A0"/>
<path d="M8.80273 15.135C8.44345 14.8059 7.87825 14.8326 7.54993 15.1962C7.54993 15.1962 7.31881 15.4518 6.97969 15.824C6.28489 16.5901 5.14009 17.8522 4.63465 18.411C2.90881 20.319 2.52865 22.741 2.67193 23.533L2.67841 23.6245L1.27657 25.1725L1.27801 25.3136V29.5645H1.33417C6.56209 26.907 5.23801 23.4351 5.23801 23.4351C5.23801 23.4351 6.29281 21.5559 5.99401 20.4543C5.69377 19.3534 4.67569 19.6378 4.67569 19.6378L8.80273 15.135Z" fill="#FFDBD0"/>
<path d="M13.9514 8.08426C13.9421 8.20882 13.8629 8.32042 13.7621 8.39242C13.6613 8.46586 13.5396 8.5033 13.4172 8.52922C13.1681 8.57962 12.6612 8.68474 12.654 8.31106C12.6418 7.69186 12.8628 7.09138 12.888 6.4729C12.8945 6.29722 12.8858 6.1201 12.8894 5.9437C12.8966 5.3713 13.4323 4.1653 13.8859 4.16602C13.9306 4.16602 13.9766 4.16602 14.0184 4.18258C14.058 4.19842 14.0926 4.22938 14.1199 4.26322C14.2855 4.46554 14.2452 4.76146 14.1948 5.01706C14.0328 5.85802 13.865 6.70834 13.8953 7.5637C13.8989 7.65802 13.9046 7.75018 13.9205 7.84234C13.9349 7.92298 13.9579 8.00362 13.9514 8.08498V8.08426Z" fill="white"/>
<path d="M1.27656 25.4074C1.34064 25.4074 1.404 25.3815 1.4508 25.3304L2.85264 23.7824C2.89584 23.7349 2.91744 23.6722 2.91312 23.6081L2.90664 23.5167C2.90664 23.5081 2.9052 23.5001 2.90376 23.4915C2.76048 22.6995 3.1824 20.3674 4.8096 18.5681C5.19984 18.1369 5.97024 17.2873 6.6204 16.5701L7.15464 15.9812C7.49376 15.6082 7.72488 15.3526 7.72488 15.3526C7.84152 15.2237 8.00208 15.1481 8.17776 15.1395C8.35272 15.1316 8.51832 15.1906 8.64648 15.308L8.75016 15.4016C8.87904 15.5182 8.95464 15.6781 8.96328 15.853C8.97192 16.028 8.91288 16.1943 8.79696 16.3232L6.35328 19.0174C6.3108 19.0642 6.2892 19.1261 6.2928 19.1895C6.2964 19.2529 6.32592 19.3119 6.37344 19.3529C6.3756 19.3544 6.57936 19.5329 6.78456 19.849C7.19568 20.4776 7.52832 21.4957 6.77664 22.7801C6.73848 22.8471 6.6924 22.9213 6.6312 23.0134C6.60456 23.0537 6.5916 23.0991 6.5916 23.1437V27.7913L5.778 28.6193L1.16064 33.6809C1.07352 33.7767 1.08 33.925 1.17576 34.0129C1.2204 34.0539 1.27728 34.0741 1.33416 34.0741C1.39752 34.0741 1.4616 34.0481 1.50768 33.9977L6.11712 28.9433L6.92064 28.1261V34.1849L29.2306 34.1864V28.2788L29.8786 28.9376L34.4938 33.9977C34.5398 34.0489 34.6032 34.0741 34.6673 34.0741C34.7234 34.0741 34.7803 34.0539 34.825 34.0129C34.9207 33.9257 34.9272 33.7774 34.8401 33.6817L30.2184 28.615L29.4098 27.7935V23.1452C29.4098 23.1185 29.4062 23.0912 29.3962 23.0645C29.3882 23.0437 29.376 23.0213 29.3616 23.0019C28.3154 21.4337 28.9094 20.2313 29.3566 19.6532C29.5049 19.4624 29.6266 19.3565 29.6273 19.3558C29.6755 19.3148 29.705 19.2557 29.7086 19.1924C29.7122 19.129 29.6906 19.0671 29.6482 19.0196L27.2045 16.3253C26.9633 16.0589 26.9842 15.6449 27.2498 15.4045L27.3557 15.3101C27.4838 15.1935 27.6494 15.1345 27.8251 15.1424C27.9994 15.151 28.1599 15.2259 28.2766 15.3548L28.9973 16.1497C29.6971 16.9208 30.721 18.0497 31.1911 18.5717C32.8198 20.3717 33.2417 22.7017 33.0977 23.4929C33.0962 23.5009 33.0948 23.5095 33.0948 23.5174L33.0883 23.6089C33.0833 23.6729 33.1056 23.7363 33.1481 23.7838L34.5492 25.3311C34.5953 25.3822 34.6594 25.4081 34.7234 25.4081C34.7796 25.4081 34.8358 25.388 34.8811 25.3477C34.9769 25.2605 34.9848 25.1122 34.8977 25.0165L33.5657 23.5455C33.7133 22.6239 33.2784 20.1781 31.5403 18.2571C31.0702 17.7351 30.0456 16.6054 29.3458 15.8343L29.2306 15.7069V1.81589L6.92136 1.81445V15.5398C6.88392 15.5801 6.84576 15.6226 6.80616 15.6665L6.27192 16.2555C5.62104 16.9733 4.85064 17.8229 4.4604 18.2542C2.72448 20.1737 2.28816 22.6203 2.43504 23.5441L1.10232 25.0157C1.0152 25.1115 1.0224 25.2605 1.11888 25.3469C1.16352 25.388 1.2204 25.4074 1.27656 25.4074ZM14.6462 25.5961C14.315 27.3449 13.9774 29.2306 13.7506 31.1761C13.7095 31.5353 13.5259 31.7413 13.2718 31.7168C13.0277 31.6916 12.9182 31.4842 12.947 31.1012C12.9946 30.4928 12.9917 29.8822 12.9902 29.4358C12.9902 29.3386 12.9895 29.2486 12.9902 29.1673C12.9902 28.8843 12.9888 28.6165 12.9866 28.3587C12.9809 27.4904 12.9758 26.7401 13.0471 25.9985L13.0608 25.8466C13.0903 25.5082 13.1213 25.1576 13.2444 24.835C13.3438 24.5765 13.4971 24.4541 13.7311 24.4541C13.7866 24.4541 13.8463 24.4606 13.9111 24.4743C14.5512 24.6068 14.7715 24.9423 14.6477 25.5961H14.6462ZM19.5818 26.8625L19.5667 26.9496C19.3838 27.9886 19.0663 29.011 18.7589 29.9996C18.702 30.1832 18.6444 30.3668 18.5882 30.5511C18.5602 30.644 18.535 30.7383 18.5098 30.8319C18.4104 31.2056 18.3168 31.5591 18.0374 31.8356C17.2598 32.0725 16.3109 31.7233 16.3008 31.7189C16.0704 31.6174 15.9602 31.4309 15.9523 31.1321C15.9487 30.9788 15.9574 30.8168 15.9761 30.6497C16.0805 29.6893 16.1575 28.5517 15.9422 27.3953C15.8587 26.9461 15.7291 26.5033 15.6031 26.0749C15.5542 25.9071 15.5045 25.7393 15.4577 25.5701C15.3713 25.2591 15.3814 25.038 15.4879 24.9135C15.57 24.8177 15.7176 24.7688 15.9278 24.7688C15.9905 24.7688 16.0589 24.7731 16.133 24.7817C16.295 24.8005 16.4592 24.8372 16.6183 24.8732C16.7299 24.8984 16.8451 24.9236 16.9596 24.9437C17.4766 25.0352 17.9921 24.9553 18.4903 24.8782L18.553 24.8689C18.9122 24.8134 19.2074 24.8761 19.4062 25.0496C19.6063 25.2238 19.7093 25.5104 19.7035 25.8776C19.6978 26.2081 19.6387 26.5407 19.5818 26.8633V26.8625ZM24.6492 15.6831C24.8018 15.5031 25.1712 14.0926 25.2878 13.112C25.3051 12.9781 25.3224 12.8398 25.3937 12.7354C25.5211 12.5511 25.7738 12.5237 25.9142 12.5237C25.9315 12.5237 25.9474 12.5237 25.961 12.5245C26.0388 12.5273 26.1374 12.5374 26.2087 12.5907C26.2966 12.6548 26.3362 12.7757 26.3628 12.8859C26.537 13.5965 26.429 13.9652 26.2656 14.5239C26.2174 14.6881 26.1626 14.8745 26.1101 15.0891C26.0028 15.5254 26.0345 15.9445 26.0597 16.2814C26.0813 16.5701 26.0986 16.7984 26.0179 16.8992C25.9258 17.0144 25.681 17.3189 25.4995 17.2973C25.1114 17.2462 24.7104 17.0194 24.4267 16.6911C24.2093 16.4391 24.4253 15.9502 24.6485 15.6838L24.6492 15.6831ZM21.5014 21.7045C22.5166 20.6569 22.824 19.7965 23.2898 18.4933L23.3827 18.2341C23.4425 18.0663 23.4986 17.9086 23.5951 17.7661C23.706 17.6069 23.837 17.5321 24.0005 17.5306C24.1423 17.5472 24.2683 17.5933 24.3763 17.6667C24.565 17.7949 24.7414 17.9237 24.9026 18.049C25.0783 18.1865 25.1582 18.2866 25.1698 18.3838C25.1813 18.4803 25.128 18.5933 24.9934 18.7604C24.7759 19.0289 24.5347 19.286 24.3014 19.5351L24.2114 19.6309C23.2502 20.6626 22.639 21.7383 22.3423 22.9198C22.3229 22.9983 22.2977 23.0746 22.2682 23.1445C22.2142 23.2712 22.1522 23.3446 22.0788 23.3684C22.009 23.3907 21.9211 23.3698 21.8117 23.3036C21.6734 23.2201 21.6454 23.1041 21.6094 22.9573C21.5813 22.8406 21.5489 22.7081 21.4488 22.5865C21.3005 22.405 21.3307 21.878 21.5006 21.7052L21.5014 21.7045ZM20.911 14.5563C20.8987 14.6542 20.8872 14.7471 20.8663 14.8393C20.6078 15.9869 20.4314 17.1872 20.3414 18.4069C20.3306 18.553 20.3249 18.7013 20.3198 18.8453C20.3062 19.2003 20.2925 19.5668 20.1996 19.916C20.0729 20.3905 19.8101 20.5784 19.3493 20.5237C19.2096 20.5078 19.1174 20.4682 19.0692 20.4041C19.0217 20.3415 19.0087 20.2465 19.0303 20.1133C19.0613 19.921 19.0973 19.7288 19.1326 19.5365C19.152 19.4336 19.1707 19.3306 19.1894 19.2277C19.3838 18.1369 19.5595 16.8466 19.3831 15.5456C19.3608 15.3793 19.3298 15.2122 19.3003 15.0502C19.2658 14.8609 19.2298 14.6643 19.2074 14.4713C19.1628 14.0825 19.2658 13.819 19.5228 13.6664C19.6762 13.5749 19.8403 13.5296 20.011 13.5296C20.1816 13.5296 20.3594 13.5757 20.5373 13.6678C20.7972 13.801 20.9182 14.0343 20.9297 14.413C20.9225 14.4605 20.9167 14.5088 20.9102 14.5563H20.911ZM20.43 9.41117C20.4307 9.48677 20.4307 9.56309 20.4307 9.63941V9.79133C20.4178 10.5005 20.5294 11.2076 20.7727 11.9542C20.9153 12.3869 20.9347 12.6224 20.8411 12.7671C20.7468 12.9125 20.5214 12.9903 20.0621 13.0378C19.7798 13.0666 19.5847 13.0249 19.4645 12.9104C19.3471 12.7981 19.2974 12.6116 19.3126 12.3401C19.355 11.5712 19.291 10.8577 19.1174 10.1585C19.0627 9.94109 19.0159 9.72725 18.9792 9.52349C18.9353 9.28085 18.9612 9.09869 19.0598 8.96765C19.1671 8.82509 19.3601 8.74085 19.6502 8.71061C19.6862 8.70701 19.7208 8.70485 19.7546 8.70485C19.9404 8.70485 20.0974 8.75813 20.2133 8.86253C20.3515 8.98637 20.4264 9.17645 20.4286 9.41189L20.43 9.41117ZM18.8532 7.36709L18.8604 7.33613C18.936 7.01141 18.9497 6.67229 18.9641 6.33893L19.0008 5.39645C19.0087 5.20421 19.0166 5.00549 19.0584 4.81901C19.0901 4.67645 19.157 4.47917 19.2953 4.34669C19.4141 4.23365 19.5725 4.19837 19.6884 4.25957C19.8648 4.35317 19.9361 4.62317 19.9656 4.83341C20.0146 5.17181 20.0088 5.53757 19.9476 5.92133C19.9418 5.95733 19.9354 5.99333 19.9296 6.02933C19.9102 6.14381 19.8893 6.26261 19.885 6.38285C19.8778 6.57509 19.9109 6.76301 19.9433 6.94445C19.9591 7.03589 19.9764 7.13093 19.9872 7.22453C20.0009 7.34477 20.0102 7.52045 19.9418 7.65509C19.8799 7.77677 19.7626 7.85741 19.5732 7.90853C19.3572 7.96901 19.1426 7.96181 18.9166 7.88693C18.7589 7.83293 18.7963 7.61045 18.8532 7.36709ZM19.4753 21.3459C20.1463 21.4589 20.5034 21.8917 20.4559 22.5339C20.4149 23.071 20.2745 23.5937 20.1377 24.0992C20.0743 24.3389 19.8864 24.385 19.5631 24.3865C19.4285 24.3865 19.1225 24.2425 18.8762 24.1258C18.7222 24.0531 18.589 23.9905 18.5054 23.9653C17.6875 23.7161 16.9661 23.6456 16.2418 23.6456C15.7925 23.6456 15.3418 23.6729 14.8666 23.7017C14.4641 23.7262 14.0479 23.7514 13.6022 23.7608C13.271 23.768 13.0982 23.7334 13.0025 23.6405C12.9175 23.5585 12.8815 23.4173 12.8801 23.1697C12.8729 22.7686 13.0356 22.5015 13.4244 22.2761C14.1538 21.8542 14.8104 21.8809 15.5714 21.9125C15.9199 21.9269 16.2806 21.9413 16.6738 21.9125C17.041 21.8859 17.4362 21.7599 17.8546 21.6267C18.4126 21.4489 18.9893 21.2638 19.476 21.3459H19.4753ZM15.5729 7.37717L15.5858 7.31741C15.6413 7.05893 15.7241 6.80261 15.804 6.55421C15.8731 6.34037 15.9444 6.11933 15.9991 5.89613C16.0654 5.62469 16.1071 5.34533 16.1474 5.07533C16.1712 4.91837 16.1942 4.76069 16.223 4.60445C16.2864 4.24805 16.3908 3.78797 16.6356 3.39341C16.7299 3.23861 16.8314 3.15581 16.9366 3.14573C16.9798 3.14141 17.0302 3.15077 17.0842 3.17453C17.2397 3.24221 17.3642 3.40637 17.4182 3.61229C17.4665 3.80093 17.4564 4.00397 17.4413 4.21277C17.4334 4.31645 17.4247 4.43453 17.3873 4.53893C17.3657 4.59725 17.3354 4.65269 17.303 4.71173C17.2865 4.74197 17.2699 4.77221 17.2548 4.80245C17.1878 4.93277 17.1425 5.07245 17.0978 5.20709L17.0935 5.22005C16.987 5.54621 16.8775 5.88317 16.8235 6.23021C16.7609 6.62189 16.781 6.97613 16.8818 7.28357L16.8962 7.32533C16.9286 7.41965 16.9596 7.50893 16.9402 7.59101C16.9171 7.68461 16.8293 7.76453 16.6709 7.83581C16.4362 7.94093 16.1741 8.00573 15.9019 8.02301C15.7349 8.03381 15.6125 8.03309 15.5585 7.92437C15.4843 7.77749 15.5333 7.55645 15.5722 7.37789L15.5729 7.37717ZM15.4987 10.6431C15.4987 10.5985 15.5009 10.5437 15.5038 10.4818C15.511 10.3126 15.5203 10.1024 15.4915 9.89141C15.4001 9.22037 15.6967 8.88629 16.5146 8.73653C16.619 8.71709 16.704 8.73149 16.7659 8.77757C16.8329 8.82797 16.8754 8.91941 16.8883 9.04253C16.9056 9.20381 16.8739 9.36797 16.8437 9.52709L16.8365 9.56525C16.7278 10.1477 16.7206 10.7295 16.8156 11.2947C16.8257 11.3523 16.8365 11.4099 16.8473 11.4675C16.8732 11.6029 16.8998 11.7433 16.9106 11.8808C16.9236 12.0363 16.9006 12.145 16.8408 12.2127C16.7774 12.284 16.6687 12.3207 16.4981 12.3279C16.2907 12.3365 16.0884 12.3545 15.8954 12.3833C15.7234 12.41 15.637 12.4071 15.5894 12.3704C15.5412 12.3337 15.5124 12.2465 15.4922 12.0701C15.4656 11.8397 15.4771 11.6036 15.4894 11.3545C15.5002 11.1327 15.5117 10.903 15.5002 10.6417L15.4987 10.6431ZM16.1806 13.1977C16.7011 13.0933 17.0309 13.2819 17.1605 13.7585C17.2332 14.0213 17.2382 14.3137 17.177 14.6254C16.9538 15.745 16.9697 16.9589 17.2274 18.4465C17.2951 18.841 17.37 19.2262 17.4427 19.5985C17.4701 19.7396 17.4967 19.8764 17.5205 19.9959C17.5183 20.2774 17.424 20.4884 17.2548 20.5906C17.1036 20.6821 16.9092 20.6741 16.7062 20.5697C16.4448 20.4337 16.2691 20.204 16.1705 19.867C16.0927 19.6071 16.0697 19.3407 16.0502 19.0448C15.9826 17.977 15.8976 16.7343 15.737 15.5074C15.7018 15.2374 15.6391 14.9717 15.5779 14.714C15.5318 14.5189 15.4843 14.3165 15.4498 14.1164C15.3432 13.5008 15.7889 13.2769 16.1813 13.1977H16.1806ZM14.7326 14.6701V15.6493C14.7031 16.4614 14.773 17.2822 14.945 18.1577C15.0163 18.5213 15.1157 18.8821 15.2114 19.2313C15.2834 19.4948 15.3583 19.7669 15.4202 20.0369C15.5592 20.6468 15.5606 20.6518 15.3079 20.8981C14.8248 21.1249 14.5022 21.1846 14.3208 21.0809C14.2164 21.0212 14.1574 20.9045 14.1408 20.7245C14.1163 20.461 14.0962 20.1982 14.076 19.9347C14.0544 19.6496 14.0321 19.3551 14.004 19.0649C13.8794 17.7848 13.6044 16.4621 13.1861 15.1337C13.0831 14.8083 13.0147 14.5325 13.0147 14.2438C13.0147 14.0285 13.068 13.8745 13.1746 13.7852C13.2487 13.7225 13.3502 13.6909 13.4762 13.6909C13.5274 13.6909 13.5828 13.6959 13.6418 13.706C13.8017 13.7341 13.9723 13.7837 14.1797 13.8629C14.5447 14.0026 14.7305 14.2741 14.7319 14.6693L14.7326 14.6701ZM12.8318 7.32317C12.8837 7.04669 12.937 6.76157 12.9492 6.47501C12.9528 6.37709 12.9514 6.27845 12.9506 6.18053C12.9499 6.10205 12.9485 6.02357 12.9506 5.94437C12.9578 5.38997 13.4856 4.22429 13.8953 4.22429C13.9334 4.22429 13.9702 4.22501 13.9982 4.23581C14.0242 4.24661 14.0501 4.26749 14.076 4.29917C14.2258 4.48205 14.1869 4.75925 14.1386 5.00477L14.1278 5.06021C13.9709 5.87669 13.8082 6.72125 13.8384 7.56437C13.8427 7.67021 13.8485 7.75949 13.865 7.85165C13.8686 7.87037 13.8722 7.88837 13.8758 7.90709C13.8881 7.96757 13.8996 8.02445 13.8953 8.07989C13.8881 8.17709 13.8269 8.27573 13.7297 8.34485C13.6505 8.40317 13.5511 8.44205 13.405 8.47157C13.2336 8.50613 12.9154 8.57093 12.7807 8.46293C12.7382 8.42909 12.7166 8.37869 12.7159 8.30885C12.7094 7.97909 12.7721 7.64501 12.8326 7.32317H12.8318ZM12.5597 11.4689C12.5626 11.3415 12.5654 11.2141 12.564 11.0866V10.8325C12.5647 10.6532 12.5654 10.4739 12.564 10.2961C12.5618 9.95981 12.6223 9.74237 12.7541 9.61349C12.8866 9.48389 13.1054 9.42773 13.446 9.43709C13.7578 9.44573 13.8679 9.53933 13.8802 9.80933C13.9241 10.7309 14.0623 11.5337 14.3014 12.2624C14.3078 12.2847 14.3093 12.3121 14.3107 12.3401V12.3581C14.3201 12.5072 14.2898 12.6123 14.2265 12.6555C14.1502 12.7066 14.0306 12.6699 13.9442 12.6296C13.6584 12.4957 13.3942 12.5 13.1126 12.644C12.9564 12.7239 12.8448 12.7462 12.7714 12.7109C12.6958 12.6742 12.641 12.5677 12.6043 12.3848C12.5446 12.0838 12.5518 11.7713 12.559 11.4697L12.5597 11.4689ZM12.0506 15.583C12.1039 16.7861 12.2537 17.9547 12.4942 19.0556C12.5777 19.4343 12.7015 19.8058 12.8203 20.1651C12.9046 20.4178 12.991 20.6792 13.063 20.9398C13.1083 21.1025 13.0918 21.2516 13.0147 21.3826C12.9067 21.5662 12.6886 21.7023 12.3826 21.7765C12.1234 21.8398 11.9254 21.7837 11.8015 21.3013C11.6986 20.9024 11.6093 20.4934 11.5229 20.0974L11.484 19.9189C11.2097 18.6668 10.9145 17.167 10.8086 15.542C10.8007 15.2799 10.8792 15.0718 11.0304 14.9552C11.1859 14.8357 11.4084 14.8141 11.6734 14.8933C11.939 14.9732 12.0305 15.1402 12.0499 15.583H12.0506ZM10.6459 13.2423L10.6589 13.1581C10.715 12.7851 10.7143 12.4006 10.7136 12.0284C10.7136 11.4869 10.7122 10.9275 10.8893 10.4149C10.9217 10.3191 10.9699 10.1989 11.0578 10.1189C11.1269 10.057 11.2442 10.0131 11.3378 10.0613C11.3933 10.0909 11.4394 10.1499 11.479 10.2442C11.6345 10.6107 11.5898 11.0312 11.5459 11.438L11.5438 11.4567C11.4746 12.086 11.4214 12.7534 11.5884 13.4021C11.5999 13.4461 11.6114 13.4878 11.6136 13.5303C11.6194 13.6246 11.5718 13.7312 11.4869 13.8154C11.345 13.9544 11.119 14.0105 10.9102 13.9587C10.7057 13.9083 10.6171 13.7866 10.6135 13.5512C10.6121 13.4482 10.6279 13.3481 10.6452 13.2416L10.6459 13.2423Z" fill="#564B57"/>
</svg>
