<svg width="50" height="50" viewBox="0 0 50 50" fill="none" xmlns="http://www.w3.org/2000/svg">
<path d="M47.4241 30.122V33.224H41.1541V30.122H47.4241Z" fill="#A5AAAD"/>
<path d="M45.2251 41.829V42.97H40.8281V41.829H43.3641H45.2251Z" fill="#A5AAAD"/>
<path d="M44.4251 26.085V30.122H42.9471V26.085C42.9471 25.581 42.8981 25.151 42.7031 24.872L42.7361 24.844C42.8861 24.658 43.1031 24.526 43.4171 24.526C44.2691 24.526 44.4261 25.189 44.4261 26.084L44.4251 26.085Z" fill="#EFA7A0"/>
<path d="M43.3641 33.224V41.829H40.8281H40.7561H38.8081V33.512V33.224H41.1541H43.3641Z" fill="#8B9194"/>
<path d="M42.9469 26.085V30.122H40.9209V26.085C40.9209 26.085 40.8559 24.527 41.9379 24.527C42.3109 24.527 42.5509 24.654 42.7019 24.873C42.8979 25.152 42.9459 25.582 42.9459 26.086L42.9469 26.085Z" fill="#FFDBD0"/>
<path d="M41.154 30.153V33.224H16.56L16.505 33.291C15.605 32.549 14.843 31.454 14.29 30.122H41.154V30.153Z" fill="#F2EDED"/>
<path d="M40.921 26.085V30.122H29.145V29.384H31.547C31.899 29.384 32.22 29.241 32.452 29.009C32.683 28.776 32.829 28.456 32.829 28.104C32.829 27.4 32.252 26.823 31.548 26.823H29.146V26.085H40.922H40.921Z" fill="#4270B7"/>
<path d="M40.7559 41.829V42.97H21.4189V41.829H23.1349H38.8079H40.7559Z" fill="#DAD5D5"/>
<path d="M38.808 33.512V41.829H23.135V39.249V34.708V33.224H38.808V33.512Z" fill="#DAD5D5"/>
<path d="M31.547 26.823C32.251 26.823 32.828 27.4 32.828 28.104C32.828 28.456 32.683 28.776 32.451 29.009C32.22 29.24 31.898 29.384 31.546 29.384H20.873C20.169 29.384 19.594 28.809 19.594 28.105C19.594 27.753 19.737 27.432 19.969 27.2C20.202 26.969 20.522 26.823 20.874 26.823H31.547Z" fill="#FFDBD0"/>
<path d="M29.145 29.478V30.122H20.779C19.703 30.122 18.823 29.242 18.823 28.166V26.955C18.823 25.879 19.703 24.999 20.779 24.999H27.708C28.502 24.999 29.146 25.643 29.146 26.438V26.823H20.876C20.524 26.823 20.204 26.968 19.971 27.2C19.74 27.431 19.596 27.753 19.596 28.105C19.596 28.809 20.171 29.384 20.875 29.384H29.145V29.479V29.478Z" fill="#4270B7"/>
<path d="M27.5099 24.761V24.999H26.0589V24.836C26.0039 18.093 22.5189 12.656 18.2289 12.656C13.9389 12.656 10.3989 18.181 10.3989 24.999C10.3989 31.817 13.9049 37.344 18.2289 37.344C19.9089 37.344 21.8879 36.374 23.1169 34.708H23.1349V39.249H23.0569C21.1339 41.583 18.7249 42.97 16.1099 42.97C9.81394 42.97 4.71094 34.925 4.71094 24.999C4.71094 15.073 9.81394 7.03 16.1099 7.03C22.4059 7.03 27.4279 14.946 27.5089 24.762L27.5099 24.761ZM18.3339 9.955C18.3339 8.974 17.8009 8.178 17.1429 8.178C16.4849 8.178 15.9519 8.973 15.9519 9.955C15.9519 10.937 16.4869 11.73 17.1429 11.73C17.7989 11.73 18.3339 10.935 18.3339 9.955Z" fill="#CFDCE8"/>
<path d="M26.0589 24.836V24.999H25.1849V24.846C25.1329 19.751 22.4969 15.647 19.2539 15.647C17.6779 15.647 16.2449 16.615 15.1839 18.195C14.0369 19.9 13.3189 22.319 13.3189 25C13.3189 25.802 13.3829 26.579 13.5029 27.321C13.5779 27.784 13.6739 28.232 13.7909 28.662C13.9299 29.174 14.0959 29.663 14.2879 30.122C14.8409 31.454 15.6029 32.549 16.5029 33.291C17.3259 33.971 18.2619 34.354 19.2529 34.354C20.2439 34.354 21.1269 33.991 21.9329 33.347V33.225H23.1339V34.71H23.1159C21.8869 36.376 19.9079 37.346 18.2279 37.346C13.9039 37.346 10.3979 31.819 10.3979 25.001C10.3979 18.183 13.9039 12.658 18.2279 12.658C22.5519 12.658 26.0029 18.095 26.0579 24.838L26.0589 24.836Z" fill="#F2EDED"/>
<path d="M25.1861 24.846V24.999H20.7791C19.7031 24.999 18.8231 25.879 18.8231 26.955C18.8231 26.528 18.4871 25.328 17.9181 24.999C17.3961 24.697 16.5341 24.724 15.8841 24.724C15.4941 24.724 15.1281 24.796 14.8051 24.933C13.9411 25.298 13.3821 26.133 13.5061 27.321H13.5041C13.3831 26.579 13.3201 25.802 13.3201 25C13.3201 22.319 14.0371 19.9 15.1851 18.195C16.2461 16.616 17.6791 15.647 19.2551 15.647C22.4981 15.647 25.1341 19.751 25.1861 24.846Z" fill="#DAD5D5"/>
<path d="M21.9339 33.224V33.346C21.1289 33.99 20.2179 34.353 19.2539 34.353C18.2899 34.353 17.3269 33.97 16.5039 33.29L16.5589 33.223H21.9329L21.9339 33.224Z" fill="#8B9194"/>
<path d="M20.7789 30.122H16.2319V30.036C16.8769 30.036 17.5379 29.813 18.0439 29.386C18.4029 29.081 18.6829 28.672 18.8229 28.167C18.8229 29.243 19.7029 30.123 20.7789 30.123V30.122Z" fill="#8B9194"/>
<path d="M18.8229 26.955V28.166C18.6829 28.671 18.4019 29.08 18.0439 29.385L18.0419 29.383C18.0439 29.119 18.1709 28.056 17.3149 27.839C17.3099 28.137 17.0659 28.387 16.7919 28.506C16.6489 28.568 16.4919 28.607 16.3359 28.596C16.1799 28.583 16.0249 28.511 15.9299 28.386C15.8029 28.216 15.8139 27.964 15.9349 27.789C16.0559 27.613 16.2709 27.515 16.4839 27.512C16.4969 26.663 15.2439 27.007 14.8589 26.63C15.2969 25.805 15.2619 25.256 14.8329 24.998L14.8049 24.931C15.1279 24.794 15.4939 24.722 15.8839 24.722C16.5339 24.722 17.3969 24.696 17.9179 24.997C18.4869 25.326 18.8229 26.526 18.8229 26.953V26.955Z" fill="#FFDBD0"/>
<path d="M17.1419 8.17899C17.7999 8.17899 18.3329 8.97399 18.3329 9.95599C18.3329 10.938 17.7999 11.731 17.1419 11.731C16.4839 11.731 15.9509 10.936 15.9509 9.95599C15.9509 8.97599 16.4859 8.17899 17.1419 8.17899Z" fill="white"/>
<path d="M17.3149 27.84C18.1709 28.057 18.0439 29.119 18.0419 29.384L18.0439 29.386C17.5369 29.813 16.8769 30.036 16.2319 30.036C15.1609 30.036 14.2349 29.563 13.7939 28.662C13.6769 28.232 13.5799 27.783 13.5059 27.321H13.5079C13.3839 26.133 13.9429 25.298 14.8069 24.933L14.8349 25C15.2639 25.258 15.2999 25.807 14.8609 26.632C15.2459 27.009 16.4989 26.665 16.4859 27.514C16.2719 27.517 16.0569 27.615 15.9369 27.791C15.8159 27.965 15.8049 28.218 15.9319 28.388C16.0269 28.514 16.1809 28.585 16.3379 28.598C16.4939 28.609 16.6509 28.57 16.7939 28.508C17.0679 28.389 17.3119 28.14 17.3169 27.841L17.3149 27.84Z" fill="#6A6565"/>
<path d="M16.231 30.036V30.122H14.29C14.098 29.662 13.931 29.173 13.793 28.662C14.235 29.563 15.16 30.036 16.231 30.036Z" fill="#8B9194"/>
<path d="M9.724 7.19501H16.111C9.619 7.19501 4.356 15.24 4.356 25.165C4.356 35.09 9.618 43.136 16.111 43.136H9.724C6.885 43.136 4.28 41.597 2.25 39.034V11.295C4.282 8.73301 6.885 7.19501 9.724 7.19501Z" fill="#4270B7"/>
<path d="M2.25 7.19501H9.724C6.885 7.19501 4.282 8.73401 2.25 11.296V7.19501Z" fill="#264F8F"/>
<path d="M9.724 42.97H2.25V38.868C4.28 41.432 6.885 42.97 9.724 42.97Z" fill="#264F8F"/>
<path d="M2.37894 11.511C2.43794 11.556 2.50694 11.577 2.57594 11.577C2.67494 11.577 2.77194 11.533 2.83594 11.448C2.86594 11.409 2.89494 11.37 2.92694 11.329C4.89794 8.76701 7.37994 7.35501 9.91694 7.35501H13.0069C8.04294 9.48401 4.38594 16.587 4.38594 24.999C4.38594 33.411 8.04394 40.516 13.0079 42.644H9.91794C7.37894 42.644 4.89694 41.232 2.92094 38.66C2.90594 38.641 2.89094 38.622 2.87694 38.603L2.83794 38.552C2.72694 38.41 2.52194 38.386 2.37994 38.497C2.23794 38.608 2.21394 38.813 2.32494 38.955L2.35594 38.996C2.37594 39.023 2.39594 39.049 2.41094 39.067C3.70094 40.746 5.20694 41.959 6.81494 42.645H2.66894C2.48894 42.645 2.34294 42.791 2.34294 42.971C2.34294 43.151 2.48894 43.297 2.66894 43.297H16.1109C18.5409 43.297 20.8439 42.168 22.8099 40.028V41.504H21.4199C21.2399 41.504 21.0939 41.65 21.0939 41.83V42.971C21.0939 43.151 21.2399 43.297 21.4199 43.297H40.7569C40.7689 43.297 40.7809 43.295 40.7929 43.293C40.8049 43.294 40.8169 43.297 40.8289 43.297H45.2269C45.4069 43.297 45.5529 43.151 45.5529 42.971V41.83C45.5529 41.65 45.4069 41.504 45.2269 41.504H43.6919V33.55H47.4259C47.6059 33.55 47.7519 33.404 47.7519 33.224V30.122C47.7519 29.942 47.6059 29.796 47.4259 29.796H44.7529V26.085C44.7529 25.521 44.7529 24.201 43.4179 24.201C43.1499 24.201 42.9109 24.278 42.7119 24.423C42.5079 24.276 42.2499 24.201 41.9399 24.201C41.5989 24.201 41.2999 24.325 41.0759 24.558C40.7419 24.906 40.6389 25.419 40.6079 25.759H29.3359C29.0849 25.159 28.5129 24.728 27.8359 24.68C27.7829 19.899 26.5639 15.412 24.3979 12.039C22.1889 8.59901 19.2459 6.70401 16.1119 6.70401H2.66894C2.48894 6.70401 2.34294 6.85001 2.34294 7.03001C2.34294 7.21001 2.48894 7.35601 2.66894 7.35601H6.81594C5.20894 8.04101 3.70294 9.25301 2.41294 10.929C2.38094 10.97 2.34894 11.012 2.31594 11.055C2.20694 11.198 2.23494 11.403 2.37894 11.512V11.511ZM40.4299 42.644H21.7449V42.155H40.4299V42.644ZM14.7319 25.332C14.9729 25.568 14.7839 26.077 14.5709 26.478C14.5029 26.606 14.5269 26.763 14.6309 26.864C14.8539 27.082 15.1879 27.13 15.5119 27.176C15.7779 27.214 15.9379 27.248 16.0309 27.293C15.8839 27.365 15.7579 27.471 15.6669 27.605C15.4609 27.904 15.4619 28.306 15.6699 28.583C15.8159 28.777 16.0489 28.9 16.3129 28.922C16.5069 28.936 16.7119 28.897 16.9229 28.806C17.1789 28.695 17.3819 28.517 17.5069 28.307C17.7029 28.508 17.7319 28.856 17.7219 29.223C17.3029 29.533 16.7689 29.71 16.2329 29.71C15.2519 29.71 14.4779 29.285 14.1019 28.545C13.9939 28.145 13.9039 27.724 13.8319 27.29C13.8319 27.289 13.8319 27.288 13.8319 27.286C13.7399 26.404 14.0679 25.705 14.7339 25.331L14.7319 25.332ZM17.3949 27.524C17.2989 27.5 17.1959 27.521 17.1169 27.581C17.0379 27.641 16.9909 27.735 16.9889 27.834C16.9859 27.994 16.8179 28.139 16.6619 28.207C16.5489 28.256 16.4479 28.277 16.3619 28.271C16.2889 28.265 16.2229 28.234 16.1899 28.19C16.1519 28.139 16.1579 28.039 16.2029 27.973C16.2579 27.893 16.3699 27.84 16.4879 27.838C16.6639 27.835 16.8059 27.693 16.8089 27.517C16.8209 26.704 16.0589 26.595 15.6029 26.53C15.5059 26.516 15.3909 26.5 15.2929 26.478C15.5769 25.818 15.5259 25.383 15.3699 25.099C15.5339 25.066 15.7049 25.049 15.8829 25.049H16.0279C16.6139 25.047 17.3459 25.045 17.7539 25.281C18.1829 25.529 18.4959 26.584 18.4959 26.955V28.117C18.4509 28.267 18.3929 28.41 18.3189 28.543C18.2279 28.121 17.9909 27.676 17.3939 27.525L17.3949 27.524ZM18.2549 29.634C18.4299 29.485 18.5829 29.317 18.7149 29.133C18.8319 29.382 18.9909 29.606 19.1849 29.796H18.0429C18.1159 29.745 18.1869 29.691 18.2549 29.634ZM18.0819 24.717C17.5219 24.393 16.6929 24.395 16.0279 24.398H15.8849C15.4509 24.398 15.0459 24.477 14.6789 24.633C14.2519 24.813 13.9079 25.085 13.6549 25.426C13.6509 25.284 13.6469 25.143 13.6469 25C13.6469 22.499 14.3059 20.085 15.4559 18.377C16.4969 16.827 17.8469 15.974 19.2549 15.974C22.2589 15.974 24.7479 19.861 24.8559 24.674H20.7789C19.9699 24.674 19.2589 25.099 18.8539 25.736C18.6799 25.318 18.4259 24.917 18.0819 24.718V24.717ZM19.2549 15.321C17.6219 15.321 16.0809 16.277 14.9149 18.012C13.6769 19.852 12.9949 22.333 12.9949 24.999C12.9949 25.806 13.0579 26.604 13.1829 27.372C13.2599 27.845 13.3589 28.306 13.4769 28.742V28.743V28.746C13.6199 29.272 13.7919 29.777 13.9879 30.246V30.247V30.248C14.5619 31.631 15.3599 32.769 16.2949 33.54C17.1959 34.284 18.2189 34.677 19.2519 34.677C20.2849 34.677 21.2529 34.304 22.1349 33.598C22.1539 33.583 22.1709 33.565 22.1849 33.547H22.8059V34.57C21.6959 36.034 19.8659 37.015 18.2259 37.015C14.0879 37.015 10.7219 31.623 10.7219 24.996C10.7219 18.369 14.0879 12.979 18.2259 12.979C22.3639 12.979 25.6169 18.209 25.7259 24.67H25.5039C25.3929 19.412 22.6689 15.318 19.2509 15.318L19.2549 15.321ZM17.4649 33.55H21.0429C20.4689 33.865 19.8699 34.028 19.2539 34.028C18.6379 34.028 18.0379 33.865 17.4639 33.55H17.4649ZM23.4609 41.504V33.55H38.4819V41.504H23.4609ZM44.8989 42.156V42.645H41.1529V42.156H44.8989ZM43.4159 24.853C43.8689 24.853 44.0989 25.044 44.0989 26.085V29.796H43.2729V26.085C43.2729 25.706 43.2479 25.289 43.1059 24.943C43.1919 24.884 43.2929 24.853 43.4159 24.853ZM42.9469 30.448H47.0979V32.898H41.4799V30.448H42.9469ZM41.5459 25.008C41.6479 24.902 41.7729 24.852 41.9389 24.852C42.2529 24.852 42.3689 24.962 42.4369 25.059C42.6029 25.296 42.6219 25.758 42.6219 26.084V29.795H41.2479V26.084C41.2479 26.084 41.2479 26.079 41.2479 26.077C41.2479 26.075 41.2479 26.073 41.2479 26.071C41.2409 25.869 41.2799 25.285 41.5469 25.007L41.5459 25.008ZM43.0389 33.549V41.503H39.1349V33.549H43.0389ZM40.8289 30.447V32.897H16.5599C16.5599 32.897 16.5559 32.897 16.5539 32.897C15.8679 32.286 15.2659 31.451 14.7909 30.447H40.8279H40.8289ZM29.4719 26.41H40.5959V29.795H29.4719V29.709H31.5489C31.9779 29.709 32.3809 29.542 32.6849 29.238C32.9889 28.932 33.1559 28.529 33.1559 28.104C33.1559 27.218 32.4349 26.497 31.5489 26.497H29.4719V26.411V26.41ZM31.5489 27.148C32.0759 27.148 32.5039 27.576 32.5039 28.103C32.5039 28.355 32.4039 28.595 32.2229 28.777C32.0429 28.957 31.8029 29.056 31.5489 29.056H20.8759C20.3499 29.056 19.9229 28.628 19.9229 28.102C19.9229 27.847 20.0219 27.608 20.2019 27.429C20.3849 27.247 20.6249 27.147 20.8769 27.147H31.5499L31.5489 27.148ZM28.8209 26.437V26.496H20.8769C20.4509 26.496 20.0489 26.663 19.7419 26.968C19.4389 27.271 19.2719 27.674 19.2719 28.103C19.2719 28.988 19.9919 29.708 20.8769 29.708H28.8209V29.794H20.7809C19.8819 29.794 19.1509 29.063 19.1509 28.164V26.953C19.1509 26.054 19.8819 25.323 20.7809 25.323H27.7099C28.3229 25.323 28.8219 25.822 28.8219 26.436L28.8209 26.437ZM27.1849 24.672H26.3839C26.3309 21.408 25.4909 18.348 24.0089 16.04C22.4719 13.647 20.4199 12.329 18.2319 12.329C13.7349 12.329 10.0759 18.012 10.0759 24.998C10.0759 31.984 13.7349 37.669 18.2319 37.669C19.8539 37.669 21.5729 36.866 22.8119 35.574V39.037C22.8119 39.037 22.8089 39.039 22.8079 39.041C20.8659 41.398 18.5509 42.643 16.1129 42.643C10.0069 42.643 5.03894 34.727 5.03894 24.998C5.03894 15.269 10.0049 7.35601 16.1109 7.35601C22.2169 7.35601 27.0729 15.116 27.1829 24.674L27.1849 24.672Z" fill="#564B57"/>
<path d="M36.165 35.696H25.776C25.596 35.696 25.45 35.842 25.45 36.022C25.45 36.202 25.596 36.348 25.776 36.348H36.165C36.345 36.348 36.491 36.202 36.491 36.022C36.491 35.842 36.345 35.696 36.165 35.696Z" fill="#564B57"/>
<path d="M36.165 38.495H25.776C25.596 38.495 25.45 38.641 25.45 38.821C25.45 39.001 25.596 39.147 25.776 39.147H36.165C36.345 39.147 36.491 39.001 36.491 38.821C36.491 38.641 36.345 38.495 36.165 38.495Z" fill="#564B57"/>
<path d="M17.142 12.056C17.993 12.056 18.659 11.133 18.659 9.95502C18.659 8.77702 17.993 7.85202 17.142 7.85202C16.291 7.85202 15.624 8.77602 15.624 9.95502C15.624 11.134 16.291 12.056 17.142 12.056ZM17.142 8.50402C17.611 8.50402 18.007 9.16802 18.007 9.95502C18.007 10.742 17.611 11.404 17.142 11.404C16.673 11.404 16.276 10.74 16.276 9.95502C16.276 9.17002 16.672 8.50402 17.142 8.50402Z" fill="#564B57"/>
</svg>
