<svg width="34" height="34" viewBox="0 0 34 34" fill="none" xmlns="http://www.w3.org/2000/svg">
<g clip-path="url(#clip0_561_14245)">
<path fill-rule="evenodd" clip-rule="evenodd" d="M17.495 10.7723H16.5101C15.6399 10.7723 14.937 10.0647 14.937 9.19928V8.02307C14.937 7.80313 15.1139 7.62622 15.3339 7.62622C15.5538 7.62622 15.7307 7.80313 15.7307 8.02307V9.19928C15.7307 9.62481 16.0797 9.97385 16.5101 9.97385H17.495C17.9253 9.97385 18.2744 9.62481 18.2744 9.19928V8.02307C18.2744 7.80313 18.4513 7.62622 18.6712 7.62622C18.8912 7.62622 19.0729 7.80313 19.0729 8.02307V9.19928C19.0729 10.0647 18.3652 10.7723 17.495 10.7723Z" fill="#008D5C"/>
<path fill-rule="evenodd" clip-rule="evenodd" d="M17.495 14.5352H16.5101C15.6399 14.5352 14.937 13.8324 14.937 12.9622V11.7859C14.937 11.566 15.1139 11.3891 15.3339 11.3891C15.5538 11.3891 15.7307 11.566 15.7307 11.7859V12.9622C15.7307 13.3925 16.0797 13.7415 16.5101 13.7415H17.495C17.9253 13.7415 18.2744 13.3925 18.2744 12.9622V11.7859C18.2744 11.566 18.4513 11.3891 18.6712 11.3891C18.8912 11.3891 19.0729 11.566 19.0729 11.7859V12.9622C19.0729 13.8324 18.3652 14.5352 17.495 14.5352Z" fill="#008D5C"/>
<path fill-rule="evenodd" clip-rule="evenodd" d="M17.495 18.1451H16.5101C15.6399 18.1451 14.937 17.4423 14.937 16.5721V15.4007C14.937 15.1807 15.1139 14.999 15.3339 14.999C15.5538 14.999 15.7307 15.1807 15.7307 15.4007V16.5721C15.7307 17.0024 16.0797 17.3514 16.5101 17.3514H17.495C17.9253 17.3514 18.2744 17.0024 18.2744 16.5721V15.4007C18.2744 15.1807 18.4513 14.999 18.6712 14.999C18.8912 14.999 19.0729 15.1807 19.0729 15.4007V16.5721C19.0729 17.4423 18.3652 18.1451 17.495 18.1451Z" fill="#008D5C"/>
<path fill-rule="evenodd" clip-rule="evenodd" d="M17.495 21.8268H16.5101C15.6399 21.8268 14.937 21.1191 14.937 20.2537V19.0775C14.937 18.8576 15.1139 18.6807 15.3339 18.6807C15.5538 18.6807 15.7307 18.8576 15.7307 19.0775V20.2537C15.7307 20.6793 16.0797 21.0283 16.5101 21.0283H17.495C17.9253 21.0283 18.2744 20.6793 18.2744 20.2537V19.0775C18.2744 18.8576 18.4513 18.6807 18.6712 18.6807C18.8912 18.6807 19.0729 18.8576 19.0729 19.0775V20.2537C19.0729 21.1191 18.3652 21.8268 17.495 21.8268Z" fill="#008D5C"/>
<path fill-rule="evenodd" clip-rule="evenodd" d="M17.495 25.5036H16.5101C15.6399 25.5036 14.937 24.8007 14.937 23.9305V22.7543C14.937 22.5344 15.1139 22.3575 15.3339 22.3575C15.5538 22.3575 15.7307 22.5344 15.7307 22.7543V23.9305C15.7307 24.3609 16.0797 24.7099 16.5101 24.7099H17.495C17.9253 24.7099 18.2744 24.3609 18.2744 23.9305V22.7543C18.2744 22.5344 18.4513 22.3575 18.6712 22.3575C18.8912 22.3575 19.0729 22.5344 19.0729 22.7543V23.9305C19.0729 24.8007 18.3652 25.5036 17.495 25.5036Z" fill="#008D5C"/>
<path fill-rule="evenodd" clip-rule="evenodd" d="M7.8416 28.621C7.81291 28.621 7.77944 28.621 7.75075 28.6114C7.53559 28.5636 7.40172 28.3485 7.45431 28.1333C7.47822 28.0138 8.16673 25.145 9.82585 24.5521C10.5144 24.3035 11.2459 24.4708 12.0014 25.0446C16.534 28.5158 17.4712 28.5158 22.0087 25.0446C22.7593 24.4708 23.4909 24.3035 24.1842 24.5521C25.8433 25.145 26.527 28.0138 26.5557 28.1333C26.6035 28.3485 26.4696 28.5636 26.2593 28.6114C26.0441 28.664 25.8289 28.5301 25.7763 28.315C25.6138 27.6026 24.954 25.6709 23.9116 25.3027C23.4861 25.1497 23.0223 25.2741 22.4916 25.6805C20.0866 27.5165 18.5805 28.4536 17.0026 28.4536C15.4296 28.4536 13.9187 27.5165 11.5137 25.6805C10.9829 25.2741 10.5191 25.1497 10.0936 25.3027C9.05127 25.6757 8.39623 27.6026 8.22889 28.315C8.18585 28.4967 8.02329 28.621 7.8416 28.621Z" fill="#008D5C"/>
<path fill-rule="evenodd" clip-rule="evenodd" d="M10.3705 11.6138C9.87805 11.6138 9.37123 11.5038 8.86919 11.2791C8.07071 10.9253 7.87467 10.4041 7.84599 10.0312C7.79339 9.26619 8.38628 8.36252 9.65333 7.27716C10.5379 6.52649 11.4129 5.97186 11.4511 5.94795C11.6376 5.8332 11.8814 5.88579 12.001 6.07227C12.1157 6.25874 12.0631 6.50737 11.8766 6.62212C10.5905 7.43016 8.57753 9.05581 8.63969 9.97861C8.64925 10.0599 8.66837 10.3181 9.19432 10.5524C10.8773 11.303 12.197 10.3468 12.8664 9.20403C12.9763 9.01278 13.2202 8.95062 13.4114 9.06059C13.6027 9.17056 13.6649 9.41441 13.5549 9.60566C12.7899 10.9062 11.628 11.6138 10.3705 11.6138Z" fill="#008D5C"/>
<path fill-rule="evenodd" clip-rule="evenodd" d="M8.86451 15.415C8.44376 15.415 8.08038 15.3194 7.77437 15.1233C6.52645 14.3344 6.86114 12.3024 6.87548 12.2163C6.91373 12.0011 7.11933 11.8577 7.33927 11.8959C7.55443 11.9342 7.69787 12.1398 7.6644 12.355C7.5879 12.7948 7.53531 14.0332 8.19991 14.4492C8.6637 14.7408 9.92119 14.8938 13.139 12.6179C13.3159 12.4888 13.5646 12.5319 13.6937 12.7088C13.818 12.8905 13.7749 13.1391 13.598 13.2682C11.5707 14.7026 10.0072 15.415 8.86451 15.415Z" fill="#008D5C"/>
<path fill-rule="evenodd" clip-rule="evenodd" d="M8.04713 18.6041C7.34428 18.6041 6.82789 18.432 6.49798 18.0877C5.67559 17.2271 6.38323 15.7688 6.41192 15.7066C6.51232 15.5106 6.75139 15.4293 6.94743 15.5297C7.14346 15.6253 7.22474 15.8644 7.12912 16.0604C7.11955 16.0796 6.64142 17.0884 7.07174 17.5379C7.37296 17.8439 8.57786 18.3316 13.3401 16.2087C13.5409 16.1178 13.7752 16.2087 13.866 16.4095C13.9568 16.6103 13.866 16.8446 13.6652 16.9354C11.1646 18.0495 9.30462 18.6041 8.04713 18.6041Z" fill="#008D5C"/>
<path fill-rule="evenodd" clip-rule="evenodd" d="M7.40153 22.5392C7.05727 22.5392 6.76083 22.4627 6.5122 22.3144C5.49378 21.6976 5.78066 20.1581 5.795 20.0959C5.83803 19.876 6.04363 19.7373 6.26357 19.7803C6.47873 19.8234 6.61739 20.029 6.57914 20.2441C6.57436 20.2585 6.39267 21.3104 6.92339 21.6307C7.32502 21.8746 8.72595 22.0467 13.1487 18.5181C13.3208 18.3794 13.5694 18.4081 13.7081 18.5802C13.8468 18.7523 13.8181 19.001 13.6459 19.1396C10.7915 21.4155 8.73551 22.5392 7.40153 22.5392Z" fill="#008D5C"/>
<path fill-rule="evenodd" clip-rule="evenodd" d="M23.634 11.6138C22.3765 11.6138 21.2147 10.9062 20.4544 9.60566C20.3397 9.41441 20.4066 9.17056 20.5931 9.06059C20.7844 8.95062 21.0282 9.01278 21.1382 9.20403C21.8123 10.3468 23.1272 11.303 24.8102 10.5524C25.341 10.3181 25.3601 10.0599 25.3649 9.97861C25.427 9.10363 23.5097 7.49232 22.1327 6.62212C21.9462 6.50737 21.8888 6.25874 22.0036 6.07227C22.1231 5.88579 22.367 5.8332 22.5534 5.94795C22.5917 5.97186 23.4715 6.52649 24.3512 7.27716C25.6231 8.3673 26.2112 9.26619 26.1586 10.0312C26.1347 10.4041 25.9338 10.9253 25.1354 11.2791C24.6333 11.5038 24.1265 11.6138 23.634 11.6138Z" fill="#008D5C"/>
<path fill-rule="evenodd" clip-rule="evenodd" d="M25.1403 15.415C24.0024 15.415 22.4389 14.7026 20.4068 13.2682C20.2299 13.1391 20.1869 12.8905 20.316 12.7088C20.4403 12.5319 20.6889 12.4888 20.8706 12.6179C24.0837 14.8938 25.3412 14.7408 25.8049 14.4492C26.4695 14.0332 26.4217 12.7948 26.3452 12.355C26.307 12.1398 26.4504 11.9294 26.6704 11.8959C26.8855 11.8577 27.0911 12.0011 27.1294 12.2163C27.1437 12.3024 27.4832 14.3344 26.2353 15.1233C25.9245 15.3194 25.5611 15.415 25.1403 15.415Z" fill="#008D5C"/>
<path fill-rule="evenodd" clip-rule="evenodd" d="M25.9577 18.6041C24.7002 18.6041 22.8402 18.0495 20.3396 16.9354C20.1388 16.8446 20.048 16.6103 20.1388 16.4095C20.2296 16.2087 20.4639 16.1178 20.6647 16.2087C25.4317 18.3364 26.6366 17.8439 26.9331 17.5331C27.2964 17.1554 27.0096 16.3234 26.8805 16.0604C26.7801 15.8644 26.8613 15.6253 27.0574 15.5297C27.2582 15.4293 27.4973 15.5106 27.5929 15.7066C27.6216 15.7688 28.334 17.2271 27.5116 18.0877C27.1769 18.432 26.6605 18.6041 25.9577 18.6041Z" fill="#008D5C"/>
<path fill-rule="evenodd" clip-rule="evenodd" d="M26.6035 22.5392C25.2743 22.5392 23.2136 21.4155 20.3639 19.1396C20.1918 19.001 20.1631 18.7523 20.297 18.5802C20.4356 18.4081 20.689 18.3794 20.8612 18.5181C25.2839 22.0467 26.6848 21.8698 27.0817 21.6307C27.6172 21.3104 27.4307 20.2537 27.4307 20.2441C27.3877 20.029 27.5311 19.8186 27.7463 19.7803C27.9614 19.7373 28.1718 19.876 28.2101 20.0911C28.2244 20.1581 28.5113 21.6976 27.4976 22.3144C27.249 22.4627 26.9478 22.5392 26.6035 22.5392Z" fill="#008D5C"/>
<path fill-rule="evenodd" clip-rule="evenodd" d="M28.8507 31.5759H22.6924C22.4724 31.5759 22.2955 31.399 22.2955 31.179C22.2955 30.9591 22.4724 30.7822 22.6924 30.7822H28.8507C29.9169 30.7822 30.7824 29.9167 30.7824 28.8505V21.7263C30.7824 21.5064 30.9593 21.3295 31.1792 21.3295C31.3991 21.3295 31.5761 21.5064 31.5761 21.7263V28.8505C31.5761 30.3566 30.3568 31.5759 28.8507 31.5759ZM11.308 31.5759H5.14967C3.64355 31.5759 2.42432 30.3566 2.42432 28.8505V21.7263C2.42432 21.5064 2.60123 21.3295 2.82117 21.3295C3.04111 21.3295 3.21802 21.5064 3.21802 21.7263V28.8505C3.21802 29.9167 4.08344 30.7822 5.14967 30.7822H11.308C11.528 30.7822 11.7049 30.9591 11.7049 31.179C11.7049 31.399 11.528 31.5759 11.308 31.5759ZM31.1792 10.7389C30.9593 10.7389 30.7824 10.5619 30.7824 10.342V5.14949C30.7824 4.08325 29.9169 3.21783 28.8507 3.21783H22.6924C22.4724 3.21783 22.2955 3.04092 22.2955 2.82098C22.2955 2.60104 22.4724 2.42413 22.6924 2.42413H28.8507C30.3568 2.42413 31.5761 3.64337 31.5761 5.14949V10.342C31.5761 10.5619 31.3991 10.7389 31.1792 10.7389ZM2.82117 10.7389C2.60123 10.7389 2.42432 10.5619 2.42432 10.342V5.14949C2.42432 3.64337 3.64355 2.42413 5.14967 2.42413H11.308C11.528 2.42413 11.7049 2.60104 11.7049 2.82098C11.7049 3.04092 11.528 3.21783 11.308 3.21783H5.14967C4.08344 3.21783 3.21802 4.08325 3.21802 5.14949V10.342C3.21802 10.5619 3.04111 10.7389 2.82117 10.7389Z" fill="#008D5C"/>
<path fill-rule="evenodd" clip-rule="evenodd" d="M30.8778 34H3.12699C1.40093 34 0 32.5991 0 30.8778V3.12699C0 1.40093 1.40093 0 3.12699 0H30.8778C32.5991 0 34 1.40093 34 3.12699V30.8778C34 32.5991 32.5991 34 30.8778 34ZM3.12699 0.798481C1.84081 0.798481 0.798481 1.84081 0.798481 3.12699V30.8778C0.798481 32.1592 1.84081 33.2015 3.12699 33.2015H30.8778C32.1592 33.2015 33.2015 32.1592 33.2015 30.8778V3.12699C33.2015 1.84081 32.1592 0.798481 30.8778 0.798481H3.12699Z" fill="#008D5C"/>
</g>
<defs>
<clipPath id="clip0_561_14245">
<rect width="34" height="34" fill="white"/>
</clipPath>
</defs>
</svg>
