<svg width="46" height="46" viewBox="0 0 46 46" fill="none" xmlns="http://www.w3.org/2000/svg">
<path d="M41.0844 23.9053H31.3223V25.1832L31.325 26.461H41.0835C41.6079 26.461 42.0384 26.0323 42.0384 25.5061V24.8612C42.0384 24.3368 41.6079 23.9062 41.0835 23.9062L41.0844 23.9053Z" fill="white"/>
<path d="M40.2134 26.461V27.4638H31.3262V26.461H40.2134Z" fill="#8B9194"/>
<path d="M31.3262 27.4638V41.5168H40.2134V27.4638H31.3262ZM38.4102 35.9048H33.1294V32.9461H38.4102V35.9048ZM38.4102 31.5394H33.1294V28.5826H38.4102V31.5394Z" fill="white"/>
<path d="M32.0665 12.5874H13.9379C13.4135 12.5874 12.9839 13.0162 12.9839 13.5415V14.1873C12.9839 14.7117 13.4126 15.1414 13.9379 15.1414H32.0665C32.5909 15.1414 33.0215 14.7126 33.0215 14.1873V13.5415C33.0215 13.0171 32.5909 12.5874 32.0665 12.5874Z" fill="white"/>
<path d="M31.323 15.1414V16.1635H29.5898H14.6812V15.1414H31.323Z" fill="#8B9194"/>
<path d="M26.2026 4.48224H18.9512V12.5838H27.0545V4.48224H26.2026Z" fill="white"/>
<path d="M29.5898 16.1635H14.6812V41.5168H31.323V16.1635H29.5898Z" fill="white"/>
<path d="M14.6269 23.9053H4.91541C4.39101 23.9053 3.96045 24.3358 3.96045 24.8602V25.5052C3.96045 26.0314 4.39101 26.4601 4.91541 26.4601H14.6757L14.6821 25.1822V23.9044H14.6278L14.6269 23.9053Z" fill="white"/>
<path d="M14.6757 26.461V27.4638H5.7876V26.461H14.6748H14.6757Z" fill="#8B9194"/>
<path d="M14.627 27.4638H5.7876V41.5168H14.6748V27.4638H14.627Z" fill="white"/>
<path d="M14.627 27.4638H12.9838V32.9461L12.9792 35.9858C12.6149 37.3262 11.4198 38.4551 10.1015 38.8948C9.30568 39.1589 8.45192 39.181 7.6138 39.2021C7.0066 39.2159 6.39664 39.2306 5.7876 39.2454V41.5168H14.6748V27.4638H14.627Z" fill="#F2EDED"/>
<path d="M7.59375 28.5826V31.5394H9.09335H12.8746V28.5826H11.5249H7.59375Z" fill="#0ABF7C"/>
<path d="M7.59375 32.9461V35.9048H9.09335H12.8525H12.8746V32.9461H11.5249H7.59375Z" fill="#0ABF7C"/>
<path d="M12.8745 32.9461V35.9048H12.8524H9.09326L11.5248 32.9461H12.8745Z" fill="#008D5C"/>
<path d="M12.8745 28.5826V31.5394H9.09326L11.5248 28.5826H12.8745Z" fill="#008D5C"/>
<path d="M14.6757 26.461H4.91541C4.39101 26.461 3.96045 26.0323 3.96045 25.5061V25.1841H14.6821L14.6757 26.462V26.461Z" fill="#F2EDED"/>
<path d="M42.0404 25.1832V25.5052C42.0404 26.0314 41.6098 26.4601 41.0854 26.4601H31.327L31.3242 25.1823H42.0413L42.0404 25.1832Z" fill="#F2EDED"/>
<path d="M38.3329 27.4638V36.6224C37.8453 37.6749 36.9189 38.5268 35.8139 38.8939C35.0191 39.158 34.1662 39.18 33.3281 39.2012C32.7135 39.215 32.0981 39.2297 31.4853 39.2444H31.3262V41.5159H40.2134V27.4629H38.3329V27.4638Z" fill="#F2EDED"/>
<path d="M33.1284 32.9461V35.9048H34.778H38.3329V32.9461H37.0605H33.1284Z" fill="#0ABF7C"/>
<path d="M37.0605 28.5826H33.1284V31.5394H34.778H38.3329V28.5826H37.0605Z" fill="#0ABF7C"/>
<path d="M38.3327 32.9461V35.9048H34.7778L37.0604 32.9461H38.3327Z" fill="#008D5C"/>
<path d="M38.3327 28.5826V31.5394H34.7778L37.0604 28.5826H38.3327Z" fill="#008D5C"/>
<path d="M27.0536 4.48224V12.5838H18.9502V10.948C20.0211 10.9793 21.1067 10.9885 22.1546 10.8008V10.8266L23.8492 10.2718C24.3276 10.0409 24.7756 9.7428 25.1565 9.38124L25.2945 9.24508C25.6901 8.83844 25.9992 8.35912 26.1777 7.81724C26.4519 6.98832 26.3994 6.09132 26.3461 5.21824C26.3323 5.0094 26.3157 4.79044 26.2026 4.61564V4.48224H27.0545H27.0536Z" fill="#F2EDED"/>
<path d="M23.8499 7.68568V6.24036H22.1553V7.68568H20.71V9.38124H22.1553V10.8017V10.8275H23.8499V9.38124H25.2952V7.68568H23.8499Z" fill="#FF4B72"/>
<path d="M33.0215 13.7374V14.1873C33.0215 14.7117 32.5909 15.1413 32.0665 15.1413H13.9379C13.4135 15.1413 12.9839 14.7126 12.9839 14.1873V13.7374H33.0215Z" fill="#F2EDED"/>
<path d="M26.0718 17.6272H28.8401V20.965H26.0718V17.6272Z" fill="#0ABF7C"/>
<path d="M26.0718 22.7709H28.8401V26.1087H26.0718V22.7709Z" fill="#0ABF7C"/>
<path d="M26.0718 27.9137H28.8401V31.2515H26.0718V27.9137Z" fill="#0ABF7C"/>
<path d="M24.3802 27.9137H21.6128V30.6535V31.2515H24.3802V27.9137Z" fill="#0ABF7C"/>
<path d="M21.6128 22.7709H24.3811V26.1087H21.6128V22.7709Z" fill="#0ABF7C"/>
<path d="M21.6128 17.6272H24.3811V20.965H21.6128V17.6272Z" fill="#0ABF7C"/>
<path d="M17.1523 27.9137H19.9206V31.2515H17.1523V27.9137Z" fill="#0ABF7C"/>
<path d="M17.1523 22.7709H19.9206V26.1087H17.1523V22.7709Z" fill="#0ABF7C"/>
<path d="M17.1523 17.6272H19.9206V20.965H17.1523V17.6272Z" fill="#0ABF7C"/>
<path d="M28.8401 27.9137V31.2515H26.0718L28.8401 27.9137Z" fill="#008D5C"/>
<path d="M28.8401 22.7709V26.1087H26.0718L28.8401 22.7709Z" fill="#008D5C"/>
<path d="M28.8401 17.6272V20.965H26.0718L28.8401 17.6272Z" fill="#008D5C"/>
<path d="M24.3802 27.9137V31.2515H21.6128L24.3802 27.9137Z" fill="#008D5C"/>
<path d="M24.3802 22.7709V26.1087H21.6128L24.3802 22.7709Z" fill="#008D5C"/>
<path d="M24.3802 17.6272V20.965H21.6128L24.3802 17.6272Z" fill="#008D5C"/>
<path d="M19.9206 27.9137V31.2515H17.1523L19.9206 27.9137Z" fill="#008D5C"/>
<path d="M19.9206 22.7709V26.1087H17.1523L19.9206 22.7709Z" fill="#008D5C"/>
<path d="M19.9206 17.6272V20.965H17.1523L19.9206 17.6272Z" fill="#008D5C"/>
<path d="M28.1273 34.0676V34.8938H27.4364H22.9771H18.5161H17.8242V34.0676H28.1273Z" fill="#C7C2C2"/>
<path d="M29.0175 16.2067V33.8109C28.771 34.3537 28.5143 34.8846 28.1426 35.3519C26.379 37.5673 23.5923 38.7375 20.8166 39.2987C18.8018 39.7054 16.7318 39.836 14.6812 39.6888V41.561H31.323V16.2067H29.0184H29.0175Z" fill="#F2EDED"/>
<path d="M22.9772 34.8938H18.5161V38.2481V40.3181V41.5168H22.9772H27.4364V34.8938H22.9772Z" fill="#0ABF7C"/>
<path d="M22.9772 40.3181V34.8938L18.5161 40.3181V41.5168H22.9772H27.4364V34.8938L22.9772 40.3181Z" fill="#008D5C"/>
<path d="M25.2944 7.38575H24.149V6.24035C24.149 6.07475 24.0147 5.94043 23.8491 5.94043H22.1544C21.9888 5.94043 21.8545 6.07475 21.8545 6.24035V7.38575H20.7091C20.5435 7.38575 20.4092 7.52007 20.4092 7.68567V9.38123C20.4092 9.54683 20.5435 9.68115 20.7091 9.68115H21.8545V10.8265C21.8545 10.9921 21.9888 11.1265 22.1544 11.1265H23.8491C24.0147 11.1265 24.149 10.9921 24.149 10.8265V9.68115H25.2944C25.46 9.68115 25.5943 9.54683 25.5943 9.38123V7.68567C25.5943 7.52007 25.46 7.38575 25.2944 7.38575ZM24.9945 9.08131H23.8491C23.6835 9.08131 23.5491 9.21563 23.5491 9.38123V10.5266H22.4543V9.38123C22.4543 9.21563 22.32 9.08131 22.1544 9.08131H21.009V7.98559H22.1544C22.32 7.98559 22.4543 7.85127 22.4543 7.68567V6.54027H23.5491V7.68567C23.5491 7.85127 23.6835 7.98559 23.8491 7.98559H24.9945V9.08131Z" fill="#564B57"/>
<path d="M33.128 36.2047H38.4088C38.5744 36.2047 38.7088 36.0704 38.7088 35.9048V32.9461C38.7088 32.7805 38.5744 32.6462 38.4088 32.6462H33.128C32.9624 32.6462 32.8281 32.7805 32.8281 32.9461V35.9048C32.8281 36.0704 32.9624 36.2047 33.128 36.2047ZM33.428 33.246H38.1089V35.6049H33.428V33.246Z" fill="#564B57"/>
<path d="M33.128 31.8393H38.4088C38.5744 31.8393 38.7088 31.705 38.7088 31.5394V28.5825C38.7088 28.4169 38.5744 28.2826 38.4088 28.2826H33.128C32.9624 28.2826 32.8281 28.4169 32.8281 28.5825V31.5394C32.8281 31.705 32.9624 31.8393 33.128 31.8393ZM33.428 28.8825H38.1089V31.2395H33.428V28.8825Z" fill="#564B57"/>
<path d="M7.59387 36.2047H12.8756C13.0412 36.2047 13.1755 36.0704 13.1755 35.9048V32.9461C13.1755 32.7805 13.0412 32.6462 12.8756 32.6462H7.59387C7.42827 32.6462 7.29395 32.7805 7.29395 32.9461V35.9048C7.29395 36.0704 7.42827 36.2047 7.59387 36.2047ZM7.89379 33.246H12.5757V35.6049H7.89379V33.246Z" fill="#564B57"/>
<path d="M7.59387 31.8393H12.8756C13.0412 31.8393 13.1755 31.705 13.1755 31.5394V28.5825C13.1755 28.4169 13.0412 28.2826 12.8756 28.2826H7.59387C7.42827 28.2826 7.29395 28.4169 7.29395 28.5825V31.5394C7.29395 31.705 7.42827 31.8393 7.59387 31.8393ZM7.89379 28.8825H12.5757V31.2395H7.89379V28.8825Z" fill="#564B57"/>
<path d="M26.0719 21.2649H28.8402C29.0058 21.2649 29.1401 21.1306 29.1401 20.965V17.6272C29.1401 17.4616 29.0058 17.3273 28.8402 17.3273H26.0719C25.9063 17.3273 25.772 17.4616 25.772 17.6272V20.965C25.772 21.1306 25.9063 21.2649 26.0719 21.2649ZM26.3718 17.9271H28.5403V20.665H26.3718V17.9271Z" fill="#564B57"/>
<path d="M21.6114 21.2649H24.3797C24.5453 21.2649 24.6796 21.1306 24.6796 20.965V17.6272C24.6796 17.4616 24.5453 17.3273 24.3797 17.3273H21.6114C21.4458 17.3273 21.3115 17.4616 21.3115 17.6272V20.965C21.3115 21.1306 21.4458 21.2649 21.6114 21.2649ZM21.9114 17.9271H24.0798V20.665H21.9114V17.9271Z" fill="#564B57"/>
<path d="M17.1525 21.2649H19.9207C20.0863 21.2649 20.2207 21.1306 20.2207 20.965V17.6272C20.2207 17.4616 20.0863 17.3273 19.9207 17.3273H17.1525C16.9869 17.3273 16.8525 17.4616 16.8525 17.6272V20.965C16.8525 21.1306 16.9869 21.2649 17.1525 21.2649ZM17.4524 17.9271H19.6208V20.665H17.4524V17.9271Z" fill="#564B57"/>
<path d="M26.0719 31.5514H28.8402C29.0058 31.5514 29.1401 31.4171 29.1401 31.2515V27.9137C29.1401 27.7481 29.0058 27.6138 28.8402 27.6138H26.0719C25.9063 27.6138 25.772 27.7481 25.772 27.9137V31.2515C25.772 31.4171 25.9063 31.5514 26.0719 31.5514ZM26.3718 28.2136H28.5403V30.9516H26.3718V28.2136Z" fill="#564B57"/>
<path d="M21.6114 31.5514H24.3797C24.5453 31.5514 24.6796 31.4171 24.6796 31.2515V27.9137C24.6796 27.7481 24.5453 27.6138 24.3797 27.6138H21.6114C21.4458 27.6138 21.3115 27.7481 21.3115 27.9137V31.2515C21.3115 31.4171 21.4458 31.5514 21.6114 31.5514ZM21.9114 28.2136H24.0798V30.9516H21.9114V28.2136Z" fill="#564B57"/>
<path d="M17.1525 31.5514H19.9207C20.0863 31.5514 20.2207 31.4171 20.2207 31.2515V27.9137C20.2207 27.7481 20.0863 27.6138 19.9207 27.6138H17.1525C16.9869 27.6138 16.8525 27.7481 16.8525 27.9137V31.2515C16.8525 31.4171 16.9869 31.5514 17.1525 31.5514ZM17.4524 28.2136H19.6208V30.9516H17.4524V28.2136Z" fill="#564B57"/>
<path d="M26.0719 26.4086H28.8402C29.0058 26.4086 29.1401 26.2743 29.1401 26.1087V22.7709C29.1401 22.6053 29.0058 22.471 28.8402 22.471H26.0719C25.9063 22.471 25.772 22.6053 25.772 22.7709V26.1087C25.772 26.2743 25.9063 26.4086 26.0719 26.4086ZM26.3718 23.0708H28.5403V25.8088H26.3718V23.0708Z" fill="#564B57"/>
<path d="M21.6114 26.4086H24.3797C24.5453 26.4086 24.6796 26.2743 24.6796 26.1087V22.7709C24.6796 22.6053 24.5453 22.471 24.3797 22.471H21.6114C21.4458 22.471 21.3115 22.6053 21.3115 22.7709V26.1087C21.3115 26.2743 21.4458 26.4086 21.6114 26.4086ZM21.9114 23.0708H24.0798V25.8088H21.9114V23.0708Z" fill="#564B57"/>
<path d="M17.1525 26.4086H19.9207C20.0863 26.4086 20.2207 26.2743 20.2207 26.1087V22.7709C20.2207 22.6053 20.0863 22.471 19.9207 22.471H17.1525C16.9869 22.471 16.8525 22.6053 16.8525 22.7709V26.1087C16.8525 26.2743 16.9869 26.4086 17.1525 26.4086ZM17.4524 23.0708H19.6208V25.8088H17.4524V23.0708Z" fill="#564B57"/>
<path d="M42.3402 25.5061V24.8612C42.3402 24.1693 41.7772 23.6063 41.0853 23.6063H31.6231V15.4413H32.0666C32.7584 15.4413 33.3214 14.8792 33.3214 14.1873V13.5415C33.3214 12.8506 32.7584 12.2875 32.0666 12.2875H27.3534V4.48223C27.3534 4.31663 27.2191 4.18231 27.0535 4.18231H18.9501C18.7845 4.18231 18.6502 4.31663 18.6502 4.48223V12.2875H13.937C13.2461 12.2875 12.6831 12.8496 12.6831 13.5415V14.1873C12.6831 14.8782 13.2452 15.4413 13.937 15.4413H14.3805V23.6063H4.91552C4.22368 23.6063 3.66064 24.1693 3.66064 24.8612V25.5061C3.66064 26.1979 4.22368 26.761 4.91552 26.761H5.48868V41.5178C5.48868 41.6834 5.623 41.8177 5.7886 41.8177H14.6758C14.6758 41.8177 14.6776 41.8177 14.6786 41.8177H14.6813H31.3232C31.3232 41.8177 31.3241 41.8177 31.325 41.8177C31.326 41.8177 31.326 41.8177 31.3269 41.8177H40.2141C40.3797 41.8177 40.514 41.6834 40.514 41.5178V26.761H41.0853C41.7772 26.761 42.3402 26.1979 42.3402 25.5061ZM14.3759 41.2178H6.0876V26.761H14.375V41.2178H14.3759ZM14.3823 26.1611H4.91552C4.55396 26.1611 4.26048 25.8667 4.26048 25.5061V24.8612C4.26048 24.4996 4.55488 24.2061 4.91552 24.2061H14.3814V26.1611H14.3823ZM19.25 4.78215H26.7536V12.2838H19.25V4.78215ZM22.6761 41.2169H18.8149V35.1937H22.6761V41.2169ZM27.1354 41.2169H23.276V35.1937H27.1354V41.2169ZM18.515 34.5938H18.124V34.3675H27.8272V34.5938H18.515ZM31.0224 41.2169H27.7352V35.1937H28.1262C28.2918 35.1937 28.4261 35.0594 28.4261 34.8938V34.0676C28.4261 33.902 28.2918 33.7677 28.1262 33.7677H17.8231C17.6575 33.7677 17.5232 33.902 17.5232 34.0676V34.8938C17.5232 35.0594 17.6575 35.1937 17.8231 35.1937H18.2141V41.2169H14.9794V15.4413H31.0214V41.2178L31.0224 41.2169ZM31.3223 14.8405H13.938C13.5773 14.8405 13.2838 14.547 13.2838 14.1864V13.5406C13.2838 13.1799 13.5773 12.8864 13.938 12.8864H32.0666C32.4281 12.8864 32.7216 13.1799 32.7216 13.5406V14.1864C32.7216 14.547 32.4272 14.8405 32.0666 14.8405H31.3232H31.3223ZM39.9132 41.2169H31.6259V26.76H39.9132V41.2169ZM41.7394 25.5052C41.7394 25.8667 41.445 26.1602 41.0844 26.1602H31.6222V24.2052H41.0844C41.446 24.2052 41.7394 24.4996 41.7394 24.8602V25.5052Z" fill="#564B57"/>
</svg>
