<svg width="46" height="46" viewBox="0 0 46 46" fill="none" xmlns="http://www.w3.org/2000/svg">
<path d="M31.9067 41.2491C31.9306 41.2491 31.9536 41.2473 31.9776 41.2427L35.5656 40.6309C35.7956 40.5913 35.9492 40.3742 35.9106 40.1442C35.871 39.9151 35.6539 39.7596 35.4239 39.7992L32.2784 40.3356C32.1588 39.3263 31.7356 36.4053 30.8644 33.8459C30.2838 32.1402 29.4844 31.0417 28.4871 30.579C27.6076 30.1714 26.9157 30.4216 26.8394 30.4511C26.6222 30.5357 26.5164 30.7804 26.6011 30.9976C26.6857 31.2128 26.9277 31.3196 27.143 31.2377C27.1696 31.2285 27.5956 31.0859 28.1568 31.3554C28.6858 31.6103 29.4457 32.2966 30.0658 34.1173C31.1321 37.2508 31.4835 40.8314 31.4863 40.8627C31.4964 40.9796 31.5553 41.0872 31.6491 41.1599C31.7236 41.2169 31.8138 41.2473 31.9067 41.2473V41.2491Z" fill="#564B57"/>
<path d="M32.152 38.3953C32.1584 38.3934 32.1667 38.3907 32.1732 38.3879C32.3056 38.3447 33.0895 38.0825 33.8448 37.7228C34.4069 37.409 34.7988 37.0567 35.004 36.8488C35.4971 37.2618 36.4263 37.1496 36.9857 37.0024C37.3794 36.8984 38.4485 36.7522 38.8367 37.3327C38.8919 37.4146 38.7723 37.6234 38.5497 37.8792C38.5359 37.8976 38.5202 37.9141 38.5046 37.9325C38.1182 38.364 37.4733 38.904 36.9056 39.169C36.8688 39.1911 36.8302 39.2122 36.7916 39.2343C36.7824 39.2389 36.7741 39.2444 36.7649 39.249C36.5864 39.3456 36.3932 39.4349 36.1908 39.5168C36.12 39.5453 36.0491 39.5738 35.9764 39.6005C35.7556 39.6824 35.5256 39.756 35.2956 39.8222L35.2846 39.825C33.9975 40.192 32.6773 40.3144 32.532 40.2371C32.5126 40.227 32.4942 40.2132 32.4768 40.1976C32.3581 40.1046 32.2909 39.9464 32.2532 39.7569C32.1106 39.2021 32.152 38.3944 32.152 38.3944V38.3953Z" fill="#D99243"/>
<path d="M12.4928 5.65064C12.5406 5.52736 12.5857 5.40776 12.6317 5.29092C12.904 4.59632 13.1864 4.025 13.8626 3.51624C14.7652 2.83728 17.0293 2.48216 18.2253 2.4932C19.5335 2.50608 21.0626 2.86396 21.9623 4.26972C22.1252 4.52456 22.1868 4.7702 22.1675 4.98916C22.1242 5.49516 21.6514 5.85488 21.0294 5.83096L20.9687 5.85212C20.8408 5.50252 20.5952 5.32496 20.2944 5.2578C19.3458 5.04252 17.8619 5.92296 17.8545 5.92296C17.8545 5.92296 16.9704 6.60744 17.2841 7.61116C17.2464 7.55596 16.4534 6.42068 15.491 7.08032C14.8084 7.5486 14.9188 9.10524 16.0771 9.4484V11.684C15.537 11.7236 14.2334 11.2718 13.4698 10.5496C12.8083 9.92588 12.3226 8.53668 12.295 7.68568C12.2766 7.15852 12.3023 6.15388 12.4928 5.65248V5.65064Z" fill="#D99243"/>
<path d="M10.3078 15.1367H11.9445C13.422 15.1367 13.9133 16.1727 14.1773 17.0752C14.1966 17.1442 14.2445 17.3171 14.2445 17.3181C14.5435 18.4451 15.1387 21.1775 15.3825 22.3127H22.8538C23.6901 22.3127 24.4353 22.5759 25.0535 23.0727C25.3866 23.3395 25.6828 23.6743 25.9386 24.0718C26.0343 24.2208 26.1226 24.3781 26.2054 24.5437C26.4161 24.9596 26.589 25.4288 26.7187 25.9495C26.8255 26.3755 28.4263 35.8137 28.4575 35.9996L28.4658 36.0502V40.6658C28.4658 41.0044 28.1705 41.2785 27.8338 41.2785C27.4971 41.2785 27.2017 41.0044 27.2017 40.6658V36.4191H14.8719L14.2399 35.7871V23.012C14.1193 22.4452 13.2591 18.4386 12.9638 17.4312C12.7053 16.5462 12.4523 16.4027 11.9454 16.4027H10.3087C9.9591 16.4027 9.67666 16.1202 9.67666 15.7706C9.67666 15.421 9.9591 15.1386 10.3087 15.1386L10.3078 15.1367ZM15.5039 26.7481V35.1541H27.0352C26.831 33.9241 26.5853 32.453 26.3498 31.0619C26.0435 29.2486 25.7509 27.5705 25.5927 26.7361C25.5476 26.5089 25.5135 26.3451 25.4933 26.2568C25.3949 25.8621 25.2541 25.4435 25.0535 25.0562C25.0581 25.0433 25.0554 25.0295 25.0434 25.0222C25.0416 25.0222 25.0388 25.024 25.0379 25.024C24.6165 24.2282 23.9413 23.5777 22.8557 23.5777H15.5058V26.7481H15.5039Z" fill="#DAD5D5"/>
<path d="M15.5047 26.7481V31.0739H26.2761L26.3506 31.061C26.0442 29.2477 25.7517 27.5696 25.5934 26.7352L25.529 26.7481H15.5056H15.5047Z" fill="#98B5BF"/>
<path d="M26.2291 30.349C26.2686 30.5826 26.3091 30.8209 26.3496 31.061L26.2751 31.0739H15.5037V30.349H26.2282H26.2291Z" fill="#564B57"/>
<path d="M25.0526 25.0562C25.0471 25.0452 25.0416 25.0341 25.037 25.024C23.9946 25.3524 22.932 25.6128 21.8547 25.8042C21.4655 25.8732 21.0745 25.9339 20.6799 25.9615C20.1895 25.9964 19.6412 25.9587 19.2971 25.6073C19.218 25.5254 19.1536 25.4306 19.0901 25.3359C18.7046 24.7609 18.3357 24.1739 17.9824 23.5778H15.503V26.7481H25.5264L25.5908 26.7352C25.5457 26.508 25.5117 26.3442 25.4915 26.2559C25.393 25.8612 25.2523 25.4426 25.0517 25.0553L25.0526 25.0562Z" fill="#008D5C"/>
<path d="M16.5121 20.735L17.353 22.3137C17.0954 21.815 16.8461 21.2851 16.5121 20.735Z" fill="#FFDBD0"/>
<path d="M16.076 12.8266C16.4597 13.2001 17.0503 13.4255 17.6262 13.4228C17.9583 13.42 18.284 13.3409 18.5637 13.1725C19.4911 13.1725 20.9336 16.6805 20.9336 18.9281C20.9336 20.0183 20.9493 21.2906 20.9658 22.3137H20.6815C20.2363 21.6476 20.0017 20.8601 19.6659 20.1287C19.5775 19.9364 19.4819 19.746 19.3733 19.5647C19.3411 19.5859 19.3089 19.6052 19.2767 19.6254C17.9271 20.4755 16.9785 20.688 16.5121 20.7359L17.353 22.3146H15.3842C15.1395 21.1793 14.5451 18.4469 14.2461 17.3199V17.3181C14.3179 14.2968 15.1891 12.8275 16.0769 12.8275L16.076 12.8266Z" fill="#0ABF7C"/>
<path d="M22.8544 23.5778H17.983C18.3354 24.1739 18.7052 24.7609 19.0907 25.3359C19.1542 25.4297 19.2186 25.5254 19.2977 25.6073C19.6418 25.9587 20.1901 25.9964 20.6805 25.9615C21.0752 25.933 21.4662 25.8732 21.8553 25.8042C22.9317 25.6128 23.9943 25.3534 25.0376 25.024C24.6162 24.2282 23.941 23.5778 22.8554 23.5778H22.8544Z" fill="#EFA7A0"/>
<path d="M15.4706 7.07847C16.433 6.41975 17.226 7.55503 17.2637 7.60931C16.95 6.60559 17.8341 5.92111 17.8341 5.92111C17.8415 5.92111 19.3254 5.04159 20.274 5.25595C20.5748 5.32311 20.8204 5.50067 20.9483 5.85027C21.01 6.01863 21.0449 6.22655 21.0449 6.48231V8.53115C21.0449 8.53115 21.5666 9.53763 21.3826 10.4411C21.2308 11.1771 20.6107 11.8468 18.8572 11.8468H17.9546C16.2177 11.8468 16.0558 9.44471 16.0558 9.44471C14.8975 9.10155 14.7871 7.54491 15.4697 7.07663L15.4706 7.07847Z" fill="#FFDBD0"/>
<path d="M19.2768 19.6245C19.309 19.6052 19.3412 19.585 19.3734 19.5638C19.482 19.7451 19.5776 19.9346 19.666 20.1278C20.0018 20.8601 20.2364 21.6467 20.6816 22.3128H17.3522C17.0946 21.8141 16.8452 21.2842 16.5113 20.7341C16.9777 20.6862 17.9262 20.4737 19.2759 19.6236L19.2768 19.6245Z" fill="#FFDBD0"/>
<path d="M25.0379 25.024C25.0425 25.0341 25.048 25.0452 25.0536 25.0562C25.0582 25.0433 25.0554 25.0295 25.0434 25.0222C25.0416 25.0222 25.0388 25.024 25.0379 25.024Z" fill="#DAD5D5"/>
<path d="M25.0542 23.0736C25.3873 23.3404 25.6835 23.6753 25.9393 24.0727L26.0911 23.9715C26.4931 24.115 26.9227 24.1785 27.3505 24.1555C27.449 24.15 27.5483 24.1399 27.6468 24.1307C27.9633 24.0985 28.2779 24.0663 28.5925 24.0341C28.7223 24.0212 28.8566 24.0056 28.978 23.9614C28.9532 23.943 28.9274 23.9237 28.9026 23.9034C28.2264 23.3754 26.9209 23 26.2383 23.0616C25.8887 23.0938 25.482 23.0938 25.0551 23.0745L25.0542 23.0736Z" fill="#FFDBD0"/>
<path d="M26.0912 23.9715L25.9394 24.0727C26.035 24.2218 26.1234 24.3791 26.2062 24.5447L26.2246 24.5346C26.7996 24.6146 27.3488 24.7057 27.8336 24.8115C28.8199 25.0268 29.486 25.1795 30.0048 25.4426C30.0094 24.7636 29.5338 24.3938 28.9772 23.9596C28.8567 24.0046 28.7214 24.0203 28.5917 24.0322C28.2771 24.0644 27.9624 24.0966 27.646 24.1288C27.5475 24.139 27.4482 24.1482 27.3497 24.1537C26.9228 24.1758 26.4923 24.1132 26.0902 23.9697L26.0912 23.9715Z" fill="#EFA7A0"/>
<path d="M27.5448 30.5403L27.5825 30.7611C27.5696 30.6884 27.5577 30.6139 27.5448 30.5403Z" fill="#6A6565"/>
<path d="M27.6006 30.8706L27.6567 31.2009C27.6383 31.0914 27.6199 30.9801 27.6006 30.8706Z" fill="#6A6565"/>
<path d="M26.2243 24.5345C26.7993 24.6146 27.3486 24.7057 27.8334 24.8115C28.8196 25.0267 29.4857 25.1795 30.0046 25.4426C30.1463 25.5143 30.2788 25.5944 30.4011 25.6855C31.0378 26.1574 31.4766 26.9367 32.2052 28.4952C33.5926 31.4622 35.1704 36.6675 35.1704 36.6675C35.1704 36.6675 35.1143 36.7374 35.003 36.8488C34.7978 37.0567 34.4059 37.41 33.8438 37.7227C33.3856 37.9785 32.8134 38.2094 32.139 38.3134C32.0856 38.3217 32.0323 38.329 31.9771 38.3355C31.7434 37.0309 31.3828 35.374 30.863 33.8468C30.2825 32.1411 29.483 31.0417 28.4866 30.5789C28.1186 30.4088 27.7828 30.3526 27.5114 30.348C27.1627 28.2964 26.826 26.3745 26.7184 25.9495C26.5886 25.4297 26.4166 24.9605 26.205 24.5437L26.2234 24.5336L26.2243 24.5345Z" fill="#0ABF7C"/>
<path d="M30.0056 25.4426C29.4867 25.1795 28.8207 25.0267 27.8344 24.8115C27.3496 24.7057 26.8003 24.6146 26.2253 24.5345L26.2069 24.5447C26.4176 24.9605 26.5906 25.4297 26.7203 25.9504C26.827 26.3764 27.1647 28.2973 27.5133 30.3489C27.7847 30.3535 28.1205 30.4097 28.4885 30.5799C29.4849 31.0426 30.2844 32.1411 30.8649 33.8477C31.3847 35.3758 31.7628 37.1404 31.9965 38.4449C32.0517 38.4376 33.3875 37.9794 33.8457 37.7237C33.6994 37.5801 33.6028 37.3879 33.5136 37.1993C33.0922 36.2986 32.7757 35.3528 32.4593 34.4098C31.8539 32.5983 31.2476 30.785 30.6423 28.9735C30.2853 27.9036 29.9329 26.7076 30.4021 25.6864C30.2798 25.5953 30.1482 25.5153 30.0056 25.4435V25.4426Z" fill="#008D5C"/>
<path d="M35.4401 38.7357C36.7548 38.9004 38.2038 37.6823 38.6859 37.1689C38.7429 37.2158 38.7945 37.2692 38.8377 37.3327C38.8929 37.4146 38.7733 37.6234 38.5507 37.8792C38.5369 37.8976 38.5212 37.9141 38.5056 37.9325C38.1192 38.364 37.4743 38.904 36.9066 39.169C36.8698 39.1911 36.8312 39.2122 36.7925 39.2343C36.7833 39.2389 36.7751 39.2444 36.7659 39.249C36.5874 39.3456 36.3942 39.4349 36.1918 39.5168C36.1209 39.5453 36.0501 39.5738 35.9774 39.6005C35.7566 39.6824 35.5266 39.756 35.2966 39.8222L35.2856 39.825C33.9985 40.192 32.6783 40.3144 32.5329 40.2371C32.5136 40.227 32.4952 40.2132 32.4777 40.1976C32.3591 40.1046 32.2919 39.9464 32.2542 39.7569C32.1116 39.2021 32.153 38.3944 32.153 38.3944C32.153 38.3907 32.153 38.3925 32.153 38.3944C32.1594 38.3925 32.1677 38.3898 32.1741 38.387C32.3066 38.3438 33.0905 38.0816 33.8458 37.7218C34.6011 37.3621 33.8081 38.5296 35.4411 38.7338L35.4401 38.7357Z" fill="#966331"/>
<path d="M22.8547 23.5778C23.6275 23.5778 24.1905 23.908 24.6045 24.3837C24.495 24.4324 24.3322 24.4481 24.2439 24.472C23.8308 24.5852 23.4168 24.6919 23 24.794C22.7636 24.852 22.5262 24.9081 22.2889 24.9624C21.9439 25.0415 21.5933 25.1169 21.2391 25.1086C20.8849 25.1004 20.5215 25.001 20.2557 24.7673C20.0744 24.6082 19.9484 24.3966 19.8251 24.1886C19.7046 23.9853 19.5841 23.782 19.4635 23.5787H22.8547V23.5778Z" fill="#FFDBD0"/>
<path d="M19.1614 22.3127C18.9967 22.0597 18.9305 21.5859 18.9664 21.2879C19.0142 20.8932 19.373 20.3007 19.6665 20.1268C19.5782 19.9345 19.4825 19.7441 19.3739 19.5629C19.3417 19.584 19.3095 19.6033 19.2773 19.6236C17.9277 20.4737 16.9792 20.6862 16.5127 20.734C16.6728 21.0349 17.096 21.8132 17.3536 22.3127H19.1623H19.1614Z" fill="#EFA7A0"/>
<path d="M15.4899 7.07847C16.4523 6.41975 17.2453 7.55503 17.283 7.60931C16.9693 6.60559 17.8534 5.92111 17.8534 5.92111C17.8608 5.92111 19.3447 5.04159 20.2933 5.25595C20.2933 5.25595 19.1065 5.37187 18.6419 6.06279C18.3162 6.54763 18.3511 7.46303 18.295 8.01963C18.2306 8.66915 18.3373 9.36283 18.7955 9.88171C19.2518 10.4006 19.9749 10.8229 21.1268 10.4144L21.4019 10.4429C21.2501 11.1789 20.63 11.8487 18.8765 11.8487H18.5627V13.1726C18.2831 13.3409 17.9574 13.42 17.6253 13.4228C17.0493 13.4256 16.4587 13.2011 16.0751 12.8266V9.44655C14.9168 9.10339 14.8064 7.54675 15.489 7.07847H15.4899Z" fill="#EFA7A0"/>
<path d="M16.5123 20.735C16.9787 20.6871 17.9272 20.4746 19.2769 19.6245L19.2483 19.5813C17.8131 18.791 16.8545 17.2021 16.8241 15.5645C16.8168 15.1616 16.8637 14.7513 17.021 14.3814C17.1443 14.0907 17.3329 13.8322 17.5243 13.5801C17.5509 13.5424 17.585 13.5047 17.6301 13.5047L17.6273 13.4228C17.0514 13.4255 16.4607 13.2011 16.0771 12.8266C15.1893 12.8266 14.3171 14.2949 14.2463 17.3171V17.319C14.5453 18.446 15.1405 21.1784 15.3843 22.3137H17.3531L16.5123 20.735Z" fill="#008D5C"/>
<path d="M16.2737 20.8233C16.3317 20.8233 16.4145 20.8205 16.5194 20.8095C16.9729 20.7626 17.9399 20.5556 19.3162 19.688C19.3502 19.6668 19.3824 19.6475 19.4137 19.6273C19.5149 19.5629 19.6198 19.493 19.7265 19.4194C19.7651 19.3927 19.7909 19.3467 19.8029 19.2841C19.893 18.7846 19.0567 16.7569 18.3364 15.7274C18.2646 15.6262 18.1938 15.536 18.1183 15.4523C18.0907 15.421 18.0438 15.4192 18.0125 15.4468C17.9813 15.4744 17.9794 15.5213 18.007 15.5526C18.0779 15.6326 18.1459 15.7182 18.214 15.8139C19.1046 17.0862 19.8102 19.1507 19.6419 19.297C19.537 19.3697 19.4339 19.4378 19.3337 19.5022C19.3024 19.5224 19.272 19.5408 19.2407 19.5601C17.8865 20.4139 16.9453 20.6163 16.5047 20.6614C16.3749 20.6742 16.2829 20.6752 16.2323 20.6733L15.5745 18.9023C15.2627 18.0596 15.1182 17.2794 15.1587 16.6465C15.1615 16.6051 15.1302 16.5692 15.0888 16.5664C15.0483 16.5628 15.0115 16.595 15.0087 16.6364C14.9673 17.2905 15.1136 18.0918 15.4338 18.9538L16.1081 20.7708C16.1183 20.7975 16.1422 20.8159 16.1698 20.8196C16.1725 20.8196 16.2075 20.8233 16.2728 20.8233H16.2737Z" fill="#0D8E91"/>
<path d="M21.481 34.1729L21.4033 33.8832L14.8259 35.6467L14.9035 35.9364L21.481 34.1729Z" fill="#6A6565"/>
<path d="M21.4761 37.4013L14.9013 35.6385L14.8236 35.9282L21.3984 37.691L21.4761 37.4013Z" fill="#6A6565"/>
<path d="M15.0093 35.751L13.2458 29.1736L12.956 29.2513L14.7196 35.8287L15.0093 35.751Z" fill="#6A6565"/>
<path d="M16.7686 29.2454L16.4788 29.1677L14.716 35.7425L15.0058 35.8201L16.7686 29.2454Z" fill="#6A6565"/>
<path d="M19.7964 31.0745L19.5843 30.8624L14.7724 35.6744L14.9844 35.8864L19.7964 31.0745Z" fill="#6A6565"/>
<path d="M8.15481 15.0043H10.4419C10.7011 15.0043 10.9111 15.2143 10.9111 15.4735V16.066C10.9111 16.3251 10.7011 16.5352 10.4419 16.5352H8.15481C7.89568 16.5352 7.68561 16.3251 7.68561 16.066V15.4735C7.68561 15.2143 7.89568 15.0043 8.15481 15.0043Z" fill="#0D8E91"/>
<path d="M20.0411 7.38669C19.8046 7.38669 19.6123 7.57897 19.6123 7.81633C19.6123 8.05369 19.8046 8.24505 20.0411 8.24505C20.2775 8.24505 20.4707 8.05369 20.4707 7.81633C20.4707 7.57897 20.2784 7.38669 20.0411 7.38669Z" fill="#564B57"/>
<path d="M20.5553 6.8586C20.6353 6.87976 20.6831 6.96164 20.662 7.04168C20.6408 7.12172 20.5589 7.16956 20.4789 7.1484C20.4706 7.14656 19.6803 6.94508 19.4071 7.521C19.3813 7.57528 19.328 7.60656 19.2719 7.60656C19.2507 7.60656 19.2286 7.60196 19.2075 7.59184C19.1329 7.55596 19.1007 7.46672 19.1357 7.3922C19.4384 6.7528 20.1965 6.76292 20.5543 6.85768L20.5553 6.8586Z" fill="#564B57"/>
<path d="M36.9093 36.7126C37.5008 36.5562 38.6251 36.4762 39.0851 37.1652C39.1311 37.2333 39.1762 37.3492 39.1302 37.5158C38.9903 38.0218 37.8725 39.0476 37.0326 39.4413C36.8596 39.5223 36.706 39.5959 36.5643 39.663C35.6811 40.0835 35.2781 40.2758 34.118 40.4736L34.0554 40.4846C33.221 40.6254 32.7693 40.6723 32.5062 40.6723C32.2964 40.6723 32.2062 40.6419 32.1391 40.606C31.6671 40.353 31.715 39.7937 31.7536 39.3438C31.7628 39.2362 31.7711 39.1276 31.7729 39.0301C31.7692 39.0301 31.7656 39.0319 31.761 39.0328L31.4767 39.077L31.4215 38.7946C31.4132 38.7522 30.5815 34.5598 29.7912 33.0335C29.1362 31.7685 28.5603 31.2892 27.943 31.0969C27.9448 31.1052 27.9457 31.1144 27.9476 31.1227L27.9522 31.1494C27.9522 31.1494 27.954 31.154 27.954 31.1558C27.9834 31.3306 28.0129 31.5045 28.0414 31.6774C28.3468 33.4972 28.6256 35.178 28.7204 35.754L28.7618 36.0024C28.7645 36.0189 28.7654 36.0355 28.7654 36.0511V37.9601C28.9283 38.0181 29.0874 38.0898 29.2402 38.1782C29.8961 38.5572 30.3653 39.1681 30.5613 39.8976C30.7572 40.6281 30.656 41.3908 30.277 42.0477C29.898 42.7036 29.2871 43.1728 28.5575 43.3688C28.3128 43.4341 28.0672 43.4654 27.8243 43.4654C26.5731 43.4654 25.4249 42.6291 25.0864 41.365C24.8904 40.6355 24.9916 39.8719 25.3706 39.215C25.7156 38.617 26.2548 38.1763 26.9006 37.9546V36.72H22.837C22.7109 37.7899 22.3687 38.8332 21.813 39.7955C20.7412 41.653 19.0125 42.9806 16.9462 43.5335C16.2534 43.7193 15.5579 43.8076 14.8725 43.8076C11.3324 43.8076 8.08293 41.4414 7.12429 37.8626C6.57045 35.7963 6.85657 33.6361 7.92929 31.7786C9.00201 29.9212 10.7298 28.5936 12.7952 28.0407C13.1742 27.9395 13.556 27.8668 13.9387 27.8208V23.0432C13.8467 22.6145 12.9709 18.527 12.6746 17.515C12.4373 16.7017 12.2616 16.7017 11.9433 16.7017H10.9101C10.8383 16.7017 10.7693 16.6916 10.7013 16.6759C10.5393 16.7762 10.3489 16.8351 10.1446 16.8351H8.45093C7.86305 16.8351 7.38557 16.3567 7.38557 15.7697C7.38557 15.1828 7.86397 14.7044 8.45093 14.7044H10.1446C10.3489 14.7044 10.5393 14.7632 10.7013 14.8635C10.7693 14.8479 10.8392 14.8378 10.9101 14.8378H11.9433C13.0454 14.8378 13.6636 15.3585 14.0372 15.9767C14.2699 14.0576 14.9029 12.8009 15.775 12.5681V11.9692C15.0519 11.879 13.9369 11.4062 13.2625 10.7677C12.5422 10.0878 12.0242 8.63053 11.9938 7.69581C11.9883 7.54769 11.9515 6.22841 12.2119 5.54485L12.2266 5.50713C12.5532 4.65337 12.8347 3.91553 13.682 3.27797C14.6462 2.55209 16.9398 2.18777 18.2278 2.19421C20.0457 2.21169 21.4238 2.87409 22.2141 4.10873C22.514 4.57701 22.5527 5.07841 22.3199 5.48689C22.1267 5.82453 21.7652 6.04625 21.3383 6.11157C21.3558 6.22933 21.365 6.35353 21.365 6.48601V8.46585C21.5149 8.78417 22.0688 10.108 21.4643 11.1016C21.0411 11.7972 20.1708 12.1504 18.8764 12.1504H18.8626V12.9444C20.0632 13.4716 21.2325 16.9749 21.2325 18.9299C21.2325 20.0192 21.2481 21.24 21.2601 22.0156H22.8535C23.7192 22.0156 24.493 22.2741 25.1554 22.7792C25.5657 22.7958 25.9217 22.7912 26.2088 22.7645C26.9365 22.6982 28.3211 23.0718 29.0847 23.6688C29.1068 23.6863 29.1298 23.7038 29.1629 23.7286C29.7066 24.1528 30.2209 24.5557 30.2936 25.2632C31.1896 25.7821 31.6837 26.6772 32.4758 28.371C33.8558 31.3232 35.441 36.5314 35.4566 36.5838L35.5026 36.7347L35.4759 36.7678C35.8816 36.8966 36.464 36.8322 36.9074 36.7154L36.9093 36.7126ZM10.1456 15.3042H8.45185C8.19517 15.3042 7.98633 15.513 7.98633 15.7697C7.98633 16.0264 8.19517 16.2352 8.45185 16.2352H10.1456C10.4022 16.2352 10.6111 16.0264 10.6111 15.7697C10.6111 15.513 10.4022 15.3042 10.1456 15.3042ZM28.1665 38.2499C28.0543 38.2334 27.9402 38.2242 27.8243 38.2242C27.7176 38.2242 27.6099 38.2315 27.5014 38.2462V39.6078C27.6062 39.5701 27.7185 39.5499 27.8335 39.5499C27.9485 39.5499 28.0607 39.5701 28.1665 39.6069V38.249V38.2499ZM29.0267 38.5471C28.943 38.4983 28.8556 38.456 28.7664 38.4183V39.4763L29.4159 38.8268C29.2954 38.721 29.1656 38.6271 29.0276 38.5471H29.0267ZM29.9072 41.8324C30.012 41.6512 30.093 41.4561 30.1473 41.2519C30.2016 41.0513 30.2301 40.8425 30.2301 40.63C30.2301 40.4239 30.2043 40.215 30.1482 40.0071C30.0921 39.7992 30.0102 39.6051 29.9072 39.4266C29.8262 39.2868 29.7324 39.157 29.6275 39.0384L28.7654 39.9004V40.2068C28.8841 40.5334 28.828 40.9096 28.5943 41.1875L29.6275 42.2206C29.7333 42.1001 29.8271 41.9704 29.9072 41.8324ZM26.6228 42.7128C26.804 42.8177 26.999 42.8978 27.2024 42.953C27.4029 43.0072 27.6118 43.0358 27.8243 43.0358C28.0304 43.0358 28.2392 43.01 28.4471 42.9539C28.655 42.8978 28.8492 42.8168 29.0267 42.7128C29.1666 42.6319 29.2935 42.5344 29.4122 42.4295L28.3809 41.3982C28.2263 41.5104 28.0368 41.5785 27.8335 41.5785C27.6302 41.5785 27.4287 41.5086 27.2723 41.3936L26.2327 42.4332C26.3532 42.539 26.4829 42.6328 26.6209 42.7128H26.6228ZM25.7423 39.4284C25.6374 39.6097 25.5565 39.8047 25.5022 40.008C25.4479 40.2086 25.4194 40.4184 25.4194 40.63C25.4194 40.836 25.4461 41.0449 25.5013 41.2528C25.5565 41.4607 25.6384 41.6548 25.7414 41.8333C25.8224 41.9732 25.9162 42.102 26.022 42.2216L27.0634 41.1801C27.0588 41.1737 27.0552 41.1663 27.0506 41.1599C26.9135 40.9851 26.838 40.7726 26.838 40.5472C26.838 40.4276 26.862 40.3116 26.9024 40.2031V39.9197L26.0229 39.0402C25.9171 39.1607 25.8224 39.2904 25.7432 39.4284H25.7423ZM26.6218 38.5471C26.482 38.628 26.3523 38.7219 26.2336 38.8268L26.9015 39.4947V38.4082C26.804 38.4486 26.7111 38.4946 26.6218 38.5462V38.5471ZM22.618 33.7116C22.7192 34.0906 22.7919 34.4724 22.8379 34.8551H26.6816C26.5032 33.7815 26.2989 32.557 26.0984 31.3748H21.5692C22.0356 32.0832 22.3926 32.8688 22.618 33.7116ZM21.9068 26.0995C21.5545 26.162 21.1359 26.2301 20.7007 26.2605C20.6014 26.2678 20.5048 26.2715 20.4128 26.2715C19.8175 26.2715 19.3805 26.1216 19.0806 25.8161C18.9822 25.714 18.9067 25.6027 18.8405 25.5033C18.4881 24.9771 18.1431 24.4306 17.8128 23.8777H15.8036V26.4482H25.2271C25.217 26.4003 25.2078 26.358 25.2004 26.3286C25.114 25.9817 25.0054 25.668 24.8766 25.3856C23.9069 25.68 22.9087 25.921 21.9068 26.0986V26.0995ZM24.5813 24.8464C24.1434 24.196 23.5757 23.8777 22.8535 23.8777H18.513C18.7816 24.3165 19.0576 24.7489 19.3391 25.1684C19.3943 25.2503 19.4504 25.335 19.5112 25.3966C19.7246 25.6146 20.1 25.7011 20.6584 25.6616C21.065 25.633 21.4652 25.5677 21.802 25.5079C22.7394 25.3414 23.6723 25.1169 24.5813 24.8455V24.8464ZM14.8707 32.1246C14.7603 32.1246 14.6499 32.131 14.5386 32.142V33.9664L14.7125 34.6168C14.8192 34.6021 14.9259 34.6021 15.0289 34.6159L15.2028 33.9664V32.143C15.0924 32.1319 14.982 32.1255 14.8698 32.1255L14.8707 32.1246ZM15.2037 31.5404V28.9883C15.0924 28.9828 14.982 28.9772 14.8698 28.9772C14.7594 28.9772 14.649 28.9818 14.5386 28.9874V31.5404C14.7621 31.5229 14.9848 31.5229 15.2037 31.5404ZM15.0298 36.9573C14.9765 36.9647 14.9231 36.9684 14.8698 36.9684C14.8164 36.9684 14.7649 36.9647 14.7125 36.9573L14.0685 39.3594C14.5919 39.4781 15.1375 39.4781 15.6729 39.3576L15.0298 36.9564V36.9573ZM13.7014 35.9444C13.6866 35.8377 13.6866 35.731 13.7014 35.6279L11.2983 34.9839C11.1806 35.5074 11.1796 36.053 11.3002 36.5884L13.7023 35.9444H13.7014ZM11.3802 36.8764C11.5431 37.3998 11.8135 37.8727 12.1778 38.2665L13.936 36.5084C13.8716 36.4246 13.8191 36.3326 13.7786 36.2333L11.3802 36.8764ZM13.7796 35.3381C13.82 35.2406 13.8725 35.1486 13.9378 35.0649L12.1797 33.3068C11.9994 33.5036 11.8374 33.7189 11.7004 33.9554C11.5633 34.1918 11.4566 34.4402 11.3765 34.6941L13.7796 35.3381ZM13.9387 34.6417V32.8854L13.7805 32.2948C13.257 32.4576 12.7841 32.729 12.3904 33.0924L13.9387 34.6408V34.6417ZM12.3922 38.4772C12.5891 38.6575 12.8044 38.8194 13.0408 38.9565C13.2772 39.0926 13.5247 39.2003 13.7796 39.2803L14.4236 36.8782C14.3748 36.858 14.3279 36.835 14.281 36.8083C14.235 36.7816 14.1917 36.7512 14.1494 36.719L12.3922 38.4762V38.4772ZM15.9618 39.2766C16.4853 39.1138 16.9582 38.8433 17.3519 38.479L15.5938 36.72C15.511 36.7834 15.419 36.8368 15.3187 36.8773L15.9618 39.2757V39.2766ZM21.4045 33.8799C21.249 33.3454 21.0347 32.844 20.767 32.3812C20.559 32.0197 20.318 31.6839 20.0512 31.3729H19.4955L17.9886 32.8808C18.4182 33.3399 18.7512 33.9011 18.9463 34.5386L21.4064 33.8799H21.4045ZM19.0226 34.8284C19.0245 34.8367 19.0254 34.845 19.0272 34.8533H21.6106C21.5784 34.626 21.537 34.3979 21.4818 34.1697L19.0226 34.8284ZM16.3694 30.7731H19.467C19.1008 30.4373 18.7025 30.1392 18.2738 29.8908C17.8036 29.6194 17.2995 29.4087 16.776 29.2551L16.3694 30.7731ZM17.5626 33.3049L16.0161 34.8524H17.7724L18.3639 34.6941C18.1974 34.1614 17.9205 33.6922 17.5626 33.3058V33.3049ZM17.7751 32.6683L19.0714 31.372H16.2093L16.1182 31.7115C16.7346 31.901 17.3022 32.2285 17.7751 32.6683ZM17.3501 33.0933C16.9517 32.7281 16.477 32.4548 15.9618 32.2929L15.8036 32.8836V34.6398L17.3501 33.0933ZM15.8284 31.6333L15.8983 31.372H15.8036V31.6287C15.8118 31.6305 15.8201 31.6314 15.8284 31.6333ZM16.0593 30.7722L16.4871 29.176C16.2626 29.1208 16.0345 29.0784 15.8045 29.0453V30.7722H16.0593ZM18.5176 35.4522H16.6923L16.0418 35.6261C16.0566 35.7328 16.0566 35.8395 16.0418 35.9426L16.6914 36.1164H18.5176C18.5378 35.8956 18.5369 35.6739 18.5166 35.4513L18.5176 35.4522ZM17.7724 36.7172H16.0161L17.5635 38.2646C17.7438 38.0678 17.9067 37.8525 18.0428 37.6151C18.1799 37.3787 18.2866 37.1303 18.3667 36.8764L17.7724 36.7172ZM15.8036 27.0462V27.818C16.8735 27.9441 17.9168 28.2863 18.8791 28.842C19.7577 29.3489 20.5158 30.0049 21.1313 30.7722H25.9953C25.7258 29.1815 25.4902 27.8355 25.344 27.0462H15.8026H15.8036ZM21.6796 35.7852C21.6796 35.6748 21.675 35.5635 21.6695 35.4522H19.1183C19.1367 35.6748 19.1367 35.8966 19.1202 36.1174H21.6695C21.675 36.007 21.6796 35.8966 21.6796 35.7852ZM21.6106 36.7172H19.0309C19.0291 36.7255 19.0282 36.7338 19.0254 36.743L21.479 37.4008C21.5342 37.1763 21.5766 36.9481 21.6097 36.7181L21.6106 36.7172ZM20.7642 39.1874C21.0356 38.7173 21.2472 38.214 21.4008 37.6896L18.9454 37.0318C18.8515 37.3364 18.7236 37.6326 18.5608 37.915C18.397 38.1975 18.2048 38.4569 17.9876 38.6906L19.7844 40.4883C20.1607 40.0936 20.4928 39.6584 20.7633 39.1874H20.7642ZM18.2738 41.6806C18.7512 41.4046 19.1846 41.0734 19.5737 40.6999L17.777 38.9031C17.3087 39.3401 16.7447 39.6667 16.1173 39.8581L16.776 42.3182C17.3105 42.1627 17.811 41.9483 18.2728 41.6806H18.2738ZM14.8707 42.5923C15.4043 42.5923 15.9462 42.527 16.4871 42.3954L15.8275 39.9344C15.5082 40.008 15.1853 40.0476 14.8643 40.0476C14.5432 40.0476 14.2258 40.009 13.9139 39.9363L13.2561 42.3918C13.7796 42.5206 14.3196 42.5923 14.8707 42.5923ZM11.4685 41.6778C11.9387 41.9492 12.4419 42.1599 12.9663 42.3136L13.6241 39.8581C13.3196 39.7642 13.0233 39.6373 12.7409 39.4744C12.4584 39.3116 12.1999 39.1184 11.9662 38.9013L10.1695 40.698C10.5632 41.0752 10.9984 41.4046 11.4685 41.6778ZM8.97533 39.1883C9.25041 39.6649 9.58345 40.0973 9.95697 40.4864L11.7528 38.6906C11.3149 38.2223 10.9892 37.6584 10.7978 37.0309L8.33869 37.6896C8.49417 38.2232 8.70853 38.7246 8.97533 39.1883ZM8.06269 35.7834C8.06269 36.317 8.12893 36.8589 8.26049 37.3998L10.7196 36.7411C10.5715 36.1026 10.5724 35.4504 10.7169 34.8266L8.26325 34.1688C8.13445 34.6923 8.06269 35.2342 8.06269 35.7834ZM8.97717 32.3812C8.70577 32.8514 8.49417 33.3555 8.34145 33.879L10.796 34.5368C10.8898 34.2323 11.0177 33.936 11.1806 33.6536C11.3434 33.3712 11.5366 33.1126 11.7528 32.879L9.95605 31.0822C9.57885 31.4769 9.24765 31.9111 8.97625 32.3812H8.97717ZM11.4667 29.888C10.9892 30.164 10.5568 30.4962 10.1686 30.8697L11.9644 32.6655C12.4327 32.2276 12.9966 31.9019 13.6241 31.7106L12.9654 29.2505C12.4308 29.4069 11.9295 29.6212 11.4667 29.888ZM13.1089 29.2063C13.1089 29.2063 13.1089 29.2063 13.108 29.2063H13.1098C13.1098 29.2063 13.1098 29.2063 13.1089 29.2063ZM13.2552 29.1723L13.9139 31.6324C13.9222 31.6305 13.9305 31.6296 13.9387 31.6278V29.0435C13.7115 29.0757 13.4833 29.1171 13.2552 29.1723ZM21.7992 5.18697C21.9197 4.97721 21.8875 4.70857 21.709 4.43073C21.0236 3.35985 19.8497 2.80785 18.2222 2.79221C17.0262 2.78117 14.8578 3.14181 14.0427 3.75545C13.3334 4.28905 13.1043 4.88981 12.7869 5.71965L12.7722 5.75737C12.6075 6.19069 12.5753 7.14105 12.5937 7.67465C12.6204 8.47229 13.0877 9.77777 13.6747 10.3307C14.2506 10.8762 15.2083 11.2709 15.776 11.3629V9.65357C15.2497 9.41897 14.8872 8.93689 14.7906 8.32509C14.6931 7.70501 14.9001 7.11805 15.3196 6.83101C15.9305 6.41241 16.5101 6.55869 16.9453 6.85677C17.0833 6.14929 17.6371 5.70861 17.6693 5.68469C17.6868 5.67089 17.7061 5.65893 17.7264 5.64973C18.2692 5.34705 19.6289 4.67913 20.536 5.01585C20.7982 5.11337 21.0052 5.28909 21.1451 5.52921C21.4376 5.51449 21.6833 5.38845 21.7983 5.18697H21.7992ZM18.8773 11.5488C19.9463 11.5488 20.6446 11.293 20.9519 10.7898C21.4542 9.96637 20.8056 8.68389 20.7992 8.67101C20.7771 8.62869 20.7651 8.58085 20.7651 8.53301V6.48417C20.7651 6.27533 20.7384 6.09685 20.6869 5.95517C20.6161 5.76289 20.502 5.64329 20.3281 5.57889C19.7789 5.37557 18.777 5.75093 18.0226 6.17229C17.914 6.26429 17.3427 6.79145 17.57 7.52009C17.5718 7.52469 17.5718 7.52929 17.5727 7.53297C17.5782 7.55321 17.581 7.57345 17.5819 7.59461C17.5819 7.60105 17.5847 7.60657 17.5847 7.61301C17.5847 7.77861 17.4504 7.91293 17.2848 7.91293C17.2746 7.91293 17.2645 7.91017 17.2544 7.90925C17.2001 7.90373 17.1504 7.88349 17.109 7.85313C17.1035 7.84853 17.0971 7.84485 17.0916 7.84025C17.0824 7.83197 17.0741 7.82369 17.0658 7.81541C17.0575 7.80621 17.0492 7.79609 17.0419 7.78597C17.0382 7.78137 17.0336 7.77677 17.0299 7.77217C16.9048 7.59461 16.3326 6.86689 15.6591 7.32781C15.4365 7.48053 15.3233 7.85313 15.3831 8.23401C15.4549 8.69217 15.7456 9.03809 16.1605 9.16137C16.1624 9.16137 16.1633 9.16321 16.1651 9.16321C16.1716 9.16505 16.178 9.16781 16.1835 9.16965C16.1909 9.17241 16.1973 9.17609 16.2047 9.17885C16.2093 9.18161 16.2148 9.18345 16.2194 9.18621C16.2249 9.18897 16.2304 9.19265 16.236 9.19633C16.2424 9.20001 16.2479 9.20461 16.2534 9.20921C16.258 9.21289 16.2636 9.21565 16.2682 9.21933C16.2728 9.22301 16.2774 9.22761 16.281 9.23221C16.2866 9.23681 16.2912 9.24233 16.2958 9.24785C16.2994 9.25245 16.304 9.25613 16.3077 9.26073C16.3114 9.26533 16.3151 9.26993 16.3178 9.27545C16.3224 9.28189 16.3261 9.28833 16.3298 9.29477C16.3326 9.29937 16.3362 9.30397 16.339 9.30949C16.3418 9.31409 16.3436 9.31961 16.3464 9.32513C16.35 9.33249 16.3519 9.33985 16.3546 9.34721C16.3565 9.35273 16.3592 9.35825 16.3611 9.36469C16.3629 9.37021 16.3638 9.37481 16.3648 9.38033C16.3666 9.38769 16.3675 9.39505 16.3694 9.40241C16.3703 9.40977 16.3721 9.41621 16.3721 9.42357C16.3721 9.42541 16.3721 9.42725 16.373 9.43001C16.3749 9.45117 16.5322 11.5524 17.9729 11.5524H18.8754L18.8773 11.5488ZM16.3758 11.27V12.6923C16.8459 13.0796 17.6482 13.2673 18.2636 12.9904V12.1477H17.9748C17.2332 12.1477 16.7199 11.7686 16.3758 11.2691V11.27ZM20.6326 18.9272C20.6326 16.6446 19.2186 13.6813 18.6224 13.4826C17.8285 13.8994 16.6923 13.7503 15.9719 13.1376C15.4024 13.2618 14.6204 14.4127 14.545 17.284C14.8293 18.366 15.3601 20.7911 15.6242 22.0128H16.8625C16.7033 21.6982 16.5368 21.3753 16.3454 21.0459C16.3188 21.0459 16.2939 21.0478 16.2718 21.0478C16.2001 21.0478 16.1568 21.0441 16.144 21.0422L15.96 21.022L15.2212 19.0311C14.5045 17.0945 14.6508 15.5609 15.603 15.0291C16.8036 14.3575 17.7843 14.5489 18.5176 15.5968C19.2324 16.618 20.1312 18.7174 20.0218 19.3228C19.9942 19.4773 19.9141 19.561 19.8525 19.6034C19.824 19.6236 19.7964 19.6402 19.7678 19.6595C19.823 19.7653 19.8792 19.8784 19.9362 20.0017C20.0475 20.2437 20.1478 20.4921 20.2453 20.7331C20.3769 21.0588 20.5048 21.3725 20.6538 21.6688C20.6428 20.9024 20.6317 19.8665 20.6317 18.9262L20.6326 18.9272ZM19.2103 19.3117C19.2839 19.2648 19.3584 19.2151 19.4348 19.1636C19.4219 18.734 18.7623 16.9924 18.0272 15.9418C17.4706 15.146 16.833 15.03 15.8965 15.5535C15.3509 15.858 15.1044 16.9878 15.7842 18.8232L16.3859 20.4442C16.4144 20.4424 16.4457 20.4396 16.4798 20.436C16.9158 20.3909 17.8506 20.1848 19.2094 19.3117H19.2103ZM16.9867 20.9585C17.1504 21.252 17.2958 21.539 17.4366 21.8178C17.4697 21.884 17.5028 21.9475 17.5359 22.0128H20.1588C19.9794 21.6678 19.8332 21.309 19.6906 20.9585C19.5958 20.7239 19.4983 20.482 19.3925 20.2529C19.3483 20.1572 19.3051 20.0689 19.2628 19.9861C18.2793 20.5813 17.5074 20.8435 16.9867 20.9594V20.9585ZM25.6264 24.1482C25.4028 23.817 25.148 23.5327 24.8646 23.3064C24.2924 22.8454 23.6153 22.6127 22.8535 22.6127H15.3831C15.3638 22.6127 15.3454 22.6108 15.327 22.6072C15.3215 22.6062 15.3151 22.6044 15.3095 22.6026C15.2976 22.5998 15.2856 22.5961 15.2746 22.5915C15.2681 22.5888 15.2617 22.586 15.2543 22.5823C15.2442 22.5777 15.235 22.5722 15.2258 22.5667C15.2194 22.563 15.2138 22.5584 15.2074 22.5547C15.1982 22.5483 15.1899 22.5409 15.1816 22.5336C15.177 22.529 15.1715 22.5244 15.1669 22.5198C15.1586 22.5106 15.1513 22.5014 15.1439 22.4912C15.1402 22.4866 15.1366 22.482 15.1329 22.4765C15.1255 22.4655 15.1191 22.4526 15.1136 22.4406C15.1117 22.436 15.109 22.4324 15.1071 22.4278C15.1007 22.4112 15.0952 22.3937 15.0906 22.3762C15.0906 22.3762 15.0906 22.3753 15.0906 22.3744C15.0906 22.3744 15.0906 22.3744 15.0906 22.3735C14.8477 21.2474 14.2534 18.515 13.9562 17.3954C13.9562 17.3944 13.9562 17.3935 13.9562 17.3917L13.9525 17.3788C13.9295 17.296 13.9093 17.2206 13.8909 17.1589C13.6416 16.307 13.2156 15.4367 11.9451 15.4367H11.1576C11.1925 15.5416 11.2118 15.6529 11.2118 15.7688C11.2118 15.8847 11.1925 15.997 11.1576 16.1009H11.9451C12.6507 16.1009 12.9801 16.4146 13.2515 17.3457C13.5643 18.4129 14.4935 22.7636 14.533 22.9485C14.5726 23.1334 14.533 22.9503 14.533 22.9512V22.954C14.5422 22.9908 14.5432 23.0276 14.5386 23.0635V27.773C14.7603 27.7638 14.982 27.7619 15.2037 27.7711V23.5768C15.2037 23.4112 15.338 23.2769 15.5036 23.2769H22.8535C23.8784 23.2769 24.7119 23.8133 25.2685 24.8253C25.3072 24.8685 25.3348 24.921 25.3458 24.9771C25.5224 25.3294 25.6706 25.7342 25.7828 26.186C25.804 26.277 25.8389 26.4436 25.8858 26.6791C26.0349 27.4629 26.3182 29.0821 26.6439 31.0104C26.8804 32.4024 27.126 33.8744 27.3302 35.1044C27.345 35.1918 27.3201 35.2802 27.2631 35.3473C27.206 35.4145 27.1223 35.4531 27.034 35.4531H22.883C22.8922 35.6748 22.894 35.8975 22.8848 36.1183H27.1996C27.3652 36.1183 27.4995 36.2526 27.4995 36.4182V37.8166C27.7222 37.7908 27.9448 37.789 28.1647 37.8166V36.075L28.1279 35.8506C28.0322 35.2746 27.7544 33.5938 27.4489 31.774C27.023 29.268 26.5225 26.4003 26.4277 26.0222C26.3054 25.5318 26.1416 25.0801 25.9374 24.6781C25.907 24.6183 25.8757 24.5612 25.8444 24.5033L25.6089 24.1454L25.6264 24.1482ZM28.8004 24.2024C28.7719 24.1822 28.7443 24.1601 28.7158 24.138C28.08 23.6412 26.8546 23.3045 26.263 23.3588C26.1195 23.3717 25.9622 23.379 25.7957 23.3836C25.9355 23.5465 26.068 23.7213 26.1894 23.9108C26.2594 24.0194 26.3256 24.1362 26.39 24.2558C26.9714 24.3386 27.4655 24.4251 27.8951 24.5189C28.5962 24.6716 29.1279 24.7931 29.5668 24.9403C29.4196 24.6974 29.1574 24.4821 28.7995 24.2034L28.8004 24.2024ZM31.933 28.6221C31.0756 26.7876 30.656 26.1096 29.8685 25.7103C29.391 25.4684 28.7572 25.3202 27.7691 25.105C27.4682 25.0396 27.1232 24.9762 26.7387 24.9145C27.1628 26.0204 27.4986 28.037 27.7856 29.9009C27.8178 30.1116 27.8473 30.2993 27.8721 30.4575C28.8786 30.6792 29.6008 31.3628 30.323 32.7566C31.0342 34.1311 31.7407 37.3787 31.9486 38.3824C33.1069 38.0954 34.2606 37.1735 34.7905 36.6372C34.8062 36.6215 34.82 36.6068 34.8328 36.5939C34.555 35.6932 33.1584 31.245 31.9321 28.623L31.933 28.6221ZM35.0398 37.2287C34.6258 37.6133 33.5816 38.5002 32.3672 38.8856C32.3774 39.0503 32.3636 39.2233 32.3498 39.3944C32.3268 39.6575 32.2992 39.9832 32.4059 40.0669C32.4868 40.0789 32.7996 40.0872 33.9542 39.8921L34.0177 39.8811C35.095 39.6971 35.4492 39.5278 36.3058 39.1202C36.4484 39.0522 36.6038 38.9786 36.7768 38.8976C37.5257 38.5462 38.3472 37.7283 38.5211 37.4219C38.2148 37.1294 37.4824 37.18 37.0611 37.2922C36.7418 37.3759 35.7354 37.594 35.0398 37.2287Z" fill="#564B57"/>
</svg>
