<svg width="46" height="46" viewBox="0 0 46 46" fill="none" xmlns="http://www.w3.org/2000/svg">
<path d="M25.3167 12.7724L7.19081 10.6822C6.54221 10.6067 5.94973 11.0759 5.87521 11.7254L3.19985 34.9196L2.62025 39.9437C2.54481 40.5932 3.01493 41.1848 3.66445 41.2602L21.7894 43.3504C22.4389 43.4259 23.0305 42.9558 23.1059 42.3072L26.3618 14.0889C26.4363 13.4394 25.9671 12.8478 25.3176 12.7724H25.3167Z" fill="white"/>
<path d="M7.18435 12.2829L4.09131 39.0945L21.9421 41.1544L25.0351 14.3428L7.18435 12.2829Z" fill="white"/>
<path d="M7.18435 12.2829C12.7743 12.9481 19.3293 16.0917 21.1159 19.2584C21.391 19.7441 21.6136 20.2621 21.782 20.8104C22.2981 22.4839 22.3091 24.449 21.7581 26.7186H21.759C21.5593 27.496 21.3229 28.21 21.0533 28.8678C20.8611 29.3388 20.6513 29.7804 20.4259 30.1944C20.1701 30.6645 19.8932 31.0978 19.5997 31.499C16.9244 35.1265 12.6997 36.0189 8.07031 36.0189C7.07303 36.0189 5.73443 35.7199 4.52279 35.3565L4.09131 39.0954L21.9421 41.1553L25.0351 14.3437C25.0351 14.3437 7.30487 12.2976 7.18435 12.2838V12.2829Z" fill="#F2EDED"/>
<path d="M18.6018 39.1977C20.3622 39.0723 21.6876 37.5437 21.5623 35.7833C21.4369 34.0229 19.9082 32.6975 18.1479 32.8229C16.3875 32.9482 15.0621 34.4769 15.1874 36.2373C15.3128 37.9976 16.8415 39.3231 18.6018 39.1977Z" fill="#C7C2C2"/>
<path d="M18.5635 38.6611C20.0275 38.5568 21.1298 37.2855 21.0256 35.8215C20.9213 34.3575 19.65 33.2552 18.186 33.3594C16.722 33.4637 15.6197 34.735 15.7239 36.199C15.8282 37.6631 17.0995 38.7653 18.5635 38.6611Z" fill="#DAD5D5"/>
<path d="M18.3992 37.34C19.1293 37.34 19.7212 36.7481 19.7212 36.018C19.7212 35.2879 19.1293 34.696 18.3992 34.696C17.669 34.696 17.0771 35.2879 17.0771 36.018C17.0771 36.7481 17.669 37.34 18.3992 37.34Z" fill="#8B9194"/>
<path d="M32.0687 2.91364C32.629 2.57692 33.7762 2.6312 34.6806 2.84556C34.6245 2.86764 34.5904 2.8842 34.5812 2.88788C34.3844 2.98356 34.3025 3.22 34.3972 3.41688C34.492 3.61284 34.7238 3.69472 34.9244 3.60088H34.9262C34.9262 3.60088 34.9207 3.60916 34.917 3.61284C34.917 3.61284 33.1985 5.40224 32.5278 5.02964C31.8856 4.6736 31.5029 3.25312 32.0687 2.91272V2.91364Z" fill="#6A6565"/>
<path d="M34.3963 3.41687C34.3006 3.21999 34.3834 2.98355 34.5803 2.88787C34.5895 2.88327 34.6235 2.86763 34.6796 2.84555C35.0752 2.69099 36.5592 2.24111 38.022 3.54199C40.8252 6.03519 42.2761 11.5395 42.5557 12.6978C42.38 12.6435 42.1841 12.6491 42.0019 12.73C41.9191 12.7668 41.8455 12.8165 41.7829 12.8754C41.5106 11.7695 40.0883 6.43999 37.4957 4.13355C36.239 3.01575 34.9915 3.57143 34.9253 3.60087H34.9234C34.7229 3.69471 34.491 3.61283 34.3963 3.41687Z" fill="#C7C2C2"/>
<path d="M26.9537 7.12906C27.1487 7.04258 27.2426 6.81534 27.1607 6.61662C27.0779 6.41514 26.8497 6.31762 26.6482 6.39858C26.639 6.40226 26.6041 6.41698 26.5498 6.44366C26.9988 5.63038 27.7302 4.74442 28.3567 4.55582C28.9896 4.36538 29.7827 5.6037 29.6152 6.31854C29.4395 7.06558 26.9601 7.13366 26.9601 7.13366C26.9546 7.13366 26.95 7.13274 26.9445 7.13182H26.9463C26.9463 7.13182 26.9518 7.12906 26.9546 7.12722L26.9537 7.12906Z" fill="#6A6565"/>
<path d="M24.8174 9.38581C24.8376 7.42897 26.1679 6.63317 26.5497 6.44365C26.604 6.41697 26.639 6.40225 26.6482 6.39857C26.8506 6.31761 27.0787 6.41513 27.1606 6.61661C27.2416 6.81533 27.1487 7.04257 26.9536 7.12905C26.9509 7.12997 26.9481 7.13181 26.9453 7.13273H26.9435C26.8754 7.16309 25.627 7.71233 25.6095 9.39501C25.5727 12.857 28.5526 17.4873 29.1938 18.4423C29.1129 18.4506 29.0319 18.4708 28.9537 18.5058C28.7669 18.5886 28.6289 18.7348 28.5517 18.9078C27.8957 17.9418 24.7778 13.1495 24.8183 9.38673L24.8174 9.38581Z" fill="#C7C2C2"/>
<path d="M23.474 34.1293C24.8632 34.6693 25.5734 36.2931 26.0435 37.3667L26.1318 37.5673C26.6581 38.7559 27.8173 39.7624 29.4944 39.02C31.1624 38.2821 31.1412 36.5553 30.7364 35.6399L30.6546 35.455C30.1072 34.2185 28.6545 30.935 32.0189 29.4465C32.8773 29.0665 33.6777 29.0159 34.3971 29.2947C35.7863 29.8347 36.4966 31.4585 36.9667 32.5321L37.055 32.7327C37.5812 33.9213 38.7404 34.9278 40.4176 34.1854C42.0856 33.4475 42.0644 31.7207 41.6596 30.8053L39.2096 25.2697C39.3752 25.2697 39.5427 25.2356 39.7037 25.1638C39.8647 25.093 40.0027 24.9909 40.114 24.8685L42.564 30.4042C43.1242 31.6692 43.1445 34.0603 40.8178 35.0897C38.6218 36.0622 36.8903 34.8073 36.1497 33.1329L36.0596 32.9287C35.6548 32.005 35.0439 30.6075 34.0374 30.2165C33.5664 30.0334 33.0364 30.0767 32.4191 30.3508C30.3786 31.2543 30.5994 32.8845 31.5598 35.0538L31.6417 35.2388C32.202 36.5038 32.2222 38.8948 29.8956 39.9243C27.6995 40.8968 25.9681 39.6419 25.2275 37.9675L25.1373 37.7633C24.7325 36.8396 24.1216 35.4421 23.1152 35.0511C22.6441 34.868 22.1142 34.9122 21.4969 35.1854C21.4527 34.9646 21.2172 34.4292 21.0967 34.2801C21.955 33.9002 22.7554 33.8496 23.4749 34.1283L23.474 34.1293Z" fill="#C7C2C2"/>
<path d="M43.0471 13.133C42.9514 12.9141 42.7674 12.7632 42.5558 12.6979C42.3792 12.6436 42.1832 12.6491 42.0029 12.7291C41.9201 12.7659 41.8465 12.8165 41.783 12.8745C41.5576 13.0852 41.4693 13.4164 41.5769 13.7181C41.5769 13.72 41.5779 13.7209 41.5788 13.7237C41.6165 13.8506 41.9781 15.1221 41.6984 16.6217C41.3313 18.5932 40.0451 20.0799 37.8767 21.0395C35.7083 22 33.7431 21.9521 32.0365 20.8978C30.7577 20.1075 30.0613 19.0045 29.9757 18.8655C29.9748 18.8637 29.9739 18.8619 29.973 18.86C29.9721 18.8582 29.9711 18.8563 29.9702 18.8554C29.8166 18.5675 29.5047 18.4101 29.1919 18.4414C29.1109 18.4506 29.03 18.4699 28.9518 18.5049C28.765 18.5877 28.627 18.7349 28.5497 18.9069C28.4614 19.1047 28.4541 19.3366 28.5479 19.5491C28.6427 19.7635 29.5148 21.1591 31.0871 22.1711C32.4239 23.0313 34.5435 23.7903 37.3578 22.9237L38.0717 24.5337C38.2769 24.9983 38.7323 25.2724 39.2089 25.2697C39.3745 25.2687 39.5428 25.2356 39.7029 25.1648C39.8639 25.0939 40.0019 24.9918 40.1132 24.8685C40.4361 24.5171 40.5392 23.9955 40.334 23.5327L39.6201 21.9218C42.1547 20.4222 43.0177 18.343 43.2808 16.7753C43.589 14.9325 43.1419 13.3483 43.0471 13.1339V13.133ZM29.9969 18.9088C29.9932 18.8977 29.9877 18.8876 29.9831 18.8784C29.9914 18.8941 29.996 18.9051 29.9969 18.9088Z" fill="#FFB6C7"/>
<path d="M43.0471 13.133C43.1419 13.3474 43.5881 14.9316 43.2808 16.7744C43.0186 18.342 42.1556 20.4222 39.6201 21.9208L40.334 23.5318C40.5392 23.9954 40.4361 24.5162 40.1132 24.8676C40.001 24.99 39.8639 25.0921 39.7029 25.1638C39.5428 25.2347 39.3745 25.2678 39.2089 25.2687C38.7314 25.2706 38.2769 24.9964 38.0717 24.5327L37.3578 22.9227C34.5435 23.7894 32.4248 23.0304 31.0871 22.1702C29.5157 21.1582 28.6436 19.7634 28.5479 19.5482C28.4541 19.3356 28.4614 19.1038 28.5497 18.906C28.627 18.734 28.7641 18.5877 28.9518 18.504C28.9518 18.504 31.7734 24.3515 38.0644 21.6586C44.6019 18.8591 42.002 12.7291 42.002 12.7291C42.1832 12.6491 42.3792 12.6426 42.5549 12.6978C42.7656 12.7632 42.9496 12.915 43.0462 13.133H43.0471Z" fill="#FF4B72"/>
<path d="M12.0576 23.1904C11.9168 23.1904 11.7742 23.1822 11.6316 23.1656C9.63244 22.9347 8.19356 21.1204 8.42356 19.1213C8.53488 18.1525 9.01788 17.2859 9.78148 16.6796C10.5451 16.0733 11.501 15.801 12.4679 15.9132C13.4366 16.0255 14.3042 16.5076 14.9096 17.2712C15.5149 18.0348 15.7872 18.9888 15.6759 19.9576C15.5646 20.9263 15.0816 21.793 14.318 22.3992C13.6666 22.9163 12.8764 23.1904 12.0576 23.1904ZM8.72164 19.1562C8.51096 20.9907 9.83116 22.6559 11.6656 22.8684C12.5553 22.9715 13.4302 22.7212 14.1312 22.1646C14.8323 21.608 15.2748 20.8122 15.3778 19.9235C15.4809 19.0348 15.2306 18.159 14.675 17.4579C14.1193 16.7569 13.3226 16.3144 12.4338 16.2113C11.5451 16.1083 10.6693 16.3585 9.96824 16.9142C9.2672 17.4708 8.82468 18.2666 8.72164 19.1553V19.1562Z" fill="#C7C2C2"/>
<path d="M22.3892 19.5546C22.3836 19.5546 22.3781 19.5546 22.3717 19.5537L17.3006 18.9686C17.2188 18.9594 17.159 18.8848 17.1691 18.802C17.1783 18.7202 17.2546 18.6604 17.3347 18.6705L22.4057 19.2556C22.4876 19.2648 22.5474 19.3393 22.5373 19.4221C22.5281 19.4985 22.4637 19.5546 22.3882 19.5546H22.3892Z" fill="#C7C2C2"/>
<path d="M22.2216 21.0101C22.2161 21.0101 22.2106 21.0101 22.2042 21.0091L17.1322 20.424C17.0503 20.4148 16.9905 20.3403 17.0006 20.2575C17.0098 20.1756 17.0834 20.1158 17.1662 20.1259L22.2382 20.7111C22.3201 20.7203 22.3799 20.7948 22.3697 20.8776C22.3605 20.9539 22.2961 21.0101 22.2207 21.0101H22.2216Z" fill="#C7C2C2"/>
<path d="M22.0532 22.4664C22.0477 22.4664 22.0421 22.4664 22.0357 22.4655L16.9637 21.8804C16.8819 21.8712 16.8221 21.7966 16.8322 21.7138C16.8414 21.632 16.9159 21.5731 16.9978 21.5823L22.0697 22.1674C22.1516 22.1766 22.2114 22.2511 22.2013 22.3339C22.1921 22.4103 22.1277 22.4664 22.0523 22.4664H22.0532Z" fill="#C7C2C2"/>
<path d="M21.6128 26.2816C21.6073 26.2816 21.6018 26.2816 21.5953 26.2807L7.93151 24.7048C7.84963 24.6956 7.78983 24.621 7.79995 24.5382C7.80915 24.4564 7.88367 24.3975 7.96555 24.4067L21.6294 25.9826C21.7113 25.9918 21.7711 26.0664 21.7609 26.1492C21.7517 26.2255 21.6873 26.2816 21.6119 26.2816H21.6128Z" fill="#C7C2C2"/>
<path d="M21.4536 27.6626C21.4481 27.6626 21.4426 27.6626 21.4362 27.6616L7.77233 26.0857C7.69045 26.0765 7.63065 26.002 7.64077 25.9192C7.64997 25.8373 7.72449 25.7784 7.80637 25.7876L21.4702 27.3636C21.5521 27.3728 21.6119 27.4473 21.6018 27.5301C21.5926 27.6064 21.5282 27.6626 21.4527 27.6626H21.4536Z" fill="#C7C2C2"/>
<path d="M21.2945 29.0444C21.2889 29.0444 21.2834 29.0444 21.277 29.0435L7.61315 27.4666C7.53127 27.4574 7.47147 27.3829 7.48159 27.3001C7.49079 27.2182 7.56715 27.1584 7.64719 27.1685L21.311 28.7454C21.3929 28.7546 21.4527 28.8291 21.4426 28.9119C21.4334 28.9883 21.369 29.0444 21.2935 29.0444H21.2945Z" fill="#C7C2C2"/>
<path d="M21.1353 30.4253C21.1298 30.4253 21.1233 30.4253 21.1178 30.4244L7.45397 28.8475C7.37209 28.8383 7.31229 28.7638 7.32241 28.681C7.33161 28.5991 7.40613 28.5393 7.48801 28.5494L21.1518 30.1263C21.2337 30.1355 21.2926 30.21 21.2834 30.2928C21.2742 30.3692 21.2098 30.4253 21.1344 30.4253H21.1353Z" fill="#C7C2C2"/>
<path d="M20.9751 31.8062C20.9696 31.8062 20.9641 31.8062 20.9577 31.8053L7.29381 30.2284C7.21193 30.2192 7.15213 30.1447 7.16225 30.0619C7.17145 29.98 7.24781 29.9202 7.32785 29.9303L20.9917 31.5072C21.0736 31.5164 21.1334 31.5909 21.1233 31.6737C21.1141 31.7501 21.0497 31.8062 20.9742 31.8062H20.9751Z" fill="#C7C2C2"/>
<path d="M10.0263 18.5693L9.85791 20.0247L11.2388 20.1848L11.0797 21.5648L12.5351 21.7322L12.6952 20.3513L14.0752 20.5114L14.2436 19.055L12.8626 18.8959L13.0227 17.5149L11.5654 17.3466L11.4063 18.7275L10.0263 18.5693Z" fill="#FF4B72"/>
<path d="M21.8399 13.225C21.7277 13.1542 21.5998 13.1063 21.46 13.0907L20.4563 12.9748L20.5437 12.2213L20.5602 12.0704C20.6173 11.5727 20.2575 11.1191 19.7607 11.0621L18.55 10.9222C18.6337 10.7254 18.6917 10.5128 18.7184 10.2884C18.8591 9.07028 18.0146 7.96536 16.8167 7.7694C16.7799 7.76388 16.7441 7.75836 16.7082 7.75468C15.4533 7.60932 14.3189 8.51 14.1745 9.76396C14.1487 9.98844 14.157 10.2083 14.1929 10.419L12.9822 10.2792C12.4854 10.2221 12.0309 10.5818 11.9748 11.0786L11.9573 11.2304L11.8699 11.983L10.8662 11.8671C10.3933 11.8128 9.96091 12.1339 9.86983 12.5939C9.86523 12.6178 9.86063 12.6426 9.85787 12.6675L9.75391 13.5709L22.1564 15.0015L22.1813 14.7835L22.2604 14.0972C22.2631 14.0723 22.265 14.0475 22.265 14.0236C22.2769 13.6942 22.1067 13.3924 21.8399 13.2241V13.225ZM15.2886 9.89368C15.3622 9.25428 15.94 8.79612 16.5794 8.87064C17.2188 8.94424 17.6769 9.522 17.6024 10.1614C17.5288 10.8008 16.9511 11.259 16.3117 11.1844C15.6732 11.1108 15.2141 10.5331 15.2886 9.89368Z" fill="#0ABF7C"/>
<path d="M21.8399 13.225C21.7276 13.1542 21.5998 13.1063 21.4599 13.0907L20.4562 12.9748L20.5436 12.2213L20.5602 12.0704C20.6172 11.5727 20.2575 11.1191 19.7607 11.0621L18.55 10.9222C18.6337 10.7254 18.6917 10.5128 18.7183 10.2884C18.8591 9.07029 18.0145 7.96537 16.8167 7.76941L16.8084 7.80897C17.3181 7.90465 17.6934 8.35177 17.9078 8.82465C18.3669 9.83481 18.2464 11.086 17.6042 11.9913C17.1332 12.6555 16.4349 12.9343 15.6391 13.0925C14.8838 13.2434 13.9904 13.1183 13.2259 13.0346C12.1026 12.9122 10.9802 12.7898 9.85689 12.6675L9.75293 13.5709L22.1554 15.0015L22.1803 14.7835L22.2594 14.0972C22.2622 14.0723 22.264 14.0475 22.264 14.0236C22.276 13.6942 22.1058 13.3924 21.839 13.2241L21.8399 13.225Z" fill="#008D5C"/>
<path d="M16.7432 7.45751C16.0559 7.37747 15.3806 7.57067 14.8388 8.00031C14.2978 8.42995 13.9556 9.04451 13.8764 9.73083C13.8636 9.84675 13.858 9.96359 13.8599 10.0795L13.0172 9.98199C12.6961 9.94519 12.3805 10.0354 12.1266 10.2378C11.9122 10.408 11.766 10.6398 11.7043 10.8992C9.13108 10.6021 7.22576 10.3831 7.22576 10.3831C6.832 10.338 6.44376 10.4484 6.13096 10.6968C5.81908 10.9443 5.6222 11.2976 5.57712 11.6904L2.32216 39.9078C2.27616 40.3015 2.38748 40.6898 2.63588 41.0026C2.88336 41.3144 3.23664 41.5113 3.6304 41.5573L21.7553 43.6476C21.8133 43.654 21.8703 43.6577 21.9274 43.6577C22.6716 43.6577 23.3156 43.0983 23.404 42.3412L24.093 36.3612C24.4123 36.857 24.6634 37.4302 24.8622 37.8847L24.9523 38.0898C25.5595 39.4606 26.7822 40.5711 28.3756 40.5702C28.8872 40.5702 29.4364 40.4561 30.016 40.1994C32.5432 39.0807 32.5221 36.489 31.9149 35.1182L31.833 34.9333C30.7557 32.4981 30.947 31.3306 32.5396 30.6259C33.0805 30.3867 33.535 30.3444 33.9278 30.4971C34.8175 30.843 35.3989 32.1706 35.7835 33.0501L35.8736 33.2552C36.2959 34.2084 36.9804 34.9609 37.802 35.3731C38.7578 35.8533 39.8425 35.8506 40.9373 35.3657C43.4646 34.247 43.4434 31.6554 42.8371 30.2846L40.4598 24.9127C40.7653 24.4757 40.8269 23.908 40.608 23.4122L40.0008 22.0414C42.4903 20.4755 43.321 18.3512 43.5759 16.825C43.8997 14.8847 43.4268 13.2535 43.321 13.0134C43.2189 12.7806 43.0368 12.5939 42.8104 12.4807C42.4645 11.0961 40.9907 5.78219 38.2206 3.31843C36.7283 1.99179 35.2085 2.34047 34.6574 2.53459C33.7816 2.34047 32.5718 2.26135 31.9121 2.65787C31.6334 2.82531 31.4843 3.15375 31.4917 3.58339C31.5018 4.18783 31.8367 4.99283 32.3804 5.29367C32.4862 5.35255 32.604 5.37831 32.7291 5.37831C33.5442 5.37831 34.6896 4.27799 35.0999 3.85387C35.3833 3.74623 36.3208 3.49231 37.295 4.35895C39.7248 6.52003 41.1167 11.4779 41.4525 12.7972C41.2345 13.0852 41.1692 13.4651 41.2897 13.8129C41.2897 13.8138 41.2906 13.8156 41.2915 13.8166C41.3357 13.9674 41.6641 15.1607 41.4019 16.5683C41.0532 18.4377 39.8269 19.8499 37.7541 20.7662C35.6814 21.6835 33.8101 21.643 32.1936 20.6439C31.0206 19.9198 30.3665 18.929 30.2359 18.7183C30.234 18.7146 30.2322 18.711 30.2294 18.7073C30.05 18.3779 29.7207 18.17 29.3518 18.1433C28.5992 17.0034 25.8723 12.6417 25.9064 9.39871C25.9202 8.08679 26.7528 7.56515 27.0094 7.43451C27.6921 7.41243 29.6968 7.27075 29.9038 6.38939C30.0454 5.78495 29.6756 4.99559 29.2349 4.58159C28.9221 4.28719 28.578 4.17679 28.2671 4.27063C27.5302 4.49235 26.7748 5.44087 26.3296 6.22011C25.8162 6.49703 24.5356 7.38943 24.5144 9.38399C24.5043 10.362 24.7021 11.4071 25.0121 12.4366C24.3571 12.3611 22.7995 12.1817 20.8629 11.9582C20.8583 11.3565 20.4048 10.8367 19.793 10.7658L18.9502 10.6683C18.9788 10.5561 18.9999 10.442 19.0146 10.3252C19.1775 8.90835 18.1581 7.62219 16.7413 7.45935L16.7432 7.45751ZM28.4419 4.84379C28.5376 4.81527 28.6802 4.88059 28.8264 5.01767C29.1687 5.33967 29.4005 5.91651 29.3223 6.25139C29.268 6.48139 28.4529 6.71599 27.4906 6.80339C27.4906 6.79511 27.4906 6.78775 27.4906 6.77947C27.4906 6.77303 27.4906 6.76659 27.4906 6.75923C27.4906 6.71967 27.4869 6.68103 27.4796 6.64147C27.4786 6.63595 27.4768 6.63135 27.4759 6.62583C27.4676 6.58443 27.4556 6.54303 27.4391 6.50255C27.4216 6.45931 27.3995 6.41883 27.3747 6.38203C27.3664 6.37007 27.3563 6.35995 27.348 6.34799C27.3296 6.32407 27.3121 6.30015 27.291 6.27899C27.279 6.26703 27.2652 6.25691 27.2523 6.24587C27.2321 6.22839 27.2118 6.20999 27.1898 6.19527C27.175 6.18515 27.1594 6.17779 27.1438 6.16859C27.1254 6.15755 27.1079 6.14559 27.0886 6.13639C27.5329 5.47307 28.0619 4.95787 28.4419 4.84379ZM22.8078 42.2722C22.7508 42.7588 22.3101 43.1084 21.8234 43.0523L3.69848 40.9621C3.46388 40.9345 3.2532 40.8176 3.10508 40.6309C2.95696 40.4441 2.89072 40.2123 2.9174 39.9786L6.17328 11.7585C6.19996 11.5248 6.31772 11.3142 6.50356 11.166C6.69032 11.0179 6.92124 10.9517 7.15676 10.9784C7.15676 10.9784 9.05748 11.1973 11.6261 11.4936L11.6077 11.6509L10.9021 11.569C10.3676 11.5074 9.87628 11.8036 9.66376 12.2654L7.21932 11.9839C7.05556 11.9646 6.90652 12.0833 6.8872 12.248L3.79324 39.0604C3.77392 39.2251 3.8926 39.3742 4.05728 39.3926L21.908 41.4524C21.92 41.4534 21.931 41.4543 21.943 41.4543C22.093 41.4543 22.2227 41.342 22.2402 41.1884L22.92 35.3032C22.9495 35.3124 22.978 35.3197 23.0065 35.3308C23.208 35.409 23.3938 35.5396 23.565 35.7024L22.8078 42.2722ZM16.1994 35.1688C16.4267 34.581 16.8692 34.1173 17.4451 33.8624C17.7506 33.7272 18.0744 33.6591 18.3992 33.6591C18.6862 33.6591 18.9742 33.7125 19.2502 33.8192C19.838 34.0464 20.3017 34.489 20.5566 35.0649C20.8114 35.6408 20.827 36.282 20.5998 36.869C20.3726 37.4569 19.93 37.9206 19.3541 38.1754C18.7782 38.4302 18.137 38.4459 17.55 38.2186C16.9621 37.9914 16.4984 37.5489 16.2436 36.973C15.9888 36.397 15.9731 35.7558 16.2004 35.1679L16.1994 35.1688ZM16.9842 32.821C15.2206 33.6012 14.4211 35.6712 15.2012 37.4339C15.5794 38.2876 16.2675 38.9436 17.1388 39.2803C17.5482 39.4386 17.9741 39.5177 18.4001 39.5177C18.8812 39.5177 19.3615 39.4174 19.8141 39.2168C20.6679 38.8387 21.3238 38.1506 21.6606 37.2793C21.8988 36.6629 21.9531 36.0079 21.8335 35.374C22.0056 35.3124 22.1675 35.2737 22.3211 35.2553L21.678 40.8222L4.42344 38.8314L7.4484 12.615L9.53496 12.8561L9.45676 13.5378C9.43744 13.7025 9.55612 13.8506 9.7208 13.8699L22.1233 15.3005C22.1353 15.3014 22.1463 15.3024 22.1574 15.3024C22.2245 15.3024 22.2908 15.2794 22.3441 15.237C22.4067 15.1874 22.4462 15.1156 22.4554 15.0365L22.5336 14.3557L24.7048 14.6068L22.507 33.6564C22.0856 33.6582 21.6486 33.7456 21.196 33.9195C20.241 32.648 18.4994 32.1503 16.9842 32.821ZM42.2906 30.5274C42.804 31.6866 42.8242 33.8753 40.6972 34.8174C39.7708 35.2277 38.8636 35.2342 38.0734 34.8376C37.376 34.488 36.79 33.8394 36.4247 33.0142L36.3346 32.809C35.9104 31.8394 35.2692 30.3747 34.1468 29.9386C33.5976 29.7252 32.9931 29.7712 32.2985 30.0776C29.8964 31.1411 30.3923 33.1568 31.2865 35.1762L31.3684 35.3611C31.8818 36.5203 31.902 38.7099 29.775 39.6511C27.7684 40.5389 26.1833 39.3852 25.5025 37.8479L25.4123 37.6427C25.1161 36.9665 24.714 36.0493 24.116 35.408C24.1032 35.3915 24.0884 35.3758 24.0719 35.363C23.8244 35.1072 23.5447 34.8974 23.2246 34.7723C22.9982 34.6849 22.7636 34.6408 22.5162 34.6408C22.253 34.6408 21.977 34.6904 21.6845 34.7907C21.6394 34.673 21.5851 34.5469 21.529 34.4319C22.1932 34.201 22.8096 34.1927 23.3662 34.4089C24.6395 34.9039 25.3203 36.4587 25.7702 37.4882L25.8585 37.6896C26.175 38.4045 26.6654 38.9703 27.2394 39.2822C27.946 39.6667 28.7676 39.6704 29.6167 39.295C31.4843 38.4689 31.4632 36.5406 31.0114 35.5194L30.9296 35.3344C30.6683 34.7438 30.1807 33.6435 30.1706 32.5432C30.1577 31.2368 30.8026 30.3131 32.1412 29.7215C32.9241 29.3747 33.6463 29.3259 34.2894 29.5752C35.5627 30.0702 36.2435 31.625 36.6934 32.6536L36.7817 32.855C37.3401 34.1164 38.6594 35.293 40.5399 34.4604C42.4075 33.6343 42.3863 31.706 41.9346 30.6848L39.6429 25.5061C39.6429 25.5061 39.6512 25.5024 39.6548 25.5015C39.7128 25.484 39.7698 25.4638 39.825 25.4389C39.8812 25.4141 39.9345 25.3856 39.986 25.3552C39.9906 25.3524 39.9952 25.3506 39.9989 25.3488L42.2906 30.5274ZM28.2754 19.6705C28.3821 19.9116 29.2717 21.3578 30.9259 22.4232C32.2277 23.2604 34.3584 24.0727 37.1911 23.2852L37.7983 24.6551C38.0172 25.151 38.4791 25.4877 39.0081 25.5558L41.3854 30.9276C41.7432 31.7363 41.7644 33.2626 40.2961 33.9121C38.4404 34.7337 37.5563 33.1246 37.3291 32.6131L37.2408 32.4125C36.7513 31.2929 36.0107 29.601 34.5047 29.0159C33.7089 28.7068 32.8312 28.7592 31.8965 29.1723C30.3371 29.8623 29.5542 30.9985 29.5689 32.5487C29.5808 33.7723 30.0997 34.9462 30.3794 35.5764L30.4613 35.7613C30.8192 36.57 30.8403 38.0963 29.372 38.7458C28.6903 39.0476 28.0684 39.0503 27.5237 38.7541C27.0656 38.5048 26.6681 38.0402 26.405 37.4468L26.3167 37.2462C25.9165 36.3317 25.3488 35.0345 24.3322 34.2718L26.4492 15.9215C27.1658 17.331 27.8834 18.4515 28.2174 18.9511C28.1548 19.1894 28.1723 19.4424 28.2726 19.6696L28.2754 19.6705ZM32.6739 4.76835C32.373 4.60091 32.1016 4.04247 32.0943 3.57143C32.0906 3.37087 32.1394 3.22183 32.224 3.17031C32.4411 3.03967 32.8211 2.97343 33.2728 2.97343C33.5276 2.97343 33.8055 2.99459 34.0898 3.03691C34.0833 3.05623 34.0815 3.07739 34.0769 3.09763C34.0732 3.11695 34.0677 3.13535 34.0649 3.15467C34.0612 3.17951 34.0622 3.20527 34.0612 3.23103C34.0612 3.24943 34.0585 3.26783 34.0594 3.28623C34.0612 3.31475 34.0668 3.34235 34.0723 3.37087C34.075 3.38651 34.076 3.40307 34.0796 3.41871C34.0907 3.46287 34.1063 3.50611 34.1266 3.54843C34.1486 3.59351 34.1753 3.63491 34.2038 3.67263C34.213 3.68459 34.225 3.69471 34.2351 3.70667C34.2563 3.73059 34.2784 3.75451 34.3023 3.77475C34.306 3.77751 34.3087 3.78211 34.3124 3.78487C33.6012 4.43807 32.879 4.88243 32.672 4.76835H32.6739ZM37.6962 3.90999C37.008 3.29819 36.3217 3.13535 35.7862 3.13535C35.2968 3.13535 34.9334 3.27151 34.8092 3.32487C34.8055 3.32671 34.8009 3.32855 34.7972 3.33039C34.7844 3.33591 34.7715 3.33959 34.7586 3.34051C34.72 3.34327 34.6841 3.32395 34.6666 3.28715C34.6436 3.23931 34.6638 3.18227 34.7089 3.16019C34.7163 3.15651 34.7439 3.14363 34.789 3.12615C35.1652 2.97895 36.4974 2.58887 37.8231 3.76739C40.32 5.98827 41.734 10.7272 42.1655 12.3749C42.1444 12.3777 42.1223 12.3823 42.102 12.3869C42.091 12.3887 42.0809 12.3906 42.0698 12.3933C42.0505 12.3979 42.0312 12.4044 42.011 12.4099C41.9999 12.4136 41.988 12.4163 41.9769 12.42C41.5436 10.7888 40.124 6.07015 37.6962 3.90999ZM28.8246 19.0311C28.8347 19.009 28.8476 18.9879 28.8605 18.9676C28.9028 18.9014 28.9589 18.8471 29.0261 18.8076C29.0417 18.7984 29.0574 18.7882 29.0748 18.78C29.0978 18.7698 29.1218 18.7616 29.1466 18.7551C29.1503 18.7542 29.1549 18.7542 29.1595 18.7524C29.1806 18.7478 29.2018 18.7432 29.2239 18.7404H29.2257C29.4244 18.722 29.614 18.8214 29.7078 18.9971C29.7087 18.9989 29.7096 19.0008 29.7115 19.0035C29.7124 19.0063 29.7142 19.0081 29.7161 19.01C29.717 19.0118 29.7179 19.0146 29.7188 19.0173V19.0192C29.7326 19.0541 29.7538 19.0836 29.7768 19.1093C29.9967 19.447 30.7014 20.4249 31.8808 21.1536C32.8238 21.7359 33.8404 22.0276 34.9205 22.0276C35.8966 22.0276 36.9252 21.7902 37.9998 21.3136C40.2639 20.3118 41.608 18.7524 41.9944 16.6768C42.252 15.2941 41.988 14.0926 41.8941 13.7347C41.8941 13.7264 41.8923 13.719 41.8904 13.7108C41.8886 13.7006 41.8858 13.6905 41.8822 13.6804C41.8803 13.6749 41.8794 13.6694 41.8776 13.6638C41.8739 13.6546 41.8702 13.6454 41.8665 13.6353C41.8647 13.6307 41.8638 13.627 41.8638 13.6261C41.8638 13.6234 41.8619 13.6215 41.861 13.6188C41.7957 13.4348 41.8454 13.2296 41.987 13.0971C41.987 13.0971 41.9889 13.0962 41.9889 13.0953C41.9999 13.0852 42.011 13.0778 42.0229 13.0686C42.056 13.0428 42.0901 13.0208 42.125 13.0051C42.2327 12.9573 42.355 12.9508 42.4682 12.9858C42.6053 13.0281 42.7166 13.1266 42.7736 13.2563C42.8491 13.4265 43.2806 14.9601 42.9852 16.7265C42.7433 18.1737 41.9364 20.205 39.4681 21.6651C39.3374 21.7424 39.285 21.9052 39.3466 22.045L40.0606 23.656C40.2105 23.9964 40.1452 24.3938 39.8922 24.6689C39.848 24.7167 39.8002 24.76 39.7487 24.7968C39.6972 24.8336 39.642 24.8658 39.5831 24.8915C39.5224 24.9182 39.4607 24.9384 39.3972 24.9513C39.3365 24.9642 39.273 24.9706 39.2096 24.9706H39.2059C38.8342 24.9706 38.4975 24.7517 38.3475 24.4122L37.6336 22.8022C37.572 22.6633 37.4165 22.5915 37.2711 22.6375C34.5304 23.4812 32.4853 22.713 31.2516 21.9199C29.7446 20.9502 28.9 19.5988 28.8246 19.4286C28.7685 19.3007 28.7676 19.159 28.8246 19.0311ZM26.6828 6.71323C26.7252 6.69207 26.7528 6.68011 26.7601 6.67735C26.7721 6.67275 26.784 6.66999 26.796 6.67091C26.8126 6.67091 26.8282 6.67643 26.842 6.68471C26.8457 6.68655 26.8484 6.68931 26.8521 6.69115C26.865 6.70127 26.877 6.71415 26.8834 6.73071C26.9027 6.77855 26.8797 6.83375 26.8291 6.85675C26.8264 6.85767 26.8245 6.85859 26.8218 6.86043C26.6562 6.93311 25.3295 7.57251 25.3102 9.39227C25.2762 12.6408 27.8181 16.871 28.7308 18.2832C28.7179 18.2905 28.7068 18.3006 28.6949 18.3089C28.6682 18.3255 28.6424 18.3439 28.6176 18.3632C28.6029 18.3742 28.5863 18.3834 28.5716 18.3954C26.4676 15.1 26.002 13.4964 25.7978 12.9094C25.7996 12.903 25.6819 12.5635 25.6819 12.5635C25.335 11.4926 25.1087 10.4006 25.1188 9.38951C25.1372 7.61759 26.3204 6.89263 26.6828 6.71323ZM20.8077 12.5543C23.1068 12.8202 24.8704 13.0226 25.2191 13.0631C25.439 13.6988 25.6948 14.3216 25.9643 14.9132L23.7701 33.9333C23.7085 33.9048 23.6478 33.8744 23.5834 33.8496C23.427 33.7888 23.266 33.7456 23.1031 33.7134L25.3341 14.3778C25.3507 14.2333 25.2624 14.1018 25.1299 14.0585C25.1271 14.0585 25.1244 14.0576 25.1207 14.0567C25.1041 14.0521 25.0876 14.0475 25.0701 14.0456L22.541 13.7531C22.4389 13.2554 22.0267 12.8552 21.495 12.7935L20.7893 12.7116L20.8077 12.5543ZM19.7267 11.3611C20.0607 11.3997 20.3017 11.7033 20.2631 12.0373L20.1591 12.9407C20.1398 13.1054 20.2585 13.2535 20.4232 13.2728L21.4269 13.3888C21.5879 13.4072 21.7323 13.4881 21.8344 13.616C21.9366 13.7439 21.9816 13.903 21.9632 14.064L21.8933 14.6694L10.087 13.3078L10.1569 12.7024C10.1955 12.3685 10.4982 12.1284 10.8331 12.1661L11.8368 12.282C12.0006 12.3013 12.1496 12.1836 12.1689 12.0189L12.2738 11.1145C12.2922 10.9544 12.3722 10.81 12.5001 10.7079C12.628 10.6058 12.789 10.5598 12.9491 10.5782L14.1598 10.718C14.2546 10.729 14.3475 10.695 14.4119 10.626C14.4772 10.557 14.5057 10.4622 14.4892 10.3684C14.456 10.1807 14.4505 9.98935 14.4726 9.79891C14.5333 9.27175 14.7955 8.79979 15.2114 8.47043C15.6272 8.14015 16.1461 7.99203 16.6742 8.05367C17.7625 8.17879 18.5464 9.16687 18.4212 10.2543C18.3982 10.4466 18.3486 10.6324 18.275 10.8054C18.2382 10.8928 18.2437 10.9922 18.2915 11.074C18.3394 11.1559 18.4222 11.2102 18.516 11.2212L19.7267 11.3611Z" fill="#564B57"/>
<path d="M16.6142 8.57254C16.2269 8.52746 15.8423 8.63602 15.535 8.87982C15.2287 9.1227 15.0355 9.47046 14.9904 9.85962C14.9453 10.2488 15.0548 10.6315 15.2977 10.9379C15.5406 11.2442 15.8892 11.4383 16.2775 11.4825C16.3354 11.4889 16.3925 11.4926 16.4495 11.4926C16.778 11.4926 17.0954 11.3831 17.3566 11.1752C17.663 10.9323 17.8562 10.5837 17.9013 10.1954C17.9464 9.80626 17.8378 9.42354 17.594 9.11626C17.3511 8.8099 17.0024 8.6167 16.6142 8.57162V8.57254ZM17.3051 10.1273C17.2794 10.3564 17.1653 10.5625 16.984 10.706C16.8028 10.8495 16.5774 10.9149 16.3465 10.8873C16.1174 10.8606 15.9122 10.7465 15.7678 10.5653C15.6243 10.384 15.5599 10.1586 15.5866 9.92862C15.6123 9.69954 15.7264 9.49346 15.9076 9.34994C16.0622 9.22758 16.249 9.16318 16.4431 9.16318C16.4771 9.16318 16.5112 9.16502 16.5452 9.1687C16.7743 9.19538 16.9804 9.30946 17.1239 9.48978C17.2674 9.67102 17.3318 9.89734 17.3051 10.1273Z" fill="#564B57"/>
<path d="M11.6152 23.3155C11.7633 23.333 11.9114 23.3413 12.0586 23.3413C12.9115 23.3413 13.7339 23.0561 14.412 22.5179C15.2069 21.8868 15.7092 20.9843 15.8251 19.9759C15.9419 18.9676 15.6586 17.974 15.0275 17.1791C14.3963 16.3843 13.4938 15.8819 12.4855 15.7651C11.4781 15.6492 10.4845 15.9316 9.6887 16.5627C8.89382 17.1939 8.3915 18.0964 8.27558 19.1047C8.03638 21.1857 9.53414 23.0745 11.6152 23.3146V23.3155ZM8.87082 19.1737C8.96926 18.3245 9.39154 17.5637 10.0613 17.0329C10.7311 16.5011 11.5673 16.2628 12.4165 16.3613C13.2657 16.4597 14.0265 16.882 14.5573 17.5517C15.0882 18.2215 15.3274 19.0578 15.2289 19.9069C15.1305 20.7561 14.7082 21.5169 14.0385 22.0478C13.3687 22.5795 12.5324 22.8178 11.6833 22.7194C9.93066 22.517 8.66934 20.9263 8.87082 19.1737Z" fill="#564B57"/>
<path d="M9.8237 20.3228L10.9065 20.4479L10.7814 21.5308C10.7722 21.6099 10.7952 21.689 10.844 21.7516C10.8937 21.8141 10.9654 21.8537 11.0445 21.8629L12.5009 22.0303C12.5129 22.0313 12.5239 22.0322 12.5359 22.0322C12.6858 22.0322 12.8155 21.9199 12.833 21.7663L12.9581 20.6835L14.041 20.8086C14.2047 20.827 14.3547 20.7101 14.3731 20.5455L14.5415 19.0891C14.5507 19.01 14.5277 18.9308 14.4789 18.8683C14.4292 18.8057 14.3575 18.7662 14.2783 18.757L13.1955 18.6319L13.3206 17.549C13.3399 17.3843 13.2213 17.2353 13.0575 17.2169L11.6002 17.0485C11.5211 17.0393 11.442 17.0623 11.3794 17.1111C11.3169 17.1599 11.2773 17.2325 11.2681 17.3116L11.143 18.3945L10.0611 18.2703C9.89638 18.2519 9.74826 18.3697 9.72894 18.5334L9.56058 19.9898C9.55138 20.0689 9.57438 20.148 9.62314 20.2106C9.67282 20.2731 9.74458 20.3127 9.8237 20.3219V20.3228ZM10.2901 18.9014L11.3721 19.0256C11.5386 19.0449 11.6849 18.9263 11.7042 18.7625L11.8293 17.6796L12.6904 17.779L12.5653 18.8619C12.546 19.0265 12.6647 19.1756 12.8284 19.194L13.9113 19.3191L13.8119 20.1793L12.7291 20.0542C12.649 20.045 12.5708 20.068 12.5083 20.1167C12.4457 20.1664 12.4061 20.2382 12.3969 20.3173L12.2718 21.4001L11.4116 21.3017L11.5367 20.2189C11.5561 20.0542 11.4374 19.9051 11.2736 19.8867L10.1908 19.7616L10.2901 18.9014Z" fill="#564B57"/>
<path d="M17.2832 19.1176L22.3542 19.7027C22.3662 19.7036 22.3772 19.7045 22.3892 19.7045C22.5392 19.7045 22.6689 19.5923 22.6864 19.4387C22.7057 19.274 22.587 19.1249 22.4223 19.1065L17.3513 18.5214C17.1875 18.503 17.0376 18.6208 17.0192 18.7855C16.9998 18.9501 17.1185 19.0992 17.2832 19.1176Z" fill="#564B57"/>
<path d="M17.1157 20.573L22.1877 21.1581C22.1996 21.1591 22.2107 21.16 22.2226 21.16C22.3726 21.16 22.5023 21.0477 22.5198 20.8941C22.5391 20.7294 22.4204 20.5804 22.2558 20.562L17.1838 19.9769C17.02 19.9585 16.8701 20.0762 16.8517 20.2409C16.8324 20.4056 16.951 20.5546 17.1157 20.573Z" fill="#564B57"/>
<path d="M16.9473 22.0294L22.0192 22.6145C22.0312 22.6154 22.0422 22.6164 22.0542 22.6164C22.2041 22.6164 22.3339 22.5041 22.3513 22.3505C22.3707 22.1858 22.252 22.0368 22.0873 22.0184L17.0153 21.4332C16.8516 21.4139 16.7016 21.5326 16.6832 21.6973C16.6639 21.862 16.7826 22.011 16.9473 22.0294Z" fill="#564B57"/>
<path d="M7.91405 24.8547L21.5779 26.4307C21.5899 26.4316 21.6009 26.4325 21.6129 26.4325C21.7628 26.4325 21.8925 26.3203 21.91 26.1666C21.9293 26.0019 21.8107 25.8529 21.646 25.8345L7.98213 24.2585C7.81837 24.2401 7.66841 24.3579 7.65001 24.5226C7.63069 24.6873 7.74937 24.8363 7.91405 24.8547Z" fill="#564B57"/>
<path d="M7.75487 26.2347L21.4187 27.8107C21.4307 27.8116 21.4417 27.8125 21.4537 27.8125C21.6036 27.8125 21.7334 27.7003 21.7508 27.5466C21.7702 27.382 21.6515 27.2329 21.4868 27.2145L7.82295 25.6386C7.65919 25.6202 7.50923 25.7379 7.49083 25.9026C7.47151 26.0673 7.59019 26.2163 7.75487 26.2347Z" fill="#564B57"/>
<path d="M7.59569 27.6156L21.2595 29.1925C21.2715 29.1934 21.2825 29.1944 21.2945 29.1944C21.4445 29.1944 21.5742 29.0821 21.5917 28.9285C21.611 28.7638 21.4923 28.6148 21.3276 28.5964L7.66377 27.0195C7.50001 27.0011 7.35005 27.1188 7.33165 27.2826C7.31233 27.4473 7.43101 27.5963 7.59477 27.6147L7.59569 27.6156Z" fill="#564B57"/>
<path d="M7.43651 28.9966L21.1004 30.5734C21.1123 30.5744 21.1234 30.5753 21.1353 30.5753C21.2853 30.5753 21.415 30.463 21.4325 30.3094C21.4518 30.1447 21.3331 29.9957 21.1684 29.9773L7.50459 28.4004C7.34083 28.3811 7.19087 28.4998 7.17247 28.6635C7.15315 28.8282 7.27183 28.9772 7.43559 28.9956L7.43651 28.9966Z" fill="#564B57"/>
<path d="M20.9761 31.9562C21.1261 31.9562 21.2558 31.844 21.2733 31.6903C21.2926 31.5256 21.1739 31.3766 21.0093 31.3582L7.34541 29.7813C7.18165 29.7629 7.03169 29.8807 7.01329 30.0444C6.99397 30.2091 7.11265 30.3582 7.27641 30.3766L20.9403 31.9534C20.9522 31.9544 20.9633 31.9553 20.9752 31.9553L20.9761 31.9562Z" fill="#564B57"/>
<path d="M17.8142 37.5314C18.0037 37.605 18.2015 37.6409 18.3993 37.6409C18.622 37.6409 18.8455 37.5939 19.0553 37.501C19.4518 37.3253 19.7554 37.0061 19.9118 36.6022C20.0682 36.1983 20.0572 35.7576 19.8824 35.3611C19.5208 34.5432 18.5603 34.1725 17.7425 34.534C16.9246 34.8956 16.5538 35.8561 16.9154 36.6739C17.0911 37.0705 17.4103 37.3741 17.8142 37.5305V37.5314ZM17.9853 35.0833C18.1197 35.0235 18.2595 34.9959 18.3975 34.9959C18.7903 34.9959 19.1648 35.2231 19.334 35.6049C19.4444 35.8542 19.4509 36.1321 19.3525 36.3869C19.254 36.6417 19.0626 36.8423 18.8124 36.9536C18.2963 37.1818 17.6919 36.9481 17.4637 36.4329C17.2355 35.9177 17.4692 35.3123 17.9844 35.0842L17.9853 35.0833Z" fill="#564B57"/>
</svg>
