<svg width="108" height="108" viewBox="0 0 108 108" fill="none" xmlns="http://www.w3.org/2000/svg">
<g filter="url(#filter0_d_101_335)">
<path fill-rule="evenodd" clip-rule="evenodd" d="M74.9789 86.5828C74.9894 86.7141 75.0472 86.8296 75.1471 86.9242C75.1996 86.9767 75.2364 87.003 75.2522 87.003L76.0614 87.0029H77.9268C77.9268 87.0029 77.9793 86.9819 78.0319 86.9346C78.1264 86.8349 78.1843 86.7141 78.2 86.5775V81.5988L80.738 81.5935V86.483V86.4832C80.738 86.5618 80.738 86.6038 80.7275 86.6195C80.7327 86.651 80.7537 86.6983 80.7853 86.7613C80.8168 86.8244 80.8536 86.8821 80.9061 86.9346C80.9587 86.9819 80.9955 87.0029 81.0112 87.0029L82.2723 87.0029H83.5597C83.5597 87.0029 83.6122 86.9819 83.6648 86.9346C83.7646 86.8348 83.8171 86.714 83.8329 86.5775V81.5987H86.3709V86.4829V86.4831C86.3709 86.5618 86.3709 86.6037 86.3604 86.6195C86.3656 86.651 86.3866 86.6983 86.4182 86.756C86.4497 86.8191 86.4917 86.8768 86.539 86.9293C86.5916 86.9766 86.6283 86.9976 86.6441 86.9976H87.4428C87.4428 86.9976 87.4953 86.9766 87.5479 86.9293C87.5952 86.8768 87.6372 86.8191 87.6687 86.756C87.7003 86.693 87.7213 86.651 87.7265 86.6195C87.7265 86.6146 87.726 86.6072 87.7253 86.597C87.7238 86.5743 87.7213 86.5374 87.7213 86.4829V81.5987H90.2593V86.5827C90.2698 86.714 90.3223 86.8296 90.4274 86.9241C90.4799 86.9766 90.5167 87.0029 90.5325 87.0029H91.2892C91.2892 87.0029 91.3365 86.9819 91.3943 86.9346C91.4415 86.8821 91.4836 86.8243 91.5151 86.7613L91.5152 86.7612L91.5152 86.7611C91.5467 86.6982 91.5676 86.6562 91.5729 86.6247C91.5729 86.6199 91.5724 86.6125 91.5717 86.6023V86.6022C91.5702 86.5794 91.5676 86.5426 91.5676 86.4882V81.604H94.1004L94.0846 86.5827C94.0951 86.714 94.1529 86.8296 94.2527 86.9241C94.3105 86.9766 94.3421 87.0029 94.3578 87.0029H95.1618V86.9976H96.1181V84.4032C96.1181 84.0199 96.1654 83.6627 96.26 83.3371C96.3598 83.0063 96.4912 82.7069 96.6541 82.4443C96.8223 82.1765 97.0219 81.9454 97.2531 81.7458C97.4896 81.5462 97.7365 81.3782 97.9993 81.2521C98.2515 81.1314 98.5142 81.0421 98.7822 80.9791C99.0502 80.916 99.3287 80.8845 99.6072 80.8845H99.6807C99.933 80.8845 100.185 80.9108 100.437 80.9633C100.705 81.0211 100.968 81.1103 101.226 81.2259C101.494 81.3519 101.746 81.52 101.982 81.7248C102.219 81.9296 102.424 82.1712 102.597 82.4496C102.77 82.7279 102.912 83.0378 103.012 83.3844C103.112 83.731 103.17 84.1091 103.18 84.5188V87.192C103.186 87.5596 103.112 87.901 102.949 88.2108C102.865 88.3631 102.76 88.5154 102.644 88.6572C102.529 88.799 102.392 88.9303 102.229 89.0511C101.872 89.3452 101.462 89.5343 101.005 89.6131C100.816 89.6498 100.616 89.6656 100.416 89.6656C100.164 89.6656 99.9225 89.6393 99.6913 89.5868H99.6597L97.1743 88.9513H95.6452V88.9566H94.3631C94.0163 88.9566 93.6905 88.9093 93.3857 88.8095C93.081 88.715 92.8918 88.6362 92.8182 88.5837C92.7342 88.6414 92.5398 88.715 92.2402 88.8095C91.9407 88.9093 91.6149 88.9566 91.2681 88.9566H90.5272C90.1804 88.9566 89.8547 88.9093 89.5499 88.8095C89.2451 88.715 89.056 88.6362 88.9824 88.5837C88.8983 88.6414 88.7039 88.715 88.4044 88.8095C88.1049 88.9093 87.7791 88.9566 87.4323 88.9566H86.6494C86.3026 88.9566 85.9768 88.9093 85.6773 88.8095C85.3778 88.715 85.1833 88.6362 85.0993 88.5837C85.0257 88.6414 84.8365 88.715 84.5318 88.8095C84.227 88.9093 83.9012 88.9566 83.5544 88.9566L82.7505 88.9566H81.0165C80.6697 88.9566 80.3439 88.9093 80.0444 88.8148C79.7449 88.7203 79.5504 88.6415 79.4664 88.5837C79.3928 88.6415 79.2036 88.715 78.8989 88.8148C78.5941 88.9093 78.2683 88.9566 77.9215 88.9566L76.5395 88.9566H75.2574C74.9106 88.9566 74.5848 88.9094 74.2801 88.8148C73.9753 88.7203 73.7861 88.6415 73.7126 88.5838C73.6285 88.6415 73.4341 88.715 73.1346 88.8148C72.8351 88.9094 72.5093 88.9566 72.1572 88.9566H71.4163C71.0695 88.9566 70.7437 88.9094 70.439 88.8148C70.1342 88.7203 69.945 88.6415 69.8715 88.5838C69.7874 88.6415 69.593 88.715 69.2935 88.8148C68.994 88.9094 68.6682 88.9566 68.3214 88.9566H67.5384C67.1916 88.9566 66.8658 88.9094 66.5663 88.8148C66.2668 88.7203 66.0724 88.6415 65.9883 88.5838C65.9148 88.6415 65.7256 88.715 65.4208 88.8148C65.1161 88.9094 64.7903 88.9566 64.4435 88.9566L63.6396 88.9567H54.5701V88.9619H53.7872C53.8082 89.0985 53.8187 89.2665 53.8187 89.4503C53.8187 89.5501 53.8135 89.6499 53.8029 89.7497C53.7662 90.0175 53.6926 90.2696 53.5875 90.506C53.4509 90.7791 53.288 91.0259 53.0883 91.2517C52.8571 91.5196 52.5944 91.7559 52.3001 91.9502C52.0059 92.1445 51.6853 92.3126 51.3438 92.4386C51.0023 92.5699 50.6502 92.6645 50.2771 92.7275C49.9356 92.7853 49.5993 92.8115 49.2525 92.8115H49.1579C48.7165 92.801 48.2856 92.7432 47.8548 92.6382C47.4239 92.5384 47.014 92.3809 46.6199 92.176C46.2416 91.9765 45.9001 91.7349 45.59 91.446C45.28 91.1572 45.0173 90.8211 44.8018 90.4324C44.6337 90.1331 44.5023 89.8075 44.4077 89.4503C44.3132 89.0985 44.2554 88.7203 44.2449 88.3107V88.1636C44.2449 87.8013 44.2816 87.4284 44.3499 87.0293C44.4183 86.5829 44.5864 85.9999 44.8491 85.2804L47.3188 85.6638C46.951 86.7036 46.7723 87.5072 46.7723 88.0744V88.2004C46.7933 88.7729 46.9142 89.256 47.1244 89.6394C47.2452 89.86 47.3818 90.0385 47.5395 90.1856C47.6971 90.3327 47.8758 90.4587 48.0649 90.5637C48.2436 90.6583 48.4328 90.7265 48.6272 90.7791C48.8269 90.8263 49.0213 90.8526 49.2157 90.8578H49.2893C49.6098 90.8578 49.9198 90.8001 50.2141 90.6845C50.5188 90.5637 50.7763 90.3852 50.9812 90.1488C51.0653 90.0543 51.1389 89.9493 51.1914 89.8337C51.2387 89.7444 51.2702 89.6447 51.2807 89.5396C51.286 89.5186 51.2913 89.4976 51.2913 89.4714C51.2913 89.4031 51.2807 89.3348 51.2597 89.2613C51.2282 89.1405 51.1651 89.0144 51.0758 88.8832C50.9865 88.7519 50.8499 88.6048 50.666 88.4525C50.5083 88.3265 50.3192 88.2004 50.0932 88.0691C49.8673 87.9378 49.4259 87.733 48.7743 87.4494L50.1825 85.8791L50.4978 85.9579L50.5451 85.9736C50.7132 86.0366 50.8708 86.1049 51.0285 86.1732L51.0285 86.1732C51.1196 86.2126 51.2088 86.2503 51.2964 86.2872L51.2965 86.2873L51.2971 86.2876C51.3609 86.3145 51.4238 86.341 51.4857 86.3675C51.7011 86.4673 51.906 86.5566 52.0952 86.6301C52.2844 86.7089 52.484 86.7719 52.6837 86.8297C52.8834 86.8822 53.1041 86.9242 53.3405 86.961C53.5043 86.9828 53.7513 86.9971 54.0815 87.0038V87.003H55.3951C55.3951 87.003 55.4214 87.0082 55.4319 87.0082C55.4687 87.0082 55.4897 86.9872 55.4897 86.94C55.4897 86.9189 55.4792 86.8769 55.4634 86.8244C55.4109 86.6774 55.3636 86.4778 55.3268 86.2205C55.29 85.9631 55.269 85.6953 55.269 85.4064C55.269 85.3814 55.2678 85.354 55.2666 85.3253V85.3252C55.2652 85.2938 55.2637 85.2608 55.2637 85.2279C55.2637 84.9968 55.2638 84.7657 55.2795 84.5189C55.2848 84.1092 55.3426 83.7311 55.4424 83.3845C55.5475 83.0379 55.6841 82.728 55.8628 82.4496C56.0362 82.1713 56.2411 81.935 56.4776 81.7249C56.714 81.5201 56.9662 81.352 57.2342 81.226C57.4812 81.1104 57.7439 81.0264 58.0224 80.9686C58.3009 80.9109 58.5846 80.8846 58.8684 80.8846C59.1521 80.8846 59.4359 80.9109 59.7144 80.9634C59.9929 81.0212 60.2609 81.1052 60.5131 81.226L60.5183 81.2312C60.7863 81.3573 61.0385 81.5253 61.275 81.7301C61.5115 81.935 61.7164 82.1766 61.8898 82.4549C62.0632 82.7332 62.1998 83.0431 62.3049 83.3897C62.41 83.7363 62.4625 84.1145 62.473 84.5241C62.473 84.6839 62.4758 84.8396 62.4785 84.9903V84.9905V84.9908V84.991V84.9913C62.4811 85.1324 62.4836 85.2692 62.4836 85.4012C62.4836 85.6953 62.4625 85.9631 62.4258 86.2205C62.389 86.4725 62.3312 86.6774 62.2576 86.8244C62.2313 86.8769 62.2156 86.9137 62.2156 86.94C62.2156 86.9872 62.2418 87.0082 62.2944 87.0082H62.2944C62.3154 87.0082 62.3364 87.0082 62.3574 87.003L63.1614 87.003H64.4487C64.4487 87.003 64.5013 86.9819 64.5538 86.9347C64.6484 86.8349 64.7062 86.7141 64.722 86.5776V81.5988H67.2599V86.4883C67.2599 86.567 67.2599 86.6091 67.2494 86.6248C67.2547 86.6563 67.2757 86.7036 67.3072 86.7666C67.3388 86.8296 67.3808 86.8874 67.4281 86.9399C67.4806 86.9872 67.5174 87.0082 67.5332 87.0082H68.3319C68.3319 87.0082 68.3844 86.9872 68.437 86.9399C68.4843 86.8874 68.5263 86.8296 68.5578 86.7666C68.5894 86.7036 68.6104 86.6563 68.6156 86.6248C68.6156 86.62 68.6146 86.6126 68.6132 86.6024C68.6101 86.5796 68.6051 86.5427 68.6051 86.4883V81.5988H71.1431V86.5881C71.1536 86.7194 71.2114 86.8349 71.3112 86.9294C71.3638 86.9819 71.4006 87.0082 71.4163 87.0082H72.173C72.173 87.0082 72.2255 86.9872 72.2781 86.9399C72.3254 86.8874 72.3674 86.8296 72.3989 86.7666C72.4305 86.7036 72.4515 86.6563 72.4567 86.6248C72.4515 86.6091 72.4462 86.567 72.4462 86.4883V81.5988H74.9842L74.9789 86.5828ZM67.2179 79.6819C67.2179 79.5086 67.2547 79.351 67.3177 79.204C67.3861 79.0569 67.4754 78.9256 67.5857 78.8154C67.6961 78.7051 67.8274 78.621 67.9746 78.5528C68.1217 78.4897 68.2793 78.4635 68.4475 78.4635C68.6156 78.4635 68.7733 78.495 68.9204 78.5528C69.0728 78.6158 69.2041 78.7051 69.3197 78.8154C69.4353 78.9256 69.5247 79.0569 69.5877 79.204C69.6508 79.351 69.6823 79.5139 69.6823 79.6819C69.6823 79.85 69.6508 80.0075 69.5877 80.1493C69.5247 80.2911 69.4353 80.4172 69.3197 80.5275C69.2041 80.6377 69.0728 80.7218 68.9204 80.7848C68.768 80.8478 68.6104 80.8793 68.4475 80.8793C68.2846 80.8793 68.1269 80.8478 67.9746 80.7848C67.8274 80.7218 67.6961 80.6377 67.5857 80.5275C67.4701 80.4172 67.3808 80.2964 67.3177 80.1493C67.2494 80.0075 67.2179 79.85 67.2179 79.6819ZM68.4632 77.203C68.4632 77.0297 68.5 76.8774 68.5683 76.7251C68.6366 76.5781 68.7312 76.4468 68.8416 76.3365C68.9519 76.2262 69.0885 76.1369 69.2357 76.0739C69.3828 76.0109 69.5509 75.9846 69.7243 75.9846C69.8872 75.9846 70.0396 76.0161 70.192 76.0739C70.3391 76.1369 70.4652 76.2262 70.5756 76.3365C70.6859 76.4468 70.77 76.5781 70.8383 76.7251C70.9014 76.8722 70.9329 77.0297 70.9329 77.203C70.9329 77.3764 70.9014 77.5287 70.8383 77.6757C70.7753 77.8175 70.6859 77.9436 70.5756 78.0538C70.4652 78.1641 70.3339 78.2482 70.192 78.3112C70.0449 78.3742 69.8872 78.4057 69.7243 78.4057C69.5457 78.4057 69.3828 78.3742 69.2357 78.3112C69.0833 78.2482 68.9519 78.1641 68.8416 78.0538C68.726 77.9436 68.6366 77.8175 68.5683 77.6757C68.5 77.5339 68.4632 77.3764 68.4632 77.203ZM69.9398 79.6819C69.9398 79.5086 69.9766 79.351 70.0449 79.204C70.1132 79.0569 70.2078 78.9256 70.3181 78.8154C70.4285 78.7051 70.5651 78.621 70.7122 78.5528C70.8646 78.4897 71.0275 78.4635 71.2061 78.4635C71.369 78.4635 71.5214 78.495 71.6685 78.5528C71.8157 78.6158 71.9418 78.7051 72.0521 78.8154C72.1625 78.9256 72.2465 79.0569 72.3148 79.204C72.3779 79.351 72.4147 79.5139 72.4147 79.6819C72.4147 79.85 72.3832 80.0075 72.3148 80.1493C72.2518 80.2911 72.1625 80.4172 72.0521 80.5275C71.9418 80.6377 71.8104 80.7218 71.6685 80.7848C71.5214 80.8478 71.369 80.8793 71.2061 80.8793C71.0275 80.8793 70.8646 80.8478 70.7122 80.7848C70.5598 80.7218 70.4285 80.6377 70.3181 80.5275C70.2078 80.4172 70.1132 80.2964 70.0449 80.1493C69.9766 80.0075 69.9398 79.85 69.9398 79.6819ZM38.344 87.3917C38.4753 87.1081 38.5437 86.8035 38.5437 86.4779L38.5594 81.5885H36.0215V86.4569C36.0215 86.5777 36.0057 86.667 35.9794 86.73C35.9479 86.8035 35.9006 86.8718 35.8481 86.9243C35.7955 86.9716 35.743 86.9926 35.743 86.9926H34.9863C34.9705 86.9926 34.9338 86.9663 34.8812 86.9138C34.7814 86.8193 34.7236 86.7037 34.7131 86.5724V81.5885H32.1751V86.4726C32.1751 86.5271 32.1801 86.564 32.1832 86.5868C32.1846 86.5969 32.1856 86.6043 32.1856 86.6092C32.1804 86.6407 32.1593 86.688 32.1278 86.751C32.0963 86.814 32.0542 86.8718 32.007 86.9243C31.9544 86.9716 31.9019 86.9926 31.9019 86.9926H31.1032C31.0874 86.9926 31.0506 86.9716 30.9981 86.9243C30.9508 86.8718 30.9087 86.814 30.8772 86.751C30.8457 86.688 30.8247 86.6407 30.8194 86.6092C30.8299 86.5934 30.8299 86.5514 30.8299 86.4726V81.5885H28.292V86.5672C28.2762 86.7037 28.2184 86.8245 28.1238 86.9243C28.0713 86.9716 28.0187 86.9926 28.0187 86.9926H26.7314V87.003H25.9221C25.9011 87.0082 25.8801 87.0082 25.8591 87.0082H25.8591C25.8065 87.0082 25.7803 86.9872 25.7803 86.94C25.7803 86.9137 25.796 86.8769 25.8223 86.8244C25.8959 86.6774 25.9537 86.4725 25.9904 86.2205C26.0272 85.9631 26.0482 85.6953 26.0482 85.4012C26.0482 85.2689 26.0458 85.1318 26.0432 84.9903C26.0405 84.8396 26.0377 84.6839 26.0377 84.5241C26.0272 84.1145 25.9694 83.7363 25.8696 83.3897C25.7645 83.0431 25.6279 82.7332 25.4545 82.4549C25.2811 82.1766 25.0761 81.935 24.8397 81.7301C24.6032 81.5253 24.351 81.3573 24.083 81.2312L24.0725 81.226C23.8203 81.1052 23.5523 81.0212 23.2738 80.9634C22.9953 80.9109 22.7116 80.8846 22.4278 80.8846C22.1441 80.8846 21.8603 80.9109 21.5818 80.9686C21.3033 81.0264 21.0406 81.1104 20.7937 81.226C20.5257 81.352 20.2734 81.5201 20.037 81.7249C19.8005 81.935 19.5956 82.1713 19.4222 82.4496C19.2436 82.728 19.1069 83.0379 19.0018 83.3845C18.902 83.7311 18.8442 84.1092 18.8389 84.5189C18.8232 84.7657 18.8232 84.9968 18.8232 85.2279C18.8232 85.2608 18.8261 85.2937 18.8288 85.3252L18.8288 85.3252V85.3252V85.3252L18.8288 85.3252C18.8313 85.3539 18.8337 85.3814 18.8337 85.4064C18.8337 85.6953 18.8547 85.9631 18.8915 86.2205C18.9283 86.4778 18.9756 86.6774 19.0281 86.8244C19.0439 86.8769 19.0544 86.9189 19.0544 86.94C19.0544 86.9872 19.0334 87.0082 18.9966 87.0082C18.9861 87.0082 18.9598 87.003 18.9598 87.003H18.1296V86.9978H13.6212H13.1378H8.6293V86.9978H7.56263C7.55212 86.9978 7.52059 86.9715 7.46279 86.919C7.41024 86.8717 7.36821 86.8087 7.33668 86.7352C7.30515 86.6617 7.28939 86.5776 7.28939 86.4779V78.5633L4.76193 78.5686V86.4831C4.76193 86.8087 4.82499 87.1133 4.95635 87.3969C5.08772 87.6858 5.26112 87.9326 5.48181 88.1427C5.73929 88.3948 6.04931 88.5943 6.40662 88.7361C6.76918 88.8779 7.15277 88.9515 7.56788 88.9515H9.10747V88.9462H13.1378H13.6212H17.6462V88.9567H27.2042V88.9463H28.0135C28.3603 88.9463 28.6861 88.899 28.9908 88.8045C29.2956 88.7047 29.4848 88.6311 29.5583 88.5734C29.6424 88.6311 29.8368 88.7099 30.1363 88.8045C30.4358 88.899 30.7616 88.9463 31.1084 88.9463H31.8914C32.2382 88.9463 32.5639 88.899 32.8635 88.8045C33.163 88.7047 33.3574 88.6311 33.4415 88.5734C33.515 88.6311 33.7042 88.7099 34.009 88.8045C34.3137 88.899 34.6342 88.9463 34.9863 88.9463H35.7272C36.1476 88.9463 36.5364 88.8727 36.8885 88.7309C37.2353 88.5891 37.5453 88.3896 37.808 88.1375C38.034 87.9274 38.2126 87.6806 38.344 87.3917ZM30.872 79.2199C30.8037 79.3722 30.7721 79.5297 30.7721 79.6978C30.7721 79.8711 30.8037 80.0287 30.872 80.1705C30.935 80.3175 31.0296 80.4383 31.1399 80.5486C31.2503 80.6589 31.3817 80.7429 31.5288 80.8059C31.6759 80.8689 31.8283 80.9005 31.9964 80.9005C32.1646 80.9005 32.3222 80.8689 32.4746 80.8059C32.627 80.7429 32.7584 80.6589 32.874 80.5486C32.9896 80.4383 33.0789 80.3123 33.1419 80.1705C33.2103 80.0287 33.2418 79.8658 33.2418 79.6978C33.2418 79.5297 33.205 79.3669 33.1419 79.2199C33.0789 79.0728 32.9896 78.9415 32.874 78.8312C32.7584 78.721 32.627 78.6369 32.4746 78.5739C32.3222 78.5109 32.1593 78.4794 31.9964 78.4794C31.8336 78.4794 31.6759 78.5109 31.5288 78.5739C31.3817 78.6369 31.2555 78.721 31.1399 78.8312C31.0296 78.9415 30.9403 79.0728 30.872 79.2199ZM32.1226 76.741C32.0542 76.8881 32.0175 77.0456 32.0175 77.2189C32.0175 77.387 32.0542 77.5445 32.1226 77.6863C32.1909 77.8281 32.2854 77.9542 32.3958 78.0645C32.5114 78.1748 32.6375 78.2588 32.7899 78.3218C32.9423 78.3796 33.1052 78.4111 33.2838 78.4111C33.4467 78.4111 33.5991 78.3796 33.7462 78.3218C33.8934 78.2588 34.0195 78.1748 34.1298 78.0645C34.2402 77.9542 34.3295 77.8281 34.3925 77.6863C34.4556 77.5445 34.4871 77.387 34.4871 77.2189C34.4871 77.0509 34.4556 76.8881 34.3925 76.741C34.3242 76.594 34.2402 76.4627 34.1298 76.3524C34.0247 76.2421 33.8934 76.1581 33.7462 76.095C33.5991 76.032 33.4467 76.0005 33.2838 76.0005C33.1052 76.0005 32.9423 76.032 32.7899 76.095C32.6428 76.1528 32.5114 76.2421 32.3958 76.3524C32.2854 76.4627 32.1909 76.594 32.1226 76.741ZM33.5991 79.2199C33.5308 79.3722 33.494 79.5297 33.494 79.6978C33.494 79.8711 33.5308 80.0287 33.5991 80.1705C33.6674 80.3175 33.762 80.4383 33.8723 80.5486C33.9827 80.6589 34.114 80.7429 34.2664 80.8059C34.4188 80.8689 34.5817 80.9005 34.7604 80.9005C34.9233 80.9005 35.0756 80.8689 35.2228 80.8059C35.3751 80.7429 35.5013 80.6589 35.6116 80.5486C35.7219 80.4383 35.8113 80.3123 35.8743 80.1705C35.9374 80.0287 35.9689 79.8658 35.9689 79.6978C35.9689 79.5297 35.9374 79.3669 35.8743 79.2199C35.806 79.0728 35.7219 78.9415 35.6116 78.8312C35.5013 78.721 35.3699 78.6369 35.2228 78.5739C35.0756 78.5109 34.9233 78.4794 34.7604 78.4794C34.5817 78.4794 34.4188 78.5109 34.2664 78.5739C34.1193 78.6369 33.9879 78.721 33.8723 78.8312C33.762 78.9415 33.6674 79.0728 33.5991 79.2199ZM21.0932 79.141C21.0932 78.9677 21.1299 78.8101 21.1983 78.6631C21.2666 78.516 21.3611 78.3847 21.4715 78.2744C21.5818 78.1642 21.7132 78.0749 21.8656 78.0171C22.018 77.9541 22.1809 77.9226 22.3543 77.9226C22.5172 77.9226 22.6695 77.9541 22.8167 78.0171C22.9638 78.0801 23.0952 78.1642 23.2055 78.2744C23.3159 78.3847 23.3999 78.516 23.4682 78.6631C23.5313 78.8101 23.5628 78.9729 23.5628 79.141C23.5628 79.3091 23.5313 79.4666 23.4682 79.6084C23.4052 79.7502 23.3159 79.8763 23.2055 79.9865C23.0952 80.0968 22.9691 80.1809 22.8167 80.2439C22.6695 80.3069 22.5172 80.3384 22.3543 80.3384C22.1756 80.3384 22.0127 80.3069 21.8656 80.2439C21.7132 80.1809 21.5818 80.0968 21.4715 79.9865C21.3559 79.8815 21.2666 79.7555 21.1983 79.6084C21.1299 79.4666 21.0932 79.3091 21.0932 79.141ZM23.5103 84.5556C23.5103 84.3035 23.4787 84.0882 23.4367 83.9044C23.3894 83.7153 23.3316 83.5578 23.2528 83.416C23.1792 83.2794 23.0952 83.1691 23.0058 83.0851C22.9165 83.0011 22.8219 82.9276 22.7168 82.8803C22.6958 82.8698 22.659 82.8593 22.6065 82.8488C22.5539 82.8383 22.4961 82.8278 22.4436 82.8225H22.4226C22.3805 82.8225 22.3332 82.8225 22.286 82.8383C22.2387 82.8488 22.1966 82.8645 22.1546 82.8803L22.1546 82.8803C22.0548 82.9328 21.9654 83.0011 21.8761 83.0851C21.7868 83.1691 21.7079 83.2794 21.6291 83.416C21.5556 83.5525 21.4925 83.7153 21.4452 83.9044C21.4032 84.0882 21.3769 84.3088 21.3717 84.5556C21.3664 84.7447 21.3664 84.918 21.3664 85.0756C21.3664 85.1543 21.3664 85.2331 21.3717 85.3066C21.3717 85.543 21.3822 85.7478 21.4084 85.9211C21.4295 86.0997 21.4662 86.2415 21.5083 86.3623C21.5503 86.4778 21.6081 86.5776 21.6869 86.6511C21.7395 86.7089 21.7867 86.7561 21.8288 86.7981L21.8288 86.7982C21.8708 86.8349 21.9129 86.8664 21.9602 86.8927C22.0075 86.9189 22.0705 86.94 22.1441 86.961C22.2176 86.9767 22.3122 86.9872 22.4383 86.9872C22.5644 86.9872 22.6643 86.982 22.7378 86.961C22.8114 86.94 22.8692 86.9189 22.9165 86.8927C22.9533 86.8723 22.9869 86.8455 23.0223 86.8173C23.0324 86.8092 23.0426 86.8011 23.0531 86.7929C23.0952 86.7509 23.1425 86.7036 23.195 86.6459C23.2686 86.5723 23.3316 86.4778 23.3737 86.3623C23.4157 86.2467 23.4472 86.0997 23.4735 85.9211C23.4945 85.7425 23.5103 85.543 23.5155 85.3171V85.0756C23.5155 84.918 23.5155 84.7447 23.5103 84.5556ZM57.6336 78.6631C57.5653 78.8101 57.5285 78.9677 57.5285 79.141C57.5285 79.3091 57.5653 79.4666 57.6336 79.6084C57.7019 79.7555 57.7912 79.8815 57.9068 79.9865C58.0172 80.0968 58.1485 80.1809 58.3009 80.2439C58.448 80.3069 58.6109 80.3384 58.7896 80.3384C58.9525 80.3384 59.1049 80.3069 59.252 80.2439C59.4044 80.1809 59.5305 80.0968 59.6408 79.9865C59.7512 79.8763 59.8405 79.7502 59.9035 79.6084C59.9666 79.4666 59.9981 79.3091 59.9981 79.141C59.9981 78.9729 59.9666 78.8101 59.9035 78.6631C59.8352 78.516 59.7512 78.3847 59.6408 78.2744C59.5305 78.1642 59.3991 78.0801 59.252 78.0171C59.1049 77.9541 58.9525 77.9226 58.7896 77.9226C58.6162 77.9226 58.4533 77.9541 58.3009 78.0171C58.1485 78.0749 58.0172 78.1642 57.9068 78.2744C57.7965 78.3847 57.7019 78.516 57.6336 78.6631ZM59.872 83.9044C59.9141 84.0882 59.9456 84.3035 59.9456 84.5556C59.9508 84.7447 59.9508 84.918 59.9508 85.0756V85.3171C59.9508 85.543 59.9351 85.7425 59.9088 85.9211C59.8878 86.0997 59.851 86.2467 59.809 86.3623C59.7669 86.4778 59.7039 86.5723 59.6303 86.6459C59.5778 86.7036 59.5305 86.7508 59.4885 86.7928L59.4884 86.7929C59.4779 86.8011 59.4677 86.8092 59.4576 86.8173C59.4222 86.8455 59.3886 86.8723 59.3518 86.8927C59.3045 86.9189 59.2467 86.94 59.1732 86.961C59.0996 86.982 58.9998 86.9872 58.8736 86.9872C58.7475 86.9872 58.653 86.9767 58.5794 86.961C58.5058 86.94 58.4428 86.9189 58.3955 86.8927C58.3482 86.8664 58.3062 86.8349 58.2641 86.7982L58.264 86.798L58.2638 86.7978C58.2218 86.7559 58.1747 86.7087 58.1222 86.6511C58.0434 86.5776 57.9856 86.4778 57.9436 86.3623C57.9016 86.2415 57.8648 86.0997 57.8438 85.9211C57.8175 85.7478 57.807 85.543 57.807 85.3066C57.8017 85.2331 57.8017 85.1543 57.8017 85.0756C57.8017 84.918 57.8017 84.7447 57.807 84.5556C57.807 84.3088 57.8385 84.0882 57.8805 83.9044C57.9226 83.7153 57.9856 83.5525 58.0592 83.416C58.138 83.2794 58.2168 83.1691 58.3062 83.0851C58.3955 83.0011 58.4901 82.9328 58.5846 82.8803C58.6267 82.8645 58.6687 82.8488 58.716 82.8383C58.7633 82.8225 58.8106 82.8225 58.8526 82.8225H58.8789C58.9314 82.8278 58.9893 82.8383 59.0418 82.8488C59.0943 82.8593 59.1311 82.8698 59.1521 82.8803C59.2572 82.9276 59.3518 83.0011 59.4411 83.0851C59.5305 83.1691 59.6145 83.2794 59.6881 83.416C59.7669 83.5578 59.8247 83.7153 59.872 83.9044ZM76.9547 78.6C76.8864 78.7471 76.8548 78.9046 76.8548 79.0779C76.8548 79.246 76.8864 79.4035 76.9547 79.5453C77.0177 79.6871 77.1123 79.8132 77.2227 79.9235C77.3383 80.0337 77.4696 80.1178 77.6168 80.1808C77.7639 80.2438 77.9163 80.2753 78.0844 80.2753C78.2526 80.2753 78.4102 80.2438 78.5626 80.1808C78.715 80.1178 78.8463 80.0337 78.9619 79.9235C79.0775 79.8132 79.1669 79.6871 79.2299 79.5453C79.293 79.4035 79.3245 79.246 79.3245 79.0779C79.3245 78.9099 79.293 78.7471 79.2299 78.6C79.1669 78.453 79.0775 78.3269 78.9619 78.2114C78.8463 78.1011 78.715 78.017 78.5626 77.954C78.4102 77.891 78.2473 77.8595 78.0844 77.8595C77.9215 77.8595 77.7639 77.891 77.6168 77.954C77.4644 78.017 77.3383 78.1011 77.2227 78.2114C77.1123 78.3269 77.023 78.453 76.9547 78.6ZM79.6818 78.6C79.6135 78.7471 79.5767 78.9046 79.5767 79.0779C79.5767 79.246 79.6135 79.4035 79.6818 79.5453C79.7501 79.6871 79.8447 79.8132 79.955 79.9235C80.0706 80.0337 80.1968 80.1178 80.3491 80.1808C80.5015 80.2438 80.6644 80.2753 80.8431 80.2753C81.006 80.2753 81.1583 80.2438 81.3055 80.1808C81.4526 80.1178 81.5787 80.0337 81.6891 79.9235C81.7994 79.8132 81.8887 79.6871 81.9518 79.5453C82.0148 79.4035 82.0464 79.246 82.0464 79.0779C82.0464 78.9099 82.0148 78.7471 81.9518 78.6C81.8835 78.453 81.7994 78.3269 81.6891 78.2114C81.584 78.1011 81.4526 78.017 81.3055 77.954C81.1583 77.891 81.006 77.8595 80.8431 77.8595C80.6644 77.8595 80.5015 77.891 80.3491 77.954C80.202 78.017 80.0706 78.1011 79.955 78.2114C79.8447 78.3269 79.7501 78.453 79.6818 78.6ZM99.996 87.6226L98.6614 87.2812H98.6561V84.4085C98.6561 83.9831 98.7297 83.647 98.8663 83.4001C99.0082 83.1533 99.1711 82.9852 99.3602 82.8907C99.4601 82.8487 99.5546 82.8277 99.6387 82.8224C99.7018 82.8224 99.7858 82.8434 99.8804 82.8855C99.9697 82.9327 100.059 83.001 100.148 83.085C100.238 83.1691 100.322 83.2794 100.395 83.4159C100.469 83.5577 100.532 83.7152 100.579 83.9043C100.627 84.0881 100.648 84.3035 100.663 84.5555V87.1972C100.663 87.3075 100.653 87.402 100.627 87.4756C100.606 87.5543 100.574 87.6069 100.542 87.6331C100.506 87.6646 100.448 87.6856 100.374 87.6856C100.359 87.6909 100.343 87.6909 100.332 87.6909C100.243 87.6909 100.127 87.6699 99.996 87.6226Z" fill="#008D5C"/>
<path d="M44.5838 30.3892L41.2546 33.7166L44.673 37.1331L48.0021 33.8057L44.5838 30.3892Z" fill="#008D5C"/>
<path d="M53.9553 11.6866L27.2515 38.3764L54.0079 65.1187L76.0508 43.0873L58.7475 25.7878L55.4161 29.1175L69.5352 43.2291L68.1742 44.5841L54.0552 30.4724L50.7238 33.8021L64.8428 47.9137L63.4819 49.274L49.3628 35.1571L46.0314 38.4867L58.7948 51.2381L60.1557 52.5984L58.7948 53.9586L54.1077 58.6432L52.752 57.283L57.4391 52.5984L44.6757 39.8417L41.3443 43.1713L39.9834 44.5263L38.6224 43.1713L35.2017 39.7524L33.846 38.3922L35.2017 37.0372L38.5331 33.7075L39.8888 32.3473L43.2202 29.0177L44.5811 27.6574L47.9126 24.3278L49.2682 22.9676L52.5996 19.6379L53.9606 18.2829L55.3215 19.6379L58.7423 23.0568L60.1032 24.4171L77.4065 41.7113L80.7117 38.4132M44.681 46.5115L50.8183 52.6404L49.4627 54.0006L43.3253 47.8665L44.681 46.5115Z" fill="#008D5C"/>
<path d="M39.8954 35.0737L36.5674 38.4022L39.9869 41.8175L43.3149 38.489L39.8954 35.0737Z" fill="#008D5C"/>
<path d="M53.9658 21.0204L50.6361 24.3472L54.0538 27.7643L57.3835 24.4375L53.9658 21.0204Z" fill="#008D5C"/>
<path d="M53.9764 3L18.324 38.6336L53.9764 74.2673L89.6287 38.6336L53.9764 3ZM77.4065 44.4422L54.0026 67.8338L24.5297 38.3763L53.9553 8.97133L83.4283 38.4288L78.7675 43.0872L77.4065 44.4422Z" fill="#008D5C"/>
<path d="M49.2775 25.7022L45.9478 29.0291L49.3655 32.4462L52.6952 29.1194L49.2775 25.7022Z" fill="#008D5C"/>
<path d="M4 100.395L5.49756 100.248C5.58688 100.752 5.7708 101.12 6.04403 101.356C6.32253 101.592 6.69035 101.708 7.15801 101.708C7.65194 101.708 8.02501 101.603 8.27723 101.393C8.52945 101.188 8.65556 100.941 8.65556 100.658C8.65556 100.479 8.60302 100.327 8.49792 100.201C8.39283 100.075 8.20892 99.9644 7.94619 99.8698C7.76228 99.8121 7.35768 99.6965 6.71662 99.539C5.89165 99.3342 5.31365 99.0821 4.98261 98.7827C4.51495 98.3626 4.28375 97.8531 4.28375 97.2492C4.28375 96.8658 4.39409 96.4982 4.61479 96.1621C4.83548 95.8259 5.15075 95.5686 5.56587 95.39C5.98098 95.2115 6.48016 95.1274 7.06342 95.1274C8.01976 95.1274 8.73964 95.3375 9.22306 95.7577C9.70648 96.1778 9.9587 96.7345 9.98497 97.4382L8.44538 97.5013C8.38232 97.1126 8.24045 96.829 8.02501 96.6557C7.80957 96.4877 7.48379 96.3984 7.04766 96.3984C6.61153 96.3984 6.25422 96.4929 6.002 96.6715C5.8391 96.7923 5.75503 96.9498 5.75503 97.1441C5.75503 97.3227 5.8286 97.4803 5.98623 97.6063C6.18065 97.7691 6.65357 97.9372 7.39972 98.1157C8.14587 98.289 8.6976 98.4729 9.06017 98.6619C9.41748 98.851 9.70122 99.1083 9.9009 99.4339C10.1058 99.7595 10.2057 100.164 10.2057 100.647C10.2057 101.088 10.0848 101.493 9.8431 101.871C9.60139 102.249 9.25984 102.538 8.8132 102.722C8.37181 102.905 7.81483 103 7.15801 103C6.19642 103 5.45552 102.779 4.94057 102.333C4.42562 101.892 4.1156 101.241 4.01576 100.39" fill="#008D5C"/>
<path d="M12.5545 102.869V95.264H14.0941V98.2576H17.105V95.264H18.6393V102.869H17.105V99.5443H14.0941V102.869" fill="#008D5C"/>
<path d="M22.7904 95.264H21.2508V102.874H22.7904V95.264Z" fill="#008D5C"/>
<path d="M25.3231 102.869V95.264H30.5462V96.5507H26.8627V98.3521H30.0417V99.6388H26.8627V102.869" fill="#008D5C"/>
<path d="M39.1532 102.869H37.4822L36.8149 101.141H33.7725L33.1472 102.869H31.5183L34.4819 95.2587H36.1108M36.3262 99.8593L35.2753 97.0338L34.2454 99.8593H36.321H36.3262Z" fill="#008D5C"/>
<path d="M44.6652 102.869V95.264H46.1996V98.2576H49.2157V95.264H50.75V102.869H49.2157V99.5443H46.1996V102.869" fill="#008D5C"/>
<path d="M53.0936 99.1136C53.0936 98.3416 53.2092 97.6903 53.4404 97.1599C53.6138 96.7765 53.8502 96.4246 54.1497 96.1148C54.4493 95.8049 54.775 95.5791 55.1324 95.4268C55.6105 95.2272 56.1517 95.1274 56.7718 95.1274C57.8963 95.1274 58.7895 95.4741 59.4674 96.1725C60.14 96.8658 60.4763 97.8374 60.4763 99.0716C60.4763 100.306 60.14 101.262 59.4726 101.955C58.8053 102.648 57.912 102.995 56.7928 102.995C55.6736 102.995 54.7593 102.648 54.0919 101.96C53.4246 101.272 53.0883 100.321 53.0883 99.1083M54.6752 99.0611C54.6752 99.9224 54.8749 100.579 55.2742 101.02C55.6736 101.466 56.178 101.687 56.7928 101.687C57.4076 101.687 57.9068 101.466 58.3009 101.025C58.695 100.584 58.8894 99.9224 58.8894 99.04C58.8894 98.1577 58.7002 97.5223 58.3166 97.0864C57.933 96.6557 57.4234 96.4456 56.7928 96.4456C56.1623 96.4456 55.6473 96.661 55.2585 97.0969C54.8696 97.5328 54.6752 98.1893 54.6752 99.0611Z" fill="#008D5C"/>
<path d="M62.3522 100.395L63.8497 100.248C63.939 100.752 64.123 101.12 64.3962 101.356C64.6694 101.592 65.0425 101.708 65.5102 101.708C66.0041 101.708 66.3772 101.603 66.6294 101.393C66.8816 101.188 67.0077 100.941 67.0077 100.658C67.0077 100.479 66.9552 100.327 66.8501 100.201C66.745 100.075 66.5611 99.9644 66.2983 99.8698C66.1144 99.8121 65.7046 99.6965 65.0688 99.539C64.2438 99.3342 63.6658 99.0821 63.3348 98.7827C62.8671 98.3626 62.6359 97.8531 62.6359 97.2492C62.6359 96.8658 62.7463 96.4982 62.9669 96.1621C63.1876 95.8259 63.5029 95.5686 63.918 95.39C64.3331 95.2115 64.8323 95.1274 65.4156 95.1274C66.3719 95.1274 67.0918 95.3375 67.5752 95.7577C68.0586 96.1778 68.3109 96.7345 68.3371 97.4382L66.7975 97.5013C66.7292 97.1126 66.5926 96.829 66.3719 96.6557C66.1565 96.4877 65.8307 96.3984 65.3998 96.3984C64.9689 96.3984 64.6064 96.4929 64.3542 96.6715C64.1913 96.7923 64.1072 96.9498 64.1072 97.1441C64.1072 97.3227 64.1808 97.4803 64.3331 97.6063C64.5276 97.7691 65.0005 97.9372 65.7466 98.1157C66.4928 98.289 67.0498 98.4729 67.4071 98.6619C67.7644 98.851 68.0481 99.1083 68.2478 99.4339C68.4527 99.7595 68.5526 100.164 68.5526 100.647C68.5526 101.088 68.4317 101.493 68.19 101.871C67.9483 102.249 67.6067 102.538 67.1601 102.722C66.7135 102.905 66.1617 103 65.4997 103C64.5381 103 63.7972 102.779 63.2822 102.333C62.7673 101.892 62.4572 101.241 62.3574 100.39" fill="#008D5C"/>
<path d="M70.9014 102.874V95.264H73.3658C74.3011 95.264 74.9106 95.3008 75.1944 95.3796C75.6305 95.4951 75.9931 95.742 76.2926 96.1253C76.5868 96.5087 76.734 97.0024 76.734 97.6116C76.734 98.0738 76.6499 98.4677 76.4765 98.788C76.3084 99.1031 76.0929 99.3552 75.8302 99.539C75.5674 99.7176 75.3047 99.8384 75.0315 99.8962C74.6637 99.9697 74.1329 100.006 73.4341 100.006H72.4305V102.879M72.4357 96.5507V98.7092H73.2764C73.886 98.7092 74.2906 98.6672 74.4955 98.5884C74.7004 98.5097 74.8581 98.3889 74.9737 98.2156C75.0893 98.0475 75.1471 97.8479 75.1471 97.6274C75.1471 97.349 75.0683 97.1232 74.9054 96.9394C74.7425 96.7556 74.5375 96.6453 74.2853 96.6033C74.1014 96.5665 73.7336 96.5507 73.1766 96.5507H72.4357Z" fill="#008D5C"/>
<path d="M80.5541 95.264H79.0145V102.874H80.5541V95.264Z" fill="#008D5C"/>
<path d="M84.7892 102.869V96.5507H82.535V95.264H88.5831V96.5507H86.3288V102.869" fill="#008D5C"/>
<path d="M96.7172 102.869H95.0462L94.3841 101.141H91.3365L90.7059 102.869H89.077L92.0406 95.2587H93.6695M93.885 99.8593L92.834 97.0338L91.8041 99.8593H93.885Z" fill="#008D5C"/>
<path d="M98.6403 102.869V95.3218H100.175V101.587H104V102.869" fill="#008D5C"/>
</g>
<defs>
<filter id="filter0_d_101_335" x="0" y="0" width="108" height="108" filterUnits="userSpaceOnUse" color-interpolation-filters="sRGB">
<feFlood flood-opacity="0" result="BackgroundImageFix"/>
<feColorMatrix in="SourceAlpha" type="matrix" values="0 0 0 0 0 0 0 0 0 0 0 0 0 0 0 0 0 0 127 0" result="hardAlpha"/>
<feMorphology radius="1" operator="dilate" in="SourceAlpha" result="effect1_dropShadow_101_335"/>
<feOffset dy="1"/>
<feGaussianBlur stdDeviation="1.5"/>
<feColorMatrix type="matrix" values="0 0 0 0 0 0 0 0 0 0 0 0 0 0 0 0 0 0 0.15 0"/>
<feBlend mode="normal" in2="BackgroundImageFix" result="effect1_dropShadow_101_335"/>
<feBlend mode="normal" in="SourceGraphic" in2="effect1_dropShadow_101_335" result="shape"/>
</filter>
</defs>
</svg>
