<svg width="46" height="46" viewBox="0 0 46 46" fill="none" xmlns="http://www.w3.org/2000/svg">
<rect width="46" height="46" rx="23" fill="white"/>
<path d="M19.0484 19.5302L17.6477 20.9309L19.0859 22.3691L20.4866 20.9684L19.0484 19.5302Z" fill="#008D5C"/>
<path d="M22.9912 11.656L11.7561 22.8911L23.0133 34.1483L32.2874 24.8741L25.0074 17.5919L23.6058 18.9935L29.5461 24.9338L28.9735 25.5042L23.0332 19.5639L21.6316 20.9655L27.5719 26.9058L26.9993 27.4784L21.059 21.5359L19.6574 22.9375L25.0273 28.3052L25.5999 28.8778L25.0273 29.4504L23.0553 31.4224L22.4849 30.8498L24.4569 28.8778L19.087 23.5079L17.6854 24.9095L17.1128 25.4799L16.5402 24.9095L15.101 23.4703L14.5306 22.8977L15.101 22.3273L16.5026 20.9257L17.073 20.3531L18.4746 18.9515L19.0472 18.3789L20.4488 16.9773L21.0192 16.4047L22.4208 15.0031L22.9934 14.4327L23.566 15.0031L25.0052 16.4423L25.5778 17.0149L32.8578 24.2949L34.2484 22.9066M19.0892 26.3155L21.6714 28.8955L21.101 29.4681L18.5188 26.8859L19.0892 26.3155Z" fill="#008D5C"/>
<path d="M17.0757 21.5012L15.6755 22.9023L17.1142 24.34L18.5144 22.9389L17.0757 21.5012Z" fill="#008D5C"/>
<path d="M22.9956 15.5864L21.5947 16.9868L23.0327 18.4253L24.4336 17.0248L22.9956 15.5864Z" fill="#008D5C"/>
<path d="M23 8L8 23L23 38L38 23L23 8ZM32.8578 25.4451L23.0111 35.2918L10.6109 22.8917L22.9912 10.5136L35.3913 22.9138L33.4304 24.8747L32.8578 25.4451Z" fill="#008D5C"/>
<path d="M21.023 17.5566L19.6221 18.957L21.06 20.3955L22.4609 18.995L21.023 17.5566Z" fill="#008D5C"/>
</svg>
