<svg width="177" height="52" viewBox="0 0 177 52" fill="none" xmlns="http://www.w3.org/2000/svg">
<path fill-rule="evenodd" clip-rule="evenodd" d="M125.442 19.4623C125.461 19.6945 125.563 19.8988 125.739 20.0659C125.832 20.1588 125.897 20.2052 125.925 20.2052L127.355 20.2052H130.652C130.652 20.2052 130.745 20.168 130.838 20.0845C131.005 19.908 131.107 19.6944 131.135 19.453V10.6494L135.62 10.6401V19.2858V19.2862C135.62 19.4252 135.62 19.4994 135.602 19.5273C135.611 19.583 135.648 19.6666 135.704 19.778C135.76 19.8894 135.825 19.9916 135.918 20.0845C136.01 20.168 136.075 20.2052 136.103 20.2052H139.177L140.607 20.2052C140.607 20.2052 140.7 20.168 140.793 20.0845C140.969 19.908 141.062 19.6944 141.09 19.453V10.6494H145.575V19.2858V19.2862C145.575 19.4252 145.575 19.4994 145.557 19.5273C145.566 19.583 145.603 19.6666 145.659 19.7687C145.715 19.8802 145.789 19.9823 145.872 20.0752C145.965 20.1588 146.03 20.1959 146.058 20.1959H147.47C147.47 20.1959 147.563 20.1588 147.655 20.0752C147.739 19.9823 147.813 19.8802 147.869 19.7687C147.925 19.6573 147.962 19.583 147.971 19.5273C147.971 19.5187 147.97 19.5057 147.969 19.4878V19.4876C147.966 19.4473 147.962 19.3821 147.962 19.2858V10.6494H152.447V19.4623C152.466 19.6944 152.559 19.8987 152.744 20.0659C152.837 20.1588 152.902 20.2052 152.93 20.2052H154.267C154.267 20.2052 154.351 20.168 154.453 20.0845C154.537 19.9916 154.611 19.8895 154.667 19.778L154.667 19.7777L154.667 19.777C154.723 19.6661 154.76 19.5921 154.769 19.5366C154.769 19.528 154.768 19.515 154.767 19.497V19.4969C154.764 19.4566 154.76 19.3914 154.76 19.2951V10.6587H159.236L159.208 19.4623C159.226 19.6944 159.329 19.8987 159.505 20.0659C159.607 20.1588 159.663 20.2052 159.691 20.2052H161.112V20.1959H162.802V15.6084C162.802 14.9305 162.885 14.299 163.052 13.7232C163.229 13.1382 163.461 12.6088 163.749 12.1445C164.046 11.6709 164.399 11.2623 164.808 10.9094C165.225 10.5565 165.662 10.2594 166.126 10.0365C166.572 9.82291 167.036 9.66503 167.51 9.55359C167.984 9.44215 168.476 9.38643 168.968 9.38643H169.098C169.544 9.38643 169.989 9.43287 170.435 9.52573C170.909 9.62789 171.373 9.78576 171.828 9.99006C172.302 10.2129 172.748 10.5101 173.165 10.8723C173.583 11.2345 173.945 11.6616 174.252 12.1538C174.558 12.646 174.809 13.1939 174.986 13.8068C175.162 14.4197 175.264 15.0883 175.283 15.8127V20.5395C175.292 21.1896 175.162 21.7932 174.874 22.3411C174.726 22.6104 174.54 22.8797 174.335 23.1305C174.131 23.3812 173.89 23.6134 173.602 23.827C172.97 24.347 172.246 24.6813 171.438 24.8206C171.104 24.8856 170.751 24.9135 170.398 24.9135C169.952 24.9135 169.525 24.8671 169.116 24.7742H169.061L164.668 23.6505H161.966V23.6598H159.7C159.087 23.6598 158.511 23.5762 157.973 23.3998C157.434 23.2326 157.1 23.0933 156.97 23.0004C156.821 23.1026 156.478 23.2326 155.948 23.3998C155.419 23.5762 154.843 23.6598 154.23 23.6598H152.921C152.308 23.6598 151.732 23.5762 151.194 23.3998C150.655 23.2326 150.321 23.0933 150.191 23.0004C150.042 23.1026 149.698 23.2326 149.169 23.3998C148.64 23.5762 148.064 23.6598 147.451 23.6598H146.067C145.455 23.6598 144.879 23.5762 144.349 23.3998C143.82 23.2326 143.477 23.0933 143.328 23.0004C143.198 23.1026 142.864 23.2326 142.325 23.3998C141.786 23.5762 141.211 23.6598 140.598 23.6598H138.332L136.113 23.6598C135.5 23.6598 134.924 23.5762 134.395 23.409C133.865 23.2419 133.522 23.1026 133.373 23.0004C133.243 23.1026 132.909 23.2326 132.37 23.409C131.831 23.5762 131.256 23.6598 130.643 23.6598L128.2 23.6598H125.934C125.321 23.6598 124.746 23.5762 124.207 23.4091C123.668 23.2419 123.334 23.1026 123.204 23.0005C123.055 23.1026 122.712 23.2326 122.183 23.4091C121.653 23.5762 121.077 23.6598 120.455 23.6598H119.146C118.533 23.6598 117.957 23.5762 117.419 23.4091C116.88 23.2419 116.546 23.1026 116.416 23.0005C116.267 23.1026 115.923 23.2326 115.394 23.4091C114.865 23.5762 114.289 23.6598 113.676 23.6598H112.292C111.68 23.6598 111.104 23.5762 110.574 23.4091C110.045 23.2419 109.701 23.1026 109.553 23.0005C109.423 23.1026 109.089 23.2326 108.55 23.4091C108.011 23.5762 107.436 23.6598 106.823 23.6598H104.557L89.3734 23.6598V23.6691H87.9897C88.0269 23.9105 88.0455 24.2077 88.0455 24.5327C88.0455 24.7092 88.0362 24.8856 88.0176 25.0621C87.9526 25.5357 87.8226 25.9814 87.6368 26.3993C87.3954 26.8822 87.1075 27.3187 86.7546 27.718C86.346 28.1916 85.8817 28.6095 85.3616 28.9531C84.8416 29.2967 84.2751 29.5939 83.6715 29.8168C83.0679 30.0489 82.4457 30.2161 81.7863 30.3275C81.1827 30.4297 80.5884 30.4761 79.9755 30.4761H79.8083C79.0283 30.4575 78.2668 30.3554 77.5053 30.1696C76.7438 29.9932 76.0194 29.7146 75.3229 29.3524C74.6543 28.9995 74.0507 28.5724 73.5028 28.0616C72.9549 27.5508 72.4905 26.9565 72.1098 26.2693C71.8126 25.74 71.5805 25.1642 71.4133 24.5327C71.2462 23.9105 71.144 23.2419 71.1254 22.5176V22.2575C71.1254 21.6168 71.1904 20.9574 71.3112 20.2517C71.4319 19.4623 71.729 18.4315 72.1934 17.1593L76.558 17.8372C75.908 19.6759 75.5922 21.0967 75.5922 22.0997V22.3225C75.6294 23.3348 75.843 24.1891 76.2144 24.867C76.428 25.2571 76.6695 25.5728 76.9481 25.8328C77.2267 26.0929 77.5424 26.3157 77.8767 26.5015C78.1925 26.6686 78.5268 26.7894 78.8704 26.8822C79.2233 26.9658 79.5669 27.0122 79.9105 27.0215H80.0405C80.607 27.0215 81.1549 26.9194 81.6749 26.7151C82.2135 26.5015 82.6686 26.1857 83.0307 25.7678C83.1793 25.6007 83.3093 25.415 83.4022 25.2107C83.4858 25.0528 83.5415 24.8763 83.5601 24.6906C83.5694 24.6535 83.5786 24.6163 83.5786 24.5699C83.5786 24.4492 83.5601 24.3284 83.5229 24.1984C83.4672 23.9848 83.3558 23.762 83.1979 23.5298C83.04 23.2976 82.7986 23.0376 82.4735 22.7683C82.195 22.5454 81.8606 22.3225 81.4613 22.0904C81.062 21.8582 80.2819 21.496 79.1304 20.9946L81.6192 18.2179L82.1764 18.3572L82.26 18.3851C82.5571 18.4965 82.8356 18.6172 83.1141 18.7379L83.1143 18.738C83.2753 18.8077 83.4331 18.8743 83.5879 18.9397L83.589 18.9402C83.7017 18.9877 83.8128 19.0346 83.9222 19.0816C84.303 19.258 84.6652 19.4159 84.9995 19.5459C85.3338 19.6852 85.6867 19.7966 86.0396 19.8988C86.3925 19.9916 86.7825 20.0659 87.2004 20.1309C87.4898 20.1695 87.9263 20.1947 88.5098 20.2066V20.2052H90.8314C90.8314 20.2052 90.8778 20.2145 90.8964 20.2145C90.9614 20.2145 90.9986 20.1773 90.9986 20.0938C90.9986 20.0566 90.98 19.9823 90.9521 19.8894C90.8593 19.6294 90.7757 19.2765 90.7107 18.8215C90.6457 18.3665 90.6085 17.8929 90.6085 17.3821C90.6085 17.3378 90.6064 17.2892 90.6042 17.2385C90.6018 17.1829 90.5992 17.1246 90.5992 17.0664C90.5992 16.6577 90.5992 16.2491 90.6271 15.8127C90.6364 15.0883 90.7385 14.4197 90.915 13.8068C91.1007 13.1939 91.3421 12.646 91.6579 12.1538C91.9643 11.6616 92.3265 11.2437 92.7444 10.8723C93.1623 10.5101 93.6081 10.2129 94.0817 9.99004C94.5181 9.78574 94.9825 9.63715 95.4746 9.53499C95.9668 9.43284 96.4683 9.38641 96.9698 9.38641C97.4713 9.38641 97.9727 9.43285 98.4649 9.52571C98.9571 9.62786 99.4307 9.77645 99.8765 9.99004L99.8857 9.99932C100.359 10.2222 100.805 10.5194 101.223 10.8815C101.641 11.2437 102.003 11.6709 102.31 12.1631C102.616 12.6553 102.857 13.2032 103.043 13.8161C103.229 14.429 103.322 15.0976 103.34 15.822C103.34 16.1043 103.345 16.3793 103.35 16.6456L103.35 16.6463C103.355 16.8964 103.359 17.139 103.359 17.3728C103.359 17.8929 103.322 18.3665 103.257 18.8215C103.192 19.2673 103.09 19.6294 102.96 19.8894C102.913 19.9823 102.885 20.0473 102.885 20.0938C102.885 20.1773 102.932 20.2145 103.025 20.2145C103.062 20.2145 103.099 20.2145 103.136 20.2052H105.402L106.832 20.2052C106.832 20.2052 106.925 20.1681 107.018 20.0845C107.185 19.908 107.287 19.6945 107.315 19.453V10.6494H111.8V19.2951C111.8 19.4344 111.8 19.5087 111.782 19.5366C111.791 19.5923 111.828 19.6759 111.884 19.7873C111.94 19.8988 112.014 20.0009 112.097 20.0938C112.19 20.1773 112.255 20.2145 112.283 20.2145H113.695C113.695 20.2145 113.788 20.1773 113.88 20.0938C113.964 20.0009 114.038 19.8988 114.094 19.7873C114.15 19.6759 114.187 19.5923 114.196 19.5366C114.196 19.528 114.194 19.5149 114.192 19.4969C114.186 19.4566 114.178 19.3914 114.178 19.2951V10.6494H118.663V19.4716C118.682 19.7037 118.784 19.9081 118.96 20.0752C119.053 20.1681 119.118 20.2145 119.146 20.2145H120.483C120.483 20.2145 120.576 20.1773 120.669 20.0938C120.752 20.0009 120.827 19.8988 120.882 19.7873C120.938 19.6759 120.975 19.5923 120.985 19.5366C120.975 19.5087 120.966 19.4344 120.966 19.2951V10.6494H125.451L125.442 19.4623ZM111.726 7.25982C111.726 6.95336 111.791 6.67477 111.902 6.41474C112.023 6.15472 112.181 5.92255 112.376 5.72754C112.571 5.53252 112.803 5.38393 113.063 5.26321C113.323 5.15177 113.602 5.10534 113.899 5.10534C114.196 5.10534 114.475 5.16106 114.735 5.26321C115.004 5.37465 115.236 5.53252 115.441 5.72754C115.645 5.92255 115.803 6.15472 115.914 6.41474C116.026 6.67477 116.081 6.96265 116.081 7.25982C116.081 7.55699 116.026 7.83558 115.914 8.08632C115.803 8.33705 115.645 8.55993 115.441 8.75495C115.236 8.94996 115.004 9.09854 114.735 9.20998C114.465 9.32142 114.187 9.37714 113.899 9.37714C113.611 9.37714 113.333 9.32142 113.063 9.20998C112.803 9.09854 112.571 8.94996 112.376 8.75495C112.172 8.55993 112.014 8.34634 111.902 8.08632C111.782 7.83558 111.726 7.55699 111.726 7.25982ZM113.927 2.87658C113.927 2.57013 113.992 2.30082 114.113 2.03151C114.233 1.77149 114.4 1.53933 114.595 1.34432C114.79 1.1493 115.032 0.991428 115.292 0.87999C115.552 0.768552 115.849 0.722107 116.156 0.722107C116.443 0.722107 116.713 0.777838 116.982 0.87999C117.242 0.991428 117.465 1.1493 117.66 1.34432C117.855 1.53933 118.004 1.77149 118.124 2.03151C118.236 2.29153 118.292 2.57013 118.292 2.87658C118.292 3.18304 118.236 3.45234 118.124 3.71236C118.013 3.9631 117.855 4.18598 117.66 4.38099C117.465 4.57601 117.233 4.7246 116.982 4.83604C116.722 4.94748 116.443 5.00319 116.156 5.00319C115.84 5.00319 115.552 4.94748 115.292 4.83604C115.023 4.7246 114.79 4.57601 114.595 4.38099C114.391 4.18598 114.233 3.9631 114.113 3.71236C113.992 3.46163 113.927 3.18304 113.927 2.87658ZM116.536 7.25982C116.536 6.95336 116.601 6.67477 116.722 6.41474C116.843 6.15472 117.01 5.92255 117.205 5.72754C117.4 5.53252 117.641 5.38393 117.901 5.26321C118.171 5.15177 118.459 5.10534 118.774 5.10534C119.062 5.10534 119.332 5.16106 119.592 5.26321C119.852 5.37465 120.075 5.53252 120.27 5.72754C120.465 5.92255 120.613 6.15472 120.734 6.41474C120.845 6.67477 120.91 6.96265 120.91 7.25982C120.91 7.55699 120.855 7.83558 120.734 8.08632C120.622 8.33705 120.465 8.55993 120.27 8.75495C120.075 8.94996 119.842 9.09854 119.592 9.20998C119.332 9.32142 119.062 9.37714 118.774 9.37714C118.459 9.37714 118.171 9.32142 117.901 9.20998C117.632 9.09854 117.4 8.94996 117.205 8.75495C117.01 8.55993 116.843 8.34634 116.722 8.08632C116.601 7.83558 116.536 7.55699 116.536 7.25982ZM60.6966 20.8924C60.9287 20.391 61.0494 19.8524 61.0494 19.2766L61.0773 10.6309H56.5919V19.2394C56.5919 19.453 56.5641 19.6109 56.5176 19.7223C56.4619 19.8524 56.3783 19.9731 56.2855 20.0659C56.1926 20.1495 56.0997 20.1867 56.0997 20.1867H54.7625C54.7346 20.1867 54.6696 20.1402 54.5768 20.0474C54.4003 19.8802 54.2982 19.6759 54.2796 19.4438V10.6309H49.7942V19.2673C49.7942 19.3636 49.8031 19.4288 49.8085 19.4691C49.811 19.4871 49.8128 19.5002 49.8128 19.5088C49.8035 19.5645 49.7663 19.6481 49.7106 19.7595C49.6549 19.8709 49.5806 19.9731 49.497 20.0659C49.4042 20.1495 49.3113 20.1867 49.3113 20.1867H47.8998C47.8719 20.1867 47.8069 20.1495 47.714 20.0659C47.6304 19.9731 47.5562 19.8709 47.5004 19.7595C47.4447 19.6481 47.4076 19.5645 47.3983 19.5088C47.4169 19.4809 47.4169 19.4066 47.4169 19.2673V10.6309H42.9315V19.4345C42.9036 19.6759 42.8015 19.8895 42.6343 20.0659C42.5414 20.1495 42.4486 20.1867 42.4486 20.1867H40.1734V20.2052H38.7432C38.7061 20.2145 38.6689 20.2145 38.6318 20.2145H38.6318C38.5389 20.2145 38.4925 20.1773 38.4925 20.0938C38.4925 20.0473 38.5203 19.9823 38.5667 19.8894C38.6968 19.6294 38.7989 19.2673 38.8639 18.8215C38.9289 18.3665 38.9661 17.8929 38.9661 17.3728C38.9661 17.139 38.9617 16.8964 38.9572 16.6463V16.6462V16.6461V16.646V16.6459V16.6458V16.6457V16.6456C38.9524 16.3793 38.9475 16.1043 38.9475 15.822C38.9289 15.0976 38.8268 14.429 38.6503 13.8161C38.4646 13.2032 38.2231 12.6553 37.9167 12.1631C37.6102 11.6709 37.2481 11.2437 36.8302 10.8815C36.4123 10.5194 35.9665 10.2222 35.4929 9.99932L35.4743 9.99004C35.0286 9.77645 34.555 9.62786 34.0628 9.52571C33.5706 9.43285 33.0691 9.38641 32.5677 9.38641C32.0662 9.38641 31.5647 9.43284 31.0725 9.53499C30.5803 9.63715 30.116 9.78574 29.6796 9.99004C29.2059 10.2129 28.7602 10.5101 28.3423 10.8723C27.9244 11.2437 27.5622 11.6616 27.2558 12.1538C26.94 12.646 26.6986 13.1939 26.5129 13.8068C26.3364 14.4197 26.2343 15.0883 26.225 15.8127C26.1971 16.2491 26.1971 16.6577 26.1971 17.0664C26.1971 17.1246 26.2022 17.1829 26.207 17.2385C26.2115 17.2892 26.2157 17.3378 26.2157 17.3821C26.2157 17.8929 26.2528 18.3665 26.3178 18.8215C26.3828 19.2765 26.4664 19.6294 26.5593 19.8894C26.5871 19.9823 26.6057 20.0566 26.6057 20.0938C26.6057 20.1773 26.5686 20.2145 26.5036 20.2145C26.485 20.2145 26.4386 20.2052 26.4386 20.2052H24.9715V20.1959H17.0036H16.1493L9.0265 20.1959H6.29627C6.2777 20.1959 6.22198 20.1495 6.11982 20.0566C6.02696 19.9731 5.95267 19.8616 5.89695 19.7316C5.84123 19.6016 5.81337 19.453 5.81337 19.2766V5.28179L1.34656 5.29108V19.2858C1.34656 19.8616 1.458 20.4002 1.69016 20.9017C1.92232 21.4125 2.22878 21.8489 2.61881 22.2204C3.07385 22.6661 3.62175 23.019 4.25324 23.2698C4.894 23.5205 5.57192 23.6505 6.30555 23.6505H9.0265V23.6412H16.1493H17.0036H24.1169V23.6598H41.0091V23.6413H42.4393C43.0522 23.6413 43.628 23.5577 44.1666 23.3905C44.7052 23.2141 45.0395 23.0841 45.1695 22.9819C45.3181 23.0841 45.6617 23.2234 46.191 23.3905C46.7204 23.5577 47.2961 23.6413 47.909 23.6413H49.2927C49.9056 23.6413 50.4814 23.5577 51.0107 23.3905C51.5401 23.2141 51.8837 23.0841 52.0322 22.9819C52.1623 23.0841 52.4966 23.2234 53.0352 23.3905C53.5738 23.5577 54.1403 23.6413 54.7625 23.6413H56.0719C56.8148 23.6413 57.502 23.5112 58.1242 23.2605C58.7371 23.0098 59.285 22.6569 59.7493 22.2111C60.1487 21.8397 60.4644 21.4032 60.6966 20.8924ZM47.4911 6.44264C47.3704 6.71194 47.3147 6.99054 47.3147 7.28771C47.3147 7.59417 47.3704 7.87276 47.4911 8.12349C47.6026 8.38351 47.7697 8.59711 47.9648 8.79212C48.1598 8.98714 48.3919 9.13573 48.652 9.24717C48.912 9.35861 49.1813 9.41432 49.4785 9.41432C49.7756 9.41432 50.0542 9.35861 50.3235 9.24717C50.5928 9.13573 50.825 8.98714 51.0293 8.79212C51.2336 8.59711 51.3915 8.37423 51.5029 8.12349C51.6236 7.87276 51.6794 7.58488 51.6794 7.28771C51.6794 6.99054 51.6144 6.70266 51.5029 6.44264C51.3915 6.18261 51.2336 5.95046 51.0293 5.75544C50.825 5.56043 50.5928 5.41184 50.3235 5.3004C50.0542 5.18896 49.7663 5.13323 49.4785 5.13323C49.1906 5.13323 48.912 5.18896 48.652 5.3004C48.3919 5.41184 48.1691 5.56043 47.9648 5.75544C47.7697 5.95046 47.6119 6.18261 47.4911 6.44264ZM49.7013 2.0594C49.5806 2.31942 49.5156 2.59802 49.5156 2.90448C49.5156 3.20165 49.5806 3.48024 49.7013 3.73098C49.8221 3.98171 49.9892 4.20459 50.1842 4.39961C50.3885 4.59462 50.6114 4.74321 50.8807 4.85465C51.15 4.9568 51.4379 5.01252 51.7537 5.01252C52.0415 5.01252 52.3108 4.9568 52.5709 4.85465C52.8309 4.74321 53.0538 4.59462 53.2488 4.39961C53.4438 4.20459 53.6017 3.98171 53.7131 3.73098C53.8245 3.48024 53.8803 3.20165 53.8803 2.90448C53.8803 2.60731 53.8245 2.31942 53.7131 2.0594C53.5924 1.79938 53.4438 1.56723 53.2488 1.37221C53.0631 1.17719 52.8309 1.0286 52.5709 0.917165C52.3108 0.805726 52.0415 0.750014 51.7537 0.750014C51.4379 0.750014 51.15 0.805726 50.8807 0.917165C50.6207 1.01932 50.3885 1.17719 50.1842 1.37221C49.9892 1.56723 49.8221 1.79938 49.7013 2.0594ZM52.3108 6.44264C52.1901 6.71194 52.1251 6.99054 52.1251 7.28771C52.1251 7.59417 52.1901 7.87276 52.3108 8.12349C52.4316 8.38351 52.5987 8.59711 52.7937 8.79212C52.9888 8.98714 53.2209 9.13573 53.4902 9.24717C53.7595 9.35861 54.0474 9.41432 54.3632 9.41432C54.651 9.41432 54.9204 9.35861 55.1804 9.24717C55.4497 9.13573 55.6726 8.98714 55.8676 8.79212C56.0626 8.59711 56.2205 8.37423 56.3319 8.12349C56.4433 7.87276 56.4991 7.58488 56.4991 7.28771C56.4991 6.99054 56.4433 6.70266 56.3319 6.44264C56.2112 6.18261 56.0626 5.95046 55.8676 5.75544C55.6726 5.56043 55.4404 5.41184 55.1804 5.3004C54.9204 5.18896 54.651 5.13323 54.3632 5.13323C54.0474 5.13323 53.7595 5.18896 53.4902 5.3004C53.2302 5.41184 52.998 5.56043 52.7937 5.75544C52.5987 5.95046 52.4316 6.18261 52.3108 6.44264ZM30.2089 6.30329C30.2089 5.99684 30.2739 5.71824 30.3946 5.45822C30.5153 5.19819 30.6825 4.96603 30.8775 4.77101C31.0725 4.57599 31.3047 4.41813 31.574 4.31598C31.8433 4.20454 32.1312 4.14881 32.4376 4.14881C32.7255 4.14881 32.9948 4.20454 33.2549 4.31598C33.5149 4.42742 33.747 4.57599 33.9421 4.77101C34.1371 4.96603 34.2857 5.19819 34.4064 5.45822C34.5178 5.71824 34.5735 6.00612 34.5735 6.30329C34.5735 6.60046 34.5178 6.87905 34.4064 7.12979C34.2949 7.38053 34.1371 7.6034 33.9421 7.79842C33.747 7.99344 33.5242 8.14201 33.2549 8.25345C32.9948 8.36489 32.7255 8.42061 32.4376 8.42061C32.1219 8.42061 31.834 8.36489 31.574 8.25345C31.3047 8.14201 31.0725 7.99344 30.8775 7.79842C30.6732 7.61269 30.5153 7.38981 30.3946 7.12979C30.2739 6.87905 30.2089 6.60046 30.2089 6.30329ZM34.4807 15.8777C34.4807 15.4319 34.425 15.0512 34.3507 14.7262C34.2671 14.3918 34.1649 14.1132 34.0256 13.8625C33.8956 13.6211 33.747 13.426 33.5892 13.2775C33.4313 13.1289 33.2641 12.9989 33.0784 12.9153C33.0413 12.8967 32.9763 12.8781 32.8834 12.8596C32.7905 12.841 32.6884 12.8224 32.5955 12.8131H32.5584C32.4841 12.8131 32.4005 12.8131 32.3169 12.841C32.2333 12.8596 32.1591 12.8874 32.0848 12.9153C31.9083 13.0081 31.7504 13.1289 31.5926 13.2775C31.4347 13.426 31.2954 13.6211 31.1561 13.8625C31.0261 14.104 30.9147 14.3918 30.8311 14.7262C30.7568 15.0512 30.7104 15.4412 30.7011 15.8777C30.6918 16.212 30.6918 16.5185 30.6918 16.7971C30.6918 16.9363 30.6918 17.0756 30.7011 17.2056C30.7011 17.6235 30.7196 17.9857 30.7661 18.2922C30.8032 18.6079 30.8682 18.8587 30.9425 19.0722C31.0168 19.2765 31.119 19.453 31.2583 19.583C31.3511 19.6851 31.4347 19.7687 31.509 19.843L31.509 19.843C31.5833 19.908 31.6576 19.9637 31.7412 20.0102C31.8247 20.0566 31.9362 20.0938 32.0662 20.1309C32.1962 20.1588 32.3634 20.1773 32.5862 20.1773C32.8091 20.1773 32.9856 20.1681 33.1156 20.1309C33.2456 20.0938 33.3477 20.0566 33.4313 20.0102C33.4963 19.9741 33.5556 19.9268 33.6181 19.8769L33.6182 19.8769L33.6183 19.8768L33.6183 19.8768L33.6183 19.8768L33.6184 19.8767L33.6184 19.8767C33.6362 19.8625 33.6543 19.8481 33.6728 19.8337L33.6728 19.8337C33.7471 19.7594 33.8306 19.6758 33.9235 19.5737C34.0535 19.4437 34.1649 19.2765 34.2392 19.0722C34.3135 18.8679 34.3692 18.6079 34.4157 18.2922C34.4528 17.9764 34.4807 17.6235 34.49 17.2242V16.7971C34.49 16.5185 34.49 16.212 34.4807 15.8777ZM94.7875 5.45822C94.6667 5.71824 94.6017 5.99684 94.6017 6.30329C94.6017 6.60046 94.6667 6.87905 94.7875 7.12979C94.9082 7.38981 95.066 7.61269 95.2704 7.79842C95.4654 7.99344 95.6975 8.14201 95.9668 8.25345C96.2269 8.36489 96.5147 8.42061 96.8305 8.42061C97.1184 8.42061 97.3877 8.36489 97.6477 8.25345C97.917 8.14201 98.1399 7.99344 98.3349 7.79842C98.5299 7.6034 98.6878 7.38053 98.7992 7.12979C98.9107 6.87905 98.9664 6.60046 98.9664 6.30329C98.9664 6.00612 98.9107 5.71824 98.7992 5.45822C98.6785 5.19819 98.5299 4.96603 98.3349 4.77101C98.1399 4.57599 97.9077 4.42742 97.6477 4.31598C97.3877 4.20454 97.1184 4.14881 96.8305 4.14881C96.524 4.14881 96.2361 4.20454 95.9668 4.31598C95.6975 4.41813 95.4654 4.57599 95.2704 4.77101C95.0753 4.96603 94.9082 5.19819 94.7875 5.45822ZM98.7435 14.7262C98.8178 15.0512 98.8735 15.4319 98.8735 15.8777C98.8828 16.212 98.8828 16.5185 98.8828 16.7971V17.2242C98.8828 17.6235 98.8549 17.9764 98.8085 18.2922C98.7714 18.6079 98.7064 18.8679 98.6321 19.0722C98.5578 19.2765 98.4463 19.4437 98.3163 19.5737C98.2237 19.6756 98.1403 19.759 98.0662 19.8332L98.0659 19.8334L98.0658 19.8335L98.0656 19.8337L98.0456 19.8494L98.0111 19.8768C97.9486 19.9267 97.8892 19.9741 97.8241 20.0102C97.7406 20.0566 97.6384 20.0938 97.5084 20.1309C97.3784 20.1681 97.2019 20.1773 96.9791 20.1773C96.7562 20.1773 96.589 20.1588 96.459 20.1309C96.329 20.0938 96.2176 20.0566 96.134 20.0102C96.0504 19.9637 95.9761 19.908 95.9018 19.843L95.9015 19.8427C95.8273 19.7685 95.7438 19.685 95.6511 19.583C95.5118 19.453 95.4097 19.2765 95.3354 19.0722C95.2611 18.8587 95.1961 18.6079 95.1589 18.2922C95.1125 17.9857 95.0939 17.6235 95.0939 17.2056C95.0846 17.0756 95.0846 16.9363 95.0846 16.7971C95.0846 16.5185 95.0846 16.212 95.0939 15.8777C95.0939 15.4412 95.1496 15.0512 95.2239 14.7262C95.2982 14.3918 95.4096 14.104 95.5397 13.8625C95.679 13.6211 95.8183 13.426 95.9761 13.2775C96.134 13.1289 96.3011 13.0081 96.4683 12.9153C96.5426 12.8874 96.6169 12.8596 96.7005 12.841C96.784 12.8131 96.8676 12.8131 96.9419 12.8131H96.9884C97.0812 12.8224 97.1834 12.841 97.2762 12.8596C97.3691 12.8781 97.4341 12.8967 97.4713 12.9153C97.657 12.9989 97.8241 13.1289 97.982 13.2775C98.1399 13.426 98.2885 13.6211 98.4185 13.8625C98.5578 14.1132 98.6599 14.3918 98.7435 14.7262ZM128.934 5.34677C128.813 5.60679 128.758 5.88538 128.758 6.19183C128.758 6.489 128.813 6.76761 128.934 7.01835C129.045 7.26908 129.213 7.49194 129.408 7.68696C129.612 7.88198 129.844 8.03057 130.104 8.142C130.364 8.25344 130.633 8.30917 130.931 8.30917C131.228 8.30917 131.506 8.25344 131.776 8.142C132.045 8.03057 132.277 7.88198 132.482 7.68696C132.686 7.49194 132.844 7.26908 132.955 7.01835C133.067 6.76761 133.122 6.489 133.122 6.19183C133.122 5.89466 133.067 5.60679 132.955 5.34677C132.844 5.08675 132.686 4.86387 132.482 4.65956C132.277 4.46455 132.045 4.31596 131.776 4.20452C131.506 4.09308 131.219 4.03737 130.931 4.03737C130.643 4.03737 130.364 4.09308 130.104 4.20452C129.835 4.31596 129.612 4.46455 129.408 4.65956C129.213 4.86387 129.055 5.08675 128.934 5.34677ZM133.754 5.34677C133.633 5.60679 133.568 5.88538 133.568 6.19183C133.568 6.489 133.633 6.76761 133.754 7.01835C133.874 7.26908 134.042 7.49194 134.237 7.68696C134.441 7.88198 134.664 8.03057 134.933 8.142C135.202 8.25344 135.49 8.30917 135.806 8.30917C136.094 8.30917 136.363 8.25344 136.623 8.142C136.883 8.03057 137.106 7.88198 137.301 7.68696C137.496 7.49194 137.654 7.26908 137.766 7.01835C137.877 6.76761 137.933 6.489 137.933 6.19183C137.933 5.89466 137.877 5.60679 137.766 5.34677C137.645 5.08675 137.496 4.86387 137.301 4.65956C137.115 4.46455 136.883 4.31596 136.623 4.20452C136.363 4.09308 136.094 4.03737 135.806 4.03737C135.49 4.03737 135.202 4.09308 134.933 4.20452C134.673 4.31596 134.441 4.46455 134.237 4.65956C134.042 4.86387 133.874 5.08675 133.754 5.34677ZM169.655 21.301L167.296 20.6974H167.287V15.6177C167.287 14.8655 167.417 14.2711 167.658 13.8347C167.909 13.3982 168.197 13.101 168.531 12.9339C168.708 12.8596 168.875 12.8224 169.024 12.8132C169.135 12.8132 169.284 12.8503 169.451 12.9246C169.609 13.0082 169.767 13.1289 169.924 13.2775C170.082 13.4261 170.231 13.6211 170.361 13.8625C170.491 14.1133 170.602 14.3919 170.686 14.7262C170.769 15.0512 170.807 15.432 170.834 15.8777V20.5488C170.834 20.7438 170.816 20.911 170.769 21.041C170.732 21.1803 170.677 21.2732 170.621 21.3196C170.556 21.3753 170.454 21.4125 170.324 21.4125C170.296 21.4218 170.268 21.4218 170.249 21.4218C170.092 21.4218 169.887 21.3846 169.655 21.301Z" fill="#008D5C"/>
<path d="M0 46.6717L2.64666 46.4117C2.80453 47.3032 3.12955 47.9533 3.61245 48.3712C4.10464 48.7891 4.75469 48.9934 5.58119 48.9934C6.45413 48.9934 7.11347 48.8076 7.55922 48.4362C8.00497 48.074 8.22785 47.6375 8.22785 47.1361C8.22785 46.8203 8.13498 46.551 7.94925 46.3281C7.76352 46.1052 7.4385 45.9102 6.97417 45.7431C6.64914 45.6409 5.93408 45.4366 4.80113 45.158C3.34314 44.7959 2.32163 44.3501 1.73658 43.8208C0.910078 43.0778 0.501472 42.1771 0.501472 41.1091C0.501472 40.4312 0.696488 39.7811 1.08652 39.1868C1.47656 38.5925 2.03375 38.1374 2.76738 37.8217C3.50101 37.5059 4.38323 37.3574 5.41404 37.3574C7.10418 37.3574 8.37643 37.7288 9.23079 38.4717C10.0852 39.2147 10.5309 40.199 10.5773 41.4434L7.85639 41.5549C7.74495 40.8677 7.49422 40.3662 7.11347 40.0597C6.73272 39.7626 6.15696 39.6047 5.38618 39.6047C4.6154 39.6047 3.98391 39.7718 3.53816 40.0876C3.25028 40.3012 3.1017 40.5798 3.1017 40.9234C3.1017 41.2391 3.23171 41.5177 3.5103 41.7406C3.8539 42.0285 4.68969 42.3256 6.00837 42.6414C7.32706 42.9478 8.30214 43.2729 8.94291 43.6072C9.57439 43.9415 10.0759 44.3965 10.4288 44.9723C10.7909 45.5481 10.9674 46.2631 10.9674 47.1175C10.9674 47.8975 10.7538 48.6126 10.3266 49.2812C9.89942 49.9499 9.2958 50.4606 8.50644 50.7856C7.72638 51.1107 6.74201 51.2778 5.58119 51.2778C3.88176 51.2778 2.57236 50.8878 1.66229 50.0985C0.752207 49.3184 0.204303 48.1669 0.0278595 46.6624" fill="#008D5C"/>
<path d="M15.1184 51.0457V37.5988H17.8394V42.8921H23.1605V37.5988H25.8722V51.0457H23.1605V45.1673H17.8394V51.0457" fill="#008D5C"/>
<path d="M33.2086 37.5988H30.4877V51.055H33.2086V37.5988Z" fill="#008D5C"/>
<path d="M37.6844 51.0457V37.5988H46.9152V39.874H40.4054V43.0593H46.0237V45.3345H40.4054V51.0457" fill="#008D5C"/>
<path d="M62.1266 51.0456H59.1735L57.9941 47.9904H52.6172L51.5121 51.0456H48.6333L53.8709 37.5895H56.7497M57.1305 45.7245L55.2732 40.7283L53.453 45.7245H57.1212H57.1305Z" fill="#008D5C"/>
<path d="M71.8683 51.0457V37.5988H74.5799V42.8921H79.9104V37.5988H82.6221V51.0457H79.9104V45.1673H74.5799V51.0457" fill="#008D5C"/>
<path d="M86.7638 44.4058C86.7638 43.0407 86.9681 41.8892 87.3767 40.9512C87.6832 40.2733 88.1011 39.6511 88.6304 39.1032C89.1597 38.5553 89.7355 38.156 90.367 37.8867C91.212 37.5338 92.1686 37.3574 93.2644 37.3574C95.2517 37.3574 96.8304 37.9703 98.0283 39.2054C99.217 40.4312 99.8114 42.1492 99.8114 44.3315C99.8114 46.5139 99.217 48.204 98.0376 49.4298C96.8582 50.6556 95.2795 51.2686 93.3015 51.2686C91.3235 51.2686 89.7076 50.6556 88.5282 49.4391C87.3489 48.2226 86.7545 46.5417 86.7545 44.3965M89.559 44.3129C89.559 45.8359 89.9119 46.9968 90.6177 47.7768C91.3235 48.5662 92.215 48.9562 93.3015 48.9562C94.388 48.9562 95.2703 48.5662 95.9667 47.7861C96.6632 47.006 97.0068 45.8359 97.0068 44.2758C97.0068 42.7157 96.6725 41.592 95.9946 40.8212C95.3167 40.0597 94.4159 39.6883 93.3015 39.6883C92.1871 39.6883 91.2771 40.069 90.5899 40.8398C89.9026 41.6106 89.559 42.7714 89.559 44.3129Z" fill="#008D5C"/>
<path d="M103.127 46.6717L105.773 46.4117C105.931 47.3032 106.256 47.9533 106.739 48.3712C107.222 48.7891 107.881 48.9934 108.708 48.9934C109.581 48.9934 110.24 48.8076 110.686 48.4362C111.132 48.074 111.355 47.6375 111.355 47.1361C111.355 46.8203 111.262 46.551 111.076 46.3281C110.89 46.1052 110.565 45.9102 110.101 45.7431C109.776 45.6409 109.052 45.4366 107.928 45.158C106.47 44.7959 105.448 44.3501 104.863 43.8208C104.037 43.0778 103.628 42.1771 103.628 41.1091C103.628 40.4312 103.823 39.7811 104.213 39.1868C104.603 38.5925 105.16 38.1374 105.894 37.8217C106.628 37.5059 107.51 37.3574 108.541 37.3574C110.231 37.3574 111.503 37.7288 112.357 38.4717C113.212 39.2147 113.658 40.199 113.704 41.4434L110.983 41.5549C110.862 40.8677 110.621 40.3662 110.231 40.0597C109.85 39.7626 109.274 39.6047 108.513 39.6047C107.751 39.6047 107.111 39.7718 106.665 40.0876C106.377 40.3012 106.228 40.5798 106.228 40.9234C106.228 41.2391 106.358 41.5177 106.628 41.7406C106.971 42.0285 107.807 42.3256 109.126 42.6414C110.444 42.9478 111.429 43.2729 112.06 43.6072C112.692 43.9415 113.193 44.3965 113.546 44.9723C113.908 45.5481 114.085 46.2631 114.085 47.1175C114.085 47.8975 113.871 48.6126 113.444 49.2812C113.017 49.9499 112.413 50.4606 111.624 50.7856C110.835 51.1107 109.859 51.2778 108.689 51.2778C106.99 51.2778 105.68 50.8878 104.77 50.0985C103.86 49.3184 103.312 48.1669 103.136 46.6624" fill="#008D5C"/>
<path d="M118.236 51.055V37.5988H122.591C124.244 37.5988 125.321 37.6638 125.823 37.8031C126.594 38.0074 127.234 38.4439 127.764 39.1218C128.284 39.7997 128.544 40.6727 128.544 41.7499C128.544 42.5671 128.395 43.2636 128.089 43.8301C127.792 44.3873 127.411 44.833 126.947 45.158C126.482 45.4738 126.018 45.6874 125.535 45.7895C124.885 45.9195 123.947 45.9845 122.712 45.9845H120.938V51.0643M120.947 39.874V43.6908H122.433C123.511 43.6908 124.226 43.6165 124.588 43.4772C124.95 43.3379 125.229 43.1243 125.433 42.8178C125.637 42.5207 125.739 42.1678 125.739 41.7777C125.739 41.2856 125.6 40.8862 125.312 40.5612C125.024 40.2362 124.662 40.0412 124.216 39.9669C123.891 39.9019 123.241 39.874 122.257 39.874H120.947Z" fill="#008D5C"/>
<path d="M135.295 37.5988H132.574V51.055H135.295V37.5988Z" fill="#008D5C"/>
<path d="M142.78 51.0457V39.874H138.796V37.5988H149.485V39.874H145.501V51.0457" fill="#008D5C"/>
<path d="M163.86 51.0456H160.907L159.737 47.9904H154.351L153.237 51.0456H150.358L155.595 37.5895H158.474M158.855 45.7245L156.998 40.7283L155.177 45.7245H158.855Z" fill="#008D5C"/>
<path d="M167.259 51.0456V37.7009H169.971V48.7797H176.732V51.0456" fill="#008D5C"/>
</svg>
