<svg width="90" height="90" viewBox="0 0 90 90" fill="none" xmlns="http://www.w3.org/2000/svg">
<path d="M33.1449 34.5885L28.9429 38.7905L33.2574 43.1051L37.4594 38.9031L33.1449 34.5885Z" fill="#008D5C"/>
<path d="M44.9735 10.9698L11.2683 44.675L45.0399 78.4466L72.8623 50.6242L51.0222 28.7775L46.8173 32.9823L64.6382 50.8032L62.9205 52.5144L45.0996 34.6934L40.8947 38.8983L58.7156 56.7192L56.9979 58.437L39.1769 40.6094L34.9721 44.8143L51.0819 60.9175L52.7996 62.6352L51.0819 64.353L45.1659 70.269L43.4548 68.5512L49.3707 62.6352L33.2609 46.5254L29.0561 50.7303L27.3383 52.4414L25.6206 50.7303L21.3029 46.4127L19.5918 44.6949L21.3029 42.9838L25.5078 38.7789L27.2189 37.0612L31.4238 32.8563L33.1416 31.1385L37.3464 26.9337L39.0576 25.2159L43.2624 21.0111L44.9802 19.2999L46.6979 21.0111L51.0155 25.3287L52.7333 27.0464L74.5734 48.8865L78.7451 44.7214M33.2676 54.9484L41.0141 62.6883L39.3029 64.406L31.5564 56.6595L33.2676 54.9484Z" fill="#008D5C"/>
<path d="M27.2271 40.5043L23.0266 44.7078L27.3427 49.0208L31.5432 44.8173L27.2271 40.5043Z" fill="#008D5C"/>
<path d="M44.9868 22.7571L40.7841 26.9583L45.0979 31.2736L49.3006 27.0724L44.9868 22.7571Z" fill="#008D5C"/>
<path d="M45 0L0 45L45 90L90 45L45 0ZM74.5733 52.3353L45.0332 81.8755L7.83272 44.675L44.9735 7.5409L82.1739 44.7413L76.2911 50.6242L74.5733 52.3353Z" fill="#008D5C"/>
<path d="M39.0692 28.6696L34.8665 32.8708L39.1803 37.1862L43.383 32.9849L39.0692 28.6696Z" fill="#008D5C"/>
</svg>
