<svg width="140" height="140" viewBox="0 0 140 140" fill="none" xmlns="http://www.w3.org/2000/svg">
<path d="M51.5587 53.8043L45.0222 60.3407L51.7337 67.0522L58.2702 60.5158L51.5587 53.8043Z" fill="white"/>
<path d="M69.9587 17.0641L17.5283 69.4945L70.0618 122.028L113.341 78.7487L79.3677 44.7649L72.8268 51.3058L100.548 79.0273L97.8761 81.689L70.1547 53.9676L63.6138 60.5085L91.3352 88.2299L88.6632 90.902L60.9417 63.1702L54.4008 69.7111L79.4605 94.7605L82.1326 97.4326L79.4605 100.105L70.2579 109.307L67.5961 106.635L76.7988 97.4326L51.7391 72.3729L45.1982 78.9138L42.5261 81.5755L39.854 78.9138L33.1378 72.1975L30.476 69.5254L33.1378 66.8637L39.6786 60.3228L42.3404 57.6507L48.8813 51.1098L51.5534 48.4377L58.0943 41.8968L60.756 39.2248L67.2969 32.6839L69.969 30.0221L72.6411 32.6839L79.3573 39.4002L82.0294 42.0722L116.003 76.0457L122.492 69.5667M51.7494 85.4753L63.7995 97.5151L61.1377 100.187L49.0876 88.1371L51.7494 85.4753Z" fill="white"/>
<path d="M42.3534 63.0067L35.8192 69.5454L42.5331 76.2546L49.0672 69.7158L42.3534 63.0067Z" fill="white"/>
<path d="M69.9792 35.3999L63.4417 41.9352L70.152 48.6479L76.6896 42.1126L69.9792 35.3999Z" fill="white"/>
<path d="M70 0L0 70L70 140L140 70L70 0ZM116.003 81.4105L70.0516 127.362L12.1842 69.4945L69.9587 11.7303L127.826 69.5976L118.675 78.7487L116.003 81.4105Z" fill="white"/>
<path d="M60.7744 44.5972L54.2368 51.1324L60.9472 57.8451L67.4847 51.3098L60.7744 44.5972Z" fill="white"/>
</svg>
