<svg width="182" height="84" viewBox="0 0 182 84" fill="none" xmlns="http://www.w3.org/2000/svg">
<path d="M6.33692 5.16908V19.5069C6.33692 19.6876 6.3655 19.8398 6.42265 19.973C6.47981 20.1062 6.55601 20.2204 6.65127 20.306C6.75605 20.4012 6.8132 20.4487 6.83225 20.4487H9.63277V23.988H6.84178C6.08926 23.988 5.39389 23.8548 4.73663 23.5979C4.08889 23.341 3.52688 22.9795 3.06013 22.5228C2.66006 22.1423 2.34571 21.6951 2.10757 21.1718C1.86943 20.6581 1.75513 20.1062 1.75513 19.5164V5.17861" fill="white"/>
<path d="M17.8161 20.4487H8.76685V23.9785H17.8161V20.4487Z" fill="white"/>
<path d="M25.9898 20.4487H16.9406V23.9785H25.9898V20.4487Z" fill="white"/>
<path d="M36.784 10.0023C37.2699 10.2306 37.7271 10.535 38.1558 10.9061C38.5845 11.2771 38.9561 11.7148 39.2704 12.219C39.5848 12.7233 39.8325 13.2846 40.023 13.9126C40.204 14.5405 40.3088 15.2255 40.3279 15.9676C40.3279 16.5289 40.3469 17.0617 40.3469 17.5565C40.3469 18.0893 40.3088 18.5745 40.2421 19.0407C40.1754 19.4973 40.0706 19.8684 39.9373 20.1348C39.8896 20.2299 39.8611 20.2965 39.8611 20.3441C39.8611 20.4297 39.9087 20.4678 40.004 20.4678C40.0421 20.4678 40.0802 20.4678 40.1183 20.4583H42.4427V23.9975H25.1141V20.4583H27.4957C27.4957 20.4583 27.5434 20.4678 27.5624 20.4678C27.6291 20.4678 27.6672 20.4297 27.6672 20.3441C27.6672 20.306 27.6482 20.2299 27.6196 20.1348C27.5243 19.8684 27.4386 19.5069 27.3719 19.0407C27.3052 18.5745 27.2671 18.0892 27.2671 17.566C27.2671 17.4708 27.2481 17.3567 27.2481 17.2425C27.2481 16.8239 27.2481 16.4052 27.2766 15.9581C27.2862 15.216 27.391 14.531 27.572 13.903C27.7625 13.2751 28.0102 12.7138 28.3341 12.2095C28.6484 11.7053 29.02 11.2771 29.4487 10.8966C29.8774 10.5255 30.3346 10.2211 30.8205 9.99275C31.2682 9.78344 31.7445 9.63121 32.2494 9.52655C32.7543 9.4219 33.2688 9.37432 33.7832 9.37432C34.2976 9.37432 34.8121 9.4219 35.317 9.51704C35.8219 9.6217 36.3077 9.77392 36.765 9.99275M31.3635 6.21564C31.3635 5.90168 31.4302 5.61625 31.554 5.34986C31.6779 5.08346 31.8493 4.8456 32.0494 4.64581C32.2494 4.44601 32.4876 4.28428 32.7639 4.17962C33.0401 4.06545 33.3355 4.00836 33.6498 4.00836C33.9451 4.00836 34.2214 4.06545 34.4882 4.17962C34.7549 4.29379 34.9931 4.44601 35.1931 4.64581C35.3932 4.8456 35.5456 5.08346 35.6694 5.34986C35.7837 5.61625 35.8409 5.91119 35.8409 6.21564C35.8409 6.52009 35.7837 6.80552 35.6694 7.0624C35.5551 7.31928 35.3932 7.54762 35.1931 7.74742C34.9931 7.94721 34.7644 8.09943 34.4882 8.2136C34.2214 8.32777 33.9451 8.38486 33.6498 8.38486C33.3259 8.38486 33.0306 8.32777 32.7639 8.2136C32.4876 8.09943 32.2494 7.94721 32.0494 7.74742C31.8398 7.55713 31.6779 7.32879 31.554 7.0624C31.4302 6.80552 31.3635 6.52009 31.3635 6.21564ZM35.7456 16.0247C35.7456 15.568 35.6885 15.1779 35.6123 14.8449C35.5265 14.5024 35.4217 14.217 35.2788 13.9601C35.1455 13.7128 34.9931 13.513 34.8311 13.3607C34.6692 13.2085 34.4977 13.0753 34.3072 12.9897C34.269 12.9707 34.2024 12.9516 34.1071 12.9326C34.0118 12.9136 33.907 12.8945 33.8118 12.885H33.7737C33.6975 12.885 33.6117 12.885 33.526 12.9136C33.4402 12.9326 33.364 12.9611 33.2878 12.9897C33.1068 13.0848 32.9449 13.2085 32.7829 13.3607C32.621 13.513 32.4781 13.7128 32.3352 13.9601C32.2018 14.2075 32.0875 14.5024 32.0018 14.8449C31.9255 15.1779 31.8779 15.5775 31.8684 16.0247C31.8589 16.3672 31.8589 16.6812 31.8589 16.9666C31.8589 17.1093 31.8589 17.252 31.8684 17.3852C31.8684 17.8133 31.8874 18.1844 31.9351 18.4984C31.9732 18.8218 32.0399 19.0787 32.1161 19.2975C32.1923 19.5069 32.2971 19.6876 32.44 19.8208C32.5352 19.9255 32.621 20.0111 32.6972 20.0872C32.7734 20.1538 32.8496 20.2109 32.9353 20.2585C33.0211 20.306 33.1354 20.3441 33.2688 20.3822C33.4021 20.4107 33.5736 20.4297 33.8023 20.4297C34.0309 20.4297 34.2119 20.4202 34.3453 20.3822C34.4786 20.3441 34.5834 20.306 34.6692 20.2585C34.7549 20.2109 34.8311 20.1443 34.9168 20.0777C34.9931 20.0016 35.0788 19.916 35.1741 19.8113C35.3074 19.6781 35.4217 19.5069 35.498 19.2975C35.5742 19.0882 35.6313 18.8218 35.679 18.4984C35.7171 18.1749 35.7456 17.8133 35.7552 17.4042V16.9666C35.7552 16.6812 35.7552 16.3672 35.7456 16.0247Z" fill="white"/>
<path d="M63.0009 19.5069C63.0009 20.0968 62.877 20.6486 62.6389 21.1623C62.4007 21.6856 62.0768 22.1328 61.6672 22.5133C61.1909 22.97 60.6288 23.3316 60.0001 23.5884C59.3618 23.8453 58.6568 23.9785 57.8947 23.9785H56.5515C55.9132 23.9785 55.3321 23.8929 54.7796 23.7216C54.227 23.5504 53.8841 23.4077 53.7507 23.303C53.5983 23.4077 53.2458 23.5409 52.7028 23.7216C52.1598 23.8929 51.5692 23.9785 50.9404 23.9785H49.521C48.8922 23.9785 48.3016 23.8929 47.7586 23.7216C47.2156 23.5504 46.8631 23.4077 46.7107 23.303C46.5773 23.4077 46.2344 23.5409 45.6818 23.7216C45.1293 23.8929 44.5386 23.9785 43.9099 23.9785H41.5854V20.4393H43.9194C43.9194 20.4393 44.0147 20.4012 44.11 20.3156C44.2814 20.1348 44.3862 19.916 44.4148 19.6686V10.6492H49.0161V19.4974C49.0161 19.6401 49.0161 19.7162 48.997 19.7447C49.0065 19.8018 49.0447 19.8874 49.1018 20.0016C49.159 20.1158 49.2352 20.2204 49.3209 20.3156C49.4162 20.4012 49.4829 20.4393 49.5114 20.4393H50.9595C50.9595 20.4393 51.0547 20.4012 51.15 20.3156C51.2357 20.2204 51.3119 20.1158 51.3691 20.0016C51.4263 19.8874 51.4644 19.8018 51.4739 19.7447C51.4739 19.7162 51.4548 19.6401 51.4548 19.4974V10.6492H56.0561V19.6781C56.0752 19.916 56.18 20.1253 56.361 20.2966C56.4562 20.3917 56.5229 20.4393 56.5515 20.4393H57.9233C57.9233 20.4393 58.0186 20.4012 58.1138 20.3156C58.2091 20.2204 58.2948 20.0968 58.352 19.9636C58.3996 19.8494 58.4282 19.6876 58.4282 19.4688V10.6492H63.0295M48.9113 7.22416C48.9113 6.91971 48.9684 6.63428 49.0923 6.35837C49.2161 6.09198 49.3781 5.85413 49.5781 5.65434C49.7877 5.45454 50.0163 5.30231 50.2831 5.18814C50.5498 5.07397 50.8356 5.01688 51.1309 5.01688C51.4263 5.01688 51.7216 5.07397 51.9979 5.18814C52.2741 5.30231 52.5123 5.45454 52.7219 5.65434C52.9314 5.85413 53.0934 6.09198 53.2077 6.35837C53.322 6.62477 53.3887 6.91971 53.3887 7.22416C53.3887 7.52861 53.3315 7.82354 53.2077 8.08042C53.0934 8.33731 52.9314 8.56565 52.7219 8.76544C52.5123 8.96524 52.2741 9.11747 51.9979 9.23164C51.7216 9.34581 51.4358 9.40289 51.1309 9.40289C50.8261 9.40289 50.5498 9.34581 50.2831 9.23164C50.0163 9.11747 49.7782 8.96524 49.5781 8.76544C49.3781 8.56565 49.2066 8.34682 49.0923 8.08042C48.9684 7.82354 48.9113 7.53813 48.9113 7.22416ZM51.169 2.7335C51.169 2.41953 51.2357 2.1341 51.3596 1.86771C51.4834 1.60131 51.6549 1.36347 51.855 1.16367C52.0645 0.963877 52.3027 0.802132 52.5694 0.697477C52.8457 0.583308 53.141 0.52623 53.4649 0.52623C53.7602 0.52623 54.0365 0.583308 54.3032 0.697477C54.57 0.811646 54.8081 0.963877 54.9987 1.16367C55.1987 1.36347 55.3512 1.60131 55.475 1.86771C55.5893 2.1341 55.6465 2.42905 55.6465 2.7335C55.6465 3.03795 55.5893 3.32337 55.475 3.58025C55.3607 3.83713 55.1987 4.06547 54.9987 4.26527C54.7986 4.46507 54.57 4.6173 54.3032 4.73147C54.0365 4.83612 53.7602 4.8932 53.4649 4.8932C53.141 4.8932 52.8457 4.83612 52.5694 4.73147C52.2932 4.6173 52.0645 4.46507 51.855 4.26527C51.6549 4.06547 51.4834 3.83713 51.3596 3.58025C51.2357 3.32337 51.169 3.03795 51.169 2.7335ZM53.846 7.22416C53.846 6.91971 53.9127 6.63428 54.0365 6.35837C54.1604 6.09198 54.3318 5.85413 54.5319 5.65434C54.7415 5.45454 54.9796 5.30231 55.2464 5.18814C55.5226 5.07397 55.818 5.01688 56.1419 5.01688C56.4372 5.01688 56.7134 5.07397 56.9802 5.18814C57.2469 5.30231 57.4851 5.45454 57.6851 5.65434C57.8852 5.85413 58.0376 6.09198 58.1615 6.35837C58.2758 6.62477 58.3329 6.91971 58.3329 7.22416C58.3329 7.52861 58.2758 7.82354 58.1615 8.08042C58.0471 8.33731 57.8852 8.56565 57.6851 8.76544C57.4851 8.96524 57.2564 9.11747 56.9802 9.23164C56.7134 9.34581 56.4372 9.40289 56.1419 9.40289C55.818 9.40289 55.5226 9.34581 55.2464 9.23164C54.9701 9.11747 54.7319 8.96524 54.5319 8.76544C54.3318 8.56565 54.1604 8.34682 54.0365 8.08042C53.9127 7.82354 53.846 7.53813 53.846 7.22416Z" fill="white"/>
<path d="M78.91 18.0322C78.2432 19.916 77.9193 21.3716 77.9193 22.3991V22.6275C77.9574 23.6645 78.1765 24.5398 78.5575 25.2343C78.7766 25.6339 79.0243 25.9574 79.3101 26.2238C79.5959 26.4902 79.9198 26.7186 80.2628 26.9088C80.5867 27.0801 80.9296 27.2038 81.2821 27.2989C81.6441 27.3846 81.9966 27.4321 82.349 27.4416H82.4824C83.0635 27.4416 83.6256 27.337 84.1591 27.1277C84.7116 26.9088 85.1784 26.5854 85.5499 26.1572C85.7024 25.986 85.8357 25.7957 85.931 25.5864C86.0167 25.4246 86.0739 25.2439 86.0929 25.0536C86.1025 25.0155 86.112 24.9775 86.112 24.9299C86.112 24.8062 86.0929 24.6825 86.0548 24.5493C85.9977 24.3305 85.8834 24.1022 85.7214 23.8643C85.5595 23.6265 85.3118 23.3601 84.9783 23.0842C84.6925 22.8558 84.3496 22.6275 83.94 22.3896C83.5303 22.1518 82.7301 21.7807 81.5488 21.267L84.1019 18.4223L84.6735 18.565L84.7592 18.5935C85.0641 18.7077 85.3499 18.8314 85.6357 18.955C85.9215 19.0787 86.1977 19.1929 86.4645 19.3071C86.8551 19.4878 87.2266 19.6496 87.5695 19.7828C87.9125 19.9255 88.2745 20.0397 88.6365 20.1443C88.9985 20.2394 89.3986 20.3156 89.8273 20.3822C90.256 20.4392 90.9991 20.4678 92.0565 20.4678V24.007H90.6371C90.6752 24.2544 90.6942 24.5588 90.6942 24.8918C90.6942 25.0726 90.6847 25.2534 90.6656 25.4342C90.5989 25.9194 90.4656 26.3761 90.275 26.8042C90.0274 27.2989 89.732 27.7461 89.37 28.1552C88.9509 28.6404 88.4745 29.0685 87.9411 29.4206C87.4076 29.7726 86.8265 30.077 86.2073 30.3054C85.588 30.5432 84.9498 30.7145 84.2734 30.8287C83.6542 30.9333 83.0445 30.9809 82.4157 30.9809H82.2443C81.444 30.9619 80.6629 30.8572 79.8817 30.6669C79.1005 30.4861 78.3575 30.2007 77.643 29.8297C76.9571 29.4681 76.3379 29.0305 75.7758 28.5072C75.2137 27.9839 74.7374 27.375 74.3468 26.671C74.042 26.1287 73.8038 25.5388 73.6324 24.8918C73.4609 24.2544 73.3561 23.5694 73.337 22.8273V22.5609C73.337 21.9044 73.4037 21.2289 73.5276 20.5058C73.6514 19.6971 73.9562 18.6411 74.4326 17.3376" fill="white"/>
<path d="M102.84 10.0023C103.326 10.2306 103.784 10.535 104.212 10.9061C104.641 11.2771 105.012 11.7148 105.327 12.219C105.641 12.7233 105.889 13.2846 106.079 13.9126C106.27 14.5405 106.365 15.2255 106.384 15.9676C106.384 16.5289 106.403 17.0617 106.403 17.5565C106.403 18.0893 106.365 18.5745 106.299 19.0407C106.232 19.4973 106.127 19.8684 105.994 20.1348C105.946 20.2299 105.917 20.2965 105.917 20.3441C105.917 20.4297 105.965 20.4678 106.06 20.4678C106.098 20.4678 106.137 20.4678 106.175 20.4583H108.499V23.9975H91.1705V20.4583H93.5521C93.5521 20.4583 93.5998 20.4678 93.6188 20.4678C93.6855 20.4678 93.7236 20.4297 93.7236 20.3441C93.7236 20.306 93.7046 20.2299 93.676 20.1348C93.5807 19.8684 93.495 19.5069 93.4283 19.0407C93.3616 18.5745 93.3235 18.0892 93.3235 17.566C93.3235 17.4708 93.314 17.3567 93.314 17.2425C93.314 16.8239 93.314 16.4052 93.3426 15.9581C93.3521 15.216 93.4569 14.531 93.6379 13.903C93.8284 13.2751 94.0761 12.7138 94.4 12.2095C94.7144 11.7053 95.0859 11.2771 95.5146 10.8966C95.9433 10.5255 96.4005 10.2211 96.8864 9.99275C97.3341 9.78344 97.8105 9.63121 98.3154 9.52655C98.8203 9.4219 99.3347 9.37432 99.8491 9.37432C100.364 9.37432 100.878 9.4219 101.383 9.51704C101.888 9.6217 102.374 9.77392 102.831 9.99275M97.4199 6.21564C97.4199 5.90168 97.4866 5.61625 97.6104 5.34986C97.7343 5.08346 97.9057 4.8456 98.1058 4.64581C98.3058 4.44601 98.544 4.28428 98.8203 4.17962C99.0965 4.06545 99.3919 4.00836 99.7062 4.00836C100.002 4.00836 100.278 4.06545 100.545 4.17962C100.811 4.29379 101.049 4.44601 101.25 4.64581C101.45 4.8456 101.602 5.08346 101.726 5.34986C101.84 5.61625 101.897 5.91119 101.897 6.21564C101.897 6.52009 101.84 6.80552 101.726 7.0624C101.612 7.31928 101.45 7.54762 101.25 7.74742C101.049 7.94721 100.821 8.09943 100.545 8.2136C100.278 8.32777 100.002 8.38486 99.7062 8.38486C99.3823 8.38486 99.087 8.32777 98.8203 8.2136C98.544 8.09943 98.3058 7.94721 98.1058 7.74742C97.8962 7.55713 97.7343 7.32879 97.6104 7.0624C97.4866 6.80552 97.4199 6.52009 97.4199 6.21564ZM101.802 16.0247C101.802 15.568 101.745 15.1779 101.669 14.8449C101.583 14.5024 101.478 14.217 101.335 13.9601C101.202 13.7128 101.049 13.513 100.888 13.3607C100.726 13.2085 100.554 13.0753 100.364 12.9897C100.325 12.9707 100.259 12.9516 100.163 12.9326C100.068 12.9136 99.9634 12.8945 99.8682 12.885H99.8205C99.7443 12.885 99.6586 12.885 99.5729 12.9136C99.4871 12.9326 99.4109 12.9611 99.3347 12.9897C99.1632 13.0848 98.9917 13.2085 98.8298 13.3607C98.6678 13.513 98.5249 13.7128 98.382 13.9601C98.2487 14.2075 98.1344 14.5024 98.0582 14.8449C97.9819 15.1779 97.9248 15.5775 97.9248 16.0247C97.9153 16.3672 97.9153 16.6812 97.9153 16.9666C97.9153 17.1093 97.9153 17.252 97.9248 17.3852C97.9248 17.8133 97.9438 18.1844 97.9915 18.4984C98.0296 18.8218 98.0963 19.0787 98.1725 19.2975C98.2487 19.5069 98.3535 19.6876 98.4964 19.8208C98.5916 19.9255 98.6774 20.0111 98.7536 20.0872C98.8298 20.1538 98.906 20.2109 98.9917 20.2585C99.0775 20.306 99.1918 20.3441 99.3252 20.3822C99.4585 20.4107 99.63 20.4297 99.8586 20.4297C100.087 20.4297 100.268 20.4202 100.402 20.3822C100.535 20.3441 100.64 20.306 100.726 20.2585C100.811 20.2109 100.888 20.1443 100.973 20.0777C101.049 20.0016 101.135 19.916 101.23 19.8113C101.364 19.6781 101.478 19.5069 101.554 19.2975C101.631 19.0882 101.697 18.8218 101.735 18.4984C101.783 18.1749 101.812 17.8133 101.812 17.4042V16.9666C101.812 16.6812 101.812 16.3672 101.802 16.0247Z" fill="white"/>
<path d="M129.057 19.6971C129.076 19.935 129.181 20.1443 129.362 20.3155C129.457 20.4107 129.524 20.4583 129.553 20.4583H131.887V23.9975H129.562C128.933 23.9975 128.343 23.9119 127.79 23.7406C127.238 23.5694 126.895 23.4267 126.761 23.322C126.609 23.4267 126.256 23.5599 125.713 23.7406C125.17 23.9119 124.58 23.9975 123.941 23.9975H122.598C121.969 23.9975 121.379 23.9119 120.826 23.7406C120.274 23.5694 119.931 23.4267 119.797 23.322C119.645 23.4267 119.293 23.5599 118.75 23.7406C118.207 23.9119 117.616 23.9975 116.987 23.9975H115.568C114.939 23.9975 114.348 23.9119 113.805 23.7406C113.262 23.5694 112.91 23.4267 112.757 23.322C112.624 23.4267 112.281 23.5599 111.729 23.7406C111.176 23.9119 110.585 23.9975 109.957 23.9975H107.632V20.4583H109.966C109.966 20.4583 110.061 20.4202 110.157 20.3346C110.328 20.1538 110.433 19.935 110.462 19.6876V10.6682H115.063V19.5259C115.063 19.6686 115.063 19.7447 115.044 19.7733C115.053 19.8303 115.091 19.916 115.149 20.0301C115.206 20.1443 115.282 20.249 115.368 20.3441C115.463 20.4297 115.53 20.4678 115.558 20.4678H117.006C117.006 20.4678 117.101 20.4297 117.197 20.3441C117.282 20.249 117.359 20.1443 117.416 20.0301C117.473 19.916 117.511 19.8303 117.521 19.7733C117.521 19.7447 117.502 19.6686 117.502 19.5259V10.6682H122.103V19.7066C122.122 19.9445 122.227 20.1538 122.408 20.3251C122.503 20.4202 122.57 20.4678 122.598 20.4678H123.97C123.97 20.4678 124.065 20.4297 124.161 20.3441C124.246 20.249 124.323 20.1443 124.38 20.0301C124.437 19.916 124.475 19.8303 124.484 19.7733C124.475 19.7447 124.465 19.6686 124.465 19.5259V10.6682H129.067M114.987 7.19559C114.987 6.88163 115.053 6.5962 115.168 6.32981C115.291 6.06341 115.453 5.82555 115.653 5.62576C115.854 5.42596 116.092 5.27373 116.358 5.15005C116.625 5.03588 116.911 4.98831 117.216 4.98831C117.521 4.98831 117.806 5.0454 118.073 5.15005C118.349 5.26422 118.588 5.42596 118.797 5.62576C119.007 5.82555 119.169 6.06341 119.283 6.32981C119.397 6.5962 119.455 6.89114 119.455 7.19559C119.455 7.50005 119.397 7.78547 119.283 8.04235C119.169 8.29923 119.007 8.52757 118.797 8.72737C118.588 8.92716 118.349 9.07938 118.073 9.19355C117.797 9.30772 117.511 9.36481 117.216 9.36481C116.92 9.36481 116.635 9.30772 116.358 9.19355C116.092 9.07938 115.854 8.92716 115.653 8.72737C115.444 8.52757 115.282 8.30874 115.168 8.04235C115.044 7.78547 114.987 7.50005 114.987 7.19559ZM117.244 2.70493C117.244 2.39097 117.311 2.11505 117.435 1.83914C117.559 1.57275 117.73 1.3349 117.93 1.13511C118.13 0.935312 118.378 0.773572 118.645 0.659403C118.912 0.545233 119.216 0.49765 119.531 0.49765C119.826 0.49765 120.102 0.554748 120.379 0.659403C120.645 0.773572 120.874 0.935312 121.074 1.13511C121.274 1.3349 121.426 1.57275 121.55 1.83914C121.665 2.10554 121.722 2.39097 121.722 2.70493C121.722 3.0189 121.665 3.2948 121.55 3.5612C121.436 3.81808 121.274 4.04642 121.074 4.24621C120.874 4.44601 120.636 4.59824 120.379 4.71241C120.112 4.82658 119.826 4.88366 119.531 4.88366C119.207 4.88366 118.912 4.82658 118.645 4.71241C118.369 4.59824 118.13 4.44601 117.93 4.24621C117.721 4.04642 117.559 3.81808 117.435 3.5612C117.311 3.30431 117.244 3.0189 117.244 2.70493ZM119.921 7.19559C119.921 6.88163 119.988 6.5962 120.112 6.32981C120.236 6.06341 120.407 5.82555 120.607 5.62576C120.807 5.42596 121.055 5.27373 121.322 5.15005C121.598 5.03588 121.893 4.98831 122.217 4.98831C122.512 4.98831 122.789 5.0454 123.056 5.15005C123.322 5.26422 123.551 5.42596 123.751 5.62576C123.951 5.82555 124.103 6.06341 124.227 6.32981C124.342 6.5962 124.408 6.89114 124.408 7.19559C124.408 7.50005 124.351 7.78547 124.227 8.04235C124.113 8.29923 123.951 8.52757 123.751 8.72737C123.551 8.92716 123.313 9.07938 123.056 9.19355C122.789 9.30772 122.512 9.36481 122.217 9.36481C121.893 9.36481 121.598 9.30772 121.322 9.19355C121.045 9.07938 120.807 8.92716 120.607 8.72737C120.407 8.52757 120.236 8.30874 120.112 8.04235C119.988 7.78547 119.921 7.50005 119.921 7.19559Z" fill="white"/>
<path d="M139.498 10.6587V19.5164C139.498 19.6591 139.498 19.7352 139.479 19.7637C139.489 19.8208 139.527 19.9064 139.584 20.0206C139.641 20.1348 139.708 20.2394 139.803 20.3346C139.898 20.4202 139.965 20.4583 139.994 20.4583H143.147V23.9975H140.003C139.374 23.9975 138.784 23.9119 138.241 23.7406C137.698 23.5694 137.345 23.4267 137.193 23.322C137.059 23.4267 136.716 23.5599 136.164 23.7406C135.611 23.9119 135.021 23.9975 134.392 23.9975H131.02V20.4583H134.402C134.402 20.4583 134.497 20.4202 134.592 20.3346C134.764 20.1538 134.868 19.935 134.897 19.6876V10.6682M132.458 6.10146C132.458 5.7875 132.515 5.50208 132.639 5.23569C132.763 4.96929 132.925 4.74095 133.125 4.53164C133.335 4.33184 133.563 4.17961 133.839 4.06544C134.106 3.95127 134.392 3.8942 134.687 3.8942C134.983 3.8942 135.278 3.95127 135.554 4.06544C135.831 4.17961 136.069 4.33184 136.278 4.53164C136.488 4.74095 136.65 4.96929 136.764 5.23569C136.878 5.50208 136.936 5.79701 136.936 6.10146C136.936 6.40591 136.878 6.69135 136.764 6.94823C136.65 7.20511 136.488 7.43344 136.278 7.63324C136.069 7.83303 135.831 7.98526 135.554 8.09943C135.278 8.2136 134.992 8.27069 134.687 8.27069C134.382 8.27069 134.106 8.2136 133.839 8.09943C133.573 7.98526 133.335 7.83303 133.125 7.63324C132.925 7.43344 132.753 7.20511 132.639 6.94823C132.515 6.69135 132.458 6.40591 132.458 6.10146ZM137.393 6.10146C137.393 5.7875 137.46 5.50208 137.583 5.23569C137.707 4.96929 137.879 4.74095 138.079 4.53164C138.288 4.33184 138.526 4.17961 138.793 4.06544C139.07 3.95127 139.365 3.8942 139.689 3.8942C139.984 3.8942 140.26 3.95127 140.527 4.06544C140.794 4.17961 141.032 4.33184 141.222 4.53164C141.423 4.74095 141.575 4.96929 141.699 5.23569C141.813 5.50208 141.87 5.79701 141.87 6.10146C141.87 6.40591 141.813 6.69135 141.699 6.94823C141.584 7.20511 141.423 7.43344 141.222 7.63324C141.022 7.83303 140.794 7.98526 140.527 8.09943C140.26 8.2136 139.984 8.27069 139.689 8.27069C139.365 8.27069 139.07 8.2136 138.793 8.09943C138.517 7.98526 138.288 7.83303 138.079 7.63324C137.879 7.43344 137.707 7.20511 137.583 6.94823C137.46 6.69135 137.393 6.40591 137.393 6.10146Z" fill="white"/>
<path d="M163.695 19.6971C163.714 19.935 163.819 20.1443 164 20.3156C164.105 20.4107 164.162 20.4583 164.191 20.4583H166.525V23.9975H164.2C163.572 23.9975 162.981 23.9119 162.428 23.7311C161.876 23.5599 161.533 23.4172 161.399 23.322C161.247 23.4267 160.895 23.5599 160.352 23.7311C159.809 23.9119 159.218 23.9975 158.589 23.9975H157.246C156.617 23.9975 156.027 23.9119 155.474 23.7311C154.921 23.5599 154.579 23.4172 154.445 23.322C154.293 23.4267 153.94 23.5599 153.397 23.7311C152.854 23.9119 152.264 23.9975 151.635 23.9975H150.215C149.587 23.9975 148.996 23.9119 148.453 23.7311C147.91 23.5599 147.558 23.4172 147.405 23.322C147.272 23.4267 146.929 23.5599 146.376 23.7311C145.824 23.9119 145.233 23.9975 144.604 23.9975H142.28V20.4583H144.614C144.614 20.4583 144.709 20.4202 144.804 20.3346C144.985 20.1538 145.081 19.935 145.109 19.6876V10.6682H149.711V19.5164C149.711 19.6591 149.711 19.7352 149.691 19.7637C149.701 19.8208 149.739 19.9065 149.796 20.0111C149.853 20.1253 149.93 20.2299 150.015 20.3251C150.111 20.4107 150.177 20.4488 150.206 20.4488H151.654C151.654 20.4488 151.749 20.4107 151.844 20.3251C151.93 20.2299 152.006 20.1253 152.064 20.0111C152.121 19.8969 152.159 19.8208 152.168 19.7637C152.168 19.7352 152.159 19.6591 152.159 19.5164V10.6682H156.76V19.6971C156.779 19.935 156.874 20.1443 157.065 20.3156C157.16 20.4107 157.227 20.4583 157.255 20.4583H158.627C158.627 20.4583 158.713 20.4202 158.818 20.3346C158.904 20.2394 158.98 20.1348 159.037 20.0206C159.094 19.9064 159.132 19.8303 159.142 19.7733C159.142 19.7447 159.132 19.6686 159.132 19.5259V10.6778H163.724" fill="white"/>
<path d="M167.382 20.4488V15.7488C167.382 15.0543 167.468 14.4073 167.639 13.8174C167.82 13.218 168.059 12.6757 168.354 12.2C168.659 11.7148 169.021 11.2962 169.44 10.9347C169.869 10.5731 170.316 10.2687 170.793 10.0403C171.25 9.82152 171.726 9.65977 172.212 9.54561C172.698 9.43144 173.203 9.37434 173.708 9.37434H173.841C174.298 9.37434 174.756 9.42192 175.213 9.51706C175.699 9.62172 176.175 9.78346 176.642 9.99277C177.128 10.2211 177.585 10.5256 178.014 10.8966C178.442 11.2677 178.814 11.7053 179.128 12.2096C179.443 12.7138 179.7 13.2751 179.881 13.9031C180.062 14.531 180.167 15.216 180.186 15.9581V20.8008C180.195 21.4668 180.062 22.0852 179.766 22.6465C179.614 22.9225 179.424 23.1984 179.214 23.4552C179.004 23.7121 178.757 23.95 178.461 24.1688C177.814 24.7016 177.071 25.0441 176.242 25.1868C175.899 25.2534 175.537 25.2819 175.175 25.2819C174.717 25.2819 174.279 25.2344 173.86 25.1392H173.803L169.297 23.988H165.648V20.4488M171.993 20.9625L174.413 21.581C174.651 21.6666 174.86 21.7046 175.022 21.7046C175.041 21.7046 175.07 21.7046 175.099 21.6951C175.232 21.6951 175.337 21.6571 175.403 21.6C175.461 21.5524 175.518 21.4573 175.556 21.3146C175.603 21.1814 175.623 21.0101 175.623 20.8103V16.0247C175.594 15.568 175.556 15.178 175.47 14.845C175.384 14.5025 175.27 14.217 175.137 13.9602C175.003 13.7128 174.851 13.513 174.689 13.3608C174.527 13.2085 174.365 13.0848 174.203 12.9992C174.032 12.9231 173.879 12.8851 173.765 12.8851C173.612 12.8946 173.441 12.9326 173.26 13.0087C172.917 13.18 172.622 13.4844 172.364 13.9316C172.117 14.3788 171.983 14.9877 171.983 15.7583V20.9625H171.993Z" fill="white"/>
<path d="M34.5073 74.1844C33.3546 74.232 32.4115 73.861 31.697 73.0903C31.4779 72.8525 31.2207 72.4434 30.9254 71.8725C30.7253 71.4729 30.5157 71.2636 30.2966 71.2446C30.0108 71.2255 29.6203 71.4253 29.1439 71.844C28.6581 72.2626 28.3342 72.6717 28.1532 73.0713C27.8388 73.8419 27.5244 74.6031 27.2101 75.3737C26.8671 76.0873 26.467 76.4488 26.0002 76.4488C25.4191 76.4488 24.9047 76.0682 24.4474 75.3071C23.9711 74.4984 23.7329 73.4994 23.7329 72.3292C23.7329 71.863 23.7996 71.2351 23.9425 70.4454C23.9901 70.1505 24.0568 69.9982 24.1521 69.9982C24.2473 69.9982 24.2854 70.1695 24.2759 70.5025C24.2759 70.7689 24.2473 71.0828 24.2188 71.4158C24.1997 71.6727 24.1997 71.882 24.1997 72.0533C24.1997 72.7288 24.3236 73.3757 24.5617 74.0132C24.857 74.8314 25.2571 75.2405 25.7525 75.2405C26.1907 75.2405 26.5432 74.9931 26.8195 74.4794C27.0767 73.88 27.3244 73.2806 27.5721 72.6812C27.9436 71.8154 28.3818 71.1114 28.9058 70.5691C29.4869 69.9602 30.0394 69.6557 30.5634 69.6557C30.8301 69.6557 31.1159 69.8936 31.4112 70.3693C31.878 71.1209 32.1352 71.53 32.1924 71.5966C32.8116 72.3006 33.5928 72.6622 34.5359 72.6622M25.5334 61.9588C26.0097 62.0349 26.4861 62.3584 26.9528 62.9197C27.0862 63.1481 27.1434 63.3098 27.1434 63.405C27.01 63.9473 26.8766 64.2136 26.7337 64.2136V64.2327C26.6004 64.2041 26.3146 64.1566 25.8859 64.09C25.5429 64.756 24.9713 65.2412 24.1711 65.5742L24.114 65.6503V65.7169C24.114 65.793 24.314 65.831 24.7046 65.8406H24.7522C25.2381 65.8406 26.0002 65.7169 27.0291 65.4505L27.0481 65.4981C26.4956 65.9262 25.8859 66.2021 25.2381 66.3163C25.0666 66.3829 24.8189 66.4209 24.5141 66.4209C24.0759 66.4209 23.8663 66.2687 23.8663 65.9642V65.9357C23.8663 65.4981 24.1997 65.0985 24.8761 64.7464C25.1714 64.5371 25.4191 64.3088 25.6287 64.0519C25.1523 63.9568 24.9142 63.757 24.9142 63.4715C24.9142 63.2622 24.9809 63.0244 25.1142 62.7485C25.0761 62.6343 25.0571 62.5201 25.0571 62.4155V62.3965C25.0571 62.1586 25.219 62.0064 25.5429 61.9683M25.1905 63.1861V63.3003C25.2762 63.4145 25.4858 63.4811 25.8192 63.4811L25.8573 63.3383C25.8573 63.0054 25.7716 62.8341 25.6096 62.8341H25.5906C25.4858 62.8341 25.3619 62.9483 25.2 63.1766M26.1526 62.9578V63.0149C26.1526 63.2242 26.1336 63.4145 26.0859 63.5857C26.4956 63.6333 26.7433 63.6713 26.81 63.6809V63.6428C26.81 63.4335 26.5908 63.2052 26.1431 62.9578M28.7057 67.5721C28.7057 67.7529 28.6581 67.9717 28.5723 68.2191C28.4676 68.5235 28.3437 68.6758 28.2008 68.6758C28.1341 68.6758 27.8674 68.5331 27.4101 68.2476C26.9147 67.9527 26.6575 67.7529 26.6575 67.6292C26.6575 67.515 26.8385 67.0679 27.191 66.3068C27.4006 66.5161 27.7435 66.7634 28.2199 67.0393C28.5342 67.2201 28.6962 67.4009 28.6962 67.5816M30.8873 66.9442C30.8873 67.0584 30.8396 67.2487 30.7444 67.5246C30.6205 67.8576 30.4967 68.0954 30.3633 68.2381C30.0775 68.0954 29.7917 67.9337 29.5059 67.7814C29.1058 67.5531 28.9058 67.3914 28.9058 67.2772C28.9058 67.2391 28.982 67.0298 29.1344 66.6588C29.2868 66.2877 29.3916 66.0974 29.4583 66.0974C30.4014 66.497 30.8777 66.7825 30.8777 66.9347M30.0013 72.5861C29.7155 73.4804 29.5821 74.0417 29.5821 74.2891C29.5821 74.6601 29.6774 74.8504 29.8679 74.8504C30.0013 74.8504 30.1537 74.6887 30.3157 74.3557H30.3347L30.3633 74.4033C30.2299 75.0978 30.0489 75.4403 29.8013 75.4403H29.7155C29.5345 75.4403 29.4107 75.3261 29.3345 75.0883C29.3154 74.9836 29.3154 74.9075 29.3154 74.8504V74.565C29.3154 73.9942 29.5345 73.3282 29.9632 72.5956H30.0013V72.5861ZM33.0879 66.5827C32.7163 67.7529 32.5353 68.495 32.5353 68.809C32.5353 69.3037 32.6592 69.5511 32.9069 69.5511C33.0879 69.5511 33.2879 69.3322 33.488 68.8946H33.507L33.5547 68.9612C33.3927 69.8745 33.145 70.3312 32.8211 70.3312H32.7163C32.4782 70.3312 32.3067 70.179 32.221 69.865C32.2019 69.7318 32.1924 69.6272 32.1924 69.5511V69.161C32.1924 68.4094 32.4782 67.5436 33.0498 66.5732H33.1069L33.0879 66.5827Z" fill="white"/>
<path d="M37.9078 70.6737C38.0031 71.4254 37.7459 72.1579 37.1458 72.862C36.9076 73.1379 36.5361 73.4233 36.0408 73.6992C35.4502 74.0227 34.9454 74.1844 34.5072 74.1844V72.6812C35.1549 72.6812 35.8313 72.4909 36.5361 72.1104C37.1744 71.7583 37.4601 71.511 37.403 71.3778C37.2982 71.1304 36.9076 70.6071 36.2218 69.8175C35.5645 69.0563 35.1073 68.3047 34.8596 67.5531C34.7072 67.5531 34.6406 67.515 34.6406 67.4389C34.6691 67.163 34.7072 66.8015 34.7739 66.3353C34.812 66.1165 34.8787 66.0594 34.993 66.1545C35.3645 66.4019 35.8027 66.7254 36.3266 67.1059C36.5076 67.2582 36.6028 67.3723 36.6028 67.458C36.6028 67.5341 36.5457 67.5626 36.4314 67.5626C36.2123 67.5626 36.0313 67.5531 35.8789 67.5246C35.9456 67.7053 36.298 68.1715 36.9553 68.8946C37.5363 69.5701 37.8602 70.1504 37.9174 70.6642M36.5361 76.7533C36.5838 76.8199 36.5361 77.0577 36.4218 77.4668C36.298 77.8664 36.1742 78.0662 36.0408 78.0662C35.9837 78.0662 35.7741 77.952 35.4217 77.7237C35.0311 77.4858 34.8406 77.3051 34.8406 77.1814C34.8406 77.0672 35.0121 76.62 35.3645 75.8399C35.6217 76.0968 35.8884 76.2871 36.1456 76.4203C36.3361 76.5154 36.479 76.62 36.5457 76.7437M37.022 63.5857C36.7362 64.4801 36.6028 65.0414 36.6028 65.2887C36.6028 65.6598 36.6981 65.8501 36.8886 65.8501C37.022 65.8501 37.1744 65.6883 37.3363 65.3553H37.3553L37.3839 65.3934C37.2506 66.0879 37.0696 66.44 36.8219 66.44H36.7362C36.5552 66.44 36.4314 66.3258 36.3552 66.0879C36.3456 65.9833 36.3361 65.9072 36.3361 65.8501V65.5646C36.3361 64.9938 36.5552 64.3278 36.9838 63.5952H37.0315L37.022 63.5857ZM38.4508 76.1824C38.4508 76.2966 38.4032 76.4964 38.2984 76.7818C38.1841 77.1148 38.0602 77.3526 37.9269 77.5049C37.041 77.0101 36.5933 76.6962 36.5933 76.5535C36.5933 76.4964 36.66 76.2775 36.8029 75.9065C36.9553 75.4974 37.0696 75.2881 37.1363 75.2881C38.0126 75.7162 38.4508 76.0112 38.4508 76.1729" fill="white"/>
<path d="M44.9383 74.1845C44.281 74.1845 43.6714 73.8705 43.1094 73.2521C42.6807 72.7764 42.3855 72.2817 42.233 71.7584C42.0235 71.0734 41.8234 69.7794 41.6234 67.8576C41.4043 65.7169 41.1567 63.719 40.8709 61.8637C40.7947 61.3119 40.6042 60.5793 40.3184 59.6659C40.0612 58.8192 39.9279 58.372 39.9279 58.334C40.0231 57.9915 40.1469 57.5633 40.2708 57.0305C40.2898 56.9925 40.3184 56.9735 40.3565 56.9735C40.5375 56.9735 40.7947 57.5158 41.1186 58.6004C41.4234 59.6089 41.652 60.5793 41.8044 61.5212C42.0616 63.1671 42.2711 64.8607 42.4236 66.5922C42.4902 67.5341 42.576 68.476 42.6522 69.4179C42.7855 70.512 43.1284 71.3588 43.6714 71.9677C44.1001 72.4434 44.5192 72.6908 44.9383 72.6908M40.909 70.5596C40.6232 71.4539 40.4899 72.0153 40.4899 72.2626C40.4899 72.6337 40.5851 72.824 40.7756 72.824C40.909 72.824 41.0614 72.6622 41.2233 72.3292H41.2424L41.271 72.3768C41.1376 73.0713 40.9566 73.4234 40.709 73.4234H40.6232C40.4422 73.4234 40.3184 73.3092 40.2422 73.0713C40.2232 72.9667 40.2232 72.8906 40.2232 72.8335V72.5385C40.2232 71.9677 40.4422 71.3017 40.8709 70.5691H40.9185L40.909 70.5596ZM42.1664 55.7747H42.1949C42.9951 56.3741 43.3952 57.1162 43.3952 57.982V58.2484C43.3952 58.667 43.2999 58.9905 43.0999 59.1998H43.0808C43.0808 59.1998 43.0237 59.1807 43.0237 59.1236C43.0713 58.8573 43.0999 58.6194 43.0999 58.4101C43.0999 57.7346 42.6903 57.0305 41.8615 56.298C41.8806 56.1648 41.9854 55.984 42.1568 55.7556M43.7286 62.8532C43.4428 63.7475 43.3094 64.3088 43.3094 64.5562C43.3094 64.9273 43.4047 65.1175 43.5952 65.1175C43.7286 65.1175 43.881 64.9558 44.0429 64.6228H44.062L44.0905 64.6704C43.9572 65.3649 43.7762 65.7169 43.5285 65.7169H43.4428C43.2618 65.7169 43.138 65.6028 43.0618 65.3649C43.0427 65.2603 43.0427 65.1841 43.0427 65.1271V64.8321C43.0427 64.2613 43.2618 63.6048 43.6905 62.8627H43.7381L43.7286 62.8532Z" fill="white"/>
<path d="M54.0261 69.494C53.8927 69.8175 53.6737 70.179 53.3784 70.5786C52.1305 71.2541 50.3683 72.158 48.0726 73.2711C46.6628 73.8705 45.615 74.1749 44.9387 74.1749V72.6717C46.158 72.6717 47.1582 72.51 47.9202 72.1865C46.2342 71.2256 45.396 70.179 45.396 69.0659C45.396 68.1906 45.7008 67.458 46.3104 66.8586C46.8819 66.2877 47.5392 65.9928 48.2917 65.9738C49.0919 65.9548 49.8634 66.1165 50.5969 66.4685C51.2161 66.7635 51.5304 67.0108 51.5304 67.2011C51.5304 67.2487 51.4923 67.2772 51.4066 67.2772C51.3494 67.2772 51.2732 67.2772 51.1875 67.2487C50.5493 67.0774 50.0921 66.9918 49.8253 66.9918C49.1681 66.9918 48.3679 67.144 47.4344 67.458C46.4533 67.7815 45.9675 68.0764 45.9675 68.3428C45.9675 68.8185 46.3485 69.3893 47.1106 70.0458C47.9774 70.7974 48.8918 71.1685 49.8634 71.1685C49.9682 71.1685 50.0635 71.1685 50.1683 71.1685C50.9398 70.7499 52.1496 70.141 53.788 69.3132C54.0071 69.2086 54.1214 69.2086 54.1214 69.2942C54.1214 69.3418 54.0928 69.4179 54.0261 69.5225M49.511 73.8515H49.5967C49.7396 73.9656 49.8158 74.1083 49.8158 74.2986C49.7015 74.5365 49.5777 74.6982 49.4538 74.7934H49.3967C49.3681 74.6316 49.2824 74.546 49.149 74.546C48.9299 74.546 48.768 74.7268 48.6727 75.0978C48.8347 75.3071 49.0252 75.4023 49.2252 75.4023H49.4157C49.5491 75.4023 49.8634 75.1644 50.3588 74.6982C50.3969 74.6982 50.4159 74.7172 50.4159 74.7553V74.917C50.4159 75.3452 50.1587 75.6972 49.6444 75.9921C48.8156 76.7723 48.3965 77.3336 48.3965 77.6761V77.7047C48.3965 77.9235 48.6156 78.0472 49.0347 78.0948H49.5015C49.9396 78.0948 50.5493 77.9806 51.359 77.7618L51.3971 77.8189C50.7398 78.4373 50.0063 78.7512 49.2062 78.7512H48.8442C48.3203 78.6466 48.0631 78.4182 48.0631 78.0948V77.8474C48.0631 77.3907 48.3108 76.8294 48.787 76.1634C48.3584 76.0112 48.1488 75.8209 48.1488 75.583V75.3927C48.1488 75.0122 48.5108 74.5175 49.2538 73.9276C49.3776 73.8895 49.4634 73.8705 49.5015 73.8705M51.4161 62.5868C51.1303 63.4811 50.997 64.0424 50.997 64.2898C50.997 64.6608 51.0922 64.8511 51.2732 64.8511C51.4066 64.8511 51.559 64.6894 51.7209 64.3564H51.74L51.7781 64.404C51.6447 65.0985 51.4542 65.4505 51.2161 65.4505H51.1303C50.9494 65.4505 50.8255 65.3363 50.7493 65.0985C50.7398 64.9938 50.7303 64.9177 50.7303 64.8606V64.5657C50.7303 63.9949 50.9494 63.3384 51.378 62.5963H51.4161V62.5868ZM52.4068 72.3197C52.121 73.214 51.9876 73.7754 51.9876 74.0227C51.9876 74.3938 52.0829 74.5841 52.2734 74.5841C52.4068 74.5841 52.5592 74.4223 52.7211 74.0893H52.7402L52.7687 74.1274C52.6354 74.8219 52.4544 75.1739 52.2067 75.1739H52.121C51.94 75.1739 51.8162 75.0598 51.74 74.8219C51.7304 74.7173 51.7209 74.6411 51.7209 74.5841V74.2986C51.7209 73.7278 51.94 73.0618 52.3687 72.3292H52.4163L52.4068 72.3197Z" fill="white"/>
<path d="M66.678 71.3493C66.678 71.5301 66.6399 71.7584 66.5827 72.0438C66.5065 72.3863 66.4208 72.5481 66.3351 72.5481C66.2779 72.5481 66.2207 72.491 66.1731 72.3673C65.8873 71.8535 65.3348 71.5871 64.5346 71.5871C63.7343 71.5871 62.7626 72.0248 61.6766 72.8906C61.1527 73.3187 59.9428 74.4604 58.0661 76.3252C57.0468 77.3337 56.2275 77.8379 55.6178 77.8474C55.0272 77.8474 54.5223 77.6381 54.1031 77.2005C53.6839 76.7628 53.4744 76.2395 53.4744 75.6306C53.4744 74.3462 53.9126 72.9191 54.789 71.3588C54.8938 71.1685 55.0176 71.0734 55.1415 71.0734C55.1796 71.0734 55.1986 71.0924 55.1986 71.1495C55.1986 71.2351 55.151 71.3683 55.0462 71.5586C54.246 73.1284 53.884 74.4319 53.9412 75.4879C53.9793 76.2681 54.2936 76.6582 54.8747 76.6582C55.7131 76.6582 56.7419 76.0778 57.9518 74.9361C59.0473 73.8705 60.1333 72.8049 61.2194 71.7394C62.5626 70.5977 63.8201 70.0268 64.9823 70.0268C65.4872 70.0268 65.8968 70.1505 66.2207 70.3979C66.5351 70.6452 66.6971 70.9592 66.6971 71.3303M57.6565 64.3945H57.7041C58.6377 64.9368 59.1045 65.6789 59.1045 66.6208V66.773C59.1045 67.2582 58.8378 68.0289 58.3043 69.0564L58.2376 69.3799C58.2376 69.789 58.3805 69.9888 58.6758 69.9888C58.8663 69.9888 59.0854 69.808 59.3141 69.437H59.4093C59.2188 70.2266 58.9425 70.6262 58.571 70.6262H58.4091C58.028 70.5786 57.8375 70.3027 57.8375 69.8175V69.7414C57.8375 69.3133 58.0947 68.6187 58.5996 67.6578C58.6472 67.42 58.6758 67.2297 58.6758 67.1155V66.9443C58.6758 66.2783 58.209 65.6028 57.2659 64.9273V64.8987C57.4088 64.6704 57.5422 64.5086 57.666 64.3945M63.6772 73.6136C63.3914 74.508 63.2485 75.0693 63.2485 75.3167C63.2485 75.6877 63.3438 75.878 63.5343 75.878C63.6677 75.878 63.8201 75.7068 63.982 75.3833H64.0011L64.0297 75.4213C63.8963 76.1159 63.7153 76.4679 63.4676 76.4679H63.3819C63.2009 76.4679 63.077 76.3537 63.0008 76.1159C62.9913 76.0112 62.9818 75.9351 62.9818 75.8875V75.5926C62.9818 75.0217 63.2009 74.3557 63.6296 73.6232H63.6772V73.6136Z" fill="white"/>
<path d="M71.6316 60.703C71.3459 61.5973 71.2125 62.1681 71.2125 62.406C71.2125 62.7771 71.3078 62.9673 71.4983 62.9673C71.6316 62.9673 71.784 62.8056 71.946 62.4726H71.965L71.9936 62.5202C71.8603 63.2147 71.6793 63.5667 71.4316 63.5667H71.3459C71.1649 63.5667 71.0411 63.443 70.9648 63.2052C70.9458 63.11 70.9458 63.0244 70.9458 62.9769V62.6819C70.9458 62.1111 71.1649 61.4451 71.5935 60.7125M80.1951 68.476C80.1951 69.161 80.0237 69.7414 79.6903 70.1981C79.5188 70.4359 79.1568 70.7308 78.6044 71.0829C78.1852 71.3493 77.7661 71.6157 77.3565 71.8821C76.061 72.8144 75.2037 73.4234 74.7941 73.6802C73.8701 74.2511 73.1176 74.5365 72.5461 74.5365C72.1174 74.5365 71.7841 74.3082 71.5269 73.8705C71.2887 73.4519 71.1744 72.9286 71.1744 72.2912C71.1744 71.9962 71.2506 71.511 71.403 70.826C71.5935 69.9602 71.8221 69.3323 72.0889 68.9327C72.1365 68.9327 72.1555 68.9612 72.1555 69.0373C72.1555 69.0944 72.0793 69.456 71.9174 70.1124C71.7555 70.7689 71.6793 71.3207 71.6793 71.7584C71.6793 72.1104 71.7745 72.4148 71.9555 72.6717C72.1365 72.9286 72.3651 73.0523 72.6318 73.0523C73.3081 73.0523 74.5274 72.4719 76.2801 71.3207C76.6897 71.0734 77.5756 70.4835 78.9377 69.5701C79.5093 69.1705 79.7665 68.9041 79.7093 68.7709C79.5474 68.3714 79.2616 68.0669 78.852 67.8386C78.109 67.439 77.3565 67.0394 76.604 66.6493C76.0706 66.3449 75.4895 65.8501 74.8608 65.1556C74.3369 64.5847 74.013 64.2898 73.8987 64.2898C73.8511 64.2898 73.8035 64.3088 73.7654 64.3469C73.7654 64.3469 73.7844 64.2042 73.832 63.9378C73.8797 63.6714 73.8892 63.3669 73.8797 63.0244C73.8797 62.7295 73.8797 62.5772 73.9178 62.5772C73.9368 62.5772 74.0607 62.6819 74.2797 62.8817C74.4036 62.9959 74.7655 63.1862 75.3561 63.4526C75.88 63.6809 76.1468 63.8331 76.1468 63.9092C76.1468 63.9473 76.0706 63.9758 75.9181 63.9949C75.7657 64.0044 75.5276 64.0424 75.2037 64.09C75.7086 64.5752 76.4801 65.07 77.4994 65.5742C78.5948 66.107 79.214 66.421 79.3473 66.5161C79.9284 66.9728 80.2142 67.6292 80.2142 68.4855M75.1656 67.4295C74.8799 68.3238 74.7465 68.8851 74.7465 69.1325C74.7465 69.5035 74.8418 69.6938 75.0323 69.6938C75.1656 69.6938 75.318 69.5226 75.48 69.1991H75.499L75.5276 69.2467C75.3942 69.9412 75.2037 70.2837 74.9656 70.2837H74.8799C74.6989 70.2837 74.575 70.1695 74.4988 69.9317C74.4798 69.827 74.4798 69.7509 74.4798 69.6938V69.3989C74.4798 68.828 74.6989 68.162 75.1275 67.4295H75.1752H75.1656ZM78.1376 58.3149C78.3376 58.3149 78.5472 58.5147 78.7663 58.9048C78.7853 58.9429 78.7949 59 78.7949 59.0666V59.1331C78.7187 59.5232 78.6329 59.723 78.5377 59.723C78.5091 59.723 78.3662 59.5898 78.109 59.3234L77.9471 59.2568C77.6613 59.2568 77.3756 60.1036 77.0898 61.7876C76.8993 62.3109 76.7564 62.5772 76.6516 62.5772C76.5849 62.5772 76.5278 62.3299 76.4611 61.8161C76.1658 60.9408 75.8991 60.3795 75.6705 60.1131H75.5657L75.4038 60.2368H75.3085C75.0894 60.2368 74.8513 60.0275 74.5846 59.6184V59.5518C74.8037 59.0951 74.9846 58.8192 75.118 58.7336H75.1847C75.9086 58.7336 76.4421 59.5518 76.804 61.1882V61.2167H76.8326C77.1469 59.2759 77.5851 58.2959 78.1567 58.2959M78.4138 72.3292C78.1281 73.2235 77.9947 73.7944 77.9947 74.0322C77.9947 74.4033 78.09 74.5936 78.2805 74.5936C78.4138 74.5936 78.5662 74.4318 78.7282 74.0988H78.7472L78.7758 74.1464C78.6425 74.8409 78.4615 75.1834 78.2138 75.1834H78.1281C77.9471 75.1834 77.8233 75.0693 77.7471 74.8314C77.728 74.7268 77.728 74.6507 77.728 74.5936V74.2986C77.728 73.7278 77.9471 73.0618 78.3757 72.3292H78.4234H78.4138Z" fill="white"/>
<path d="M90.4171 74.1845C90.1885 74.1845 89.9885 74.1655 89.836 74.0894C89.9027 74.4033 89.9313 74.7078 89.9313 74.9932C89.9313 75.507 89.7979 76.1159 89.5408 76.8294C89.4741 77.0102 89.1312 77.3717 88.512 77.9235C87.75 78.6086 86.9403 79.1699 86.102 79.6075C84.978 80.1879 83.9207 80.4828 82.911 80.4828C81.2726 80.4828 80.4629 79.4363 80.4629 77.3337C80.4629 75.8114 80.7487 74.4985 81.3107 73.3948C81.4631 73.0904 81.5869 72.9381 81.6917 72.9381C81.7393 72.9381 81.7584 72.9857 81.7584 73.0714C81.7584 73.176 81.7107 73.3282 81.625 73.528C81.2059 74.4889 80.9963 75.4404 80.9963 76.3632C80.9963 78.0948 81.6726 78.9606 83.0157 78.9606C84.4065 78.9606 85.8639 78.4659 87.3689 77.4859C88.6168 76.6772 89.3026 76.0493 89.4264 75.6021C89.436 75.545 89.4455 75.4879 89.4455 75.4213C89.4455 75.0217 89.074 74.2701 88.3405 73.1665C88.3215 73.1379 88.312 73.0904 88.312 73.0143C88.312 72.9001 88.3405 72.6718 88.4072 72.3388C88.4739 72.0058 88.5025 71.7869 88.5025 71.6823C88.5406 71.6157 88.5882 71.6062 88.6549 71.6633C88.8168 71.9011 89.0549 72.2151 89.3693 72.5861C89.4169 72.6432 89.7694 72.6717 90.4171 72.6717M84.3303 64.3945H84.3779C85.3114 64.9368 85.7782 65.6789 85.7782 66.6208V66.773C85.7782 67.2582 85.5114 68.0289 84.978 69.0564L84.9113 69.3799C84.9113 69.789 85.0542 69.9983 85.34 69.9983C85.54 69.9983 85.7496 69.8175 85.9782 69.4465H86.0734C85.8829 70.2361 85.6067 70.6357 85.2352 70.6357H85.0733C84.6922 70.5882 84.5017 70.3123 84.5017 69.827V69.7509C84.5017 69.3228 84.7589 68.6283 85.2638 67.6673C85.3114 67.4295 85.34 67.2392 85.34 67.125V66.9538C85.34 66.2878 84.8732 65.6123 83.9302 64.9368V64.9082C84.0636 64.6799 84.2064 64.5182 84.3303 64.404M86.4068 72.7764C86.1306 73.6707 85.9877 74.2321 85.9877 74.4794C85.9877 74.8505 86.083 75.0408 86.264 75.0408C86.4068 75.0408 86.5497 74.8695 86.7117 74.546H86.7307L86.7593 74.5841C86.6259 75.2786 86.4449 75.6306 86.1973 75.6306H86.1115C85.9306 75.6306 85.8067 75.5165 85.7305 75.2786C85.721 75.174 85.7115 75.0978 85.7115 75.0408V74.7458C85.7115 74.175 85.9306 73.509 86.3592 72.7764H86.4068ZM89.6551 79.1509C89.3693 80.0452 89.2359 80.616 89.2359 80.8539C89.2359 81.2249 89.3312 81.4152 89.5122 81.4152C89.6455 81.4152 89.7979 81.2535 89.9599 80.9205H89.9789L90.0075 80.9585C89.8742 81.6531 89.6932 81.9956 89.4455 81.9956H89.3598C89.1788 81.9956 89.055 81.8814 88.9787 81.6436C88.9597 81.5389 88.9597 81.4628 88.9597 81.4057V81.1108C88.9597 80.5399 89.1788 79.8834 89.6074 79.1413H89.6455L89.6551 79.1509Z" fill="white"/>
<path d="M100.687 70.4645C100.687 70.4645 100.754 70.5691 100.754 70.6833C100.754 70.9021 100.697 71.1685 100.573 71.4825C100.449 71.806 100.345 71.9582 100.249 71.9487C100.03 71.9392 99.811 71.9296 99.6015 71.9296C98.3726 71.9296 97.096 72.1294 95.7718 72.51C95.3336 72.6337 94.3238 72.9952 92.7519 73.5946C91.7231 73.9847 90.9514 74.175 90.4275 74.175V72.6717C91.1515 72.6717 91.9898 72.5005 92.9425 72.1675C94.1047 71.7584 94.9335 71.511 95.4289 71.4349C94.6858 71.3588 93.6951 71.1971 92.4757 70.9402C91.4849 70.7404 90.6942 70.6357 90.0845 70.6357C89.9893 70.6357 89.9417 70.5786 89.9417 70.4645C89.9417 70.122 90.1512 69.6748 90.5609 69.1135C91.5992 68.124 93.1902 67.2677 95.3146 66.5256C95.0192 65.8787 94.8668 65.4315 94.8668 65.1746C94.8668 64.5562 95.0764 64.109 95.5051 63.8331C95.6861 63.719 95.9052 63.6429 96.1529 63.6143C96.5625 63.5667 97.1151 63.8331 97.8105 64.423C98.3916 64.9177 98.7346 65.2793 98.8298 65.5076C98.8108 66.0499 98.6298 66.5256 98.2963 66.9442C97.7438 67.0679 97.0484 67.2487 96.2386 67.477C96.2577 67.7149 96.2386 67.8766 96.1529 67.9527C96.1148 67.9908 96.0862 68.0098 96.0481 68.0098C96.0005 68.0098 95.9624 67.9623 95.9243 67.8576C95.8671 67.6959 95.8385 67.6007 95.829 67.5817C93.9999 68.1811 92.6948 68.7614 91.9327 69.3133C93.4283 69.6462 94.6191 69.8841 95.5051 70.0173C97.077 70.2552 98.8012 70.4074 100.687 70.455M92.8091 61.5878C92.5233 62.4726 92.3899 63.0435 92.3899 63.2908C92.3899 63.6619 92.4852 63.8522 92.6662 63.8522C92.8091 63.8522 92.952 63.6904 93.114 63.3574H93.133L93.1616 63.405C93.0282 64.0995 92.8472 64.4515 92.5995 64.4515H92.5138C92.3328 64.4515 92.2089 64.3279 92.1327 64.0995C92.1232 63.9949 92.1137 63.9188 92.1137 63.8617V63.5667C92.1137 62.9959 92.3328 62.3394 92.7615 61.5973H92.8091V61.5878ZM97.5342 72.9857H97.6581C97.7914 72.9857 97.9343 73.1379 98.1153 73.4424C98.1439 73.6136 98.163 73.7278 98.163 73.7754C98.163 74.1274 98.0582 74.3843 97.8581 74.5365H97.7533C97.5628 74.5365 97.277 74.3557 96.8769 73.9942C96.7721 74.2986 96.6292 74.5841 96.4196 74.8505C95.7432 75.4974 95.0573 75.9541 94.3714 76.2205C93.133 76.5059 92.3995 76.6677 92.1708 76.6962V76.6296C94.5048 75.6687 95.8671 74.9646 96.2767 74.508C96.4482 74.3272 96.6197 74.0703 96.7721 73.7278C96.8769 73.5565 96.9436 73.4709 96.9626 73.4709H97.0293L97.077 73.4899C97.2294 73.1474 97.3913 72.9857 97.5533 72.9857M96.7054 77.9901C96.7054 78.4658 96.553 78.9035 96.2482 79.2745C95.8195 79.0557 95.3908 78.8369 94.9716 78.6085C94.762 78.4944 94.6572 78.3707 94.6572 78.2375C94.7334 77.9996 94.8668 77.5525 95.0573 76.9245C95.2383 77.0673 95.6004 77.2575 96.1434 77.4954C96.5149 77.6667 96.7054 77.8379 96.7054 77.9806M97.3246 65.9643C96.7626 65.3554 96.191 65.0414 95.5908 65.0224C95.5432 65.089 95.5241 65.1556 95.5241 65.2412C95.5241 65.3649 95.5813 65.5552 95.7051 65.793C95.8671 66.107 95.9528 66.2878 95.9814 66.3449C96.2672 66.2592 96.715 66.1355 97.3246 65.9738M97.4008 73.6898C97.6962 73.9086 97.8867 74.0132 97.982 74.0132V73.9276C97.9058 73.6802 97.7914 73.5566 97.639 73.5566H97.62C97.5342 73.5566 97.458 73.6041 97.4008 73.6898ZM99.5157 66.4971C99.2299 67.3914 99.0966 67.9527 99.0966 68.2001C99.0966 68.5712 99.1918 68.7614 99.3824 68.7614C99.5157 68.7614 99.6681 68.5997 99.8301 68.2667H99.8491L99.8777 68.3048C99.7444 68.9993 99.5634 69.3513 99.3157 69.3513H99.2299C99.0489 69.3513 98.9251 69.2371 98.8489 68.9993C98.8298 68.8946 98.8298 68.8185 98.8298 68.7614V68.476C98.8298 67.9052 99.0489 67.2392 99.4776 66.5066H99.5252L99.5157 66.4971Z" fill="white"/>
<path d="M103.536 69.3227C102.955 70.7308 102.659 71.6251 102.659 72.0057C102.659 72.5956 102.86 72.8905 103.241 72.8905C103.526 72.8905 103.841 72.6336 104.174 72.1104H104.222L104.288 72.177C104.022 73.2806 103.631 73.8229 103.117 73.8229H102.936C102.555 73.8229 102.297 73.6421 102.145 73.2616C102.116 73.0998 102.097 72.9761 102.097 72.881V72.4243C102.097 71.511 102.545 70.4739 103.45 69.3132M119.064 74.1844C118.388 74.1844 117.845 74.0322 117.416 73.7087C117.483 74.0513 117.511 74.4128 117.511 74.7838C117.511 75.7733 117.33 76.5344 116.968 77.0672C116.52 77.7237 115.415 78.5704 113.643 79.617C111.557 80.8729 109.785 81.4913 108.347 81.4913C106.832 81.4913 105.679 81.0061 104.898 80.0356C104.184 79.1508 103.822 77.933 103.822 76.3917C103.822 75.4593 103.955 74.4604 104.222 73.3948C104.269 73.176 104.327 73.0142 104.384 72.8905C104.489 72.6336 104.565 72.6051 104.612 72.8049C104.65 73.0047 104.612 73.2996 104.527 73.7087C104.355 74.4033 104.279 75.0788 104.279 75.7257C104.279 78.4943 105.708 79.8834 108.566 79.8834C109.576 79.8834 110.805 79.5599 112.243 78.913C113.396 78.3992 114.501 77.7618 115.568 77.0197C116.53 76.3441 117.006 75.916 116.997 75.7448C116.93 74.6221 116.578 73.5755 115.92 72.6051C115.873 72.5385 115.882 72.2911 115.939 71.863C116.006 71.3207 116.044 71.0163 116.044 70.9592C116.092 70.8831 116.139 70.8735 116.206 70.9401C116.397 71.178 116.692 71.5681 117.073 72.1104C117.616 72.4814 118.273 72.6717 119.054 72.6717V74.1749L119.064 74.1844ZM107.861 67.0964C108.051 67.0964 108.271 67.2962 108.49 67.6863C108.509 67.7244 108.518 67.7814 108.518 67.848V67.9146C108.442 68.3142 108.347 68.5045 108.261 68.5045C108.232 68.5045 108.09 68.3713 107.823 68.1049L107.661 68.0383C107.375 68.0383 107.089 68.8851 106.803 70.5691C106.613 71.0924 106.47 71.3588 106.365 71.3588C106.299 71.3588 106.232 71.1114 106.165 70.6071C105.87 69.7318 105.603 69.161 105.375 68.9041H105.27L105.108 69.0373H105.013C104.793 69.0373 104.555 68.828 104.288 68.4094V68.3428C104.517 67.8861 104.689 67.6102 104.822 67.5246H104.889C105.613 67.5246 106.146 68.3428 106.508 69.9792V70.0078H106.537C106.851 68.0669 107.289 67.0869 107.861 67.0869M112.557 68.1239C112.519 68.3618 112.472 68.5997 112.434 68.8375C112.357 69.199 112.262 69.3893 112.148 69.3893C112.014 69.3893 111.767 69.2942 111.414 69.1134C111.081 68.9422 110.9 68.828 110.881 68.7804C110.852 68.7329 110.833 68.6472 110.824 68.5235C110.9 68.2857 111.005 67.9337 111.119 67.4675C111.138 67.3343 111.176 67.2677 111.243 67.2772L111.424 67.3914C111.643 67.477 111.967 67.6292 112.396 67.848C112.443 67.8576 112.5 67.8766 112.538 67.9051C112.576 67.9242 112.586 68.0003 112.557 68.1335M114.882 80.5589C114.596 81.4532 114.463 82.0241 114.463 82.2619C114.463 82.633 114.558 82.8233 114.749 82.8233C114.882 82.8233 115.034 82.6615 115.196 82.3285H115.215L115.244 82.3761C115.111 83.0706 114.93 83.4131 114.682 83.4131H114.596C114.415 83.4131 114.291 83.299 114.215 83.0611C114.206 82.9565 114.196 82.8804 114.196 82.8233V82.5283C114.196 81.9575 114.415 81.301 114.844 80.5589H114.891H114.882Z" fill="white"/>
<path d="M125.284 71.863C125.284 72.2246 125.198 72.5766 125.036 72.9001C124.846 73.2521 124.627 73.4329 124.389 73.4329C124.113 73.4329 123.703 73.2997 123.15 73.0333C122.522 72.7098 122.065 72.3673 121.769 71.9867C121.35 72.6908 121.074 73.1284 120.921 73.2806C120.398 73.88 119.769 74.1845 119.054 74.1845V72.6813C119.55 72.6813 120.017 72.5861 120.455 72.4149C120.731 72.3007 121.074 71.9487 121.474 71.3588C121.855 70.807 122.093 70.5311 122.169 70.5311C122.207 70.5311 122.236 70.5501 122.265 70.6072C122.76 69.6843 123.293 69.2181 123.874 69.2181C124.341 69.2181 124.703 69.5035 124.96 70.0744C125.179 70.5501 125.284 71.159 125.284 71.8726M125.094 74.7173H125.217C125.351 74.7173 125.494 74.8695 125.675 75.174C125.703 75.3452 125.722 75.4594 125.722 75.507C125.722 75.859 125.618 76.1063 125.418 76.2586H125.313C125.122 76.2586 124.827 76.0778 124.436 75.7163C124.332 76.0207 124.179 76.3061 123.979 76.582C123.303 77.229 122.617 77.6857 121.931 77.9521C120.693 78.2375 119.959 78.3992 119.731 78.4278V78.3612C122.065 77.4003 123.427 76.6867 123.836 76.2395C124.008 76.0588 124.179 75.8019 124.332 75.4594C124.436 75.2881 124.503 75.2025 124.522 75.2025H124.589L124.636 75.2215C124.789 74.8885 124.951 74.7173 125.113 74.7173M120.588 68.2382C120.302 69.1325 120.169 69.7033 120.169 69.9412C120.169 70.3122 120.264 70.5025 120.455 70.5025C120.588 70.5025 120.74 70.3408 120.902 70.0078H120.921L120.95 70.0459C120.817 70.7404 120.636 71.0924 120.388 71.0924H120.302C120.121 71.0924 119.997 70.9782 119.921 70.7404C119.912 70.6357 119.902 70.5596 119.902 70.5025V70.2171C119.902 69.6463 120.121 68.9803 120.55 68.2477H120.598L120.588 68.2382ZM123.065 63.6904C122.779 64.5848 122.646 65.1461 122.646 65.3934C122.646 65.7645 122.741 65.9548 122.931 65.9548C123.065 65.9548 123.217 65.793 123.379 65.4601H123.398L123.427 65.5076C123.293 66.2021 123.112 66.5542 122.865 66.5542H122.779C122.598 66.5542 122.474 66.44 122.398 66.2022C122.379 66.0975 122.379 66.0214 122.379 65.9643V65.6694C122.379 65.0985 122.598 64.442 123.027 63.6999H123.074L123.065 63.6904ZM124.179 71.7203C124.179 71.4634 124.103 71.2256 123.96 71.0163C123.817 70.807 123.674 70.7023 123.512 70.7023C123.208 70.7023 122.969 70.7784 122.798 70.9402C123.122 71.2351 123.312 71.3969 123.35 71.4254C123.589 71.5871 123.865 71.6918 124.189 71.7299M124.951 75.4118C125.246 75.6306 125.437 75.7353 125.532 75.7353V75.6497C125.456 75.4118 125.341 75.2881 125.189 75.2881H125.17C125.084 75.2881 125.008 75.3262 124.951 75.4118Z" fill="white"/>
<path d="M139.173 74.1845C138.945 74.1845 138.745 74.1655 138.592 74.0894C138.659 74.4033 138.688 74.7078 138.688 74.9932C138.688 75.507 138.554 76.1159 138.297 76.8294C138.23 77.0102 137.887 77.3717 137.268 77.9235C136.506 78.6086 135.696 79.1699 134.858 79.6075C133.734 80.1879 132.677 80.4828 131.667 80.4828C130.029 80.4828 129.219 79.4363 129.219 77.3337C129.219 75.8114 129.505 74.4985 130.067 73.3948C130.219 73.0904 130.343 72.9381 130.448 72.9381C130.486 72.9381 130.515 72.9857 130.515 73.0714C130.515 73.176 130.476 73.3282 130.381 73.528C129.962 74.4889 129.753 75.4404 129.753 76.3632C129.753 78.0948 130.429 78.9606 131.772 78.9606C133.172 78.9606 134.62 78.4659 136.125 77.4859C137.373 76.6772 138.059 76.0493 138.183 75.6021C138.192 75.545 138.202 75.4879 138.202 75.4213C138.202 75.0217 137.83 74.2701 137.097 73.1665C137.078 73.1379 137.068 73.0904 137.068 73.0143C137.068 72.9001 137.097 72.6718 137.163 72.3388C137.23 72.0058 137.259 71.7869 137.259 71.6823C137.297 71.6157 137.344 71.6062 137.411 71.6633C137.573 71.9011 137.821 72.2151 138.126 72.5861C138.173 72.6432 138.526 72.6717 139.173 72.6717M133.086 64.3945H133.134C134.068 64.9368 134.534 65.6789 134.534 66.6208V66.773C134.534 67.2582 134.268 68.0289 133.734 69.0564L133.668 69.3799C133.668 69.789 133.81 69.9983 134.106 69.9983C134.296 69.9983 134.515 69.8175 134.744 69.4465H134.839C134.649 70.2361 134.372 70.6357 134.001 70.6357H133.839C133.458 70.5882 133.267 70.3123 133.267 69.827V69.7509C133.267 69.3228 133.525 68.6283 134.03 67.6673C134.077 67.4295 134.106 67.2392 134.106 67.125V66.9538C134.106 66.2878 133.639 65.6123 132.696 64.9368V64.9082C132.829 64.6799 132.972 64.5182 133.096 64.404M135.163 72.7764C134.877 73.6707 134.744 74.2321 134.744 74.4794C134.744 74.8505 134.839 75.0408 135.03 75.0408C135.173 75.0408 135.315 74.8695 135.477 74.546H135.496L135.525 74.5841C135.392 75.2786 135.201 75.6306 134.963 75.6306H134.877C134.696 75.6306 134.572 75.5165 134.496 75.2786C134.487 75.174 134.477 75.0978 134.477 75.0408V74.7458C134.477 74.175 134.696 73.509 135.125 72.7764H135.173H135.163ZM138.421 79.1509C138.135 80.0452 138.002 80.616 138.002 80.8539C138.002 81.2249 138.097 81.4152 138.287 81.4152C138.421 81.4152 138.573 81.2535 138.735 80.9205H138.754L138.783 80.9585C138.649 81.6531 138.468 81.9956 138.221 81.9956H138.135C137.954 81.9956 137.83 81.8814 137.754 81.6436C137.735 81.5389 137.735 81.4628 137.735 81.4057V81.1108C137.735 80.5399 137.954 79.8834 138.383 79.1413H138.43L138.421 79.1509Z" fill="white"/>
<path d="M140.051 67.0394C140.051 67.2106 140.003 67.4199 139.917 67.6768C139.812 67.9813 139.689 68.1335 139.565 68.1335C139.498 68.1335 139.279 68.0193 138.888 67.81C138.469 67.5626 138.26 67.3819 138.26 67.2582C138.26 67.2011 138.431 66.7635 138.784 65.9452C139.003 66.1641 139.308 66.3734 139.698 66.5922C139.936 66.7254 140.06 66.8681 140.06 67.0489M140.403 65.1175C140.403 65.6218 140.251 66.0404 139.955 66.3829C139.536 66.1641 139.108 65.9548 138.688 65.7359C138.479 65.6122 138.374 65.4886 138.374 65.3554C138.45 65.108 138.574 64.6608 138.765 64.0424C138.955 64.1851 139.308 64.3849 139.841 64.6323C140.222 64.8035 140.403 64.9653 140.403 65.108M143.318 74.1845C143.099 74.1845 142.813 74.0988 142.47 73.9276C142.06 73.7278 141.765 73.4899 141.575 73.214C141.422 72.9857 141.356 72.7003 141.384 72.3578C141.06 73.0047 140.803 73.4233 140.613 73.6041C140.213 73.9847 139.736 74.1749 139.184 74.1749V72.6717C139.86 72.6717 140.365 72.5575 140.689 72.3292C140.775 72.2721 140.889 72.1199 141.013 71.8725C141.165 71.5776 141.251 71.4158 141.279 71.3778C141.641 70.9116 141.822 70.8165 141.822 71.1019C141.822 71.2065 141.794 71.3302 141.737 71.5015C141.775 71.6061 141.832 71.7298 141.918 71.8725C142.003 72.0152 142.213 72.196 142.537 72.3863C142.87 72.5861 143.127 72.6812 143.308 72.6812V74.1845H143.318ZM142.165 66.5351C142.165 66.6493 142.118 66.8491 142.022 67.125C141.908 67.458 141.784 67.7053 141.641 67.8481C141.356 67.6863 141.07 67.5341 140.784 67.3914C140.393 67.163 140.203 66.9918 140.203 66.8681C140.203 66.8301 140.279 66.6207 140.422 66.2497C140.565 65.8786 140.679 65.6884 140.746 65.6884C141.689 66.0975 142.165 66.3734 142.165 66.5256M140.565 57.8773H140.594C141.279 58.4196 141.622 59.1617 141.622 60.1036V60.2558C141.622 60.741 141.422 61.5117 141.041 62.5392L140.984 62.8627C140.984 63.2718 141.089 63.4716 141.308 63.4716C141.451 63.4716 141.603 63.2908 141.775 62.9197H141.851C141.718 63.7094 141.508 64.109 141.232 64.109H141.108C140.822 64.0614 140.689 63.7855 140.689 63.3003V63.2242C140.689 62.7961 140.879 62.092 141.251 61.1406C141.289 60.8932 141.308 60.7125 141.308 60.5983V60.427C141.308 59.7611 140.956 59.0856 140.27 58.4101V58.3815C140.374 58.1532 140.47 57.9914 140.565 57.8773ZM141.498 74.0988C141.213 74.9932 141.079 75.5545 141.079 75.8019C141.079 76.1729 141.175 76.3632 141.365 76.3632C141.498 76.3632 141.651 76.2014 141.813 75.8685H141.832L141.86 75.916C141.727 76.6106 141.546 76.9531 141.298 76.9531H141.213C141.032 76.9531 140.908 76.8389 140.832 76.601C140.813 76.5059 140.813 76.4203 140.813 76.3632V76.0778C140.813 75.5069 141.032 74.8409 141.46 74.1083H141.498V74.0988Z" fill="white"/>
<path d="M158.265 55.6034C158.275 55.7081 158.284 55.8032 158.284 55.9079C158.284 56.7261 157.837 57.725 156.96 58.9048C156.331 59.704 155.703 60.5127 155.074 61.3309C155.017 61.426 154.96 61.4831 154.893 61.5117C154.817 61.5497 154.779 61.5212 154.779 61.4451C154.779 61.3785 154.798 61.2928 154.845 61.1882C155.045 60.6935 155.579 59.8657 156.455 58.724C157.227 57.706 157.598 57.0781 157.598 56.8117C157.598 56.4882 157.246 56.3265 156.57 56.3265C155.331 56.3265 153.092 56.8688 149.853 57.9439C148.005 58.5623 146.062 59.371 144.052 60.3509C142.07 61.3309 140.984 61.9969 140.803 62.3584C140.794 62.3775 140.775 62.4155 140.746 62.4726C140.965 62.6438 141.27 62.8151 141.632 62.9959C141.851 63.1005 142.07 63.2052 142.289 63.3098C142.575 63.4716 142.728 63.5953 142.728 63.6619C142.728 63.7284 142.632 63.757 142.432 63.7475C142.337 63.738 142.166 63.7189 141.937 63.6809C142.08 63.9663 143.109 64.775 145.005 66.126C146.881 67.4675 147.948 68.4189 148.205 68.9898C148.272 69.7794 148.301 70.1219 148.301 70.0078C148.301 70.6738 148.148 71.2541 147.834 71.7393C147.634 72.0533 147.072 72.51 146.157 73.0999C145.024 73.8229 144.08 74.1845 143.309 74.1845V72.6812C144.166 72.6812 145.205 72.3102 146.424 71.5681C147.548 70.8926 148.072 70.474 148.005 70.3122C147.891 70.0173 146.738 69.0278 144.547 67.3438C142.299 65.6218 140.975 64.3944 140.584 63.6619C140.441 63.6619 140.365 63.6238 140.365 63.5477C140.327 63.2908 140.308 62.9293 140.308 62.4821C140.356 62.2728 140.413 62.1967 140.479 62.2538C140.537 61.8542 140.651 61.4546 140.813 61.0265C141.327 60.5983 142.394 59.9704 144.023 59.1331C145.929 58.1342 147.729 57.335 149.406 56.7546C152.626 55.6129 155.236 54.9945 157.236 54.8899C157.846 54.8613 158.18 55.0992 158.246 55.6034M144.357 68.7234C144.071 69.6177 143.938 70.179 143.938 70.4264C143.938 70.7974 144.033 70.9877 144.223 70.9877C144.357 70.9877 144.509 70.8165 144.671 70.493H144.69L144.719 70.531C144.585 71.2256 144.404 71.5776 144.157 71.5776H144.071C143.89 71.5776 143.766 71.4634 143.69 71.2256C143.68 71.1304 143.671 71.0448 143.671 70.9972V70.7023C143.671 70.1315 143.89 69.4655 144.319 68.7329H144.366L144.357 68.7234ZM149.453 61.2738H149.768C150.139 61.2738 150.349 61.388 150.406 61.6068V61.721C150.225 61.9683 150.073 62.0825 149.968 62.0825C149.873 61.8542 149.758 61.7495 149.615 61.7495H149.177C148.434 61.7876 148.024 61.8732 147.948 62.0159V62.0349C148.053 62.2347 148.682 62.5487 149.834 62.9768C150.168 63.2147 150.33 63.4525 150.33 63.6999C150.33 63.9853 150.101 64.2612 149.625 64.5276H149.606C149.31 64.5276 148.539 64.2993 147.291 63.8331C146.748 63.5572 146.472 63.1957 146.472 62.7295V62.6153L146.491 62.5107H146.538C146.748 62.9198 147.424 63.3003 148.567 63.6523C149.358 63.9378 149.806 64.0805 149.901 64.0805V64.0139C149.901 63.6999 149.425 63.386 148.463 63.0625C147.758 62.7485 147.405 62.4916 147.405 62.2728V62.2347C147.405 61.9493 147.891 61.6544 148.863 61.3214C149.101 61.2833 149.301 61.2548 149.444 61.2548" fill="white"/>
<path d="M154.731 52.8919C154.731 52.8919 154.797 52.9109 154.797 52.9775C154.797 53.2629 154.693 53.5008 154.493 53.7006C154.331 53.8528 153.95 54.0811 153.33 54.3951C152.673 54.7376 152.111 55.0992 151.663 55.4702C151.387 55.689 151.254 55.6985 151.254 55.4892C151.254 55.4226 151.292 55.318 151.368 55.2038C151.502 54.985 151.597 54.8613 151.635 54.8042C151.768 54.6615 151.978 54.5188 152.273 54.3666C152.073 54.3571 151.883 54.2524 151.692 54.0811C151.492 53.9004 151.397 53.7291 151.397 53.5579C151.397 53.2439 151.625 52.8348 152.073 52.3401C152.53 51.8453 152.911 51.5885 153.235 51.5885C153.54 51.5885 153.692 51.7787 153.692 52.1688C153.692 52.2449 153.654 52.3781 153.578 52.5684C153.492 52.8158 153.397 52.9299 153.311 52.9204C153.245 52.8729 153.159 52.7587 153.064 52.5874C153.007 52.4828 152.911 52.4257 152.788 52.4257C152.702 52.4447 152.616 52.4733 152.54 52.5208C152.34 52.6255 152.159 52.8063 151.987 53.0441C152.406 53.4627 152.778 53.672 153.102 53.672C153.321 53.672 153.864 53.4057 154.731 52.8824M154.978 70.6928C155.007 71.0543 155.017 71.3968 155.017 71.7393C155.017 72.9286 154.883 73.7944 154.597 74.3081C154.483 74.5175 154.407 74.6126 154.359 74.6126C154.283 74.6126 154.274 74.3843 154.331 73.9276C154.407 73.3472 154.407 72.7383 154.34 72.1009C154.083 70.0458 153.721 66.9537 153.254 62.8341C153.197 62.0825 153.102 60.9979 152.959 59.5708C152.94 59.4947 152.845 59.2854 152.673 58.9334C152.626 58.8572 152.74 58.4006 153.016 57.5633C153.026 57.5157 153.054 57.4872 153.083 57.4872C153.149 57.4872 153.254 57.6394 153.388 57.9534C153.616 58.4196 153.835 58.8953 154.054 59.371C154.397 60.1036 154.578 60.5603 154.578 60.741C154.578 60.7981 154.559 60.8267 154.512 60.8267C154.483 60.8267 154.435 60.8076 154.369 60.7601C154.188 60.6269 153.997 60.4461 153.797 60.2368C153.788 60.4366 153.931 61.759 154.245 64.2042C154.616 67.1155 154.874 69.2752 154.997 70.6833" fill="white"/>
<path d="M0.374023 44.7193L3.08906 44.4529C3.25101 45.3662 3.58443 46.0322 4.07981 46.4603C4.58471 46.8885 5.25156 47.0978 6.09941 47.0978C6.9949 47.0978 7.67128 46.9075 8.12855 46.5269C8.58582 46.1559 8.81445 45.7087 8.81445 45.195C8.81445 44.8715 8.71919 44.5956 8.52866 44.3672C8.33813 44.1389 8.0047 43.9391 7.52838 43.7678C7.19496 43.6632 6.46142 43.4539 5.29919 43.1685C3.80354 42.7974 2.75563 42.3407 2.15547 41.7984C1.30761 41.0373 0.888451 40.1144 0.888451 39.0203C0.888451 38.3258 1.08851 37.6598 1.48862 37.0509C1.88873 36.442 2.46031 35.9758 3.2129 35.6523C3.96549 35.3288 4.8705 35.1766 5.92794 35.1766C7.66175 35.1766 8.96687 35.5572 9.84331 36.3183C10.7197 37.0794 11.177 38.0879 11.2246 39.3628L8.43339 39.477C8.31908 38.7729 8.06186 38.2592 7.67128 37.9452C7.28069 37.6407 6.69005 37.479 5.89936 37.479C5.10866 37.479 4.46087 37.6503 4.0036 37.9737C3.70828 38.1926 3.55586 38.478 3.55586 38.83C3.55586 39.1535 3.68923 39.4389 3.97502 39.6673C4.3275 39.9622 5.18488 40.2666 6.53763 40.5901C7.89039 40.9041 8.89066 41.2371 9.54799 41.5796C10.1958 41.9221 10.7102 42.3883 11.0722 42.9782C11.4437 43.5681 11.6248 44.3006 11.6248 45.1759C11.6248 45.9751 11.4056 46.7077 10.9674 47.3927C10.5292 48.0777 9.90999 48.601 9.10024 48.934C8.30002 49.267 7.29022 49.4383 6.09941 49.4383C4.35608 49.4383 3.01285 49.0387 2.07926 48.23C1.14566 47.4308 0.583605 46.251 0.402603 44.7097" fill="white"/>
<path d="M15.8831 49.2004V35.424H18.6743V40.847H24.133V35.424H26.9147V49.2004H24.133V43.178H18.6743V49.2004" fill="white"/>
<path d="M34.4404 35.424H31.6494V49.2099H34.4404V35.424Z" fill="white"/>
<path d="M39.0325 49.2004V35.424H48.5009V37.7549H41.8235V41.0183H47.5864V43.3492H41.8235V49.2004" fill="white"/>
<path d="M64.106 49.2004H61.0766L59.8667 46.0703H54.3509L53.2172 49.2004H50.264L55.637 35.4145H58.5901M58.9807 43.7488L57.0754 38.6302L55.2083 43.7488H58.9712H58.9807Z" fill="white"/>
<path d="M74.0992 49.2004V35.424H76.881V40.847H82.3491V35.424H85.1309V49.2004H82.3491V43.178H76.881V49.2004" fill="white"/>
<path d="M89.3795 42.3978C89.3795 40.9992 89.5891 39.8195 90.0083 38.8586C90.3226 38.164 90.7513 37.5266 91.2943 36.9652C91.8373 36.4039 92.428 35.9948 93.0758 35.7189C93.9427 35.3574 94.9239 35.1766 96.048 35.1766C98.0867 35.1766 99.7062 35.8045 100.935 37.0699C102.154 38.3258 102.764 40.0859 102.764 42.3217C102.764 44.5575 102.154 46.2891 100.945 47.545C99.7348 48.8008 98.1153 49.4287 96.0861 49.4287C94.057 49.4287 92.3994 48.8008 91.1895 47.5545C89.9797 46.3081 89.37 44.5861 89.37 42.3883M92.247 42.3027C92.247 43.863 92.609 45.0523 93.333 45.8514C94.057 46.6601 94.9715 47.0597 96.0861 47.0597C97.2007 47.0597 98.1057 46.6601 98.8202 45.861C99.5347 45.0618 99.8872 43.863 99.8872 42.2646C99.8872 40.6662 99.5442 39.515 98.8488 38.7254C98.1534 37.9452 97.2293 37.5646 96.0861 37.5646C94.943 37.5646 94.0094 37.9547 93.3044 38.7444C92.5995 39.5341 92.247 40.7233 92.247 42.3027Z" fill="white"/>
<path d="M106.165 44.7193L108.88 44.4529C109.042 45.3662 109.376 46.0322 109.871 46.4603C110.366 46.8885 111.043 47.0978 111.891 47.0978C112.786 47.0978 113.462 46.9075 113.92 46.5269C114.377 46.1559 114.606 45.7087 114.606 45.195C114.606 44.8715 114.51 44.5956 114.32 44.3672C114.129 44.1389 113.796 43.9391 113.32 43.7678C112.986 43.6632 112.243 43.4539 111.09 43.1685C109.595 42.7974 108.547 42.3407 107.947 41.7984C107.099 41.0373 106.68 40.1144 106.68 39.0203C106.68 38.3258 106.88 37.6598 107.28 37.0509C107.68 36.442 108.251 35.9758 109.004 35.6523C109.757 35.3288 110.662 35.1766 111.719 35.1766C113.453 35.1766 114.758 35.5572 115.634 36.3183C116.511 37.0794 116.968 38.0879 117.016 39.3628L114.225 39.477C114.101 38.7729 113.853 38.2592 113.453 37.9452C113.062 37.6407 112.472 37.479 111.69 37.479C110.909 37.479 110.252 37.6503 109.795 37.9737C109.499 38.1926 109.347 38.478 109.347 38.83C109.347 39.1535 109.48 39.4389 109.757 39.6673C110.109 39.9622 110.966 40.2666 112.319 40.5901C113.672 40.9041 114.682 41.2371 115.33 41.5796C115.977 41.9221 116.492 42.3883 116.854 42.9782C117.225 43.5681 117.406 44.3006 117.406 45.1759C117.406 45.9751 117.187 46.7077 116.749 47.3927C116.311 48.0777 115.692 48.601 114.882 48.934C114.072 49.267 113.072 49.4383 111.871 49.4383C110.128 49.4383 108.785 49.0387 107.851 48.23C106.918 47.4308 106.356 46.251 106.175 44.7097" fill="white"/>
<path d="M121.665 49.2099V35.424H126.133C127.828 35.424 128.933 35.4906 129.448 35.6333C130.239 35.8426 130.896 36.2898 131.439 36.9843C131.972 37.6788 132.239 38.5732 132.239 39.6768C132.239 40.514 132.087 41.2276 131.772 41.808C131.468 42.3788 131.077 42.8355 130.601 43.1685C130.124 43.4919 129.648 43.7108 129.153 43.8154C128.486 43.9486 127.524 44.0152 126.257 44.0152H124.437V49.2194M124.447 37.7549V41.6652H125.971C127.076 41.6652 127.809 41.5891 128.181 41.4464C128.552 41.3037 128.838 41.0849 129.048 40.7709C129.257 40.4665 129.362 40.1049 129.362 39.7053C129.362 39.2011 129.219 38.792 128.924 38.459C128.629 38.126 128.257 37.9262 127.8 37.8501C127.466 37.7835 126.8 37.7549 125.79 37.7549H124.447Z" fill="white"/>
<path d="M139.165 35.424H136.374V49.2099H139.165V35.424Z" fill="white"/>
<path d="M146.843 49.2004V37.7549H142.756V35.424H153.721V37.7549H149.634V49.2004" fill="white"/>
<path d="M168.468 49.2004H165.439L164.238 46.0703H158.713L157.57 49.2004H154.617L159.99 35.4145H162.943M163.333 43.7488L161.428 38.6302L159.561 43.7488H163.333Z" fill="white"/>
<path d="M171.955 49.2004V35.5286H174.736V46.879H181.671V49.2004" fill="white"/>
</svg>
