<svg width="34" height="34" viewBox="0 0 34 34" fill="none" xmlns="http://www.w3.org/2000/svg">
<g clip-path="url(#clip0_561_22482)">
<path d="M30.1379 13.7361C29.7861 13.1788 29.5573 12.5528 29.4667 11.9C29.4667 10.6326 28.5922 9.52485 26.8092 8.52656C27.6671 7.6751 28.3333 6.8504 28.3333 5.66664C28.3333 1.98608 24.8298 0 21.5333 0C19.2103 0 18.741 1.65763 18.3984 2.86822C18.0564 4.07681 17.8473 4.53336 17.0001 4.53336C16.1528 4.53336 15.9437 4.07681 15.6017 2.86822C15.259 1.65763 14.7898 0 12.4666 0C9.17009 0 5.66663 1.98608 5.66663 5.66664C5.66663 6.8504 6.33288 7.6751 7.19079 8.52656C5.40778 9.52485 4.53328 10.6326 4.53328 11.9C4.44263 12.5528 4.21379 13.1788 3.86204 13.7361C2.81169 15.5963 2.26198 17.6971 2.26663 19.8334C2.26371 21.3892 2.64946 22.9211 3.3889 24.2901C3.71156 24.8318 3.90899 25.4388 3.96663 26.0667C3.96663 27.9792 5.50115 34.0001 9.06663 34.0001C10.3003 33.9572 11.5188 33.7149 12.675 33.2825C12.9349 33.7256 13.4095 33.9985 13.9232 34.0001H20.0769C20.5905 33.9985 21.065 33.7256 21.3248 33.2825C22.481 33.7149 23.6996 33.9572 24.9333 34.0001C28.4988 34.0001 30.0333 27.9792 30.0333 26.0667C30.091 25.4388 30.2884 24.8318 30.6111 24.2901C31.3505 22.9212 31.7363 21.3893 31.7333 19.8334C31.7379 17.6971 31.1882 15.5963 30.1379 13.7361ZM6.79999 5.66664C6.79999 2.72206 9.71967 1.13329 12.4666 1.13329C13.8645 1.13329 14.1417 1.87179 14.5108 3.17694C14.8086 4.22762 15.2158 5.66664 17 5.66664C18.7841 5.66664 19.1914 4.22755 19.4891 3.17694C19.8582 1.87179 20.1354 1.13329 21.5333 1.13329C24.2803 1.13329 27.1999 2.72206 27.1999 5.66664C27.1999 6.59135 26.532 7.23078 25.5215 8.19838L25.4618 8.25582L25.4612 8.25622C25.3515 8.36128 25.2367 8.47198 25.1196 8.58566L25.1192 8.58606L25.119 8.58626C24.8286 8.86835 24.5188 9.1804 24.2011 9.53242L24.1994 9.53441C24.0942 9.65102 23.9884 9.77241 23.8821 9.89845L23.8529 9.93371L23.8428 9.9458C23.7875 10.0117 23.7321 10.0773 23.6771 10.1455C23.6536 10.1747 23.6303 10.2052 23.6068 10.2349C23.5186 10.3459 23.431 10.4601 23.3438 10.5774L23.3315 10.5944C22.9105 11.1636 22.5381 11.7672 22.2181 12.3988C22.2056 12.3891 22.1896 12.3789 22.1768 12.3692C22.0747 12.2919 21.9669 12.2132 21.8465 12.1328C21.8335 12.1241 21.8187 12.1154 21.8054 12.1067C21.6927 12.0324 21.5706 11.9579 21.4422 11.8837C21.4063 11.8629 21.3712 11.8426 21.3342 11.8219C21.1894 11.7412 21.0368 11.6617 20.8728 11.5846C20.8445 11.5713 20.8142 11.5587 20.7853 11.5456C20.6357 11.4773 20.4781 11.4116 20.3127 11.3487C20.274 11.334 20.2369 11.3189 20.1974 11.3044C20.0083 11.2356 19.8092 11.1717 19.6001 11.1128C19.5556 11.1003 19.5093 11.0891 19.4639 11.0771C19.268 11.0254 19.0644 10.9786 18.8514 10.9382C18.8189 10.9321 18.7884 10.9247 18.7556 10.9188C18.5196 10.8767 18.2711 10.8443 18.0142 10.819C17.9548 10.8132 17.8946 10.8085 17.834 10.8036C17.5658 10.7821 17.2904 10.7668 16.9999 10.7668C16.7093 10.7668 16.4339 10.7821 16.1656 10.8036C16.1051 10.8084 16.0448 10.8131 15.9854 10.819C15.7286 10.8443 15.4801 10.8766 15.2441 10.9187C15.2112 10.9246 15.1808 10.932 15.1482 10.9382C14.9352 10.9786 14.7315 11.0254 14.5355 11.0771C14.4902 11.089 14.4441 11.1002 14.3997 11.1127C14.1907 11.1715 13.9915 11.2353 13.8023 11.3043C13.7627 11.3187 13.7256 11.3338 13.687 11.3486C13.5218 11.4116 13.3642 11.4773 13.2144 11.5455C13.1855 11.5587 13.1551 11.5712 13.1268 11.5845C12.9629 11.6617 12.8102 11.7412 12.6655 11.8218C12.6284 11.8425 12.5934 11.8628 12.5575 11.8835C12.4288 11.958 12.3063 12.0327 12.1934 12.1071C12.1805 12.1156 12.1662 12.1241 12.1535 12.1326C12.033 12.213 11.925 12.2918 11.8228 12.3692C11.8099 12.3789 11.7936 12.3894 11.7811 12.3991C11.5431 11.9301 11.2762 11.4765 10.982 11.0407L10.966 11.0172C10.8819 10.8934 10.7971 10.773 10.7115 10.6557C10.6799 10.6122 10.6484 10.5689 10.6167 10.5264C10.5656 10.4582 10.5142 10.3918 10.4626 10.3258C10.4034 10.2495 10.3445 10.1735 10.2853 10.1005L10.2805 10.0949C9.84451 9.56456 9.37708 9.06087 8.88076 8.58646L8.88049 8.5862L8.8801 8.5858C8.76302 8.47211 8.64821 8.36141 8.5385 8.25636L8.4782 8.19852C7.4679 7.23078 6.79999 6.59135 6.79999 5.66664ZM21.7341 13.465C21.3908 14.3234 21.1211 15.2094 20.928 16.1134C20.4024 15.8777 19.8552 15.6935 19.2941 15.5632C19.2655 15.5564 19.2374 15.5493 19.2084 15.5427C19.0832 15.5146 18.9546 15.4891 18.8232 15.4652C18.7542 15.4525 18.684 15.4409 18.6133 15.4295C18.5016 15.4117 18.3891 15.3948 18.2731 15.3804C18.2096 15.3724 18.1454 15.3654 18.0807 15.3586C18.0408 15.3544 18.0007 15.3519 17.9609 15.3481L17.9362 15.346C17.8456 15.3379 17.7569 15.3282 17.6639 15.3224C17.4486 15.3087 17.2282 15.3 17 15.3C16.7717 15.3 16.5513 15.3086 16.3361 15.3224C16.243 15.3282 16.1543 15.3379 16.0637 15.346L16.039 15.3481C16.0136 15.3505 15.9873 15.3494 15.9619 15.352C15.9474 15.3535 15.9338 15.357 15.9194 15.3585C15.8545 15.3653 15.7903 15.3723 15.7268 15.3803C15.6108 15.3946 15.4983 15.4116 15.3866 15.4294C15.3158 15.4408 15.2457 15.4524 15.1767 15.4652C15.0453 15.4891 14.9168 15.5144 14.7915 15.5426C14.7626 15.5492 14.7345 15.5563 14.7058 15.5631C14.1447 15.6934 13.5975 15.8777 13.0719 16.1133C12.8789 15.2093 12.6091 14.3234 12.2656 13.4651C12.358 13.3861 12.4623 13.302 12.582 13.2144C12.6105 13.1935 12.6465 13.1715 12.6767 13.1502C12.7778 13.079 12.8849 13.007 13.0041 12.9343C13.0592 12.9007 13.1223 12.8677 13.1814 12.8342C13.2891 12.7732 13.4012 12.7126 13.5222 12.6534C13.5957 12.6173 13.6751 12.5829 13.7536 12.548C13.8766 12.4935 14.006 12.4409 14.1416 12.3905C14.2305 12.3575 14.322 12.3255 14.4162 12.2947C14.5608 12.2475 14.7148 12.2053 14.8723 12.1648C14.9721 12.1391 15.0704 12.1128 15.1754 12.0903C15.355 12.0518 15.5478 12.0226 15.7429 11.995C15.841 11.9811 15.9336 11.9632 16.0356 11.9525C16.6766 11.8824 17.3233 11.8824 17.9642 11.9525C18.0662 11.9632 18.1588 11.9811 18.2569 11.995C18.452 12.0226 18.6449 12.0518 18.8244 12.0903C18.9294 12.1128 19.0278 12.1391 19.1276 12.1648C19.285 12.2053 19.4391 12.2475 19.5837 12.2947C19.678 12.3255 19.7695 12.3574 19.8582 12.3905C19.9937 12.4409 20.123 12.4935 20.2463 12.548C20.3247 12.5829 20.4041 12.6173 20.4777 12.6534C20.5987 12.7126 20.7107 12.7732 20.8185 12.8342C20.8775 12.8677 20.9407 12.9007 20.9958 12.9343C21.1149 13.007 21.222 13.079 21.3232 13.1502C21.3533 13.1715 21.3893 13.1935 21.4179 13.2144C21.5375 13.302 21.6418 13.386 21.7341 13.465ZM20.4 32.5438C20.3997 32.7221 20.2551 32.8665 20.0768 32.8666H13.9231C13.7446 32.8662 13.6 32.7215 13.5999 32.5429V30.7715C13.6582 30.7851 13.7167 30.7942 13.7749 30.8071C13.8894 30.8323 14.0039 30.8542 14.1185 30.8768C14.3229 30.9169 14.5273 30.9529 14.7318 30.9847C14.8553 31.0038 14.9788 31.0223 15.1023 31.0383C15.3004 31.0638 15.4985 31.0836 15.6966 31.1012C15.8217 31.1123 15.9465 31.1257 16.0714 31.1336C16.2971 31.1479 16.5227 31.1538 16.7482 31.1577C16.832 31.1591 16.9162 31.1666 16.9999 31.1666C17.0836 31.1666 17.1677 31.1592 17.2516 31.1577C17.4772 31.1539 17.7028 31.1479 17.9284 31.1337C18.0533 31.1258 18.1781 31.1124 18.3032 31.1012C18.5013 31.0837 18.6995 31.0638 18.8975 31.0383C19.0211 31.0223 19.1445 31.0039 19.268 30.9848C19.4726 30.9532 19.6771 30.9172 19.8814 30.8768C19.996 30.8543 20.1105 30.8323 20.2249 30.8071C20.2832 30.7942 20.3417 30.7851 20.3999 30.7715V32.5438H20.4ZM20.4 29.5973C20.2972 29.6231 20.1945 29.6499 20.0916 29.6733C19.9687 29.7013 19.846 29.7295 19.723 29.7542C19.534 29.7922 19.3448 29.824 19.1555 29.8539C19.0436 29.8717 18.9317 29.8915 18.8198 29.9065C18.6022 29.9356 18.3844 29.9566 18.1665 29.9752C18.0826 29.9824 17.9989 29.9931 17.9151 29.9988C17.3057 30.0397 16.6943 30.0397 16.0848 29.9988C16.001 29.9931 15.9172 29.9824 15.8334 29.9752C15.6156 29.9565 15.3978 29.9356 15.1801 29.9065C15.0682 29.8916 14.9563 29.8717 14.8444 29.8539C14.6551 29.8239 14.4659 29.7922 14.2769 29.7542C14.1539 29.7295 14.0312 29.7013 13.9083 29.6733C13.8054 29.6499 13.7027 29.6231 13.5999 29.5973V27.7379C13.6067 27.7404 13.6138 27.7421 13.6205 27.7446C14.116 27.9278 14.6264 28.0678 15.1461 28.163C15.2178 28.1764 15.29 28.1881 15.3623 28.1998C15.5517 28.2305 15.7477 28.2553 15.9494 28.2757C16.0257 28.2834 16.101 28.293 16.1779 28.299C16.4428 28.3197 16.7149 28.3334 16.9999 28.3334C17.2849 28.3334 17.5569 28.3196 17.8217 28.299C17.8991 28.2929 17.975 28.2833 18.0518 28.2755C18.2525 28.2552 18.4474 28.2305 18.6362 28.1999C18.7095 28.1881 18.7827 28.1762 18.8554 28.1627C19.3727 28.0679 19.8808 27.9286 20.3741 27.7465C20.3825 27.7434 20.3915 27.7413 20.4 27.7382V29.5973ZM29.5895 23.7992C29.1871 24.4914 28.9511 25.2676 28.9 26.0667C28.9 27.7061 27.4495 32.8667 24.9333 32.8667C23.7683 32.82 22.6192 32.5794 21.5333 32.1548V27.7073C22.1562 28.26 22.9678 28.5519 23.8 28.5224C24.113 28.5224 24.3666 28.2687 24.3666 27.9558C24.3666 27.6428 24.113 27.3891 23.8 27.3891C23.2127 27.4226 22.6386 27.2067 22.2189 26.7946C22.532 26.5835 22.8226 26.3408 23.0861 26.0704C23.2958 25.8386 23.2783 25.4809 23.047 25.2706C22.8157 25.0604 22.458 25.0771 22.2472 25.3078C21.7989 25.7413 21.2826 26.0984 20.7189 26.3649L20.7138 26.3667C20.4423 26.5015 20.1629 26.6199 19.8772 26.7213C19.8652 26.7255 19.854 26.7301 19.8419 26.7344C19.5736 26.8273 19.3006 26.9057 19.0239 26.9693C18.9802 26.9795 18.9375 26.9904 18.8929 27C18.6253 27.0582 18.3518 27.1024 18.0733 27.1349C18.0137 27.1419 17.9524 27.1473 17.8916 27.1532C17.5992 27.1812 17.3032 27.2001 17.0001 27.2001C16.6922 27.2001 16.3914 27.1813 16.0947 27.1525C16.0441 27.1475 15.9928 27.1432 15.943 27.1375C15.6527 27.105 15.3643 27.0575 15.0789 26.9953C15.0591 26.991 15.0401 26.9862 15.0205 26.9818C14.4199 26.8463 13.8376 26.6398 13.2858 26.3667C13.2748 26.3613 13.2629 26.3596 13.2517 26.3548C12.6983 26.09 12.1919 25.7363 11.7528 25.3078C11.5421 25.0771 11.1843 25.0605 10.953 25.2706C10.7218 25.4808 10.7043 25.8386 10.9139 26.0704C11.1774 26.3408 11.4681 26.5835 11.7812 26.7946C11.3614 27.2066 10.7873 27.4225 10.2 27.3891C9.88701 27.3891 9.63334 27.6429 9.63334 27.9558C9.63334 28.2687 9.88701 28.5224 10.2 28.5224C11.0322 28.5519 11.8438 28.26 12.4666 27.7073V32.1548C11.3808 32.5794 10.2317 32.82 9.06663 32.8667C6.55037 32.8667 5.09999 27.7061 5.09999 26.0667C5.04892 25.2676 4.81285 24.4914 4.41049 23.7992C3.74576 22.5832 3.39826 21.2192 3.39999 19.8334C3.39454 17.8749 3.90242 15.9493 4.87308 14.2483C5.31647 13.5378 5.58814 12.7338 5.66663 11.9C5.66663 11.0146 6.44465 10.1787 8.04231 9.35113L8.08966 9.39748L8.0894 9.39788L8.37215 9.67705C8.46758 9.77268 8.56659 9.87441 8.66726 9.98C8.69914 10.0134 8.73101 10.0485 8.76289 10.0825C8.83474 10.1592 8.90732 10.2378 8.9809 10.32C9.01477 10.3577 9.04857 10.3966 9.08237 10.435C9.16531 10.5297 9.24898 10.6277 9.33319 10.7297C9.35384 10.7547 9.37462 10.7795 9.39534 10.8048C10.0734 11.6378 10.6353 12.5589 11.0655 13.543L11.0677 13.5477L11.0689 13.5507C11.1769 13.7973 11.2767 14.0496 11.3713 14.3065C11.3993 14.3829 11.4255 14.4637 11.4526 14.5422C11.5069 14.698 11.5589 14.8562 11.6085 15.0166C11.6505 15.1532 11.6917 15.292 11.7313 15.4347C11.7512 15.5059 11.7693 15.5792 11.7883 15.6514C11.2938 15.4112 10.7496 15.2908 10.2 15.2999C9.88701 15.2999 9.63334 15.5536 9.63334 15.8666C9.63334 16.1796 9.88701 16.4332 10.2 16.4332C10.7323 16.409 11.2548 16.5828 11.6666 16.921C11.3964 17.1114 11.1445 17.3263 10.9139 17.563C10.7042 17.7948 10.7217 18.1525 10.953 18.3627C11.1843 18.573 11.542 18.5563 11.7528 18.3255C12.1041 17.9823 12.5009 17.689 12.9321 17.454L12.9375 17.4518L12.9408 17.4504C13.4528 17.1619 13.9966 16.9341 14.5613 16.7716L14.5783 16.7664C14.733 16.7218 14.8962 16.6809 15.0647 16.6433C15.0836 16.639 15.1015 16.6343 15.1206 16.6302C15.1508 16.6237 15.1844 16.6193 15.2153 16.613C15.3433 16.5868 15.4744 16.5624 15.61 16.5413C15.643 16.5362 15.6743 16.5296 15.7078 16.5249C15.7652 16.5166 15.8277 16.5126 15.8866 16.5053C15.9919 16.4923 16.0977 16.4798 16.2072 16.4703C16.2508 16.4666 16.2916 16.4605 16.3359 16.4573C16.5498 16.442 16.7709 16.4332 17 16.4332C17.2296 16.4332 17.4512 16.442 17.6656 16.4574C17.6973 16.4596 17.7267 16.464 17.7581 16.4665C17.88 16.4766 17.9967 16.4909 18.1134 16.5053C18.1764 16.5131 18.2436 16.5174 18.305 16.5263L18.33 16.5304C18.4875 16.5538 18.6372 16.5828 18.7847 16.613C18.82 16.6202 18.8589 16.6252 18.8937 16.6328C19.6525 16.7948 20.3826 17.0705 21.0591 17.4504L21.0621 17.4517L21.0624 17.4518C21.0741 17.4585 21.0872 17.4615 21.0992 17.4672C21.5197 17.6999 21.9063 17.9891 22.2483 18.3267C22.4592 18.5581 22.8176 18.5747 23.049 18.3638C23.2804 18.1529 23.297 17.7944 23.0861 17.5631C22.8555 17.3265 22.6035 17.1116 22.3335 16.9212C22.7452 16.5829 23.2676 16.4091 23.7999 16.4333C24.1129 16.4333 24.3666 16.1796 24.3666 15.8666C24.3666 15.5537 24.1129 15.3 23.7999 15.3C23.2502 15.2908 22.7061 15.4112 22.2115 15.6514C22.2305 15.5792 22.2487 15.5059 22.2685 15.4347C22.3081 15.292 22.3493 15.1532 22.3914 15.0166C22.441 14.8563 22.493 14.6982 22.5472 14.5422C22.5743 14.4637 22.6006 14.3829 22.6285 14.3065C22.7205 14.0565 22.8186 13.8114 22.9228 13.571L22.9392 13.5329C23.1249 13.1101 23.3347 12.6985 23.5678 12.2999C23.5776 12.2832 23.5875 12.267 23.5973 12.2504C23.6986 12.0792 23.8012 11.9151 23.9054 11.7579C23.9153 11.7431 23.9249 11.7278 23.9347 11.7132C24.1533 11.3857 24.3757 11.0889 24.5968 10.8162C24.6313 10.7738 24.6659 10.7324 24.7006 10.6909C24.7719 10.6051 24.8429 10.5219 24.9135 10.4412C24.9555 10.3932 24.9975 10.3452 25.0395 10.2983C25.1066 10.2238 25.1727 10.1521 25.2386 10.0818C25.2765 10.0413 25.3144 9.99972 25.3522 9.95994C25.4534 9.85396 25.5533 9.75136 25.6499 9.65454L25.9105 9.39775L25.9102 9.39741C25.9258 9.38221 25.942 9.36607 25.9576 9.35106C27.5553 10.1787 28.3333 11.0145 28.3333 11.8999C28.4118 12.7337 28.6834 13.5377 29.1268 14.2482C30.0975 15.9492 30.6054 17.8748 30.5999 19.8333C30.6017 21.2192 30.2542 22.5831 29.5895 23.7992Z" fill="#4270B7"/>
</g>
<defs>
<clipPath id="clip0_561_22482">
<rect width="34" height="34" fill="white"/>
</clipPath>
</defs>
</svg>
