<svg width="34" height="34" viewBox="0 0 34 34" fill="none" xmlns="http://www.w3.org/2000/svg">
<g clip-path="url(#clip0_561_14189)">
<mask id="mask0_561_14189" style="mask-type:luminance" maskUnits="userSpaceOnUse" x="0" y="0" width="34" height="34">
<path d="M0 3.8147e-06H34V34H0V3.8147e-06Z" fill="white"/>
</mask>
<g mask="url(#mask0_561_14189)">
<path d="M24.5842 9.16736C22.7521 9.89517 21.5076 11.9113 21.7626 13.8795C21.9897 15.6327 23.264 17.3048 23.7774 19.3508C24.2621 21.2825 23.9454 23.3803 23.0183 25.1328" stroke="#008D5C" stroke-miterlimit="10" stroke-linecap="round" stroke-linejoin="round"/>
<path d="M19.6129 13.2892C19.6089 13.5754 19.6255 13.8636 19.6627 14.1518C20.1056 17.5671 22.9153 19.4882 21.5069 23.3478" stroke="#008D5C" stroke-miterlimit="10" stroke-linecap="round" stroke-linejoin="round"/>
<path d="M20.0615 11.0128C20.8 9.12087 22.3911 7.56763 24.3953 6.99853" stroke="#008D5C" stroke-miterlimit="10" stroke-linecap="round" stroke-linejoin="round"/>
<path d="M12.4932 23.3477C12.1353 22.3669 12.0496 21.5116 12.1287 20.7254" stroke="#008D5C" stroke-miterlimit="10" stroke-linecap="round" stroke-linejoin="round"/>
<path d="M9.41553 9.16736C11.2477 9.89517 12.4921 11.9113 12.2371 13.8795C12.01 15.6327 10.7357 17.3048 10.2224 19.3508C9.7376 21.2825 10.0544 23.3803 10.9814 25.1328" stroke="#008D5C" stroke-miterlimit="10" stroke-linecap="round" stroke-linejoin="round"/>
<path d="M9.60498 6.99851C12.6517 7.86444 14.7448 11.0035 14.3371 14.1519C14.1213 15.8133 13.3463 17.1209 12.7686 18.4702" stroke="#008D5C" stroke-miterlimit="10" stroke-linecap="round" stroke-linejoin="round"/>
<path d="M27.7064 0.63901H27.1486C25.5903 0.63901 24.285 1.8749 24.263 3.43299C24.252 4.21153 24.5546 4.91889 25.0527 5.43733C25.1745 5.56416 25.174 5.7657 25.0522 5.89254C24.5632 6.40188 24.2628 7.09336 24.2628 7.85551C24.2628 8.61712 24.5632 9.30854 25.0522 9.81781C25.174 9.94472 25.1745 10.1462 25.0527 10.273C24.5546 10.7915 24.252 11.4989 24.263 12.2774C24.285 13.8355 25.5903 15.0714 27.1485 15.0714H27.7064C30.6367 15.0714 33.5018 11.8403 33.5018 7.85551C33.5018 3.87067 30.6367 0.63901 27.7064 0.63901Z" stroke="#008D5C" stroke-miterlimit="10" stroke-linecap="round" stroke-linejoin="round"/>
<path d="M6.29352 0.63901H6.85133C8.40962 0.63901 9.7149 1.8749 9.73688 3.43305C9.74784 4.21153 9.44523 4.91889 8.94725 5.43733C8.82539 5.56416 8.82585 5.7657 8.94764 5.89254C9.43666 6.40188 9.73715 7.09336 9.73715 7.85551C9.73715 8.61712 9.43666 9.30854 8.94764 9.81781C8.82585 9.94472 8.82539 10.1462 8.94725 10.273C9.44523 10.7915 9.74784 11.4989 9.73688 12.2774C9.7149 13.8355 8.40962 15.0714 6.85133 15.0714H6.29352C3.36328 15.0714 0.498047 11.8403 0.498047 7.85551C0.498047 3.87067 3.36328 0.63901 6.29352 0.63901Z" stroke="#008D5C" stroke-miterlimit="10" stroke-linecap="round" stroke-linejoin="round"/>
<path d="M23.0184 25.1312C22.7631 23.5036 20.324 22.4471 17.0001 22.4471C13.6763 22.4471 11.2371 23.5036 10.9819 25.1312C10.7249 26.7696 12.7627 29.2998 15.37 30.1021C15.6567 30.1903 15.8506 30.4575 15.8506 30.7575V32.179C15.8506 32.798 16.3263 33.3306 16.9445 33.3597C17.6047 33.3907 18.1496 32.8648 18.1496 32.2115V30.7575C18.1496 30.4575 18.3435 30.1903 18.6302 30.1021C21.2376 29.2998 23.2754 26.7696 23.0184 25.1312Z" stroke="#008D5C" stroke-miterlimit="10" stroke-linecap="round" stroke-linejoin="round"/>
</g>
</g>
<defs>
<clipPath id="clip0_561_14189">
<rect width="34" height="34" fill="white"/>
</clipPath>
</defs>
</svg>
