<svg width="36" height="36" viewBox="0 0 36 36" fill="none" xmlns="http://www.w3.org/2000/svg">
<path d="M30.0492 21.1335C30.0492 22.1876 28.9282 22.4166 28.9282 22.4166H24.7982V21.9212C24.7982 21.4878 25.1532 21.1328 25.5866 21.1328H30.0492V21.1335Z" fill="#FFE780"/>
<path d="M25.7962 24.1447V23.2051H29.839V24.1447H27.923H25.7962Z" fill="#8B9194"/>
<path d="M25.5859 23.2047C25.1525 23.2047 24.7975 22.8498 24.7975 22.4163H28.9274C28.9274 22.4163 30.0485 22.1874 30.0485 21.1333C30.4819 21.1333 30.8369 21.4883 30.8369 21.9217V22.4163C30.8369 22.8498 30.4826 23.2047 30.0485 23.2047H29.8382H25.7954H25.5852H25.5859Z" fill="#E8AE4E"/>
<path d="M11.3985 28.0693L16.6492 22.1207L17.3523 22.7413L12.1016 28.6899L11.3985 28.0693Z" fill="white"/>
<path d="M15.2647 18.4595L18.5558 21.3647L17.3405 22.7413L16.6378 22.1207L15.4735 21.094L14.1588 19.9333L13.4568 19.3134L14.6722 17.936L15.2647 18.4595Z" fill="#6A6565"/>
<path d="M15.4735 21.0938L6.1776 31.533L6.90768 32.1774L10.8396 28.6897L10.8576 28.6689L16.6378 22.1205L15.4735 21.0938Z" fill="#DAD5D5"/>
<path d="M23.3539 12.859C23.3539 12.859 22.6174 13.6957 22.549 13.7727L21.7102 13.0318C21.7786 12.9548 22.5151 12.1182 22.5151 12.1182L23.3539 12.859Z" fill="#8B9194"/>
<path d="M15.4735 21.0937L14.1588 19.9331L8.37864 26.4815L8.36064 26.5017L5.38776 30.8361L6.1776 31.533L15.4735 21.0937Z" fill="#F2EDED"/>
<path d="M26.8481 8.7057L26.825 8.68554L28.1074 7.2333L27.5083 6.7041L26.226 8.15634L26.2001 8.1333L25.3418 8.1117L22.5144 11.3143L22.2098 11.0457C22.1479 10.991 22.0687 10.9658 21.9917 10.9715C21.9146 10.9759 21.8398 11.0097 21.7843 11.0723C21.6749 11.1962 21.6871 11.3884 21.811 11.4979L24.0566 13.48C24.1193 13.5347 24.1978 13.5592 24.2755 13.5549C24.3526 13.5499 24.4274 13.516 24.4822 13.4534C24.5923 13.3288 24.5801 13.138 24.4555 13.0279L24.151 12.7593L26.9784 9.55674L26.8474 8.70498L26.8481 8.7057Z" fill="#0ABF7C"/>
<path d="M8.21614 25.2622L13.4668 19.3136L14.1693 19.9337L8.91868 25.8823L8.21614 25.2622Z" fill="white"/>
<path d="M22.6426 13.4891C21.9557 12.7396 21.0269 12.2651 19.8562 12.0635L14.6722 17.9358L18.5558 21.3637L23.7398 15.4914C23.4958 14.6864 23.1293 14.0183 22.6426 13.4891Z" fill="#FFB6C7"/>
<path d="M22.6426 13.4893C22.6426 13.4893 22.9385 14.6312 20.8742 16.9273C18.949 19.0685 17.226 17.9821 16.3937 17.1807C16.0596 16.8581 15.8688 16.5809 15.8688 16.5809L14.6722 17.9367L18.5558 21.3646L23.7398 15.4923C23.4958 14.6873 23.1293 14.0192 22.6426 13.49V13.4893Z" fill="#FF4B72"/>
<path d="M27.8086 7.027C27.7949 7.027 27.7812 7.02196 27.7697 7.0126C27.7452 6.991 27.743 6.95428 27.7646 6.9298L32.1502 1.9618C32.1718 1.93732 32.2085 1.93516 32.233 1.95676C32.2574 1.97836 32.2596 2.01508 32.238 2.03956L27.8525 7.00756C27.841 7.02052 27.8244 7.02772 27.8086 7.02772V7.027Z" fill="#6A6565"/>
<path d="M30.0492 21.1328H25.5866C25.1532 21.1328 24.7982 21.4878 24.7982 21.9212V22.4159C24.7982 22.8493 25.1532 23.2043 25.5866 23.2043H30.0492C30.4826 23.2043 30.8376 22.8493 30.8376 22.4159V21.9212C30.8376 21.4878 30.4826 21.1328 30.0492 21.1328Z" fill="#0ABF7C"/>
<path d="M29.8397 23.2051V24.1447H27.9238H25.7962V23.2051H29.8397Z" fill="#8B9194"/>
<path d="M30.8801 30.2235H31.0054V24.9337C31.0054 24.8523 30.9924 24.7738 30.9694 24.6997C30.8693 24.3793 30.569 24.1445 30.2162 24.1445H25.7962H25.6471H25.4189C25.2418 24.1445 25.0783 24.2043 24.9458 24.3044C24.9365 24.3116 24.9271 24.3181 24.9178 24.3253C24.9163 24.3267 24.9149 24.3281 24.9134 24.3296C24.8954 24.3447 24.8782 24.3598 24.8616 24.3764C24.8602 24.3778 24.8594 24.3793 24.858 24.38C24.8414 24.3965 24.8256 24.4138 24.8105 24.4325C24.8018 24.4426 24.7946 24.4534 24.7867 24.4642C24.7795 24.4743 24.7716 24.4829 24.7651 24.493C24.6802 24.619 24.6298 24.7702 24.6298 24.9329V30.2228H30.8801V30.2235Z" fill="white"/>
<path d="M31.0054 30.2236H30.8808H30.8376H24.7982H24.6305V33.2124C24.6305 33.4564 24.7428 33.6753 24.9185 33.82C25.0546 33.9331 25.2295 34.0008 25.4196 34.0008H30.217C30.6504 34.0008 31.0061 33.6458 31.0061 33.2124V30.2244L31.0054 30.2236Z" fill="#FFB6C7"/>
<path d="M26.8481 8.70547L26.825 8.68531L28.1074 7.23307L27.8078 6.96883L27.5083 6.70459L26.226 8.15683L26.5284 8.42395C25.4441 9.66523 23.3539 12.0556 23.3539 12.0556L22.5151 11.3147L22.2106 11.0462C22.1486 10.9915 22.0694 10.9663 21.9924 10.972C21.9154 10.9763 21.8405 11.0102 21.785 11.0728C21.6756 11.1967 21.6878 11.3889 21.8117 11.4983L22.5151 12.119L23.3539 12.8599L24.0574 13.4805C24.12 13.5352 24.1985 13.5597 24.2762 13.5554C24.3533 13.5504 24.4282 13.5165 24.4829 13.4539C24.593 13.3293 24.5808 13.1385 24.4562 13.0283L24.1517 12.7598L26.9791 9.55723L26.8481 8.70547Z" fill="#008D5C"/>
<path d="M7.76087 32.9307C7.94159 33.0905 7.95887 33.3692 7.79975 33.5499C7.71983 33.6406 7.61039 33.6896 7.49807 33.6975C7.38575 33.704 7.27055 33.6687 7.18055 33.5888L3.95495 30.7412C3.77423 30.5813 3.75695 30.3027 3.91607 30.122C3.99599 30.0313 4.10543 29.9823 4.21775 29.9744C4.33007 29.9679 4.44527 30.0032 4.53527 30.0831L7.76087 32.9307Z" fill="#DAD5D5"/>
<path d="M12.9694 29.4623L7.3296 24.4835C7.2468 24.4107 7.1424 24.3776 7.03872 24.3841C6.9372 24.3906 6.8364 24.4359 6.76368 24.5187C6.61752 24.6851 6.63336 24.9399 6.79824 25.0854L12.438 30.0642C12.5215 30.1376 12.6266 30.1693 12.7289 30.1635C12.8318 30.1578 12.9326 30.1117 13.0054 30.0289C13.1515 29.8633 13.1357 29.6084 12.9694 29.4623Z" fill="#DAD5D5"/>
<path d="M30.8376 21.9217V22.4163C30.8376 22.8498 30.4826 23.2047 30.0492 23.2047H25.5866C25.1532 23.2047 24.7982 22.8498 24.7982 22.4163H28.9289C28.9289 22.4163 30.0499 22.1874 30.0499 21.1333C30.4834 21.1333 30.8383 21.4883 30.8383 21.9217H30.8376Z" fill="#008D5C"/>
<path d="M31.0054 24.9285V30.2184H28.926C29.0578 29.8238 29.1262 29.3393 29.1442 28.746C29.2241 26.0697 28.1081 24.4937 27.923 24.1401H30.2162C30.6497 24.1401 31.0046 24.4951 31.0046 24.9285H31.0054Z" fill="#F3EEEE"/>
<path d="M31.0054 30.2183V33.207C31.0054 33.6404 30.6504 33.9954 30.217 33.9954H25.4189C24.9854 33.9954 24.6305 33.6404 24.6305 33.207V31.8851H24.7982C27.2426 31.8851 28.4666 31.605 28.9267 30.219H31.0061L31.0054 30.2183Z" fill="#FF4B72"/>
<path d="M21.294 15.2228C21.2868 15.2228 21.2803 15.2207 21.2746 15.2156L20.4358 14.4755C20.4235 14.4647 20.4228 14.4459 20.4329 14.4337C20.4437 14.4215 20.4624 14.4207 20.4746 14.4308L21.3134 15.171C21.3257 15.1818 21.3264 15.2005 21.3163 15.2127C21.3106 15.2192 21.3026 15.2228 21.294 15.2228Z" fill="#6A6565"/>
<path d="M20.2046 16.4562C20.1974 16.4562 20.191 16.4541 20.1852 16.449L19.3464 15.7089C19.3342 15.6981 19.3334 15.6793 19.3435 15.6671C19.3543 15.6549 19.373 15.6541 19.3853 15.6642L20.2241 16.4044C20.2363 16.4152 20.237 16.4339 20.227 16.4461C20.2212 16.4526 20.2133 16.4562 20.2046 16.4562Z" fill="#6A6565"/>
<path d="M18.0274 18.924C18.0202 18.924 18.0137 18.9218 18.0079 18.9168L17.1691 18.1766C17.1569 18.1658 17.1562 18.1471 17.1662 18.1349C17.177 18.1226 17.1958 18.1219 17.208 18.132L18.0468 18.8721C18.059 18.8829 18.0598 18.9017 18.0497 18.9139C18.0439 18.9204 18.036 18.924 18.0274 18.924Z" fill="#6A6565"/>
<path d="M13.6721 23.8571C13.6649 23.8571 13.6584 23.8549 13.6526 23.8499L12.8138 23.1097C12.8016 23.0989 12.8009 23.0802 12.811 23.068C12.8218 23.0557 12.8405 23.055 12.8527 23.0651L13.6915 23.8052C13.7038 23.816 13.7045 23.8348 13.6944 23.847C13.6886 23.8535 13.6807 23.8571 13.6721 23.8571Z" fill="#6A6565"/>
<path d="M19.116 17.6906C19.1088 17.6906 19.1023 17.6884 19.0966 17.6834L18.2578 16.9432C18.2455 16.9324 18.2448 16.9137 18.2549 16.9015C18.265 16.8892 18.2844 16.8885 18.2966 16.8986L19.1354 17.6387C19.1477 17.6495 19.1484 17.6683 19.1383 17.6805C19.1326 17.687 19.1246 17.6906 19.116 17.6906Z" fill="#6A6565"/>
<path d="M14.7607 22.6237C14.7535 22.6237 14.747 22.6215 14.7413 22.6165L13.9025 21.8763C13.8902 21.8655 13.8895 21.8468 13.8996 21.8346C13.9104 21.8223 13.9291 21.8216 13.9414 21.8317L14.7802 22.5719C14.7924 22.5827 14.7931 22.6014 14.783 22.6136C14.7773 22.6201 14.7694 22.6237 14.7607 22.6237Z" fill="#6A6565"/>
<path d="M12.5834 25.0915C12.5762 25.0915 12.5698 25.0893 12.564 25.0843L11.7252 24.3441C11.713 24.3333 11.7122 24.3146 11.7223 24.3023C11.7324 24.2901 11.7518 24.2894 11.7641 24.2995L12.6029 25.0396C12.6151 25.0504 12.6158 25.0691 12.6058 25.0814C12.6 25.0879 12.5921 25.0915 12.5834 25.0915Z" fill="#6A6565"/>
<path d="M11.4948 26.3249C11.4876 26.3249 11.4811 26.3227 11.4754 26.3177L10.6366 25.5775C10.6243 25.5667 10.6236 25.548 10.6337 25.5357C10.6445 25.5235 10.6632 25.5228 10.6754 25.5329L11.5142 26.273C11.5265 26.2838 11.5272 26.3025 11.5171 26.3148C11.5114 26.3213 11.5034 26.3249 11.4948 26.3249Z" fill="#6A6565"/>
<path d="M20.0146 13.0178C20.1593 13.0178 20.2766 12.9005 20.2766 12.7557C20.2766 12.611 20.1593 12.4937 20.0146 12.4937C19.8698 12.4937 19.7525 12.611 19.7525 12.7557C19.7525 12.9005 19.8698 13.0178 20.0146 13.0178Z" fill="white"/>
<path d="M15.647 17.9127C15.606 17.9127 15.565 17.8983 15.5311 17.8695C15.4577 17.8055 15.4505 17.6946 15.5138 17.6211L19.3889 13.1744C19.453 13.101 19.5638 13.0931 19.6373 13.1571C19.7107 13.2212 19.7179 13.3321 19.6546 13.4055L15.7795 17.8523C15.745 17.8926 15.696 17.9127 15.647 17.9127Z" fill="white"/>
<path d="M8.20544 25.2559L13.4561 19.3072L13.5441 19.3849L8.29346 25.3336L8.20544 25.2559Z" fill="#DAD5D5"/>
<path d="M12.0248 28.6162L17.2755 22.6676L17.3635 22.7453L12.1128 28.6939L12.0248 28.6162Z" fill="#DAD5D5"/>
<path d="M32.3489 1.82374C32.2517 1.73806 32.1034 1.74743 32.0177 1.84463L27.7877 6.63695L27.6638 6.52751C27.617 6.48647 27.5558 6.46558 27.4939 6.46918C27.432 6.47278 27.3737 6.50159 27.3326 6.54838L26.1418 7.89694L25.3483 7.87679C25.2792 7.87391 25.2122 7.90415 25.1662 7.95599L22.4942 10.9829L22.3661 10.8691C22.2595 10.7755 22.1177 10.7273 21.9802 10.7366C21.8369 10.7445 21.7051 10.8086 21.6101 10.9166C21.5158 11.0239 21.4682 11.1614 21.4776 11.3047C21.4862 11.448 21.5503 11.579 21.6576 11.6733L22.1854 12.1392L21.8383 12.533C21.2818 12.1946 20.6352 11.9592 19.8972 11.8325L19.7683 11.8101L14.4979 17.7811L13.2826 19.1585L8.18928 24.9285L7.48657 24.3086C7.35985 24.1963 7.1964 24.1401 7.02576 24.1509C6.85873 24.161 6.6996 24.2388 6.58873 24.3641C6.4764 24.4915 6.42024 24.6549 6.43104 24.8249C6.44184 24.9948 6.51744 25.1503 6.64416 25.2626L8.06688 26.5183L5.346 30.4855L4.69224 29.9081C4.55832 29.79 4.38624 29.7317 4.20336 29.741C4.02336 29.7533 3.85992 29.8332 3.74184 29.9671C3.62304 30.1017 3.564 30.2745 3.5748 30.4545C3.5856 30.6345 3.66624 30.7987 3.80088 30.9175L7.02648 33.7651C7.15032 33.8745 7.30728 33.9336 7.47432 33.9336C7.488 33.9336 7.50168 33.9336 7.51536 33.9321C7.69536 33.9199 7.85881 33.84 7.97688 33.7061C8.09569 33.5714 8.15473 33.3986 8.14393 33.2186C8.1324 33.0386 8.05248 32.8745 7.91784 32.7557L7.26336 32.1782L10.8619 28.9857L12.2846 30.2414C12.4013 30.3444 12.5496 30.4005 12.7037 30.4005C12.7174 30.4005 12.7303 30.4005 12.744 30.3991C12.9139 30.3897 13.0702 30.3134 13.1832 30.186C13.415 29.9232 13.3898 29.52 13.127 29.2881L12.425 28.6682L17.5183 22.8981L18.7337 21.5208L24.0041 15.5498L23.9659 15.4245C23.7485 14.7081 23.4338 14.0954 23.0292 13.5849L23.3762 13.1911L23.904 13.6569C24.0026 13.7441 24.1279 13.7909 24.2611 13.7909C24.2719 13.7909 24.282 13.7909 24.2928 13.7901C24.4354 13.7815 24.5664 13.7174 24.6607 13.6101C24.8566 13.3884 24.835 13.0493 24.6139 12.8534L24.4858 12.7397L27.1577 9.71278C27.2038 9.66022 27.2239 9.59039 27.2138 9.52199L27.0936 8.74007L28.2859 7.38863C28.3716 7.29143 28.3622 7.14311 28.265 7.05743L28.1412 6.94871L32.3712 2.15639C32.4569 2.05919 32.4475 1.91087 32.3503 1.82519L32.3489 1.82374ZM13.4777 19.6445L13.8283 19.9541L8.89057 25.5485L8.53993 25.2389L13.4777 19.6445ZM14.1797 20.2644L16.3058 22.1414L11.3681 27.7358L9.24193 25.8588L14.1797 20.2644ZM7.60536 33.107C7.6896 33.1812 7.69752 33.3108 7.62336 33.395C7.58736 33.4353 7.53768 33.4598 7.4844 33.4634C7.42968 33.467 7.37568 33.449 7.33536 33.413L4.10976 30.5654C4.06944 30.5294 4.04496 30.4797 4.04136 30.425C4.03776 30.3703 4.05576 30.3177 4.09176 30.2774C4.12776 30.2371 4.17744 30.2126 4.23072 30.209H4.24368C4.2948 30.209 4.34304 30.227 4.37976 30.2601L6.75216 32.3539L7.60536 33.107ZM6.90696 31.8643L5.6988 30.798L8.41968 26.8308L10.5041 28.6711L6.90696 31.8643ZM12.8146 29.6388C12.8837 29.7 12.8909 29.8058 12.8297 29.8742C12.8002 29.9073 12.7598 29.9275 12.7145 29.9297C12.6698 29.9325 12.6266 29.9181 12.5935 29.8886L6.95376 24.9098C6.92064 24.881 6.9012 24.84 6.89832 24.7953C6.89544 24.7507 6.90984 24.7075 6.93936 24.6744C6.96816 24.642 7.0092 24.6218 7.05312 24.6189H7.06465C7.09561 24.6189 7.13664 24.6269 7.17408 24.66L11.2334 28.2427L12.8146 29.6381V29.6388ZM12.0715 28.3565L11.7209 28.0469L16.6586 22.4525L17.0093 22.7621L12.0715 28.3565ZM17.3203 22.41L13.7887 19.2924L14.6938 18.2671L18.2254 21.3847L17.3203 22.41ZM23.4763 15.4361L18.5357 21.0333L15.0041 17.9157L19.9447 12.3185C21.7498 12.6655 22.9075 13.6872 23.4763 15.4361ZM22.23 12.798L22.5367 12.4509L23.0234 12.8808L22.7167 13.2278C22.5648 13.073 22.4028 12.929 22.23 12.798ZM24.3079 13.2991C24.2928 13.3164 24.2748 13.3207 24.2647 13.3214C24.251 13.3221 24.2309 13.32 24.2143 13.3049L21.9686 11.3227C21.9514 11.3076 21.947 11.2874 21.947 11.2766C21.947 11.2658 21.947 11.2457 21.9629 11.2284C21.9773 11.2118 21.9953 11.2075 22.0104 11.2068H22.0147C22.0298 11.2068 22.045 11.2125 22.0572 11.2226L22.3618 11.4912L24.3036 13.2048C24.3209 13.2199 24.3252 13.2379 24.3259 13.2509C24.3266 13.2638 24.3245 13.2818 24.3094 13.2991H24.3079ZM24.1322 12.4293L22.847 11.2946L25.4462 8.34983L26.1094 8.36711L26.6292 8.82647L26.7307 9.48527L24.1315 12.4301L24.1322 12.4293ZM26.8056 8.35487L26.5586 8.13671L27.5299 7.03583L27.7769 7.25398L26.8056 8.35487Z" fill="#564B57"/>
<path d="M20.61 14.2774C20.5128 14.1917 20.3645 14.201 20.2788 14.2982C20.1931 14.3954 20.2025 14.5438 20.2997 14.6294L21.1385 15.3696C21.1831 15.4092 21.2386 15.4286 21.294 15.4286C21.3588 15.4286 21.4236 15.402 21.4704 15.3494C21.5561 15.2522 21.5467 15.1039 21.4495 15.0182L20.6107 14.2781L20.61 14.2774Z" fill="#564B57"/>
<path d="M19.5214 15.5108C19.4242 15.4251 19.2758 15.4344 19.1902 15.5316C19.1045 15.6288 19.1138 15.7772 19.211 15.8628L20.0498 16.603C20.0945 16.6426 20.1499 16.662 20.2054 16.662C20.2702 16.662 20.335 16.6354 20.3818 16.5828C20.4674 16.4856 20.4581 16.3373 20.3609 16.2516L19.5221 15.5115L19.5214 15.5108Z" fill="#564B57"/>
<path d="M17.3434 17.9776C17.2462 17.8919 17.0978 17.9012 17.0122 17.9984C16.9265 18.0956 16.9358 18.244 17.033 18.3296L17.8718 19.0705C17.9165 19.1101 17.9719 19.1296 18.0274 19.1296C18.0922 19.1296 18.157 19.1029 18.2038 19.0504C18.2894 18.9532 18.2801 18.8048 18.1829 18.7192L17.3441 17.9783L17.3434 17.9776Z" fill="#564B57"/>
<path d="M13.5166 24.0041C13.5612 24.0437 13.6166 24.0632 13.6721 24.0632C13.7369 24.0632 13.8017 24.0365 13.8485 23.984C13.9342 23.8868 13.9248 23.7385 13.8276 23.6528L12.9888 22.9126C12.8916 22.8269 12.7433 22.8363 12.6576 22.9335C12.5719 23.0307 12.5813 23.179 12.6785 23.2647L13.5173 24.0049L13.5166 24.0041Z" fill="#564B57"/>
<path d="M18.432 16.7442C18.3348 16.6585 18.1865 16.6678 18.1008 16.765C18.0151 16.8622 18.0245 17.0106 18.1217 17.0962L18.9605 17.8371C19.0051 17.8767 19.0606 17.8962 19.116 17.8962C19.1808 17.8962 19.2456 17.8695 19.2924 17.817C19.3781 17.7198 19.3687 17.5714 19.2715 17.4858L18.4327 16.7449L18.432 16.7442Z" fill="#564B57"/>
<path d="M14.6059 22.7705C14.6506 22.8101 14.706 22.8295 14.7614 22.8295C14.8262 22.8295 14.891 22.8029 14.9378 22.7503C15.0235 22.6531 15.0142 22.5048 14.917 22.4191L14.0782 21.6782C13.981 21.5926 13.8326 21.6019 13.747 21.6991C13.6613 21.7963 13.6706 21.9446 13.7678 22.0303L14.6066 22.7712L14.6059 22.7705Z" fill="#564B57"/>
<path d="M12.4279 25.2375C12.4726 25.2771 12.528 25.2966 12.5834 25.2966C12.6482 25.2966 12.713 25.2699 12.7598 25.2174C12.8455 25.1202 12.8362 24.9719 12.739 24.8862L11.9002 24.146C11.803 24.0603 11.6546 24.0697 11.569 24.1669C11.4833 24.2641 11.4926 24.4124 11.5898 24.4981L12.4286 25.2383L12.4279 25.2375Z" fill="#564B57"/>
<path d="M11.6705 26.4505C11.7562 26.3533 11.7468 26.205 11.6496 26.1193L10.8108 25.3784C10.7136 25.2928 10.5653 25.3021 10.4796 25.3993C10.3939 25.4965 10.4033 25.6448 10.5005 25.7305L11.3393 26.4714C11.3839 26.511 11.4394 26.5304 11.4948 26.5304C11.5596 26.5304 11.6244 26.5038 11.6712 26.4512L11.6705 26.4505Z" fill="#564B57"/>
<path d="M25.4189 23.91C24.8544 23.91 24.3958 24.3686 24.3958 24.9331V33.2116C24.3958 33.7761 24.8544 34.2348 25.4189 34.2348H30.217C30.7814 34.2348 31.2401 33.7761 31.2401 33.2116V24.9331C31.2401 24.3686 30.7807 23.91 30.217 23.91H30.0744V23.4384C30.6266 23.4247 31.0723 22.9718 31.0723 22.4167V21.922C31.0723 21.3576 30.6137 20.8989 30.0492 20.8989H25.5866C25.0222 20.8989 24.5635 21.3576 24.5635 21.922V22.4167C24.5635 22.9725 25.0092 23.4254 25.5614 23.4384V23.91H25.4189ZM30.7706 33.2116C30.7706 33.5169 30.5222 33.7653 30.217 33.7653H25.4189C25.1136 33.7653 24.8652 33.5169 24.8652 33.2116V30.4576H30.7706V33.2116ZM25.0322 22.4167V21.922C25.0322 21.6168 25.2806 21.3684 25.5859 21.3684H30.0485C30.3538 21.3684 30.6022 21.6168 30.6022 21.922V22.4167C30.6022 22.722 30.3538 22.9704 30.0485 22.9704H25.5859C25.2806 22.9704 25.0322 22.722 25.0322 22.4167ZM29.605 23.4398V23.91H26.0309V23.4398H29.605ZM25.7962 24.3794H30.217C30.5222 24.3794 30.7706 24.6278 30.7706 24.9331V29.9889H24.8652V24.9331C24.8652 24.6278 25.1136 24.3794 25.4189 24.3794H25.7962Z" fill="#564B57"/>
</svg>
