<svg width="36" height="36" viewBox="0 0 36 36" fill="none" xmlns="http://www.w3.org/2000/svg">
<path d="M30.0493 21.1335C30.0493 22.1876 28.9283 22.4166 28.9283 22.4166H24.7983V21.9212C24.7983 21.4878 25.1533 21.1328 25.5867 21.1328H30.0493V21.1335Z" fill="#FFE780"/>
<path d="M25.7961 24.1447V23.2051H29.8389V24.1447H27.923H25.7961Z" fill="#8B9194"/>
<path d="M25.586 23.2052C25.1526 23.2052 24.7976 22.8503 24.7976 22.4168H28.9275C28.9275 22.4168 30.0486 22.1879 30.0486 21.1338C30.482 21.1338 30.837 21.4887 30.837 21.9222V22.4168C30.837 22.8503 30.4827 23.2052 30.0486 23.2052H29.8383H25.7955H25.5853H25.586Z" fill="#E8AE4E"/>
<path d="M11.3984 28.0693L16.6491 22.1207L17.3522 22.7413L12.1015 28.6899L11.3984 28.0693Z" fill="white"/>
<path d="M15.2647 18.459L18.5558 21.3642L17.3405 22.7408L16.6377 22.1202L15.4735 21.0935L14.1588 19.9328L13.4568 19.3129L14.6721 17.9355L15.2647 18.459Z" fill="#6A6565"/>
<path d="M15.4734 21.0938L6.17749 31.533L6.90757 32.1774L10.8395 28.6897L10.8575 28.6689L16.6377 22.1205L15.4734 21.0938Z" fill="#DAD5D5"/>
<path d="M23.354 12.859C23.354 12.859 22.6174 13.6957 22.549 13.7727L21.7102 13.0318C21.7786 12.9548 22.5152 12.1182 22.5152 12.1182L23.354 12.859Z" fill="#8B9194"/>
<path d="M15.4735 21.0942L14.1587 19.9336L8.37858 26.482L8.36058 26.5022L5.3877 30.8366L6.17754 31.5335L15.4735 21.0942Z" fill="#F2EDED"/>
<path d="M26.848 8.7057L26.825 8.68554L28.1073 7.2333L27.5082 6.7041L26.2259 8.15634L26.2 8.1333L25.3418 8.1117L22.5143 11.3143L22.2098 11.0457C22.1478 10.991 22.0686 10.9658 21.9916 10.9715C21.9146 10.9759 21.8397 11.0097 21.7842 11.0723C21.6748 11.1962 21.687 11.3884 21.8109 11.4979L24.0566 13.48C24.1192 13.5347 24.1977 13.5592 24.2754 13.5549C24.3525 13.5499 24.4274 13.516 24.4821 13.4534C24.5922 13.3288 24.58 13.138 24.4554 13.0279L24.1509 12.7593L26.9783 9.55674L26.8473 8.70498L26.848 8.7057Z" fill="#4270B7"/>
<path d="M8.21606 25.2627L13.4667 19.3141L14.1693 19.9342L8.91861 25.8828L8.21606 25.2627Z" fill="white"/>
<path d="M22.6425 13.4891C21.9556 12.7396 21.0268 12.2651 19.8561 12.0635L14.6721 17.9358L18.5558 21.3637L23.7398 15.4914C23.4957 14.6864 23.1292 14.0183 22.6425 13.4891Z" fill="#FFB6C7"/>
<path d="M22.6425 13.4893C22.6425 13.4893 22.9384 14.6312 20.8742 16.9273C18.9489 19.0685 17.226 17.9821 16.3936 17.1807C16.0596 16.8581 15.8688 16.5809 15.8688 16.5809L14.6721 17.9367L18.5558 21.3646L23.7398 15.4923C23.4957 14.6873 23.1292 14.0192 22.6425 13.49V13.4893Z" fill="#FF4B72"/>
<path d="M27.8085 7.02749C27.7949 7.02749 27.7812 7.02245 27.7697 7.01309C27.7452 6.99149 27.743 6.95477 27.7646 6.93029L32.1501 1.96229C32.1717 1.93781 32.2085 1.93565 32.2329 1.95725C32.2574 1.97885 32.2596 2.01557 32.238 2.04005L27.8525 7.00805C27.8409 7.02101 27.8244 7.02821 27.8085 7.02821V7.02749Z" fill="#6A6565"/>
<path d="M30.0493 21.1328H25.5867C25.1533 21.1328 24.7983 21.4878 24.7983 21.9212V22.4159C24.7983 22.8493 25.1533 23.2043 25.5867 23.2043H30.0493C30.4827 23.2043 30.8377 22.8493 30.8377 22.4159V21.9212C30.8377 21.4878 30.4827 21.1328 30.0493 21.1328Z" fill="#4270B7"/>
<path d="M29.8397 23.2051V24.1447H27.9237H25.7961V23.2051H29.8397Z" fill="#8B9194"/>
<path d="M30.8802 30.2235H31.0055V24.9337C31.0055 24.8523 30.9925 24.7738 30.9695 24.6997C30.8694 24.3793 30.5692 24.1445 30.2164 24.1445H25.7963H25.6472H25.419C25.2419 24.1445 25.0784 24.2043 24.946 24.3044C24.9366 24.3116 24.9272 24.3181 24.9179 24.3253C24.9164 24.3267 24.915 24.3281 24.9136 24.3296C24.8956 24.3447 24.8783 24.3598 24.8617 24.3764C24.8603 24.3778 24.8596 24.3793 24.8581 24.38C24.8416 24.3965 24.8257 24.4138 24.8106 24.4325C24.802 24.4426 24.7948 24.4534 24.7868 24.4642C24.7796 24.4743 24.7717 24.4829 24.7652 24.493C24.6803 24.619 24.6299 24.7702 24.6299 24.9329V30.2228H30.8802V30.2235Z" fill="white"/>
<path d="M31.0053 30.2236H30.8807H30.8375H24.7981H24.6304V33.2124C24.6304 33.4564 24.7427 33.6753 24.9184 33.82C25.0545 33.9331 25.2294 34.0008 25.4195 34.0008H30.2169C30.6503 34.0008 31.006 33.6458 31.006 33.2124V30.2244L31.0053 30.2236Z" fill="#FFB6C7"/>
<path d="M26.848 8.70596L26.825 8.6858L28.1073 7.23356L27.8078 6.96932L27.5083 6.70508L26.2259 8.15732L26.5283 8.42444C25.444 9.66572 23.3539 12.0561 23.3539 12.0561L22.5151 11.3152L22.2105 11.0467C22.1486 10.992 22.0694 10.9668 21.9923 10.9725C21.9153 10.9768 21.8404 11.0107 21.785 11.0733C21.6755 11.1972 21.6878 11.3894 21.8116 11.4988L22.5151 12.1195L23.3539 12.8604L24.0573 13.481C24.1199 13.5357 24.1984 13.5602 24.2762 13.5559C24.3532 13.5508 24.4281 13.517 24.4828 13.4544C24.593 13.3298 24.5807 13.139 24.4562 13.0288L24.1516 12.7603L26.9791 9.55772L26.848 8.70596Z" fill="#315B9D"/>
<path d="M7.7608 32.9307C7.94152 33.0905 7.9588 33.3692 7.79968 33.5499C7.71976 33.6406 7.61032 33.6896 7.498 33.6975C7.38568 33.704 7.27048 33.6687 7.18048 33.5888L3.95488 30.7412C3.77416 30.5813 3.75688 30.3027 3.916 30.122C3.99592 30.0313 4.10536 29.9823 4.21768 29.9744C4.33 29.9679 4.4452 30.0032 4.5352 30.0831L7.7608 32.9307Z" fill="#DAD5D5"/>
<path d="M12.9694 29.4627L7.32962 24.4839C7.24682 24.4112 7.14242 24.3781 7.03874 24.3846C6.93722 24.3911 6.83642 24.4364 6.7637 24.5192C6.61754 24.6855 6.63338 24.9404 6.79826 25.0859L12.438 30.0647C12.5215 30.1381 12.6267 30.1698 12.7289 30.164C12.8319 30.1583 12.9327 30.1122 13.0054 30.0294C13.1515 29.8638 13.1357 29.6089 12.9694 29.4627Z" fill="#DAD5D5"/>
<path d="M30.8377 21.9222V22.4168C30.8377 22.8503 30.4827 23.2052 30.0493 23.2052H25.5867C25.1533 23.2052 24.7983 22.8503 24.7983 22.4168H28.929C28.929 22.4168 30.05 22.1879 30.05 21.1338C30.4835 21.1338 30.8384 21.4887 30.8384 21.9222H30.8377Z" fill="#315B9D"/>
<path d="M31.0054 24.929V30.2189H28.9261C29.0578 29.8243 29.1262 29.3397 29.1442 28.7465C29.2241 26.0702 28.1081 24.4941 27.9231 24.1406H30.2163C30.6497 24.1406 31.0047 24.4956 31.0047 24.929H31.0054Z" fill="#F3EEEE"/>
<path d="M31.0053 30.2188V33.2075C31.0053 33.6409 30.6503 33.9959 30.2169 33.9959H25.4188C24.9853 33.9959 24.6304 33.6409 24.6304 33.2075V31.8855H24.7981C27.2425 31.8855 28.4665 31.6055 28.9266 30.2195H31.006L31.0053 30.2188Z" fill="#FF4B72"/>
<path d="M21.2939 15.2228C21.2867 15.2228 21.2802 15.2207 21.2744 15.2156L20.4356 14.4755C20.4234 14.4647 20.4227 14.4459 20.4328 14.4337C20.4436 14.4215 20.4623 14.4207 20.4745 14.4308L21.3133 15.171C21.3256 15.1818 21.3263 15.2005 21.3162 15.2127C21.3104 15.2192 21.3025 15.2228 21.2939 15.2228Z" fill="#6A6565"/>
<path d="M20.2045 16.4562C20.1973 16.4562 20.1909 16.4541 20.1851 16.449L19.3463 15.7089C19.3341 15.6981 19.3333 15.6793 19.3434 15.6671C19.3542 15.6549 19.3729 15.6541 19.3852 15.6642L20.224 16.4044C20.2362 16.4152 20.2369 16.4339 20.2268 16.4461C20.2211 16.4526 20.2132 16.4562 20.2045 16.4562Z" fill="#6A6565"/>
<path d="M18.0273 18.924C18.0201 18.924 18.0136 18.9218 18.0078 18.9168L17.169 18.1766C17.1568 18.1658 17.1561 18.1471 17.1662 18.1349C17.177 18.1226 17.1957 18.1219 17.2079 18.132L18.0467 18.8721C18.059 18.8829 18.0597 18.9017 18.0496 18.9139C18.0438 18.9204 18.0359 18.924 18.0273 18.924Z" fill="#6A6565"/>
<path d="M13.6721 23.8576C13.6649 23.8576 13.6584 23.8554 13.6526 23.8504L12.8138 23.1102C12.8016 23.0994 12.8009 23.0807 12.8109 23.0685C12.8217 23.0562 12.8405 23.0555 12.8527 23.0656L13.6915 23.8057C13.7037 23.8165 13.7045 23.8353 13.6944 23.8475C13.6886 23.854 13.6807 23.8576 13.6721 23.8576Z" fill="#6A6565"/>
<path d="M19.1159 17.6906C19.1087 17.6906 19.1022 17.6884 19.0965 17.6834L18.2577 16.9432C18.2454 16.9324 18.2447 16.9137 18.2548 16.9015C18.2649 16.8892 18.2843 16.8885 18.2965 16.8986L19.1353 17.6387C19.1476 17.6495 19.1483 17.6683 19.1382 17.6805C19.1325 17.687 19.1245 17.6906 19.1159 17.6906Z" fill="#6A6565"/>
<path d="M14.7607 22.6242C14.7535 22.6242 14.747 22.622 14.7412 22.617L13.9024 21.8768C13.8902 21.866 13.8895 21.8473 13.8996 21.8351C13.9104 21.8228 13.9291 21.8221 13.9413 21.8322L14.7801 22.5723C14.7924 22.5831 14.7931 22.6019 14.783 22.6141C14.7772 22.6206 14.7693 22.6242 14.7607 22.6242Z" fill="#6A6565"/>
<path d="M12.5834 25.091C12.5762 25.091 12.5698 25.0888 12.564 25.0838L11.7252 24.3436C11.713 24.3328 11.7122 24.3141 11.7223 24.3019C11.7324 24.2896 11.7518 24.2889 11.7641 24.299L12.6029 25.0391C12.6151 25.0499 12.6158 25.0687 12.6058 25.0809C12.6 25.0874 12.5921 25.091 12.5834 25.091Z" fill="#6A6565"/>
<path d="M11.4948 26.3244C11.4876 26.3244 11.4811 26.3222 11.4754 26.3172L10.6366 25.577C10.6243 25.5662 10.6236 25.5475 10.6337 25.5353C10.6445 25.523 10.6632 25.5223 10.6755 25.5324L11.5143 26.2725C11.5265 26.2833 11.5272 26.3021 11.5171 26.3143C11.5114 26.3208 11.5035 26.3244 11.4948 26.3244Z" fill="#6A6565"/>
<path d="M20.0145 13.0173C20.1593 13.0173 20.2766 12.9 20.2766 12.7552C20.2766 12.6105 20.1593 12.4932 20.0145 12.4932C19.8698 12.4932 19.7524 12.6105 19.7524 12.7552C19.7524 12.9 19.8698 13.0173 20.0145 13.0173Z" fill="white"/>
<path d="M15.647 17.9132C15.6059 17.9132 15.5649 17.8988 15.5311 17.87C15.4576 17.8059 15.4504 17.6951 15.5138 17.6216L19.3888 13.1749C19.4529 13.1015 19.5638 13.0935 19.6372 13.1576C19.7107 13.2217 19.7179 13.3326 19.6545 13.406L15.7795 17.8527C15.7449 17.8931 15.6959 17.9132 15.647 17.9132Z" fill="white"/>
<path d="M8.20532 25.2559L13.456 19.3072L13.544 19.3849L8.29334 25.3336L8.20532 25.2559Z" fill="#DAD5D5"/>
<path d="M12.0249 28.6162L17.2756 22.6676L17.3636 22.7453L12.1129 28.6939L12.0249 28.6162Z" fill="#DAD5D5"/>
<path d="M32.3488 1.82423C32.2516 1.73855 32.1033 1.74791 32.0176 1.84511L27.7876 6.63743L27.6638 6.52799C27.617 6.48695 27.5558 6.46607 27.4939 6.46967C27.4319 6.47327 27.3736 6.50207 27.3326 6.54887L26.1417 7.89743L25.3483 7.87727C25.2791 7.87439 25.2122 7.90463 25.1661 7.95647L22.4942 10.9834L22.366 10.8696C22.2595 10.776 22.1176 10.7278 21.9801 10.7371C21.8368 10.745 21.7051 10.8091 21.61 10.9171C21.5157 11.0244 21.4682 11.1619 21.4775 11.3052C21.4862 11.4485 21.5503 11.5795 21.6575 11.6738L22.1853 12.1397L21.8383 12.5335C21.2817 12.1951 20.6351 11.9597 19.8971 11.833L19.7683 11.8106L14.4979 17.7816L13.2825 19.159L8.18922 24.929L7.4865 24.3091C7.35978 24.1968 7.19634 24.1406 7.0257 24.1514C6.85866 24.1615 6.69954 24.2393 6.58866 24.3646C6.47634 24.492 6.42018 24.6554 6.43098 24.8254C6.44178 24.9953 6.51738 25.1508 6.6441 25.2631L8.06682 26.5188L5.34594 30.486L4.69218 29.9086C4.55826 29.7905 4.38618 29.7322 4.2033 29.7415C4.0233 29.7538 3.85986 29.8337 3.74178 29.9676C3.62298 30.1022 3.56394 30.275 3.57474 30.455C3.58554 30.635 3.66618 30.7992 3.80082 30.918L7.02642 33.7656C7.15026 33.875 7.30722 33.9341 7.47426 33.9341C7.48794 33.9341 7.50162 33.9341 7.5153 33.9326C7.6953 33.9204 7.85874 33.8405 7.97682 33.7066C8.09562 33.5719 8.15466 33.3991 8.14386 33.2191C8.13234 33.0391 8.05242 32.875 7.91778 32.7562L7.2633 32.1787L10.8619 28.9862L12.2846 30.2419C12.4012 30.3449 12.5495 30.401 12.7036 30.401C12.7173 30.401 12.7303 30.401 12.7439 30.3996C12.9139 30.3902 13.0701 30.3139 13.1831 30.1865C13.415 29.9237 13.3898 29.5205 13.127 29.2886L12.425 28.6687L17.5183 22.8986L18.7336 21.5213L24.004 15.5503L23.9659 15.425C23.7484 14.7086 23.4338 14.0959 23.0291 13.5854L23.3762 13.1916L23.9039 13.6574C24.0026 13.7446 24.1279 13.7914 24.2611 13.7914C24.2719 13.7914 24.2819 13.7914 24.2927 13.7906C24.4353 13.782 24.5663 13.7179 24.6607 13.6106C24.8565 13.3889 24.8349 13.0498 24.6139 12.8539L24.4857 12.7402L27.1576 9.71327C27.2037 9.66071 27.2239 9.59087 27.2138 9.52247L27.0935 8.74055L28.2859 7.38911C28.3715 7.29191 28.3622 7.14359 28.265 7.05791L28.1411 6.94919L32.3711 2.15687C32.4568 2.05967 32.4475 1.91135 32.3503 1.82567L32.3488 1.82423ZM13.4776 19.645L13.8283 19.9546L8.8905 25.549L8.53986 25.2394L13.4776 19.645ZM14.1796 20.2649L16.3058 22.1419L11.368 27.7363L9.24186 25.8593L14.1796 20.2649ZM7.6053 33.1075C7.68954 33.1817 7.69746 33.3113 7.6233 33.3955C7.5873 33.4358 7.53762 33.4603 7.48434 33.4639C7.42962 33.4675 7.37562 33.4495 7.3353 33.4135L4.1097 30.5659C4.06938 30.5299 4.0449 30.4802 4.0413 30.4255C4.0377 30.3708 4.0557 30.3182 4.0917 30.2779C4.1277 30.2376 4.17738 30.2131 4.23066 30.2095H4.24362C4.29474 30.2095 4.34298 30.2275 4.3797 30.2606L6.7521 32.3544L7.6053 33.1075ZM6.9069 31.8648L5.69874 30.7985L8.41962 26.8313L10.504 28.6716L6.9069 31.8648ZM12.8145 29.6393C12.8836 29.7005 12.8908 29.8063 12.8296 29.8747C12.8001 29.9078 12.7598 29.928 12.7144 29.9302C12.6698 29.933 12.6266 29.9186 12.5935 29.8891L6.9537 24.9103C6.92058 24.8815 6.90114 24.8405 6.89826 24.7958C6.89538 24.7512 6.90978 24.708 6.9393 24.6749C6.9681 24.6425 7.00914 24.6223 7.05306 24.6194H7.06458C7.09554 24.6194 7.13658 24.6274 7.17402 24.6605L11.2334 28.2432L12.8145 29.6386V29.6393ZM12.0715 28.357L11.7208 28.0474L16.6586 22.453L17.0092 22.7626L12.0715 28.357ZM17.3203 22.4105L13.7887 19.2929L14.6937 18.2676L18.2253 21.3852L17.3203 22.4105ZM23.4763 15.4366L18.5356 21.0338L15.004 17.9162L19.9447 12.319C21.7497 12.666 22.9075 13.6877 23.4763 15.4366ZM22.2299 12.7985L22.5367 12.4514L23.0234 12.8813L22.7167 13.2283C22.5647 13.0735 22.4027 12.9295 22.2299 12.7985ZM24.3079 13.2996C24.2927 13.3169 24.2747 13.3212 24.2647 13.3219C24.251 13.3226 24.2308 13.3205 24.2143 13.3054L21.9686 11.3232C21.9513 11.3081 21.947 11.2879 21.947 11.2771C21.947 11.2663 21.947 11.2462 21.9628 11.2289C21.9772 11.2123 21.9952 11.208 22.0103 11.2073H22.0147C22.0298 11.2073 22.0449 11.213 22.0571 11.2231L22.3617 11.4917L24.3035 13.2053C24.3208 13.2204 24.3251 13.2384 24.3259 13.2514C24.3266 13.2643 24.3244 13.2823 24.3093 13.2996H24.3079ZM24.1322 12.4298L22.847 11.2951L25.4462 8.35031L26.1093 8.36759L26.6291 8.82695L26.7307 9.48575L24.1315 12.4306L24.1322 12.4298ZM26.8055 8.35535L26.5586 8.13719L27.5299 7.03631L27.7768 7.25447L26.8055 8.35535Z" fill="#564B57"/>
<path d="M20.61 14.2783C20.5128 14.1927 20.3645 14.202 20.2788 14.2992C20.1931 14.3964 20.2025 14.5447 20.2997 14.6304L21.1385 15.3706C21.1831 15.4102 21.2386 15.4296 21.294 15.4296C21.3588 15.4296 21.4236 15.403 21.4704 15.3504C21.5561 15.2532 21.5467 15.1049 21.4495 15.0192L20.6107 14.2791L20.61 14.2783Z" fill="#564B57"/>
<path d="M19.5214 15.5117C19.4242 15.4261 19.2759 15.4354 19.1902 15.5326C19.1045 15.6298 19.1139 15.7781 19.2111 15.8638L20.0499 16.604C20.0945 16.6436 20.15 16.663 20.2054 16.663C20.2702 16.663 20.335 16.6364 20.3818 16.5838C20.4675 16.4866 20.4581 16.3383 20.3609 16.2526L19.5221 15.5125L19.5214 15.5117Z" fill="#564B57"/>
<path d="M17.3434 17.9785C17.2462 17.8929 17.0979 17.9022 17.0122 17.9994C16.9265 18.0966 16.9359 18.2449 17.0331 18.3306L17.8719 19.0715C17.9165 19.1111 17.972 19.1305 18.0274 19.1305C18.0922 19.1305 18.157 19.1039 18.2038 19.0513C18.2895 18.9541 18.2801 18.8058 18.1829 18.7201L17.3441 17.9792L17.3434 17.9785Z" fill="#564B57"/>
<path d="M13.5164 24.0046C13.5611 24.0442 13.6165 24.0637 13.672 24.0637C13.7368 24.0637 13.8016 24.037 13.8484 23.9845C13.934 23.8873 13.9247 23.7389 13.8275 23.6533L12.9887 22.9131C12.8915 22.8274 12.7432 22.8368 12.6575 22.934C12.5718 23.0312 12.5812 23.1795 12.6784 23.2652L13.5172 24.0053L13.5164 24.0046Z" fill="#564B57"/>
<path d="M18.432 16.7451C18.3348 16.6595 18.1865 16.6688 18.1008 16.766C18.0152 16.8632 18.0245 17.0115 18.1217 17.0972L18.9605 17.8381C19.0052 17.8777 19.0606 17.8971 19.116 17.8971C19.1808 17.8971 19.2456 17.8705 19.2924 17.8179C19.3781 17.7207 19.3688 17.5724 19.2716 17.4867L18.4328 16.7459L18.432 16.7451Z" fill="#564B57"/>
<path d="M14.6058 22.771C14.6504 22.8106 14.7059 22.83 14.7613 22.83C14.8261 22.83 14.8909 22.8034 14.9377 22.7508C15.0234 22.6536 15.014 22.5053 14.9168 22.4196L14.078 21.6787C13.9808 21.593 13.8325 21.6024 13.7468 21.6996C13.6612 21.7968 13.6705 21.9451 13.7677 22.0308L14.6065 22.7717L14.6058 22.771Z" fill="#564B57"/>
<path d="M12.4278 25.238C12.4725 25.2776 12.5279 25.2971 12.5833 25.2971C12.6481 25.2971 12.7129 25.2704 12.7597 25.2179C12.8454 25.1207 12.8361 24.9723 12.7389 24.8867L11.9001 24.1465C11.8029 24.0608 11.6545 24.0702 11.5689 24.1674C11.4832 24.2646 11.4925 24.4129 11.5897 24.4986L12.4285 25.2387L12.4278 25.238Z" fill="#564B57"/>
<path d="M11.6704 26.451C11.7561 26.3538 11.7467 26.2055 11.6495 26.1198L10.8107 25.3789C10.7135 25.2932 10.5652 25.3026 10.4795 25.3998C10.3938 25.497 10.4032 25.6453 10.5004 25.731L11.3392 26.4719C11.3838 26.5115 11.4393 26.5309 11.4947 26.5309C11.5595 26.5309 11.6243 26.5043 11.6711 26.4517L11.6704 26.451Z" fill="#564B57"/>
<path d="M25.4189 23.9105C24.8544 23.9105 24.3958 24.3691 24.3958 24.9336V33.2121C24.3958 33.7766 24.8544 34.2353 25.4189 34.2353H30.217C30.7814 34.2353 31.2401 33.7766 31.2401 33.2121V24.9336C31.2401 24.3691 30.7807 23.9105 30.217 23.9105H30.0744V23.4389C30.6266 23.4252 31.0723 22.9723 31.0723 22.4172V21.9225C31.0723 21.3581 30.6137 20.8994 30.0492 20.8994H25.5866C25.0222 20.8994 24.5635 21.3581 24.5635 21.9225V22.4172C24.5635 22.973 25.0092 23.4259 25.5614 23.4389V23.9105H25.4189ZM30.7706 33.2121C30.7706 33.5174 30.5222 33.7658 30.217 33.7658H25.4189C25.1136 33.7658 24.8652 33.5174 24.8652 33.2121V30.4581H30.7706V33.2121ZM25.0322 22.4172V21.9225C25.0322 21.6173 25.2806 21.3689 25.5859 21.3689H30.0485C30.3538 21.3689 30.6022 21.6173 30.6022 21.9225V22.4172C30.6022 22.7225 30.3538 22.9709 30.0485 22.9709H25.5859C25.2806 22.9709 25.0322 22.7225 25.0322 22.4172ZM29.605 23.4403V23.9105H26.0309V23.4403H29.605ZM25.7962 24.3799H30.217C30.5222 24.3799 30.7706 24.6283 30.7706 24.9336V29.9894H24.8652V24.9336C24.8652 24.6283 25.1136 24.3799 25.4189 24.3799H25.7962Z" fill="#564B57"/>
</svg>
