<svg width="34" height="34" viewBox="0 0 34 34" fill="none" xmlns="http://www.w3.org/2000/svg">
<g clip-path="url(#clip0_561_14107)">
<path d="M12.5941 11.2767C12.5761 11.144 12.5209 11.0192 12.4348 10.9166C12.3488 10.8141 12.2354 10.738 12.1079 10.6972C11.9804 10.6564 11.8439 10.6526 11.7144 10.6862C11.5848 10.7198 11.4674 10.7895 11.3757 10.8871C10.7279 11.5694 10.0002 12.1711 9.20824 12.6792C9.14125 12.1485 8.9082 11.6527 8.54241 11.2625C10.0422 10.2662 11.279 8.92244 12.1478 7.34542C12.3107 7.0125 12.0132 5.32667 12.0699 0.743749C12.0699 0.555887 11.9953 0.37572 11.8624 0.242882C11.7296 0.110043 11.5494 0.0354156 11.3616 0.0354156C11.1737 0.0354156 10.9935 0.110043 10.8607 0.242882C10.7279 0.37572 10.6532 0.555887 10.6532 0.743749C10.6532 2.16042 10.6532 4.38458 10.7949 6.89917C9.77251 8.543 8.34268 9.89476 6.64408 10.8233C4.63949 11.7867 6.08449 15.5904 8.15283 14.8254C9.34168 14.3671 10.4418 13.7056 11.4041 12.8704C12.1124 17.6233 12.8207 17.4108 12.7712 21.9158C12.6649 21.9583 12.5516 22.015 12.4453 22.0504C9.78908 22.9075 8.98158 25.6417 10.3982 25.6417C11.4678 25.6417 10.6462 24.225 12.7357 23.46C12.3745 31.96 10.717 33.8229 12.1266 34.085C12.3106 34.1181 12.5002 34.0771 12.6542 33.971C12.8081 33.8648 12.9138 33.7021 12.9482 33.5183C15.5407 18.9762 13.4582 17.9421 12.5941 11.2767ZM7.23908 12.0417C7.35949 11.9992 7.62866 12.2967 7.72783 12.6154C7.82699 12.9342 7.79866 13.5575 7.55074 13.4371C7.35214 13.3095 7.2082 13.1125 7.14699 12.8846C7.08324 12.8846 7.04074 12.1196 7.23908 12.0417Z" fill="#008D5C"/>
<path d="M27.3982 8.53542C25.5565 9.15167 24.2744 11.4183 23.1482 13.4088C22.1353 15.2008 21.6394 16.2421 19.6915 16.8017C18.817 15.9401 18.0337 14.9906 17.354 13.9683C16.7881 11.0769 16.4588 8.14412 16.3694 5.19917C16.6518 5.45506 16.9037 5.74265 17.1203 6.05625C18.6998 8.42917 20.3573 8.5 20.5415 8.5C20.7294 8.5 20.9095 8.42537 21.0424 8.29253C21.1752 8.1597 21.2498 7.97953 21.2498 7.79167C21.2498 7.60381 21.1752 7.42364 21.0424 7.2908C20.9095 7.15796 20.7294 7.08333 20.5415 7.08333C20.4919 7.08333 19.4294 7.00542 18.2748 5.27C17.7482 4.51216 17.0735 3.86881 16.2915 3.37875C16.2915 2.42958 16.2915 1.53 16.2915 0.708333C16.2915 0.520472 16.2169 0.340304 16.084 0.207466C15.9512 0.0746278 15.771 0 15.5832 0C15.3953 0 15.2151 0.0746278 15.0823 0.207466C14.9495 0.340304 14.8748 0.520472 14.8748 0.708333C14.7729 5.29144 15.1455 9.8728 15.9869 14.3792C16.1073 14.9317 18.374 17.6446 19.0611 18.1475C20.3906 19.4476 22.0063 20.4179 23.7786 20.9808C23.5857 21.3048 23.4594 21.664 23.4071 22.0374C23.3548 22.4108 23.3775 22.7909 23.474 23.1554C21.4947 22.663 19.6675 21.6898 18.1544 20.3221C18.0502 20.2328 17.9222 20.1757 17.7861 20.1578C17.65 20.1399 17.5116 20.1619 17.3878 20.2212C17.264 20.2805 17.16 20.3745 17.0887 20.4917C17.0173 20.609 16.9815 20.7445 16.9857 20.8817C16.9917 25.0093 16.6123 29.1284 15.8523 33.1854C15.8204 33.3733 15.8644 33.5661 15.9747 33.7216C16.0849 33.877 16.2524 33.9822 16.4403 34.0142C16.6281 34.0461 16.821 34.0021 16.9764 33.8918C17.1318 33.7816 17.2371 33.6141 17.269 33.4263C17.933 29.7562 18.3166 26.0408 18.4165 22.3125C19.1109 22.8111 19.8481 23.2472 20.6194 23.6158C21.0032 24.4283 21.2177 25.3104 21.2498 26.2083C21.2048 26.8957 21.3495 27.5823 21.668 28.1931C21.9865 28.8039 22.4667 29.3155 23.0561 29.6721C23.2225 29.7511 23.4132 29.7621 23.5876 29.7028C23.7621 29.6435 23.9066 29.5186 23.9904 29.3546C24.0743 29.1905 24.0909 29.0003 24.0368 28.8242C23.9827 28.648 23.8622 28.4999 23.7007 28.4113C23.3471 28.17 23.0647 27.8384 22.8828 27.451C22.7009 27.0636 22.6262 26.6344 22.6665 26.2083C22.6665 23.0138 21.0303 24.7917 25.4998 24.7917C26.0444 24.7359 26.5531 24.4941 26.9401 24.107C27.3272 23.7199 27.569 23.2112 27.6248 22.6667C27.8515 21.1933 26.9165 19.7838 25.4998 19.8688C23.8103 19.6829 22.2146 18.9973 20.9169 17.8996C21.7968 17.5382 22.5627 16.9459 23.134 16.1854C24.6711 15.8383 25.259 15.0875 26.6757 15.5763C26.8541 15.6364 27.0492 15.6231 27.2179 15.5394C27.3866 15.4557 27.5151 15.3085 27.5753 15.13C27.6354 14.9515 27.6221 14.7565 27.5384 14.5878C27.4547 14.4191 27.3075 14.2905 27.129 14.2304C24.919 13.5221 24.0194 14.7404 24.3594 14.1383C25.3653 12.3675 26.4844 10.3558 27.8373 9.88833C28.0167 9.8301 28.1657 9.70298 28.2514 9.53493C28.337 9.36689 28.3524 9.1717 28.2942 8.99229C28.236 8.81288 28.1089 8.66396 27.9408 8.57828C27.7728 8.4926 27.5776 8.47718 27.3982 8.53542ZM25.7336 23.2546C25.174 23.6725 24.6994 22.9429 24.8128 22.1992C24.8694 21.7883 25.1315 21.3208 25.5211 21.2642C26.3711 21.25 26.4207 22.7517 25.7336 23.2546Z" fill="#008D5C"/>
</g>
<defs>
<clipPath id="clip0_561_14107">
<rect width="34" height="34" fill="white"/>
</clipPath>
</defs>
</svg>
